<?xml version="1.0" encoding="utf-8"?>
<!-- Generator: Adobe Illustrator 24.0.0, SVG Export Plug-In . SVG Version: 6.00 Build 0)  -->
<svg version="1.1" id="Layer_1" xmlns="http://www.w3.org/2000/svg" xmlns:xlink="http://www.w3.org/1999/xlink" x="0px" y="0px"
	 viewBox="0 0 1920 1080" style="enable-background:new 0 0 1920 1080;" xml:space="preserve">
<style type="text/css">
	.st0{fill:#606060;}
	.st1{clip-path:url(#SVGID_2_);}
	.st2{fill:#A8A8A8;}
	.st3{fill:url(#SVGID_3_);}
	.st4{fill:#F4F4F4;}
	.st5{fill:#F2F2F2;}
	.st6{fill:#D33527;}
	.st7{fill:#FFFFFF;}
	.st8{fill:none;stroke:#443C83;stroke-miterlimit:10;}
	.st9{fill:#443C83;}
	.st10{fill:#444444;}
	.st11{fill:none;stroke:#D33527;stroke-miterlimit:10;}
	.st12{fill:none;stroke:#FFFFFF;stroke-width:0.75;stroke-linejoin:round;stroke-miterlimit:10;}
</style>
<g>
	<path class="st0" d="M865.44,482.01c4.86,0,6.81,2.68,6.81,7.17v2.77c0,3.72-1.45,5.86-4.59,6.58c3.27,0.73,4.59,3.04,4.59,6.49
		v4.95c0,1.32,0.09,2.77,0.77,3.81h-2.18c-0.54-0.95-0.68-2.09-0.68-3.81v-5c0-4.22-2.32-5.4-5.95-5.4h-3.31v14.21h-2.09v-31.79
		H865.44z M864.26,497.68c3.72,0,5.9-1.04,5.9-5.31v-3c0-3.41-1.32-5.45-4.77-5.45h-4.5v13.76H864.26z"/>
	<path class="st0" d="M887.1,496.72v1.91h-8.67v13.26h10.44v1.91h-12.53v-31.79h12.53v1.91h-10.44v12.81H887.1z"/>
	<path class="st0" d="M905.67,489.68v0.68h-2v-0.82c0-3.36-1.27-5.9-4.72-5.9s-4.72,2.5-4.72,5.86c0,7.72,11.49,7.86,11.49,16.62
		c0,4.59-2,7.95-6.86,7.95s-6.86-3.36-6.86-7.95v-1.63h2v1.77c0,3.41,1.32,5.86,4.81,5.86s4.81-2.45,4.81-5.86
		c0-7.63-11.49-7.77-11.49-16.62c0-4.77,2.09-7.86,6.77-7.9C903.72,481.74,905.67,485.1,905.67,489.68z"/>
	<path class="st0" d="M914.57,513.8v-29.88h-6.49v-1.91h15.03v1.91h-6.45v29.88H914.57z"/>
	<path class="st0" d="M927.15,506.76l-1.59,7.04h-1.91l6.95-31.83h3.04l7.08,31.83h-2.09l-1.59-7.04H927.15z M927.46,504.94h9.26
		l-4.68-20.57L927.46,504.94z"/>
	<path class="st0" d="M945.9,506.12c0,3.41,1.27,6.04,4.77,6.04s4.77-2.63,4.77-6.04v-24.11h1.95v24.02c0,4.54-1.91,8.04-6.77,8.04
		s-6.81-3.5-6.81-8.04v-24.02h2.09V506.12z"/>
	<path class="st0" d="M967.6,482.01c4.86,0,6.81,2.68,6.81,7.17v2.77c0,3.72-1.45,5.86-4.59,6.58c3.27,0.73,4.59,3.04,4.59,6.49
		v4.95c0,1.32,0.09,2.77,0.77,3.81H973c-0.54-0.95-0.68-2.09-0.68-3.81v-5c0-4.22-2.32-5.4-5.95-5.4h-3.32v14.21h-2.09v-31.79H967.6
		z M966.42,497.68c3.72,0,5.9-1.04,5.9-5.31v-3c0-3.41-1.32-5.45-4.77-5.45h-4.5v13.76H966.42z"/>
	<path class="st0" d="M981.54,506.76l-1.59,7.04h-1.91l6.95-31.83h3.04l7.08,31.83h-2.09l-1.59-7.04H981.54z M981.86,504.94h9.26
		l-4.68-20.57L981.86,504.94z"/>
	<path class="st0" d="M1000.2,513.8h-1.91v-31.79h2.72l9.54,26.84v-26.84h1.91v31.79h-2.32l-9.95-28.34V513.8z"/>
	<path class="st0" d="M1021.54,513.8v-29.88h-6.49v-1.91h15.03v1.91h-6.45v29.88H1021.54z"/>
	<path class="st0" d="M1043.56,496.72v1.91h-8.67v13.26h10.44v1.91h-12.53v-31.79h12.53v1.91h-10.44v12.81H1043.56z"/>
</g>
<g>
	<path class="st0" d="M896.86,462.33c0,3.41,1.27,6.04,4.77,6.04s4.77-2.63,4.77-6.04v-24.11h1.95v24.02c0,4.54-1.91,8.04-6.77,8.04
		s-6.81-3.5-6.81-8.04v-24.02h2.09V462.33z"/>
	<path class="st0" d="M925.33,445.89v0.68h-2v-0.82c0-3.36-1.27-5.9-4.72-5.9s-4.72,2.5-4.72,5.86c0,7.72,11.49,7.86,11.49,16.62
		c0,4.59-2,7.95-6.86,7.95s-6.86-3.36-6.86-7.95v-1.63h2v1.77c0,3.41,1.32,5.86,4.81,5.86s4.81-2.45,4.81-5.86
		c0-7.63-11.49-7.77-11.49-16.62c0-4.77,2.09-7.86,6.77-7.9C923.38,437.94,925.33,441.3,925.33,445.89z"/>
	<path class="st0" d="M930.73,462.33c0,3.41,1.27,6.04,4.77,6.04s4.77-2.63,4.77-6.04v-24.11h1.95v24.02c0,4.54-1.91,8.04-6.77,8.04
		s-6.81-3.5-6.81-8.04v-24.02h2.09V462.33z"/>
	<path class="st0" d="M948.85,462.96l-1.59,7.04h-1.91l6.95-31.83h3.04l7.08,31.83h-2.09l-1.59-7.04H948.85z M949.17,461.15h9.26
		l-4.68-20.57L949.17,461.15z"/>
	<path class="st0" d="M972.23,438.21c4.86,0,6.81,2.68,6.81,7.17v2.77c0,3.72-1.45,5.86-4.59,6.58c3.27,0.73,4.59,3.04,4.59,6.49
		v4.95c0,1.32,0.09,2.77,0.77,3.81h-2.18c-0.54-0.95-0.68-2.09-0.68-3.81v-5c0-4.22-2.32-5.4-5.95-5.4h-3.32V470h-2.09v-31.79
		H972.23z M971.05,453.88c3.72,0,5.9-1.04,5.9-5.31v-3c0-3.41-1.32-5.45-4.77-5.45h-4.5v13.76H971.05z"/>
	<path class="st0" d="M985.22,438.21V470h-2.09v-31.79H985.22z"/>
	<path class="st0" d="M988.71,445.98c0-4.63,2.13-8.04,6.95-8.04c4.9,0,7.04,3.41,7.04,8.04v16.26c0,4.63-2.13,8.04-7.04,8.04
		c-4.81,0-6.95-3.41-6.95-8.04V445.98z M990.8,462.37c0,3.45,1.36,5.99,4.86,5.99c3.54,0,4.95-2.54,4.95-5.99v-16.53
		c0-3.45-1.41-5.99-4.95-5.99c-3.5,0-4.86,2.54-4.86,5.99V462.37z"/>
</g>
<g>
	<defs>
		<circle id="SVGID_1_" cx="954.69" cy="277.51" r="141.65"/>
	</defs>
	<use xlink:href="#SVGID_1_"  style="overflow:visible;fill:#DBDBDB;"/>
	<clipPath id="SVGID_2_">
		<use xlink:href="#SVGID_1_"  style="overflow:visible;"/>
	</clipPath>
	<g class="st1">
		<g>
			<ellipse class="st2" cx="956.34" cy="262.72" rx="77.33" ry="73.36"/>
			<linearGradient id="SVGID_3_" gradientUnits="userSpaceOnUse" x1="951.6234" y1="424.4096" x2="951.6234" y2="303.4341">
				<stop  offset="4.975120e-03" style="stop-color:#F2F2F2"/>
				<stop  offset="0.2723" style="stop-color:#EEEEEE"/>
				<stop  offset="0.5331" style="stop-color:#E3E3E2"/>
				<stop  offset="0.7903" style="stop-color:#CFCFCF"/>
				<stop  offset="1" style="stop-color:#BABAB9"/>
			</linearGradient>
			<path class="st3" d="M986.92,317.2c0,0-13.31,47.16,4.27,63.08c3.66,3.31,16.41,7.64,16.41,7.64l0.96,3.62
				c0,0-0.11-5.38,3.28-1.86c3.39,3.52,13.57,5.28,13.57,5.28l19.09,10.56c0,0,11.88,6.6,11.88,9.24c0,2.64,0,2.64,0,2.64H846.87
				l19.51-17.16l14.84-3.52c0,0,5.09-6.16,7.63-5.28s2.54,0.88,2.54,0.88l4.57-4.31c0,0,19.47-8.95,24.02-16.21
				c8.58-13.67,4.28-48.43,4.28-48.43L986.92,317.2z"/>
			<path class="st4" d="M910.65,308.25c0,0-6.66,11.42,21.63,37.66c2.53,2.35,8.22,9.5,10.94,10.54c9.93,3.81,15.33,1.24,20.88-0.4
				c4.45-1.32,10.44-8.29,10.44-8.29s23.54-18.07,23.96-27.29c0.42-9.21,3.32-12.22,3.32-12.22s0.64-1.22,3.01-0.09
				c4.13,1.98,6.56-5.97,7.32-14.71c0.58-6.69-3.12-15.24-7.36-14.84c-4.24,0.4-2.53,1.08-2.53,1.08c-0.05-0.47,0.34-8.41-1.25-14.6
				c-2.41-9.39,1.37-32.29-8.81-38.3c-10.18-6.01-3.26-8.58-17.99-12.89c-6.29-1.84-29.91,3.16-37.97,0.36
				c-8.06-2.8-21.25,26.74-23.96,32.25c-3.34,6.76-2.06,34.51-1.64,39.32c0.42,4.81,0.42,4.81,0.42,4.81s-2.97-12.82-5.51-13.62
				c-2.54-0.8-7.21-0.8-6.36,8.81c0.85,9.62-1.63,3.34,5.51,20.03C908.89,315.62,910.65,308.25,910.65,308.25z"/>
		</g>
		<g>
			<path class="st2" d="M918.61,371.26c-4.31-4.29-8.22-8.51-11.78-12.67C913.52,366.69,918.61,371.26,918.61,371.26z"/>
			<path class="st2" d="M916.47,362.07c1.78,1.21,3.01,1.69,3.01,1.69C918.44,363.24,917.44,362.67,916.47,362.07z"/>
			<path class="st2" d="M1043.81,262.67l-0.07,0.11c-0.17-5.28-1.02-10.93-2.75-16.97c-22.95-80.45-53.55-77.57-58.01-78.15
				c-4.47-0.58-16,7.18-16,7.18s-38.44-27.6-76.07,32.33c-12.23,19.48-18.74,35.94-21.49,49.82c-1.05,2.57-2.16,5.37-3.33,8.43
				c-2.75,7.22-1.22,10.82,1.9,12.45c0.28,3.67,0.84,7.08,1.62,10.26c0.01,1.81,0.09,3.68,0.26,5.61c-1.9,4.07-3.48,9.33-0.24,12.41
				c-0.72,7.74,2.48,12.68,7.89,14.88c4.72,9.62,11.98,19.66,22.85,29.58c2.01,2.63,4.17,5.29,6.47,7.97
				c-1.77-2.15-3.65-4.54-5.58-7.16c5.51,4.94,11.92,9.84,19.37,14.64c-0.45-0.29-11.29-7.44-22.62-19.78
				c-1.88-2.81-4.26-8.07-4.95-17.17c3.1,9.25,10.01,24.62,23.42,32.96c-3.06-2.08-7.73-6.3-10.55-13.9
				c1.48,0.38,3.2,0.51,5.19,0.31c0.69-0.07,6.64-2.6,14.14-8.65c0,0-12.54,8.49-20.29,5.36c-1.33-4.85-1.9-10.85-1.08-18.26
				c0.46-0.24,0.9-0.5,1.3-0.77c14.85,1.91,24.31-13.39,42.01-69.63c18.16-57.7,28.78-40.46,28.78-40.46
				c6.44,12.76,13.71,25.15,24.33,34.07c0,0-8.82-8.98-15.23-19.17c8.36,10.25,11.98,3.96,26.05,34.75
				c18.25,39.94-15.4,59.73-15.4,59.73s6.16-2.2,14.08-7.02c-0.91,3.85-2.64,8.5-4.65,11.91c-2.6-1.5-4.68-3.41-5.26-4.13
				c0.51,0.73,2.2,3,4.81,4.87c-0.21,0.33-0.43,0.65-0.64,0.95c-3.75,5.19-8.08-1.44-8.08-1.44c1.15,3.17,4.04,4.04,4.04,4.04
				c1.73,1.21,3.72-0.17,5.72-2.86c1.77,1.09,3.77,1.84,5.86,1.99c-0.23,0.62-0.48,1.21-0.73,1.76c0.31-0.52,0.64-1.1,0.97-1.75
				c8.86,0.38,11.26-16.2,11.91-24.87c0.62-0.89,1.21-1.76,1.79-2.61c4.51-4.44,8.72-9.72,11.96-15.89
				c-2.16,6.44-4.44,11.43-4.44,11.43c3.24-6.48,4.58-10.46,7.37-18c-2.27,7.49-5.19,13.88-5.19,13.88
				C1046.19,275.8,1043.81,262.67,1043.81,262.67z M867.87,276.02c-3.25-1.13-1.76-8.38,1.07-16.43
				C867.94,265.54,867.64,271.01,867.87,276.02z M889.02,325.29c-1.45-0.45-2.79-1.03-3.99-1.68c-0.21-0.47-0.41-0.95-0.61-1.42
				c1.22-0.03,2.49-0.17,3.81-0.43C888.46,322.87,888.72,324.06,889.02,325.29z M870.03,303.11c-0.5-1.5-0.29-3.5,0.25-5.56
				C870.88,301.95,870.81,298.7,870.03,303.11z M871.65,307.46c1.63,0.7-0.24-0.98,3.48,8.23c0.09,0.48,0.22,0.96,0.37,1.44
				C872.38,315.43,871.53,311.54,871.65,307.46z M875.52,309.48c-0.13-0.41-0.26-0.82-0.39-1.23c0.27,0.02,0.54,0.03,0.82,0.04
				C875.8,308.69,875.65,309.09,875.52,309.48z M874.43,305.79c-0.6-2.22-1.1-4.5-1.49-6.81c0.39-1.54-0.41-0.85,3.53,5.69
				c0.13,0.48,0.27,0.96,0.41,1.44C875.91,306.09,875.08,305.98,874.43,305.79z M879.37,318.73c-0.11-0.18-0.21-0.36-0.3-0.53
				c-0.1-0.09-0.19-0.18-0.28-0.28c-0.66-1.46-1.28-2.95-1.87-4.47c-0.01-1.35,0.34-2.76,0.94-4.17c0.39,1.2,0.81,2.42,1.26,3.65
				c0.15,0.8,0.42,1.52,0.81,2.16c0.53,1.37,1.09,2.75,1.7,4.16C880.81,319.13,880.05,318.95,879.37,318.73z M881,311.23
				c1.26,1.61,2.52,3.08,3.74,4.44C881.95,315.43,881,313.61,881,311.23z M887.3,318.39c0.43,0.44,0.33,0.26,0.43,0.82
				c-1.57,0.24-3.07,0.3-4.45,0.22c-0.27-0.68-0.53-1.36-0.79-2.05C883.78,318.02,885.4,318.36,887.3,318.39z M883.05,322.39
				c-0.41-0.29-0.36-0.22-0.1-0.21C882.98,322.25,883.02,322.32,883.05,322.39z M882.58,325.37c0.78,0.45,1.62,0.87,2.52,1.25
				c2.46,4.84,5.39,9.86,8.84,15.03C889.91,336.82,885.98,331.37,882.58,325.37z M897.25,345.46c-2.48-2.75-8.2-13.27-10.56-18.23
				c0.96,0.33,1.98,0.62,3.05,0.87C891.35,334.03,893.76,340.62,897.25,345.46z M1016.64,313.85c0.7-0.52,1.41-1.06,2.11-1.61
				c0.14,0.82,0.42,0.16-2.42,4.71C1016.45,315.96,1016.55,314.93,1016.64,313.85z M1006.3,330.97c2.63-3.86,5.22-9.8,7.2-14.9
				c0.69-0.46,1.38-0.94,2.07-1.44c-0.15,1.22-0.35,2.77-0.61,4.5c-1.25,1.98-1.39,2.14-0.03,0.23c-0.61,4.03-1.54,8.96-2.83,12.93
				C1010.18,332.48,1008.15,331.88,1006.3,330.97z M1018.48,325.98c-1.36,4.09-3.54,5.84-5.93,6.24c1.46-3.33,2.89-8.09,3.72-14.76
				c0.94-1.34,1.84-2.65,2.7-3.92C1019.57,317.55,1019.75,322.18,1018.48,325.98z M1023.76,308.34c0.04-0.51-0.08-0.29,0.55-0.88
				C1024.12,307.77,1023.94,308.06,1023.76,308.34z"/>
			<path class="st2" d="M999.88,326.22c-0.11-0.15-0.16-0.24-0.16-0.24C999.73,326.03,999.79,326.11,999.88,326.22z"/>
			<path class="st2" d="M1007.8,339.25c1.15-0.46,2.16-1.83,3.05-3.72C1009.17,338.3,1007.8,339.25,1007.8,339.25z"/>
		</g>
	</g>
	<use xlink:href="#SVGID_1_"  style="overflow:visible;fill:none;stroke:#D33527;stroke-width:4;stroke-miterlimit:10;"/>
</g>
<g>
	<g>
		<g>
			<path class="st5" d="M157.22,629.91c0-16.38,7.61-26.95,22.99-26.95c15.52,0,23.13,10.56,23.13,26.95v55.28
				c0,16.38-7.61,27.1-23.13,27.1c-15.37,0-22.99-10.72-22.99-27.1V629.91z M168.28,685.95c0,9.65,3.88,15.46,11.92,15.46
				c8.19,0,11.92-5.82,11.92-15.46v-56.66c0-9.8-3.74-15.62-11.92-15.62c-8.04,0-11.92,5.82-11.92,15.62V685.95z"/>
			<path class="st5" d="M234.51,623.47c-3.74,2.45-8.62,4.29-13.94,4.59v-9.8c10.92-0.46,14.65-6.74,17.24-14.24h7.76v107.19h-11.06
				V623.47z"/>
		</g>
		<g>
			<g>
				<ellipse class="st6" cx="254.72" cy="743.98" rx="57.7" ry="61.5"/>
				<ellipse class="st7" cx="254.72" cy="743.98" rx="45.7" ry="48.71"/>
				<ellipse class="st6" cx="254.72" cy="743.98" rx="34.52" ry="36.8"/>
				<ellipse class="st7" cx="254.72" cy="743.98" rx="22.03" ry="23.48"/>
				<ellipse class="st6" cx="254.72" cy="743.98" rx="10.19" ry="10.86"/>
			</g>
			<line class="st8" x1="254.72" y1="743.98" x2="299" y2="718.56"/>
			<polygon class="st9" points="312.47,716.94 295.35,727.33 288.03,724.74 289.87,717.06 306.98,706.67 305.74,714.23 			"/>
		</g>
		<g>
			<path class="st10" d="M372.44,741.69l-0.79,4.15h-2.12l3.94-20.6h3.33l3.94,20.6h-2.3l-0.79-4.15H372.44z M372.73,739.72h4.59
				L375,727.83L372.73,739.72z"/>
			<path class="st10" d="M391.63,730.21v1.85h-2.18v-1.97c0-1.85-0.74-2.97-2.41-2.97c-1.65,0-2.41,1.12-2.41,2.97v10.89
				c0,1.85,0.77,2.97,2.41,2.97c1.68,0,2.41-1.12,2.41-2.97v-2.68h2.18v2.56c0,3.12-1.47,5.18-4.65,5.18
				c-3.15,0-4.62-2.06-4.62-5.18v-10.66c0-3.12,1.47-5.18,4.62-5.18C390.16,725.03,391.63,727.09,391.63,730.21z"/>
			<path class="st10" d="M402.82,730.21v1.85h-2.18v-1.97c0-1.85-0.74-2.97-2.41-2.97c-1.65,0-2.41,1.12-2.41,2.97v10.89
				c0,1.85,0.77,2.97,2.41,2.97c1.68,0,2.41-1.12,2.41-2.97v-2.68h2.18v2.56c0,3.12-1.47,5.18-4.65,5.18
				c-3.15,0-4.62-2.06-4.62-5.18v-10.66c0-3.12,1.47-5.18,4.62-5.18C401.35,725.03,402.82,727.09,402.82,730.21z"/>
			<path class="st10" d="M412.24,734.36v2.06h-5.03v7.33h6.18v2.09h-8.48v-20.6h8.48v2.09h-6.18v7.03H412.24z"/>
			<path class="st10" d="M424.43,730.18v0.56h-2.18v-0.68c0-1.85-0.71-2.94-2.35-2.94s-2.35,1.09-2.35,2.91
				c0,4.62,6.92,5.06,6.92,10.86c0,3.12-1.5,5.15-4.65,5.15s-4.62-2.03-4.62-5.15v-1.18h2.15v1.29c0,1.85,0.77,2.94,2.41,2.94
				s2.41-1.09,2.41-2.94c0-4.59-6.89-5.03-6.89-10.83c0-3.18,1.47-5.15,4.56-5.15C422.96,725.03,424.43,727.06,424.43,730.18z"/>
			<path class="st10" d="M426.29,730.21c0-3.15,1.56-5.18,4.71-5.18c3.18,0,4.74,2.03,4.74,5.18v10.66c0,3.12-1.56,5.18-4.74,5.18
				c-3.15,0-4.71-2.06-4.71-5.18V730.21z M428.55,740.99c0,1.88,0.79,2.97,2.44,2.97c1.68,0,2.44-1.09,2.44-2.97V730.1
				c0-1.85-0.77-2.97-2.44-2.97c-1.65,0-2.44,1.12-2.44,2.97V740.99z"/>
			<path class="st10" d="M444.8,741.69l-0.79,4.15h-2.12l3.94-20.6h3.33l3.94,20.6h-2.3l-0.79-4.15H444.8z M445.1,739.72h4.59
				l-2.33-11.89L445.1,739.72z"/>
			<path class="st10" d="M461.64,740.99c0,1.85,0.74,2.97,2.41,2.97c1.65,0,2.38-1.12,2.38-2.97v-15.75h2.15v15.63
				c0,3.12-1.44,5.21-4.62,5.21c-3.15,0-4.59-2.09-4.59-5.21v-15.63h2.27V740.99z"/>
			<path class="st10" d="M472.89,745.84h-2.06v-20.6h2.91l4.77,14.89v-14.89h2.03v20.6h-2.38l-5.27-16.66V745.84z"/>
			<path class="st10" d="M374.71,760.57c3.24,0,4.59,1.65,4.59,4.71v1.68c0,2.27-0.79,3.68-2.56,4.24c1.88,0.56,2.59,2.09,2.59,4.3
				v3.21c0,0.91,0.03,1.77,0.41,2.47h-2.33c-0.27-0.59-0.38-1.12-0.38-2.5v-3.24c0-2.33-1.09-3.06-3-3.06h-1.62v8.8h-2.3v-20.6
				H374.71z M374.12,770.28c1.82,0,2.91-0.59,2.91-2.83v-1.97c0-1.85-0.68-2.83-2.38-2.83h-2.24v7.62H374.12z"/>
			<path class="st10" d="M389.04,769.69v2.06h-5.03v7.33h6.18v2.09h-8.48v-20.6h8.48v2.09h-6.18v7.03H389.04z"/>
			<path class="st10" d="M401.23,765.51v0.56h-2.18v-0.68c0-1.85-0.71-2.94-2.35-2.94s-2.35,1.09-2.35,2.91
				c0,4.62,6.92,5.06,6.92,10.86c0,3.12-1.5,5.15-4.65,5.15s-4.62-2.03-4.62-5.15v-1.18h2.15v1.29c0,1.85,0.77,2.94,2.41,2.94
				c1.65,0,2.41-1.09,2.41-2.94c0-4.59-6.89-5.03-6.89-10.83c0-3.18,1.47-5.15,4.56-5.15C399.76,760.36,401.23,762.39,401.23,765.51
				z"/>
			<path class="st10" d="M406.24,781.17v-18.51h-3.8v-2.09h9.86v2.09h-3.8v18.51H406.24z"/>
			<path class="st10" d="M415.07,777.02l-0.79,4.15h-2.12l3.94-20.6h3.33l3.94,20.6h-2.3l-0.79-4.15H415.07z M415.36,775.05h4.59
				l-2.33-11.89L415.36,775.05z"/>
			<path class="st10" d="M427.35,776.32c0,1.85,0.74,2.97,2.41,2.97c1.65,0,2.38-1.12,2.38-2.97v-15.75h2.15v15.63
				c0,3.12-1.44,5.21-4.62,5.21c-3.15,0-4.59-2.09-4.59-5.21v-15.63h2.27V776.32z"/>
			<path class="st10" d="M441.15,760.57c3.24,0,4.59,1.65,4.59,4.71v1.68c0,2.27-0.79,3.68-2.56,4.24c1.88,0.56,2.59,2.09,2.59,4.3
				v3.21c0,0.91,0.03,1.77,0.41,2.47h-2.33c-0.27-0.59-0.38-1.12-0.38-2.5v-3.24c0-2.33-1.09-3.06-3-3.06h-1.62v8.8h-2.3v-20.6
				H441.15z M440.56,770.28c1.82,0,2.91-0.59,2.91-2.83v-1.97c0-1.85-0.68-2.83-2.38-2.83h-2.24v7.62H440.56z"/>
			<path class="st10" d="M450.49,777.02l-0.79,4.15h-2.12l3.94-20.6h3.33l3.94,20.6h-2.3l-0.79-4.15H450.49z M450.78,775.05h4.59
				l-2.33-11.89L450.78,775.05z"/>
			<path class="st10" d="M462.62,781.17h-2.06v-20.6h2.91l4.77,14.89v-14.89h2.03v20.6h-2.38l-5.27-16.66V781.17z"/>
			<path class="st10" d="M475.6,781.17v-18.51h-3.8v-2.09h9.86v2.09h-3.8v18.51H475.6z"/>
			<path class="st10" d="M490.55,769.69v2.06h-5.03v7.33h6.18v2.09h-8.48v-20.6h8.48v2.09h-6.18v7.03H490.55z"/>
		</g>
	</g>
	<polyline class="st11" points="307.47,640.62 566.79,640.62 566.79,860.18 307.47,860.18 307.47,831.54 	"/>
</g>
<g>
	<g>
		<g>
			<path class="st5" d="M734.44,629.91c0-16.38,7.61-26.95,22.99-26.95c15.52,0,23.13,10.56,23.13,26.95v55.28
				c0,16.38-7.61,27.1-23.13,27.1c-15.37,0-22.99-10.72-22.99-27.1V629.91z M745.5,685.95c0,9.65,3.88,15.46,11.92,15.46
				c8.19,0,11.92-5.82,11.92-15.46v-56.66c0-9.8-3.74-15.62-11.92-15.62c-8.04,0-11.92,5.82-11.92,15.62V685.95z"/>
			<path class="st5" d="M836.44,630.06c0,32.31-34.05,43.95-34.19,68.6v1.68h33.04v10.87h-44.1v-9.19
				c0-34.61,34.05-41.34,34.05-71.51c0-11.02-3.45-16.84-11.78-16.84c-8.19,0-11.78,6.28-11.78,15.77v9.49h-10.49v-8.73
				c0-16.38,7.04-27.25,22.55-27.25C829.4,602.96,836.44,613.67,836.44,630.06z"/>
		</g>
		<g>
			<g>
				<g>
					<path class="st6" d="M813.49,800.22l-4.17-2.97c-1.89-1.35-2.33-3.97-0.98-5.86l28.05-39.5l11.02,7.85l-28.05,39.5
						C818.01,801.12,815.38,801.56,813.49,800.22z"/>
					<polygon class="st6" points="835.35,776.79 847.41,759.73 836.39,751.88 824.08,769.29 					"/>
				</g>
				<path class="st6" d="M868.93,666.96c-29.8,0-53.96,24.16-53.96,53.96c0,29.8,24.16,53.96,53.96,53.96
					c29.8,0,53.96-24.16,53.96-53.96C922.89,691.12,898.73,666.96,868.93,666.96z M868.93,762.07c-22.73,0-41.15-18.42-41.15-41.15
					c0-22.73,18.42-41.15,41.15-41.15c22.73,0,41.15,18.42,41.15,41.15C910.08,743.65,891.66,762.07,868.93,762.07z"/>
			</g>
			<g>
				<circle class="st6" cx="868.76" cy="706.35" r="9.11"/>
				<path class="st6" d="M881.02,743.36h-24.07c-0.45,0-0.81-0.36-0.81-0.81v-20.4c0-1.68,1.36-3.04,3.04-3.04h19.6
					c1.68,0,3.04,1.36,3.04,3.04v20.4C881.83,743,881.47,743.36,881.02,743.36z"/>
			</g>
		</g>
	</g>
	<polyline class="st11" points="888.2,640.62 1147.53,640.62 1147.53,860.18 888.2,860.18 888.2,831.54 	"/>
</g>
<g>
	<g>
		<g>
			<path class="st5" d="M1311.78,629.91c0-16.38,7.61-26.95,22.99-26.95c15.52,0,23.13,10.56,23.13,26.95v55.28
				c0,16.38-7.61,27.1-23.13,27.1c-15.37,0-22.99-10.72-22.99-27.1V629.91z M1322.84,685.95c0,9.65,3.88,15.46,11.92,15.46
				c8.19,0,11.92-5.82,11.92-15.46v-56.66c0-9.8-3.74-15.62-11.92-15.62c-8.04,0-11.92,5.82-11.92,15.62V685.95z"/>
			<path class="st5" d="M1413.2,629.91v2.76c0,11.03-4.17,18.83-12.21,22.05c8.48,3.37,12.21,11.48,12.21,22.2v8.27
				c0,16.38-7.18,27.1-22.7,27.1c-15.37,0-22.55-10.72-22.55-27.1v-7.35h10.49v8.12c0,9.65,3.74,15.46,11.78,15.46
				c8.19,0,11.78-5.67,11.78-16.54v-8.27c0-10.56-4.17-15.62-12.64-15.92h-6.03v-10.72h6.61c7.47-0.31,12.07-5.36,12.07-14.7v-4.9
				c0-11.03-3.59-16.69-11.78-16.69c-8.04,0-11.78,5.97-11.78,15.62v5.51h-10.49v-4.9c0-16.38,7.18-26.95,22.55-26.95
				C1406.02,602.96,1413.2,613.52,1413.2,629.91z"/>
		</g>
		<g>
			<path class="st6" d="M1493.5,797.02h-129.58c-2.09,0-3.78-1.69-3.78-3.78v-96.48c0-2.09,1.69-3.78,3.78-3.78h129.58
				c2.09,0,3.78,1.69,3.78,3.78v96.48C1497.28,795.33,1495.59,797.02,1493.5,797.02z"/>
			<path class="st6" d="M1360.14,777.68v32.49c0,2.6,3.12,3.93,5,2.13l20.44-19.57L1360.14,777.68z"/>
			<g>
				<g>
					<g>
						<rect x="1383.56" y="715.17" class="st12" width="14" height="14"/>
						<polyline class="st12" points="1387.39,721.7 1390.19,724.13 1393.46,720.3 						"/>
					</g>
					<g>
						<rect x="1383.56" y="739.54" class="st12" width="14" height="14"/>
						<polyline class="st12" points="1387.39,746.07 1390.19,748.5 1393.46,744.67 						"/>
					</g>
					<g>
						<rect x="1383.56" y="763.9" class="st12" width="14" height="14"/>
						<polyline class="st12" points="1387.39,770.44 1390.19,772.86 1393.46,769.04 						"/>
					</g>
				</g>
				<g>
					<line class="st12" x1="1412.53" y1="717.93" x2="1449.46" y2="717.93"/>
					<line class="st12" x1="1412.53" y1="725.54" x2="1466.94" y2="725.54"/>
				</g>
				<g>
					<line class="st12" x1="1412.53" y1="741.89" x2="1449.46" y2="741.89"/>
					<line class="st12" x1="1412.53" y1="749.51" x2="1466.94" y2="749.51"/>
				</g>
				<g>
					<line class="st12" x1="1412.53" y1="765.86" x2="1449.46" y2="765.86"/>
					<line class="st12" x1="1412.53" y1="773.47" x2="1466.94" y2="773.47"/>
				</g>
			</g>
		</g>
	</g>
	<polyline class="st11" points="1465.54,640.62 1724.87,640.62 1724.87,860.18 1465.54,860.18 1465.54,831.54 	"/>
</g>
<g>
	<path class="st10" d="M950.17,733.17v-18.51h-3.8v-2.09h9.86v2.09h-3.8v18.51H950.17z"/>
	<path class="st10" d="M960.09,712.56v20.6h-2.3v-20.6H960.09z"/>
	<path class="st10" d="M969.78,721.69v2.06h-5.03v7.33h6.18v2.09h-8.48v-20.6h8.48v2.09h-6.18v7.03H969.78z"/>
	<path class="st10" d="M975.08,733.17h-2.06v-20.6h2.91l4.77,14.89v-14.89h2.03v20.6h-2.38l-5.27-16.66V733.17z"/>
	<path class="st10" d="M992.42,721.69v2.06h-5.03v7.33h6.18v2.09h-8.48v-20.6h8.48v2.09h-6.18v7.03H992.42z"/>
	<path class="st10" d="M1002.57,729.01l-0.79,4.15h-2.12l3.94-20.6h3.33l3.94,20.6h-2.3l-0.79-4.15H1002.57z M1002.87,727.04h4.59
		l-2.33-11.89L1002.87,727.04z"/>
	<path class="st10" d="M1021.74,717.54v1.85h-2.18v-1.97c0-1.85-0.74-2.97-2.41-2.97c-1.65,0-2.41,1.12-2.41,2.97v10.89
		c0,1.85,0.77,2.97,2.41,2.97c1.68,0,2.41-1.12,2.41-2.97v-2.68h2.18v2.56c0,3.12-1.47,5.18-4.65,5.18c-3.15,0-4.62-2.06-4.62-5.18
		v-10.66c0-3.12,1.47-5.18,4.62-5.18C1020.27,712.36,1021.74,714.42,1021.74,717.54z"/>
	<path class="st10" d="M1032.93,717.54v1.85h-2.18v-1.97c0-1.85-0.74-2.97-2.41-2.97c-1.65,0-2.41,1.12-2.41,2.97v10.89
		c0,1.85,0.77,2.97,2.41,2.97c1.68,0,2.41-1.12,2.41-2.97v-2.68h2.18v2.56c0,3.12-1.47,5.18-4.65,5.18c-3.15,0-4.62-2.06-4.62-5.18
		v-10.66c0-3.12,1.47-5.18,4.62-5.18C1031.45,712.36,1032.93,714.42,1032.93,717.54z"/>
	<path class="st10" d="M1042.35,721.69v2.06h-5.03v7.33h6.18v2.09h-8.48v-20.6h8.48v2.09h-6.18v7.03H1042.35z"/>
	<path class="st10" d="M1054.53,717.51v0.56h-2.18v-0.68c0-1.85-0.71-2.94-2.36-2.94s-2.35,1.09-2.35,2.91
		c0,4.62,6.92,5.06,6.92,10.86c0,3.12-1.5,5.15-4.65,5.15s-4.62-2.03-4.62-5.15v-1.18h2.15v1.29c0,1.85,0.77,2.94,2.41,2.94
		c1.65,0,2.41-1.09,2.41-2.94c0-4.59-6.89-5.03-6.89-10.83c0-3.18,1.47-5.15,4.56-5.15
		C1053.06,712.36,1054.53,714.39,1054.53,717.51z"/>
	<path class="st10" d="M1056.39,717.54c0-3.15,1.56-5.18,4.71-5.18c3.18,0,4.74,2.03,4.74,5.18v10.66c0,3.12-1.56,5.18-4.74,5.18
		c-3.15,0-4.71-2.06-4.71-5.18V717.54z M1058.66,728.31c0,1.88,0.79,2.97,2.44,2.97c1.68,0,2.44-1.09,2.44-2.97v-10.89
		c0-1.85-0.76-2.97-2.44-2.97c-1.65,0-2.44,1.12-2.44,2.97V728.31z"/>
	<path class="st10" d="M1074.91,729.01l-0.79,4.15h-2.12l3.94-20.6h3.33l3.94,20.6h-2.3l-0.79-4.15H1074.91z M1075.2,727.04h4.59
		l-2.33-11.89L1075.2,727.04z"/>
	<path class="st10" d="M947.2,768.49v-20.6h2.3v18.51h5.89v2.09H947.2z"/>
	<path class="st10" d="M959.44,764.34l-0.79,4.15h-2.12l3.94-20.6h3.33l3.94,20.6h-2.3l-0.79-4.15H959.44z M959.74,762.37h4.59
		l-2.33-11.89L959.74,762.37z"/>
	<path class="st10" d="M978.46,752.83v0.56h-2.18v-0.68c0-1.85-0.71-2.94-2.36-2.94s-2.35,1.09-2.35,2.91
		c0,4.62,6.92,5.06,6.92,10.86c0,3.12-1.5,5.15-4.65,5.15s-4.62-2.03-4.62-5.15v-1.18h2.15v1.29c0,1.85,0.77,2.94,2.41,2.94
		c1.65,0,2.41-1.09,2.41-2.94c0-4.59-6.89-5.03-6.89-10.83c0-3.18,1.47-5.15,4.56-5.15C976.99,747.68,978.46,749.71,978.46,752.83z"
		/>
	<path class="st10" d="M989.65,747.89c3.24,0,4.59,1.65,4.59,4.71v1.68c0,2.27-0.79,3.68-2.56,4.24c1.88,0.56,2.59,2.09,2.59,4.3
		v3.21c0,0.91,0.03,1.77,0.41,2.47h-2.33c-0.27-0.59-0.38-1.12-0.38-2.5v-3.24c0-2.33-1.09-3.06-3-3.06h-1.62v8.8h-2.3v-20.6H989.65
		z M989.06,757.6c1.83,0,2.91-0.59,2.91-2.83v-1.97c0-1.85-0.68-2.83-2.38-2.83h-2.24v7.62H989.06z"/>
	<path class="st10" d="M1003.99,757.01v2.06h-5.03v7.33h6.18v2.09h-8.48v-20.6h8.48v2.09h-6.18v7.03H1003.99z"/>
	<path class="st10" d="M1016.17,752.83v0.56H1014v-0.68c0-1.85-0.71-2.94-2.36-2.94s-2.35,1.09-2.35,2.91
		c0,4.62,6.92,5.06,6.92,10.86c0,3.12-1.5,5.15-4.65,5.15s-4.62-2.03-4.62-5.15v-1.18h2.15v1.29c0,1.85,0.77,2.94,2.41,2.94
		c1.65,0,2.41-1.09,2.41-2.94c0-4.59-6.89-5.03-6.89-10.83c0-3.18,1.47-5.15,4.56-5.15C1014.7,747.68,1016.17,749.71,1016.17,752.83
		z"/>
	<path class="st10" d="M1025.54,757.01v2.06h-5.03v7.33h6.18v2.09h-8.48v-20.6h8.48v2.09h-6.18v7.03H1025.54z"/>
	<path class="st10" d="M1033.4,747.89c3.24,0,4.59,1.65,4.59,4.71v1.68c0,2.27-0.79,3.68-2.56,4.24c1.88,0.56,2.59,2.09,2.59,4.3
		v3.21c0,0.91,0.03,1.77,0.41,2.47h-2.33c-0.26-0.59-0.38-1.12-0.38-2.5v-3.24c0-2.33-1.09-3.06-3-3.06h-1.62v8.8h-2.3v-20.6H1033.4
		z M1032.81,757.6c1.83,0,2.91-0.59,2.91-2.83v-1.97c0-1.85-0.68-2.83-2.38-2.83h-2.24v7.62H1032.81z"/>
	<path class="st10" d="M1042.08,747.89l3.36,17.92l3.33-17.92h2.12l-3.86,20.6h-3.38l-3.89-20.6H1042.08z"/>
	<path class="st10" d="M1054.24,764.34l-0.79,4.15h-2.12l3.94-20.6h3.33l3.94,20.6h-2.3l-0.79-4.15H1054.24z M1054.54,762.37h4.59
		l-2.33-11.89L1054.54,762.37z"/>
	<path class="st10" d="M1073.26,752.83v0.56h-2.18v-0.68c0-1.85-0.71-2.94-2.35-2.94s-2.35,1.09-2.35,2.91
		c0,4.62,6.92,5.06,6.92,10.86c0,3.12-1.5,5.15-4.65,5.15s-4.62-2.03-4.62-5.15v-1.18h2.15v1.29c0,1.85,0.76,2.94,2.41,2.94
		s2.41-1.09,2.41-2.94c0-4.59-6.89-5.03-6.89-10.83c0-3.18,1.47-5.15,4.56-5.15C1071.79,747.68,1073.26,749.71,1073.26,752.83z"/>
	<path class="st10" d="M952.03,783.22c3.21,0,4.68,1.94,4.68,5.12v10.39c0,3.15-1.47,5.09-4.68,5.09h-4.83v-20.6H952.03z
		 M952,801.73c1.65,0,2.44-1.03,2.44-2.91v-10.6c0-1.88-0.79-2.91-2.47-2.91h-2.47v16.42H952z"/>
	<path class="st10" d="M966.19,792.34v2.06h-5.03v7.33h6.18v2.09h-8.48v-20.6h8.48v2.09h-6.18v7.03H966.19z"/>
	<path class="st10" d="M969.46,803.82v-20.6h2.3v18.51h5.89v2.09H969.46z"/>
	<path class="st10" d="M988.53,783.22c3.24,0,4.59,1.65,4.59,4.71v1.68c0,2.27-0.79,3.68-2.56,4.24c1.88,0.56,2.59,2.09,2.59,4.3
		v3.21c0,0.91,0.03,1.77,0.41,2.47h-2.33c-0.27-0.59-0.38-1.12-0.38-2.5v-3.24c0-2.33-1.09-3.06-3-3.06h-1.62v8.8h-2.3v-20.6H988.53
		z M987.94,792.93c1.83,0,2.91-0.59,2.91-2.83v-1.97c0-1.85-0.68-2.83-2.38-2.83h-2.24v7.62H987.94z"/>
	<path class="st10" d="M1002.87,792.34v2.06h-5.03v7.33h6.18v2.09h-8.48v-20.6h8.48v2.09h-6.18v7.03H1002.87z"/>
	<path class="st10" d="M1015.06,788.16v0.56h-2.18v-0.68c0-1.85-0.71-2.94-2.36-2.94s-2.35,1.09-2.35,2.91
		c0,4.62,6.92,5.06,6.92,10.86c0,3.12-1.5,5.15-4.65,5.15s-4.62-2.03-4.62-5.15v-1.18h2.15V799c0,1.85,0.77,2.94,2.41,2.94
		c1.65,0,2.41-1.09,2.41-2.94c0-4.59-6.89-5.03-6.89-10.83c0-3.18,1.47-5.15,4.56-5.15
		C1013.58,783.01,1015.06,785.04,1015.06,788.16z"/>
	<path class="st10" d="M1020.09,803.82v-18.51h-3.8v-2.09h9.89v2.09h-3.8v18.51H1020.09z"/>
	<path class="st10" d="M1028.98,799.67l-0.79,4.15h-2.12l3.94-20.6h3.33l3.94,20.6h-2.3l-0.79-4.15H1028.98z M1029.28,797.7h4.59
		l-2.33-11.89L1029.28,797.7z"/>
	<path class="st10" d="M1041.26,798.97c0,1.85,0.74,2.97,2.41,2.97c1.65,0,2.38-1.12,2.38-2.97v-15.75h2.15v15.63
		c0,3.12-1.44,5.21-4.62,5.21c-3.15,0-4.59-2.09-4.59-5.21v-15.63h2.27V798.97z"/>
	<path class="st10" d="M1055.07,783.22c3.24,0,4.59,1.65,4.59,4.71v1.68c0,2.27-0.79,3.68-2.56,4.24c1.88,0.56,2.59,2.09,2.59,4.3
		v3.21c0,0.91,0.03,1.77,0.41,2.47h-2.33c-0.26-0.59-0.38-1.12-0.38-2.5v-3.24c0-2.33-1.09-3.06-3-3.06h-1.62v8.8h-2.3v-20.6
		H1055.07z M1054.48,792.93c1.83,0,2.91-0.59,2.91-2.83v-1.97c0-1.85-0.68-2.83-2.38-2.83h-2.24v7.62H1054.48z"/>
	<path class="st10" d="M1064.4,799.67l-0.79,4.15h-2.12l3.94-20.6h3.33l3.94,20.6h-2.3l-0.79-4.15H1064.4z M1064.69,797.7h4.59
		l-2.33-11.89L1064.69,797.7z"/>
	<path class="st10" d="M1076.53,803.82h-2.06v-20.6h2.91l4.77,14.89v-14.89h2.03v20.6h-2.38l-5.27-16.66V803.82z"/>
	<path class="st10" d="M1089.54,803.82v-18.51h-3.8v-2.09h9.89v2.09h-3.8v18.51H1089.54z"/>
	<path class="st10" d="M1104.55,792.34v2.06h-5.03v7.33h6.18v2.09h-8.48v-20.6h8.48v2.09h-6.18v7.03H1104.55z"/>
</g>
<g>
	<path class="st10" d="M1539.95,711.22c3.24,0,4.62,1.91,4.62,5.03v2.47c0,3.27-1.53,4.97-4.8,4.97h-2.03v8.12h-2.3v-20.6H1539.95z
		 M1539.78,721.64c1.71,0,2.53-0.79,2.53-2.77v-2.74c0-1.88-0.68-2.83-2.35-2.83h-2.21v8.33H1539.78z"/>
	<path class="st10" d="M1548.64,726.97c0,1.85,0.74,2.97,2.41,2.97c1.65,0,2.38-1.12,2.38-2.97v-15.75h2.15v15.63
		c0,3.12-1.44,5.21-4.62,5.21c-3.15,0-4.59-2.09-4.59-5.21v-15.63h2.27V726.97z"/>
	<path class="st10" d="M1565.18,720.35v2.06h-5.03v7.33h6.18v2.09h-8.48v-20.6h8.48v2.09h-6.18v7.04H1565.18z"/>
	<path class="st10" d="M1573.28,711.22c3.21,0,4.68,1.94,4.68,5.12v10.39c0,3.15-1.47,5.09-4.68,5.09h-4.83v-20.6H1573.28z
		 M1573.25,729.74c1.65,0,2.44-1.03,2.44-2.91v-10.6c0-1.88-0.79-2.91-2.47-2.91h-2.47v16.42H1573.25z"/>
	<path class="st10" d="M1587.44,720.35v2.06h-5.03v7.33h6.18v2.09h-8.48v-20.6h8.48v2.09h-6.18v7.04H1587.44z"/>
	<path class="st10" d="M1599.86,711.22c3.24,0,4.59,1.65,4.59,4.71v1.68c0,2.27-0.79,3.68-2.56,4.24c1.88,0.56,2.59,2.09,2.59,4.3
		v3.21c0,0.91,0.03,1.77,0.41,2.47h-2.33c-0.26-0.59-0.38-1.12-0.38-2.5v-3.24c0-2.33-1.09-3.06-3-3.06h-1.62v8.8h-2.3v-20.6
		H1599.86z M1599.27,720.94c1.82,0,2.91-0.59,2.91-2.83v-1.97c0-1.86-0.68-2.83-2.38-2.83h-2.24v7.62H1599.27z"/>
	<path class="st10" d="M1614.2,720.35v2.06h-5.03v7.33h6.18v2.09h-8.48v-20.6h8.48v2.09h-6.18v7.04H1614.2z"/>
	<path class="st10" d="M1619.79,727.68l-0.79,4.15h-2.12l3.94-20.6h3.33l3.94,20.6h-2.3l-0.79-4.15H1619.79z M1620.09,725.71h4.59
		l-2.33-11.89L1620.09,725.71z"/>
	<path class="st10" d="M1629.89,731.83v-20.6h2.3v18.51h5.89v2.09H1629.89z"/>
	<path class="st10" d="M1642.11,711.22v20.6h-2.3v-20.6H1642.11z"/>
	<path class="st10" d="M1653.5,731.83h-9.36v-2.06l7.06-16.45h-6.74v-2.09h9.09v2.06l-7.09,16.45h7.04V731.83z"/>
	<path class="st10" d="M1657.95,727.68l-0.79,4.15h-2.12l3.94-20.6h3.33l3.94,20.6h-2.3l-0.79-4.15H1657.95z M1658.24,725.71h4.59
		l-2.33-11.89L1658.24,725.71z"/>
	<path class="st10" d="M1672.64,711.22c3.24,0,4.59,1.65,4.59,4.71v1.68c0,2.27-0.79,3.68-2.56,4.24c1.88,0.56,2.59,2.09,2.59,4.3
		v3.21c0,0.91,0.03,1.77,0.41,2.47h-2.33c-0.27-0.59-0.38-1.12-0.38-2.5v-3.24c0-2.33-1.09-3.06-3-3.06h-1.62v8.8h-2.3v-20.6
		H1672.64z M1672.05,720.94c1.83,0,2.91-0.59,2.91-2.83v-1.97c0-1.86-0.68-2.83-2.38-2.83h-2.24v7.62H1672.05z"/>
	<path class="st10" d="M1540.04,746.55c3.24,0,4.59,1.65,4.59,4.71v1.68c0,2.27-0.79,3.68-2.56,4.24c1.88,0.56,2.59,2.09,2.59,4.3
		v3.21c0,0.91,0.03,1.77,0.41,2.47h-2.33c-0.26-0.59-0.38-1.12-0.38-2.5v-3.24c0-2.33-1.09-3.06-3-3.06h-1.62v8.8h-2.3v-20.6
		H1540.04z M1539.45,756.27c1.82,0,2.91-0.59,2.91-2.83v-1.97c0-1.85-0.68-2.82-2.38-2.82h-2.24v7.62H1539.45z"/>
	<path class="st10" d="M1554.38,755.68v2.06h-5.03v7.33h6.18v2.09h-8.48v-20.6h8.48v2.09h-6.18v7.03H1554.38z"/>
	<path class="st10" d="M1566.56,751.5v0.56h-2.18v-0.68c0-1.85-0.71-2.94-2.35-2.94s-2.35,1.09-2.35,2.91
		c0,4.62,6.92,5.06,6.92,10.86c0,3.12-1.5,5.15-4.65,5.15s-4.62-2.03-4.62-5.15v-1.18h2.15v1.29c0,1.86,0.76,2.94,2.41,2.94
		s2.41-1.09,2.41-2.94c0-4.59-6.89-5.03-6.89-10.83c0-3.18,1.47-5.15,4.56-5.15C1565.09,746.35,1566.56,748.38,1566.56,751.5z"/>
	<path class="st10" d="M1575.93,755.68v2.06h-5.03v7.33h6.18v2.09h-8.48v-20.6h8.48v2.09h-6.18v7.03H1575.93z"/>
	<path class="st10" d="M1583.79,746.55c3.24,0,4.59,1.65,4.59,4.71v1.68c0,2.27-0.79,3.68-2.56,4.24c1.88,0.56,2.59,2.09,2.59,4.3
		v3.21c0,0.91,0.03,1.77,0.41,2.47h-2.33c-0.27-0.59-0.38-1.12-0.38-2.5v-3.24c0-2.33-1.09-3.06-3-3.06h-1.62v8.8h-2.3v-20.6
		H1583.79z M1583.2,756.27c1.83,0,2.91-0.59,2.91-2.83v-1.97c0-1.85-0.68-2.82-2.38-2.82h-2.24v7.62H1583.2z"/>
	<path class="st10" d="M1592.47,746.55l3.36,17.92l3.33-17.92h2.12l-3.86,20.6h-3.38l-3.89-20.6H1592.47z"/>
	<path class="st10" d="M1604.63,763.01l-0.79,4.15h-2.12l3.94-20.6h3.33l3.94,20.6h-2.3l-0.79-4.15H1604.63z M1604.93,761.04h4.59
		l-2.33-11.89L1604.93,761.04z"/>
	<path class="st10" d="M1623.65,751.5v0.56h-2.18v-0.68c0-1.85-0.71-2.94-2.35-2.94s-2.35,1.09-2.35,2.91
		c0,4.62,6.92,5.06,6.92,10.86c0,3.12-1.5,5.15-4.65,5.15s-4.62-2.03-4.62-5.15v-1.18h2.15v1.29c0,1.86,0.76,2.94,2.41,2.94
		s2.41-1.09,2.41-2.94c0-4.59-6.89-5.03-6.89-10.83c0-3.18,1.47-5.15,4.56-5.15C1622.18,746.35,1623.65,748.38,1623.65,751.5z"/>
	<path class="st10" d="M1543.04,802.46h-2.21l-3.41-16.39v16.42h-2v-20.6h3.21l3.38,16.45l3.27-16.45h3.21v20.6h-2.18v-16.57
		L1543.04,802.46z"/>
	<path class="st10" d="M1553.17,798.34l-0.79,4.15h-2.12l3.94-20.6h3.33l3.94,20.6h-2.3l-0.79-4.15H1553.17z M1553.47,796.36h4.59
		l-2.33-11.89L1553.47,796.36z"/>
	<path class="st10" d="M1565.3,802.49h-2.06v-20.6h2.91l4.77,14.89v-14.89h2.03v20.6h-2.38l-5.27-16.66V802.49z"/>
	<path class="st10" d="M1577.49,797.63c0,1.86,0.74,2.97,2.41,2.97c1.65,0,2.38-1.12,2.38-2.97v-15.75h2.15v15.63
		c0,3.12-1.44,5.21-4.62,5.21c-3.15,0-4.59-2.09-4.59-5.21v-15.63h2.27V797.63z"/>
	<path class="st10" d="M1589.03,798.34l-0.79,4.15h-2.12l3.94-20.6h3.33l3.94,20.6h-2.3l-0.79-4.15H1589.03z M1589.32,796.36h4.59
		l-2.33-11.89L1589.32,796.36z"/>
	<path class="st10" d="M1599.13,802.49v-20.6h2.3v18.51h5.89v2.09H1599.13z"/>
	<path class="st10" d="M1616.38,791.01v2.06h-5.03v7.33h6.18v2.09h-8.48v-20.6h8.48v2.09h-6.18v7.03H1616.38z"/>
	<path class="st10" d="M1628.57,786.83v0.56h-2.18v-0.68c0-1.85-0.71-2.94-2.36-2.94s-2.35,1.09-2.35,2.91
		c0,4.62,6.92,5.06,6.92,10.86c0,3.12-1.5,5.15-4.65,5.15s-4.62-2.03-4.62-5.15v-1.18h2.15v1.29c0,1.86,0.77,2.94,2.41,2.94
		s2.41-1.09,2.41-2.94c0-4.59-6.89-5.03-6.89-10.83c0-3.18,1.47-5.15,4.56-5.15C1627.09,781.68,1628.57,783.71,1628.57,786.83z"/>
</g>
</svg>
