<?xml version="1.0" encoding="utf-8"?>
<!-- Generator: Adobe Illustrator 24.0.0, SVG Export Plug-In . SVG Version: 6.00 Build 0)  -->
<svg version="1.1" id="Layer_1" xmlns="http://www.w3.org/2000/svg" xmlns:xlink="http://www.w3.org/1999/xlink" x="0px" y="0px"
	 viewBox="0 0 1920 1080" style="enable-background:new 0 0 1920 1080;" xml:space="preserve">
<style type="text/css">
	.st0{fill:#606060;}
	.st1{clip-path:url(#SVGID_2_);}
	.st2{fill:url(#SVGID_3_);}
	.st3{fill:url(#SVGID_4_);}
	.st4{fill:#A8A8A8;}
	.st5{fill:url(#SVGID_5_);}
	.st6{fill:url(#SVGID_6_);}
	.st7{fill:#EAEAEA;}
	.st8{fill:#F9F7F7;}
	.st9{fill:#F2F2F2;}
	.st10{fill:#D33527;}
	.st11{fill:#FFFFFF;}
	.st12{fill:none;stroke:#443C83;stroke-miterlimit:10;}
	.st13{fill:#443C83;}
	.st14{fill:#444444;}
	.st15{fill:none;stroke:#D33527;stroke-miterlimit:10;}
	.st16{fill:none;stroke:#FFFFFF;stroke-width:0.75;stroke-linejoin:round;stroke-miterlimit:10;}
</style>
<g>
	<path class="st0" d="M896,489.77v2.63h-2v-2.77c0-3.41-1.32-5.99-4.81-5.99c-3.5,0-4.81,2.59-4.81,5.99v16.53
		c0,3.41,1.32,5.95,4.81,5.95c3.5,0,4.81-2.54,4.81-5.95v-3.77h2v3.63c0,4.59-2,8.04-6.86,8.04c-4.86,0-6.86-3.45-6.86-8.04v-16.26
		c0-4.59,2-8.04,6.86-8.04C894,481.74,896,485.19,896,489.77z"/>
	<path class="st0" d="M899.27,489.77c0-4.63,2.13-8.04,6.95-8.04c4.9,0,7.04,3.41,7.04,8.04v16.26c0,4.63-2.13,8.04-7.04,8.04
		c-4.81,0-6.95-3.41-6.95-8.04V489.77z M901.36,506.17c0,3.45,1.36,5.99,4.86,5.99c3.54,0,4.95-2.54,4.95-5.99v-16.53
		c0-3.45-1.41-5.99-4.95-5.99c-3.5,0-4.86,2.54-4.86,5.99V506.17z"/>
	<path class="st0" d="M927.37,513.75h-2.09l-6.72-28.11v28.15h-1.86v-31.79h3l6.68,28.11l6.63-28.11h3v31.79h-2v-28.25
		L927.37,513.75z"/>
	<path class="st0" d="M950.39,496.72v1.91h-8.67v13.26h10.44v1.91h-12.53v-31.79h12.53v1.91h-10.44v12.81H950.39z"/>
	<path class="st0" d="M957.47,513.8h-1.91v-31.79h2.72l9.54,26.84v-26.84h1.91v31.79h-2.32l-9.94-28.34V513.8z"/>
	<path class="st0" d="M986.72,489.68v0.68h-2v-0.82c0-3.36-1.27-5.9-4.72-5.9s-4.72,2.5-4.72,5.86c0,7.72,11.49,7.86,11.49,16.62
		c0,4.59-2,7.95-6.86,7.95c-4.86,0-6.86-3.36-6.86-7.95v-1.63h2v1.77c0,3.41,1.32,5.86,4.81,5.86c3.5,0,4.81-2.45,4.81-5.86
		c0-7.63-11.49-7.77-11.49-16.62c0-4.77,2.09-7.86,6.77-7.9C984.76,481.74,986.72,485.1,986.72,489.68z"/>
	<path class="st0" d="M993.16,506.76l-1.59,7.04h-1.91l6.95-31.83h3.04l7.08,31.83h-2.09l-1.59-7.04H993.16z M993.48,504.94h9.26
		l-4.68-20.57L993.48,504.94z"/>
	<path class="st0" d="M1009.91,513.8v-31.79h2.09v29.88h9.99v1.91H1009.91z"/>
</g>
<g>
	<path class="st0" d="M896.86,462.33c0,3.41,1.27,6.04,4.77,6.04s4.77-2.63,4.77-6.04v-24.11h1.95v24.02c0,4.54-1.91,8.04-6.77,8.04
		s-6.81-3.5-6.81-8.04v-24.02h2.09V462.33z"/>
	<path class="st0" d="M925.33,445.89v0.68h-2v-0.82c0-3.36-1.27-5.9-4.72-5.9s-4.72,2.5-4.72,5.86c0,7.72,11.49,7.86,11.49,16.62
		c0,4.59-2,7.95-6.86,7.95s-6.86-3.36-6.86-7.95v-1.63h2v1.77c0,3.41,1.32,5.86,4.81,5.86s4.81-2.45,4.81-5.86
		c0-7.63-11.49-7.77-11.49-16.62c0-4.77,2.09-7.86,6.77-7.9C923.38,437.94,925.33,441.3,925.33,445.89z"/>
	<path class="st0" d="M930.73,462.33c0,3.41,1.27,6.04,4.77,6.04s4.77-2.63,4.77-6.04v-24.11h1.95v24.02c0,4.54-1.91,8.04-6.77,8.04
		s-6.81-3.5-6.81-8.04v-24.02h2.09V462.33z"/>
	<path class="st0" d="M948.85,462.96l-1.59,7.04h-1.91l6.95-31.83h3.04l7.08,31.83h-2.09l-1.59-7.04H948.85z M949.17,461.15h9.26
		l-4.68-20.57L949.17,461.15z"/>
	<path class="st0" d="M972.23,438.21c4.86,0,6.81,2.68,6.81,7.17v2.77c0,3.72-1.45,5.86-4.59,6.58c3.27,0.73,4.59,3.04,4.59,6.49
		v4.95c0,1.32,0.09,2.77,0.77,3.81h-2.18c-0.54-0.95-0.68-2.09-0.68-3.81v-5c0-4.22-2.32-5.4-5.95-5.4h-3.32V470h-2.09v-31.79
		H972.23z M971.05,453.88c3.72,0,5.9-1.04,5.9-5.31v-3c0-3.41-1.32-5.45-4.77-5.45h-4.5v13.76H971.05z"/>
	<path class="st0" d="M985.22,438.21V470h-2.09v-31.79H985.22z"/>
	<path class="st0" d="M988.71,445.98c0-4.63,2.13-8.04,6.95-8.04c4.9,0,7.04,3.41,7.04,8.04v16.26c0,4.63-2.13,8.04-7.04,8.04
		c-4.81,0-6.95-3.41-6.95-8.04V445.98z M990.8,462.37c0,3.45,1.36,5.99,4.86,5.99c3.54,0,4.95-2.54,4.95-5.99v-16.53
		c0-3.45-1.41-5.99-4.95-5.99c-3.5,0-4.86,2.54-4.86,5.99V462.37z"/>
</g>
<g>
	<defs>
		<circle id="SVGID_1_" cx="954.69" cy="277.51" r="141.65"/>
	</defs>
	<use xlink:href="#SVGID_1_"  style="overflow:visible;fill:#DBDBDB;"/>
	<clipPath id="SVGID_2_">
		<use xlink:href="#SVGID_1_"  style="overflow:visible;"/>
	</clipPath>
	<g class="st1">
		<g>
			<linearGradient id="SVGID_3_" gradientUnits="userSpaceOnUse" x1="903.0389" y1="368.4927" x2="1008.5807" y2="368.4927">
				<stop  offset="0" style="stop-color:#A1A1A1"/>
				<stop  offset="0.0578" style="stop-color:#B2B2B2"/>
				<stop  offset="0.1872" style="stop-color:#D4D4D4"/>
				<stop  offset="0.3108" style="stop-color:#ECECEC"/>
				<stop  offset="0.4253" style="stop-color:#FAFAFA"/>
				<stop  offset="0.5215" style="stop-color:#FFFFFF"/>
				<stop  offset="0.6449" style="stop-color:#FCFCFB"/>
				<stop  offset="0.7549" style="stop-color:#F1F1F1"/>
				<stop  offset="0.8598" style="stop-color:#DFDFDE"/>
				<stop  offset="0.9609" style="stop-color:#C6C6C5"/>
				<stop  offset="1" style="stop-color:#BABAB9"/>
			</linearGradient>
			<path class="st2" d="M1008.58,388.31c-34.96-12.38-70.3-11.96-105.54,0v-33.06c35.47-9.07,70.63-8.48,105.54,0V388.31z"/>
			<linearGradient id="SVGID_4_" gradientUnits="userSpaceOnUse" x1="957.9001" y1="424.1636" x2="957.9001" y2="314.6324">
				<stop  offset="4.975120e-03" style="stop-color:#F2F2F2"/>
				<stop  offset="0.315" style="stop-color:#EFEFEF"/>
				<stop  offset="0.5527" style="stop-color:#E5E5E5"/>
				<stop  offset="0.7663" style="stop-color:#D5D5D5"/>
				<stop  offset="0.9648" style="stop-color:#BFBFBE"/>
				<stop  offset="1" style="stop-color:#BABAB9"/>
			</linearGradient>
			<path class="st3" d="M993.74,327.1c-2.64-0.01,2.12,33.5,4.56,41.54c3.26,10.72,23.57,19.04,44.45,25.37
				c9.58,2.9,27.28,15.68,29.73,20.64c1.41,2.84,1.32,3.17,1.32,3.17H842l14.6-14.03c4.5-4.32,10.04-7.42,16.08-8.98l7.12-1.84
				l8.68-4.1c1.67-0.79,3.26-1.75,4.73-2.87l17.85-13.54c0,0,5.6-6.99,5.13-17.57c-0.47-10.58-0.47-27.79-0.47-27.79H993.74z"/>
			<polygon class="st4" points="942.52,417.53 969.36,417.53 961.53,407.65 950.64,407.65 			"/>
			<path class="st4" d="M953.4,384.28l-14.8,14.81c0,0,2.95,12.28,9.58,11.04c0.63-0.12-0.05,0.57,2.96,1.92
				c3.19,1.43,7.21-0.05,10.23-0.47c3.84-0.53,7.21-2.8,9.16-6.15l3.62-6.19l-14.08-14.38L953.4,384.28z"/>
			
				<radialGradient id="SVGID_5_" cx="1422.9575" cy="743.8103" r="56.7341" gradientTransform="matrix(0.4897 0 0 0.49 235.4721 20.3999)" gradientUnits="userSpaceOnUse">
				<stop  offset="0" style="stop-color:#8A8A8A"/>
				<stop  offset="0.0928" style="stop-color:#A0A0A0"/>
				<stop  offset="0.2404" style="stop-color:#BEBEBE"/>
				<stop  offset="0.3971" style="stop-color:#D5D5D5"/>
				<stop  offset="0.5649" style="stop-color:#E5E5E5"/>
				<stop  offset="0.7517" style="stop-color:#EFEFEF"/>
				<stop  offset="0.995" style="stop-color:#F2F2F2"/>
			</radialGradient>
			<path class="st5" d="M896.08,384.13c0,0,24.38,20.04,41.5,22.07c1.38,0.16,4.93,0.29,5.51-0.58l13.42-20.76l-49.99-16.41
				L896.08,384.13z"/>
			
				<radialGradient id="SVGID_6_" cx="1514.9568" cy="739.9366" r="59.1056" gradientTransform="matrix(0.4897 0 0 0.49 235.4721 20.3999)" gradientUnits="userSpaceOnUse">
				<stop  offset="0" style="stop-color:#8A8A8A"/>
				<stop  offset="0.0928" style="stop-color:#A0A0A0"/>
				<stop  offset="0.2404" style="stop-color:#BEBEBE"/>
				<stop  offset="0.3971" style="stop-color:#D5D5D5"/>
				<stop  offset="0.5649" style="stop-color:#E5E5E5"/>
				<stop  offset="0.7517" style="stop-color:#EFEFEF"/>
				<stop  offset="0.995" style="stop-color:#F2F2F2"/>
			</radialGradient>
			<path class="st6" d="M1017.15,384.42c0,0-24.38,20.04-41.5,22.07c-1.38,0.16-4.93,0.29-5.51-0.58l-13.42-20.76l49.99-16.41
				L1017.15,384.42z"/>
			<path class="st7" d="M901.26,296.29c0,0,7.4,36.24,26,47.49c29.04,17.57,48.98,2.67,48.98,2.67s23.17-20.75,26.97-32.98
				c3.39-10.93,4.59-17.18,4.59-17.18s3.06,0,5.1-2.53c2.04-2.53,2.55-18.69,4.08-23.24c1.53-4.55,2.55-12.13-2.55-11.62
				c-5.1,0.51-7.65,9.09-7.65,9.09s9.62-33.04,6.57-42.14c-3.06-9.09-6.06-10.41-18.29-17.98c-12.23-7.58-18.32-13.58-25.83-11.06
				c-7.5,2.53-42.56,4.12-52.24,0.58c-9.68-3.54-18.79,26.11-20.32,33.69c-1.53,7.58,4.09,30.85,4.6,36.91
				c0.51,6.06,0.51,6.06,0.51,6.06s-3.57-16.17-6.63-17.18c-3.06-1.01-8.67-1.01-7.65,11.12c1.02,12.13,2.26,2.74,6.63,25.26
				C896.67,306.39,901.26,296.29,901.26,296.29z"/>
			<path class="st8" d="M902.98,355.49c0,0-4.44,26.12-7.29,26.86c-2.85,0.74,31.58,17.67,44.23,19.3c0,0,7.6-13.15,16.12-17.13
				C956.04,384.53,904.74,367.13,902.98,355.49z"/>
			<path class="st8" d="M1008.68,355.25c0,0,4.67,26.07,7.49,26.78c2.82,0.71-31.04,18.01-43.53,19.78c0,0-7.66-13.07-16.12-16.95
				C956.51,384.86,1007.06,366.91,1008.68,355.25z"/>
			<path class="st4" d="M901.58,266.16c0,0-4.24-13.32-3.3-19.98c0.94-6.66-3.77-33.78,12.25-38.54c16.01-4.76,29.2,0.48,33.44-0.48
				c4.24-0.95,20.83-8.67,26.85-7.14c6.81,1.73,30.14,20.46,35.8,20.46c0,0,2.4,14.03,3.81,16.41c1.41,2.38-1.46,21.66-1.46,24.51
				c0,2.85,0,4.28,0.94,7.14c0,0,1.41-5.23,1.88-8.56c0.47-3.33,6.12-11.9,6.12-11.9s4.71-28.55,3.77-30.45
				c-0.94-1.9,4.71-4.28-3.77-19.98c-8.48-15.7-46.16-38.54-61.7-40.44c-15.54-1.9-37.21,0-46.16,24.74c0,0-23.55,5.23-26.85,29.98
				c-3.3,24.74,15.07,42.35,15.07,49.96s2.35,11.9,2.35,11.9L901.58,266.16z"/>
		</g>
		<g>
			<path class="st4" d="M1008.38,267c0.42,1.16-3.92-0.71-3.92-0.71s-5.28,15.56-8.12,16.34c-2.84,0.78-30.59,0.97-32.49-1.42
				c-1.39-1.75-3.42-8.24-4.41-11.6c-4.19-2.54-7.98-1.11-10.65,0.84c-1.05,3.5-2.88,9.14-4.16,10.76
				c-1.9,2.39-29.65,2.2-32.49,1.42c-2.84-0.78-8.12-16.34-8.12-16.34s-4.34,1.87-3.92,0.71c0.7-1.93-1.03-5.59-2.39-7.91
				c2.34,2.12,5.66,1.69,5.66,1.69s1.34-2.56,5.67-2.7c11.13-0.35,30.95-1.88,42.18,2.94c3.59,0.5,4.19,0.36,6.03,0
				c11.23-4.83,31.06-3.3,42.18-2.94c4.33,0.14,5.67,2.7,5.67,2.7s3.32,0.43,5.66-1.69C1009.41,261.42,1007.68,265.08,1008.38,267z"
				/>
			<path class="st7" d="M943.97,261.58c0,0-13.64-3.78-33.09-0.58c-9.17,1.51,1.74,18.88,2.03,19.17
				c0.29,0.29,15.96,2.61,29.31-0.29C946.44,278.96,948.03,261.29,943.97,261.58z"/>
			<path class="st7" d="M964.72,261.58c0,0,13.64-3.78,33.09-0.58c9.17,1.51-1.74,18.88-2.03,19.17s-15.96,2.61-29.31-0.29
				C962.25,278.96,960.66,261.29,964.72,261.58z"/>
		</g>
	</g>
	<use xlink:href="#SVGID_1_"  style="overflow:visible;fill:none;stroke:#D33527;stroke-width:4;stroke-miterlimit:10;"/>
</g>
<g>
	<g>
		<g>
			<path class="st9" d="M157.22,629.91c0-16.38,7.61-26.95,22.99-26.95c15.52,0,23.13,10.57,23.13,26.95v55.28
				c0,16.38-7.61,27.1-23.13,27.1c-15.37,0-22.99-10.72-22.99-27.1V629.91z M168.28,685.95c0,9.65,3.88,15.46,11.92,15.46
				c8.19,0,11.92-5.82,11.92-15.46v-56.66c0-9.8-3.74-15.62-11.92-15.62c-8.04,0-11.92,5.82-11.92,15.62V685.95z"/>
			<path class="st9" d="M234.51,623.47c-3.74,2.45-8.62,4.29-13.94,4.59v-9.8c10.92-0.46,14.65-6.74,17.24-14.24h7.76v107.19h-11.06
				V623.47z"/>
		</g>
		<g>
			<g>
				<ellipse class="st10" cx="254.72" cy="743.98" rx="57.7" ry="61.5"/>
				<ellipse class="st11" cx="254.72" cy="743.98" rx="45.7" ry="48.71"/>
				<ellipse class="st10" cx="254.72" cy="743.98" rx="34.52" ry="36.8"/>
				<ellipse class="st11" cx="254.72" cy="743.98" rx="22.03" ry="23.48"/>
				<ellipse class="st10" cx="254.72" cy="743.98" rx="10.19" ry="10.86"/>
			</g>
			<line class="st12" x1="254.72" y1="743.98" x2="299" y2="718.56"/>
			<polygon class="st13" points="312.47,716.94 295.35,727.33 288.03,724.74 289.87,717.06 306.98,706.67 305.74,714.23 			"/>
		</g>
		<g>
			<path class="st14" d="M364.62,693.24c3.24,0,4.62,1.91,4.62,5.03v2.47c0,3.27-1.53,4.97-4.8,4.97h-2.03v8.12h-2.3v-20.6H364.62z
				 M364.44,703.66c1.71,0,2.53-0.79,2.53-2.77v-2.74c0-1.88-0.68-2.82-2.35-2.82h-2.21v8.33H364.44z"/>
			<path class="st14" d="M373.21,708.99c0,1.86,0.74,2.97,2.41,2.97c1.65,0,2.38-1.12,2.38-2.97v-15.75h2.15v15.63
				c0,3.12-1.44,5.21-4.62,5.21c-3.15,0-4.59-2.09-4.59-5.21v-15.63h2.27V708.99z"/>
			<path class="st14" d="M389.76,702.36v2.06h-5.03v7.33h6.18v2.09h-8.48v-20.6h8.48v2.09h-6.18v7.03H389.76z"/>
			<path class="st14" d="M397.85,693.24c3.21,0,4.68,1.94,4.68,5.12v10.39c0,3.15-1.47,5.09-4.68,5.09h-4.83v-20.6H397.85z
				 M397.83,711.75c1.65,0,2.44-1.03,2.44-2.91v-10.6c0-1.88-0.79-2.91-2.47-2.91h-2.47v16.42H397.83z"/>
			<path class="st14" d="M412.02,702.36v2.06h-5.03v7.33h6.18v2.09h-8.48v-20.6h8.48v2.09h-6.18v7.03H412.02z"/>
			<path class="st14" d="M424.44,693.24c3.24,0,4.59,1.65,4.59,4.71v1.68c0,2.27-0.79,3.68-2.56,4.24c1.88,0.56,2.59,2.09,2.59,4.3
				v3.21c0,0.91,0.03,1.77,0.41,2.47h-2.33c-0.27-0.59-0.38-1.12-0.38-2.5v-3.24c0-2.33-1.09-3.06-3-3.06h-1.62v8.8h-2.3v-20.6
				H424.44z M423.85,702.95c1.82,0,2.91-0.59,2.91-2.83v-1.97c0-1.85-0.68-2.82-2.38-2.82h-2.24v7.62H423.85z"/>
			<path class="st14" d="M438.78,702.36v2.06h-5.03v7.33h6.18v2.09h-8.48v-20.6h8.48v2.09h-6.18v7.03H438.78z"/>
			<path class="st14" d="M444.37,709.69l-0.79,4.15h-2.12l3.94-20.6h3.33l3.94,20.6h-2.3l-0.79-4.15H444.37z M444.66,707.72h4.59
				l-2.33-11.89L444.66,707.72z"/>
			<path class="st14" d="M454.47,713.84v-20.6h2.3v18.51h5.89v2.09H454.47z"/>
			<path class="st14" d="M466.69,693.24v20.6h-2.3v-20.6H466.69z"/>
			<path class="st14" d="M478.08,713.84h-9.36v-2.06l7.06-16.45h-6.74v-2.09h9.1v2.06l-7.09,16.46h7.04V713.84z"/>
			<path class="st14" d="M482.52,709.69l-0.79,4.15h-2.12l3.94-20.6h3.33l3.94,20.6h-2.3l-0.79-4.15H482.52z M482.82,707.72h4.59
				l-2.33-11.89L482.82,707.72z"/>
			<path class="st14" d="M497.22,693.24c3.24,0,4.59,1.65,4.59,4.71v1.68c0,2.27-0.79,3.68-2.56,4.24c1.88,0.56,2.59,2.09,2.59,4.3
				v3.21c0,0.91,0.03,1.77,0.41,2.47h-2.33c-0.27-0.59-0.38-1.12-0.38-2.5v-3.24c0-2.33-1.09-3.06-3-3.06h-1.62v8.8h-2.3v-20.6
				H497.22z M496.63,702.95c1.82,0,2.91-0.59,2.91-2.83v-1.97c0-1.85-0.68-2.82-2.38-2.82h-2.24v7.62H496.63z"/>
			<path class="st14" d="M364.71,728.57c3.24,0,4.59,1.65,4.59,4.71v1.68c0,2.27-0.79,3.68-2.56,4.24c1.88,0.56,2.59,2.09,2.59,4.3
				v3.21c0,0.91,0.03,1.77,0.41,2.47h-2.33c-0.27-0.59-0.38-1.12-0.38-2.5v-3.24c0-2.33-1.09-3.06-3-3.06h-1.62v8.8h-2.3v-20.6
				H364.71z M364.12,738.28c1.82,0,2.91-0.59,2.91-2.83v-1.97c0-1.86-0.68-2.83-2.38-2.83h-2.24v7.62H364.12z"/>
			<path class="st14" d="M379.04,737.69v2.06h-5.03v7.33h6.18v2.09h-8.48v-20.6h8.48v2.09h-6.18v7.04H379.04z"/>
			<path class="st14" d="M391.23,733.51v0.56h-2.18v-0.68c0-1.86-0.71-2.94-2.35-2.94s-2.35,1.09-2.35,2.91
				c0,4.62,6.92,5.06,6.92,10.86c0,3.12-1.5,5.15-4.65,5.15s-4.62-2.03-4.62-5.15v-1.18h2.15v1.29c0,1.85,0.77,2.94,2.41,2.94
				c1.65,0,2.41-1.09,2.41-2.94c0-4.59-6.89-5.03-6.89-10.83c0-3.18,1.47-5.15,4.56-5.15C389.76,728.36,391.23,730.39,391.23,733.51
				z"/>
			<path class="st14" d="M400.59,737.69v2.06h-5.03v7.33h6.18v2.09h-8.48v-20.6h8.48v2.09h-6.18v7.04H400.59z"/>
			<path class="st14" d="M408.45,728.57c3.24,0,4.59,1.65,4.59,4.71v1.68c0,2.27-0.79,3.68-2.56,4.24c1.88,0.56,2.59,2.09,2.59,4.3
				v3.21c0,0.91,0.03,1.77,0.41,2.47h-2.33c-0.27-0.59-0.38-1.12-0.38-2.5v-3.24c0-2.33-1.09-3.06-3-3.06h-1.62v8.8h-2.3v-20.6
				H408.45z M407.86,738.28c1.83,0,2.91-0.59,2.91-2.83v-1.97c0-1.86-0.68-2.83-2.38-2.83h-2.24v7.62H407.86z"/>
			<path class="st14" d="M417.14,728.57l3.36,17.93l3.33-17.93h2.12l-3.86,20.6h-3.38l-3.89-20.6H417.14z"/>
			<path class="st14" d="M429.3,745.02l-0.79,4.15h-2.12l3.94-20.6h3.33l3.94,20.6h-2.3l-0.79-4.15H429.3z M429.59,743.05h4.59
				l-2.33-11.89L429.59,743.05z"/>
			<path class="st14" d="M448.31,733.51v0.56h-2.18v-0.68c0-1.86-0.71-2.94-2.35-2.94s-2.35,1.09-2.35,2.91
				c0,4.62,6.92,5.06,6.92,10.86c0,3.12-1.5,5.15-4.65,5.15s-4.62-2.03-4.62-5.15v-1.18h2.15v1.29c0,1.85,0.77,2.94,2.41,2.94
				c1.65,0,2.41-1.09,2.41-2.94c0-4.59-6.89-5.03-6.89-10.83c0-3.18,1.47-5.15,4.56-5.15C446.84,728.36,448.31,730.39,448.31,733.51
				z"/>
			<path class="st14" d="M462.24,737.69v2.06h-5.03v7.33h6.18v2.09h-8.48v-20.6h8.48v2.09h-6.18v7.04H462.24z"/>
			<path class="st14" d="M467.54,749.17h-2.06v-20.6h2.91l4.77,14.89v-14.89h2.03v20.6h-2.38l-5.27-16.66V749.17z"/>
			<path class="st14" d="M369.21,768.87v1.85h-2.18v-1.97c0-1.86-0.74-2.97-2.41-2.97c-1.65,0-2.41,1.12-2.41,2.97v10.89
				c0,1.85,0.77,2.97,2.41,2.97c1.68,0,2.41-1.12,2.41-2.97v-2.68h2.18v2.56c0,3.12-1.47,5.18-4.65,5.18
				c-3.15,0-4.62-2.06-4.62-5.18v-10.65c0-3.12,1.47-5.18,4.62-5.18C367.74,763.69,369.21,765.75,369.21,768.87z"/>
			<path class="st14" d="M373.48,779.64c0,1.85,0.74,2.97,2.41,2.97c1.65,0,2.38-1.12,2.38-2.97V763.9h2.15v15.63
				c0,3.12-1.44,5.21-4.62,5.21c-3.15,0-4.59-2.09-4.59-5.21V763.9h2.27V779.64z"/>
			<path class="st14" d="M385.02,780.35l-0.79,4.15h-2.12l3.94-20.6h3.33l3.94,20.6h-2.3l-0.79-4.15H385.02z M385.31,778.38h4.59
				l-2.33-11.89L385.31,778.38z"/>
			<path class="st14" d="M395.12,784.5v-20.6h2.3v18.51h5.89v2.09H395.12z"/>
			<path class="st14" d="M414.31,768.87v10.65c0,1.27-0.27,2.38-0.79,3.21c0.24,0.5,0.62,0.65,1.27,0.65h0.29v2.03h-0.38
				c-1.3,0-2.15-0.47-2.62-1.32c-0.65,0.38-1.5,0.62-2.5,0.62c-3.15,0-4.71-2.06-4.71-5.18v-10.65c0-3.15,1.56-5.18,4.71-5.18
				C412.75,763.69,414.31,765.72,414.31,768.87z M407.13,768.75v10.89c0,1.88,0.79,2.97,2.44,2.97c1.68,0,2.44-1.09,2.44-2.97
				v-10.89c0-1.86-0.77-2.97-2.44-2.97C407.92,765.78,407.13,766.9,407.13,768.75z"/>
			<path class="st14" d="M418.76,779.64c0,1.85,0.74,2.97,2.41,2.97c1.65,0,2.38-1.12,2.38-2.97V763.9h2.15v15.63
				c0,3.12-1.44,5.21-4.62,5.21c-3.15,0-4.59-2.09-4.59-5.21V763.9h2.27V779.64z"/>
			<path class="st14" d="M430.27,763.9v20.6h-2.3v-20.6H430.27z"/>
			<path class="st14" d="M439.95,773.02v2.06h-5.03v7.33h6.18v2.09h-8.48v-20.6h8.48v2.09h-6.18v7.04H439.95z"/>
			<path class="st14" d="M447.81,763.9c3.24,0,4.59,1.65,4.59,4.71v1.68c0,2.27-0.79,3.68-2.56,4.24c1.88,0.56,2.59,2.09,2.59,4.3
				v3.21c0,0.91,0.03,1.77,0.41,2.47h-2.33c-0.27-0.59-0.38-1.12-0.38-2.5v-3.24c0-2.33-1.09-3.06-3-3.06h-1.62v8.8h-2.3v-20.6
				H447.81z M447.23,773.61c1.82,0,2.91-0.59,2.91-2.83v-1.97c0-1.86-0.68-2.83-2.38-2.83h-2.24v7.62H447.23z"/>
			<path class="st14" d="M364.71,799.23c3.24,0,4.59,1.65,4.59,4.71v1.68c0,2.27-0.79,3.68-2.56,4.24c1.88,0.56,2.59,2.09,2.59,4.3
				v3.21c0,0.91,0.03,1.77,0.41,2.47h-2.33c-0.27-0.59-0.38-1.12-0.38-2.5v-3.24c0-2.33-1.09-3.06-3-3.06h-1.62v8.8h-2.3v-20.6
				H364.71z M364.12,808.94c1.82,0,2.91-0.59,2.91-2.83v-1.97c0-1.85-0.68-2.82-2.38-2.82h-2.24v7.62H364.12z"/>
			<path class="st14" d="M379.04,808.35v2.06h-5.03v7.33h6.18v2.09h-8.48v-20.6h8.48v2.09h-6.18v7.03H379.04z"/>
			<path class="st14" d="M391.23,804.17v0.56h-2.18v-0.68c0-1.85-0.71-2.94-2.35-2.94s-2.35,1.09-2.35,2.91
				c0,4.62,6.92,5.06,6.92,10.86c0,3.12-1.5,5.15-4.65,5.15s-4.62-2.03-4.62-5.15v-1.18h2.15V815c0,1.86,0.77,2.94,2.41,2.94
				c1.65,0,2.41-1.09,2.41-2.94c0-4.59-6.89-5.03-6.89-10.83c0-3.18,1.47-5.15,4.56-5.15C389.76,799.02,391.23,801.05,391.23,804.17
				z"/>
			<path class="st14" d="M396.24,819.83v-18.51h-3.8v-2.09h9.86v2.09h-3.8v18.51H396.24z"/>
			<path class="st14" d="M405.07,815.68l-0.79,4.15h-2.12l3.94-20.6h3.33l3.94,20.6h-2.3l-0.79-4.15H405.07z M405.36,813.71h4.59
				l-2.33-11.89L405.36,813.71z"/>
			<path class="st14" d="M417.35,814.97c0,1.86,0.74,2.97,2.41,2.97c1.65,0,2.38-1.12,2.38-2.97v-15.75h2.15v15.63
				c0,3.12-1.44,5.21-4.62,5.21c-3.15,0-4.59-2.09-4.59-5.21v-15.63h2.27V814.97z"/>
			<path class="st14" d="M431.15,799.23c3.24,0,4.59,1.65,4.59,4.71v1.68c0,2.27-0.79,3.68-2.56,4.24c1.88,0.56,2.59,2.09,2.59,4.3
				v3.21c0,0.91,0.03,1.77,0.41,2.47h-2.33c-0.27-0.59-0.38-1.12-0.38-2.5v-3.24c0-2.33-1.09-3.06-3-3.06h-1.62v8.8h-2.3v-20.6
				H431.15z M430.56,808.94c1.82,0,2.91-0.59,2.91-2.83v-1.97c0-1.85-0.68-2.82-2.38-2.82h-2.24v7.62H430.56z"/>
			<path class="st14" d="M440.48,815.68l-0.79,4.15h-2.12l3.94-20.6h3.33l3.94,20.6h-2.3l-0.79-4.15H440.48z M440.78,813.71h4.59
				l-2.33-11.89L440.78,813.71z"/>
			<path class="st14" d="M452.61,819.83h-2.06v-20.6h2.91l4.77,14.89v-14.89h2.03v20.6h-2.38l-5.27-16.66V819.83z"/>
			<path class="st14" d="M465.6,819.83v-18.51h-3.8v-2.09h9.86v2.09h-3.8v18.51H465.6z"/>
			<path class="st14" d="M480.55,808.35v2.06h-5.03v7.33h6.18v2.09h-8.48v-20.6h8.48v2.09h-6.18v7.03H480.55z"/>
		</g>
	</g>
	<polyline class="st15" points="307.47,640.62 566.79,640.62 566.79,860.18 307.47,860.18 307.47,831.54 	"/>
</g>
<g>
	<g>
		<g>
			<path class="st9" d="M734.44,629.9c0-16.38,7.61-26.95,22.99-26.95c15.52,0,23.13,10.57,23.13,26.95v55.28
				c0,16.38-7.61,27.1-23.13,27.1c-15.37,0-22.99-10.72-22.99-27.1V629.9z M745.5,685.95c0,9.65,3.88,15.46,11.92,15.46
				c8.19,0,11.92-5.82,11.92-15.46v-56.65c0-9.8-3.74-15.62-11.92-15.62c-8.04,0-11.92,5.82-11.92,15.62V685.95z"/>
			<path class="st9" d="M836.44,630.06c0,32.31-34.05,43.95-34.19,68.6v1.68h33.04v10.87h-44.1v-9.19
				c0-34.61,34.05-41.34,34.05-71.51c0-11.03-3.45-16.84-11.78-16.84c-8.19,0-11.78,6.28-11.78,15.77v9.49h-10.49v-8.73
				c0-16.38,7.04-27.26,22.55-27.26C829.4,602.96,836.44,613.67,836.44,630.06z"/>
		</g>
		<g>
			<g>
				<g>
					<path class="st10" d="M813.49,800.22l-4.17-2.97c-1.89-1.35-2.33-3.97-0.98-5.86l28.05-39.5l11.02,7.85l-28.05,39.5
						C818.01,801.12,815.38,801.56,813.49,800.22z"/>
					<polygon class="st10" points="835.35,776.79 847.41,759.73 836.39,751.88 824.08,769.29 					"/>
				</g>
				<path class="st10" d="M868.93,666.96c-29.8,0-53.96,24.16-53.96,53.96c0,29.8,24.16,53.96,53.96,53.96
					c29.8,0,53.96-24.16,53.96-53.96C922.89,691.12,898.73,666.96,868.93,666.96z M868.93,762.07c-22.73,0-41.15-18.42-41.15-41.15
					c0-22.73,18.42-41.15,41.15-41.15c22.73,0,41.15,18.42,41.15,41.15C910.08,743.65,891.66,762.07,868.93,762.07z"/>
			</g>
			<g>
				<circle class="st10" cx="868.76" cy="706.35" r="9.11"/>
				<path class="st10" d="M881.02,743.36h-24.07c-0.45,0-0.81-0.36-0.81-0.81v-20.4c0-1.68,1.36-3.04,3.04-3.04h19.6
					c1.68,0,3.04,1.36,3.04,3.04v20.4C881.83,743,881.47,743.36,881.02,743.36z"/>
			</g>
		</g>
	</g>
	<polyline class="st15" points="888.2,640.62 1147.53,640.62 1147.53,860.18 888.2,860.18 888.2,831.54 	"/>
</g>
<g>
	<g>
		<g>
			<path class="st9" d="M1311.78,629.91c0-16.38,7.61-26.95,22.99-26.95c15.52,0,23.13,10.56,23.13,26.95v55.28
				c0,16.38-7.61,27.1-23.13,27.1c-15.37,0-22.99-10.72-22.99-27.1V629.91z M1322.84,685.95c0,9.65,3.88,15.46,11.92,15.46
				c8.19,0,11.92-5.82,11.92-15.46v-56.66c0-9.8-3.74-15.62-11.92-15.62c-8.04,0-11.92,5.82-11.92,15.62V685.95z"/>
			<path class="st9" d="M1413.2,629.91v2.76c0,11.03-4.17,18.83-12.21,22.05c8.48,3.37,12.21,11.48,12.21,22.2v8.27
				c0,16.38-7.18,27.1-22.7,27.1c-15.37,0-22.55-10.72-22.55-27.1v-7.35h10.49v8.12c0,9.65,3.74,15.46,11.78,15.46
				c8.19,0,11.78-5.67,11.78-16.54v-8.27c0-10.56-4.17-15.62-12.64-15.92h-6.03v-10.72h6.61c7.47-0.31,12.07-5.36,12.07-14.7v-4.9
				c0-11.03-3.59-16.69-11.78-16.69c-8.04,0-11.78,5.97-11.78,15.62v5.51h-10.49v-4.9c0-16.38,7.18-26.95,22.55-26.95
				C1406.02,602.96,1413.2,613.52,1413.2,629.91z"/>
		</g>
		<g>
			<path class="st10" d="M1493.5,797.02h-129.58c-2.09,0-3.78-1.69-3.78-3.78v-96.48c0-2.09,1.69-3.78,3.78-3.78h129.58
				c2.09,0,3.78,1.69,3.78,3.78v96.48C1497.28,795.33,1495.59,797.02,1493.5,797.02z"/>
			<path class="st10" d="M1360.14,777.68v32.49c0,2.6,3.12,3.93,5,2.13l20.44-19.57L1360.14,777.68z"/>
			<g>
				<g>
					<g>
						<rect x="1383.56" y="715.17" class="st16" width="14" height="14"/>
						<polyline class="st16" points="1387.39,721.7 1390.19,724.13 1393.46,720.3 						"/>
					</g>
					<g>
						<rect x="1383.56" y="739.54" class="st16" width="14" height="14"/>
						<polyline class="st16" points="1387.39,746.07 1390.19,748.5 1393.46,744.67 						"/>
					</g>
					<g>
						<rect x="1383.56" y="763.9" class="st16" width="14" height="14"/>
						<polyline class="st16" points="1387.39,770.44 1390.19,772.86 1393.46,769.04 						"/>
					</g>
				</g>
				<g>
					<line class="st16" x1="1412.53" y1="717.93" x2="1449.46" y2="717.93"/>
					<line class="st16" x1="1412.53" y1="725.54" x2="1466.94" y2="725.54"/>
				</g>
				<g>
					<line class="st16" x1="1412.53" y1="741.89" x2="1449.46" y2="741.89"/>
					<line class="st16" x1="1412.53" y1="749.51" x2="1466.94" y2="749.51"/>
				</g>
				<g>
					<line class="st16" x1="1412.53" y1="765.86" x2="1449.46" y2="765.86"/>
					<line class="st16" x1="1412.53" y1="773.47" x2="1466.94" y2="773.47"/>
				</g>
			</g>
		</g>
	</g>
	<polyline class="st15" points="1465.54,640.62 1724.87,640.62 1724.87,860.18 1465.54,860.18 1465.54,831.54 	"/>
</g>
<g>
	<path class="st14" d="M949.7,693.56c3.24,0,4.62,1.91,4.62,5.03v2.47c0,3.27-1.53,4.97-4.8,4.97h-2.03v8.12h-2.3v-20.6H949.7z
		 M949.53,703.98c1.71,0,2.53-0.79,2.53-2.77v-2.74c0-1.88-0.68-2.83-2.35-2.83h-2.21v8.33H949.53z"/>
	<path class="st14" d="M958.3,709.31c0,1.85,0.74,2.97,2.41,2.97c1.65,0,2.38-1.12,2.38-2.97v-15.75h2.15v15.63
		c0,3.12-1.44,5.21-4.62,5.21c-3.15,0-4.59-2.09-4.59-5.21v-15.63h2.27V709.31z"/>
	<path class="st14" d="M974.84,702.69v2.06h-5.03v7.33h6.18v2.09h-8.48v-20.6h8.48v2.09h-6.18v7.04H974.84z"/>
	<path class="st14" d="M982.94,693.56c3.21,0,4.68,1.94,4.68,5.12v10.39c0,3.15-1.47,5.09-4.68,5.09h-4.83v-20.6H982.94z
		 M982.91,712.07c1.65,0,2.44-1.03,2.44-2.91v-10.6c0-1.88-0.79-2.91-2.47-2.91h-2.47v16.42H982.91z"/>
	<path class="st14" d="M997.1,702.69v2.06h-5.03v7.33h6.18v2.09h-8.48v-20.6h8.48v2.09h-6.18v7.04H997.1z"/>
	<path class="st14" d="M1007.26,710.01l-0.79,4.15h-2.12l3.94-20.6h3.33l3.94,20.6h-2.3l-0.79-4.15H1007.26z M1007.55,708.04h4.59
		l-2.33-11.89L1007.55,708.04z"/>
	<path class="st14" d="M1026.42,698.54v1.85h-2.18v-1.97c0-1.86-0.74-2.97-2.41-2.97c-1.65,0-2.41,1.12-2.41,2.97v10.89
		c0,1.85,0.77,2.97,2.41,2.97c1.68,0,2.41-1.12,2.41-2.97v-2.68h2.18v2.56c0,3.12-1.47,5.18-4.65,5.18c-3.15,0-4.62-2.06-4.62-5.18
		v-10.65c0-3.12,1.47-5.18,4.62-5.18C1024.95,693.36,1026.42,695.41,1026.42,698.54z"/>
	<path class="st14" d="M1037.61,698.54v1.85h-2.18v-1.97c0-1.86-0.74-2.97-2.41-2.97c-1.65,0-2.41,1.12-2.41,2.97v10.89
		c0,1.85,0.77,2.97,2.41,2.97c1.68,0,2.41-1.12,2.41-2.97v-2.68h2.18v2.56c0,3.12-1.47,5.18-4.65,5.18c-3.15,0-4.62-2.06-4.62-5.18
		v-10.65c0-3.12,1.47-5.18,4.62-5.18C1036.14,693.36,1037.61,695.41,1037.61,698.54z"/>
	<path class="st14" d="M1047.03,702.69v2.06H1042v7.33h6.18v2.09h-8.48v-20.6h8.48v2.09H1042v7.04H1047.03z"/>
	<path class="st14" d="M1055.13,693.56c3.21,0,4.68,1.94,4.68,5.12v10.39c0,3.15-1.47,5.09-4.68,5.09h-4.83v-20.6H1055.13z
		 M1055.1,712.07c1.65,0,2.44-1.03,2.44-2.91v-10.6c0-1.88-0.79-2.91-2.47-2.91h-2.47v16.42H1055.1z"/>
	<path class="st14" d="M1069.29,702.69v2.06h-5.03v7.33h6.18v2.09h-8.48v-20.6h8.48v2.09h-6.18v7.04H1069.29z"/>
	<path class="st14" d="M1077.15,693.56c3.24,0,4.59,1.65,4.59,4.71v1.68c0,2.27-0.79,3.68-2.56,4.24c1.88,0.56,2.59,2.09,2.59,4.3
		v3.21c0,0.91,0.03,1.77,0.41,2.47h-2.33c-0.26-0.59-0.38-1.12-0.38-2.5v-3.24c0-2.33-1.09-3.06-3-3.06h-1.62v8.8h-2.3v-20.6
		H1077.15z M1076.56,703.27c1.82,0,2.91-0.59,2.91-2.83v-1.97c0-1.86-0.68-2.83-2.38-2.83h-2.24v7.62H1076.56z"/>
	<path class="st14" d="M947.52,745.34l-0.79,4.15h-2.12l3.94-20.6h3.33l3.94,20.6h-2.3l-0.79-4.15H947.52z M947.82,743.37h4.59
		l-2.33-11.89L947.82,743.37z"/>
	<path class="st14" d="M971.1,733.83v0.56h-2.18v-0.68c0-1.85-0.71-2.94-2.36-2.94s-2.35,1.09-2.35,2.91
		c0,4.62,6.92,5.06,6.92,10.86c0,3.12-1.5,5.15-4.65,5.15s-4.62-2.03-4.62-5.15v-1.18h2.15v1.29c0,1.86,0.77,2.94,2.41,2.94
		s2.41-1.09,2.41-2.94c0-4.59-6.89-5.03-6.89-10.83c0-3.18,1.47-5.15,4.56-5.15C969.63,728.68,971.1,730.71,971.1,733.83z"/>
	<path class="st14" d="M975.32,744.64c0,1.86,0.74,2.97,2.41,2.97c1.65,0,2.38-1.12,2.38-2.97v-15.75h2.15v15.63
		c0,3.12-1.44,5.21-4.62,5.21c-3.15,0-4.59-2.09-4.59-5.21v-15.63h2.27V744.64z"/>
	<path class="st14" d="M993.45,733.83v0.56h-2.18v-0.68c0-1.85-0.71-2.94-2.36-2.94s-2.35,1.09-2.35,2.91
		c0,4.62,6.92,5.06,6.92,10.86c0,3.12-1.5,5.15-4.65,5.15s-4.62-2.03-4.62-5.15v-1.18h2.15v1.29c0,1.86,0.77,2.94,2.41,2.94
		s2.41-1.09,2.41-2.94c0-4.59-6.89-5.03-6.89-10.83c0-3.18,1.47-5.15,4.56-5.15C991.98,728.68,993.45,730.71,993.45,733.83z"/>
	<path class="st14" d="M1004.64,728.89c3.24,0,4.59,1.65,4.59,4.71v1.68c0,2.27-0.79,3.68-2.56,4.24c1.88,0.56,2.59,2.09,2.59,4.3
		v3.21c0,0.91,0.03,1.77,0.41,2.47h-2.33c-0.27-0.59-0.38-1.12-0.38-2.5v-3.24c0-2.33-1.09-3.06-3-3.06h-1.62v8.8h-2.3v-20.6
		H1004.64z M1004.05,738.6c1.83,0,2.91-0.59,2.91-2.83v-1.97c0-1.85-0.68-2.82-2.38-2.82h-2.24v7.62H1004.05z"/>
	<path class="st14" d="M1018.97,738.01v2.06h-5.03v7.33h6.18v2.09h-8.48v-20.6h8.48v2.09h-6.18v7.03H1018.97z"/>
	<path class="st14" d="M1031.16,733.83v0.56h-2.18v-0.68c0-1.85-0.71-2.94-2.36-2.94s-2.35,1.09-2.35,2.91
		c0,4.62,6.92,5.06,6.92,10.86c0,3.12-1.5,5.15-4.65,5.15s-4.62-2.03-4.62-5.15v-1.18h2.15v1.29c0,1.86,0.77,2.94,2.41,2.94
		s2.41-1.09,2.41-2.94c0-4.59-6.89-5.03-6.89-10.83c0-3.18,1.47-5.15,4.56-5.15C1029.69,728.68,1031.16,730.71,1031.16,733.83z"/>
	<path class="st14" d="M1040.52,738.01v2.06h-5.03v7.33h6.18v2.09h-8.48v-20.6h8.48v2.09h-6.18v7.03H1040.52z"/>
	<path class="st14" d="M1048.39,728.89c3.24,0,4.59,1.65,4.59,4.71v1.68c0,2.27-0.79,3.68-2.56,4.24c1.88,0.56,2.59,2.09,2.59,4.3
		v3.21c0,0.91,0.03,1.77,0.41,2.47h-2.33c-0.27-0.59-0.38-1.12-0.38-2.5v-3.24c0-2.33-1.09-3.06-3-3.06h-1.62v8.8h-2.3v-20.6
		H1048.39z M1047.8,738.6c1.83,0,2.91-0.59,2.91-2.83v-1.97c0-1.85-0.68-2.82-2.38-2.82h-2.24v7.62H1047.8z"/>
	<path class="st14" d="M1057.07,728.89l3.36,17.92l3.33-17.92h2.12l-3.86,20.6h-3.38l-3.88-20.6H1057.07z"/>
	<path class="st14" d="M1069.23,745.34l-0.79,4.15h-2.12l3.94-20.6h3.33l3.94,20.6h-2.3l-0.79-4.15H1069.23z M1069.52,743.37h4.59
		l-2.33-11.89L1069.52,743.37z"/>
	<path class="st14" d="M1088.25,733.83v0.56h-2.18v-0.68c0-1.85-0.71-2.94-2.36-2.94s-2.35,1.09-2.35,2.91
		c0,4.62,6.92,5.06,6.92,10.86c0,3.12-1.5,5.15-4.65,5.15s-4.62-2.03-4.62-5.15v-1.18h2.15v1.29c0,1.86,0.77,2.94,2.41,2.94
		s2.41-1.09,2.41-2.94c0-4.59-6.89-5.03-6.89-10.83c0-3.18,1.47-5.15,4.56-5.15C1086.78,728.68,1088.25,730.71,1088.25,733.83z"/>
	<path class="st14" d="M954.29,769.19v1.86h-2.18v-1.97c0-1.85-0.74-2.97-2.41-2.97c-1.65,0-2.41,1.12-2.41,2.97v10.89
		c0,1.86,0.77,2.97,2.41,2.97c1.68,0,2.41-1.12,2.41-2.97v-2.68h2.18v2.56c0,3.12-1.47,5.18-4.65,5.18c-3.15,0-4.62-2.06-4.62-5.18
		v-10.66c0-3.12,1.47-5.18,4.62-5.18C952.82,764.01,954.29,766.07,954.29,769.19z"/>
	<path class="st14" d="M958.71,780.67l-0.79,4.15h-2.12l3.94-20.6h3.33l3.94,20.6h-2.3l-0.79-4.15H958.71z M959,778.7h4.59
		l-2.33-11.89L959,778.7z"/>
	<path class="st14" d="M970.84,784.82h-2.06v-20.6h2.91l4.77,14.89v-14.89h2.03v20.6h-2.38l-5.27-16.66V784.82z"/>
	<path class="st14" d="M989.95,769.19v1.86h-2.18v-1.97c0-1.85-0.74-2.97-2.41-2.97c-1.65,0-2.41,1.12-2.41,2.97v10.89
		c0,1.86,0.77,2.97,2.41,2.97c1.68,0,2.41-1.12,2.41-2.97v-2.68h2.18v2.56c0,3.12-1.47,5.18-4.65,5.18c-3.15,0-4.62-2.06-4.62-5.18
		v-10.66c0-3.12,1.47-5.18,4.62-5.18C988.47,764.01,989.95,766.07,989.95,769.19z"/>
	<path class="st14" d="M999.37,773.34v2.06h-5.03v7.33h6.18v2.09h-8.48v-20.6h8.48v2.09h-6.18v7.03H999.37z"/>
	<path class="st14" d="M1002.64,784.82v-20.6h2.3v18.51h5.89v2.09H1002.64z"/>
	<path class="st14" d="M1014.88,780.67l-0.79,4.15h-2.12l3.94-20.6h3.33l3.94,20.6h-2.3l-0.79-4.15H1014.88z M1015.18,778.7h4.59
		l-2.33-11.89L1015.18,778.7z"/>
	<path class="st14" d="M1029.57,764.22c3.24,0,4.59,1.65,4.59,4.71v1.68c0,2.27-0.79,3.68-2.56,4.24c1.88,0.56,2.59,2.09,2.59,4.3
		v3.21c0,0.91,0.03,1.77,0.41,2.47h-2.33c-0.27-0.59-0.38-1.12-0.38-2.5v-3.24c0-2.33-1.09-3.06-3-3.06h-1.62v8.8h-2.3v-20.6
		H1029.57z M1028.98,773.93c1.83,0,2.91-0.59,2.91-2.83v-1.97c0-1.85-0.68-2.82-2.38-2.82h-2.24v7.62H1028.98z"/>
	<path class="st14" d="M1044.79,777.43l-4.36-13.21h2.38l3.21,10.12l3.24-10.12h2.18l-4.39,13.21v7.39h-2.27V777.43z"/>
	<path class="st14" d="M1059.96,775.55v9.27h-2.3v-20.6h2.3v9.27h5.06v-9.27h2.3v20.6h-2.3v-9.27H1059.96z"/>
	<path class="st14" d="M1072,780.67l-0.79,4.15h-2.12l3.94-20.6h3.33l3.94,20.6h-2.3l-0.79-4.15H1072z M1072.29,778.7h4.59
		l-2.33-11.89L1072.29,778.7z"/>
	<path class="st14" d="M1091.16,769.19v1.86h-2.18v-1.97c0-1.85-0.74-2.97-2.41-2.97c-1.65,0-2.41,1.12-2.41,2.97v10.89
		c0,1.86,0.77,2.97,2.41,2.97c1.68,0,2.41-1.12,2.41-2.97v-2.68h2.18v2.56c0,3.12-1.47,5.18-4.65,5.18c-3.15,0-4.62-2.06-4.62-5.18
		v-10.66c0-3.12,1.47-5.18,4.62-5.18C1089.69,764.01,1091.16,766.07,1091.16,769.19z"/>
	<path class="st14" d="M1100.58,773.34v2.06h-5.03v7.33h6.18v2.09h-8.48v-20.6h8.48v2.09h-6.18v7.03H1100.58z"/>
	<path class="st14" d="M1108.44,764.22c3.24,0,4.59,1.65,4.59,4.71v1.68c0,2.27-0.79,3.68-2.56,4.24c1.88,0.56,2.59,2.09,2.59,4.3
		v3.21c0,0.91,0.03,1.77,0.41,2.47h-2.33c-0.27-0.59-0.38-1.12-0.38-2.5v-3.24c0-2.33-1.09-3.06-3-3.06h-1.62v8.8h-2.3v-20.6
		H1108.44z M1107.85,773.93c1.83,0,2.91-0.59,2.91-2.83v-1.97c0-1.85-0.68-2.82-2.38-2.82h-2.24v7.62H1107.85z"/>
	<path class="st14" d="M947.23,820.15h-2.06v-20.6h2.91l4.77,14.89v-14.89h2.03v20.6h-2.38l-5.27-16.66V820.15z"/>
	<path class="st14" d="M959.42,815.29c0,1.85,0.74,2.97,2.41,2.97c1.65,0,2.38-1.12,2.38-2.97v-15.75h2.15v15.63
		c0,3.12-1.44,5.21-4.62,5.21c-3.15,0-4.59-2.09-4.59-5.21v-15.63h2.27V815.29z"/>
	<path class="st14" d="M975.96,808.67v2.06h-5.03v7.33h6.18v2.09h-8.48v-20.6h8.48v2.09h-6.18v7.04H975.96z"/>
	<path class="st14" d="M980.97,799.55l3.36,17.93l3.33-17.93h2.12l-3.86,20.6h-3.38l-3.89-20.6H980.97z"/>
	<path class="st14" d="M993.13,816l-0.79,4.15h-2.12l3.94-20.6h3.33l3.94,20.6h-2.3l-0.79-4.15H993.13z M993.42,814.03h4.59
		l-2.33-11.89L993.42,814.03z"/>
	<path class="st14" d="M1012.14,804.49v0.56h-2.18v-0.68c0-1.86-0.71-2.94-2.35-2.94s-2.35,1.09-2.35,2.91
		c0,4.62,6.92,5.06,6.92,10.86c0,3.12-1.5,5.15-4.65,5.15s-4.62-2.03-4.62-5.15v-1.18h2.15v1.29c0,1.85,0.76,2.94,2.41,2.94
		s2.41-1.09,2.41-2.94c0-4.59-6.89-5.03-6.89-10.83c0-3.18,1.47-5.15,4.56-5.15C1010.67,799.34,1012.14,801.37,1012.14,804.49z"/>
	<path class="st14" d="M1023.33,799.55c3.24,0,4.59,1.65,4.59,4.71v1.68c0,2.27-0.79,3.68-2.56,4.24c1.88,0.56,2.59,2.09,2.59,4.3
		v3.21c0,0.91,0.03,1.77,0.41,2.47h-2.33c-0.26-0.59-0.38-1.12-0.38-2.5v-3.24c0-2.33-1.09-3.06-3-3.06h-1.62v8.8h-2.3v-20.6
		H1023.33z M1022.74,809.26c1.82,0,2.91-0.59,2.91-2.83v-1.97c0-1.86-0.68-2.83-2.38-2.83h-2.24v7.62H1022.74z"/>
	<path class="st14" d="M1037.67,808.67v2.06h-5.03v7.33h6.18v2.09h-8.48v-20.6h8.48v2.09h-6.18v7.04H1037.67z"/>
	<path class="st14" d="M1049.86,804.49v0.56h-2.18v-0.68c0-1.86-0.71-2.94-2.35-2.94s-2.35,1.09-2.35,2.91
		c0,4.62,6.92,5.06,6.92,10.86c0,3.12-1.5,5.15-4.65,5.15s-4.62-2.03-4.62-5.15v-1.18h2.15v1.29c0,1.85,0.76,2.94,2.41,2.94
		s2.41-1.09,2.41-2.94c0-4.59-6.89-5.03-6.89-10.83c0-3.18,1.47-5.15,4.56-5.15C1048.38,799.34,1049.86,801.37,1049.86,804.49z"/>
	<path class="st14" d="M1059.22,808.67v2.06h-5.03v7.33h6.18v2.09h-8.48v-20.6h8.48v2.09h-6.18v7.04H1059.22z"/>
	<path class="st14" d="M1067.08,799.55c3.24,0,4.59,1.65,4.59,4.71v1.68c0,2.27-0.79,3.68-2.56,4.24c1.88,0.56,2.59,2.09,2.59,4.3
		v3.21c0,0.91,0.03,1.77,0.41,2.47h-2.33c-0.27-0.59-0.38-1.12-0.38-2.5v-3.24c0-2.33-1.09-3.06-3-3.06h-1.62v8.8h-2.3v-20.6
		H1067.08z M1066.49,809.26c1.83,0,2.91-0.59,2.91-2.83v-1.97c0-1.86-0.68-2.83-2.38-2.83h-2.24v7.62H1066.49z"/>
	<path class="st14" d="M1075.77,799.55l3.36,17.93l3.33-17.93h2.12l-3.86,20.6h-3.38l-3.89-20.6H1075.77z"/>
	<path class="st14" d="M1087.92,816l-0.79,4.15h-2.12l3.94-20.6h3.33l3.94,20.6h-2.3l-0.79-4.15H1087.92z M1088.22,814.03h4.59
		l-2.33-11.89L1088.22,814.03z"/>
	<path class="st14" d="M1106.94,804.49v0.56h-2.18v-0.68c0-1.86-0.71-2.94-2.35-2.94s-2.35,1.09-2.35,2.91
		c0,4.62,6.92,5.06,6.92,10.86c0,3.12-1.5,5.15-4.65,5.15s-4.62-2.03-4.62-5.15v-1.18h2.15v1.29c0,1.85,0.76,2.94,2.41,2.94
		s2.41-1.09,2.41-2.94c0-4.59-6.89-5.03-6.89-10.83c0-3.18,1.47-5.15,4.56-5.15C1105.47,799.34,1106.94,801.37,1106.94,804.49z"/>
</g>
<g>
	<path class="st14" d="M1536.77,705.68l-0.79,4.15h-2.12l3.94-20.6h3.33l3.94,20.6h-2.3l-0.79-4.15H1536.77z M1537.07,703.71h4.59
		l-2.33-11.89L1537.07,703.71z"/>
	<path class="st14" d="M1555.94,694.2v1.86h-2.18v-1.97c0-1.85-0.74-2.97-2.41-2.97c-1.65,0-2.41,1.12-2.41,2.97v10.89
		c0,1.86,0.77,2.97,2.41,2.97c1.68,0,2.41-1.12,2.41-2.97v-2.68h2.18v2.56c0,3.12-1.47,5.18-4.65,5.18c-3.15,0-4.62-2.06-4.62-5.18
		V694.2c0-3.12,1.47-5.18,4.62-5.18C1554.47,689.02,1555.94,691.08,1555.94,694.2z"/>
	<path class="st14" d="M1567.13,694.2v1.86h-2.18v-1.97c0-1.85-0.74-2.97-2.41-2.97c-1.65,0-2.41,1.12-2.41,2.97v10.89
		c0,1.86,0.77,2.97,2.41,2.97c1.68,0,2.41-1.12,2.41-2.97v-2.68h2.18v2.56c0,3.12-1.47,5.18-4.65,5.18c-3.15,0-4.62-2.06-4.62-5.18
		V694.2c0-3.12,1.47-5.18,4.62-5.18C1565.65,689.02,1567.13,691.08,1567.13,694.2z"/>
	<path class="st14" d="M1576.55,698.35v2.06h-5.03v7.33h6.18v2.09h-8.48v-20.6h8.48v2.09h-6.18v7.03H1576.55z"/>
	<path class="st14" d="M1588.73,694.17v0.56h-2.18v-0.68c0-1.85-0.71-2.94-2.36-2.94s-2.35,1.09-2.35,2.91
		c0,4.62,6.92,5.06,6.92,10.86c0,3.12-1.5,5.15-4.65,5.15s-4.62-2.03-4.62-5.15v-1.18h2.15V705c0,1.86,0.77,2.94,2.41,2.94
		s2.41-1.09,2.41-2.94c0-4.59-6.89-5.03-6.89-10.83c0-3.18,1.47-5.15,4.56-5.15C1587.26,689.02,1588.73,691.05,1588.73,694.17z"/>
	<path class="st14" d="M1590.59,694.2c0-3.15,1.56-5.18,4.71-5.18c3.18,0,4.74,2.03,4.74,5.18v10.66c0,3.12-1.56,5.18-4.74,5.18
		c-3.15,0-4.71-2.06-4.71-5.18V694.2z M1592.86,704.97c0,1.88,0.79,2.97,2.44,2.97c1.68,0,2.44-1.09,2.44-2.97v-10.89
		c0-1.85-0.76-2.97-2.44-2.97c-1.65,0-2.44,1.12-2.44,2.97V704.97z"/>
	<path class="st14" d="M1609.11,705.68l-0.79,4.15h-2.12l3.94-20.6h3.33l3.94,20.6h-2.3l-0.79-4.15H1609.11z M1609.4,703.71h4.59
		l-2.33-11.89L1609.4,703.71z"/>
	<path class="st14" d="M1623.77,709.83v-20.6h2.3v18.51h5.89v2.09H1623.77z"/>
	<path class="st14" d="M1636.02,705.68l-0.79,4.15h-2.12l3.94-20.6h3.33l3.94,20.6h-2.3l-0.79-4.15H1636.02z M1636.31,703.71h4.59
		l-2.33-11.89L1636.31,703.71z"/>
	<path class="st14" d="M1536.74,724.55v20.6h-2.3v-20.6H1536.74z"/>
	<path class="st14" d="M1541.13,745.16h-2.06v-20.6h2.91l4.77,14.89v-14.89h2.03v20.6h-2.38l-5.27-16.66V745.16z"/>
	<path class="st14" d="M1558.18,734.15v2.09h-4.74v8.92h-2.3v-20.6h8.18v2.09h-5.89v7.51H1558.18z"/>
	<path class="st14" d="M1560.97,729.53c0-3.15,1.56-5.18,4.71-5.18c3.18,0,4.74,2.03,4.74,5.18v10.65c0,3.12-1.56,5.18-4.74,5.18
		c-3.15,0-4.71-2.06-4.71-5.18V729.53z M1563.24,740.3c0,1.88,0.79,2.97,2.44,2.97c1.68,0,2.44-1.09,2.44-2.97v-10.89
		c0-1.86-0.77-2.97-2.44-2.97c-1.65,0-2.44,1.12-2.44,2.97V740.3z"/>
	<path class="st14" d="M1577.19,724.55c3.24,0,4.59,1.65,4.59,4.71v1.68c0,2.27-0.79,3.68-2.56,4.24c1.88,0.56,2.59,2.09,2.59,4.3
		v3.21c0,0.91,0.03,1.77,0.41,2.47h-2.33c-0.26-0.59-0.38-1.12-0.38-2.5v-3.24c0-2.33-1.09-3.06-3-3.06h-1.62v8.8h-2.3v-20.6
		H1577.19z M1576.61,734.27c1.82,0,2.91-0.59,2.91-2.83v-1.97c0-1.86-0.68-2.83-2.38-2.83h-2.24v7.62H1576.61z"/>
	<path class="st14" d="M1591.8,745.13h-2.21l-3.41-16.39v16.42h-2v-20.6h3.21l3.38,16.45l3.27-16.45h3.21v20.6h-2.18v-16.57
		L1591.8,745.13z"/>
	<path class="st14" d="M1601.92,741.01l-0.79,4.15h-2.12l3.94-20.6h3.33l3.94,20.6h-2.3l-0.79-4.15H1601.92z M1602.22,739.04h4.59
		l-2.33-11.89L1602.22,739.04z"/>
	<path class="st14" d="M1621.09,729.53v1.85h-2.18v-1.97c0-1.86-0.74-2.97-2.41-2.97c-1.65,0-2.41,1.12-2.41,2.97v10.89
		c0,1.85,0.77,2.97,2.41,2.97c1.68,0,2.41-1.12,2.41-2.97v-2.68h2.18v2.56c0,3.12-1.47,5.18-4.65,5.18c-3.15,0-4.62-2.06-4.62-5.18
		v-10.65c0-3.12,1.47-5.18,4.62-5.18C1619.62,724.35,1621.09,726.41,1621.09,729.53z"/>
	<path class="st14" d="M1625.48,724.55v20.6h-2.3v-20.6H1625.48z"/>
	<path class="st14" d="M1627.66,729.53c0-3.15,1.56-5.18,4.71-5.18c3.18,0,4.74,2.03,4.74,5.18v10.65c0,3.12-1.56,5.18-4.74,5.18
		c-3.15,0-4.71-2.06-4.71-5.18V729.53z M1629.92,740.3c0,1.88,0.79,2.97,2.44,2.97c1.68,0,2.44-1.09,2.44-2.97v-10.89
		c0-1.86-0.76-2.97-2.44-2.97c-1.65,0-2.44,1.12-2.44,2.97V740.3z"/>
	<path class="st14" d="M1641.32,745.16h-2.06v-20.6h2.91l4.77,14.89v-14.89h2.03v20.6h-2.38l-5.27-16.66V745.16z"/>
	<path class="st14" d="M1543.54,764.86v1.77h-2.18v-1.88c0-1.86-0.74-2.97-2.41-2.97c-1.65,0-2.41,1.12-2.41,2.97v10.89
		c0,1.85,0.77,2.97,2.41,2.97c1.68,0,2.41-1.12,2.41-2.97v-4.12h-2.12v-2.06h4.3v6.06c0,3.12-1.47,5.18-4.65,5.18
		c-3.15,0-4.62-2.06-4.62-5.18v-10.65c0-3.12,1.47-5.18,4.62-5.18C1542.07,759.68,1543.54,761.73,1543.54,764.86z"/>
	<path class="st14" d="M1553.05,769.01v2.06h-5.03v7.33h6.18v2.09h-8.48v-20.6h8.48v2.09h-6.18v7.04H1553.05z"/>
	<path class="st14" d="M1558.35,780.48h-2.06v-20.6h2.91l4.77,14.89v-14.89h2.03v20.6h-2.38l-5.27-16.66V780.48z"/>
	<path class="st14" d="M1575.69,769.01v2.06h-5.03v7.33h6.18v2.09h-8.48v-20.6h8.48v2.09h-6.18v7.04H1575.69z"/>
	<path class="st14" d="M1583.55,759.88c3.24,0,4.59,1.65,4.59,4.71v1.68c0,2.27-0.79,3.68-2.56,4.24c1.88,0.56,2.59,2.09,2.59,4.3
		v3.21c0,0.91,0.03,1.77,0.41,2.47h-2.33c-0.27-0.59-0.38-1.12-0.38-2.5v-3.24c0-2.33-1.09-3.06-3-3.06h-1.62v8.8h-2.3v-20.6
		H1583.55z M1582.96,769.59c1.83,0,2.91-0.59,2.91-2.83v-1.97c0-1.86-0.68-2.83-2.38-2.83h-2.24v7.62H1582.96z"/>
	<path class="st14" d="M1592.89,776.33l-0.79,4.15h-2.12l3.94-20.6h3.33l3.94,20.6h-2.3l-0.79-4.15H1592.89z M1593.18,774.36h4.59
		l-2.33-11.89L1593.18,774.36z"/>
	<path class="st14" d="M1602.99,780.48v-20.6h2.3v18.51h5.89v2.09H1602.99z"/>
	<path class="st14" d="M1622.3,759.88c3.21,0,4.68,1.94,4.68,5.12v10.39c0,3.15-1.47,5.09-4.68,5.09h-4.83v-20.6H1622.3z
		 M1622.27,778.39c1.65,0,2.44-1.03,2.44-2.91v-10.6c0-1.88-0.79-2.91-2.47-2.91h-2.47v16.42H1622.27z"/>
	<path class="st14" d="M1636.46,769.01v2.06h-5.03v7.33h6.18v2.09h-8.48v-20.6h8.48v2.09h-6.18v7.04H1636.46z"/>
	<path class="st14" d="M1644.29,780.48v-20.6h2.3v18.51h5.89v2.09H1644.29z"/>
	<path class="st14" d="M1654.03,764.86c0-3.15,1.56-5.18,4.71-5.18c3.18,0,4.74,2.03,4.74,5.18v10.65c0,3.12-1.56,5.18-4.74,5.18
		c-3.15,0-4.71-2.06-4.71-5.18V764.86z M1656.3,775.63c0,1.88,0.79,2.97,2.44,2.97c1.68,0,2.44-1.09,2.44-2.97v-10.89
		c0-1.86-0.76-2.97-2.44-2.97c-1.65,0-2.44,1.12-2.44,2.97V775.63z"/>
	<path class="st14" d="M1674.58,764.83v0.56h-2.18v-0.68c0-1.86-0.71-2.94-2.35-2.94s-2.35,1.09-2.35,2.91
		c0,4.62,6.92,5.06,6.92,10.86c0,3.12-1.5,5.15-4.65,5.15s-4.62-2.03-4.62-5.15v-1.18h2.15v1.29c0,1.85,0.76,2.94,2.41,2.94
		s2.41-1.09,2.41-2.94c0-4.59-6.89-5.03-6.89-10.83c0-3.18,1.47-5.15,4.56-5.15C1673.11,759.68,1674.58,761.71,1674.58,764.83z"/>
	<path class="st14" d="M1539.04,795.21c3.24,0,4.59,1.65,4.59,4.71v1.68c0,2.27-0.79,3.68-2.56,4.24c1.88,0.56,2.59,2.09,2.59,4.3
		v3.21c0,0.91,0.03,1.77,0.41,2.47h-2.33c-0.26-0.59-0.38-1.12-0.38-2.5v-3.24c0-2.33-1.09-3.06-3-3.06h-1.62v8.8h-2.3v-20.6
		H1539.04z M1538.45,804.92c1.82,0,2.91-0.59,2.91-2.83v-1.97c0-1.85-0.68-2.82-2.38-2.82h-2.24v7.62H1538.45z"/>
	<path class="st14" d="M1553.38,804.33v2.06h-5.03v7.33h6.18v2.09h-8.48v-20.6h8.48v2.09h-6.18v7.03H1553.38z"/>
	<path class="st14" d="M1565.56,800.15v0.56h-2.18v-0.68c0-1.85-0.71-2.94-2.35-2.94s-2.35,1.09-2.35,2.91
		c0,4.62,6.92,5.06,6.92,10.86c0,3.12-1.5,5.15-4.65,5.15s-4.62-2.03-4.62-5.15v-1.18h2.15v1.29c0,1.86,0.76,2.94,2.41,2.94
		s2.41-1.09,2.41-2.94c0-4.59-6.89-5.03-6.89-10.83c0-3.18,1.47-5.15,4.56-5.15C1564.09,795,1565.56,797.04,1565.56,800.15z"/>
	<path class="st14" d="M1570.57,815.81V797.3h-3.8v-2.09h9.86v2.09h-3.8v18.51H1570.57z"/>
	<path class="st14" d="M1579.4,811.66l-0.79,4.15h-2.12l3.94-20.6h3.33l3.94,20.6h-2.3l-0.79-4.15H1579.4z M1579.7,809.69h4.59
		l-2.33-11.89L1579.7,809.69z"/>
	<path class="st14" d="M1591.68,810.96c0,1.86,0.74,2.97,2.41,2.97c1.65,0,2.38-1.12,2.38-2.97v-15.75h2.15v15.63
		c0,3.12-1.44,5.21-4.62,5.21c-3.15,0-4.59-2.09-4.59-5.21v-15.63h2.27V810.96z"/>
	<path class="st14" d="M1605.49,795.21c3.24,0,4.59,1.65,4.59,4.71v1.68c0,2.27-0.79,3.68-2.56,4.24c1.88,0.56,2.59,2.09,2.59,4.3
		v3.21c0,0.91,0.03,1.77,0.41,2.47h-2.33c-0.26-0.59-0.38-1.12-0.38-2.5v-3.24c0-2.33-1.09-3.06-3-3.06h-1.62v8.8h-2.3v-20.6
		H1605.49z M1604.9,804.92c1.82,0,2.91-0.59,2.91-2.83v-1.97c0-1.85-0.68-2.82-2.38-2.82h-2.24v7.62H1604.9z"/>
	<path class="st14" d="M1614.82,811.66l-0.79,4.15h-2.12l3.94-20.6h3.33l3.94,20.6h-2.3l-0.79-4.15H1614.82z M1615.11,809.69h4.59
		l-2.33-11.89L1615.11,809.69z"/>
	<path class="st14" d="M1626.95,815.81h-2.06v-20.6h2.91l4.77,14.89v-14.89h2.03v20.6h-2.38l-5.27-16.66V815.81z"/>
	<path class="st14" d="M1639.93,815.81V797.3h-3.8v-2.09h9.86v2.09h-3.8v18.51H1639.93z"/>
	<path class="st14" d="M1654.89,804.33v2.06h-5.03v7.33h6.18v2.09h-8.48v-20.6h8.48v2.09h-6.18v7.03H1654.89z"/>
	<path class="st14" d="M1667.07,800.15v0.56h-2.18v-0.68c0-1.85-0.71-2.94-2.35-2.94s-2.35,1.09-2.35,2.91
		c0,4.62,6.92,5.06,6.92,10.86c0,3.12-1.5,5.15-4.65,5.15s-4.62-2.03-4.62-5.15v-1.18h2.15v1.29c0,1.86,0.76,2.94,2.41,2.94
		s2.41-1.09,2.41-2.94c0-4.59-6.89-5.03-6.89-10.83c0-3.18,1.47-5.15,4.56-5.15C1665.6,795,1667.07,797.04,1667.07,800.15z"/>
</g>
</svg>
