<svg xmlns="http://www.w3.org/2000/svg" xmlns:xlink="http://www.w3.org/1999/xlink" viewBox="0 0 1920 1080"><defs><clipPath id="clip-path"><path d="M1318.22-595.08c-.67,5.64-29.68,3.16-29.68,3.16s.83,5.43-10.92,5.43-27.82-3.62-27.82-3.62-3,5.07-15.45,5.77c-16.08.91-37.71-5.31-37.71-5.31s-11.13,6.22-37.5,6.22-37.51-6.22-37.51-6.22-21.64,6.22-37.71,5.31c-12.5-.7-15.45-5.77-15.45-5.77s-16.07,3.62-27.82,3.62-10.92-5.43-10.92-5.43-29,2.48-29.68-3.16c-.72-6,4.67-55.7,4.67-55.7V-652c0-2.49,7.38-4.52,16.49-4.52h275.85c9.1,0,16.48,2,16.48,4.52v1.21s5.4,49.65,4.68,55.7m-2.72-14.85c-.6,4.08-15,4-23.26,3.56-2.78-17.12-7.59-44.73-9.66-44.73-1.75,0,1.19,30.64,2.91,47.22-1.25,1.37-3.9,2.72-9.53,2.72a119.79,119.79,0,0,1-20.48-2.35c-3.31-17.94-9.11-47.59-11.25-47.59-1.81,0,1.42,30.47,3.38,47.61-1.74,1.59-5.68,4-13.82,4.53-9.57.57-21.12-1.59-28.69-3.36-3.56-18.29-9.73-48.78-11.28-48.78-2.28,0,.3,30,2,47.29-3.32,1.54-14.28,5.78-35.33,5.78s-32-4.24-35.32-5.78c1.68-17.33,4.27-47.29,2-47.29-1.54,0-7.71,30.49-11.27,48.78-7.58,1.77-19.13,3.93-28.69,3.36-8.14-.48-12.08-2.94-13.83-4.53,2-17.14,5.2-47.61,3.39-47.61-2.15,0-7.94,29.65-11.25,47.59a119.91,119.91,0,0,1-20.48,2.35c-5.63,0-8.28-1.35-9.54-2.72,1.73-16.58,4.66-47.22,2.91-47.22-2.06,0-6.87,27.61-9.66,44.73-8.23.4-22.66.52-23.25-3.56a39.24,39.24,0,0,0,0,4.9c.45,4,14.09,4,22.47,3.65-.79,5-1.29,8.3-1.29,8.3l7.73-.44s.27-2.34.66-6c1,1.55,3.47,3.35,10,3.35a116.92,116.92,0,0,0,19.54-2.17c-.9,5-1.47,8.26-1.47,8.26l8.94-2s.33-2.69.82-6.9c1.43,1.52,5.34,4.49,14.34,5s20.12-1.41,27.69-3.12c-1,5-1.58,8.28-1.58,8.28l10.64-2.95s.31-2.84.75-7.28c2.75,1.35,13.79,6,35.8,6s33.06-4.65,35.8-6c.44,4.44.75,7.28.75,7.28l10.65,2.95s-.61-3.27-1.58-8.28c7.57,1.71,18.54,3.66,27.69,3.12s12.91-3.5,14.33-5c.5,4.21.83,6.9.83,6.9l8.93,2s-.56-3.27-1.47-8.26a116.92,116.92,0,0,0,19.55,2.17c6.51,0,9-1.8,10-3.35.39,3.7.65,6,.65,6l7.74.44s-.5-3.3-1.3-8.3c8.39.37,22,.35,22.48-3.65a37.33,37.33,0,0,0,0-4.9" fill="#d33527" clip-rule="evenodd"/></clipPath><clipPath id="clip-path-2"><path d="M1466.71,666.49c-.68,5.64-29.68,3.16-29.68,3.16s.82,5.43-10.92,5.43-27.82-3.62-27.82-3.62-3,5.07-15.46,5.77c-16.07.91-37.71-5.31-37.71-5.31s-11.12,6.22-37.5,6.22-37.5-6.22-37.5-6.22-21.64,6.22-37.72,5.31c-12.5-.7-15.45-5.77-15.45-5.77s-16.07,3.62-27.81,3.62-10.93-5.43-10.93-5.43-29,2.48-29.67-3.16c-.73-6,4.67-55.7,4.67-55.7v-1.21c0-2.49,7.38-4.52,16.49-4.52h275.85c9.1,0,16.48,2,16.48,4.52v1.21s5.39,49.65,4.68,55.7M1464,651.64c-.59,4.08-15,4-23.26,3.56-2.78-17.12-7.58-44.73-9.65-44.73-1.76,0,1.19,30.64,2.91,47.22-1.26,1.37-3.91,2.72-9.54,2.72a120,120,0,0,1-20.48-2.35c-3.31-17.94-9.1-47.59-11.25-47.59-1.8,0,1.43,30.47,3.38,47.61-1.74,1.59-5.67,4-13.82,4.53-9.56.57-21.11-1.59-28.68-3.36-3.57-18.29-9.74-48.78-11.28-48.78-2.29,0,.3,30,2,47.29-3.33,1.54-14.28,5.78-35.33,5.78s-32-4.24-35.33-5.78c1.69-17.33,4.28-47.29,2-47.29-1.54,0-7.71,30.49-11.28,48.78-7.57,1.77-19.13,3.93-28.69,3.36-8.14-.48-12.07-2.94-13.82-4.53,2-17.14,5.19-47.61,3.38-47.61-2.15,0-7.94,29.65-11.24,47.59a120,120,0,0,1-20.49,2.35c-5.63,0-8.28-1.35-9.53-2.72,1.72-16.58,4.66-47.22,2.9-47.22-2.06,0-6.86,27.61-9.65,44.73-8.23.4-22.67.52-23.26-3.56a39.24,39.24,0,0,0,0,4.9c.45,4,14.1,4,22.48,3.65-.8,5-1.3,8.3-1.3,8.3l7.74-.44s.26-2.34.65-6c1,1.55,3.48,3.35,10,3.35a116.68,116.68,0,0,0,19.54-2.17c-.9,5-1.47,8.26-1.47,8.26l8.94-2s.33-2.69.82-6.9c1.44,1.52,5.34,4.49,14.34,5s20.12-1.41,27.69-3.12c-1,5-1.58,8.28-1.58,8.28l10.64-3s.31-2.84.76-7.28c2.74,1.35,13.79,6,35.8,6s33-4.65,35.79-6c.45,4.44.76,7.28.76,7.28l10.64,3s-.61-3.27-1.57-8.28c7.57,1.71,18.53,3.66,27.68,3.12s12.91-3.5,14.34-5c.49,4.21.82,6.9.82,6.9l8.94,2s-.56-3.27-1.47-8.26a116.68,116.68,0,0,0,19.54,2.17c6.51,0,9-1.8,10-3.35.39,3.7.65,6,.65,6l7.73.44s-.5-3.3-1.3-8.3c8.39.37,22,.35,22.49-3.65a37.87,37.87,0,0,0,0-4.9" fill="#d33527" clip-rule="evenodd"/></clipPath><clipPath id="clip-path-3"><rect x="1010.06" y="456.74" width="4152.23" height="2952.7" fill="#d33527"/></clipPath><radialGradient id="_ÂÁ_Ï_ÌÌ_È_ËÂÌÚ_6" cx="-17415.11" cy="-1302990.63" r="253.68" gradientTransform="matrix(0, -1.91, 0.35, 0, 453011.64, -32632.27)" gradientUnits="userSpaceOnUse"><stop offset="0.09"/><stop offset="0.18" stop-color="#393939"/><stop offset="0.28" stop-color="#6d6d6d"/><stop offset="0.38" stop-color="#9a9a9a"/><stop offset="0.48" stop-color="#bebebe"/><stop offset="0.58" stop-color="#dbdbdb"/><stop offset="0.67" stop-color="#efefef"/><stop offset="0.77" stop-color="#fbfbfb"/><stop offset="0.87" stop-color="#fff"/></radialGradient></defs><title>slide</title><g style="isolation:isolate"><g id="Layer_1" data-name="Layer 1"><path d="M1318.22-595.08c-.67,5.64-29.68,3.16-29.68,3.16s.83,5.43-10.92,5.43-27.82-3.62-27.82-3.62-3,5.07-15.45,5.77c-16.08.91-37.71-5.31-37.71-5.31s-11.13,6.22-37.5,6.22-37.51-6.22-37.51-6.22-21.64,6.22-37.71,5.31c-12.5-.7-15.45-5.77-15.45-5.77s-16.07,3.62-27.82,3.62-10.92-5.43-10.92-5.43-29,2.48-29.68-3.16c-.72-6,4.67-55.7,4.67-55.7V-652c0-2.49,7.38-4.52,16.49-4.52h275.85c9.1,0,16.48,2,16.48,4.52v1.21s5.4,49.65,4.68,55.7m-2.72-14.85c-.6,4.08-15,4-23.26,3.56-2.78-17.12-7.59-44.73-9.66-44.73-1.75,0,1.19,30.64,2.91,47.22-1.25,1.37-3.9,2.72-9.53,2.72a119.79,119.79,0,0,1-20.48-2.35c-3.31-17.94-9.11-47.59-11.25-47.59-1.81,0,1.42,30.47,3.38,47.61-1.74,1.59-5.68,4-13.82,4.53-9.57.57-21.12-1.59-28.69-3.36-3.56-18.29-9.73-48.78-11.28-48.78-2.28,0,.3,30,2,47.29-3.32,1.54-14.28,5.78-35.33,5.78s-32-4.24-35.32-5.78c1.68-17.33,4.27-47.29,2-47.29-1.54,0-7.71,30.49-11.27,48.78-7.58,1.77-19.13,3.93-28.69,3.36-8.14-.48-12.08-2.94-13.83-4.53,2-17.14,5.2-47.61,3.39-47.61-2.15,0-7.94,29.65-11.25,47.59a119.91,119.91,0,0,1-20.48,2.35c-5.63,0-8.28-1.35-9.54-2.72,1.73-16.58,4.66-47.22,2.91-47.22-2.06,0-6.87,27.61-9.66,44.73-8.23.4-22.66.52-23.25-3.56a39.24,39.24,0,0,0,0,4.9c.45,4,14.09,4,22.47,3.65-.79,5-1.29,8.3-1.29,8.3l7.73-.44s.27-2.34.66-6c1,1.55,3.47,3.35,10,3.35a116.92,116.92,0,0,0,19.54-2.17c-.9,5-1.47,8.26-1.47,8.26l8.94-2s.33-2.69.82-6.9c1.43,1.52,5.34,4.49,14.34,5s20.12-1.41,27.69-3.12c-1,5-1.58,8.28-1.58,8.28l10.64-2.95s.31-2.84.75-7.28c2.75,1.35,13.79,6,35.8,6s33.06-4.65,35.8-6c.44,4.44.75,7.28.75,7.28l10.65,2.95s-.61-3.27-1.58-8.28c7.57,1.71,18.54,3.66,27.69,3.12s12.91-3.5,14.33-5c.5,4.21.83,6.9.83,6.9l8.93,2s-.56-3.27-1.47-8.26a116.92,116.92,0,0,0,19.55,2.17c6.51,0,9-1.8,10-3.35.39,3.7.65,6,.65,6l7.74.44s-.5-3.3-1.3-8.3c8.39.37,22,.35,22.48-3.65a37.33,37.33,0,0,0,0-4.9" fill="#d33527" fill-rule="evenodd"/><g clip-path="url(#clip-path)"><rect x="861.58" y="-804.83" width="4152.23" height="2952.7" fill="#d33527"/></g><path d="M265.51,384.21,321.08,412l-60,116.44q43.57,0,74.1,31.22t30.52,77.59q0,44.75-31.34,75.85t-75.61,31.11q-46.37,0-77.24-32.28t-30.88-74A111.46,111.46,0,0,1,155.41,606q4.77-16.08,22-49.4Zm-8.16,206a40.2,40.2,0,0,0-30.52,13.16q-12.36,13.17-12.35,33t12.93,33.32q12.93,13.51,30.18,13.52,18.17,0,31.22-13.28t13.05-33.56q0-19.8-12.7-33T257.35,590.2Z" fill="#d33527"/><text transform="translate(1146.62 528.77)" font-size="67.75" fill="#d33527" font-family="BebasNeueBold, Bebas Neue">Herramien<tspan x="239.27" y="0" letter-spacing="-0.04em">t</tspan><tspan x="260.81" y="0">as</tspan><tspan x="27.91" y="60.86">QUE USAMOS</tspan></text><path d="M1466.71,666.49c-.68,5.64-29.68,3.16-29.68,3.16s.82,5.43-10.92,5.43-27.82-3.62-27.82-3.62-3,5.07-15.46,5.77c-16.07.91-37.71-5.31-37.71-5.31s-11.12,6.22-37.5,6.22-37.5-6.22-37.5-6.22-21.64,6.22-37.72,5.31c-12.5-.7-15.45-5.77-15.45-5.77s-16.07,3.62-27.81,3.62-10.93-5.43-10.93-5.43-29,2.48-29.67-3.16c-.73-6,4.67-55.7,4.67-55.7v-1.21c0-2.49,7.38-4.52,16.49-4.52h275.85c9.1,0,16.48,2,16.48,4.52v1.21s5.39,49.65,4.68,55.7M1464,651.64c-.59,4.08-15,4-23.26,3.56-2.78-17.12-7.58-44.73-9.65-44.73-1.76,0,1.19,30.64,2.91,47.22-1.26,1.37-3.91,2.72-9.54,2.72a120,120,0,0,1-20.48-2.35c-3.31-17.94-9.1-47.59-11.25-47.59-1.8,0,1.43,30.47,3.38,47.61-1.74,1.59-5.67,4-13.82,4.53-9.56.57-21.11-1.59-28.68-3.36-3.57-18.29-9.74-48.78-11.28-48.78-2.29,0,.3,30,2,47.29-3.33,1.54-14.28,5.78-35.33,5.78s-32-4.24-35.33-5.78c1.69-17.33,4.28-47.29,2-47.29-1.54,0-7.71,30.49-11.28,48.78-7.57,1.77-19.13,3.93-28.69,3.36-8.14-.48-12.07-2.94-13.82-4.53,2-17.14,5.19-47.61,3.38-47.61-2.15,0-7.94,29.65-11.24,47.59a120,120,0,0,1-20.49,2.35c-5.63,0-8.28-1.35-9.53-2.72,1.72-16.58,4.66-47.22,2.9-47.22-2.06,0-6.86,27.61-9.65,44.73-8.23.4-22.67.52-23.26-3.56a39.24,39.24,0,0,0,0,4.9c.45,4,14.1,4,22.48,3.65-.8,5-1.3,8.3-1.3,8.3l7.74-.44s.26-2.34.65-6c1,1.55,3.48,3.35,10,3.35a116.68,116.68,0,0,0,19.54-2.17c-.9,5-1.47,8.26-1.47,8.26l8.94-2s.33-2.69.82-6.9c1.44,1.52,5.34,4.49,14.34,5s20.12-1.41,27.69-3.12c-1,5-1.58,8.28-1.58,8.28l10.64-3s.31-2.84.76-7.28c2.74,1.35,13.79,6,35.8,6s33-4.65,35.79-6c.45,4.44.76,7.28.76,7.28l10.64,3s-.61-3.27-1.57-8.28c7.57,1.71,18.53,3.66,27.68,3.12s12.91-3.5,14.34-5c.49,4.21.82,6.9.82,6.9l8.94,2s-.56-3.27-1.47-8.26a116.68,116.68,0,0,0,19.54,2.17c6.51,0,9-1.8,10-3.35.39,3.7.65,6,.65,6l7.73.44s-.5-3.3-1.3-8.3c8.39.37,22,.35,22.49-3.65a37.87,37.87,0,0,0,0-4.9" fill="#d33527" fill-rule="evenodd"/><g clip-path="url(#clip-path-2)"><rect x="1010.06" y="456.74" width="4152.23" height="2952.7" fill="#d33527"/><g clip-path="url(#clip-path-3)"><rect x="1134.05" y="590.64" width="347.14" height="101.91" fill="#d33527"/></g></g><path d="M405.55,328.61a228.32,228.32,0,0,0-98.49,22.2V764.62a228.18,228.18,0,0,0,98.49,22.2c126.53,0,229.1-102.57,229.1-229.1S532.08,328.61,405.55,328.61Z" fill="#d33527"/><path d="M307.06,191.19V925.78s-67.89-114.21-67.89-367.29C239.17,312.47,307.06,191.19,307.06,191.19Z" fill="url(#_ÂÁ_Ï_ÌÌ_È_ËÂÌÚ_6)" style="mix-blend-mode:multiply"/><text transform="translate(368.7 605.75)" font-size="33.47" fill="#fff" font-family="Bebas"><tspan letter-spacing="0.02em">T</tspan><tspan x="17.64" y="0">e</tspan><tspan x="33.52" y="0" letter-spacing="0.02em">c</tspan><tspan x="51.45" y="0" letter-spacing="0.03em">n</tspan><tspan x="70.89" y="0" letter-spacing="0.03em">o</tspan><tspan x="89.11" y="0">l</tspan><tspan x="104.44" y="0" letter-spacing="0.02em">o</tspan><tspan x="122.56" y="0" letter-spacing="0.02em">g</tspan><tspan x="140.7" y="0" letter-spacing="0.02em">i</tspan><tspan x="148.94" y="0" letter-spacing="-0.02em">a</tspan><tspan x="167.61" y="0">s</tspan></text><path d="M448.65,555.24a4.53,4.53,0,0,1-4.53-4.53v-3.39a1.66,1.66,0,0,0-1-1.54,1.86,1.86,0,0,0-.68-.13,1.65,1.65,0,0,0-1.17.48l-2.39,2.4a4.54,4.54,0,0,1-3.21,1.32,4.47,4.47,0,0,1-3.2-1.33l-3.11-3.1a4.55,4.55,0,0,1,0-6.41l2.26-2.26a1.64,1.64,0,0,0,.35-1.84l-.08-.18a1.64,1.64,0,0,0-1.52-1h-3.2a4.54,4.54,0,0,1-4.53-4.53v-4.39a4.54,4.54,0,0,1,4.53-4.53h2.93a1.66,1.66,0,0,0,1.54-1c0-.14.1-.27.16-.4a1.64,1.64,0,0,0-.37-1.78L429.32,515a4.55,4.55,0,0,1,0-6.41l3.11-3.11a4.55,4.55,0,0,1,6.41,0l1.93,1.94a1.68,1.68,0,0,0,1.18.49,1.52,1.52,0,0,0,.63-.14l.54-.22a1.65,1.65,0,0,0,1-1.53V503.3a4.54,4.54,0,0,1,4.53-4.54H453a4.54,4.54,0,0,1,4.53,4.54V506a1.63,1.63,0,0,0,1,1.53l.54.22a1.52,1.52,0,0,0,.63.14,1.65,1.65,0,0,0,1.18-.5l1.93-1.93a4.55,4.55,0,0,1,6.41,0l3.1,3.11a4.53,4.53,0,0,1,0,6.41l-2.06,2.06a1.64,1.64,0,0,0-.37,1.78l.15.39a1.67,1.67,0,0,0,1.55,1h2.92a4.53,4.53,0,0,1,4.53,4.53v4.39a4.53,4.53,0,0,1-4.53,4.53h-3.19a1.63,1.63,0,0,0-1.52,1l-.08.18a1.66,1.66,0,0,0,.34,1.84l2.26,2.26a4.53,4.53,0,0,1,0,6.41l-3.1,3.11a4.54,4.54,0,0,1-6.41,0l-2.4-2.39a1.66,1.66,0,0,0-1.17-.49,1.58,1.58,0,0,0-.63.13,1.65,1.65,0,0,0-1.08,1.55v3.39a4.53,4.53,0,0,1-4.53,4.53Zm-6.25-12.46a4.43,4.43,0,0,1,1.72.34,4.53,4.53,0,0,1,2.86,4.2v3.39a1.67,1.67,0,0,0,1.67,1.67H453a1.67,1.67,0,0,0,1.67-1.67v-3.39a4.51,4.51,0,0,1,2.83-4.19,4.59,4.59,0,0,1,1.75-.35,4.45,4.45,0,0,1,3.19,1.33l2.4,2.39a1.62,1.62,0,0,0,1.18.49,1.66,1.66,0,0,0,1.17-.49l3.11-3.1a1.67,1.67,0,0,0,0-2.36l-2.26-2.27a4.49,4.49,0,0,1-.95-5l.07-.16a4.51,4.51,0,0,1,4.16-2.73h3.19a1.67,1.67,0,0,0,1.67-1.67v-4.39a1.67,1.67,0,0,0-1.67-1.67h-2.92a4.54,4.54,0,0,1-4.22-2.87l-.13-.35a4.46,4.46,0,0,1,1-4.88l2.06-2.07a1.67,1.67,0,0,0,0-2.36l-3.11-3.1a1.65,1.65,0,0,0-2.35,0l-1.94,1.93a4.58,4.58,0,0,1-3.21,1.33,4.49,4.49,0,0,1-1.77-.37l-.46-.2a4.46,4.46,0,0,1-2.79-4.18V503.3a1.67,1.67,0,0,0-1.67-1.67h-4.39A1.67,1.67,0,0,0,447,503.3V506a4.47,4.47,0,0,1-2.79,4.18l-.46.2a4.5,4.5,0,0,1-1.78.37,4.61,4.61,0,0,1-3.21-1.33l-1.93-1.93a1.62,1.62,0,0,0-1.18-.49,1.66,1.66,0,0,0-1.18.49l-3.1,3.1a1.67,1.67,0,0,0,0,2.36l2.06,2.07a4.48,4.48,0,0,1,1,4.88l-.14.35a4.53,4.53,0,0,1-4.21,2.87h-2.93a1.66,1.66,0,0,0-1.66,1.67v4.39a1.66,1.66,0,0,0,1.66,1.67h3.2a4.51,4.51,0,0,1,4.16,2.73l.07.17a4.51,4.51,0,0,1-.95,5L431.35,541a1.62,1.62,0,0,0-.49,1.18,1.66,1.66,0,0,0,.49,1.18l3.1,3.1a1.7,1.7,0,0,0,1.18.49,1.66,1.66,0,0,0,1.18-.49l2.4-2.39A4.46,4.46,0,0,1,442.4,542.78Z" fill="#fff"/><path d="M459.81,540a4.29,4.29,0,1,1,0-8.58,4.39,4.39,0,0,1,1.43.25,11.6,11.6,0,0,0-10.46-16.6,1.43,1.43,0,0,1,0-2.86,14.45,14.45,0,0,1,12.75,21.26v0a4.29,4.29,0,0,1-3.69,6.5Zm0-5.73a1.44,1.44,0,0,0,0,2.87,1.46,1.46,0,0,0,1-.42,1.42,1.42,0,0,0,.42-1,1.43,1.43,0,0,0-1.44-1.44Z" fill="#fff"/><path d="M450.76,541.09A14.45,14.45,0,0,1,438,519.83a4.31,4.31,0,0,1,.51-5.44,4.3,4.3,0,1,1,3,7.34,4.17,4.17,0,0,1-1.21-.18,11.59,11.59,0,0,0,10.41,16.68,1.43,1.43,0,1,1,0,2.86ZM441.56,516a1.43,1.43,0,1,0,1,.42A1.43,1.43,0,0,0,441.56,516Z" fill="#fff"/></g></g></svg>