<svg xmlns="http://www.w3.org/2000/svg" xmlns:xlink="http://www.w3.org/1999/xlink" viewBox="0 0 1920 1080"><defs><radialGradient id="_ÂÁ_Ï_ÌÌ_È_ËÂÌÚ_6" cx="-16756.96" cy="-1301807.89" r="253.68" gradientTransform="matrix(0, -1.91, 0.35, 0, 452582.28, -31396.42)" gradientUnits="userSpaceOnUse"><stop offset="0.09"/><stop offset="0.18" stop-color="#393939"/><stop offset="0.28" stop-color="#6d6d6d"/><stop offset="0.38" stop-color="#9a9a9a"/><stop offset="0.48" stop-color="#bebebe"/><stop offset="0.58" stop-color="#dbdbdb"/><stop offset="0.67" stop-color="#efefef"/><stop offset="0.77" stop-color="#fbfbfb"/><stop offset="0.87" stop-color="#fff"/></radialGradient><clipPath id="clip-path"><path d="M1318.22,640.77c-.67,5.64-29.68,3.17-29.68,3.17s.83,5.42-10.92,5.42-27.82-3.62-27.82-3.62-3,5.07-15.45,5.77c-16.08.91-37.71-5.31-37.71-5.31s-11.13,6.22-37.5,6.22-37.51-6.22-37.51-6.22-21.64,6.22-37.71,5.31c-12.5-.7-15.45-5.77-15.45-5.77s-16.07,3.62-27.82,3.62-10.92-5.42-10.92-5.42-29,2.47-29.68-3.17c-.72-6,4.67-55.7,4.67-55.7v-1.21c0-2.49,7.38-4.52,16.49-4.52h275.85c9.1,0,16.48,2,16.48,4.52v1.21s5.4,49.65,4.68,55.7m-2.72-14.85c-.6,4.08-15,4-23.26,3.56-2.78-17.12-7.59-44.72-9.66-44.72-1.75,0,1.19,30.63,2.91,47.21-1.25,1.37-3.9,2.72-9.53,2.72a119.79,119.79,0,0,1-20.48-2.35c-3.31-17.94-9.11-47.58-11.25-47.58-1.81,0,1.42,30.46,3.38,47.6-1.74,1.59-5.68,4-13.82,4.53-9.57.57-21.12-1.59-28.69-3.35-3.56-18.3-9.73-48.78-11.28-48.78-2.28,0,.3,30,2,47.28-3.32,1.55-14.28,5.78-35.33,5.78s-32-4.23-35.32-5.78c1.68-17.33,4.27-47.28,2-47.28-1.54,0-7.71,30.48-11.27,48.78-7.58,1.76-19.13,3.92-28.69,3.35-8.14-.48-12.08-2.94-13.83-4.53,2-17.14,5.2-47.6,3.39-47.6-2.15,0-7.94,29.64-11.25,47.58a119.91,119.91,0,0,1-20.48,2.35c-5.63,0-8.28-1.35-9.54-2.72,1.73-16.58,4.66-47.21,2.91-47.21-2.06,0-6.87,27.6-9.66,44.72-8.23.4-22.66.52-23.25-3.56a39.24,39.24,0,0,0,0,4.9c.45,4,14.09,4,22.47,3.65-.79,5-1.29,8.3-1.29,8.3l7.73-.44s.27-2.34.66-6c1,1.55,3.47,3.35,10,3.35a116.92,116.92,0,0,0,19.54-2.17c-.9,5-1.47,8.26-1.47,8.26l8.94-2s.33-2.69.82-6.91c1.43,1.52,5.34,4.49,14.34,5s20.12-1.41,27.69-3.12c-1,5-1.58,8.28-1.58,8.28l10.64-3s.31-2.84.75-7.28c2.75,1.35,13.79,6,35.8,6s33.06-4.65,35.8-6c.44,4.44.75,7.28.75,7.28l10.65,3s-.61-3.27-1.58-8.28c7.57,1.71,18.54,3.66,27.69,3.12s12.91-3.5,14.33-5c.5,4.22.83,6.91.83,6.91l8.93,2s-.56-3.27-1.47-8.26a116.92,116.92,0,0,0,19.55,2.17c6.51,0,9-1.8,10-3.35.39,3.7.65,6,.65,6l7.74.44s-.5-3.3-1.3-8.3c8.39.37,22,.35,22.48-3.65a37.33,37.33,0,0,0,0-4.9" fill="#d33527" clip-rule="evenodd"/></clipPath><clipPath id="clip-path-2"><rect x="861.58" y="431.02" width="4152.23" height="2952.7" fill="#d33527"/></clipPath></defs><title>slide</title><g style="isolation:isolate"><g id="Layer_1" data-name="Layer 1"><path d="M203.13,374.39H357.88v58.18H250.07l-13.47,60a86.74,86.74,0,0,1,11-2.36,70.92,70.92,0,0,1,10.33-.79q44.93,0,74.69,30.66t29.76,78.5q0,48.3-32.91,81.42T249.4,713.1q-42.22,0-72.55-24T137.1,623.26h66q7.63,15.5,20.1,23.47a50.07,50.07,0,0,0,27.52,8,47.55,47.55,0,0,0,35.48-15.05q14.61-15,14.6-38.63,0-22.9-13.58-37.62t-32.91-14.71A43.86,43.86,0,0,0,234,553.85q-10,5.17-19.65,15.5L163.15,557.9Z" fill="#d33527"/><path d="M387.1,310.12a228.19,228.19,0,0,0-98.49,22.21v413.8a228.18,228.18,0,0,0,98.49,22.2c126.53,0,229.1-102.57,229.1-229.1S513.63,310.12,387.1,310.12Z" fill="#d33527"/><path d="M288.61,172.71V907.29S220.72,793.08,220.72,540C220.72,294,288.61,172.71,288.61,172.71Z" fill="url(#_ÂÁ_Ï_ÌÌ_È_ËÂÌÚ_6)" style="mix-blend-mode:multiply"/><text transform="translate(359.11 569.26)" font-size="33.47" fill="#fff" font-family="Bebas"><tspan letter-spacing="0.03em">M</tspan><tspan x="24.87" y="0">ET</tspan><tspan x="57.87" y="0" letter-spacing="0.03em">O</tspan><tspan x="76.05" y="0" letter-spacing="0.02em">D</tspan><tspan x="94.05" y="0" letter-spacing="0.03em">O</tspan><tspan x="112.26" y="0">L</tspan><tspan x="127.6" y="0" letter-spacing="0.02em">O</tspan><tspan x="145.71" y="0" letter-spacing="0.02em">G</tspan><tspan x="163.85" y="0" letter-spacing="0.02em">I</tspan><tspan x="172.1" y="0" letter-spacing="-0.02em">A</tspan><tspan x="190.76" y="0" letter-spacing="0em">S</tspan></text><text transform="translate(359.11 610.68)" font-size="33.47" fill="#fff" font-family="Bebas">A<tspan x="19.33" y="0" letter-spacing="0.02em">G</tspan><tspan x="37.47" y="0" letter-spacing="0.03em">I</tspan><tspan x="45.98" y="0" letter-spacing="0em">LES</tspan></text><text transform="translate(1714.52 994.77)" opacity="0.13" font-size="614.12" fill="#d33527" font-family="Bebas">!</text><text transform="translate(1674.77 506.72) rotate(-179.44)" opacity="0.13" font-size="614.12" fill="#d33527" font-family="Bebas">!</text><path d="M370.84,522.15a2,2,0,0,0,2,2h5.93a2,2,0,0,0,2-2V503.6c0-1.1-.64-1.36-1.41-.59l-7.1,7.1a5.58,5.58,0,0,0-1.42,3.42Z" fill="#fff"/><path d="M393,490.33c-.25-.25-1.09.18-1.87,1l-2,2a5.58,5.58,0,0,0-1.41,3.41v25.46a2,2,0,0,0,2,2h5.93a2,2,0,0,0,2-2V497a5.55,5.55,0,0,0-1.42-3.41l-1.36-1.36Z" fill="#fff"/><path d="M407.66,494.55l-2.1,2.09a5,5,0,0,0-1,3.05v22.46a2,2,0,0,0,2,2h5.92a2,2,0,0,0,2-2V489.76c0-1.1-.63-1.36-1.41-.58l-2.91,2.9Z" fill="#fff"/><path d="M422.77,479.44a5.53,5.53,0,0,0-1.42,3.41v39.3a2,2,0,0,0,2,2h5.93a2,2,0,0,0,2-2V472.92c0-1.1-.64-1.37-1.41-.59L427,475.24l-2.83,2.83Z" fill="#fff"/><path d="M434.45,447.11l-3.86,1L423.84,450c-1.06.28-1.36,1.09-.66,1.78L425.4,454c.52.52.31,1.59-.47,2.36l-2.16,2.17-2.83,2.83-4.08,4.08L413,468.23l-7.1,7.1c-.78.77-1.89,1.88-2.46,2.46a1.81,1.81,0,0,1-2.47-.36l-2-2-2.83-2.83-2.28-2.28a2,2,0,0,0-2.83,0l-2,2-2.82,2.82-4.09,4.09-2.82,2.83-7.1,7.09L369.43,492,361,500.48a2,2,0,0,0,0,2.82l3.46,3.46a2,2,0,0,0,2.83,0l2.2-2.2,2.83-2.83,7.09-7.09,2.83-2.83,4.09-4.08,2.82-2.83,2-2a2,2,0,0,1,2.83,0l2.28,2.28L399,488l2,2a1.81,1.81,0,0,0,2.47.36c.57-.58,1.68-1.69,2.46-2.46l7.1-7.1,2.83-2.83,4.08-4.09,2.83-2.83,7.1-7.1,2.09-2.08c.37-.37,1.31,0,2.08.74l2,2a1.06,1.06,0,0,0,1.93-.52l1.81-6.75c.29-1.06.75-2.8,1-3.86l1.81-6.74c.28-1.07-.35-1.7-1.42-1.42Z" fill="#fff"/><text transform="translate(1013.17 503.05)" font-size="67.75" fill="#d33527" font-family="BebasNeueBold, Bebas Neue">Metodologia<tspan x="12.87" y="60.86">QUE USAMOS</tspan></text><path d="M1318.22,640.77c-.67,5.64-29.68,3.17-29.68,3.17s.83,5.42-10.92,5.42-27.82-3.62-27.82-3.62-3,5.07-15.45,5.77c-16.08.91-37.71-5.31-37.71-5.31s-11.13,6.22-37.5,6.22-37.51-6.22-37.51-6.22-21.64,6.22-37.71,5.31c-12.5-.7-15.45-5.77-15.45-5.77s-16.07,3.62-27.82,3.62-10.92-5.42-10.92-5.42-29,2.47-29.68-3.17c-.72-6,4.67-55.7,4.67-55.7v-1.21c0-2.49,7.38-4.52,16.49-4.52h275.85c9.1,0,16.48,2,16.48,4.52v1.21s5.4,49.65,4.68,55.7m-2.72-14.85c-.6,4.08-15,4-23.26,3.56-2.78-17.12-7.59-44.72-9.66-44.72-1.75,0,1.19,30.63,2.91,47.21-1.25,1.37-3.9,2.72-9.53,2.72a119.79,119.79,0,0,1-20.48-2.35c-3.31-17.94-9.11-47.58-11.25-47.58-1.81,0,1.42,30.46,3.38,47.6-1.74,1.59-5.68,4-13.82,4.53-9.57.57-21.12-1.59-28.69-3.35-3.56-18.3-9.73-48.78-11.28-48.78-2.28,0,.3,30,2,47.28-3.32,1.55-14.28,5.78-35.33,5.78s-32-4.23-35.32-5.78c1.68-17.33,4.27-47.28,2-47.28-1.54,0-7.71,30.48-11.27,48.78-7.58,1.76-19.13,3.92-28.69,3.35-8.14-.48-12.08-2.94-13.83-4.53,2-17.14,5.2-47.6,3.39-47.6-2.15,0-7.94,29.64-11.25,47.58a119.91,119.91,0,0,1-20.48,2.35c-5.63,0-8.28-1.35-9.54-2.72,1.73-16.58,4.66-47.21,2.91-47.21-2.06,0-6.87,27.6-9.66,44.72-8.23.4-22.66.52-23.25-3.56a39.24,39.24,0,0,0,0,4.9c.45,4,14.09,4,22.47,3.65-.79,5-1.29,8.3-1.29,8.3l7.73-.44s.27-2.34.66-6c1,1.55,3.47,3.35,10,3.35a116.92,116.92,0,0,0,19.54-2.17c-.9,5-1.47,8.26-1.47,8.26l8.94-2s.33-2.69.82-6.91c1.43,1.52,5.34,4.49,14.34,5s20.12-1.41,27.69-3.12c-1,5-1.58,8.28-1.58,8.28l10.64-3s.31-2.84.75-7.28c2.75,1.35,13.79,6,35.8,6s33.06-4.65,35.8-6c.44,4.44.75,7.28.75,7.28l10.65,3s-.61-3.27-1.58-8.28c7.57,1.71,18.54,3.66,27.69,3.12s12.91-3.5,14.33-5c.5,4.22.83,6.91.83,6.91l8.93,2s-.56-3.27-1.47-8.26a116.92,116.92,0,0,0,19.55,2.17c6.51,0,9-1.8,10-3.35.39,3.7.65,6,.65,6l7.74.44s-.5-3.3-1.3-8.3c8.39.37,22,.35,22.48-3.65a37.33,37.33,0,0,0,0-4.9" fill="#d33527" fill-rule="evenodd"/><g clip-path="url(#clip-path)"><rect x="861.58" y="431.02" width="4152.23" height="2952.7" fill="#d33527"/><g clip-path="url(#clip-path-2)"><rect x="985.57" y="564.93" width="347.14" height="101.91" fill="#d33527"/></g></g></g></g></svg>