<svg xmlns="http://www.w3.org/2000/svg" xmlns:xlink="http://www.w3.org/1999/xlink" viewBox="0 0 1920 1080"><defs><clipPath id="clip-path"><path d="M-655.25-492.79c-.67,5.64-29.67,3.16-29.67,3.16s.82,5.43-10.93,5.43-27.82-3.62-27.82-3.62-3,5.07-15.45,5.77c-16.07.9-37.71-5.31-37.71-5.31s-11.13,6.21-37.5,6.21-37.5-6.21-37.5-6.21-21.64,6.21-37.72,5.31c-12.5-.7-15.45-5.77-15.45-5.77s-16.07,3.62-27.82,3.62-10.92-5.43-10.92-5.43-29,2.48-29.67-3.16c-.73-6,4.67-55.7,4.67-55.7v-1.21c0-2.5,7.38-4.52,16.48-4.52H-676.4c9.1,0,16.48,2,16.48,4.52v1.21s5.39,49.65,4.67,55.7M-658-507.64c-.59,4.08-15,4-23.26,3.56-2.78-17.13-7.59-44.73-9.65-44.73-1.76,0,1.19,30.64,2.91,47.21-1.26,1.37-3.91,2.72-9.54,2.72A120,120,0,0,1-718-501.22c-3.31-17.95-9.1-47.59-11.25-47.59-1.8,0,1.43,30.47,3.38,47.61-1.74,1.59-5.68,4-13.82,4.53-9.56.56-21.11-1.59-28.69-3.36-3.56-18.3-9.73-48.78-11.28-48.78-2.28,0,.31,30,2,47.28-3.32,1.55-14.27,5.79-35.32,5.79s-32-4.24-35.33-5.79c1.69-17.32,4.27-47.28,2-47.28-1.54,0-7.7,30.48-11.27,48.78-7.57,1.77-19.13,3.92-28.69,3.36-8.14-.49-12.07-2.94-13.82-4.53,2-17.14,5.19-47.61,3.38-47.61-2.15,0-7.94,29.64-11.25,47.59a119.83,119.83,0,0,1-20.48,2.34c-5.63,0-8.28-1.35-9.53-2.72,1.72-16.57,4.66-47.21,2.9-47.21-2.06,0-6.87,27.6-9.65,44.73-8.23.4-22.67.52-23.26-3.56a39.06,39.06,0,0,0,0,4.89c.45,4,14.09,4,22.48,3.66-.8,5-1.3,8.3-1.3,8.3l7.73-.44s.27-2.34.66-6c1,1.55,3.48,3.34,10,3.34a116.7,116.7,0,0,0,19.54-2.16c-.9,5-1.47,8.25-1.47,8.25l8.94-2s.33-2.69.82-6.9c1.43,1.52,5.34,4.48,14.34,5s20.12-1.41,27.69-3.13c-1,5-1.58,8.29-1.58,8.29l10.64-3s.31-2.84.76-7.27c2.74,1.34,13.79,6,35.8,6s33.05-4.66,35.79-6c.45,4.43.76,7.27.76,7.27l10.64,3s-.61-3.27-1.58-8.29c7.57,1.72,18.54,3.67,27.69,3.13,9-.54,12.91-3.5,14.34-5,.49,4.21.82,6.9.82,6.9l8.94,2s-.57-3.26-1.47-8.25a116.7,116.7,0,0,0,19.54,2.16c6.51,0,9-1.79,10-3.34.4,3.7.65,6,.65,6l7.74.44s-.5-3.3-1.3-8.3c8.39.37,22,.35,22.49-3.66a37.7,37.7,0,0,0,0-4.89" fill="#fff" clip-rule="evenodd"/></clipPath><radialGradient id="radial-gradient" cx="291.6" cy="569.14" r="126.72" gradientUnits="userSpaceOnUse"><stop offset="0.68" stop-color="#acc2d4"/><stop offset="0.72" stop-color="#bbcddc"/><stop offset="0.84" stop-color="#e0e8ef"/><stop offset="0.94" stop-color="#f7f9fb"/><stop offset="1" stop-color="#fff"/></radialGradient><radialGradient id="radial-gradient-2" cx="1640.62" cy="568.74" r="126.72" xlink:href="#radial-gradient"/><radialGradient id="radial-gradient-3" cx="610.89" cy="569.14" r="126.72" xlink:href="#radial-gradient"/><radialGradient id="radial-gradient-4" cx="930.17" cy="569.14" r="126.72" xlink:href="#radial-gradient"/><radialGradient id="radial-gradient-5" cx="1249.46" cy="569.14" r="126.72" xlink:href="#radial-gradient"/><clipPath id="clip-path-2"><path d="M-1099-3052.07h4.52c4.54,0,7.64.89,9.28,2.68s2.46,4.91,2.46,9.35-1,7.75-2.86,9.5-5.09,2.62-9.55,2.62H-1099Zm-10.24-7.32v73.08H-1099v-34.29h7.93l9.66,34.29h9.92L-1082-3023q9.07-3,9.08-17.06,0-10.27-5.2-14.81t-16.37-4.54Z" fill="none"/></clipPath><clipPath id="clip-path-3"><polygon points="-1062.18 -3059.39 -1062.18 -2986.31 -1033.51 -2986.31 -1033.51 -2993.63 -1051.94 -2993.63 -1051.94 -3020.43 -1037.14 -3020.43 -1037.14 -3027.7 -1051.94 -3027.7 -1051.94 -3051.85 -1033.73 -3051.85 -1033.73 -3059.39 -1062.18 -3059.39" fill="none"/></clipPath><clipPath id="clip-path-4"><path d="M-1010-3060.09q-8,.09-12.64,4.51t-4.63,12.37a21.9,21.9,0,0,0,1.7,9.1,22,22,0,0,0,5.43,7.07l12.32,10.89c1.38,1.29,2.46,2.33,3.21,3.11a25.93,25.93,0,0,1,2.39,2.93,12,12,0,0,1,1.82,3.7,15.52,15.52,0,0,1,.55,4.28c0,2.82-.68,5-2.06,6.41a7.87,7.87,0,0,1-6,2.18q-9.43,0-10.41-15.69l-9.13,2.47q.57,9.87,5.43,15.56t14.11,5.68q7.85,0,12.71-4.69t4.88-12.72a21.87,21.87,0,0,0-2.86-11.19,38,38,0,0,0-7.69-9.26l-12.4-10.88a16.59,16.59,0,0,1-3.72-4.55,11.64,11.64,0,0,1-1.11-5.37q0-7.46,8.1-8a8.78,8.78,0,0,1,3.9.55,6.8,6.8,0,0,1,2.7,1.85,9.87,9.87,0,0,1,1.74,3,19.44,19.44,0,0,1,1,3.72c.21,1.24.37,2.65.49,4.23l8.64-2.37q-.88-9.75-5.27-14.4c-2.84-3-7.09-4.52-12.72-4.52h-.49" fill="none"/></clipPath><clipPath id="clip-path-5"><polygon points="-982.3 -3059.39 -982.3 -2986.31 -953.64 -2986.31 -953.64 -2993.63 -972.07 -2993.63 -972.07 -3020.43 -957.27 -3020.43 -957.27 -3027.7 -972.07 -3027.7 -972.07 -3051.85 -953.86 -3051.85 -953.86 -3059.39 -982.3 -3059.39" fill="none"/></clipPath><clipPath id="clip-path-6"><polygon points="-869.65 -3059.39 -880.72 -3005.57 -892.33 -3059.39 -901.89 -3059.39 -885.5 -2986.31 -876.55 -2986.31 -860.3 -3059.39 -869.65 -3059.39" fill="none"/></clipPath><clipPath id="clip-path-7"><path d="M-838.37-3045l6.16,33h-12.27Zm-5-14.37L-859-2986.31h9.7l3.5-18.43h14.93l3.36,18.43h9.75l-15.68-73.08Z" fill="none"/></clipPath><clipPath id="clip-path-8"><path d="M-855.54-2903.26c-2.07-19.95-5.62-56.83-3.5-56.83,2.48,0,8.27,33.22,11.61,53.84,9.92.48,27.28.62,28-4.29a45.63,45.63,0,0,1,0,5.89c-.54,4.82-17,4.85-27.06,4.4,1,6,1.56,10,1.56,10l-9.31-.53s-.31-2.81-.78-7.27c-1.19,1.87-4.2,4-12,4s-16.84-1.39-23.52-2.61c1.09,6,1.77,9.94,1.77,9.94l-10.76-2.41s-.4-3.24-1-8.31c-1.72,1.83-6.42,5.4-17.25,6-11,.65-24.22-1.69-33.33-3.76,1.16,6,1.9,10,1.9,10l-12.81-3.56s-.37-3.41-.91-8.75c-3.3,1.62-16.6,7.22-43.08,7.22s-39.79-5.6-43.09-7.22c-.54,5.34-.91,8.75-.91,8.75l-12.81,3.56s.74-3.94,1.91-10c-9.11,2.07-22.32,4.41-33.33,3.76-10.83-.64-15.53-4.21-17.26-6-.59,5.07-1,8.31-1,8.31l-10.75,2.41s.68-3.93,1.76-9.94c-6.68,1.22-15.84,2.61-23.51,2.61-7.84,0-10.85-2.16-12-4-.47,4.46-.79,7.27-.79,7.27l-9.3.53s.59-4,1.55-10c-10.09.45-26.51.42-27-4.4a47.6,47.6,0,0,1,0-5.89c.71,4.91,18.08,4.77,28,4.29,3.35-20.62,9.14-53.84,11.61-53.84,2.12,0-1.42,36.88-3.49,56.83,1.51,1.65,4.7,3.27,11.48,3.27,8.11,0,17.9-1.55,24.65-2.82,4-21.6,10.95-57.28,13.53-57.28,2.18,0-1.71,36.67-4.07,57.3,2.11,1.91,6.84,4.87,16.64,5.45,11.51.68,25.41-1.91,34.53-4,4.29-22,11.72-58.71,13.57-58.71,2.75,0-.36,36.06-2.39,56.91,4,1.86,17.18,7,42.52,7s38.51-5.1,42.52-7c-2-20.85-5.15-56.91-2.4-56.91,1.86,0,9.29,36.69,13.58,58.71,9.11,2.13,23,4.72,34.53,4,9.8-.58,14.53-3.54,16.63-5.45-2.35-20.63-6.24-57.3-4.07-57.3,2.58,0,9.56,35.68,13.54,57.28,6.75,1.27,16.54,2.82,24.65,2.82,6.78,0,10-1.62,11.48-3.27m-318.09-63.34c-11,0-19.84,2.44-19.84,5.44v1.45s-6.49,59.76-5.62,67c.81,6.79,35.72,3.81,35.72,3.81s-1,6.53,13.14,6.53,33.48-4.35,33.48-4.35,3.55,6.09,18.6,6.94c19.35,1.09,45.39-6.4,45.39-6.4s13.39,7.49,45.14,7.49,45.14-7.49,45.14-7.49,26,7.49,45.38,6.4c15.05-.85,18.6-6.94,18.6-6.94s19.35,4.35,33.48,4.35,13.15-6.53,13.15-6.53,34.9,3,35.72-3.81c.86-7.28-5.63-67-5.63-67v-1.45c0-3-8.88-5.44-19.84-5.44Z" fill="none"/></clipPath></defs><title>slide</title><g style="isolation:isolate"><g id="Layer_1" data-name="Layer 1"><text transform="translate(838.61 117.5)" font-size="40" fill="#d33527" font-family="Bebas"><tspan letter-spacing="0.03em">D</tspan><tspan x="21.59" y="0">E</tspan><tspan x="40.57" y="0" letter-spacing="-0.01em">S</tspan><tspan x="61.42" y="0" letter-spacing="0.02em">A</tspan><tspan x="85.34" y="0" letter-spacing="0.02em">R</tspan><tspan x="107.95" y="0" letter-spacing="0em">R</tspan><tspan x="129.66" y="0" letter-spacing="0.03em">O</tspan><tspan x="151.42" y="0">LLO</tspan></text><path d="M-655.25-492.79c-.67,5.64-29.67,3.16-29.67,3.16s.82,5.43-10.93,5.43-27.82-3.62-27.82-3.62-3,5.07-15.45,5.77c-16.07.9-37.71-5.31-37.71-5.31s-11.13,6.21-37.5,6.21-37.5-6.21-37.5-6.21-21.64,6.21-37.72,5.31c-12.5-.7-15.45-5.77-15.45-5.77s-16.07,3.62-27.82,3.62-10.92-5.43-10.92-5.43-29,2.48-29.67-3.16c-.73-6,4.67-55.7,4.67-55.7v-1.21c0-2.5,7.38-4.52,16.48-4.52H-676.4c9.1,0,16.48,2,16.48,4.52v1.21s5.39,49.65,4.67,55.7M-658-507.64c-.59,4.08-15,4-23.26,3.56-2.78-17.13-7.59-44.73-9.65-44.73-1.76,0,1.19,30.64,2.91,47.21-1.26,1.37-3.91,2.72-9.54,2.72A120,120,0,0,1-718-501.22c-3.31-17.95-9.1-47.59-11.25-47.59-1.8,0,1.43,30.47,3.38,47.61-1.74,1.59-5.68,4-13.82,4.53-9.56.56-21.11-1.59-28.69-3.36-3.56-18.3-9.73-48.78-11.28-48.78-2.28,0,.31,30,2,47.28-3.32,1.55-14.27,5.79-35.32,5.79s-32-4.24-35.33-5.79c1.69-17.32,4.27-47.28,2-47.28-1.54,0-7.7,30.48-11.27,48.78-7.57,1.77-19.13,3.92-28.69,3.36-8.14-.49-12.07-2.94-13.82-4.53,2-17.14,5.19-47.61,3.38-47.61-2.15,0-7.94,29.64-11.25,47.59a119.83,119.83,0,0,1-20.48,2.34c-5.63,0-8.28-1.35-9.53-2.72,1.72-16.57,4.66-47.21,2.9-47.21-2.06,0-6.87,27.6-9.65,44.73-8.23.4-22.67.52-23.26-3.56a39.06,39.06,0,0,0,0,4.89c.45,4,14.09,4,22.48,3.66-.8,5-1.3,8.3-1.3,8.3l7.73-.44s.27-2.34.66-6c1,1.55,3.48,3.34,10,3.34a116.7,116.7,0,0,0,19.54-2.16c-.9,5-1.47,8.25-1.47,8.25l8.94-2s.33-2.69.82-6.9c1.43,1.52,5.34,4.48,14.34,5s20.12-1.41,27.69-3.13c-1,5-1.58,8.29-1.58,8.29l10.64-3s.31-2.84.76-7.27c2.74,1.34,13.79,6,35.8,6s33.05-4.66,35.79-6c.45,4.43.76,7.27.76,7.27l10.64,3s-.61-3.27-1.58-8.29c7.57,1.72,18.54,3.67,27.69,3.13,9-.54,12.91-3.5,14.34-5,.49,4.21.82,6.9.82,6.9l8.94,2s-.57-3.26-1.47-8.25a116.7,116.7,0,0,0,19.54,2.16c6.51,0,9-1.79,10-3.34.4,3.7.65,6,.65,6l7.74.44s-.5-3.3-1.3-8.3c8.39.37,22,.35,22.49-3.66a37.7,37.7,0,0,0,0-4.89" fill="#fff" fill-rule="evenodd"/><g clip-path="url(#clip-path)"><rect x="-1111.89" y="-702.54" width="4152.23" height="2952.7" fill="#fff"/></g><line x1="108.55" y1="105.3" x2="822.67" y2="105.3" fill="none" stroke="#d33527" stroke-miterlimit="10"/><line x1="1059.55" y1="105.3" x2="1773.67" y2="105.3" fill="none" stroke="#d33527" stroke-miterlimit="10"/><circle cx="291.6" cy="569.14" r="126.72" fill="url(#radial-gradient)" style="mix-blend-mode:multiply"/><circle cx="293.14" cy="550.01" r="110.8" fill="#fff"/><circle cx="293.14" cy="550.01" r="99.85" transform="translate(-303.05 368.38) rotate(-45)" fill="#d33527"/><circle cx="1640.62" cy="568.74" r="126.72" fill="url(#radial-gradient-2)" style="mix-blend-mode:multiply"/><circle cx="1642.16" cy="549.61" r="110.8" fill="#fff"/><circle cx="1642.16" cy="549.61" r="99.85" transform="translate(92.34 1322.16) rotate(-45)" fill="#d33527"/><circle cx="610.89" cy="569.14" r="126.72" fill="url(#radial-gradient-3)" style="mix-blend-mode:multiply"/><circle cx="612.43" cy="550.01" r="110.8" fill="#fff"/><circle cx="612.43" cy="550.01" r="99.85" transform="translate(-65.11 1017.46) rotate(-76.53)" fill="#a7aeb0"/><circle cx="930.17" cy="569.14" r="126.72" fill="url(#radial-gradient-4)" style="mix-blend-mode:multiply"/><circle cx="931.72" cy="550.01" r="110.8" fill="#fff"/><circle cx="931.72" cy="550.01" r="99.85" transform="translate(-116.02 819.92) rotate(-45)" fill="#d33527"/><circle cx="1249.46" cy="569.14" r="126.72" fill="url(#radial-gradient-5)" style="mix-blend-mode:multiply"/><circle cx="1251" cy="550.01" r="110.8" fill="#fff"/><circle cx="1251" cy="550.01" r="99.85" transform="translate(428.1 1641.03) rotate(-76.71)" fill="#a7aeb0"/><path d="M1251,688.72c-75.7,0-137.44-61-138.69-136.38H1068.1a2.34,2.34,0,0,1-2.33-2.33c0-73.92-60.14-134.06-134-134.06S797.66,476.09,797.66,550a2.33,2.33,0,0,1-2.33,2.33H751.12c-1.25,75.41-63,136.38-138.69,136.38S475,627.75,473.74,552.34H429.53A2.33,2.33,0,0,1,427.2,550C427.2,476.09,367.06,416,293.14,416s-134,60.14-134,134.06a2.34,2.34,0,0,1-2.33,2.33H78.13a2.33,2.33,0,0,1,0-4.66h76.32c1.25-75.42,63-136.39,138.69-136.39s137.45,61,138.7,136.39h44.21a2.32,2.32,0,0,1,2.32,2.33c0,73.91,60.14,134,134.06,134s134.05-60.14,134.05-134a2.33,2.33,0,0,1,2.33-2.33H793c1.25-75.42,63-136.39,138.7-136.39s137.44,61,138.69,136.39h44.21A2.33,2.33,0,0,1,1117,550c0,73.91,60.14,134,134,134s134.06-60.14,134.06-134a2.33,2.33,0,0,1,2.33-2.33h76.2a2.33,2.33,0,0,1,0,4.66H1389.7C1388.45,627.75,1326.71,688.72,1251,688.72Z" fill="#a7aeb0"/><path d="M1459,552.34h44.21a2.33,2.33,0,0,0,2.32-2.33c0-73.92,60.14-134.06,134.06-134.06S1773.68,476.09,1773.68,550a2.33,2.33,0,0,0,2.33,2.33h44.2s4.58.12,4.64-2.33a2.3,2.3,0,0,0-2.33-2.33h-44.2c-1.25-75.42-63-136.39-138.7-136.39s-137.44,61-138.69,136.39h-44.21a2.33,2.33,0,0,0-2.33,2.33" fill="#a7aeb0"/><path d="M1826.15,541.25a8.76,8.76,0,1,1-8.76,8.76A8.76,8.76,0,0,1,1826.15,541.25Z" fill="#a7aeb0"/><path d="M78.57,541.25A8.76,8.76,0,1,0,87.33,550,8.76,8.76,0,0,0,78.57,541.25Z" fill="#a7aeb0"/><text transform="translate(255.31 738.73)" font-size="40" fill="#606060" font-family="BebasNeueBook, Bebas Neue" letter-spacing="-0.01em">p<tspan x="14.04" y="0" letter-spacing="0em">aso 1</tspan></text><text transform="translate(576.52 407.13)" font-size="40" fill="#606060" font-family="BebasNeueBook, Bebas Neue" letter-spacing="-0.01em">p<tspan x="14.04" y="0" letter-spacing="0em">aso 2</tspan></text><text transform="translate(888.75 738.73)" font-size="40" fill="#606060" font-family="BebasNeueBook, Bebas Neue"><tspan letter-spacing="-0.01em">p</tspan><tspan x="14.04" y="0">aso 3</tspan></text><text transform="translate(1207.54 407.13)" font-size="40" fill="#606060" font-family="BebasNeueBook, Bebas Neue"><tspan letter-spacing="-0.01em">p</tspan><tspan x="14.04" y="0">aso 4</tspan></text><text transform="translate(1610.68 738.73)" font-size="40" fill="#606060" font-family="BebasNeueBook, Bebas Neue"><tspan letter-spacing="-0.01em">p</tspan><tspan x="14.04" y="0">aso 5</tspan></text><text transform="translate(234.2 566.39)" font-size="25" fill="#fff" font-family="Bebas"><tspan letter-spacing="0.01em">P</tspan><tspan x="13.23" y="0">roto</tspan><tspan x="65.46" y="0" letter-spacing="0.02em">t</tspan><tspan x="78.64" y="0" letter-spacing="0.03em">i</tspan><tspan x="84.99" y="0" letter-spacing="0em">po</tspan></text><text transform="translate(1201.81 565.76)" font-size="25" fill="#fff" font-family="Bebas">Ba<tspan x="28.05" y="0" letter-spacing="0.02em">c</tspan><tspan x="41.44" y="0" letter-spacing="0.02em">k</tspan><tspan x="56" y="0">e</tspan><tspan x="67.86" y="0" letter-spacing="0.03em">n</tspan><tspan x="82.44" y="0">d</tspan></text><text transform="translate(898.14 566.39)" font-size="25" fill="#fff" font-family="Bebas">FR<tspan x="25.43" y="0" letter-spacing="0.03em">O</tspan><tspan x="39.01" y="0" letter-spacing="0.02em">N</tspan><tspan x="53.28" y="0" letter-spacing="0em">T</tspan></text><text transform="translate(539.12 566.39)" font-size="25" fill="#fff" font-family="Bebas"><tspan letter-spacing="0.02em">M</tspan><tspan x="18.38" y="0">aq</tspan><tspan x="46.32" y="0" letter-spacing="0.03em">u</tspan><tspan x="59.94" y="0">e</tspan><tspan x="71.8" y="0" letter-spacing="-0.11em">t</tspan><tspan x="81.92" y="0" letter-spacing="0em">a</tspan><tspan x="96.36" y="0" letter-spacing="0.02em">c</tspan><tspan x="109.75" y="0" letter-spacing="0.03em">i</tspan><tspan x="116.07" y="0" letter-spacing="0.03em">o</tspan><tspan x="129.65" y="0">n</tspan></text><text transform="translate(1599.44 565.76)" font-size="25" fill="#fff" font-family="Bebas"><tspan letter-spacing="0.02em">T</tspan><tspan x="13.17" y="0">es</tspan><tspan x="38.44" y="0" letter-spacing="0.02em">t</tspan><tspan x="51.62" y="0" letter-spacing="0.03em">i</tspan><tspan x="57.97" y="0" letter-spacing="0.03em">n</tspan><tspan x="72.5" y="0">g</tspan></text></g></g></svg>