<svg id="Layer_1" data-name="Layer 1" xmlns="http://www.w3.org/2000/svg" xmlns:xlink="http://www.w3.org/1999/xlink" viewBox="0 0 1920 1080"><defs><clipPath id="clip-path"><path d="M1354.31-482.79c-.68,5.64-29.68,3.16-29.68,3.16s.82,5.43-10.92,5.43-27.82-3.62-27.82-3.62-3,5.07-15.46,5.77c-16.07.9-37.7-5.31-37.7-5.31s-11.13,6.21-37.51,6.21-37.5-6.21-37.5-6.21-21.64,6.21-37.72,5.31c-12.5-.7-15.45-5.77-15.45-5.77s-16.07,3.62-27.81,3.62-10.92-5.43-10.92-5.43-29,2.48-29.68-3.16c-.72-6,4.67-55.7,4.67-55.7v-1.21c0-2.5,7.38-4.52,16.49-4.52h275.85c9.1,0,16.48,2,16.48,4.52v1.21s5.39,49.65,4.68,55.7m-2.72-14.85c-.6,4.08-15,4-23.27,3.56-2.78-17.13-7.58-44.73-9.65-44.73-1.76,0,1.19,30.64,2.91,47.21-1.26,1.37-3.9,2.72-9.54,2.72a120.07,120.07,0,0,1-20.48-2.34c-3.3-17.95-9.1-47.59-11.25-47.59-1.8,0,1.43,30.47,3.39,47.61-1.75,1.59-5.68,4-13.83,4.53-9.56.56-21.11-1.59-28.68-3.36-3.57-18.3-9.74-48.78-11.28-48.78-2.29,0,.3,30,2,47.28-3.33,1.55-14.28,5.79-35.33,5.79s-32-4.24-35.33-5.79c1.69-17.32,4.28-47.28,2-47.28-1.54,0-7.71,30.48-11.28,48.78-7.57,1.77-19.13,3.92-28.69,3.36-8.14-.49-12.07-2.94-13.82-4.53,2-17.14,5.19-47.61,3.38-47.61-2.15,0-7.94,29.64-11.24,47.59a120.07,120.07,0,0,1-20.48,2.34c-5.64,0-8.29-1.35-9.54-2.72,1.72-16.57,4.66-47.21,2.9-47.21-2.06,0-6.86,27.6-9.65,44.73-8.23.4-22.66.52-23.26-3.56a39.06,39.06,0,0,0,0,4.89c.45,4,14.1,4,22.48,3.66-.8,5-1.29,8.3-1.29,8.3l7.73-.44s.26-2.34.65-6c1,1.55,3.48,3.34,10,3.34a116.7,116.7,0,0,0,19.53-2.16c-.9,5-1.46,8.25-1.46,8.25l8.93-2s.33-2.69.82-6.9c1.44,1.52,5.34,4.48,14.34,5,9.15.54,20.12-1.41,27.69-3.13-1,5-1.58,8.29-1.58,8.29l10.64-3s.31-2.84.76-7.27c2.74,1.34,13.79,6,35.8,6s33.06-4.66,35.79-6c.45,4.43.76,7.27.76,7.27l10.64,3s-.61-3.27-1.57-8.29c7.57,1.72,18.54,3.67,27.68,3.13s12.91-3.5,14.34-5c.49,4.21.83,6.9.83,6.9l8.93,2s-.56-3.26-1.47-8.25a116.7,116.7,0,0,0,19.54,2.16c6.51,0,9-1.79,10-3.34.39,3.7.65,6,.65,6l7.73.44s-.5-3.3-1.29-8.3c8.38.37,22,.35,22.48-3.66a39.06,39.06,0,0,0,0-4.89" fill="#fff" clip-rule="evenodd"/></clipPath><clipPath id="clip-path-2"><rect x="-4.12" y="172.5" width="1915.12" height="640.51" fill="none"/></clipPath><linearGradient id="Degradado_sin_nombre_12" x1="48.68" y1="780.64" x2="1858.52" y2="780.64" gradientUnits="userSpaceOnUse"><stop offset="0" stop-color="#0095b8" stop-opacity="0"/><stop offset="0.49" stop-color="#2c2c2c" stop-opacity="0.8"/><stop offset="1" stop-color="#00a6bf" stop-opacity="0"/></linearGradient><clipPath id="clip-path-3"><path d="M910.52-3042.07H915q6.83,0,9.28,2.68c1.64,1.8,2.46,4.91,2.46,9.35s-.95,7.75-2.86,9.5-5.09,2.62-9.55,2.62h-3.85Zm-10.23-7.32v73.08h10.23v-34.29h7.93l9.66,34.29H938L927.53-3013q9.09-3,9.08-17.06,0-10.27-5.2-14.81T915-3049.39Z" fill="none"/></clipPath><clipPath id="clip-path-4"><polygon points="947.38 -3049.39 947.38 -2976.31 976.04 -2976.31 976.04 -2983.63 957.61 -2983.63 957.61 -3010.43 972.41 -3010.43 972.41 -3017.7 957.61 -3017.7 957.61 -3041.85 975.82 -3041.85 975.82 -3049.39 947.38 -3049.39" fill="none"/></clipPath><clipPath id="clip-path-5"><path d="M999.52-3050.09q-8,.09-12.65,4.51t-4.63,12.37a21.74,21.74,0,0,0,1.71,9.1,21.69,21.69,0,0,0,5.43,7.07l12.31,10.89q2.09,1.93,3.21,3.11a24.88,24.88,0,0,1,2.39,2.93,11.8,11.8,0,0,1,1.82,3.7,15.52,15.52,0,0,1,.55,4.28c0,2.82-.68,5-2.06,6.41a7.87,7.87,0,0,1-6,2.18q-9.44,0-10.41-15.69l-9.12,2.47q.57,9.87,5.42,15.56t14.11,5.68q7.85,0,12.72-4.69t4.87-12.72a21.87,21.87,0,0,0-2.86-11.19,38,38,0,0,0-7.68-9.26l-12.41-10.88a16.77,16.77,0,0,1-3.72-4.55,11.64,11.64,0,0,1-1.11-5.37q0-7.46,8.11-8a8.78,8.78,0,0,1,3.9.55,6.94,6.94,0,0,1,2.7,1.85,10.07,10.07,0,0,1,1.73,3,20.25,20.25,0,0,1,1,3.72c.2,1.24.37,2.65.48,4.23l8.64-2.37q-.88-9.75-5.27-14.4T1000-3050.1h-.48" fill="none"/></clipPath><clipPath id="clip-path-6"><polygon points="1027.25 -3049.39 1027.25 -2976.31 1055.92 -2976.31 1055.92 -2983.63 1037.49 -2983.63 1037.49 -3010.43 1052.28 -3010.43 1052.28 -3017.7 1037.49 -3017.7 1037.49 -3041.85 1055.7 -3041.85 1055.7 -3049.39 1027.25 -3049.39" fill="none"/></clipPath><clipPath id="clip-path-7"><polygon points="1139.91 -3049.39 1128.83 -2995.57 1117.23 -3049.39 1107.66 -3049.39 1124.05 -2976.31 1133 -2976.31 1149.26 -3049.39 1139.91 -3049.39" fill="none"/></clipPath><clipPath id="clip-path-8"><path d="M1171.19-3035l6.15,33h-12.27Zm-5-14.37-15.69,73.08h9.7l3.5-18.43h14.93l3.37,18.43h9.74l-15.68-73.08Z" fill="none"/></clipPath><clipPath id="clip-path-9"><path d="M1154-2893.26c-2.07-19.95-5.61-56.83-3.5-56.83,2.49,0,8.27,33.22,11.62,53.84,9.91.48,27.28.62,28-4.29a45.63,45.63,0,0,1,0,5.89c-.54,4.82-17,4.85-27.06,4.4,1,6,1.57,10,1.57,10l-9.32-.53s-.31-2.81-.78-7.27c-1.19,1.87-4.19,4-12,4-7.68,0-16.83-1.39-23.52-2.61,1.09,6,1.77,9.94,1.77,9.94l-10.75-2.41s-.41-3.24-1-8.31c-1.72,1.83-6.41,5.4-17.25,6-11,.65-24.21-1.69-33.32-3.76,1.16,6,1.89,10,1.89,10l-12.81-3.56s-.37-3.41-.91-8.75c-3.29,1.62-16.6,7.22-43.08,7.22s-39.78-5.6-43.09-7.22c-.53,5.34-.91,8.75-.91,8.75l-12.8,3.56s.74-3.94,1.9-10c-9.11,2.07-22.31,4.41-33.33,3.76-10.83-.64-15.53-4.21-17.26-6-.59,5.07-1,8.31-1,8.31l-10.76,2.41s.68-3.93,1.77-9.94c-6.69,1.22-15.85,2.61-23.52,2.61-7.84,0-10.84-2.16-12-4-.47,4.46-.79,7.27-.79,7.27l-9.3.53s.6-4,1.55-10c-10.08.45-26.51.42-27-4.4a47.6,47.6,0,0,1,0-5.89c.71,4.91,18.08,4.77,28,4.29,3.35-20.62,9.14-53.84,11.62-53.84,2.11,0-1.43,36.88-3.5,56.83,1.51,1.65,4.7,3.27,11.48,3.27,8.11,0,17.9-1.55,24.65-2.82,4-21.6,10.95-57.28,13.54-57.28,2.17,0-1.72,36.67-4.08,57.3,2.11,1.91,6.85,4.87,16.64,5.45,11.51.68,25.42-1.91,34.53-4,4.29-22,11.72-58.71,13.57-58.71,2.76,0-.36,36.06-2.39,56.91,4,1.86,17.18,7,42.52,7s38.52-5.1,42.52-7c-2-20.85-5.14-56.91-2.4-56.91,1.86,0,9.29,36.69,13.58,58.71,9.12,2.13,23,4.72,34.53,4,9.8-.58,14.53-3.54,16.63-5.45-2.35-20.63-6.24-57.3-4.07-57.3,2.59,0,9.56,35.68,13.54,57.28,6.75,1.27,16.54,2.82,24.65,2.82,6.78,0,10-1.62,11.48-3.27M835.93-2956.6c-11,0-19.85,2.44-19.85,5.44v1.45s-6.49,59.76-5.62,67c.81,6.79,35.72,3.81,35.72,3.81s-1,6.53,13.15,6.53,33.47-4.35,33.47-4.35,3.55,6.09,18.6,6.94c19.35,1.09,45.39-6.4,45.39-6.4s13.4,7.49,45.14,7.49,45.14-7.49,45.14-7.49,26,7.49,45.38,6.4c15-.85,18.6-6.94,18.6-6.94s19.35,4.35,33.49,4.35,13.14-6.53,13.14-6.53,34.91,3,35.72-3.81c.86-7.28-5.63-67-5.63-67v-1.45c0-3-8.88-5.44-19.83-5.44Z" fill="none"/></clipPath></defs><title>slide</title><path d="M1354.31-482.79c-.68,5.64-29.68,3.16-29.68,3.16s.82,5.43-10.92,5.43-27.82-3.62-27.82-3.62-3,5.07-15.46,5.77c-16.07.9-37.7-5.31-37.7-5.31s-11.13,6.21-37.51,6.21-37.5-6.21-37.5-6.21-21.64,6.21-37.72,5.31c-12.5-.7-15.45-5.77-15.45-5.77s-16.07,3.62-27.81,3.62-10.92-5.43-10.92-5.43-29,2.48-29.68-3.16c-.72-6,4.67-55.7,4.67-55.7v-1.21c0-2.5,7.38-4.52,16.49-4.52h275.85c9.1,0,16.48,2,16.48,4.52v1.21s5.39,49.65,4.68,55.7m-2.72-14.85c-.6,4.08-15,4-23.27,3.56-2.78-17.13-7.58-44.73-9.65-44.73-1.76,0,1.19,30.64,2.91,47.21-1.26,1.37-3.9,2.72-9.54,2.72a120.07,120.07,0,0,1-20.48-2.34c-3.3-17.95-9.1-47.59-11.25-47.59-1.8,0,1.43,30.47,3.39,47.61-1.75,1.59-5.68,4-13.83,4.53-9.56.56-21.11-1.59-28.68-3.36-3.57-18.3-9.74-48.78-11.28-48.78-2.29,0,.3,30,2,47.28-3.33,1.55-14.28,5.79-35.33,5.79s-32-4.24-35.33-5.79c1.69-17.32,4.28-47.28,2-47.28-1.54,0-7.71,30.48-11.28,48.78-7.57,1.77-19.13,3.92-28.69,3.36-8.14-.49-12.07-2.94-13.82-4.53,2-17.14,5.19-47.61,3.38-47.61-2.15,0-7.94,29.64-11.24,47.59a120.07,120.07,0,0,1-20.48,2.34c-5.64,0-8.29-1.35-9.54-2.72,1.72-16.57,4.66-47.21,2.9-47.21-2.06,0-6.86,27.6-9.65,44.73-8.23.4-22.66.52-23.26-3.56a39.06,39.06,0,0,0,0,4.89c.45,4,14.1,4,22.48,3.66-.8,5-1.29,8.3-1.29,8.3l7.73-.44s.26-2.34.65-6c1,1.55,3.48,3.34,10,3.34a116.7,116.7,0,0,0,19.53-2.16c-.9,5-1.46,8.25-1.46,8.25l8.93-2s.33-2.69.82-6.9c1.44,1.52,5.34,4.48,14.34,5,9.15.54,20.12-1.41,27.69-3.13-1,5-1.58,8.29-1.58,8.29l10.64-3s.31-2.84.76-7.27c2.74,1.34,13.79,6,35.8,6s33.06-4.66,35.79-6c.45,4.43.76,7.27.76,7.27l10.64,3s-.61-3.27-1.57-8.29c7.57,1.72,18.54,3.67,27.68,3.13s12.91-3.5,14.34-5c.49,4.21.83,6.9.83,6.9l8.93,2s-.56-3.26-1.47-8.25a116.7,116.7,0,0,0,19.54,2.16c6.51,0,9-1.79,10-3.34.39,3.7.65,6,.65,6l7.73.44s-.5-3.3-1.29-8.3c8.38.37,22,.35,22.48-3.66a39.06,39.06,0,0,0,0-4.89" fill="#fff" fill-rule="evenodd"/><g clip-path="url(#clip-path)"><rect x="897.66" y="-692.54" width="4152.23" height="2952.7" fill="#fff"/></g><g clip-path="url(#clip-path-2)"><image width="5000" height="3333" transform="translate(9.16 -281.35) scale(0.38)" xlink:href="../Assets2/restaurant-interior.jpg"/></g><polygon points="1021.68 713.35 964 814.34 906.32 713.35 -1 713.35 -1 1120 1919 1120 1919 713.35 1021.68 713.35" fill="#f2f2f3"/><polyline points="48.68 722.89 894.54 722.89 965.31 837.01 1034.21 722.89 1858.52 722.89" fill="none" stroke-miterlimit="10" stroke-width="3" stroke="url(#Degradado_sin_nombre_12)"/><text transform="translate(863.3 117.5)" font-size="40" fill="#d33527" font-family="Bebas"><tspan letter-spacing="0.02em">s</tspan><tspan x="22.13" y="0" letter-spacing="0.03em">o</tspan><tspan x="43.89" y="0" letter-spacing="0em">l</tspan><tspan x="62.21" y="0" letter-spacing="0.02em">u</tspan><tspan x="83.92" y="0" letter-spacing="0.02em">c</tspan><tspan x="105.34" y="0" letter-spacing="0.03em">i</tspan><tspan x="115.45" y="0" letter-spacing="0.03em">o</tspan><tspan x="137.18" y="0">n</tspan></text><line x1="108.55" y1="105.3" x2="822.67" y2="105.3" fill="none" stroke="#d33527" stroke-miterlimit="10"/><line x1="1059.55" y1="105.3" x2="1773.67" y2="105.3" fill="none" stroke="#d33527" stroke-miterlimit="10"/><text transform="translate(534.12 926.42)" font-size="33" fill="#606060" font-family="Montserrat-Regular, Montserrat"><tspan letter-spacing="-0.02em">F</tspan><tspan x="20.2" y="0" letter-spacing="0em">a</tspan><tspan x="39.73" y="0">cilita</tspan><tspan x="117.81" y="0" letter-spacing="0em">m</tspan><tspan x="152.89" y="0" letter-spacing="0em">os un sof</tspan><tspan x="299.57" y="0" letter-spacing="-0.01em">t</tspan><tspan x="312.64" y="0" letter-spacing="-0.02em">w</tspan><tspan x="341.12" y="0" letter-spacing="0em">a</tspan><tspan x="360.59" y="0" letter-spacing="-0.01em">r</tspan><tspan x="373.39" y="0">e que gestiona y </tspan><tspan x="653.79" y="0" letter-spacing="0em">a</tspan><tspan x="673.32" y="0">dminist</tspan><tspan x="800.34" y="0" letter-spacing="-0.01em">r</tspan><tspan x="813.28" y="0">a</tspan><tspan x="107.64" y="39.6">las </tspan><tspan x="160.77" y="39.6" letter-spacing="-0.01em">r</tspan><tspan x="173.58" y="39.6">ese</tspan><tspan x="229.58" y="39.6" letter-spacing="0.02em">r</tspan><tspan x="243.31" y="39.6" letter-spacing="-0.02em">v</tspan><tspan x="260.66" y="39.6">as de </tspan><tspan x="355.87" y="39.6" letter-spacing="-0.02em">t</tspan><tspan x="368.64" y="39.6" letter-spacing="0em">odos tus </tspan><tspan x="517.57" y="39.6" letter-spacing="-0.01em">r</tspan><tspan x="530.37" y="39.6">estau</tspan><tspan x="621.51" y="39.6" letter-spacing="-0.01em">r</tspan><tspan x="634.45" y="39.6">an</tspan><tspan x="676.26" y="39.6" letter-spacing="-0.02em">t</tspan><tspan x="689.03" y="39.6">es</tspan></text></svg>