<svg xmlns="http://www.w3.org/2000/svg" xmlns:xlink="http://www.w3.org/1999/xlink" viewBox="0 0 1920 1080"><defs><radialGradient id="_ÂÁ_Ï_ÌÌ_È_ËÂÌÚ_12" cx="-11669.35" cy="-1301814.43" r="255.37" gradientTransform="matrix(0, -1.91, 0.35, 0, 452597.24, -21684.64)" gradientUnits="userSpaceOnUse"><stop offset="0.07"/><stop offset="0.17" stop-color="#393939"/><stop offset="0.27" stop-color="#6d6d6d"/><stop offset="0.37" stop-color="#9a9a9a"/><stop offset="0.47" stop-color="#bebebe"/><stop offset="0.57" stop-color="#dbdbdb"/><stop offset="0.67" stop-color="#efefef"/><stop offset="0.77" stop-color="#fbfbfb"/><stop offset="0.87" stop-color="#fff"/></radialGradient><clipPath id="clip-path"><path d="M900.52-700.84H905q6.83,0,9.28,2.69c1.64,1.8,2.46,4.91,2.46,9.35s-.95,7.75-2.86,9.49-5.09,2.63-9.55,2.63h-3.85Zm-10.23-7.31v73.07h10.23v-34.28h7.93l9.66,34.28H928l-10.5-36.66q9.09-3,9.08-17.06,0-10.28-5.2-14.81T905-708.15Z" fill="none"/></clipPath><clipPath id="clip-path-2"><polygon points="937.38 -708.15 937.38 -635.07 966.04 -635.07 966.04 -642.39 947.61 -642.39 947.61 -669.19 962.41 -669.19 962.41 -676.46 947.61 -676.46 947.61 -700.61 965.82 -700.61 965.82 -708.15 937.38 -708.15" fill="none"/></clipPath><clipPath id="clip-path-3"><path d="M989.52-708.86q-8,.09-12.65,4.52T972.24-692a21.77,21.77,0,0,0,1.71,9.1,21.69,21.69,0,0,0,5.43,7.07l12.31,10.89c1.39,1.29,2.46,2.33,3.21,3.1a25.74,25.74,0,0,1,2.39,2.93,11.85,11.85,0,0,1,1.82,3.71,15.49,15.49,0,0,1,.55,4.27c0,2.82-.68,5-2.06,6.42a7.87,7.87,0,0,1-6,2.18q-9.44,0-10.41-15.69l-9.12,2.47q.57,9.87,5.42,15.55t14.11,5.69q7.85,0,12.72-4.69t4.87-12.72a21.91,21.91,0,0,0-2.86-11.2,38.14,38.14,0,0,0-7.68-9.25L986.24-683a16.75,16.75,0,0,1-3.72-4.54,11.69,11.69,0,0,1-1.11-5.38q0-7.44,8.11-8a8.92,8.92,0,0,1,3.9.55,7.07,7.07,0,0,1,2.7,1.86,10.07,10.07,0,0,1,1.73,3,20.25,20.25,0,0,1,1,3.72c.2,1.23.37,2.65.48,4.23l8.64-2.38q-.88-9.74-5.27-14.39T990-708.86h-.48" fill="none"/></clipPath><clipPath id="clip-path-4"><polygon points="1017.25 -708.15 1017.25 -635.07 1045.92 -635.07 1045.92 -642.39 1027.49 -642.39 1027.49 -669.19 1042.28 -669.19 1042.28 -676.46 1027.49 -676.46 1027.49 -700.61 1045.7 -700.61 1045.7 -708.15 1017.25 -708.15" fill="none"/></clipPath><clipPath id="clip-path-5"><polygon points="1129.91 -708.15 1118.83 -654.33 1107.23 -708.15 1097.66 -708.15 1114.05 -635.07 1123 -635.07 1139.26 -708.15 1129.91 -708.15" fill="none"/></clipPath><clipPath id="clip-path-6"><path d="M1161.19-693.78l6.15,33h-12.27Zm-5-14.37-15.69,73.08h9.7l3.5-18.43h14.93l3.37,18.43h9.74l-15.68-73.08Z" fill="none"/></clipPath><clipPath id="clip-path-7"><path d="M1144-552c-2.07-20-5.61-56.82-3.5-56.82,2.49,0,8.27,33.22,11.62,53.83,9.91.49,27.28.62,28-4.28a45.65,45.65,0,0,1,0,5.89c-.54,4.82-17,4.84-27.06,4.4,1,6,1.57,10,1.57,10l-9.32-.52s-.31-2.82-.78-7.28c-1.19,1.88-4.19,4-12,4-7.68,0-16.83-1.38-23.52-2.6,1.09,6,1.77,9.93,1.77,9.93L1100-537.88s-.41-3.23-1-8.3c-1.72,1.82-6.41,5.39-17.25,6-11,.65-24.21-1.7-33.32-3.76,1.16,6,1.89,10,1.89,10l-12.81-3.56s-.37-3.42-.91-8.76c-3.29,1.63-16.6,7.22-43.08,7.22s-39.78-5.59-43.09-7.22c-.53,5.34-.91,8.76-.91,8.76l-12.8,3.56s.74-3.94,1.9-10c-9.11,2.06-22.31,4.41-33.33,3.76-10.83-.65-15.53-4.22-17.26-6-.59,5.07-1,8.3-1,8.3l-10.76,2.41s.68-3.93,1.77-9.93c-6.69,1.22-15.85,2.6-23.52,2.6-7.84,0-10.84-2.15-12-4-.47,4.46-.79,7.28-.79,7.28l-9.3.52s.6-4,1.55-10c-10.08.44-26.51.42-27-4.4a47.62,47.62,0,0,1,0-5.89c.71,4.9,18.08,4.77,28,4.28,3.35-20.61,9.14-53.83,11.62-53.83,2.11,0-1.43,36.87-3.5,56.82,1.51,1.65,4.7,3.28,11.48,3.28,8.11,0,17.9-1.55,24.65-2.82,4-21.6,10.95-57.28,13.54-57.28,2.17,0-1.72,36.67-4.08,57.29,2.11,1.92,6.85,4.88,16.64,5.46,11.51.68,25.42-1.91,34.53-4,4.29-22,11.72-58.71,13.57-58.71,2.76,0-.36,36.05-2.39,56.91,4,1.86,17.18,7,42.52,7s38.52-5.1,42.52-7c-2-20.86-5.14-56.91-2.4-56.91,1.86,0,9.29,36.69,13.58,58.71,9.12,2.13,23,4.72,34.53,4,9.8-.58,14.53-3.54,16.63-5.46-2.35-20.62-6.24-57.29-4.07-57.29,2.59,0,9.56,35.68,13.54,57.28,6.75,1.27,16.54,2.82,24.65,2.82,6.78,0,10-1.63,11.48-3.28M825.93-615.36c-11,0-19.85,2.43-19.85,5.44v1.45s-6.49,59.76-5.62,67c.81,6.79,35.72,3.81,35.72,3.81s-1,6.53,13.15,6.53,33.47-4.36,33.47-4.36,3.55,6.1,18.6,7c19.35,1.09,45.39-6.4,45.39-6.4s13.4,7.49,45.14,7.49,45.14-7.49,45.14-7.49,26,7.49,45.38,6.4c15-.85,18.6-7,18.6-7s19.35,4.36,33.49,4.36,13.14-6.53,13.14-6.53,34.91,3,35.72-3.81c.86-7.28-5.63-67-5.63-67v-1.45c0-3-8.88-5.44-19.83-5.44Z" fill="none"/></clipPath></defs><title>slide</title><g style="isolation:isolate"><g id="Layer_1" data-name="Layer 1"><path d="M217.89,391.33H309.5V713H248.72V448.84H182.46Z" fill="#a7aeb0"/><path d="M397,324.1a229.67,229.67,0,0,0-95.84,20.81V764.55A229.83,229.83,0,0,0,397,785.36c127.37,0,230.63-103.26,230.63-230.63S524.41,324.1,397,324.1Z" fill="#a7aeb0"/><path d="M301.2,185.77V925.24s-68.34-115-68.34-369.74C232.86,307.85,301.2,185.77,301.2,185.77Z" fill="url(#_ÂÁ_Ï_ÌÌ_È_ËÂÌÚ_12)" style="mix-blend-mode:multiply"/><text transform="translate(857.94 485.84)" font-size="22" fill="#7e7f7f" font-family="ProximaNova-Regular, Proxima Nova">Con<tspan x="39.58" y="0" letter-spacing="0.07em"> </tspan><tspan x="46.77" y="0">el</tspan><tspan x="64.11" y="0" letter-spacing="0.07em"> </tspan><tspan x="71.31" y="0">fin</tspan><tspan x="94.63" y="0" letter-spacing="0.07em"> </tspan><tspan x="101.82" y="0">de</tspan><tspan x="126.86" y="0" letter-spacing="0.07em"> </tspan><tspan x="134.05" y="0">demostrar</tspan><tspan x="232.26" y="0" letter-spacing="0.07em"> </tspan><tspan x="239.46" y="0">lo</tspan><tspan x="256.99" y="0" letter-spacing="0.07em"> </tspan><tspan x="264.19" y="0">aprendido</tspan><tspan x="362.97" y="0" letter-spacing="0.07em"> </tspan><tspan x="370.17" y="0">en</tspan><tspan x="394.67" y="0" letter-spacing="0.07em"> </tspan><tspan x="401.87" y="0">el</tspan><tspan x="419.21" y="0" letter-spacing="0.07em"> </tspan><tspan x="426.4" y="0">Bootcamp</tspan><tspan x="524.72" y="0" letter-spacing="0.07em"> </tspan><tspan x="531.92" y="0">de</tspan><tspan x="556.95" y="0" letter-spacing="0.07em"> </tspan><tspan x="564.15" y="0">desarrollo</tspan><tspan x="660.6" y="0" letter-spacing="0.07em"> </tspan><tspan x="667.79" y="0">we</tspan><tspan x="696.33" y="0" letter-spacing="-0.01em">b</tspan><tspan x="708.82" y="0">,</tspan><tspan x="713.88" y="0" letter-spacing="0.07em"> </tspan><tspan x="721.08" y="0">se </tspan><tspan x="0" y="26.4">nos</tspan><tspan x="34.94" y="26.4" letter-spacing="0.16em"> </tspan><tspan x="44.03" y="26.4">ha</tspan><tspan x="67.77" y="26.4" letter-spacing="0.16em"> </tspan><tspan x="76.87" y="26.4">retado</tspan><tspan x="139.81" y="26.4" letter-spacing="0.16em"> </tspan><tspan x="148.9" y="26.4">hacer</tspan><tspan x="203.18" y="26.4" letter-spacing="0.16em"> </tspan><tspan x="212.27" y="26.4">una</tspan><tspan x="248.11" y="26.4" letter-spacing="0.16em"> </tspan><tspan x="257.21" y="26.4">app</tspan><tspan x="293.97" y="26.4" letter-spacing="0.16em"> </tspan><tspan x="303.07" y="26.4">totalmente</tspan><tspan x="406.27" y="26.4" letter-spacing="0.16em"> </tspan><tspan x="415.37" y="26.4">funcional</tspan><tspan x="502.92" y="26.4" letter-spacing="0.16em"> </tspan><tspan x="512.02" y="26.4">en</tspan><tspan x="536.53" y="26.4" letter-spacing="0.16em"> </tspan><tspan x="545.63" y="26.4">3</tspan><tspan x="557.88" y="26.4" letter-spacing="0.16em"> </tspan><tspan x="566.98" y="26.4">semanas.</tspan><tspan x="657.97" y="26.4" letter-spacing="0.16em"> </tspan><tspan x="667.06" y="26.4">Nuestro </tspan><tspan x="0.69" y="52.8">proceso de desarrollo de la misma fue llevado a cabo de manera sistematica.</tspan><tspan x="0" y="105.6">Decidimos</tspan><tspan x="101.81" y="105.6" letter-spacing="0.27em"> </tspan><tspan x="113.46" y="105.6">desarrollar</tspan><tspan x="216.17" y="105.6" letter-spacing="0.27em"> </tspan><tspan x="227.82" y="105.6">Mi</tspan><tspan x="250.57" y="105.6" letter-spacing="-0.03em">R</tspan><tspan x="263.28" y="105.6">eserva</tspan><tspan x="327.92" y="105.6" letter-spacing="0.27em"> </tspan><tspan x="339.56" y="105.6">porque</tspan><tspan x="409.08" y="105.6" letter-spacing="0.27em"> </tspan><tspan x="420.72" y="105.6">era</tspan><tspan x="451.96" y="105.6" letter-spacing="0.27em"> </tspan><tspan x="463.61" y="105.6">un</tspan><tspan x="487.85" y="105.6" letter-spacing="0.27em"> </tspan><tspan x="499.49" y="105.6">reto</tspan><tspan x="538.19" y="105.6" xml:space="preserve" letter-spacing="0.27em">  </tspan><tspan x="561.48" y="105.6">abarcable</tspan><tspan x="657.04" y="105.6" letter-spacing="0.27em"> </tspan><tspan x="668.69" y="105.6">con</tspan><tspan x="704.28" y="105.6" letter-spacing="0.27em"> </tspan><tspan x="715.93" y="105.6">los </tspan><tspan x="146.69" y="132">conocimientos adquiridos en la HomeOfCode</tspan><tspan x="586.51" y="132" letter-spacing="-0.08em">r</tspan><tspan x="591.95" y="132">.</tspan><tspan x="235.17" y="184.8">Aquí tenemos los resultados</tspan></text><text transform="translate(360.66 577.71)" font-size="41.24" fill="#fff" font-family="Bebas"><tspan letter-spacing="0.03em">I</tspan><tspan x="10.49" y="0" letter-spacing="0.02em">nt</tspan><tspan x="55.77" y="0">r</tspan><tspan x="78.15" y="0" letter-spacing="0.03em">o</tspan><tspan x="100.56" y="0" letter-spacing="0.02em">d</tspan><tspan x="122.79" y="0">u</tspan><tspan x="0" y="49.49" letter-spacing="0.02em">c</tspan><tspan x="22" y="49.49" letter-spacing="0.02em">c</tspan><tspan x="44.08" y="49.49" letter-spacing="0.03em">i</tspan><tspan x="54.51" y="49.49" letter-spacing="0.03em">o</tspan><tspan x="76.92" y="49.49">n</tspan></text><path d="M383.7,487.32a4.2,4.2,0,0,0-1.66-3.11l-5.66-3.8A25.63,25.63,0,0,0,374,479h-.35c-1,0-1.05.11-1.05.11a10.57,10.57,0,0,0-.86,3.8v8.7c0,1.1,0,2,0,2v10.71c0,1.1,0,2.22.06,2.49l.09.22a.54.54,0,0,1,.05.11,2,2,0,0,0,.95.91l.13.05a1.86,1.86,0,0,0,.58.11h.08a1.76,1.76,0,0,0,.39-.06l.13,0,.18-.05.33-.19h0l1.66-1.12L382,503l1.66-1.11h0V487.32Zm-9.05-2.59c0-1.1.75-1.5,1.66-.89l2.84,1.91a4.2,4.2,0,0,1,1.66,3.11v2.72a2,2,0,0,1-2,2h-2.16a2,2,0,0,1-2-2Z" fill="#fff"/><path d="M383.7,487.32a4.2,4.2,0,0,0-1.66-3.11l-5.66-3.8A25.63,25.63,0,0,0,374,479h-.35c-1,0-1.05.11-1.05.11a10.57,10.57,0,0,0-.86,3.8v8.7c0,1.1,0,2,0,2v10.71c0,1.1,0,2.22.06,2.49l.09.22a.54.54,0,0,1,.05.11,2,2,0,0,0,.95.91l.13.05a1.86,1.86,0,0,0,.58.11h.08a1.76,1.76,0,0,0,.39-.06l.13,0,.18-.05.33-.19h0l1.66-1.12L382,503l1.66-1.11h0V487.32Zm-9.05-2.59c0-1.1.75-1.5,1.66-.89l2.84,1.91a4.2,4.2,0,0,1,1.66,3.11v2.72a2,2,0,0,1-2,2h-2.16a2,2,0,0,1-2-2Z" fill="#fff"/><path d="M442.47,473.17a1.48,1.48,0,0,0-1.94-1.51l-52.26,13.17a2.71,2.71,0,0,0-1.94,2.49v14.51h0l1.94.49,2.05.51,2,.5a2.8,2.8,0,0,1-.15.76c-.1.41-.2.85-.21,1l0,.11A8.44,8.44,0,0,0,392,509a8.17,8.17,0,0,0,5.48,6l.22.07c.24.09,1.3.39,2.37.66l11.44,2.93c1.06.28,2.25.56,2.64.63a17.34,17.34,0,0,0,2.56.06l.54-.11a8.35,8.35,0,0,0,6.12-4.93l.19-.42c.14-.48.34-1.16.43-1.5s.18-.71.2-.81a6.15,6.15,0,0,1,2,.31l14.37,3.63,1.94.48h0V473.17Zm-53.25,16.41a2.71,2.71,0,0,1,1.94-2.49l46.48-11.72a1.49,1.49,0,0,1,1.94,1.51v14.7a2,2,0,0,1-2,2H391.22a2,2,0,0,1-2-2ZM414.28,516h0l-2-.5-11.44-2.93a25,25,0,0,1-3.74-1.37,3.92,3.92,0,0,1-1.41-1.54,5.21,5.21,0,0,1-.61-3.64l0-.11c0-.12.07-.37.11-.56l.2-.75c.05-.23,1-.19,2,.08l21.62,5.45c1.07.27,1.85.85,1.74,1.29a11.71,11.71,0,0,1-1.33,2.45,5.41,5.41,0,0,1-3.95,2.29h-.07A4.87,4.87,0,0,1,414.28,516Z" fill="#fff"/><path d="M442.47,473.17a1.48,1.48,0,0,0-1.94-1.51l-52.26,13.17a2.71,2.71,0,0,0-1.94,2.49v14.51h0l1.94.49,2.05.51,2,.5a2.8,2.8,0,0,1-.15.76c-.1.41-.2.85-.21,1l0,.11A8.44,8.44,0,0,0,392,509a8.17,8.17,0,0,0,5.48,6l.22.07c.24.09,1.3.39,2.37.66l11.44,2.93c1.06.28,2.25.56,2.64.63a17.34,17.34,0,0,0,2.56.06l.54-.11a8.35,8.35,0,0,0,6.12-4.93l.19-.42c.14-.48.34-1.16.43-1.5s.18-.71.2-.81a6.15,6.15,0,0,1,2,.31l14.37,3.63,1.94.48h0V473.17Zm-53.25,16.41a2.71,2.71,0,0,1,1.94-2.49l46.48-11.72a1.49,1.49,0,0,1,1.94,1.51v14.7a2,2,0,0,1-2,2H391.22a2,2,0,0,1-2-2ZM414.28,516h0l-2-.5-11.44-2.93a25,25,0,0,1-3.74-1.37,3.92,3.92,0,0,1-1.41-1.54,5.21,5.21,0,0,1-.61-3.64l0-.11c0-.12.07-.37.11-.56l.2-.75c.05-.23,1-.19,2,.08l21.62,5.45c1.07.27,1.85.85,1.74,1.29a11.71,11.71,0,0,1-1.33,2.45,5.41,5.41,0,0,1-3.95,2.29h-.07A4.87,4.87,0,0,1,414.28,516Z" fill="#fff"/><path d="M383.7,487.32a4.2,4.2,0,0,0-1.66-3.11l-5.66-3.8A25.63,25.63,0,0,0,374,479h-.35c-1,0-1.05.11-1.05.11a10.57,10.57,0,0,0-.86,3.8v8.7c0,1.1,0,2,0,2v10.71c0,1.1,0,2.22.06,2.49l.09.22a.54.54,0,0,1,.05.11,2,2,0,0,0,.95.91l.13.05a1.86,1.86,0,0,0,.58.11h.08a1.76,1.76,0,0,0,.39-.06l.13,0,.18-.05.33-.19h0l1.66-1.12L382,503l1.66-1.11h0V487.32Zm-9.05-2.59c0-1.1.75-1.5,1.66-.89l2.84,1.91a4.2,4.2,0,0,1,1.66,3.11v2.72a2,2,0,0,1-2,2h-2.16a2,2,0,0,1-2-2Z" fill="#fff"/><path d="M442.47,473.17a1.48,1.48,0,0,0-1.94-1.51l-52.26,13.17a2.71,2.71,0,0,0-1.94,2.49v14.51h0l1.94.49,2.05.51,2,.5a2.8,2.8,0,0,1-.15.76c-.1.41-.2.85-.21,1l0,.11A8.44,8.44,0,0,0,392,509a8.17,8.17,0,0,0,5.48,6l.22.07c.24.09,1.3.39,2.37.66l11.44,2.93c1.06.28,2.25.56,2.64.63a17.34,17.34,0,0,0,2.56.06l.54-.11a8.35,8.35,0,0,0,6.12-4.93l.19-.42c.14-.48.34-1.16.43-1.5s.18-.71.2-.81a6.15,6.15,0,0,1,2,.31l14.37,3.63,1.94.48h0V473.17Zm-53.25,16.41a2.71,2.71,0,0,1,1.94-2.49l46.48-11.72a1.49,1.49,0,0,1,1.94,1.51v14.7a2,2,0,0,1-2,2H391.22a2,2,0,0,1-2-2ZM414.28,516h0l-2-.5-11.44-2.93a25,25,0,0,1-3.74-1.37,3.92,3.92,0,0,1-1.41-1.54,5.21,5.21,0,0,1-.61-3.64l0-.11c0-.12.07-.37.11-.56l.2-.75c.05-.23,1-.19,2,.08l21.62,5.45c1.07.27,1.85.85,1.74,1.29a11.71,11.71,0,0,1-1.33,2.45,5.41,5.41,0,0,1-3.95,2.29h-.07A4.87,4.87,0,0,1,414.28,516Z" fill="#fff"/></g></g></svg>