<svg id="Layer_1" data-name="Layer 1" xmlns="http://www.w3.org/2000/svg" xmlns:xlink="http://www.w3.org/1999/xlink" viewBox="0 0 1920 1080"><defs><clipPath id="clip-path"><circle cx="954.69" cy="277.51" r="141.65" fill="#dbdbdb" stroke="#d33527" stroke-miterlimit="10" stroke-width="4"/></clipPath><linearGradient id="linear-gradient" x1="951.62" y1="424.41" x2="951.62" y2="303.43" gradientUnits="userSpaceOnUse"><stop offset="0" stop-color="#f2f2f2"/><stop offset="0.27" stop-color="#eee"/><stop offset="0.53" stop-color="#e3e3e2"/><stop offset="0.79" stop-color="#cfcfcf"/><stop offset="1" stop-color="#babab9"/></linearGradient></defs><title>slide</title><text transform="translate(857 513.8)" font-size="45.4" fill="#606060" font-family="BebasNeueBook, Bebas Neue">RES<tspan x="50.26" y="0" letter-spacing="-0.04em">T</tspan><tspan x="65.29" y="0">AURANTE</tspan></text><text transform="translate(893.05 470)" font-size="45.4" fill="#606060" font-family="BebasNeueBook, Bebas Neue">USUARIO</text><circle cx="954.69" cy="277.51" r="141.65" fill="#dbdbdb"/><g clip-path="url(#clip-path)"><ellipse cx="956.34" cy="262.72" rx="77.33" ry="73.36" fill="#a8a8a8"/><path d="M986.92,317.2s-13.31,47.16,4.27,63.08c3.66,3.31,16.42,7.64,16.42,7.64l.95,3.62s-.11-5.38,3.29-1.86,13.57,5.28,13.57,5.28l19.08,10.56s11.88,6.6,11.88,9.24v2.64H846.87l19.51-17.16,14.84-3.52s5.09-6.16,7.63-5.28l2.55.88L896,388s19.46-8.95,24-16.2c8.58-13.67,4.28-48.44,4.28-48.44Z" fill="url(#linear-gradient)"/><path d="M910.65,308.25s-6.66,11.42,21.63,37.66c2.53,2.35,8.22,9.5,10.94,10.54,9.93,3.81,15.33,1.25,20.88-.4,4.45-1.32,10.45-8.29,10.45-8.29s23.53-18.08,24-27.29,3.32-12.22,3.32-12.22.64-1.22,3-.09c4.14,2,6.56-6,7.32-14.71.59-6.69-3.12-15.25-7.36-14.85s-2.53,1.09-2.53,1.09c0-.48.35-8.41-1.24-14.61-2.41-9.39,1.36-32.29-8.82-38.3s-3.26-8.58-18-12.89c-6.29-1.84-29.91,3.16-38,.36S915,241,912.29,246.49c-3.34,6.77-2.07,34.52-1.64,39.33l.42,4.8s-3-12.82-5.51-13.62-7.21-.8-6.36,8.82-1.63,3.33,5.51,20C908.89,315.62,910.65,308.25,910.65,308.25Z" fill="#f4f4f4"/><path d="M918.61,371.26c-4.3-4.29-8.21-8.51-11.78-12.67A128.67,128.67,0,0,0,918.61,371.26Z" fill="#a8a8a8"/><path d="M916.47,362.07a17,17,0,0,0,3,1.69C918.44,363.24,917.44,362.67,916.47,362.07Z" fill="#a8a8a8"/><path d="M1043.81,262.67l-.07.11a69.74,69.74,0,0,0-2.75-17c-23-80.44-53.54-77.57-58-78.15s-16,7.18-16,7.18-38.44-27.6-76.07,32.33c-12.24,19.48-18.75,35.94-21.5,49.82-1,2.57-2.16,5.37-3.32,8.43-2.75,7.22-1.23,10.82,1.9,12.45a61,61,0,0,0,1.62,10.26c0,1.81.09,3.68.25,5.61-1.9,4.06-3.47,9.33-.24,12.41-.72,7.74,2.48,12.68,7.89,14.88,4.72,9.62,12,19.66,22.85,29.58q3,3.94,6.47,8c-1.77-2.15-3.65-4.55-5.58-7.17a153.28,153.28,0,0,0,19.37,14.64A132.62,132.62,0,0,1,898,346.28c-1.88-2.81-4.27-8.07-5-17.17,3.1,9.25,10,24.62,23.43,33a28.51,28.51,0,0,1-10.55-13.9,15.08,15.08,0,0,0,5.19.31c.69-.07,6.64-2.6,14.14-8.65,0,0-12.54,8.48-20.29,5.36a48.52,48.52,0,0,1-1.08-18.26,12.38,12.38,0,0,0,1.3-.77c14.85,1.92,24.31-13.39,42-69.63,18.16-57.7,28.78-40.46,28.78-40.46,6.44,12.76,13.71,25.15,24.33,34.07A130.63,130.63,0,0,1,985.07,231c8.36,10.25,12,4,26,34.76,18.24,39.93-15.4,59.73-15.4,59.73a85.23,85.23,0,0,0,14.07-7,45.59,45.59,0,0,1-4.65,11.91,22.61,22.61,0,0,1-5.26-4.13,21.49,21.49,0,0,0,4.81,4.87c-.21.33-.43.65-.64,1-3.75,5.19-8.08-1.44-8.08-1.44a6.73,6.73,0,0,0,4,4c1.73,1.21,3.72-.17,5.72-2.85a13.17,13.17,0,0,0,5.85,2c-.23.62-.48,1.21-.73,1.76.31-.52.64-1.1,1-1.75,8.86.38,11.26-16.2,11.9-24.87l1.8-2.61a64.57,64.57,0,0,0,12-15.89c-2.16,6.43-4.44,11.43-4.44,11.43,3.24-6.47,4.58-10.46,7.36-18a125.55,125.55,0,0,1-5.18,13.88C1046.19,275.8,1043.81,262.67,1043.81,262.67ZM867.87,276c-3.24-1.13-1.76-8.38,1.07-16.43A77.53,77.53,0,0,0,867.87,276ZM889,325.29a21.54,21.54,0,0,1-4-1.68c-.21-.47-.41-.94-.61-1.42a22.57,22.57,0,0,0,3.81-.43C888.46,322.87,888.72,324.06,889,325.29Zm-19-22.18a10.31,10.31,0,0,1,.25-5.56C870.88,302,870.81,298.7,870,303.11Zm1.62,4.35c1.63.71-.25-1,3.48,8.24a10.36,10.36,0,0,0,.37,1.43C872.38,315.43,871.53,311.54,871.65,307.46Zm3.87,2c-.13-.4-.26-.81-.38-1.22.26,0,.54,0,.82,0C875.8,308.69,875.65,309.09,875.52,309.48Zm-1.09-3.69q-.9-3.33-1.49-6.81c.38-1.54-.42-.85,3.53,5.69q.19.72.42,1.44A9.67,9.67,0,0,1,874.43,305.79Zm4.94,12.94c-.11-.18-.21-.36-.3-.53l-.28-.28q-1-2.21-1.86-4.47a10.32,10.32,0,0,1,.94-4.17c.39,1.2.81,2.42,1.26,3.65a6.18,6.18,0,0,0,.82,2.16c.53,1.37,1.09,2.76,1.69,4.16A13.81,13.81,0,0,1,879.37,318.73Zm1.63-7.5c1.26,1.61,2.52,3.09,3.74,4.44C882,315.43,881,313.61,881,311.23Zm6.3,7.16c.43.44.33.26.43.82a21.3,21.3,0,0,1-4.45.21c-.27-.68-.53-1.36-.79-2.05A11.08,11.08,0,0,0,887.3,318.39Zm-4.25,4c-.42-.29-.36-.22-.1-.21Zm-.47,3a22.72,22.72,0,0,0,2.52,1.24,145.39,145.39,0,0,0,8.83,15A111,111,0,0,1,882.58,325.37Zm14.67,20.09c-2.49-2.75-8.21-13.27-10.57-18.23a28.94,28.94,0,0,0,3.06.86C891.35,334,893.76,340.62,897.25,345.46Zm119.39-31.61c.7-.52,1.4-1.05,2.11-1.61.15.82.42.16-2.42,4.72C1016.45,316,1016.55,314.93,1016.64,313.85ZM1006.3,331c2.63-3.86,5.22-9.8,7.2-14.91.69-.46,1.38-.94,2.08-1.44-.15,1.23-.35,2.78-.61,4.51-1.25,2-1.4,2.13,0,.23a86.37,86.37,0,0,1-2.83,12.93A11,11,0,0,1,1006.3,331Zm12.18-5c-1.37,4.09-3.54,5.84-5.93,6.25a53.15,53.15,0,0,0,3.72-14.76c.94-1.35,1.84-2.65,2.7-3.92C1019.57,317.55,1019.75,322.18,1018.48,326Zm5.28-17.64c0-.51-.08-.29.55-.88Z" fill="#a8a8a8"/><path d="M999.88,326.22l-.16-.24A.79.79,0,0,0,999.88,326.22Z" fill="#a8a8a8"/><path d="M1007.8,339.25c1.15-.46,2.16-1.83,3.05-3.72A12.8,12.8,0,0,1,1007.8,339.25Z" fill="#a8a8a8"/></g><circle cx="954.69" cy="277.51" r="141.65" fill="none" stroke="#d33527" stroke-miterlimit="10" stroke-width="4"/><text transform="translate(152.34 711.21) scale(0.94 1)" font-size="153.13" fill="#f2f2f2" font-family="BebasNeueRegular, Bebas Neue">01</text><ellipse cx="254.72" cy="743.98" rx="57.7" ry="61.5" fill="#d33527"/><ellipse cx="254.72" cy="743.98" rx="45.7" ry="48.71" fill="#fff"/><ellipse cx="254.72" cy="743.98" rx="34.52" ry="36.8" fill="#d33527"/><ellipse cx="254.72" cy="743.98" rx="22.03" ry="23.48" fill="#fff"/><ellipse cx="254.72" cy="743.98" rx="10.19" ry="10.86" fill="#d33527"/><line x1="254.72" y1="743.98" x2="299" y2="718.56" fill="none" stroke="#443c83" stroke-miterlimit="10"/><polygon points="312.47 716.94 295.35 727.33 288.03 724.74 289.87 717.06 306.98 706.67 305.74 714.23 312.47 716.94" fill="#443c83"/><text transform="translate(368.94 745.84)" font-size="29.44" fill="#444" font-family="BebasNeueRegular, Bebas Neue">ACCESO A UN<tspan x="0" y="35.33">res</tspan><tspan x="33.15" y="35.33" letter-spacing="-0.04em">t</tspan><tspan x="42.63" y="35.33">aurante</tspan></text><polyline points="307.47 640.62 566.79 640.62 566.79 860.18 307.47 860.18 307.47 831.54" fill="none" stroke="#d33527" stroke-miterlimit="10"/><text transform="translate(729.56 711.21) scale(0.94 1)" font-size="153.13" fill="#f2f2f2" font-family="BebasNeueRegular, Bebas Neue">02</text><path d="M813.49,800.22l-4.17-3a4.21,4.21,0,0,1-1-5.87l28-39.5,11,7.85-28.06,39.5A4.21,4.21,0,0,1,813.49,800.22Z" fill="#d33527"/><polygon points="835.35 776.79 847.41 759.73 836.39 751.88 824.08 769.29 835.35 776.79" fill="#d33527"/><path d="M868.93,667a54,54,0,1,0,54,54A54,54,0,0,0,868.93,667Zm0,95.11a41.15,41.15,0,1,1,41.15-41.15A41.15,41.15,0,0,1,868.93,762.07Z" fill="#d33527"/><circle cx="868.76" cy="706.35" r="9.11" fill="#d33527"/><path d="M859.18,719.11h19.6a3,3,0,0,1,3,3v20.4a.81.81,0,0,1-.81.81H856.95a.81.81,0,0,1-.81-.81v-20.4A3,3,0,0,1,859.18,719.11Z" fill="#d33527"/><polyline points="888.21 640.62 1147.53 640.62 1147.53 860.17 888.21 860.17 888.21 831.54" fill="none" stroke="#d33527" stroke-miterlimit="10"/><text transform="translate(1306.89 711.21) scale(0.94 1)" font-size="153.13" fill="#f2f2f2" font-family="BebasNeueRegular, Bebas Neue">03</text><rect x="1360.14" y="692.98" width="137.14" height="104.04" rx="3.78" fill="#d33527"/><path d="M1360.14,777.68v32.49a3,3,0,0,0,5,2.13l20.44-19.57Z" fill="#d33527"/><rect x="1383.56" y="715.17" width="14" height="14" fill="none" stroke="#fff" stroke-linejoin="round" stroke-width="0.75"/><polyline points="1387.39 721.7 1390.19 724.13 1393.46 720.3" fill="none" stroke="#fff" stroke-linejoin="round" stroke-width="0.75"/><rect x="1383.56" y="739.54" width="14" height="14" fill="none" stroke="#fff" stroke-linejoin="round" stroke-width="0.75"/><polyline points="1387.39 746.07 1390.19 748.5 1393.46 744.67" fill="none" stroke="#fff" stroke-linejoin="round" stroke-width="0.75"/><rect x="1383.56" y="763.9" width="14" height="14" fill="none" stroke="#fff" stroke-linejoin="round" stroke-width="0.75"/><polyline points="1387.39 770.44 1390.19 772.87 1393.46 769.04" fill="none" stroke="#fff" stroke-linejoin="round" stroke-width="0.75"/><line x1="1412.52" y1="717.93" x2="1449.46" y2="717.93" fill="none" stroke="#fff" stroke-linejoin="round" stroke-width="0.75"/><line x1="1412.52" y1="725.54" x2="1466.94" y2="725.54" fill="none" stroke="#fff" stroke-linejoin="round" stroke-width="0.75"/><line x1="1412.52" y1="741.89" x2="1449.46" y2="741.89" fill="none" stroke="#fff" stroke-linejoin="round" stroke-width="0.75"/><line x1="1412.52" y1="749.51" x2="1466.94" y2="749.51" fill="none" stroke="#fff" stroke-linejoin="round" stroke-width="0.75"/><line x1="1412.52" y1="765.86" x2="1449.46" y2="765.86" fill="none" stroke="#fff" stroke-linejoin="round" stroke-width="0.75"/><line x1="1412.52" y1="773.47" x2="1466.94" y2="773.47" fill="none" stroke="#fff" stroke-linejoin="round" stroke-width="0.75"/><polyline points="1465.54 640.62 1724.87 640.62 1724.87 860.18 1465.54 860.18 1465.54 831.54" fill="none" stroke="#d33527" stroke-miterlimit="10"/><text transform="translate(946.02 733.16)" font-size="29.44" fill="#444" font-family="BebasNeueRegular, Bebas Neue">tiene <tspan x="53.05" y="0" letter-spacing="0em">a</tspan><tspan x="65.45" y="0">cceso a</tspan><tspan x="0" y="35.33">LAS RESE</tspan><tspan x="81.61" y="35.33" letter-spacing="0em">R</tspan><tspan x="93.15" y="35.33" letter-spacing="-0.02em">V</tspan><tspan x="104.72" y="35.33">AS</tspan><tspan x="0" y="70.66">DEL RES</tspan><tspan x="69.89" y="70.66" letter-spacing="-0.04em">T</tspan><tspan x="79.46" y="70.66">AURANTE</tspan></text><text transform="translate(1534.27 731.83)" font-size="29.44" fill="#444" font-family="BebasNeueRegular, Bebas Neue">PUEDE REALIZAR<tspan x="0" y="35.33">RESE</tspan><tspan x="43.75" y="35.33" letter-spacing="0em">R</tspan><tspan x="55.29" y="35.33" letter-spacing="-0.02em">V</tspan><tspan x="66.86" y="35.33">AS</tspan><tspan x="0" y="70.66">MANUALES</tspan></text></svg>