<svg xmlns="http://www.w3.org/2000/svg" xmlns:xlink="http://www.w3.org/1999/xlink" viewBox="0 0 1920 1080"><defs><filter id="luminosity-noclip" x="754.88" y="-15308.74" width="986.75" height="32766" filterUnits="userSpaceOnUse" color-interpolation-filters="sRGB"><feFlood flood-color="#fff" result="bg"/><feBlend in="SourceGraphic" in2="bg"/></filter><mask id="mask" x="754.88" y="-15308.74" width="986.75" height="32766" maskUnits="userSpaceOnUse"><g filter="url(#luminosity-noclip)"/></mask><radialGradient id="radial-gradient" cx="-2926.01" cy="-93260.79" r="252.22" gradientTransform="matrix(-1.96, 0, 0, 0.07, -4475.39, 6370.64)" gradientUnits="userSpaceOnUse"><stop offset="0" stop-color="#fff"/><stop offset="0.15" stop-color="#fcfcfc"/><stop offset="0.28" stop-color="#f1f1f1"/><stop offset="0.4" stop-color="#dfdfdf"/><stop offset="0.52" stop-color="#c6c6c6"/><stop offset="0.63" stop-color="#a6a6a6"/><stop offset="0.74" stop-color="#7f7f7f"/><stop offset="0.85" stop-color="#505050"/><stop offset="0.95" stop-color="#1b1b1b"/><stop offset="1"/></radialGradient><filter id="luminosity-noclip-2" x="769.37" y="-15308.74" width="943.47" height="32766" filterUnits="userSpaceOnUse" color-interpolation-filters="sRGB"><feFlood flood-color="#fff" result="bg"/><feBlend in="SourceGraphic" in2="bg"/></filter><mask id="mask-2" x="769.37" y="-15308.74" width="943.47" height="32766" maskUnits="userSpaceOnUse"><g filter="url(#luminosity-noclip-2)"/></mask><radialGradient id="radial-gradient-2" cx="-2929.87" cy="-86783.84" r="252.22" gradientTransform="matrix(-1.87, 0, 0, 0.07, -4238.72, 6370.64)" xlink:href="#radial-gradient"/><filter id="luminosity-noclip-3" x="778.45" y="-15308.74" width="943.47" height="32766" filterUnits="userSpaceOnUse" color-interpolation-filters="sRGB"><feFlood flood-color="#fff" result="bg"/><feBlend in="SourceGraphic" in2="bg"/></filter><mask id="mask-3" x="778.45" y="-15308.74" width="943.47" height="32766" maskUnits="userSpaceOnUse"><g filter="url(#luminosity-noclip-3)"/></mask><radialGradient id="radial-gradient-3" cx="-2934.72" cy="-85510.72" r="252.22" gradientTransform="matrix(-1.87, 0, 0, 0.07, -4238.72, 6370.64)" xlink:href="#radial-gradient"/><filter id="luminosity-noclip-4" x="754.88" y="-15308.74" width="972.47" height="32766" filterUnits="userSpaceOnUse" color-interpolation-filters="sRGB"><feFlood flood-color="#fff" result="bg"/><feBlend in="SourceGraphic" in2="bg"/></filter><mask id="mask-4" x="754.88" y="-15308.74" width="972.47" height="32766" maskUnits="userSpaceOnUse"><g filter="url(#luminosity-noclip-4)"/></mask><radialGradient id="radial-gradient-4" cx="-2924.76" cy="-91964.81" r="252.22" gradientTransform="matrix(-1.93, 0, 0, 0.07, -4397.3, 6370.64)" xlink:href="#radial-gradient"/><radialGradient id="radial-gradient-5" cx="-2924.76" cy="-90663.06" r="252.22" gradientTransform="matrix(-1.93, 0, 0, 0.07, -4397.3, 6370.64)" xlink:href="#radial-gradient"/><filter id="luminosity-noclip-6" x="755.03" y="-15308.74" width="943.47" height="32766" filterUnits="userSpaceOnUse" color-interpolation-filters="sRGB"><feFlood flood-color="#fff" result="bg"/><feBlend in="SourceGraphic" in2="bg"/></filter><mask id="mask-6" x="755.03" y="-15308.74" width="943.47" height="32766" maskUnits="userSpaceOnUse"><g filter="url(#luminosity-noclip-6)"/></mask><radialGradient id="radial-gradient-6" cx="-2922.2" cy="-89369.58" r="252.22" gradientTransform="matrix(-1.87, 0, 0, 0.07, -4238.72, 6370.64)" xlink:href="#radial-gradient"/><radialGradient id="radial-gradient-7" cx="-2929.87" cy="-88078.09" r="252.22" gradientTransform="matrix(-1.87, 0, 0, 0.07, -4238.72, 6370.64)" xlink:href="#radial-gradient"/><filter id="luminosity-noclip-8" x="754.88" y="286.65" width="986.75" height="16.41" filterUnits="userSpaceOnUse" color-interpolation-filters="sRGB"><feFlood flood-color="#fff" result="bg"/><feBlend in="SourceGraphic" in2="bg"/></filter><mask id="mask-8" x="754.88" y="286.65" width="986.75" height="16.41" maskUnits="userSpaceOnUse"><g mask="url(#mask)" filter="url(#luminosity-noclip-8)"><path d="M1248.25,286.65c272.48,0,493.37,7.35,493.37,16.41H754.88C754.88,294,975.77,286.65,1248.25,286.65Z" fill="url(#radial-gradient)" style="mix-blend-mode:multiply"/></g></mask><radialGradient id="radial-gradient-8" cx="-2926.01" cy="-93260.79" r="252.22" gradientTransform="matrix(-1.96, 0, 0, 0.07, -4475.39, 6370.64)" gradientUnits="userSpaceOnUse"><stop offset="0" stop-color="#cfd4d7"/><stop offset="0.31" stop-color="#d2d7da"/><stop offset="0.58" stop-color="#dde0e3"/><stop offset="0.83" stop-color="#eff0f1"/><stop offset="1" stop-color="#fff"/></radialGradient><filter id="luminosity-noclip-9" x="754.88" y="370.97" width="972.47" height="16.41" filterUnits="userSpaceOnUse" color-interpolation-filters="sRGB"><feFlood flood-color="#fff" result="bg"/><feBlend in="SourceGraphic" in2="bg"/></filter><mask id="mask-9" x="754.88" y="370.97" width="972.47" height="16.41" maskUnits="userSpaceOnUse"><g mask="url(#mask-4)" filter="url(#luminosity-noclip-9)"><path d="M1241.11,371c268.54,0,486.23,7.35,486.23,16.41H754.88C754.88,378.32,972.57,371,1241.11,371Z" fill="url(#radial-gradient-4)" style="mix-blend-mode:multiply"/></g></mask><radialGradient id="radial-gradient-9" cx="-2924.76" cy="-91964.81" r="252.22" gradientTransform="matrix(-1.93, 0, 0, 0.07, -4397.3, 6370.64)" xlink:href="#radial-gradient-8"/><filter id="luminosity-noclip-10" x="754.88" y="455.66" width="972.47" height="16.41" filterUnits="userSpaceOnUse" color-interpolation-filters="sRGB"><feFlood flood-color="#fff" result="bg"/><feBlend in="SourceGraphic" in2="bg"/></filter><mask id="mask-10" x="754.88" y="455.66" width="972.47" height="16.41" maskUnits="userSpaceOnUse"><g mask="url(#mask-4)" filter="url(#luminosity-noclip-10)"><path d="M1241.11,455.66c268.54,0,486.23,7.35,486.23,16.41H754.88C754.88,463,972.57,455.66,1241.11,455.66Z" fill="url(#radial-gradient-5)" style="mix-blend-mode:multiply"/></g></mask><radialGradient id="radial-gradient-10" cx="-2924.76" cy="-90663.06" r="252.22" gradientTransform="matrix(-1.93, 0, 0, 0.07, -4397.3, 6370.64)" xlink:href="#radial-gradient-8"/><filter id="luminosity-noclip-11" x="755.03" y="539.82" width="943.47" height="16.41" filterUnits="userSpaceOnUse" color-interpolation-filters="sRGB"><feFlood flood-color="#fff" result="bg"/><feBlend in="SourceGraphic" in2="bg"/></filter><mask id="mask-11" x="755.03" y="539.82" width="943.47" height="16.41" maskUnits="userSpaceOnUse"><g mask="url(#mask-6)" filter="url(#luminosity-noclip-11)"><path d="M1226.76,539.82c260.54,0,471.74,7.34,471.74,16.41H755C755,547.16,966.23,539.82,1226.76,539.82Z" fill="url(#radial-gradient-6)" style="mix-blend-mode:multiply"/></g></mask><radialGradient id="radial-gradient-11" cx="-2922.2" cy="-89369.58" r="252.22" gradientTransform="matrix(-1.87, 0, 0, 0.07, -4238.72, 6370.64)" xlink:href="#radial-gradient-8"/><filter id="luminosity-noclip-12" x="769.37" y="623.84" width="943.47" height="16.41" filterUnits="userSpaceOnUse" color-interpolation-filters="sRGB"><feFlood flood-color="#fff" result="bg"/><feBlend in="SourceGraphic" in2="bg"/></filter><mask id="mask-12" x="769.37" y="623.84" width="943.47" height="16.41" maskUnits="userSpaceOnUse"><g mask="url(#mask-2)" filter="url(#luminosity-noclip-12)"><path d="M1241.11,623.84c260.53,0,471.74,7.35,471.74,16.41H769.37C769.37,631.19,980.58,623.84,1241.11,623.84Z" fill="url(#radial-gradient-7)" style="mix-blend-mode:multiply"/></g></mask><radialGradient id="radial-gradient-12" cx="-2929.87" cy="-88078.09" r="252.22" gradientTransform="matrix(-1.87, 0, 0, 0.07, -4238.72, 6370.64)" xlink:href="#radial-gradient-8"/><filter id="luminosity-noclip-13" x="769.37" y="708.05" width="943.47" height="16.41" filterUnits="userSpaceOnUse" color-interpolation-filters="sRGB"><feFlood flood-color="#fff" result="bg"/><feBlend in="SourceGraphic" in2="bg"/></filter><mask id="mask-13" x="769.37" y="708.05" width="943.47" height="16.41" maskUnits="userSpaceOnUse"><g mask="url(#mask-2)" filter="url(#luminosity-noclip-13)"><path d="M1241.11,708.05c260.53,0,471.74,7.34,471.74,16.41H769.37C769.37,715.39,980.58,708.05,1241.11,708.05Z" fill="url(#radial-gradient-2)" style="mix-blend-mode:multiply"/></g></mask><radialGradient id="radial-gradient-13" cx="-2929.87" cy="-86783.84" r="252.22" gradientTransform="matrix(-1.87, 0, 0, 0.07, -4238.72, 6370.64)" xlink:href="#radial-gradient-8"/><filter id="luminosity-noclip-14" x="778.45" y="790.88" width="943.47" height="16.41" filterUnits="userSpaceOnUse" color-interpolation-filters="sRGB"><feFlood flood-color="#fff" result="bg"/><feBlend in="SourceGraphic" in2="bg"/></filter><mask id="mask-14" x="778.45" y="790.88" width="943.47" height="16.41" maskUnits="userSpaceOnUse"><g mask="url(#mask-3)" filter="url(#luminosity-noclip-14)"><path d="M1250.19,790.88c260.53,0,471.73,7.34,471.73,16.41H778.45C778.45,798.22,989.65,790.88,1250.19,790.88Z" fill="url(#radial-gradient-3)" style="mix-blend-mode:multiply"/></g></mask><radialGradient id="radial-gradient-14" cx="-2934.72" cy="-85510.72" r="252.22" gradientTransform="matrix(-1.87, 0, 0, 0.07, -4238.72, 6370.64)" xlink:href="#radial-gradient-8"/><radialGradient id="_ÂÁ_Ï_ÌÌ_È_ËÂÌÚ_12" cx="-13055.52" cy="-1294902.43" r="255.37" gradientTransform="matrix(0, -1.91, 0.35, 0, 450202.54, -24310.29)" gradientUnits="userSpaceOnUse"><stop offset="0.07"/><stop offset="0.17" stop-color="#393939"/><stop offset="0.27" stop-color="#6d6d6d"/><stop offset="0.37" stop-color="#9a9a9a"/><stop offset="0.47" stop-color="#bebebe"/><stop offset="0.57" stop-color="#dbdbdb"/><stop offset="0.67" stop-color="#efefef"/><stop offset="0.77" stop-color="#fbfbfb"/><stop offset="0.87" stop-color="#fff"/></radialGradient><clipPath id="clip-path"><path d="M-1089,465.32h4.52c4.54,0,7.64.9,9.28,2.69s2.46,4.91,2.46,9.35-1,7.75-2.86,9.49-5.09,2.63-9.55,2.63H-1089Zm-10.24-7.31v73.07H-1089V496.8h7.93l9.66,34.28h9.92l-10.5-36.66q9.07-3,9.08-17.06,0-10.28-5.2-14.81t-16.37-4.54Z" fill="none"/></clipPath><clipPath id="clip-path-2"><polygon points="-1052.18 458.01 -1052.18 531.09 -1023.51 531.09 -1023.51 523.77 -1041.94 523.77 -1041.94 496.97 -1027.14 496.97 -1027.14 489.7 -1041.94 489.7 -1041.94 465.55 -1023.73 465.55 -1023.73 458.01 -1052.18 458.01" fill="none"/></clipPath><clipPath id="clip-path-3"><path d="M-1000,457.3q-8,.09-12.64,4.52t-4.63,12.37a21.93,21.93,0,0,0,1.7,9.1,22,22,0,0,0,5.43,7.07l12.32,10.89c1.38,1.29,2.46,2.33,3.21,3.1a26.86,26.86,0,0,1,2.39,2.93,12.07,12.07,0,0,1,1.82,3.71,15.49,15.49,0,0,1,.55,4.27c0,2.82-.68,5-2.06,6.41a7.83,7.83,0,0,1-6,2.19q-9.43,0-10.41-15.69l-9.13,2.46q.57,9.89,5.43,15.56t14.11,5.69q7.85,0,12.71-4.69t4.88-12.72a21.91,21.91,0,0,0-2.86-11.2,38.19,38.19,0,0,0-7.69-9.25l-12.4-10.89a16.56,16.56,0,0,1-3.72-4.54,11.69,11.69,0,0,1-1.11-5.38q0-7.44,8.1-8a8.92,8.92,0,0,1,3.9.55,6.92,6.92,0,0,1,2.7,1.86,9.87,9.87,0,0,1,1.74,3,19.44,19.44,0,0,1,1,3.72c.21,1.23.37,2.65.49,4.23l8.64-2.38q-.88-9.73-5.27-14.39c-2.84-3-7.09-4.52-12.72-4.52h-.49" fill="none"/></clipPath><clipPath id="clip-path-4"><polygon points="-972.3 458.01 -972.3 531.09 -943.64 531.09 -943.64 523.77 -962.07 523.77 -962.07 496.97 -947.27 496.97 -947.27 489.7 -962.07 489.7 -962.07 465.55 -943.86 465.55 -943.86 458.01 -972.3 458.01" fill="none"/></clipPath><clipPath id="clip-path-5"><polygon points="-859.65 458.01 -870.72 511.83 -882.33 458.01 -891.89 458.01 -875.5 531.09 -866.55 531.09 -850.3 458.01 -859.65 458.01" fill="none"/></clipPath><clipPath id="clip-path-6"><path d="M-828.37,472.38l6.16,33h-12.27Zm-5-14.37L-849,531.09h9.7l3.5-18.43h14.93l3.36,18.43h9.75L-823.45,458Z" fill="none"/></clipPath><clipPath id="clip-path-7"><path d="M-845.54,614.13c-2.07-20-5.62-56.82-3.5-56.82,2.48,0,8.27,33.22,11.61,53.83,9.92.49,27.28.62,28-4.28a45.65,45.65,0,0,1,0,5.89c-.54,4.82-17,4.84-27.06,4.4,1,6,1.56,10,1.56,10l-9.31-.52s-.31-2.82-.78-7.28c-1.19,1.88-4.2,4-12,4s-16.84-1.38-23.52-2.6c1.09,6,1.77,9.93,1.77,9.93l-10.76-2.41s-.4-3.23-1-8.3c-1.72,1.82-6.42,5.39-17.25,6-11,.65-24.22-1.7-33.33-3.76,1.16,6,1.9,10,1.9,10L-952,628.67s-.37-3.42-.91-8.76c-3.3,1.63-16.6,7.22-43.08,7.22s-39.79-5.59-43.09-7.22c-.54,5.34-.91,8.76-.91,8.76l-12.81,3.56s.74-3.94,1.91-10c-9.11,2.06-22.32,4.41-33.33,3.76-10.83-.65-15.53-4.22-17.26-6-.59,5.07-1,8.3-1,8.3l-10.75,2.41s.68-3.93,1.76-9.93c-6.68,1.22-15.84,2.6-23.51,2.6-7.84,0-10.85-2.15-12-4-.47,4.46-.79,7.28-.79,7.28l-9.3.52s.59-4,1.55-10c-10.09.44-26.51.42-27-4.4a47.62,47.62,0,0,1,0-5.89c.71,4.9,18.08,4.77,28,4.28,3.35-20.61,9.14-53.83,11.61-53.83,2.12,0-1.42,36.87-3.49,56.82,1.51,1.65,4.7,3.28,11.48,3.28,8.11,0,17.9-1.55,24.65-2.82,4-21.6,10.95-57.28,13.53-57.28,2.18,0-1.71,36.67-4.07,57.29,2.11,1.92,6.84,4.88,16.64,5.46,11.51.68,25.41-1.91,34.53-4,4.29-22,11.72-58.71,13.57-58.71,2.75,0-.36,36.05-2.39,56.91,4,1.86,17.18,7,42.52,7s38.51-5.1,42.52-7c-2-20.86-5.15-56.91-2.4-56.91,1.86,0,9.29,36.69,13.58,58.71,9.11,2.13,23,4.72,34.53,4,9.8-.58,14.53-3.54,16.63-5.46-2.35-20.62-6.24-57.29-4.07-57.29,2.58,0,9.56,35.68,13.54,57.28,6.75,1.27,16.54,2.82,24.65,2.82,6.78,0,10-1.63,11.48-3.28m-318.09-63.33c-11,0-19.84,2.43-19.84,5.44v1.45s-6.49,59.76-5.62,67c.81,6.79,35.72,3.81,35.72,3.81s-1,6.53,13.14,6.53,33.48-4.36,33.48-4.36,3.55,6.1,18.6,6.95c19.35,1.09,45.39-6.4,45.39-6.4s13.39,7.49,45.14,7.49,45.14-7.49,45.14-7.49,26,7.49,45.38,6.4c15.05-.85,18.6-6.95,18.6-6.95s19.35,4.36,33.48,4.36,13.15-6.53,13.15-6.53,34.9,3,35.72-3.81c.86-7.28-5.63-67-5.63-67v-1.45c0-3-8.88-5.44-19.84-5.44Z" fill="none"/></clipPath></defs><title>slide</title><g style="isolation:isolate"><g id="Layer_1" data-name="Layer 1"><text transform="translate(161.06 753.86)" font-size="395.6" fill="#d33527" font-family="Bebas">0</text><path d="M1016.68,293.74v8.57H995.47v-8.57a10.61,10.61,0,0,1,21.21,0Z" fill="#ad2224"/><g mask="url(#mask-8)"><path d="M1248.25,286.65c272.48,0,493.37,7.35,493.37,16.41H754.88C754.88,294,975.77,286.65,1248.25,286.65Z" fill="url(#radial-gradient-8)" style="mix-blend-mode:multiply"/></g><path d="M1006.08,283.15a10.6,10.6,0,0,0-10.61,10.59V386.8H914.6V293.74a10.59,10.59,0,0,1,10.59-10.59Z" fill="#d33527"/><path d="M1548.43,379v8.57h-21.2V379a10.6,10.6,0,0,1,21.2,0Z" fill="#ad2224"/><g mask="url(#mask-9)"><path d="M1241.11,371c268.54,0,486.23,7.35,486.23,16.41H754.88C754.88,378.32,972.57,371,1241.11,371Z" fill="url(#radial-gradient-9)" style="mix-blend-mode:multiply"/></g><g mask="url(#mask-10)"><path d="M1241.11,455.66c268.54,0,486.23,7.35,486.23,16.41H754.88C754.88,463,972.57,455.66,1241.11,455.66Z" fill="url(#radial-gradient-10)" style="mix-blend-mode:multiply"/></g><g mask="url(#mask-11)"><path d="M1226.76,539.82c260.54,0,471.74,7.34,471.74,16.41H755C755,547.16,966.23,539.82,1226.76,539.82Z" fill="url(#radial-gradient-11)" style="mix-blend-mode:multiply"/></g><g mask="url(#mask-12)"><path d="M1241.11,623.84c260.53,0,471.74,7.35,471.74,16.41H769.37C769.37,631.19,980.58,623.84,1241.11,623.84Z" fill="url(#radial-gradient-12)" style="mix-blend-mode:multiply"/></g><g mask="url(#mask-13)"><path d="M1241.11,708.05c260.53,0,471.74,7.34,471.74,16.41H769.37C769.37,715.39,980.58,708.05,1241.11,708.05Z" fill="url(#radial-gradient-13)" style="mix-blend-mode:multiply"/></g><g mask="url(#mask-14)"><path d="M1250.19,790.88c260.53,0,471.73,7.34,471.73,16.41H778.45C778.45,798.22,989.65,790.88,1250.19,790.88Z" fill="url(#radial-gradient-14)" style="mix-blend-mode:multiply"/></g><path d="M1537.84,368.42A10.6,10.6,0,0,0,1527.23,379v93.06h-80.87V379A10.59,10.59,0,0,1,1457,368.42Z" fill="#d33527"/><text transform="translate(944.62 352.18)" font-size="27.65" fill="#fff" font-family="Bebas" letter-spacing="0.02em">0<tspan x="14.77" y="0" letter-spacing="0em">1</tspan></text><text transform="translate(1471.9 439.85)" font-size="27.65" fill="#fff" font-family="Bebas"><tspan letter-spacing="0.01em">0</tspan><tspan x="14.71" y="0">2</tspan></text><g style="mix-blend-mode:multiply"><path d="M1057.79,536.82h-14.1a.37.37,0,0,0-.34.21.37.37,0,0,0,.06.4l2.41,2.8a.36.36,0,0,0,.28.12h9.27a.35.35,0,0,0,.28-.12l2.42-2.8a.39.39,0,0,0,0-.4A.35.35,0,0,0,1057.79,536.82Zm-2.58,2.8h-8.94l-1.78-2.07H1057Z" fill="#757779"/><path d="M1055.37,540.74h-9.27a.78.78,0,0,1-.57-.26l-2.42-2.8a.77.77,0,0,1-.11-.81.76.76,0,0,1,.69-.44h14.1a.75.75,0,0,1,.57,1.24l-2.41,2.81A.8.8,0,0,1,1055.37,540.74Zm-8.92-1.51H1055l1.11-1.29h-10.81Z" fill="#757779"/><path d="M1056.1,496.26a14.81,14.81,0,0,0-15.86,24.25l2.19,7.32a.35.35,0,0,0,.35.26h15.91a.38.38,0,0,0,.36-.26l2.19-7.32a14.69,14.69,0,0,0,3.3-5.08A14.84,14.84,0,0,0,1056.1,496.26Zm2.32,31.09h-15.36l-1.76-5.88a14.62,14.62,0,0,0,4.07,2.4,14.81,14.81,0,0,0,13.63-1.53,12.67,12.67,0,0,0,1.17-.87Zm5.43-12.19a14,14,0,0,1-2.22,3.81c-.16.19-.32.38-.49.56s-.36.39-.56.58a14,14,0,0,1-19.69,0c-.19-.19-.38-.38-.55-.58a5.27,5.27,0,0,1-.49-.57,14.05,14.05,0,0,1,10.91-23,13.92,13.92,0,0,1,5.07.95,14.05,14.05,0,0,1,8,18.21Z" fill="#757779"/><path d="M1058.69,528.48h-15.91a.76.76,0,0,1-.72-.55l-2.16-7.22a15.18,15.18,0,0,1,4.72-24.54,15.19,15.19,0,0,1,17,24.54l-2.17,7.23A.74.74,0,0,1,1058.69,528.48ZM1043.34,527h14.79l1.34-4.48-.25.17a15.17,15.17,0,0,1-17.22-.16Zm7.42-30.59a13.67,13.67,0,0,0-10.61,22.33c.15.2.3.38.46.56s.36.38.55.56a13.43,13.43,0,0,0,4.62,3,13.72,13.72,0,0,0,14.53-3c.19-.19.37-.37.54-.56l.48-.55a13.51,13.51,0,0,0,2.16-3.71h0a13.53,13.53,0,0,0,.93-4.94,13.77,13.77,0,0,0-8.73-12.77A13.44,13.44,0,0,0,1050.76,496.38Zm-10.15,24,.22.18-.21-.2,0,0Zm20.28,0-.05,0-.11.11Z" fill="#757779"/><path d="M1055,499.19a11.6,11.6,0,0,0-8.88.2c0,.09.08.18.13.27s.07.18.11.28a11,11,0,0,1,15.21,12.45.09.09,0,0,1,0,0l.24.13.27.17A11.68,11.68,0,0,0,1055,499.19Z" fill="#757779"/><path d="M1062.34,513.34l-.46-.3-.24-.15a1.93,1.93,0,0,0-.24-.13l-.36-.09.12-.36a10.66,10.66,0,0,0-14.69-12l-.38.17-.13-.39a2,2,0,0,0-.11-.26c0-.08-.08-.17-.12-.26l-.16-.36.35-.15a12,12,0,0,1,9.18-.21h0a12.1,12.1,0,0,1,7.36,14Z" fill="#757779"/><rect x="1048.44" y="532.09" width="2.06" height="0.74" fill="#757779"/><rect x="1048.06" y="531.7" width="2.82" height="1.51" fill="#757779"/><rect x="1044.33" y="532.09" width="2.06" height="0.74" fill="#757779"/><rect x="1043.95" y="531.7" width="2.82" height="1.51" fill="#757779"/><rect x="1052.55" y="532.09" width="2.06" height="0.74" fill="#757779"/><rect x="1052.17" y="531.7" width="2.83" height="1.51" fill="#757779"/><rect x="1056.67" y="532.09" width="0.47" height="0.74" fill="#757779"/><rect x="1056.29" y="531.7" width="1.24" height="1.51" fill="#757779"/><rect x="1052.55" y="534.45" width="2.06" height="0.74" fill="#757779"/><rect x="1052.17" y="534.07" width="2.83" height="1.51" fill="#757779"/><rect x="1044.33" y="534.45" width="2.06" height="0.74" fill="#757779"/><rect x="1043.95" y="534.07" width="2.82" height="1.51" fill="#757779"/><rect x="1056.67" y="534.45" width="0.47" height="0.74" fill="#757779"/><rect x="1056.29" y="534.07" width="1.24" height="1.51" fill="#757779"/><rect x="1048.44" y="534.45" width="2.06" height="0.74" fill="#757779"/><rect x="1048.06" y="534.07" width="2.82" height="1.51" fill="#757779"/><rect x="1056.67" y="529.72" width="0.47" height="0.74" fill="#757779"/><rect x="1056.29" y="529.34" width="1.24" height="1.51" fill="#757779"/><rect x="1048.44" y="529.72" width="2.06" height="0.74" fill="#757779"/><rect x="1048.06" y="529.34" width="2.82" height="1.51" fill="#757779"/><rect x="1044.33" y="529.72" width="2.06" height="0.74" fill="#757779"/><rect x="1043.95" y="529.34" width="2.82" height="1.51" fill="#757779"/><rect x="1052.55" y="529.72" width="2.06" height="0.74" fill="#757779"/><rect x="1052.17" y="529.34" width="2.83" height="1.51" fill="#757779"/></g><path d="M1008,463.17v8.57h-21.2v-8.57a10.6,10.6,0,0,1,21.2,0Z" fill="#ad2224"/><path d="M997.39,452.57a10.6,10.6,0,0,0-10.61,10.6v93.06H905.91V463.17a10.6,10.6,0,0,1,10.59-10.6Z" fill="#d33527"/><text transform="translate(1094.87 356.35)" font-size="18" fill="#656666" font-family="Montserrat-Medium, Montserrat" font-weight="500">INTRODU<tspan x="88.07" y="0" letter-spacing="-0.02em">C</tspan><tspan x="100.82" y="0" letter-spacing="0em">CIÓN</tspan></text><text transform="translate(1167.61 438.65)" font-size="18" fill="#656666" font-family="Montserrat-Medium, Montserrat" font-weight="500">NUE<tspan x="40.91" y="0" letter-spacing="-0.01em">ST</tspan><tspan x="62.3" y="0" letter-spacing="0em">O </tspan><tspan x="82.26" y="0" letter-spacing="0em">E</tspan><tspan x="94.27" y="0">QUIPO</tspan></text><text transform="translate(1094.87 525.25)" font-size="18" fill="#656666" font-family="Montserrat-Medium, Montserrat" font-weight="500"><tspan letter-spacing="-0.01em">P</tspan><tspan x="12.82" y="0">ROBLEMA Y SO</tspan><tspan x="155.39" y="0" letter-spacing="-0.01em">L</tspan><tspan x="165.87" y="0" letter-spacing="0em">UCIÓN</tspan></text><text transform="translate(1187.89 607.75)" font-size="18" fill="#656666" font-family="Montserrat-Medium, Montserrat" font-weight="500">NUE<tspan x="40.91" y="0" letter-spacing="-0.01em">S</tspan><tspan x="51.91" y="0" letter-spacing="0em">TRA A</tspan><tspan x="106.76" y="0" letter-spacing="-0.01em">P</tspan><tspan x="119.57" y="0">P</tspan></text><text transform="translate(1099.48 692.88)" font-size="18" fill="#656666" font-family="Montserrat-Medium, Montserrat" font-weight="500">ME<tspan x="29.25" y="0" letter-spacing="-0.01em">T</tspan><tspan x="39.64" y="0">ODO</tspan><tspan x="84.74" y="0" letter-spacing="-0.01em">L</tspan><tspan x="95.2" y="0">OGÍAS </tspan><tspan x="158.99" y="0" letter-spacing="-0.01em">A</tspan><tspan x="171.99" y="0">GÍLES</tspan></text><text transform="translate(1193.5 774.11)" font-size="18" fill="#656666" font-family="Montserrat-Medium, Montserrat" font-weight="500">T<tspan x="10.57" y="0" letter-spacing="0em">E</tspan><tspan x="22.57" y="0">CNO</tspan><tspan x="65.32" y="0" letter-spacing="-0.01em">L</tspan><tspan x="75.78" y="0" letter-spacing="0em">OGÍAS</tspan></text><text transform="translate(932.73 527.41)" font-size="27.65" fill="#fff" font-family="Bebas">03</text><g style="mix-blend-mode:multiply"><path d="M1386.28,590.18V590a6.49,6.49,0,0,0-.15-1.49,3.73,3.73,0,0,0-1-2.78c-.39-.41-.33-2-3.35-2.16a8.66,8.66,0,0,0-3.37,1.32,4.2,4.2,0,0,0-.7.36c-.28.13-.5.25-.69.32-1,.37-1.38,2.05-1.46,2.94a7.13,7.13,0,0,0-.13,1.49v.22c-.11,0-1,.15-.86,1.59s.47,2.88,1.3,3.11a9,9,0,0,0,1,3,5.18,5.18,0,0,0,3.94,2.7h.06a5.14,5.14,0,0,0,4-2.7,9.41,9.41,0,0,0,1-3c.81-.23,1.18-1.64,1.29-3.11S1386.39,590.19,1386.28,590.18Z" fill="#757779"/><path d="M1380.64,575.9a24.45,24.45,0,0,0-24.43,24.43,24.62,24.62,0,0,0,10.47,20l.57.38a24.14,24.14,0,0,0,7.46,3.28,21.11,21.11,0,0,0,3,.54,22.56,22.56,0,0,0,3,.19,26.3,26.3,0,0,0,3.35-.22,24.47,24.47,0,0,0,2.63-.52,24,24,0,0,0,7.34-3.23c.2-.11.37-.24.56-.37a24.42,24.42,0,0,0-13.88-44.52Zm18.79,35.92-3.4-7.36a3.15,3.15,0,0,0-2-1.51l-7.79-1.39a1,1,0,0,0-1.34,1.1l1.55,18.92a20.49,20.49,0,0,1-2.61.55l-.94-12.12-1.35-5,1.17-1.08a.21.21,0,0,0,0-.32l-1.69-1.83a.24.24,0,0,0-.35,0l-1.67,1.83c-.11.07-.11.21,0,.32l1.18,1.08-1.34,4.88-1,12.25a19.13,19.13,0,0,1-2.94-.59l1.65-18.93a1,1,0,0,0-1.35-1.1l-7.91,1.4a3.08,3.08,0,0,0-2,1.5l-3.43,7.36a22,22,0,1,1,37.58,0Z" fill="#757779"/></g><path d="M403.73,340.3a229.82,229.82,0,0,0-95.84,20.8V780.75a229.82,229.82,0,0,0,95.84,20.8c127.37,0,230.62-103.25,230.62-230.63S531.1,340.3,403.73,340.3Z" fill="#d33527"/><path d="M307.89,202V941.44s-68.35-115-68.35-369.74C239.54,324.05,307.89,202,307.89,202Z" fill="url(#_ÂÁ_Ï_ÌÌ_È_ËÂÌÚ_12)" style="mix-blend-mode:multiply"/><path d="M395.4,569.24a1.88,1.88,0,0,1-1.87-1.88,1.82,1.82,0,0,1,.55-1.32L408,552.13a1.82,1.82,0,0,1,1.32-.55,1.87,1.87,0,0,1,1.32,3.2l-13.9,13.91A1.9,1.9,0,0,1,395.4,569.24Z" fill="#fff"/><path d="M434.66,553.07a25.45,25.45,0,0,1-16.37-6l-3,3a1.86,1.86,0,0,1-1.32.55,1.9,1.9,0,0,1-1.33-.55,1.9,1.9,0,0,1,0-2.65l2.92-2.92a25.77,25.77,0,0,1,1-35,25.51,25.51,0,1,1,18,43.54Zm0-47.27a21.78,21.78,0,1,0,15.39,6.38A21.61,21.61,0,0,0,434.66,505.8Z" fill="#fff"/><path d="M434.69,533.73a1.89,1.89,0,0,1-1.34-.56l-7.27-7.29a1.9,1.9,0,0,1-.05-2.63,2,2,0,0,1,1.39-.61,1.9,1.9,0,0,1,1.35.56l5.93,5.94,7.93-7.91a1.92,1.92,0,0,1,1.35-.56,1.88,1.88,0,0,1,1.34.56,1.91,1.91,0,0,1,0,2.65L436,533.17A1.9,1.9,0,0,1,434.69,533.73Z" fill="#fff"/><text transform="translate(379.09 618.79)" font-size="33.7" fill="#fff" font-family="Bebas"><tspan letter-spacing="0.03em">IN</tspan><tspan x="28.22" y="0" letter-spacing="0.03em">D</tspan><tspan x="46.41" y="0" letter-spacing="0.03em">I</tspan><tspan x="54.93" y="0" letter-spacing="0.02em">C</tspan><tspan x="72.98" y="0">E</tspan></text><g style="mix-blend-mode:multiply"><path d="M1031.25,344.92l-5.12-3.43a1.06,1.06,0,0,0-.6-.19,1.09,1.09,0,0,0-1.09,1.09v7.24h0v7.24a1,1,0,0,0,.08.4l0,.07a1.11,1.11,0,0,0,.54.51s.05,0,.07,0a1.28,1.28,0,0,0,.34.07h0a.91.91,0,0,0,.23,0h.07a1.11,1.11,0,0,0,.29-.14h0l5.12-3.44h0v-4.7h0Zm-5.16-1.48,3.51,2.36v3.83h-3.51Z" fill="#757779"/><path d="M1064.74,336.85l-32,8.07v4.71h0v4.7h0l3.38.85.05,0-.21.85a1.25,1.25,0,0,0,0,.19,4.82,4.82,0,0,0,0,2.17,5.11,5.11,0,0,0,.52,1.32,4.65,4.65,0,0,0,1.27,1.41,4.73,4.73,0,0,0,1.34.69c.12,0,.24.1.37.13l8.73,2.24a4.89,4.89,0,0,0,1.21.15h0a5.13,5.13,0,0,0,1-.1,4.81,4.81,0,0,0,3.49-2.82,4.49,4.49,0,0,0,.25-.73l.19-.72,0-.2,10.4,2.62h0Zm-30.35,9.36,28.7-7.24v10.66h-28.7Zm14.28,16.18h0l-8.73-2.23a3,3,0,0,1-1.83-1.38,2.94,2.94,0,0,1-.35-2.07,1.25,1.25,0,0,1,0-.19l.1-.38.12-.48,14.53,3.67-.23.91a3,3,0,0,1-2.89,2.25h0A3.25,3.25,0,0,1,1048.67,362.39Z" fill="#757779"/></g><path d="M1384.77,452.57a1.15,1.15,0,0,1-1-.64l-2.55-5.12a18.77,18.77,0,0,1-4.45.82v3.78a1.17,1.17,0,0,1-2.33,0v-3.78a18.68,18.68,0,0,1-4.45-.82l-2.55,5.12a1.16,1.16,0,0,1-1.05.64,1.15,1.15,0,0,1-1.1-.79,1.15,1.15,0,0,1,.06-.89l2.45-4.92a18.88,18.88,0,1,1,26.65-18.35h1.84l1.6-3.39a1.16,1.16,0,0,1,1.05-.66,1.1,1.1,0,0,1,.5.11,1.16,1.16,0,0,1,.55,1.55l-1.12,2.39h2l1.6-3.39a1.16,1.16,0,0,1,1-.66,1.08,1.08,0,0,1,.5.11,1.15,1.15,0,0,1,.6.66,1.19,1.19,0,0,1,0,.89l-1.75,3.7,1.75,3.7a1.19,1.19,0,0,1,0,.89,1.18,1.18,0,0,1-.6.66,1.25,1.25,0,0,1-.5.11,1.16,1.16,0,0,1-1-.67l-1.73-3.67h-2l1.26,2.68a1.16,1.16,0,0,1-.55,1.55,1.25,1.25,0,0,1-.5.11,1.16,1.16,0,0,1-1.05-.67l-1.73-3.67h-1.71a19,19,0,0,1-11,16l2.45,4.92a1.15,1.15,0,0,1,.06.89,1.18,1.18,0,0,1-.59.67A1.14,1.14,0,0,1,1384.77,452.57Zm-9.21-40.33A16.55,16.55,0,1,0,1392.07,430h-2.39a14.19,14.19,0,1,1,0-2.33h2.39A16.54,16.54,0,0,0,1375.56,412.24Zm0,4.69a11.86,11.86,0,1,0,11.79,13h-6a5.92,5.92,0,1,1,0-2.33h6A11.91,11.91,0,0,0,1375.56,416.93Zm0,8.27A3.59,3.59,0,1,0,1379,430h-3.39a1.17,1.17,0,0,1,0-2.33H1379A3.57,3.57,0,0,0,1375.56,425.2Z" fill="#757779"/><path d="M1538.76,547.31v8.57h-21.2v-8.57a10.6,10.6,0,0,1,21.2,0Z" fill="#ad2224"/><path d="M1528.17,536.72a10.59,10.59,0,0,0-10.61,10.59v93.06h-80.87V547.31a10.59,10.59,0,0,1,10.59-10.59Z" fill="#d33527"/><text transform="translate(1464.53 609.41)" font-size="27.65" fill="#fff" font-family="Bebas">04</text><path d="M1006.73,631.4V640H985.52V631.4a10.61,10.61,0,0,1,21.21,0Z" fill="#ad2224"/><path d="M996.13,620.8a10.61,10.61,0,0,0-10.61,10.6v93.06H904.65V631.4a10.6,10.6,0,0,1,10.59-10.6Z" fill="#d33527"/><text transform="translate(932.73 691.18)" font-size="27.65" fill="#fff" font-family="Bebas"><tspan letter-spacing="0.02em">0</tspan><tspan x="14.85" y="0">5</tspan></text><g style="mix-blend-mode:multiply"><polygon points="1035.15 704.86 1040.23 704.86 1040.23 693.34 1035.15 698.41 1035.15 704.86" fill="#757779"/><polygon points="1046.22 687.34 1043.76 689.8 1043.76 704.86 1048.84 704.86 1048.84 689.95 1046.69 687.81 1046.22 687.34" fill="#757779"/><polygon points="1053.44 690.27 1052.37 691.34 1052.37 704.86 1057.45 704.86 1057.45 686.26 1054.52 689.19 1053.44 690.27" fill="#757779"/><polygon points="1060.98 682.73 1060.98 704.86 1066.06 704.86 1066.06 677.65 1063.12 680.58 1060.98 682.73" fill="#757779"/><polygon points="1066.69 665.74 1061.26 667.2 1062.56 668.49 1063.53 669.46 1060.98 672.02 1057.45 675.55 1052.37 680.63 1051.3 681.7 1048.84 679.24 1046.22 676.63 1043.76 679.09 1040.23 682.63 1035.15 687.7 1029.37 693.48 1032.58 696.7 1035.15 694.13 1040.23 689.05 1043.76 685.52 1046.22 683.06 1048.84 685.67 1051.3 688.13 1052.37 687.05 1057.45 681.98 1060.98 678.44 1066.06 673.37 1066.74 672.67 1069.2 675.13 1070.66 669.71 1072.11 664.29 1066.69 665.74" fill="#757779"/></g><path d="M1534.61,714.7v8.57H1513.4V714.7a10.61,10.61,0,0,1,21.21,0Z" fill="#ad2224"/><path d="M1524,704.11a10.6,10.6,0,0,0-10.61,10.59v93.06h-80.87V714.7a10.59,10.59,0,0,1,10.59-10.59Z" fill="#d33527"/><text transform="translate(1461.77 775.86)" font-size="27.65" fill="#fff" font-family="Bebas"><tspan letter-spacing="0.02em">0</tspan><tspan x="14.98" y="0">6</tspan></text><path d="M1378.87,787.3a3.64,3.64,0,0,1-3.64-3.64v-2.73a1.32,1.32,0,0,0-.84-1.23,1.36,1.36,0,0,0-1.48.27L1371,781.9a3.63,3.63,0,0,1-5.15,0l-2.5-2.5a3.63,3.63,0,0,1,0-5.15l1.82-1.82a1.33,1.33,0,0,0,.28-1.48l-.06-.14a1.33,1.33,0,0,0-1.23-.81h-2.57a3.64,3.64,0,0,1-3.64-3.64v-3.54a3.64,3.64,0,0,1,3.64-3.64h2.35a1.33,1.33,0,0,0,1.24-.84c0-.11.09-.21.13-.32a1.32,1.32,0,0,0-.3-1.43l-1.66-1.66a3.63,3.63,0,0,1,0-5.15l2.5-2.5a3.63,3.63,0,0,1,5.15,0l1.56,1.55a1.35,1.35,0,0,0,1,.4,1.25,1.25,0,0,0,.5-.11l.44-.18a1.32,1.32,0,0,0,.8-1.23v-2.19a3.64,3.64,0,0,1,3.64-3.64h3.54a3.64,3.64,0,0,1,3.64,3.64v2.19a1.32,1.32,0,0,0,.8,1.23l.44.18a1.25,1.25,0,0,0,.5.11,1.39,1.39,0,0,0,1-.4l1.55-1.55a3.63,3.63,0,0,1,5.15,0l2.5,2.5a3.63,3.63,0,0,1,0,5.15l-1.66,1.66a1.32,1.32,0,0,0-.3,1.43l.13.32a1.33,1.33,0,0,0,1.24.84h2.35a3.65,3.65,0,0,1,3.65,3.64v3.54a3.65,3.65,0,0,1-3.65,3.64h-2.57a1.32,1.32,0,0,0-1.22.8l-.07.15a1.33,1.33,0,0,0,.28,1.48l1.82,1.82a3.63,3.63,0,0,1,0,5.15l-2.5,2.5a3.63,3.63,0,0,1-5.15,0l-1.93-1.93a1.33,1.33,0,0,0-.94-.39,1.54,1.54,0,0,0-.51.1,1.34,1.34,0,0,0-.87,1.25v2.73a3.64,3.64,0,0,1-3.64,3.64Zm-5-10a3.61,3.61,0,0,1,1.38.27,3.65,3.65,0,0,1,2.3,3.38v2.73a1.34,1.34,0,0,0,1.34,1.34h3.54a1.34,1.34,0,0,0,1.34-1.34v-2.73a3.62,3.62,0,0,1,2.27-3.37,3.86,3.86,0,0,1,1.42-.28,3.6,3.6,0,0,1,2.56,1.07l1.93,1.92a1.3,1.3,0,0,0,1,.39,1.33,1.33,0,0,0,.94-.39l2.5-2.5a1.32,1.32,0,0,0,0-1.89l-1.82-1.82a3.64,3.64,0,0,1-.76-4l.06-.13a3.62,3.62,0,0,1,3.34-2.2h2.57a1.34,1.34,0,0,0,1.34-1.34v-3.54a1.34,1.34,0,0,0-1.34-1.34h-2.35a3.65,3.65,0,0,1-3.39-2.31l-.11-.28a3.62,3.62,0,0,1,.8-3.93l1.66-1.66a1.34,1.34,0,0,0,0-1.89l-2.5-2.5a1.29,1.29,0,0,0-.94-.39,1.34,1.34,0,0,0-1,.39l-1.56,1.55a3.66,3.66,0,0,1-2.58,1.07,3.45,3.45,0,0,1-1.42-.3l-.38-.15a3.62,3.62,0,0,1-2.24-3.37v-2.19a1.34,1.34,0,0,0-1.34-1.34h-3.54a1.34,1.34,0,0,0-1.34,1.34v2.19a3.6,3.6,0,0,1-2.24,3.37l-.37.15a3.49,3.49,0,0,1-1.43.3,3.67,3.67,0,0,1-2.58-1.07l-1.56-1.55a1.34,1.34,0,0,0-1.89,0l-2.5,2.5a1.34,1.34,0,0,0,0,1.89l1.66,1.66a3.63,3.63,0,0,1,.8,3.94l-.11.27a3.64,3.64,0,0,1-3.39,2.31h-2.35a1.34,1.34,0,0,0-1.34,1.34v3.54a1.34,1.34,0,0,0,1.34,1.34h2.57a3.62,3.62,0,0,1,3.34,2.2l.06.13a3.64,3.64,0,0,1-.76,4l-1.82,1.82a1.34,1.34,0,0,0,0,1.89l2.5,2.5a1.34,1.34,0,0,0,1.89,0l1.93-1.92A3.61,3.61,0,0,1,1373.85,777.28Z" fill="#757779"/><path d="M1387.85,775a3.46,3.46,0,0,1-2.44-5.9,3.4,3.4,0,0,1,2.42-1,3.81,3.81,0,0,1,1.16.19,9.32,9.32,0,0,0-8.41-13.34,1.16,1.16,0,0,1,0-2.31,11.63,11.63,0,0,1,10.25,17.11v0a3.45,3.45,0,0,1-3,5.23Zm0-4.61a1.16,1.16,0,1,0,.82.34A1.14,1.14,0,0,0,1387.85,770.42Z" fill="#757779"/><path d="M1380.58,775.92a11.63,11.63,0,0,1-10.26-17.1,3.44,3.44,0,1,1,2.85,1.53,3.27,3.27,0,0,1-1-.15,9.33,9.33,0,0,0,8.38,13.42,1.15,1.15,0,1,1,0,2.3Zm-7.41-20.18a1.15,1.15,0,0,0-.82.34,1.16,1.16,0,1,0,2,.81,1.14,1.14,0,0,0-1.15-1.15Z" fill="#757779"/></g></g></svg>