<svg xmlns="http://www.w3.org/2000/svg" xmlns:xlink="http://www.w3.org/1999/xlink" viewBox="0 0 1920 1080"><defs><clipPath id="clip-path"><path d="M-655.25-1654c-.67,5.64-29.67,3.16-29.67,3.16s.82,5.43-10.93,5.43-27.82-3.62-27.82-3.62-3,5.07-15.45,5.77c-16.07.91-37.71-5.31-37.71-5.31s-11.13,6.22-37.5,6.22-37.5-6.22-37.5-6.22-21.64,6.22-37.72,5.31c-12.5-.7-15.45-5.77-15.45-5.77s-16.07,3.62-27.82,3.62-10.92-5.43-10.92-5.43-29,2.48-29.67-3.16c-.73-6,4.67-55.7,4.67-55.7v-1.21c0-2.49,7.38-4.52,16.48-4.52H-676.4c9.1,0,16.48,2,16.48,4.52v1.21s5.39,49.65,4.67,55.7m-2.72-14.85c-.59,4.08-15,4-23.26,3.56-2.78-17.13-7.59-44.73-9.65-44.73-1.76,0,1.19,30.64,2.91,47.22-1.26,1.37-3.91,2.72-9.54,2.72a119.91,119.91,0,0,1-20.48-2.35c-3.31-17.94-9.1-47.59-11.25-47.59-1.8,0,1.43,30.47,3.38,47.61-1.74,1.59-5.68,4-13.82,4.53-9.56.56-21.11-1.59-28.69-3.36-3.56-18.29-9.73-48.78-11.28-48.78-2.28,0,.31,30,2,47.29-3.32,1.54-14.27,5.78-35.32,5.78s-32-4.24-35.33-5.78c1.69-17.33,4.27-47.29,2-47.29-1.54,0-7.7,30.49-11.27,48.78-7.57,1.77-19.13,3.92-28.69,3.36-8.14-.48-12.07-2.94-13.82-4.53,2-17.14,5.19-47.61,3.38-47.61-2.15,0-7.94,29.65-11.25,47.59a119.79,119.79,0,0,1-20.48,2.35c-5.63,0-8.28-1.35-9.53-2.72,1.72-16.58,4.66-47.22,2.9-47.22-2.06,0-6.87,27.6-9.65,44.73-8.23.4-22.67.52-23.26-3.56a39.06,39.06,0,0,0,0,4.89c.45,4,14.09,4,22.48,3.66-.8,5-1.3,8.3-1.3,8.3l7.73-.44s.27-2.34.66-6c1,1.55,3.48,3.34,10,3.34a116.7,116.7,0,0,0,19.54-2.16c-.9,5-1.47,8.26-1.47,8.26l8.94-2s.33-2.69.82-6.9c1.43,1.52,5.34,4.49,14.34,5s20.12-1.41,27.69-3.12c-1,5-1.58,8.28-1.58,8.28l10.64-3s.31-2.83.76-7.27c2.74,1.35,13.79,6,35.8,6s33.05-4.65,35.79-6c.45,4.44.76,7.27.76,7.27l10.64,3s-.61-3.27-1.58-8.28c7.57,1.71,18.54,3.66,27.69,3.12,9-.53,12.91-3.5,14.34-5,.49,4.21.82,6.9.82,6.9l8.94,2s-.57-3.27-1.47-8.26a116.7,116.7,0,0,0,19.54,2.16c6.51,0,9-1.79,10-3.34.4,3.7.65,6,.65,6l7.74.44s-.5-3.3-1.3-8.3c8.39.37,22,.35,22.49-3.66a37.7,37.7,0,0,0,0-4.89" fill="#fff" clip-rule="evenodd"/></clipPath><clipPath id="clip-path-2"><rect x="-1407.73" y="10" width="1319.17" height="1080" fill="none"/></clipPath><linearGradient id="linear-gradient" x1="454.67" y1="674.81" x2="593.99" y2="674.81" gradientUnits="userSpaceOnUse"><stop offset="0" stop-color="#a1a1a1"/><stop offset="0.06" stop-color="#b2b2b2"/><stop offset="0.19" stop-color="#d4d4d4"/><stop offset="0.31" stop-color="#ececec"/><stop offset="0.43" stop-color="#fafafa"/><stop offset="0.52" stop-color="#fff"/><stop offset="0.64" stop-color="#fcfcfb"/><stop offset="0.75" stop-color="#f1f1f1"/><stop offset="0.86" stop-color="#dfdfde"/><stop offset="0.96" stop-color="#c6c6c5"/><stop offset="1" stop-color="#babab9"/></linearGradient><linearGradient id="linear-gradient-2" x1="525.26" y1="748.35" x2="525.26" y2="603.66" gradientUnits="userSpaceOnUse"><stop offset="0" stop-color="#fff"/><stop offset="0.24" stop-color="#fbfbfb"/><stop offset="0.48" stop-color="#f0f0ef"/><stop offset="0.71" stop-color="#dcdcdc"/><stop offset="0.95" stop-color="#c1c1c0"/><stop offset="1" stop-color="#babab9"/></linearGradient><linearGradient id="linear-gradient-3" x1="959" y1="747.34" x2="959" y2="579.67" gradientUnits="userSpaceOnUse"><stop offset="0" stop-color="#f2f2f2"/><stop offset="0.27" stop-color="#eee"/><stop offset="0.53" stop-color="#e3e3e2"/><stop offset="0.79" stop-color="#cfcfcf"/><stop offset="1" stop-color="#babab9"/></linearGradient><linearGradient id="linear-gradient-4" x1="1321.91" y1="669.55" x2="1466.09" y2="669.55" xlink:href="#linear-gradient"/><linearGradient id="linear-gradient-5" x1="1396.86" y1="745.6" x2="1396.86" y2="595.98" gradientUnits="userSpaceOnUse"><stop offset="0" stop-color="#f2f2f2"/><stop offset="0.31" stop-color="#efefef"/><stop offset="0.55" stop-color="#e5e5e5"/><stop offset="0.77" stop-color="#d5d5d5"/><stop offset="0.96" stop-color="#bfbfbe"/><stop offset="1" stop-color="#babab9"/></linearGradient><radialGradient id="radial-gradient" cx="4179.56" cy="-605.13" r="77.5" gradientTransform="translate(-684.85 988.43) scale(0.49 0.49)" gradientUnits="userSpaceOnUse"><stop offset="0" stop-color="#8a8a8a"/><stop offset="0.09" stop-color="#a0a0a0"/><stop offset="0.24" stop-color="#bebebe"/><stop offset="0.4" stop-color="#d5d5d5"/><stop offset="0.56" stop-color="#e5e5e5"/><stop offset="0.75" stop-color="#efefef"/><stop offset="1" stop-color="#f2f2f2"/></radialGradient><radialGradient id="radial-gradient-2" cx="4305.23" cy="-610.42" r="80.74" xlink:href="#radial-gradient"/></defs><title>slide</title><g style="isolation:isolate"><g id="Layer_1" data-name="Layer 1"><path d="M-655.25-1654c-.67,5.64-29.67,3.16-29.67,3.16s.82,5.43-10.93,5.43-27.82-3.62-27.82-3.62-3,5.07-15.45,5.77c-16.07.91-37.71-5.31-37.71-5.31s-11.13,6.22-37.5,6.22-37.5-6.22-37.5-6.22-21.64,6.22-37.72,5.31c-12.5-.7-15.45-5.77-15.45-5.77s-16.07,3.62-27.82,3.62-10.92-5.43-10.92-5.43-29,2.48-29.67-3.16c-.73-6,4.67-55.7,4.67-55.7v-1.21c0-2.49,7.38-4.52,16.48-4.52H-676.4c9.1,0,16.48,2,16.48,4.52v1.21s5.39,49.65,4.67,55.7m-2.72-14.85c-.59,4.08-15,4-23.26,3.56-2.78-17.13-7.59-44.73-9.65-44.73-1.76,0,1.19,30.64,2.91,47.22-1.26,1.37-3.91,2.72-9.54,2.72a119.91,119.91,0,0,1-20.48-2.35c-3.31-17.94-9.1-47.59-11.25-47.59-1.8,0,1.43,30.47,3.38,47.61-1.74,1.59-5.68,4-13.82,4.53-9.56.56-21.11-1.59-28.69-3.36-3.56-18.29-9.73-48.78-11.28-48.78-2.28,0,.31,30,2,47.29-3.32,1.54-14.27,5.78-35.32,5.78s-32-4.24-35.33-5.78c1.69-17.33,4.27-47.29,2-47.29-1.54,0-7.7,30.49-11.27,48.78-7.57,1.77-19.13,3.92-28.69,3.36-8.14-.48-12.07-2.94-13.82-4.53,2-17.14,5.19-47.61,3.38-47.61-2.15,0-7.94,29.65-11.25,47.59a119.79,119.79,0,0,1-20.48,2.35c-5.63,0-8.28-1.35-9.53-2.72,1.72-16.58,4.66-47.22,2.9-47.22-2.06,0-6.87,27.6-9.65,44.73-8.23.4-22.67.52-23.26-3.56a39.06,39.06,0,0,0,0,4.89c.45,4,14.09,4,22.48,3.66-.8,5-1.3,8.3-1.3,8.3l7.73-.44s.27-2.34.66-6c1,1.55,3.48,3.34,10,3.34a116.7,116.7,0,0,0,19.54-2.16c-.9,5-1.47,8.26-1.47,8.26l8.94-2s.33-2.69.82-6.9c1.43,1.52,5.34,4.49,14.34,5s20.12-1.41,27.69-3.12c-1,5-1.58,8.28-1.58,8.28l10.64-3s.31-2.83.76-7.27c2.74,1.35,13.79,6,35.8,6s33.05-4.65,35.79-6c.45,4.44.76,7.27.76,7.27l10.64,3s-.61-3.27-1.58-8.28c7.57,1.71,18.54,3.66,27.69,3.12,9-.53,12.91-3.5,14.34-5,.49,4.21.82,6.9.82,6.9l8.94,2s-.57-3.27-1.47-8.26a116.7,116.7,0,0,0,19.54,2.16c6.51,0,9-1.79,10-3.34.4,3.7.65,6,.65,6l7.74.44s-.5-3.3-1.3-8.3c8.39.37,22,.35,22.49-3.66a37.7,37.7,0,0,0,0-4.89" fill="#fff" fill-rule="evenodd"/><g clip-path="url(#clip-path)"><rect x="-1111.89" y="-1863.78" width="4152.23" height="2952.7" fill="#fff"/></g><g clip-path="url(#clip-path-2)"><image width="6500" height="4000" transform="translate(-1509.96 75.4) scale(0.23)" xlink:href="../Assets2/computer.jpg"/></g><text transform="translate(842.69 204.91)" font-size="40" fill="#d33527" font-family="Bebas"><tspan letter-spacing="0.02em">US</tspan><tspan x="43.63" y="0">U</tspan><tspan x="64.34" y="0" letter-spacing="0.02em">A</tspan><tspan x="88.26" y="0" letter-spacing="0.02em">R</tspan><tspan x="110.88" y="0" letter-spacing="0.03em">I</tspan><tspan x="120.99" y="0" letter-spacing="0.02em">O</tspan><tspan x="142.41" y="0">S</tspan></text><line x1="90.17" y1="192.71" x2="804.29" y2="192.71" fill="none" stroke="#d33527" stroke-miterlimit="10"/><line x1="1041.17" y1="192.71" x2="1755.29" y2="192.71" fill="none" stroke="#d33527" stroke-miterlimit="10"/><rect x="320.25" y="339.35" width="400.61" height="400.45" fill="#dbdbdb"/><path d="M594,701c-46.14-16.36-92.8-15.8-139.32,0V657.31c46.83-12,93.24-11.19,139.32,0Z" fill="url(#linear-gradient)"/><path d="M573.4,620.12c-3.48,0,2.79,44.25,6,54.87,7.34,24.22,97.26,44.72,97.92,60.78.17,4.19,0,4.19,0,4.19H373.09l28.33-27.24L423,707.13l11.46-5.42a34.94,34.94,0,0,0,6.25-3.79L464.25,680A37.12,37.12,0,0,0,471,656.83c-.62-14-.62-36.71-.62-36.71Z" fill="url(#linear-gradient-2)"/><path d="M451,551.91s-16.13-30-19-34.72,2.12-20.69,0-24-2.84-52.05,14.17-66.74,26.93-18.69,26.93-18.69c4.21-3.63,32.23-13.86,44-12,35.42,5.58,29.53,3.75,36.07,3.34,15,2.42,26.52,6.47,24.74,16.33,5.67-2.92,10.17-2.95,14.94.35-1.31,2.79-1.48,4.62,0,6,0,0,18.43.67,18.43,46.72,0,44.34-3.44,60.2-8.5,62.74s-14.4,11.55-14.4,11.55,2.35-80.27-20.33-79.63-39.3,12.06-94.25,0C461.8,460.49,444.62,535.89,451,551.91Z" fill="#a8a8a8"/><path d="M449.14,580.13s9.77,47.88,34.32,62.74c38.33,23.21,64.65,3.52,64.65,3.52S578.7,619,583.72,602.83a231.56,231.56,0,0,0,6-22.7,9.36,9.36,0,0,0,6.73-3.33c2.69-3.34,3.36-24.7,5.38-30.7s3.37-16-3.36-15.35-10.09,12-10.09,12,6.1-20.19,2.07-32.2-1.4-37.21-17.55-47.22-36.71-6.68-46.62-3.34-30.76,1.34-43.55-3.34-27.07,16.57-29.09,26.59-5.23,51.5-4.55,59.51l.67,8s-4.71-21.36-8.75-22.69-11.43-1.34-10.09,14.68,3,3.62,8.75,33.37C443.08,593.48,449.14,580.13,449.14,580.13Z" fill="#f4f4f4"/><path d="M453.59,657.63s-5.87,34.51-9.62,35.49,41.68,23.34,58.39,25.5c0,0,10-17.37,21.28-22.63C523.64,696,455.91,673,453.59,657.63Z" fill="#fff"/><path d="M593.12,657.31s6.17,34.45,9.89,35.38-41,23.79-57.46,26.13c0,0-10.11-17.27-21.29-22.4C524.26,696.42,591,672.71,593.12,657.31Z" fill="#fff"/><rect x="761.24" y="339.73" width="400.02" height="399.69" fill="#dbdbdb"/><ellipse cx="965.54" cy="523.24" rx="107.17" ry="101.67" fill="#a8a8a8"/><path d="M1007.93,598.75s-18.46,65.36,5.92,87.42c5.06,4.59,22.74,10.59,22.74,10.59l1.33,5s-.15-7.46,4.55-2.58,18.81,7.32,18.81,7.32l26.45,14.64s16.46,9.15,16.46,12.8v3.66H813.81l27-23.78L861.43,709s7.05-8.54,10.58-7.32l3.52,1.22,6.33-6s27-12.4,33.3-22.46c11.89-18.94,5.93-67.13,5.93-67.13Z" fill="url(#linear-gradient-3)"/><path d="M902.21,586.34s-9.22,15.83,30,52.2c3.51,3.25,11.39,13.17,15.16,14.61,13.77,5.28,21.25,1.73,28.95-.56,6.16-1.83,14.47-11.49,14.47-11.49s32.62-25.05,33.21-37.82,4.61-16.94,4.61-16.94.89-1.69,4.17-.12c5.73,2.74,9.09-8.27,10.15-20.39.81-9.27-4.33-21.13-10.21-20.57s-3.5,1.5-3.5,1.5c-.07-.66.48-11.66-1.73-20.25-3.34-13,1.9-44.75-12.21-53.08s-4.52-11.9-24.93-17.87c-8.73-2.55-41.47,4.39-52.63.5s-29.45,37.05-33.22,44.69c-4.62,9.37-2.86,47.84-2.27,54.5l.59,6.66s-4.12-17.77-7.64-18.88-10-1.11-8.82,12.22S884.08,559.87,894,583C899.78,596.56,902.21,586.34,902.21,586.34Z" fill="#f4f4f4"/><path d="M913.25,673.67c-6-5.94-11.38-11.8-16.32-17.56A178,178,0,0,0,913.25,673.67Z" fill="#a8a8a8"/><path d="M910.28,660.93a23.47,23.47,0,0,0,4.17,2.35Q912.29,662.19,910.28,660.93Z" fill="#a8a8a8"/><path d="M1086.76,523.17l-.09.16a96.68,96.68,0,0,0-3.81-23.52c-31.8-111.5-74.21-107.51-80.4-108.32s-22.17,10-22.17,10S927,363.19,874.85,446.25c-17,27-26,49.81-29.79,69-1.45,3.56-3,7.44-4.61,11.69-3.81,10-1.7,15,2.63,17.25a88,88,0,0,0,2.25,14.22c0,2.51.13,5.1.36,7.77-2.64,5.64-4.82,12.93-.34,17.21-1,10.72,3.44,17.57,10.93,20.62,6.54,13.33,16.61,27.25,31.67,41q4.18,5.46,9,11.05c-2.46-3-5.07-6.3-7.74-9.93A213.35,213.35,0,0,0,916,666.46a183.2,183.2,0,0,1-31.35-27.41c-2.6-3.89-5.91-11.18-6.87-23.79,4.3,12.82,13.88,34.12,32.47,45.67a39.58,39.58,0,0,1-14.63-19.26,20.7,20.7,0,0,0,7.2.43c1-.1,9.2-3.6,19.6-12,0,0-17.38,11.76-28.12,7.43-1.84-6.72-2.64-15-1.5-25.31a17.08,17.08,0,0,0,1.8-1.06c20.58,2.65,33.69-18.56,58.23-96.51,25.17-80,39.88-56.07,39.88-56.07,8.93,17.68,19,34.85,33.72,47.21a181.56,181.56,0,0,1-21.11-26.56c11.59,14.21,16.61,5.49,36.11,48.17,25.29,55.35-21.34,82.79-21.34,82.79a118.07,118.07,0,0,0,19.5-9.73,63.37,63.37,0,0,1-6.44,16.51,31.27,31.27,0,0,1-7.29-5.72,29.44,29.44,0,0,0,6.66,6.74c-.29.46-.59.9-.89,1.31-5.2,7.2-11.2-2-11.2-2a9.36,9.36,0,0,0,5.6,5.59c2.4,1.67,5.16-.23,7.93-4a18,18,0,0,0,8.11,2.76c-.32.87-.66,1.69-1,2.44.43-.72.88-1.52,1.34-2.42,12.28.52,15.6-22.45,16.5-34.47.86-1.23,1.68-2.43,2.49-3.62a89.54,89.54,0,0,0,16.58-22c-3,8.92-6.16,15.85-6.16,15.85,4.49-9,6.35-14.5,10.21-25a173,173,0,0,1-7.19,19.24C1090.06,541.38,1086.76,523.17,1086.76,523.17Zm-243.83,18.5c-4.5-1.56-2.44-11.61,1.47-22.76A106.93,106.93,0,0,0,842.93,541.67ZM872.24,610a30.61,30.61,0,0,1-5.54-2.32c-.28-.65-.56-1.32-.84-2a32.2,32.2,0,0,0,5.28-.59C871.46,606.61,871.82,608.25,872.24,610Zm-26.33-30.74c-.69-2.08-.4-4.86.35-7.71C847.09,577.61,847,573.11,845.91,579.22Zm2.25,6c2.26,1-.34-1.36,4.82,11.41a17.6,17.6,0,0,0,.51,2C849.18,596.29,848,590.91,848.16,585.26Zm5.37,2.79-.54-1.7c.38,0,.76,0,1.14,0C853.91,587,853.7,587.5,853.53,588.05ZM852,582.94q-1.25-4.62-2.06-9.44c.53-2.14-.58-1.18,4.89,7.88.19.66.38,1.33.58,2A13.67,13.67,0,0,1,852,582.94Zm6.85,17.92c-.15-.25-.29-.49-.41-.73s-.26-.26-.39-.39c-.91-2-1.78-4.09-2.59-6.19a14.53,14.53,0,0,1,1.31-5.78c.54,1.66,1.13,3.35,1.75,5.06a8.53,8.53,0,0,0,1.13,3c.73,1.9,1.51,3.81,2.35,5.76A19,19,0,0,1,858.86,600.86Zm2.26-10.38c1.74,2.23,3.49,4.27,5.19,6.15C862.44,596.29,861.11,593.78,861.12,590.48Zm8.73,9.91c.6.61.46.37.6,1.14a29.84,29.84,0,0,1-6.17.3c-.37-.94-.73-1.89-1.09-2.84A15.27,15.27,0,0,0,869.85,600.39ZM864,605.94c-.57-.4-.49-.3-.13-.29C863.87,605.75,863.92,605.85,864,605.94Zm-.65,4.13a31.47,31.47,0,0,0,3.49,1.72A201.94,201.94,0,0,0,879,632.62,153,153,0,0,1,863.31,610.07Zm20.33,27.85c-3.44-3.82-11.37-18.39-14.64-25.27a40.51,40.51,0,0,0,4.23,1.2C875.47,622.08,878.81,631.21,883.64,637.92Zm165.47-43.81c1-.72,2-1.46,2.93-2.23.2,1.13.58.22-3.36,6.53C1048.84,597,1049,595.6,1049.11,594.11Zm-14.33,23.72c3.65-5.35,7.24-13.58,10-20.66,1-.64,1.91-1.3,2.88-2-.2,1.69-.48,3.84-.85,6.24-1.73,2.75-1.93,3,0,.32a121.39,121.39,0,0,1-3.93,17.92A15.27,15.27,0,0,1,1034.78,617.83Zm16.88-6.91c-1.89,5.67-4.9,8.09-8.22,8.65a73.68,73.68,0,0,0,5.16-20.45q2-2.79,3.74-5.43C1053.17,599.24,1053.42,605.66,1051.66,610.92Zm7.33-24.44c0-.71-.11-.41.76-1.23C1059.49,585.67,1059.23,586.08,1059,586.48Z" fill="#a8a8a8"/><path d="M1025.89,611.26c-.15-.21-.23-.34-.23-.34A1.3,1.3,0,0,0,1025.89,611.26Z" fill="#a8a8a8"/><path d="M1036.86,629.31c1.6-.64,3-2.54,4.23-5.16A17.8,17.8,0,0,1,1036.86,629.31Z" fill="#a8a8a8"/><rect x="1198.61" y="340.22" width="396.49" height="396.71" fill="#dbdbdb"/><path d="M1466.09,696.63c-47.75-16.92-96-16.34-144.18,0V651.46c48.46-12.39,96.49-11.58,144.18,0Z" fill="url(#linear-gradient-4)"/><path d="M1445.81,613c-3.6,0,2.89,45.76,6.23,56.75,4.45,14.65,32.2,26,60.72,34.65,13.08,4,37.27,21.42,40.61,28.2,1.92,3.88,1.81,4.33,1.81,4.33H1238.53l19.94-19.16a49.59,49.59,0,0,1,22-12.27l9.73-2.52,11.86-5.6a37,37,0,0,0,6.46-3.92L1332.86,675a38.47,38.47,0,0,0,7-24c-.64-14.44-.64-38-.64-38Z" fill="url(#linear-gradient-5)"/><polygon points="1375.84 736.53 1412.52 736.53 1401.81 723.05 1386.94 723.05 1375.84 736.53" fill="#a8a8a8"/><path d="M1390.71,691.11l-20.22,20.23s4,16.77,13.08,15.08c.86-.16-.06.78,4,2.62,4.36,2,9.85-.06,14-.64a17.2,17.2,0,0,0,12.51-8.4l5-8.46-19.23-19.64Z" fill="#a8a8a8"/><path d="M1312.41,690.91s33.3,27.38,56.69,30.15c1.88.23,6.74.4,7.54-.79L1395,691.91l-68.28-22.42Z" fill="url(#radial-gradient)" style="mix-blend-mode:darken"/><path d="M1477.8,691.31s-33.31,27.37-56.7,30.15c-1.88.22-6.74.4-7.54-.79l-18.32-28.37,68.28-22.41Z" fill="url(#radial-gradient-2)" style="mix-blend-mode:darken"/><path d="M1319.48,570.92s10.1,49.51,35.51,64.88c39.67,24,66.91,3.64,66.91,3.64s31.65-28.35,36.84-45.06a239.53,239.53,0,0,0,6.27-23.46,9.67,9.67,0,0,0,7-3.45c2.79-3.45,3.48-25.54,5.57-31.75s3.48-16.56-3.48-15.87-10.44,12.42-10.44,12.42,13.14-45.14,9-57.56-8.28-14.22-25-24.57-25-18.56-35.28-15.1-58.14,5.62-71.37.79-25.66,35.66-27.75,46,5.58,42.14,6.28,50.42l.69,8.28s-4.87-22.08-9.05-23.46-11.83-1.38-10.44,15.18,3.08,3.74,9,34.51C1313.21,584.72,1319.48,570.92,1319.48,570.92Z" fill="#eaeaea"/><path d="M1321.83,651.8s-6.07,35.68-10,36.69,43.14,24.14,60.43,26.37c0,0,10.39-18,22-23.4C1394.32,691.46,1324.23,667.69,1321.83,651.8Z" fill="#f9f7f7"/><path d="M1466.22,651.46s6.38,35.62,10.24,36.59-42.4,24.6-59.47,27c0,0-10.46-17.85-22-23.15C1395,691.91,1464,667.38,1466.22,651.46Z" fill="#f9f7f7"/><path d="M1319.93,529.76s-5.79-18.2-4.51-27.3-5.14-46.14,16.73-52.64,39.89.65,45.69-.65,28.45-11.84,36.67-9.75c9.31,2.36,41.18,27.95,48.9,27.95,0,0,3.28,19.16,5.21,22.41s-2,29.58-2,33.48,0,5.85,1.28,9.75c0,0,1.93-7.15,2.58-11.7s8.36-16.25,8.36-16.25,6.44-39,5.15-41.59,6.43-5.85-5.15-27.3-63-52.65-84.29-55.25-50.83,0-63,33.8c0,0-32.17,7.15-36.68,40.95s20.59,57.84,20.59,68.24,3.22,16.25,3.22,16.25Z" fill="#a8a8a8"/><path d="M1465.81,530.91c.58,1.59-5.34-1-5.34-1s-7.22,21.25-11.1,22.31-41.78,1.32-44.38-1.94c-1.9-2.39-4.67-11.26-6-15.85-5.73-3.47-10.9-1.52-14.54,1.15-1.44,4.79-3.93,12.49-5.68,14.7-2.6,3.26-40.51,3-44.38,1.94s-11.1-22.31-11.1-22.31-5.92,2.55-5.35,1c1-2.63-1.4-7.63-3.27-10.8,3.2,2.9,7.73,2.31,7.73,2.31s1.82-3.5,7.74-3.69c15.2-.49,42.29-2.58,57.63,4,4.9.68,5.72.49,8.24,0,15.34-6.6,42.43-4.51,57.62-4,5.92.19,7.75,3.69,7.75,3.69s4.53.59,7.73-2.31C1467.22,523.28,1464.86,528.28,1465.81,530.91Z" fill="#a8a8a8"/><path d="M1377.83,523.5s-18.64-5.16-45.2-.79c-12.53,2.06,2.38,25.78,2.77,26.18s21.81,3.57,40-.4C1381.21,547.24,1383.38,523.11,1377.83,523.5Z" fill="#eaeaea"/><path d="M1406.18,523.5s18.63-5.16,45.2-.79c12.52,2.06-2.38,25.78-2.78,26.18s-21.81,3.57-40-.4C1402.8,547.24,1400.63,523.11,1406.18,523.5Z" fill="#eaeaea"/><path d="M1468.49,517.79a8.39,8.39,0,0,1-1.78,2.32C1468.1,517.75,1469.21,516.4,1468.49,517.79Z" fill="#a8a8a8"/><path d="M1312.27,520.11a8.39,8.39,0,0,1-1.78-2.32C1309.76,516.4,1310.88,517.75,1312.27,520.11Z" fill="#a8a8a8"/><text transform="translate(422.26 794.29)" font-size="55.57" fill="#606060" font-family="BebasNeueBook, Bebas Neue">Propie<tspan x="109.7" y="0" letter-spacing="-0.04em">t</tspan><tspan x="127.82" y="0">ario</tspan></text><text transform="translate(845.53 793.61)" font-size="52.32" fill="#606060" font-family="BebasNeueBook, Bebas Neue">RES<tspan x="57.91" y="0" letter-spacing="-0.04em">T</tspan><tspan x="75.23" y="0" letter-spacing="0em">AURANTeS</tspan></text><text transform="translate(1307.6 793.61)" font-size="52.32" fill="#606060" font-family="BebasNeueBook, Bebas Neue">comensal</text><text transform="translate(842.69 204.91)" font-size="40" fill="#d33527" font-family="Bebas"><tspan letter-spacing="0.02em">US</tspan><tspan x="43.63" y="0">U</tspan><tspan x="64.34" y="0" letter-spacing="0.02em">A</tspan><tspan x="88.26" y="0" letter-spacing="0.02em">R</tspan><tspan x="110.88" y="0" letter-spacing="0.03em">I</tspan><tspan x="120.99" y="0" letter-spacing="0.02em">O</tspan><tspan x="142.41" y="0">S</tspan></text><line x1="90.17" y1="192.71" x2="804.29" y2="192.71" fill="none" stroke="#d33527" stroke-miterlimit="10"/><line x1="1041.17" y1="192.71" x2="1755.29" y2="192.71" fill="none" stroke="#d33527" stroke-miterlimit="10"/></g></g></svg>