<svg xmlns="http://www.w3.org/2000/svg" xmlns:xlink="http://www.w3.org/1999/xlink" viewBox="0 0 1920 1080"><defs><radialGradient id="_ÂÁ_Ï_ÌÌ_È_ËÂÌÚ_6" cx="-12282.07" cy="-1302857.89" r="253.68" gradientTransform="matrix(0, -1.91, 0.35, 0, 452999.86, -22843.53)" gradientUnits="userSpaceOnUse"><stop offset="0.09"/><stop offset="0.18" stop-color="#393939"/><stop offset="0.28" stop-color="#6d6d6d"/><stop offset="0.38" stop-color="#9a9a9a"/><stop offset="0.48" stop-color="#bebebe"/><stop offset="0.58" stop-color="#dbdbdb"/><stop offset="0.67" stop-color="#efefef"/><stop offset="0.77" stop-color="#fbfbfb"/><stop offset="0.87" stop-color="#fff"/></radialGradient><clipPath id="clip-path"><path d="M1344.31,699.56c-.68,5.64-29.68,3.16-29.68,3.16s.82,5.43-10.92,5.43-27.82-3.62-27.82-3.62-3,5.07-15.46,5.77c-16.07.9-37.7-5.31-37.7-5.31s-11.13,6.21-37.51,6.21-37.5-6.21-37.5-6.21-21.64,6.21-37.72,5.31c-12.5-.7-15.45-5.77-15.45-5.77s-16.07,3.62-27.81,3.62-10.92-5.43-10.92-5.43-29,2.48-29.68-3.16c-.72-6,4.67-55.7,4.67-55.7v-1.21c0-2.49,7.38-4.52,16.49-4.52h275.85c9.1,0,16.48,2,16.48,4.52v1.21s5.39,49.65,4.68,55.7m-2.72-14.85c-.6,4.08-15,4-23.27,3.56-2.78-17.13-7.58-44.73-9.65-44.73-1.76,0,1.19,30.64,2.91,47.22-1.26,1.37-3.9,2.72-9.54,2.72a120,120,0,0,1-20.48-2.35c-3.3-17.94-9.1-47.59-11.25-47.59-1.8,0,1.43,30.47,3.39,47.61-1.75,1.59-5.68,4.05-13.83,4.53-9.56.56-21.11-1.59-28.68-3.36-3.57-18.29-9.74-48.78-11.28-48.78-2.29,0,.3,30,2,47.29-3.33,1.54-14.28,5.78-35.33,5.78s-32-4.24-35.33-5.78c1.69-17.33,4.28-47.29,2-47.29-1.54,0-7.71,30.49-11.28,48.78-7.57,1.77-19.13,3.92-28.69,3.36-8.14-.48-12.07-2.94-13.82-4.53,2-17.14,5.19-47.61,3.38-47.61-2.15,0-7.94,29.65-11.24,47.59a120,120,0,0,1-20.48,2.35c-5.64,0-8.29-1.35-9.54-2.72,1.72-16.58,4.66-47.22,2.9-47.22-2.06,0-6.86,27.6-9.65,44.73-8.23.4-22.66.52-23.26-3.56a39.06,39.06,0,0,0,0,4.89c.45,4,14.1,4,22.48,3.66-.8,5-1.29,8.3-1.29,8.3l7.73-.44s.26-2.34.65-6c1,1.55,3.48,3.34,10,3.34a116.7,116.7,0,0,0,19.53-2.16c-.9,5-1.46,8.25-1.46,8.25l8.93-2s.33-2.69.82-6.9c1.44,1.52,5.34,4.49,14.34,5,9.15.54,20.12-1.41,27.69-3.13-1,5-1.58,8.29-1.58,8.29l10.64-3s.31-2.83.76-7.27c2.74,1.35,13.79,6,35.8,6s33.06-4.65,35.79-6c.45,4.44.76,7.27.76,7.27l10.64,3s-.61-3.27-1.57-8.29c7.57,1.72,18.54,3.67,27.68,3.13s12.91-3.5,14.34-5c.49,4.21.83,6.9.83,6.9l8.93,2s-.56-3.26-1.47-8.25a116.7,116.7,0,0,0,19.54,2.16c6.51,0,9-1.79,10-3.34.39,3.7.65,6,.65,6l7.73.44s-.5-3.3-1.29-8.3c8.38.37,22,.35,22.48-3.66a39.06,39.06,0,0,0,0-4.89" fill="#fff" clip-rule="evenodd"/></clipPath><clipPath id="clip-path-2"><rect x="887.66" y="489.81" width="4152.23" height="2952.7" fill="#fff"/></clipPath><clipPath id="clip-path-3"><rect x="-14.12" y="1354.85" width="1915.12" height="640.51" fill="none"/></clipPath><clipPath id="clip-path-4"><path d="M900.52-1859.72H905q6.83,0,9.28,2.69c1.64,1.79,2.46,4.91,2.46,9.34q0,6.89-2.86,9.5t-9.55,2.62h-3.85ZM890.29-1867V-1794h10.23v-34.29h7.93l9.66,34.29H928l-10.5-36.67q9.09-3,9.08-17.06,0-10.27-5.2-14.81T905-1867Z" fill="none"/></clipPath><clipPath id="clip-path-5"><polygon points="937.38 -1867.04 937.38 -1793.96 966.04 -1793.96 966.04 -1801.28 947.61 -1801.28 947.61 -1828.08 962.41 -1828.08 962.41 -1835.35 947.61 -1835.35 947.61 -1859.5 965.82 -1859.5 965.82 -1867.04 937.38 -1867.04" fill="none"/></clipPath><clipPath id="clip-path-6"><path d="M989.52-1867.74q-8,.09-12.65,4.51t-4.63,12.37a21.74,21.74,0,0,0,1.71,9.1,21.69,21.69,0,0,0,5.43,7.07l12.31,10.89q2.09,1.93,3.21,3.11a24.88,24.88,0,0,1,2.39,2.93,11.8,11.8,0,0,1,1.82,3.7,15.52,15.52,0,0,1,.55,4.28c0,2.82-.68,5-2.06,6.41a7.87,7.87,0,0,1-6,2.18q-9.44,0-10.41-15.69l-9.12,2.47q.57,9.87,5.42,15.56t14.11,5.68q7.85,0,12.72-4.69t4.87-12.72a21.87,21.87,0,0,0-2.86-11.19,38.18,38.18,0,0,0-7.68-9.26l-12.41-10.88a16.9,16.9,0,0,1-3.72-4.54,11.71,11.71,0,0,1-1.11-5.38q0-7.45,8.11-8a8.78,8.78,0,0,1,3.9.55,6.94,6.94,0,0,1,2.7,1.85,10.07,10.07,0,0,1,1.73,3,20.13,20.13,0,0,1,1,3.73c.2,1.23.37,2.64.48,4.23l8.64-2.38q-.88-9.75-5.27-14.4T990-1867.75h-.48" fill="none"/></clipPath><clipPath id="clip-path-7"><polygon points="1017.25 -1867.04 1017.25 -1793.96 1045.92 -1793.96 1045.92 -1801.28 1027.49 -1801.28 1027.49 -1828.08 1042.28 -1828.08 1042.28 -1835.35 1027.49 -1835.35 1027.49 -1859.5 1045.7 -1859.5 1045.7 -1867.04 1017.25 -1867.04" fill="none"/></clipPath><clipPath id="clip-path-8"><polygon points="1129.91 -1867.04 1118.83 -1813.22 1107.23 -1867.04 1097.66 -1867.04 1114.05 -1793.96 1123 -1793.96 1139.26 -1867.04 1129.91 -1867.04" fill="none"/></clipPath><clipPath id="clip-path-9"><path d="M1161.19-1852.67l6.15,33h-12.27Zm-5-14.37L1140.54-1794h9.7l3.5-18.43h14.93L1172-1794h9.74L1166.1-1867Z" fill="none"/></clipPath><clipPath id="clip-path-10"><path d="M1144-1710.91c-2.07-19.95-5.61-56.83-3.5-56.83,2.49,0,8.27,33.22,11.62,53.84,9.91.48,27.28.62,28-4.29a45.63,45.63,0,0,1,0,5.89c-.54,4.82-17,4.85-27.06,4.4,1,6,1.57,10,1.57,10l-9.32-.53s-.31-2.81-.78-7.27c-1.19,1.87-4.19,4-12,4-7.68,0-16.83-1.38-23.52-2.61,1.09,6,1.77,9.94,1.77,9.94l-10.75-2.41s-.41-3.24-1-8.31c-1.72,1.83-6.41,5.4-17.25,6-11,.65-24.21-1.69-33.32-3.76,1.16,6,1.89,10,1.89,10l-12.81-3.56s-.37-3.41-.91-8.75c-3.29,1.62-16.6,7.22-43.08,7.22s-39.78-5.6-43.09-7.22c-.53,5.34-.91,8.75-.91,8.75l-12.8,3.56s.74-3.93,1.9-10c-9.11,2.07-22.31,4.41-33.33,3.76-10.83-.64-15.53-4.21-17.26-6-.59,5.07-1,8.31-1,8.31l-10.76,2.41s.68-3.93,1.77-9.94c-6.69,1.23-15.85,2.61-23.52,2.61-7.84,0-10.84-2.16-12-4-.47,4.46-.79,7.27-.79,7.27l-9.3.53s.6-4,1.55-10c-10.08.45-26.51.42-27-4.4a47.6,47.6,0,0,1,0-5.89c.71,4.91,18.08,4.77,28,4.29,3.35-20.62,9.14-53.84,11.62-53.84,2.11,0-1.43,36.88-3.5,56.83,1.51,1.65,4.7,3.27,11.48,3.27,8.11,0,17.9-1.54,24.65-2.82,4-21.6,10.95-57.28,13.54-57.28,2.17,0-1.72,36.68-4.08,57.3,2.11,1.91,6.85,4.87,16.64,5.45,11.51.68,25.42-1.91,34.53-4,4.29-22,11.72-58.72,13.57-58.72,2.76,0-.36,36.06-2.39,56.91,4,1.86,17.18,7,42.52,7s38.52-5.1,42.52-7c-2-20.85-5.14-56.91-2.4-56.91,1.86,0,9.29,36.69,13.58,58.72,9.12,2.12,23,4.71,34.53,4,9.8-.58,14.53-3.54,16.63-5.45-2.35-20.62-6.24-57.3-4.07-57.3,2.59,0,9.56,35.68,13.54,57.28,6.75,1.28,16.54,2.82,24.65,2.82,6.78,0,10-1.62,11.48-3.27m-318.08-63.34c-11,0-19.85,2.44-19.85,5.44v1.45s-6.49,59.76-5.62,67c.81,6.79,35.72,3.81,35.72,3.81s-1,6.54,13.15,6.54,33.47-4.36,33.47-4.36,3.55,6.09,18.6,6.94c19.35,1.09,45.39-6.4,45.39-6.4s13.4,7.49,45.14,7.49,45.14-7.49,45.14-7.49,26,7.49,45.38,6.4c15-.85,18.6-6.94,18.6-6.94s19.35,4.36,33.49,4.36,13.14-6.54,13.14-6.54,34.91,3,35.72-3.81c.86-7.28-5.63-67-5.63-67v-1.45c0-3-8.88-5.44-19.83-5.44Z" fill="none"/></clipPath></defs><title>slide</title><g style="isolation:isolate"><g id="Layer_1" data-name="Layer 1"><rect x="881.69" width="1038.31" height="1080" fill="#d33527"/><path d="M261,474.76H195.5Q200.62,435.07,224,411q32.64-33.6,82.07-33.6,44.08,0,73.91,28t29.83,66.48a77.47,77.47,0,0,1-13,43.6q-13,19.73-37.87,31.9,32.63,9.74,51,34t18.38,57.11q0,48.21-35.55,81.7t-90.59,33.48q-52.12,0-85-31.53t-36.05-85.85h67.46Q253,664,268,677.49T305.82,691q23.87,0,39.57-15.34t15.71-37.51q0-24.35-21.19-41.15t-61.12-17.29V521.27q24.58-1.95,36.65-7.67a45.42,45.42,0,0,0,18.75-15.71,37.41,37.41,0,0,0,6.7-21.18q0-14.62-10.23-24.24t-26.79-9.61a43.39,43.39,0,0,0-26.54,8.88A44.45,44.45,0,0,0,261,474.76Z" fill="#a7aeb0"/><path d="M440.26,335.35a228.18,228.18,0,0,0-98.49,22.2V771.36a228.32,228.32,0,0,0,98.49,22.2c126.53,0,229.1-102.58,229.1-229.11S566.79,335.35,440.26,335.35Z" fill="#a7aeb0"/><path d="M341.41,197.08V931.67s-67.9-114.22-67.9-367.3C273.51,318.36,341.41,197.08,341.41,197.08Z" fill="url(#_ÂÁ_Ï_ÌÌ_È_ËÂÌÚ_6)" style="mix-blend-mode:multiply"/><text transform="translate(411.91 593.64)" font-size="33.47" fill="#fff" font-family="Bebas"><tspan letter-spacing="0.01em">P</tspan><tspan x="17.71" y="0">r</tspan><tspan x="35.88" y="0" letter-spacing="0.03em">o</tspan><tspan x="54.06" y="0" letter-spacing="0.02em">b</tspan><tspan x="73.1" y="0">le</tspan><tspan x="104.32" y="0" letter-spacing="0.02em">m</tspan><tspan x="128.93" y="0">a</tspan></text><text transform="translate(411.91 635.05)" font-size="33.47" fill="#fff" font-family="Bebas">y <tspan x="22.73" y="0" letter-spacing="0.02em">s</tspan><tspan x="41.25" y="0" letter-spacing="0.03em">o</tspan><tspan x="59.46" y="0">l</tspan><tspan x="74.79" y="0" letter-spacing="0.02em">u</tspan><tspan x="92.96" y="0" letter-spacing="0.02em">c</tspan><tspan x="110.88" y="0" letter-spacing="0.03em">i</tspan><tspan x="119.35" y="0" letter-spacing="0.03em">o</tspan><tspan x="137.53" y="0" letter-spacing="0em">n</tspan></text><path d="M488.76,540.62a14.39,14.39,0,0,0-2.44-.14H468.15a20.44,20.44,0,0,0-2.21.07,1,1,0,0,0-.35.49A10.34,10.34,0,0,0,467,543l1.18,1.37c.72.83,1.37,1.56,1.45,1.62a16.4,16.4,0,0,0,2.29.1h10.59c1.1,0,2.07,0,2.16,0a14.34,14.34,0,0,0,1.58-1.68l1.19-1.37a13.63,13.63,0,0,0,1.48-1.93l-.09-.21Zm-3.19,2.75a5,5,0,0,1-3.31,1.52H472.21a5,5,0,0,1-3.3-1.52l-.19-.21c-.71-.83-.4-1.51.7-1.51h15.63c1.1,0,1.42.68.7,1.51Z" fill="#fff"/><path d="M488.76,540.62a14.39,14.39,0,0,0-2.44-.14H468.15a20.44,20.44,0,0,0-2.21.07,1,1,0,0,0-.35.49A10.34,10.34,0,0,0,467,543l1.18,1.37c.72.83,1.37,1.56,1.45,1.62a16.4,16.4,0,0,0,2.29.1h10.59c1.1,0,2.07,0,2.16,0a14.34,14.34,0,0,0,1.58-1.68l1.19-1.37a13.63,13.63,0,0,0,1.48-1.93l-.09-.21Zm-3.19,2.75a5,5,0,0,1-3.31,1.52H472.21a5,5,0,0,1-3.3-1.52l-.19-.21c-.71-.83-.4-1.51.7-1.51h15.63c1.1,0,1.42.68.7,1.51Z" fill="#fff"/><path d="M484.86,546.58c-.18,0-1.23.07-2.33.07H471.94c-1.1,0-2.15,0-2.33-.07a12.41,12.41,0,0,1-1.86-1.85l-1.19-1.38a13.26,13.26,0,0,1-1.68-2.36l.19-.42.21-.43a13.86,13.86,0,0,1,2.87-.26h18.17a13.35,13.35,0,0,1,2.89.27l.19.41.19.44a13.29,13.29,0,0,1-1.67,2.35l-1.19,1.38A11.39,11.39,0,0,1,484.86,546.58Zm-15.25-3.31a4.35,4.35,0,0,0,2.88,1H482a4.3,4.3,0,0,0,2.87-1c.48-.56,0-1-1.12-1h-13C469.64,542.25,469.13,542.71,469.61,543.27Z" fill="#fff"/><path d="M484.86,546.58c-.18,0-1.23.07-2.33.07H471.94c-1.1,0-2.15,0-2.33-.07a12.41,12.41,0,0,1-1.86-1.85l-1.19-1.38a13.26,13.26,0,0,1-1.68-2.36l.19-.42.21-.43a13.86,13.86,0,0,1,2.87-.26h18.17a13.35,13.35,0,0,1,2.89.27l.19.41.19.44a13.29,13.29,0,0,1-1.67,2.35l-1.19,1.38A11.39,11.39,0,0,1,484.86,546.58Zm-15.25-3.31a4.35,4.35,0,0,0,2.88,1H482a4.3,4.3,0,0,0,2.87-1c.48-.56,0-1-1.12-1h-13C469.64,542.25,469.13,542.71,469.61,543.27Z" fill="#fff"/><path d="M485.67,476.73A23.31,23.31,0,0,0,455.54,490c-3.43,8.83,4.25,23.08,4.25,23.08a23.57,23.57,0,0,1,1.52,3.68l2.3,7.68a15.4,15.4,0,0,0,.72,2.12,8.42,8.42,0,0,0,2.4.21h21a20.5,20.5,0,0,0,2.25-.08,8.81,8.81,0,0,0,.88-2.25l2.3-7.68a12.31,12.31,0,0,1,1.84-3.47,29,29,0,0,0,3.93-6.43A23.32,23.32,0,0,0,485.67,476.73Zm4.21,47a2.86,2.86,0,0,1-2.57,1.92H467.16a2.86,2.86,0,0,1-2.57-1.92L463,518.28c-.32-1.06.16-1.4,1.06-.77a26.3,26.3,0,0,0,4.77,2.62,23.24,23.24,0,0,0,21.43-2.4l.64-.42c.66-.53.95-.09.63,1Zm8-17.25a22.29,22.29,0,0,1-3.5,6c-.25.3-.5.59-.77.88a12.6,12.6,0,0,1-.88.91,22.1,22.1,0,0,1-31,0c-.3-.29-.59-.59-.86-.9a10.78,10.78,0,0,1-.77-.9,22.11,22.11,0,1,1,37.74-6Z" fill="#fff"/><path d="M485.67,476.73A23.31,23.31,0,0,0,455.54,490c-3.43,8.83,4.25,23.08,4.25,23.08a23.57,23.57,0,0,1,1.52,3.68l2.3,7.68a15.4,15.4,0,0,0,.72,2.12,8.42,8.42,0,0,0,2.4.21h21a20.5,20.5,0,0,0,2.25-.08,8.81,8.81,0,0,0,.88-2.25l2.3-7.68a12.31,12.31,0,0,1,1.84-3.47,29,29,0,0,0,3.93-6.43A23.32,23.32,0,0,0,485.67,476.73Zm4.21,47a2.86,2.86,0,0,1-2.57,1.92H467.16a2.86,2.86,0,0,1-2.57-1.92L463,518.28c-.32-1.06.16-1.4,1.06-.77a26.3,26.3,0,0,0,4.77,2.62,23.24,23.24,0,0,0,21.43-2.4l.64-.42c.66-.53.95-.09.63,1Zm8-17.25a22.29,22.29,0,0,1-3.5,6c-.25.3-.5.59-.77.88a12.6,12.6,0,0,1-.88.91,22.1,22.1,0,0,1-31,0c-.3-.29-.59-.59-.86-.9a10.78,10.78,0,0,1-.77-.9,22.11,22.11,0,1,1,37.74-6Z" fill="#fff"/><path d="M490.24,527.2a13.49,13.49,0,0,1-2.5.17h-21a13.57,13.57,0,0,1-2.5-.17,7.3,7.3,0,0,1-1.21-2.59l-2.25-7.54a25,25,0,0,0-1.49-3.69s-7.7-14.86-4.3-23.6a23.88,23.88,0,0,1,44.52,17.3,30.36,30.36,0,0,1-4,6.52,12.56,12.56,0,0,0-1.82,3.48l-2.26,7.54A6.89,6.89,0,0,1,490.24,527.2ZM465,523.09a2.85,2.85,0,0,0,2.57,1.91h19.25a2.85,2.85,0,0,0,2.57-1.91l1-3.21c.32-1.06.46-1.84.31-1.74l-.13.09a24,24,0,0,1-22,2.46,23.78,23.78,0,0,1-3.38-1.67c-.94-.58-1.44-.19-1.13.87Zm14.22-46a11.42,11.42,0,0,0-3.9.43s-15,4.89-18.18,13.1A21.56,21.56,0,0,0,460.59,512a10.32,10.32,0,0,0,.73.86c.29.32.56.61.85.89a21.22,21.22,0,0,0,7.28,4.7,21.56,21.56,0,0,0,22.84-4.69c.3-.29.58-.57.85-.88s.51-.57.75-.87a23.3,23.3,0,0,0,2.53-4,27.53,27.53,0,0,0,1.42-3.73,25.37,25.37,0,0,0,.91-5.84A21.67,21.67,0,0,0,485,478.37,25.48,25.48,0,0,0,479.26,477.11Zm-17.95,37.54a1.65,1.65,0,0,0,.18.17c.09.08.07,0-.05-.07l-.11-.11h0S461.3,514.63,461.31,514.65Zm31.76.06.08-.07,0,0-.06.06C493,514.78,493,514.78,493.07,514.71Z" fill="#fff"/><path d="M490.24,527.2a13.49,13.49,0,0,1-2.5.17h-21a13.57,13.57,0,0,1-2.5-.17,7.3,7.3,0,0,1-1.21-2.59l-2.25-7.54a25,25,0,0,0-1.49-3.69s-7.7-14.86-4.3-23.6a23.88,23.88,0,0,1,44.52,17.3,30.36,30.36,0,0,1-4,6.52,12.56,12.56,0,0,0-1.82,3.48l-2.26,7.54A6.89,6.89,0,0,1,490.24,527.2ZM465,523.09a2.85,2.85,0,0,0,2.57,1.91h19.25a2.85,2.85,0,0,0,2.57-1.91l1-3.21c.32-1.06.46-1.84.31-1.74l-.13.09a24,24,0,0,1-22,2.46,23.78,23.78,0,0,1-3.38-1.67c-.94-.58-1.44-.19-1.13.87Zm14.22-46a11.42,11.42,0,0,0-3.9.43s-15,4.89-18.18,13.1A21.56,21.56,0,0,0,460.59,512a10.32,10.32,0,0,0,.73.86c.29.32.56.61.85.89a21.22,21.22,0,0,0,7.28,4.7,21.56,21.56,0,0,0,22.84-4.69c.3-.29.58-.57.85-.88s.51-.57.75-.87a23.3,23.3,0,0,0,2.53-4,27.53,27.53,0,0,0,1.42-3.73,25.37,25.37,0,0,0,.91-5.84A21.67,21.67,0,0,0,485,478.37,25.48,25.48,0,0,0,479.26,477.11Zm-17.95,37.54a1.65,1.65,0,0,0,.18.17c.09.08.07,0-.05-.07l-.11-.11h0S461.3,514.63,461.31,514.65Zm31.76.06.08-.07,0,0-.06.06C493,514.78,493,514.78,493.07,514.71Z" fill="#fff"/><path d="M483.88,481.34c-4.69-1.82-12-.14-12-.14a6,6,0,0,0-1.88.59l.2.42a4.93,4.93,0,0,0,2.06-.14s6.85-1.57,11.29.16c8.06,3.13,10.37,17.87,10.37,17.87.17,1.09.32,2,.34,2l.17.1c.07,0,.32.18.4.23a3.91,3.91,0,0,0,0-1.8S492.48,484.68,483.88,481.34Z" fill="#fff"/><path d="M483.88,481.34c-4.69-1.82-12-.14-12-.14a6,6,0,0,0-1.88.59l.2.42a4.93,4.93,0,0,0,2.06-.14s6.85-1.57,11.29.16c8.06,3.13,10.37,17.87,10.37,17.87.17,1.09.32,2,.34,2l.17.1c.07,0,.32.18.4.23a3.91,3.91,0,0,0,0-1.8S492.48,484.68,483.88,481.34Z" fill="#fff"/><path d="M495.57,503.16a.28.28,0,0,1-.46.19l-.64-.42-.09-.05-.15-.1a3.38,3.38,0,0,0-.51-.19.27.27,0,0,1-.2-.35,12.06,12.06,0,0,0-.22-2.26s-2.27-14.19-10-17.19c-4.14-1.61-10.82-.15-10.82-.15-1.08.24-2.09.49-2.25.56a.3.3,0,0,1-.41-.18l-.21-.59-.06-.12-.06-.12c-.08-.16-.2-.42-.26-.57a.3.3,0,0,1,.15-.4c.15-.07,1.16-.32,2.23-.55l10.5-.24,2,.34s.65.62,1.46,1.37l9.81,18.63A12.93,12.93,0,0,1,495.57,503.16Z" fill="#fff"/><path d="M495.57,503.16a.28.28,0,0,1-.46.19l-.64-.42-.09-.05-.15-.1a3.38,3.38,0,0,0-.51-.19.27.27,0,0,1-.2-.35,12.06,12.06,0,0,0-.22-2.26s-2.27-14.19-10-17.19c-4.14-1.61-10.82-.15-10.82-.15-1.08.24-2.09.49-2.25.56a.3.3,0,0,1-.41-.18l-.21-.59-.06-.12-.06-.12c-.08-.16-.2-.42-.26-.57a.3.3,0,0,1,.15-.4c.15-.07,1.16-.32,2.23-.55l10.5-.24,2,.34s.65.62,1.46,1.37l9.81,18.63A12.93,12.93,0,0,1,495.57,503.16Z" fill="#fff"/><ellipse cx="475.25" cy="533.63" rx="1.62" ry="0.58" fill="#fff"/><ellipse cx="475.25" cy="533.63" rx="1.62" ry="0.58" fill="#fff"/><path d="M477.47,533.63c0,.65-.9,1.19-2,1.19H475c-1.1,0-2-.54-2-1.19s.9-1.18,2-1.18h.44C476.57,532.45,477.47,533,477.47,533.63Z" fill="#fff"/><path d="M477.47,533.63c0,.65-.9,1.19-2,1.19H475c-1.1,0-2-.54-2-1.19s.9-1.18,2-1.18h.44C476.57,532.45,477.47,533,477.47,533.63Z" fill="#fff"/><ellipse cx="468.78" cy="533.63" rx="1.62" ry="0.58" fill="#fff"/><ellipse cx="468.78" cy="533.63" rx="1.62" ry="0.58" fill="#fff"/><path d="M471,533.63c0,.65-.9,1.19-2,1.19h-.43c-1.1,0-2-.54-2-1.19s.9-1.18,2-1.18H469C470.1,532.45,471,533,471,533.63Z" fill="#fff"/><path d="M471,533.63c0,.65-.9,1.19-2,1.19h-.43c-1.1,0-2-.54-2-1.19s.9-1.18,2-1.18H469C470.1,532.45,471,533,471,533.63Z" fill="#fff"/><ellipse cx="481.71" cy="533.63" rx="1.62" ry="0.58" fill="#fff"/><ellipse cx="481.71" cy="533.63" rx="1.62" ry="0.58" fill="#fff"/><path d="M483.94,533.63c0,.65-.9,1.19-2,1.19h-.45c-1.1,0-2-.54-2-1.19s.9-1.18,2-1.18h.45C483,532.45,483.94,533,483.94,533.63Z" fill="#fff"/><path d="M483.94,533.63c0,.65-.9,1.19-2,1.19h-.45c-1.1,0-2-.54-2-1.19s.9-1.18,2-1.18h.45C483,532.45,483.94,533,483.94,533.63Z" fill="#fff"/><ellipse cx="486.94" cy="533.63" rx="0.37" ry="0.58" fill="#fff"/><ellipse cx="486.94" cy="533.63" rx="0.37" ry="0.58" fill="#fff"/><ellipse cx="486.94" cy="533.63" rx="0.98" ry="1.18" fill="#fff"/><ellipse cx="486.94" cy="533.63" rx="0.98" ry="1.18" fill="#fff"/><ellipse cx="481.71" cy="537.35" rx="1.62" ry="0.58" fill="#fff"/><ellipse cx="481.71" cy="537.35" rx="1.62" ry="0.58" fill="#fff"/><path d="M483.94,537.35c0,.65-.9,1.18-2,1.18h-.45c-1.1,0-2-.53-2-1.18s.9-1.19,2-1.19h.45C483,536.16,483.94,536.69,483.94,537.35Z" fill="#fff"/><path d="M483.94,537.35c0,.65-.9,1.18-2,1.18h-.45c-1.1,0-2-.53-2-1.18s.9-1.19,2-1.19h.45C483,536.16,483.94,536.69,483.94,537.35Z" fill="#fff"/><ellipse cx="468.78" cy="537.35" rx="1.62" ry="0.58" fill="#fff"/><ellipse cx="468.78" cy="537.35" rx="1.62" ry="0.58" fill="#fff"/><path d="M471,537.35c0,.65-.9,1.18-2,1.18h-.43c-1.1,0-2-.53-2-1.18s.9-1.19,2-1.19H469C470.1,536.16,471,536.69,471,537.35Z" fill="#fff"/><path d="M471,537.35c0,.65-.9,1.18-2,1.18h-.43c-1.1,0-2-.53-2-1.18s.9-1.19,2-1.19H469C470.1,536.16,471,536.69,471,537.35Z" fill="#fff"/><ellipse cx="486.94" cy="537.35" rx="0.37" ry="0.58" fill="#fff"/><ellipse cx="486.94" cy="537.35" rx="0.37" ry="0.58" fill="#fff"/><ellipse cx="486.94" cy="537.35" rx="0.98" ry="1.18" fill="#fff"/><ellipse cx="486.94" cy="537.35" rx="0.98" ry="1.18" fill="#fff"/><ellipse cx="475.25" cy="537.35" rx="1.62" ry="0.58" fill="#fff"/><ellipse cx="475.25" cy="537.35" rx="1.62" ry="0.58" fill="#fff"/><path d="M477.47,537.35c0,.65-.9,1.18-2,1.18H475c-1.1,0-2-.53-2-1.18s.9-1.19,2-1.19h.44C476.57,536.16,477.47,536.69,477.47,537.35Z" fill="#fff"/><path d="M477.47,537.35c0,.65-.9,1.18-2,1.18H475c-1.1,0-2-.53-2-1.18s.9-1.19,2-1.19h.44C476.57,536.16,477.47,536.69,477.47,537.35Z" fill="#fff"/><ellipse cx="486.94" cy="529.91" rx="0.37" ry="0.58" fill="#fff"/><ellipse cx="486.94" cy="529.91" rx="0.37" ry="0.58" fill="#fff"/><ellipse cx="486.94" cy="529.91" rx="0.98" ry="1.18" fill="#fff"/><ellipse cx="486.94" cy="529.91" rx="0.98" ry="1.18" fill="#fff"/><ellipse cx="475.25" cy="529.91" rx="1.62" ry="0.58" fill="#fff"/><ellipse cx="475.25" cy="529.91" rx="1.62" ry="0.58" fill="#fff"/><path d="M477.47,529.91c0,.66-.9,1.19-2,1.19H475c-1.1,0-2-.53-2-1.19s.9-1.18,2-1.18h.44C476.57,528.73,477.47,529.26,477.47,529.91Z" fill="#fff"/><path d="M477.47,529.91c0,.66-.9,1.19-2,1.19H475c-1.1,0-2-.53-2-1.19s.9-1.18,2-1.18h.44C476.57,528.73,477.47,529.26,477.47,529.91Z" fill="#fff"/><ellipse cx="468.78" cy="529.91" rx="1.62" ry="0.58" fill="#fff"/><ellipse cx="468.78" cy="529.91" rx="1.62" ry="0.58" fill="#fff"/><path d="M471,529.91c0,.66-.9,1.19-2,1.19h-.43c-1.1,0-2-.53-2-1.19s.9-1.18,2-1.18H469C470.1,528.73,471,529.26,471,529.91Z" fill="#fff"/><path d="M471,529.91c0,.66-.9,1.19-2,1.19h-.43c-1.1,0-2-.53-2-1.19s.9-1.18,2-1.18H469C470.1,528.73,471,529.26,471,529.91Z" fill="#fff"/><ellipse cx="481.71" cy="529.91" rx="1.62" ry="0.58" fill="#fff"/><ellipse cx="481.71" cy="529.91" rx="1.62" ry="0.58" fill="#fff"/><path d="M483.94,529.91c0,.66-.9,1.19-2,1.19h-.45c-1.1,0-2-.53-2-1.19s.9-1.18,2-1.18h.45C483,528.73,483.94,529.26,483.94,529.91Z" fill="#fff"/><path d="M483.94,529.91c0,.66-.9,1.19-2,1.19h-.45c-1.1,0-2-.53-2-1.19s.9-1.18,2-1.18h.45C483,528.73,483.94,529.26,483.94,529.91Z" fill="#fff"/><path d="M488.76,540.62a14.39,14.39,0,0,0-2.44-.14H468.15a20.44,20.44,0,0,0-2.21.07,1,1,0,0,0-.35.49A10.34,10.34,0,0,0,467,543l1.18,1.37c.72.83,1.37,1.56,1.45,1.62a16.4,16.4,0,0,0,2.29.1h10.59c1.1,0,2.07,0,2.16,0a14.34,14.34,0,0,0,1.58-1.68l1.19-1.37a13.63,13.63,0,0,0,1.48-1.93l-.09-.21Zm-3.19,2.75a5,5,0,0,1-3.31,1.52H472.21a5,5,0,0,1-3.3-1.52l-.19-.21c-.71-.83-.4-1.51.7-1.51h15.63c1.1,0,1.42.68.7,1.51Z" fill="#fff"/><path d="M484.86,546.58c-.18,0-1.23.07-2.33.07H471.94c-1.1,0-2.15,0-2.33-.07a12.41,12.41,0,0,1-1.86-1.85l-1.19-1.38a13.26,13.26,0,0,1-1.68-2.36l.19-.42.21-.43a13.86,13.86,0,0,1,2.87-.26h18.17a13.35,13.35,0,0,1,2.89.27l.19.41.19.44a13.29,13.29,0,0,1-1.67,2.35l-1.19,1.38A11.39,11.39,0,0,1,484.86,546.58Zm-15.25-3.31a4.35,4.35,0,0,0,2.88,1H482a4.3,4.3,0,0,0,2.87-1c.48-.56,0-1-1.12-1h-13C469.64,542.25,469.13,542.71,469.61,543.27Z" fill="#fff"/><path d="M485.67,476.73A23.31,23.31,0,0,0,455.54,490c-3.43,8.83,4.25,23.08,4.25,23.08a23.57,23.57,0,0,1,1.52,3.68l2.3,7.68a15.4,15.4,0,0,0,.72,2.12,8.42,8.42,0,0,0,2.4.21h21a20.5,20.5,0,0,0,2.25-.08,8.81,8.81,0,0,0,.88-2.25l2.3-7.68a12.31,12.31,0,0,1,1.84-3.47,29,29,0,0,0,3.93-6.43A23.32,23.32,0,0,0,485.67,476.73Zm4.21,47a2.86,2.86,0,0,1-2.57,1.92H467.16a2.86,2.86,0,0,1-2.57-1.92L463,518.28c-.32-1.06.16-1.4,1.06-.77a26.3,26.3,0,0,0,4.77,2.62,23.24,23.24,0,0,0,21.43-2.4l.64-.42c.66-.53.95-.09.63,1Zm8-17.25a22.29,22.29,0,0,1-3.5,6c-.25.3-.5.59-.77.88a12.6,12.6,0,0,1-.88.91,22.1,22.1,0,0,1-31,0c-.3-.29-.59-.59-.86-.9a10.78,10.78,0,0,1-.77-.9,22.11,22.11,0,1,1,37.74-6Z" fill="#fff"/><path d="M490.24,527.2a13.49,13.49,0,0,1-2.5.17h-21a13.57,13.57,0,0,1-2.5-.17,7.3,7.3,0,0,1-1.21-2.59l-2.25-7.54a25,25,0,0,0-1.49-3.69s-7.7-14.86-4.3-23.6a23.88,23.88,0,0,1,44.52,17.3,30.36,30.36,0,0,1-4,6.52,12.56,12.56,0,0,0-1.82,3.48l-2.26,7.54A6.89,6.89,0,0,1,490.24,527.2ZM465,523.09a2.85,2.85,0,0,0,2.57,1.91h19.25a2.85,2.85,0,0,0,2.57-1.91l1-3.21c.32-1.06.46-1.84.31-1.74l-.13.09a24,24,0,0,1-22,2.46,23.78,23.78,0,0,1-3.38-1.67c-.94-.58-1.44-.19-1.13.87Zm14.22-46a11.42,11.42,0,0,0-3.9.43s-15,4.89-18.18,13.1A21.56,21.56,0,0,0,460.59,512a10.32,10.32,0,0,0,.73.86c.29.32.56.61.85.89a21.22,21.22,0,0,0,7.28,4.7,21.56,21.56,0,0,0,22.84-4.69c.3-.29.58-.57.85-.88s.51-.57.75-.87a23.3,23.3,0,0,0,2.53-4,27.53,27.53,0,0,0,1.42-3.73,25.37,25.37,0,0,0,.91-5.84A21.67,21.67,0,0,0,485,478.37,25.48,25.48,0,0,0,479.26,477.11Zm-17.95,37.54a1.65,1.65,0,0,0,.18.17c.09.08.07,0-.05-.07l-.11-.11h0S461.3,514.63,461.31,514.65Zm31.76.06.08-.07,0,0-.06.06C493,514.78,493,514.78,493.07,514.71Z" fill="#fff"/><path d="M483.88,481.34c-4.69-1.82-12-.14-12-.14a6,6,0,0,0-1.88.59l.2.42a4.93,4.93,0,0,0,2.06-.14s6.85-1.57,11.29.16c8.06,3.13,10.37,17.87,10.37,17.87.17,1.09.32,2,.34,2l.17.1c.07,0,.32.18.4.23a3.91,3.91,0,0,0,0-1.8S492.48,484.68,483.88,481.34Z" fill="#fff"/><path d="M495.57,503.16a.28.28,0,0,1-.46.19l-.64-.42-.09-.05-.15-.1a3.38,3.38,0,0,0-.51-.19.27.27,0,0,1-.2-.35,12.06,12.06,0,0,0-.22-2.26s-2.27-14.19-10-17.19c-4.14-1.61-10.82-.15-10.82-.15-1.08.24-2.09.49-2.25.56a.3.3,0,0,1-.41-.18l-.21-.59-.06-.12-.06-.12c-.08-.16-.2-.42-.26-.57a.3.3,0,0,1,.15-.4c.15-.07,1.16-.32,2.23-.55l10.5-.24,2,.34s.65.62,1.46,1.37l9.81,18.63A12.93,12.93,0,0,1,495.57,503.16Z" fill="#fff"/><ellipse cx="475.25" cy="533.63" rx="1.62" ry="0.58" fill="#fff"/><path d="M477.47,533.63c0,.65-.9,1.19-2,1.19H475c-1.1,0-2-.54-2-1.19s.9-1.18,2-1.18h.44C476.57,532.45,477.47,533,477.47,533.63Z" fill="#fff"/><ellipse cx="468.78" cy="533.63" rx="1.62" ry="0.58" fill="#fff"/><path d="M471,533.63c0,.65-.9,1.19-2,1.19h-.43c-1.1,0-2-.54-2-1.19s.9-1.18,2-1.18H469C470.1,532.45,471,533,471,533.63Z" fill="#fff"/><ellipse cx="481.71" cy="533.63" rx="1.62" ry="0.58" fill="#fff"/><path d="M483.94,533.63c0,.65-.9,1.19-2,1.19h-.45c-1.1,0-2-.54-2-1.19s.9-1.18,2-1.18h.45C483,532.45,483.94,533,483.94,533.63Z" fill="#fff"/><ellipse cx="486.94" cy="533.63" rx="0.37" ry="0.58" fill="#fff"/><ellipse cx="486.94" cy="533.63" rx="0.98" ry="1.18" fill="#fff"/><ellipse cx="481.71" cy="537.35" rx="1.62" ry="0.58" fill="#fff"/><path d="M483.94,537.35c0,.65-.9,1.18-2,1.18h-.45c-1.1,0-2-.53-2-1.18s.9-1.19,2-1.19h.45C483,536.16,483.94,536.69,483.94,537.35Z" fill="#fff"/><ellipse cx="468.78" cy="537.35" rx="1.62" ry="0.58" fill="#fff"/><path d="M471,537.35c0,.65-.9,1.18-2,1.18h-.43c-1.1,0-2-.53-2-1.18s.9-1.19,2-1.19H469C470.1,536.16,471,536.69,471,537.35Z" fill="#fff"/><ellipse cx="486.94" cy="537.35" rx="0.37" ry="0.58" fill="#fff"/><ellipse cx="486.94" cy="537.35" rx="0.98" ry="1.18" fill="#fff"/><ellipse cx="475.25" cy="537.35" rx="1.62" ry="0.58" fill="#fff"/><path d="M477.47,537.35c0,.65-.9,1.18-2,1.18H475c-1.1,0-2-.53-2-1.18s.9-1.19,2-1.19h.44C476.57,536.16,477.47,536.69,477.47,537.35Z" fill="#fff"/><ellipse cx="486.94" cy="529.91" rx="0.37" ry="0.58" fill="#fff"/><ellipse cx="486.94" cy="529.91" rx="0.98" ry="1.18" fill="#fff"/><ellipse cx="475.25" cy="529.91" rx="1.62" ry="0.58" fill="#fff"/><path d="M477.47,529.91c0,.66-.9,1.19-2,1.19H475c-1.1,0-2-.53-2-1.19s.9-1.18,2-1.18h.44C476.57,528.73,477.47,529.26,477.47,529.91Z" fill="#fff"/><ellipse cx="468.78" cy="529.91" rx="1.62" ry="0.58" fill="#fff"/><path d="M471,529.91c0,.66-.9,1.19-2,1.19h-.43c-1.1,0-2-.53-2-1.19s.9-1.18,2-1.18H469C470.1,528.73,471,529.26,471,529.91Z" fill="#fff"/><ellipse cx="481.71" cy="529.91" rx="1.62" ry="0.58" fill="#fff"/><path d="M483.94,529.91c0,.66-.9,1.19-2,1.19h-.45c-1.1,0-2-.53-2-1.19s.9-1.18,2-1.18h.45C483,528.73,483.94,529.26,483.94,529.91Z" fill="#fff"/><path d="M488.76,540.62a14.39,14.39,0,0,0-2.44-.14H468.15a20.44,20.44,0,0,0-2.21.07,1,1,0,0,0-.35.49A10.34,10.34,0,0,0,467,543l1.18,1.37c.72.83,1.37,1.56,1.45,1.62a16.4,16.4,0,0,0,2.29.1h10.59c1.1,0,2.07,0,2.16,0a14.34,14.34,0,0,0,1.58-1.68l1.19-1.37a13.63,13.63,0,0,0,1.48-1.93l-.09-.21Zm-3.19,2.75a5,5,0,0,1-3.31,1.52H472.21a5,5,0,0,1-3.3-1.52l-.19-.21c-.71-.83-.4-1.51.7-1.51h15.63c1.1,0,1.42.68.7,1.51Z" fill="none" stroke="#fff" stroke-miterlimit="10"/><path d="M488.76,540.62a14.39,14.39,0,0,0-2.44-.14H468.15a20.44,20.44,0,0,0-2.21.07,1,1,0,0,0-.35.49A10.34,10.34,0,0,0,467,543l1.18,1.37c.72.83,1.37,1.56,1.45,1.62a16.4,16.4,0,0,0,2.29.1h10.59c1.1,0,2.07,0,2.16,0a14.34,14.34,0,0,0,1.58-1.68l1.19-1.37a13.63,13.63,0,0,0,1.48-1.93l-.09-.21Zm-3.19,2.75a5,5,0,0,1-3.31,1.52H472.21a5,5,0,0,1-3.3-1.52l-.19-.21c-.71-.83-.4-1.51.7-1.51h15.63c1.1,0,1.42.68.7,1.51Z" fill="none" stroke="#fff" stroke-miterlimit="10"/><path d="M484.86,546.58c-.18,0-1.23.07-2.33.07H471.94c-1.1,0-2.15,0-2.33-.07a12.41,12.41,0,0,1-1.86-1.85l-1.19-1.38a13.26,13.26,0,0,1-1.68-2.36l.19-.42.21-.43a13.86,13.86,0,0,1,2.87-.26h18.17a13.35,13.35,0,0,1,2.89.27l.19.41.19.44a13.29,13.29,0,0,1-1.67,2.35l-1.19,1.38A11.39,11.39,0,0,1,484.86,546.58Zm-15.25-3.31a4.35,4.35,0,0,0,2.88,1H482a4.3,4.3,0,0,0,2.87-1c.48-.56,0-1-1.12-1h-13C469.64,542.25,469.13,542.71,469.61,543.27Z" fill="none" stroke="#fff" stroke-miterlimit="10"/><path d="M484.86,546.58c-.18,0-1.23.07-2.33.07H471.94c-1.1,0-2.15,0-2.33-.07a12.41,12.41,0,0,1-1.86-1.85l-1.19-1.38a13.26,13.26,0,0,1-1.68-2.36l.19-.42.21-.43a13.86,13.86,0,0,1,2.87-.26h18.17a13.35,13.35,0,0,1,2.89.27l.19.41.19.44a13.29,13.29,0,0,1-1.67,2.35l-1.19,1.38A11.39,11.39,0,0,1,484.86,546.58Zm-15.25-3.31a4.35,4.35,0,0,0,2.88,1H482a4.3,4.3,0,0,0,2.87-1c.48-.56,0-1-1.12-1h-13C469.64,542.25,469.13,542.71,469.61,543.27Z" fill="none" stroke="#fff" stroke-miterlimit="10"/><path d="M485.67,476.73A23.31,23.31,0,0,0,455.54,490c-3.43,8.83,4.25,23.08,4.25,23.08a23.57,23.57,0,0,1,1.52,3.68l2.3,7.68a15.4,15.4,0,0,0,.72,2.12,8.42,8.42,0,0,0,2.4.21h21a20.5,20.5,0,0,0,2.25-.08,8.81,8.81,0,0,0,.88-2.25l2.3-7.68a12.31,12.31,0,0,1,1.84-3.47,29,29,0,0,0,3.93-6.43A23.32,23.32,0,0,0,485.67,476.73Zm4.21,47a2.86,2.86,0,0,1-2.57,1.92H467.16a2.86,2.86,0,0,1-2.57-1.92L463,518.28c-.32-1.06.16-1.4,1.06-.77a26.3,26.3,0,0,0,4.77,2.62,23.24,23.24,0,0,0,21.43-2.4l.64-.42c.66-.53.95-.09.63,1Zm8-17.25a22.29,22.29,0,0,1-3.5,6c-.25.3-.5.59-.77.88a12.6,12.6,0,0,1-.88.91,22.1,22.1,0,0,1-31,0c-.3-.29-.59-.59-.86-.9a10.78,10.78,0,0,1-.77-.9,22.11,22.11,0,1,1,37.74-6Z" fill="none" stroke="#fff" stroke-miterlimit="10"/><path d="M485.67,476.73A23.31,23.31,0,0,0,455.54,490c-3.43,8.83,4.25,23.08,4.25,23.08a23.57,23.57,0,0,1,1.52,3.68l2.3,7.68a15.4,15.4,0,0,0,.72,2.12,8.42,8.42,0,0,0,2.4.21h21a20.5,20.5,0,0,0,2.25-.08,8.81,8.81,0,0,0,.88-2.25l2.3-7.68a12.31,12.31,0,0,1,1.84-3.47,29,29,0,0,0,3.93-6.43A23.32,23.32,0,0,0,485.67,476.73Zm4.21,47a2.86,2.86,0,0,1-2.57,1.92H467.16a2.86,2.86,0,0,1-2.57-1.92L463,518.28c-.32-1.06.16-1.4,1.06-.77a26.3,26.3,0,0,0,4.77,2.62,23.24,23.24,0,0,0,21.43-2.4l.64-.42c.66-.53.95-.09.63,1Zm8-17.25a22.29,22.29,0,0,1-3.5,6c-.25.3-.5.59-.77.88a12.6,12.6,0,0,1-.88.91,22.1,22.1,0,0,1-31,0c-.3-.29-.59-.59-.86-.9a10.78,10.78,0,0,1-.77-.9,22.11,22.11,0,1,1,37.74-6Z" fill="none" stroke="#fff" stroke-miterlimit="10"/><path d="M490.24,527.2a13.49,13.49,0,0,1-2.5.17h-21a13.57,13.57,0,0,1-2.5-.17,7.3,7.3,0,0,1-1.21-2.59l-2.25-7.54a25,25,0,0,0-1.49-3.69s-7.7-14.86-4.3-23.6a23.88,23.88,0,0,1,44.52,17.3,30.36,30.36,0,0,1-4,6.52,12.56,12.56,0,0,0-1.82,3.48l-2.26,7.54A6.89,6.89,0,0,1,490.24,527.2ZM465,523.09a2.85,2.85,0,0,0,2.57,1.91h19.25a2.85,2.85,0,0,0,2.57-1.91l1-3.21c.32-1.06.46-1.84.31-1.74l-.13.09a24,24,0,0,1-22,2.46,23.78,23.78,0,0,1-3.38-1.67c-.94-.58-1.44-.19-1.13.87Zm14.22-46a11.42,11.42,0,0,0-3.9.43s-15,4.89-18.18,13.1A21.56,21.56,0,0,0,460.59,512a10.32,10.32,0,0,0,.73.86c.29.32.56.61.85.89a21.22,21.22,0,0,0,7.28,4.7,21.56,21.56,0,0,0,22.84-4.69c.3-.29.58-.57.85-.88s.51-.57.75-.87a23.3,23.3,0,0,0,2.53-4,27.53,27.53,0,0,0,1.42-3.73,25.37,25.37,0,0,0,.91-5.84A21.67,21.67,0,0,0,485,478.37,25.48,25.48,0,0,0,479.26,477.11Zm-17.95,37.54a1.65,1.65,0,0,0,.18.17c.09.08.07,0-.05-.07l-.11-.11h0S461.3,514.63,461.31,514.65Zm31.76.06.08-.07,0,0-.06.06C493,514.78,493,514.78,493.07,514.71Z" fill="none" stroke="#fff" stroke-miterlimit="10"/><path d="M490.24,527.2a13.49,13.49,0,0,1-2.5.17h-21a13.57,13.57,0,0,1-2.5-.17,7.3,7.3,0,0,1-1.21-2.59l-2.25-7.54a25,25,0,0,0-1.49-3.69s-7.7-14.86-4.3-23.6a23.88,23.88,0,0,1,44.52,17.3,30.36,30.36,0,0,1-4,6.52,12.56,12.56,0,0,0-1.82,3.48l-2.26,7.54A6.89,6.89,0,0,1,490.24,527.2ZM465,523.09a2.85,2.85,0,0,0,2.57,1.91h19.25a2.85,2.85,0,0,0,2.57-1.91l1-3.21c.32-1.06.46-1.84.31-1.74l-.13.09a24,24,0,0,1-22,2.46,23.78,23.78,0,0,1-3.38-1.67c-.94-.58-1.44-.19-1.13.87Zm14.22-46a11.42,11.42,0,0,0-3.9.43s-15,4.89-18.18,13.1A21.56,21.56,0,0,0,460.59,512a10.32,10.32,0,0,0,.73.86c.29.32.56.61.85.89a21.22,21.22,0,0,0,7.28,4.7,21.56,21.56,0,0,0,22.84-4.69c.3-.29.58-.57.85-.88s.51-.57.75-.87a23.3,23.3,0,0,0,2.53-4,27.53,27.53,0,0,0,1.42-3.73,25.37,25.37,0,0,0,.91-5.84A21.67,21.67,0,0,0,485,478.37,25.48,25.48,0,0,0,479.26,477.11Zm-17.95,37.54a1.65,1.65,0,0,0,.18.17c.09.08.07,0-.05-.07l-.11-.11h0S461.3,514.63,461.31,514.65Zm31.76.06.08-.07,0,0-.06.06C493,514.78,493,514.78,493.07,514.71Z" fill="none" stroke="#fff" stroke-miterlimit="10"/><path d="M483.88,481.34c-4.69-1.82-12-.14-12-.14a6,6,0,0,0-1.88.59l.2.42a4.93,4.93,0,0,0,2.06-.14s6.85-1.57,11.29.16c8.06,3.13,10.37,17.87,10.37,17.87.17,1.09.32,2,.34,2l.17.1c.07,0,.32.18.4.23a3.91,3.91,0,0,0,0-1.8S492.48,484.68,483.88,481.34Z" fill="none" stroke="#fff" stroke-miterlimit="10"/><path d="M483.88,481.34c-4.69-1.82-12-.14-12-.14a6,6,0,0,0-1.88.59l.2.42a4.93,4.93,0,0,0,2.06-.14s6.85-1.57,11.29.16c8.06,3.13,10.37,17.87,10.37,17.87.17,1.09.32,2,.34,2l.17.1c.07,0,.32.18.4.23a3.91,3.91,0,0,0,0-1.8S492.48,484.68,483.88,481.34Z" fill="none" stroke="#fff" stroke-miterlimit="10"/><path d="M495.57,503.16a.28.28,0,0,1-.46.19l-.64-.42-.09-.05-.15-.1a3.38,3.38,0,0,0-.51-.19.27.27,0,0,1-.2-.35,12.06,12.06,0,0,0-.22-2.26s-2.27-14.19-10-17.19c-4.14-1.61-10.82-.15-10.82-.15-1.08.24-2.09.49-2.25.56a.3.3,0,0,1-.41-.18l-.21-.59-.06-.12-.06-.12c-.08-.16-.2-.42-.26-.57a.3.3,0,0,1,.15-.4c.15-.07,1.16-.32,2.23-.55l10.5-.24,2,.34s.65.62,1.46,1.37l9.81,18.63A12.93,12.93,0,0,1,495.57,503.16Z" fill="none" stroke="#fff" stroke-miterlimit="10"/><path d="M495.57,503.16a.28.28,0,0,1-.46.19l-.64-.42-.09-.05-.15-.1a3.38,3.38,0,0,0-.51-.19.27.27,0,0,1-.2-.35,12.06,12.06,0,0,0-.22-2.26s-2.27-14.19-10-17.19c-4.14-1.61-10.82-.15-10.82-.15-1.08.24-2.09.49-2.25.56a.3.3,0,0,1-.41-.18l-.21-.59-.06-.12-.06-.12c-.08-.16-.2-.42-.26-.57a.3.3,0,0,1,.15-.4c.15-.07,1.16-.32,2.23-.55l10.5-.24,2,.34s.65.62,1.46,1.37l9.81,18.63A12.93,12.93,0,0,1,495.57,503.16Z" fill="none" stroke="#fff" stroke-miterlimit="10"/><ellipse cx="475.25" cy="533.63" rx="1.62" ry="0.58" fill="none" stroke="#fff" stroke-miterlimit="10"/><ellipse cx="475.25" cy="533.63" rx="1.62" ry="0.58" fill="none" stroke="#fff" stroke-miterlimit="10"/><path d="M477.47,533.63c0,.65-.9,1.19-2,1.19H475c-1.1,0-2-.54-2-1.19s.9-1.18,2-1.18h.44C476.57,532.45,477.47,533,477.47,533.63Z" fill="none" stroke="#fff" stroke-miterlimit="10"/><path d="M477.47,533.63c0,.65-.9,1.19-2,1.19H475c-1.1,0-2-.54-2-1.19s.9-1.18,2-1.18h.44C476.57,532.45,477.47,533,477.47,533.63Z" fill="none" stroke="#fff" stroke-miterlimit="10"/><ellipse cx="468.78" cy="533.63" rx="1.62" ry="0.58" fill="none" stroke="#fff" stroke-miterlimit="10"/><ellipse cx="468.78" cy="533.63" rx="1.62" ry="0.58" fill="none" stroke="#fff" stroke-miterlimit="10"/><path d="M471,533.63c0,.65-.9,1.19-2,1.19h-.43c-1.1,0-2-.54-2-1.19s.9-1.18,2-1.18H469C470.1,532.45,471,533,471,533.63Z" fill="none" stroke="#fff" stroke-miterlimit="10"/><path d="M471,533.63c0,.65-.9,1.19-2,1.19h-.43c-1.1,0-2-.54-2-1.19s.9-1.18,2-1.18H469C470.1,532.45,471,533,471,533.63Z" fill="none" stroke="#fff" stroke-miterlimit="10"/><ellipse cx="481.71" cy="533.63" rx="1.62" ry="0.58" fill="none" stroke="#fff" stroke-miterlimit="10"/><ellipse cx="481.71" cy="533.63" rx="1.62" ry="0.58" fill="none" stroke="#fff" stroke-miterlimit="10"/><path d="M483.94,533.63c0,.65-.9,1.19-2,1.19h-.45c-1.1,0-2-.54-2-1.19s.9-1.18,2-1.18h.45C483,532.45,483.94,533,483.94,533.63Z" fill="none" stroke="#fff" stroke-miterlimit="10"/><path d="M483.94,533.63c0,.65-.9,1.19-2,1.19h-.45c-1.1,0-2-.54-2-1.19s.9-1.18,2-1.18h.45C483,532.45,483.94,533,483.94,533.63Z" fill="none" stroke="#fff" stroke-miterlimit="10"/><ellipse cx="486.94" cy="533.63" rx="0.37" ry="0.58" fill="none" stroke="#fff" stroke-miterlimit="10"/><ellipse cx="486.94" cy="533.63" rx="0.37" ry="0.58" fill="none" stroke="#fff" stroke-miterlimit="10"/><ellipse cx="486.94" cy="533.63" rx="0.98" ry="1.18" fill="none" stroke="#fff" stroke-miterlimit="10"/><ellipse cx="486.94" cy="533.63" rx="0.98" ry="1.18" fill="none" stroke="#fff" stroke-miterlimit="10"/><ellipse cx="481.71" cy="537.35" rx="1.62" ry="0.58" fill="none" stroke="#fff" stroke-miterlimit="10"/><ellipse cx="481.71" cy="537.35" rx="1.62" ry="0.58" fill="none" stroke="#fff" stroke-miterlimit="10"/><path d="M483.94,537.35c0,.65-.9,1.18-2,1.18h-.45c-1.1,0-2-.53-2-1.18s.9-1.19,2-1.19h.45C483,536.16,483.94,536.69,483.94,537.35Z" fill="none" stroke="#fff" stroke-miterlimit="10"/><path d="M483.94,537.35c0,.65-.9,1.18-2,1.18h-.45c-1.1,0-2-.53-2-1.18s.9-1.19,2-1.19h.45C483,536.16,483.94,536.69,483.94,537.35Z" fill="none" stroke="#fff" stroke-miterlimit="10"/><ellipse cx="468.78" cy="537.35" rx="1.62" ry="0.58" fill="none" stroke="#fff" stroke-miterlimit="10"/><ellipse cx="468.78" cy="537.35" rx="1.62" ry="0.58" fill="none" stroke="#fff" stroke-miterlimit="10"/><path d="M471,537.35c0,.65-.9,1.18-2,1.18h-.43c-1.1,0-2-.53-2-1.18s.9-1.19,2-1.19H469C470.1,536.16,471,536.69,471,537.35Z" fill="none" stroke="#fff" stroke-miterlimit="10"/><path d="M471,537.35c0,.65-.9,1.18-2,1.18h-.43c-1.1,0-2-.53-2-1.18s.9-1.19,2-1.19H469C470.1,536.16,471,536.69,471,537.35Z" fill="none" stroke="#fff" stroke-miterlimit="10"/><ellipse cx="486.94" cy="537.35" rx="0.37" ry="0.58" fill="none" stroke="#fff" stroke-miterlimit="10"/><ellipse cx="486.94" cy="537.35" rx="0.37" ry="0.58" fill="none" stroke="#fff" stroke-miterlimit="10"/><ellipse cx="486.94" cy="537.35" rx="0.98" ry="1.18" fill="none" stroke="#fff" stroke-miterlimit="10"/><ellipse cx="486.94" cy="537.35" rx="0.98" ry="1.18" fill="none" stroke="#fff" stroke-miterlimit="10"/><ellipse cx="475.25" cy="537.35" rx="1.62" ry="0.58" fill="none" stroke="#fff" stroke-miterlimit="10"/><ellipse cx="475.25" cy="537.35" rx="1.62" ry="0.58" fill="none" stroke="#fff" stroke-miterlimit="10"/><path d="M477.47,537.35c0,.65-.9,1.18-2,1.18H475c-1.1,0-2-.53-2-1.18s.9-1.19,2-1.19h.44C476.57,536.16,477.47,536.69,477.47,537.35Z" fill="none" stroke="#fff" stroke-miterlimit="10"/><path d="M477.47,537.35c0,.65-.9,1.18-2,1.18H475c-1.1,0-2-.53-2-1.18s.9-1.19,2-1.19h.44C476.57,536.16,477.47,536.69,477.47,537.35Z" fill="none" stroke="#fff" stroke-miterlimit="10"/><ellipse cx="486.94" cy="529.91" rx="0.37" ry="0.58" fill="none" stroke="#fff" stroke-miterlimit="10"/><ellipse cx="486.94" cy="529.91" rx="0.37" ry="0.58" fill="none" stroke="#fff" stroke-miterlimit="10"/><ellipse cx="486.94" cy="529.91" rx="0.98" ry="1.18" fill="none" stroke="#fff" stroke-miterlimit="10"/><ellipse cx="486.94" cy="529.91" rx="0.98" ry="1.18" fill="none" stroke="#fff" stroke-miterlimit="10"/><ellipse cx="475.25" cy="529.91" rx="1.62" ry="0.58" fill="none" stroke="#fff" stroke-miterlimit="10"/><ellipse cx="475.25" cy="529.91" rx="1.62" ry="0.58" fill="none" stroke="#fff" stroke-miterlimit="10"/><path d="M477.47,529.91c0,.66-.9,1.19-2,1.19H475c-1.1,0-2-.53-2-1.19s.9-1.18,2-1.18h.44C476.57,528.73,477.47,529.26,477.47,529.91Z" fill="none" stroke="#fff" stroke-miterlimit="10"/><path d="M477.47,529.91c0,.66-.9,1.19-2,1.19H475c-1.1,0-2-.53-2-1.19s.9-1.18,2-1.18h.44C476.57,528.73,477.47,529.26,477.47,529.91Z" fill="none" stroke="#fff" stroke-miterlimit="10"/><ellipse cx="468.78" cy="529.91" rx="1.62" ry="0.58" fill="none" stroke="#fff" stroke-miterlimit="10"/><ellipse cx="468.78" cy="529.91" rx="1.62" ry="0.58" fill="none" stroke="#fff" stroke-miterlimit="10"/><path d="M471,529.91c0,.66-.9,1.19-2,1.19h-.43c-1.1,0-2-.53-2-1.19s.9-1.18,2-1.18H469C470.1,528.73,471,529.26,471,529.91Z" fill="none" stroke="#fff" stroke-miterlimit="10"/><path d="M471,529.91c0,.66-.9,1.19-2,1.19h-.43c-1.1,0-2-.53-2-1.19s.9-1.18,2-1.18H469C470.1,528.73,471,529.26,471,529.91Z" fill="none" stroke="#fff" stroke-miterlimit="10"/><ellipse cx="481.71" cy="529.91" rx="1.62" ry="0.58" fill="none" stroke="#fff" stroke-miterlimit="10"/><ellipse cx="481.71" cy="529.91" rx="1.62" ry="0.58" fill="none" stroke="#fff" stroke-miterlimit="10"/><path d="M483.94,529.91c0,.66-.9,1.19-2,1.19h-.45c-1.1,0-2-.53-2-1.19s.9-1.18,2-1.18h.45C483,528.73,483.94,529.26,483.94,529.91Z" fill="none" stroke="#fff" stroke-miterlimit="10"/><path d="M483.94,529.91c0,.66-.9,1.19-2,1.19h-.45c-1.1,0-2-.53-2-1.19s.9-1.18,2-1.18h.45C483,528.73,483.94,529.26,483.94,529.91Z" fill="none" stroke="#fff" stroke-miterlimit="10"/><text transform="translate(1117.15 540.65)" font-size="86.98" fill="#fff" font-family="BebasNeueBold, Bebas Neue">¿que <tspan x="-85.45" y="78.14">buscamos?</tspan></text><path d="M1344.31,699.56c-.68,5.64-29.68,3.16-29.68,3.16s.82,5.43-10.92,5.43-27.82-3.62-27.82-3.62-3,5.07-15.46,5.77c-16.07.9-37.7-5.31-37.7-5.31s-11.13,6.21-37.51,6.21-37.5-6.21-37.5-6.21-21.64,6.21-37.72,5.31c-12.5-.7-15.45-5.77-15.45-5.77s-16.07,3.62-27.81,3.62-10.92-5.43-10.92-5.43-29,2.48-29.68-3.16c-.72-6,4.67-55.7,4.67-55.7v-1.21c0-2.49,7.38-4.52,16.49-4.52h275.85c9.1,0,16.48,2,16.48,4.52v1.21s5.39,49.65,4.68,55.7m-2.72-14.85c-.6,4.08-15,4-23.27,3.56-2.78-17.13-7.58-44.73-9.65-44.73-1.76,0,1.19,30.64,2.91,47.22-1.26,1.37-3.9,2.72-9.54,2.72a120,120,0,0,1-20.48-2.35c-3.3-17.94-9.1-47.59-11.25-47.59-1.8,0,1.43,30.47,3.39,47.61-1.75,1.59-5.68,4.05-13.83,4.53-9.56.56-21.11-1.59-28.68-3.36-3.57-18.29-9.74-48.78-11.28-48.78-2.29,0,.3,30,2,47.29-3.33,1.54-14.28,5.78-35.33,5.78s-32-4.24-35.33-5.78c1.69-17.33,4.28-47.29,2-47.29-1.54,0-7.71,30.49-11.28,48.78-7.57,1.77-19.13,3.92-28.69,3.36-8.14-.48-12.07-2.94-13.82-4.53,2-17.14,5.19-47.61,3.38-47.61-2.15,0-7.94,29.65-11.24,47.59a120,120,0,0,1-20.48,2.35c-5.64,0-8.29-1.35-9.54-2.72,1.72-16.58,4.66-47.22,2.9-47.22-2.06,0-6.86,27.6-9.65,44.73-8.23.4-22.66.52-23.26-3.56a39.06,39.06,0,0,0,0,4.89c.45,4,14.1,4,22.48,3.66-.8,5-1.29,8.3-1.29,8.3l7.73-.44s.26-2.34.65-6c1,1.55,3.48,3.34,10,3.34a116.7,116.7,0,0,0,19.53-2.16c-.9,5-1.46,8.25-1.46,8.25l8.93-2s.33-2.69.82-6.9c1.44,1.52,5.34,4.49,14.34,5,9.15.54,20.12-1.41,27.69-3.13-1,5-1.58,8.29-1.58,8.29l10.64-3s.31-2.83.76-7.27c2.74,1.35,13.79,6,35.8,6s33.06-4.65,35.79-6c.45,4.44.76,7.27.76,7.27l10.64,3s-.61-3.27-1.57-8.29c7.57,1.72,18.54,3.67,27.68,3.13s12.91-3.5,14.34-5c.49,4.21.83,6.9.83,6.9l8.93,2s-.56-3.26-1.47-8.25a116.7,116.7,0,0,0,19.54,2.16c6.51,0,9-1.79,10-3.34.39,3.7.65,6,.65,6l7.73.44s-.5-3.3-1.29-8.3c8.38.37,22,.35,22.48-3.66a39.06,39.06,0,0,0,0-4.89" fill="#fff" fill-rule="evenodd"/><g clip-path="url(#clip-path)"><rect x="887.66" y="489.81" width="4152.23" height="2952.7" fill="#fff"/><g clip-path="url(#clip-path-2)"><rect x="1011.65" y="623.71" width="347.14" height="101.91" fill="#fff"/></g></g><text transform="translate(1639.47 1016.71)" opacity="0.23" font-size="614.12" fill="#fff" font-family="Bebas">?</text><text transform="translate(1719.26 515.81) rotate(179.21)" opacity="0.23" font-size="614.12" fill="#fff" font-family="Bebas">?</text><g clip-path="url(#clip-path-3)"><image width="5000" height="3333" transform="translate(-0.84 901) scale(0.38)" xlink:href="../Assets2/restaurant-interior.jpg"/></g><line x1="1041.17" y1="192.71" x2="1755.29" y2="192.71" fill="none" stroke="#d33527" stroke-miterlimit="10"/></g></g></svg>