<svg id="Layer_1" data-name="Layer 1" xmlns="http://www.w3.org/2000/svg" viewBox="0 0 1920 1080"><title>slide</title><text transform="translate(811.65 146.27)" font-size="40" fill="#d33527" font-family="Bebas"><tspan letter-spacing="0.03em">Mod</tspan><tspan x="72.95" y="0" letter-spacing="0em">elo </tspan><tspan x="134.66" y="0" letter-spacing="0.03em">d</tspan><tspan x="156.25" y="0" letter-spacing="0em">e </tspan><tspan x="178.92" y="0" letter-spacing="0.03em">N</tspan><tspan x="202.24" y="0">e</tspan><tspan x="221.21" y="0" letter-spacing="0.02em">g</tspan><tspan x="242.8" y="0" letter-spacing="0.02em">o</tspan><tspan x="264.45" y="0" letter-spacing="0.02em">c</tspan><tspan x="285.87" y="0" letter-spacing="0.03em">i</tspan><tspan x="295.99" y="0">o</tspan></text><line x1="135.54" y1="134.07" x2="769.66" y2="134.07" fill="none" stroke="#d33527" stroke-miterlimit="10"/><line x1="1175.54" y1="134.07" x2="1800.66" y2="134.07" fill="none" stroke="#d33527" stroke-miterlimit="10"/><text transform="translate(726.75 591.71)" font-size="30" fill="#646566" font-family="Montserrat-Regular, Montserrat"><tspan letter-spacing="-0.01em">F</tspan><tspan x="18.69" y="0" letter-spacing="-0.01em">r</tspan><tspan x="30.33" y="0">ee A</tspan><tspan x="95.94" y="0" letter-spacing="-0.01em">P</tspan><tspan x="117.18" y="0">P </tspan><tspan x="146.58" y="0" letter-spacing="0em">p</tspan><tspan x="166.83" y="0">a</tspan><tspan x="184.53" y="0" letter-spacing="-0.01em">r</tspan><tspan x="196.29" y="0">a usua</tspan><tspan x="294.6" y="0" letter-spacing="-0.01em">r</tspan><tspan x="306.39" y="0">io </tspan><tspan x="341.13" y="0" letter-spacing="-0.02em">C</tspan><tspan x="362.01" y="0">o</tspan><tspan x="380.82" y="0" letter-spacing="0em">m</tspan><tspan x="412.71" y="0" letter-spacing="0em">ensal</tspan></text><text transform="translate(516.43 694.6)" font-size="30" fill="#646566" font-family="Montserrat-Regular, Montserrat">De <tspan x="50.76" y="0" letter-spacing="0em">p</tspan><tspan x="71.01" y="0" letter-spacing="0em">a</tspan><tspan x="88.77" y="0" letter-spacing="0em">go </tspan><tspan x="136.02" y="0" letter-spacing="0em">p</tspan><tspan x="156.27" y="0">a</tspan><tspan x="173.97" y="0" letter-spacing="-0.01em">r</tspan><tspan x="185.73" y="0">a Usua</tspan><tspan x="287.61" y="0" letter-spacing="-0.01em">r</tspan><tspan x="299.4" y="0" letter-spacing="0em">io p</tspan><tspan x="354.48" y="0" letter-spacing="-0.01em">r</tspan><tspan x="366.12" y="0" letter-spacing="0em">opieta</tspan><tspan x="461.34" y="0" letter-spacing="-0.01em">r</tspan><tspan x="473.13" y="0">io </tspan><tspan x="507.87" y="0" letter-spacing="-0.01em">c</tspan><tspan x="524.49" y="0">on más de un </tspan><tspan x="738.2" y="0" letter-spacing="-0.01em">r</tspan><tspan x="749.84" y="0">estau</tspan><tspan x="832.7" y="0" letter-spacing="-0.01em">r</tspan><tspan x="844.46" y="0" letter-spacing="0em">an</tspan><tspan x="882.47" y="0" letter-spacing="-0.02em">t</tspan><tspan x="894.08" y="0" letter-spacing="0em">e</tspan></text><text transform="translate(855.95 492.74)" font-size="30" fill="#646566" font-family="Montserrat-Regular, Montserrat">ADS (Anu<tspan x="144.48" y="0" letter-spacing="0em">n</tspan><tspan x="164.85" y="0">cios)</tspan></text><polygon points="972.53 378.96 1085.5 450.8 1198.48 522.64 972.53 522.64 746.59 522.64 859.56 450.8 972.53 378.96" fill="none" stroke="#646566" stroke-miterlimit="10"/><rect x="697.12" y="545.39" width="550.82" height="77.54" fill="none" stroke="#646566" stroke-miterlimit="10"/><rect x="473.11" y="640" width="998.85" height="77.54" fill="none" stroke="#646566" stroke-miterlimit="10"/></svg>