<svg id="Layer_1" data-name="Layer 1" xmlns="http://www.w3.org/2000/svg" xmlns:xlink="http://www.w3.org/1999/xlink" viewBox="0 0 1920 1080"><defs><clipPath id="clip-path"><path d="M900.52,465.32H905q6.83,0,9.28,2.69t2.46,9.35q0,6.87-2.86,9.49t-9.55,2.63h-3.85ZM890.29,458v73.07h10.23V496.8h7.93l9.66,34.28H928l-10.5-36.66q9.09-3,9.08-17.06,0-10.28-5.2-14.81T905,458Z" fill="none"/></clipPath><clipPath id="clip-path-2"><rect x="633.8" y="372.28" width="4997.5" height="3553.78" fill="none"/></clipPath><clipPath id="clip-path-3"><polygon points="937.38 458.01 937.38 531.09 966.04 531.09 966.04 523.77 947.61 523.77 947.61 496.97 962.41 496.97 962.41 489.7 947.61 489.7 947.61 465.55 965.82 465.55 965.82 458.01 937.38 458.01" fill="none"/></clipPath><clipPath id="clip-path-5"><path d="M989.52,457.3q-8,.09-12.65,4.52t-4.63,12.37a19.55,19.55,0,0,0,7.14,16.17l12.31,10.89c1.39,1.29,2.46,2.33,3.21,3.1a25.74,25.74,0,0,1,2.39,2.93,11.85,11.85,0,0,1,1.82,3.71,15.49,15.49,0,0,1,.55,4.27c0,2.82-.68,5-2.06,6.41a7.83,7.83,0,0,1-6,2.19q-9.44,0-10.41-15.69l-9.12,2.46q.57,9.89,5.42,15.56t14.11,5.69q7.85,0,12.72-4.69t4.87-12.72a21.91,21.91,0,0,0-2.86-11.2,38.14,38.14,0,0,0-7.68-9.25l-12.41-10.89a16.75,16.75,0,0,1-3.72-4.54,11.69,11.69,0,0,1-1.11-5.38q0-7.44,8.11-8a8.92,8.92,0,0,1,3.9.55,7.07,7.07,0,0,1,2.7,1.86,10.07,10.07,0,0,1,1.73,3,20.25,20.25,0,0,1,1,3.72c.2,1.23.37,2.65.48,4.23l8.64-2.38q-.88-9.73-5.27-14.39T990,457.3h-.48" fill="none"/></clipPath><clipPath id="clip-path-7"><polygon points="1017.25 458.01 1017.25 531.09 1045.92 531.09 1045.92 523.77 1027.49 523.77 1027.49 496.97 1042.28 496.97 1042.28 489.7 1027.49 489.7 1027.49 465.55 1045.7 465.55 1045.7 458.01 1017.25 458.01" fill="none"/></clipPath><clipPath id="clip-path-9"><polygon points="1129.91 458.01 1118.83 511.83 1107.23 458.01 1097.66 458.01 1114.05 531.09 1123 531.09 1139.26 458.01 1129.91 458.01" fill="none"/></clipPath><clipPath id="clip-path-11"><path d="M1161.19,472.38l6.15,33h-12.27Zm-5-14.37-15.69,73.08h9.7l3.5-18.43h14.93l3.37,18.43h9.74L1166.1,458Z" fill="none"/></clipPath><clipPath id="clip-path-13"><path d="M1144,614.13c-2.07-20-5.61-56.82-3.5-56.82,2.49,0,8.27,33.22,11.62,53.83,9.91.49,27.28.62,28-4.28a45.65,45.65,0,0,1,0,5.89c-.54,4.82-17,4.84-27.06,4.4,1,6,1.57,10,1.57,10l-9.32-.52s-.31-2.82-.78-7.28c-1.19,1.88-4.19,4-12,4-7.68,0-16.83-1.38-23.52-2.6,1.09,6,1.77,9.93,1.77,9.93L1100,628.28s-.41-3.23-1-8.3c-1.72,1.82-6.41,5.39-17.25,6-11,.65-24.21-1.7-33.32-3.76,1.16,6,1.89,10,1.89,10l-12.81-3.56s-.37-3.42-.91-8.76c-3.29,1.63-16.6,7.22-43.08,7.22s-39.78-5.59-43.09-7.22c-.53,5.34-.91,8.76-.91,8.76l-12.8,3.56s.74-3.94,1.9-10c-9.11,2.06-22.31,4.41-33.33,3.76-10.83-.65-15.53-4.22-17.26-6-.59,5.07-1,8.3-1,8.3l-10.76,2.41s.68-3.93,1.77-9.93c-6.69,1.22-15.85,2.6-23.52,2.6-7.84,0-10.84-2.15-12-4-.47,4.46-.79,7.28-.79,7.28l-9.3.52s.6-4,1.55-10c-10.08.44-26.51.42-27-4.4a47.62,47.62,0,0,1,0-5.89c.71,4.9,18.08,4.77,28,4.28,3.35-20.61,9.14-53.83,11.62-53.83,2.11,0-1.43,36.87-3.5,56.82,1.51,1.65,4.7,3.28,11.48,3.28,8.11,0,17.9-1.55,24.65-2.82,4-21.6,10.95-57.28,13.54-57.28,2.17,0-1.72,36.67-4.08,57.29,2.11,1.92,6.85,4.88,16.64,5.46,11.51.68,25.42-1.91,34.53-4,4.29-22,11.72-58.71,13.57-58.71,2.76,0-.36,36.05-2.39,56.91,4,1.86,17.18,7,42.52,7s38.52-5.1,42.52-7c-2-20.86-5.14-56.91-2.4-56.91,1.86,0,9.29,36.69,13.58,58.71,9.12,2.13,23,4.72,34.53,4,9.8-.58,14.53-3.54,16.63-5.46-2.35-20.62-6.24-57.29-4.07-57.29,2.59,0,9.56,35.68,13.54,57.28,6.75,1.27,16.54,2.82,24.65,2.82,6.78,0,10-1.63,11.48-3.28M825.93,550.8c-11,0-19.85,2.43-19.85,5.44v1.45s-6.49,59.76-5.62,67c.81,6.79,35.72,3.81,35.72,3.81s-1,6.53,13.15,6.53,33.47-4.36,33.47-4.36,3.55,6.1,18.6,6.95c19.35,1.09,45.39-6.4,45.39-6.4s13.4,7.49,45.14,7.49,45.14-7.49,45.14-7.49,26,7.49,45.38,6.4c15-.85,18.6-6.95,18.6-6.95s19.35,4.36,33.49,4.36,13.14-6.53,13.14-6.53,34.91,3,35.72-3.81c.86-7.28-5.63-67-5.63-67v-1.45c0-3-8.88-5.44-19.83-5.44Z" fill="none"/></clipPath></defs><title>slide</title><rect y="0.74" width="1920" height="1080" fill="#d33527"/><path d="M975.11,896.85c-191.89,0-347.44-155.55-347.44-347.44S783.22,202,975.11,202" fill="none" stroke="#fff" stroke-miterlimit="10" stroke-width="2"/><circle cx="1001.33" cy="201.27" r="18.22" fill="#fcfcfc" stroke="#fff" stroke-miterlimit="10"/><circle cx="999.11" cy="896.85" r="18.22" fill="#fcfcfc" stroke="#fff" stroke-miterlimit="10"/><polygon points="848.37 459.29 835.05 517.73 821.82 459.29 811.62 459.29 810.21 531.32 818.75 531.32 819.56 478.97 832.16 531.32 838.03 531.32 850.71 478.97 851.52 531.32 859.97 531.32 858.57 459.29 848.37 459.29" fill="#fff" fill-rule="evenodd"/><polygon points="848.37 459.29 835.05 517.73 821.82 459.29 811.62 459.29 810.21 531.32 818.75 531.32 819.56 478.97 832.16 531.32 838.03 531.32 850.71 478.97 851.52 531.32 859.97 531.32 858.57 459.29 848.37 459.29" fill="#fff"/><polygon points="848.37 459.29 835.05 517.73 821.82 459.29 811.62 459.29 810.21 531.32 818.75 531.32 819.56 478.97 832.16 531.32 838.03 531.32 850.71 478.97 851.52 531.32 859.97 531.32 858.57 459.29 848.37 459.29" fill="#fff"/><rect x="873.24" y="459.29" width="6.63" height="72.04" fill="#fff"/><rect x="873.24" y="459.29" width="6.63" height="72.04" fill="#fff"/><rect x="873.24" y="459.29" width="6.63" height="72.04" fill="#fff"/><g clip-path="url(#clip-path)"><g clip-path="url(#clip-path-2)"><rect x="872.93" y="440.66" width="72.45" height="107.78" fill="#fff"/></g></g><g clip-path="url(#clip-path-3)"><g clip-path="url(#clip-path-2)"><rect x="920.03" y="440.66" width="63.37" height="107.78" fill="#fff"/></g></g><g clip-path="url(#clip-path-5)"><g clip-path="url(#clip-path-2)"><rect x="954.71" y="439.95" width="71.83" height="109.28" fill="#fff"/></g></g><g clip-path="url(#clip-path-7)"><g clip-path="url(#clip-path-2)"><rect x="999.9" y="440.66" width="63.37" height="107.78" fill="#fff"/></g></g><path d="M1064.43,465.32H1069q6.83,0,9.28,2.69t2.46,9.35q0,6.87-2.86,9.49t-9.54,2.63h-3.86ZM1054.2,458v73.07h10.23V496.8h7.93l9.66,34.28h9.92l-10.49-36.66q9.08-3,9.07-17.06,0-10.28-5.2-14.81T1069,458Z" fill="#fff"/><g clip-path="url(#clip-path-9)"><g clip-path="url(#clip-path-2)"><rect x="1080.31" y="440.66" width="76.3" height="107.78" fill="#fff"/></g></g><g clip-path="url(#clip-path-11)"><g clip-path="url(#clip-path-2)"><rect x="1123.19" y="440.66" width="75.95" height="107.78" fill="#fff"/></g></g><g clip-path="url(#clip-path-13)"><g clip-path="url(#clip-path-2)"><rect x="783.03" y="533.44" width="417.8" height="122.65" fill="#fff"/></g></g><text transform="translate(842.69 204.91)" font-size="40" fill="#d33527" font-family="Bebas"><tspan letter-spacing="0.02em">US</tspan><tspan x="43.63" y="0">U</tspan><tspan x="64.34" y="0" letter-spacing="0.02em">A</tspan><tspan x="88.26" y="0" letter-spacing="0.02em">R</tspan><tspan x="110.88" y="0" letter-spacing="0.03em">I</tspan><tspan x="120.99" y="0" letter-spacing="0.02em">O</tspan><tspan x="142.41" y="0">S</tspan></text><line x1="90.17" y1="192.71" x2="804.29" y2="192.71" fill="none" stroke="#d33527" stroke-miterlimit="10"/><line x1="1041.17" y1="192.71" x2="1755.29" y2="192.71" fill="none" stroke="#d33527" stroke-miterlimit="10"/></svg>