<svg xmlns="http://www.w3.org/2000/svg" xmlns:xlink="http://www.w3.org/1999/xlink" viewBox="0 0 1920 1080"><defs><clipPath id="clip-path"><path d="M1344.31-1664c-.68,5.64-29.68,3.16-29.68,3.16s.82,5.43-10.92,5.43-27.82-3.62-27.82-3.62-3,5.07-15.46,5.77c-16.07.91-37.7-5.31-37.7-5.31s-11.13,6.22-37.51,6.22-37.5-6.22-37.5-6.22-21.64,6.22-37.72,5.31c-12.5-.7-15.45-5.77-15.45-5.77s-16.07,3.62-27.81,3.62-10.92-5.43-10.92-5.43-29,2.48-29.68-3.16c-.72-6,4.67-55.7,4.67-55.7v-1.21c0-2.49,7.38-4.52,16.49-4.52h275.85c9.1,0,16.48,2,16.48,4.52v1.21s5.39,49.65,4.68,55.7m-2.72-14.85c-.6,4.08-15,4-23.27,3.56-2.78-17.13-7.58-44.73-9.65-44.73-1.76,0,1.19,30.64,2.91,47.22-1.26,1.37-3.9,2.72-9.54,2.72a120,120,0,0,1-20.48-2.35c-3.3-17.94-9.1-47.59-11.25-47.59-1.8,0,1.43,30.47,3.39,47.61-1.75,1.59-5.68,4-13.83,4.53-9.56.56-21.11-1.59-28.68-3.36-3.57-18.29-9.74-48.78-11.28-48.78-2.29,0,.3,30,2,47.29-3.33,1.54-14.28,5.78-35.33,5.78s-32-4.24-35.33-5.78c1.69-17.33,4.28-47.29,2-47.29-1.54,0-7.71,30.49-11.28,48.78-7.57,1.77-19.13,3.92-28.69,3.36-8.14-.48-12.07-2.94-13.82-4.53,2-17.14,5.19-47.61,3.38-47.61-2.15,0-7.94,29.65-11.24,47.59a120,120,0,0,1-20.48,2.35c-5.64,0-8.29-1.35-9.54-2.72,1.72-16.58,4.66-47.22,2.9-47.22-2.06,0-6.86,27.6-9.65,44.73-8.23.4-22.66.52-23.26-3.56a39.06,39.06,0,0,0,0,4.89c.45,4,14.1,4,22.48,3.66-.8,5-1.29,8.3-1.29,8.3l7.73-.44s.26-2.34.65-6c1,1.55,3.48,3.34,10,3.34a116.7,116.7,0,0,0,19.53-2.16c-.9,5-1.46,8.26-1.46,8.26l8.93-2s.33-2.69.82-6.9c1.44,1.52,5.34,4.49,14.34,5,9.15.54,20.12-1.41,27.69-3.12-1,5-1.58,8.28-1.58,8.28l10.64-3s.31-2.83.76-7.27c2.74,1.35,13.79,6,35.8,6s33.06-4.65,35.79-6c.45,4.44.76,7.27.76,7.27l10.64,3s-.61-3.27-1.57-8.28c7.57,1.71,18.54,3.66,27.68,3.12s12.91-3.5,14.34-5c.49,4.21.83,6.9.83,6.9l8.93,2s-.56-3.27-1.47-8.26a116.7,116.7,0,0,0,19.54,2.16c6.51,0,9-1.79,10-3.34.39,3.7.65,6,.65,6l7.73.44s-.5-3.3-1.29-8.3c8.38.37,22,.35,22.48-3.66a39.06,39.06,0,0,0,0-4.89" fill="#fff" clip-rule="evenodd"/></clipPath><radialGradient id="_ÂÁ_Ï_ÌÌ_È_ËÂÌÚ_6" cx="-13533.73" cy="-1305466.6" r="253.68" gradientTransform="matrix(0, -1.91, 0.35, 0, 453821.03, -25207.12)" gradientUnits="userSpaceOnUse"><stop offset="0.09"/><stop offset="0.18" stop-color="#393939"/><stop offset="0.28" stop-color="#6d6d6d"/><stop offset="0.38" stop-color="#9a9a9a"/><stop offset="0.48" stop-color="#bebebe"/><stop offset="0.58" stop-color="#dbdbdb"/><stop offset="0.67" stop-color="#efefef"/><stop offset="0.77" stop-color="#fbfbfb"/><stop offset="0.87" stop-color="#fff"/></radialGradient><clipPath id="clip-path-2"><rect x="591.83" width="1319.17" height="1080" fill="none"/></clipPath></defs><title>slide</title><g style="isolation:isolate"><g id="Layer_1" data-name="Layer 1"><path d="M1344.31-1664c-.68,5.64-29.68,3.16-29.68,3.16s.82,5.43-10.92,5.43-27.82-3.62-27.82-3.62-3,5.07-15.46,5.77c-16.07.91-37.7-5.31-37.7-5.31s-11.13,6.22-37.51,6.22-37.5-6.22-37.5-6.22-21.64,6.22-37.72,5.31c-12.5-.7-15.45-5.77-15.45-5.77s-16.07,3.62-27.81,3.62-10.92-5.43-10.92-5.43-29,2.48-29.68-3.16c-.72-6,4.67-55.7,4.67-55.7v-1.21c0-2.49,7.38-4.52,16.49-4.52h275.85c9.1,0,16.48,2,16.48,4.52v1.21s5.39,49.65,4.68,55.7m-2.72-14.85c-.6,4.08-15,4-23.27,3.56-2.78-17.13-7.58-44.73-9.65-44.73-1.76,0,1.19,30.64,2.91,47.22-1.26,1.37-3.9,2.72-9.54,2.72a120,120,0,0,1-20.48-2.35c-3.3-17.94-9.1-47.59-11.25-47.59-1.8,0,1.43,30.47,3.39,47.61-1.75,1.59-5.68,4-13.83,4.53-9.56.56-21.11-1.59-28.68-3.36-3.57-18.29-9.74-48.78-11.28-48.78-2.29,0,.3,30,2,47.29-3.33,1.54-14.28,5.78-35.33,5.78s-32-4.24-35.33-5.78c1.69-17.33,4.28-47.29,2-47.29-1.54,0-7.71,30.49-11.28,48.78-7.57,1.77-19.13,3.92-28.69,3.36-8.14-.48-12.07-2.94-13.82-4.53,2-17.14,5.19-47.61,3.38-47.61-2.15,0-7.94,29.65-11.24,47.59a120,120,0,0,1-20.48,2.35c-5.64,0-8.29-1.35-9.54-2.72,1.72-16.58,4.66-47.22,2.9-47.22-2.06,0-6.86,27.6-9.65,44.73-8.23.4-22.66.52-23.26-3.56a39.06,39.06,0,0,0,0,4.89c.45,4,14.1,4,22.48,3.66-.8,5-1.29,8.3-1.29,8.3l7.73-.44s.26-2.34.65-6c1,1.55,3.48,3.34,10,3.34a116.7,116.7,0,0,0,19.53-2.16c-.9,5-1.46,8.26-1.46,8.26l8.93-2s.33-2.69.82-6.9c1.44,1.52,5.34,4.49,14.34,5,9.15.54,20.12-1.41,27.69-3.12-1,5-1.58,8.28-1.58,8.28l10.64-3s.31-2.83.76-7.27c2.74,1.35,13.79,6,35.8,6s33.06-4.65,35.79-6c.45,4.44.76,7.27.76,7.27l10.64,3s-.61-3.27-1.57-8.28c7.57,1.71,18.54,3.66,27.68,3.12s12.91-3.5,14.34-5c.49,4.21.83,6.9.83,6.9l8.93,2s-.56-3.27-1.47-8.26a116.7,116.7,0,0,0,19.54,2.16c6.51,0,9-1.79,10-3.34.39,3.7.65,6,.65,6l7.73.44s-.5-3.3-1.29-8.3c8.38.37,22,.35,22.48-3.66a39.06,39.06,0,0,0,0-4.89" fill="#fff" fill-rule="evenodd"/><g clip-path="url(#clip-path)"><rect x="887.66" y="-1873.78" width="4152.23" height="2952.7" fill="#fff"/></g><path d="M213.07,438.52h58.76V637.91h27.58v54.53H271.83V756H214.14V692.44H79V637.91Zm1.07,199.39V534.11L143.4,637.91Z" fill="#a7aeb0"/><path d="M354.73,356.4a228.13,228.13,0,0,0-98.48,22.2V792.41a228.28,228.28,0,0,0,98.48,22.2c126.53,0,229.11-102.58,229.11-229.11S481.26,356.4,354.73,356.4Z" fill="#a7aeb0"/><path d="M256.25,219V953.57s-67.9-114.22-67.9-367.3C188.35,340.26,256.25,219,256.25,219Z" fill="url(#_ÂÁ_Ï_ÌÌ_È_ËÂÌÚ_6)" style="mix-blend-mode:multiply"/><path d="M372.69,559.78a1.72,1.72,0,0,1-1.56-1l-3.82-7.66a28.12,28.12,0,0,1-6.67,1.23V558a1.74,1.74,0,0,1-3.48,0v-5.66a28.12,28.12,0,0,1-6.67-1.23l-3.82,7.66a1.72,1.72,0,0,1-1.56,1,1.72,1.72,0,0,1-1.65-1.19,1.71,1.71,0,0,1,.09-1.33l3.67-7.36a28.27,28.27,0,1,1,39.9-27.48h2.75l2.39-5.07a1.76,1.76,0,0,1,1.58-1,1.65,1.65,0,0,1,.75.17,1.75,1.75,0,0,1,.83,2.32l-1.69,3.58h2.93l2.39-5.07a1.76,1.76,0,0,1,1.58-1,1.58,1.58,0,0,1,.74.17,1.7,1.7,0,0,1,.9,1,1.78,1.78,0,0,1-.06,1.34l-2.62,5.54,2.62,5.54a1.75,1.75,0,0,1-.84,2.32,1.71,1.71,0,0,1-.74.17,1.77,1.77,0,0,1-1.58-1l-2.59-5.5h-2.93l1.89,4a1.75,1.75,0,0,1-.84,2.32,1.71,1.71,0,0,1-.74.17,1.77,1.77,0,0,1-1.58-1l-2.59-5.5h-2.55a28.51,28.51,0,0,1-16.54,24l3.67,7.36a1.76,1.76,0,0,1-.78,2.34A1.78,1.78,0,0,1,372.69,559.78Zm-13.79-60.4a24.79,24.79,0,1,0,24.72,26.53H380a21.24,21.24,0,1,1,0-3.49h3.58A24.78,24.78,0,0,0,358.9,499.38Zm0,7a17.75,17.75,0,1,0,17.65,19.49h-9a8.87,8.87,0,1,1,0-3.49h9A17.82,17.82,0,0,0,358.9,506.42Zm0,12.37a5.38,5.38,0,1,0,5.08,7.12H358.9a1.75,1.75,0,0,1,0-3.49H364A5.37,5.37,0,0,0,358.9,518.79Z" fill="#fff"/><text transform="translate(326.75 615.54)" font-size="33.47" fill="#fff" font-family="Bebas"><tspan letter-spacing="0.03em">NU</tspan><tspan x="37.73" y="0">ES</tspan><tspan x="71.56" y="0" letter-spacing="0.02em">TR</tspan><tspan x="107.89" y="0">A</tspan></text><text transform="translate(326.75 656.95)" font-size="33.47" fill="#fff" font-family="Bebas"><tspan letter-spacing="0.02em">A</tspan><tspan x="20.02" y="0" letter-spacing="0.01em">P</tspan><tspan x="37.73" y="0">P</tspan></text><g clip-path="url(#clip-path-2)"><image width="6500" height="4000" transform="translate(489.59 65.4) scale(0.23)" xlink:href="../Assets2/computer.jpg"/></g></g></g></svg>