<svg xmlns="http://www.w3.org/2000/svg" xmlns:xlink="http://www.w3.org/1999/xlink" viewBox="0 0 1920 1080"><defs><clipPath id="clip-path"><circle cx="954.69" cy="277.51" r="141.65" fill="#dbdbdb" stroke="#d33527" stroke-miterlimit="10" stroke-width="4"/></clipPath><linearGradient id="linear-gradient" x1="903.04" y1="368.49" x2="1008.58" y2="368.49" gradientUnits="userSpaceOnUse"><stop offset="0" stop-color="#a1a1a1"/><stop offset="0.06" stop-color="#b2b2b2"/><stop offset="0.19" stop-color="#d4d4d4"/><stop offset="0.31" stop-color="#ececec"/><stop offset="0.43" stop-color="#fafafa"/><stop offset="0.52" stop-color="#fff"/><stop offset="0.64" stop-color="#fcfcfb"/><stop offset="0.75" stop-color="#f1f1f1"/><stop offset="0.86" stop-color="#dfdfde"/><stop offset="0.96" stop-color="#c6c6c5"/><stop offset="1" stop-color="#babab9"/></linearGradient><linearGradient id="linear-gradient-2" x1="957.9" y1="424.16" x2="957.9" y2="314.63" gradientUnits="userSpaceOnUse"><stop offset="0" stop-color="#f2f2f2"/><stop offset="0.31" stop-color="#efefef"/><stop offset="0.55" stop-color="#e5e5e5"/><stop offset="0.77" stop-color="#d5d5d5"/><stop offset="0.96" stop-color="#bfbfbe"/><stop offset="1" stop-color="#babab9"/></linearGradient><radialGradient id="radial-gradient" cx="1232.32" cy="1175.96" r="56.73" gradientTransform="translate(328.83 -191.35) scale(0.49 0.49)" gradientUnits="userSpaceOnUse"><stop offset="0" stop-color="#8a8a8a"/><stop offset="0.09" stop-color="#a0a0a0"/><stop offset="0.24" stop-color="#bebebe"/><stop offset="0.4" stop-color="#d5d5d5"/><stop offset="0.56" stop-color="#e5e5e5"/><stop offset="0.75" stop-color="#efefef"/><stop offset="1" stop-color="#f2f2f2"/></radialGradient><radialGradient id="radial-gradient-2" cx="1324.31" cy="1172.08" r="59.11" xlink:href="#radial-gradient"/></defs><title>slide</title><g style="isolation:isolate"><g id="Layer_1" data-name="Layer 1"><text transform="translate(880.61 513.8)" font-size="45.4" fill="#606060" font-family="BebasNeueBook, Bebas Neue">comensal</text><text transform="translate(893.05 470)" font-size="45.4" fill="#606060" font-family="BebasNeueBook, Bebas Neue">USUARIO</text><circle cx="954.69" cy="277.51" r="141.65" fill="#dbdbdb"/><g clip-path="url(#clip-path)"><path d="M1008.58,388.31c-35-12.38-70.3-11.95-105.54,0V355.25c35.47-9.07,70.63-8.47,105.54,0Z" fill="url(#linear-gradient)"/><path d="M993.74,327.1c-2.64,0,2.11,33.5,4.55,41.54,3.26,10.72,23.58,19,44.45,25.36,9.58,2.91,27.29,15.69,29.74,20.64,1.4,2.85,1.32,3.18,1.32,3.18H842l14.6-14a36.24,36.24,0,0,1,16.07-9l7.12-1.85,8.68-4.1A26.16,26.16,0,0,0,893.2,386l17.85-13.53a28.1,28.1,0,0,0,5.13-17.57c-.47-10.58-.47-27.79-.47-27.79Z" fill="url(#linear-gradient-2)"/><polygon points="942.52 417.53 969.37 417.53 961.53 407.65 950.64 407.65 942.52 417.53" fill="#a8a8a8"/><path d="M953.4,384.28l-14.8,14.81s2.95,12.27,9.58,11c.63-.12,0,.57,3,1.92,3.19,1.43,7.21,0,10.23-.46a12.63,12.63,0,0,0,9.16-6.16l3.62-6.19-14.07-14.37Z" fill="#a8a8a8"/><path d="M896.08,384.13s24.38,20,41.5,22.07c1.38.16,4.94.29,5.52-.58l13.41-20.76-50-16.41Z" fill="url(#radial-gradient)" style="mix-blend-mode:darken"/><path d="M1017.15,384.42s-24.38,20-41.5,22.07c-1.38.17-4.94.29-5.52-.58l-13.42-20.76,50-16.41Z" fill="url(#radial-gradient-2)" style="mix-blend-mode:darken"/><path d="M901.26,296.29s7.39,36.24,26,47.49c29,17.57,49,2.67,49,2.67s23.17-20.75,27-33a174.62,174.62,0,0,0,4.59-17.18,7.09,7.09,0,0,0,5.1-2.53c2-2.52,2.55-18.69,4.07-23.24s2.55-12.12-2.54-11.62-7.65,9.1-7.65,9.1,9.62-33.05,6.57-42.14-6.06-10.41-18.29-18-18.33-13.58-25.83-11.05-42.56,4.12-52.24.58-18.79,26.11-20.32,33.69,4.08,30.84,4.6,36.91l.51,6.06s-3.57-16.17-6.63-17.18-8.67-1-7.65,11.12,2.26,2.73,6.63,25.26C896.67,306.39,901.26,296.29,901.26,296.29Z" fill="#eaeaea"/><path d="M903,355.49s-4.45,26.13-7.29,26.86,31.58,17.68,44.23,19.31c0,0,7.61-13.15,16.12-17.13C956,384.53,904.74,367.13,903,355.49Z" fill="#f9f7f7"/><path d="M1008.68,355.25s4.67,26.07,7.49,26.78-31,18-43.53,19.78c0,0-7.66-13.07-16.13-16.95C956.51,384.86,1007.06,366.91,1008.68,355.25Z" fill="#f9f7f7"/><path d="M901.58,266.16s-4.23-13.32-3.29-20-3.77-33.78,12.24-38.54,29.21.47,33.45-.48,20.82-8.66,26.84-7.13c6.82,1.73,30.15,20.46,35.8,20.46,0,0,2.4,14,3.81,16.4S1009,258.55,1009,261.4a18.51,18.51,0,0,0,.95,7.14s1.41-5.23,1.88-8.56,6.12-11.9,6.12-11.9,4.71-28.55,3.77-30.45,4.71-4.28-3.77-20-46.16-38.54-61.7-40.45-37.21,0-46.16,24.74c0,0-23.55,5.24-26.84,30s15.07,42.35,15.07,50,2.35,11.9,2.35,11.9Z" fill="#a8a8a8"/><path d="M1008.38,267c.42,1.17-3.92-.7-3.92-.7s-5.28,15.56-8.12,16.33-30.58,1-32.48-1.42c-1.39-1.75-3.43-8.24-4.41-11.6-4.2-2.54-8-1.11-10.65.84-1,3.5-2.88,9.15-4.16,10.76-1.9,2.39-29.65,2.2-32.49,1.42S904,266.3,904,266.3s-4.34,1.87-3.91.7c.7-1.92-1-5.58-2.4-7.91a7.73,7.73,0,0,0,5.66,1.7s1.34-2.57,5.67-2.71c11.12-.35,31-1.88,42.18,2.95,3.59.5,4.19.35,6,0,11.24-4.83,31.06-3.3,42.19-2.95,4.33.14,5.67,2.71,5.67,2.71a7.71,7.71,0,0,0,5.65-1.7C1009.41,261.42,1007.68,265.08,1008.38,267Z" fill="#a8a8a8"/><path d="M944,261.58s-13.64-3.78-33.09-.58c-9.17,1.5,1.74,18.87,2,19.16s16,2.62,29.32-.29C946.44,279,948,261.29,944,261.58Z" fill="#eaeaea"/><path d="M964.72,261.58s13.64-3.78,33.09-.58c9.17,1.5-1.74,18.87-2,19.16s-16,2.62-29.32-.29C962.25,279,960.66,261.29,964.72,261.58Z" fill="#eaeaea"/></g><circle cx="954.69" cy="277.51" r="141.65" fill="none" stroke="#d33527" stroke-miterlimit="10" stroke-width="4"/><text transform="translate(152.34 711.21) scale(0.94 1)" font-size="153.13" fill="#f2f2f2" font-family="BebasNeueRegular, Bebas Neue">01</text><ellipse cx="254.72" cy="743.98" rx="57.7" ry="61.5" fill="#d33527"/><ellipse cx="254.72" cy="743.98" rx="45.7" ry="48.71" fill="#fff"/><ellipse cx="254.72" cy="743.98" rx="34.52" ry="36.8" fill="#d33527"/><ellipse cx="254.72" cy="743.98" rx="22.03" ry="23.48" fill="#fff"/><ellipse cx="254.72" cy="743.98" rx="10.19" ry="10.86" fill="#d33527"/><line x1="254.72" y1="743.98" x2="299" y2="718.56" fill="none" stroke="#443c83" stroke-miterlimit="10"/><polygon points="312.47 716.94 295.35 727.33 288.03 724.74 289.87 717.06 306.98 706.67 305.74 714.23 312.47 716.94" fill="#443c83"/><text transform="translate(358.94 713.84)" font-size="29.44" fill="#444" font-family="BebasNeueRegular, Bebas Neue">puede realizar<tspan x="0" y="35.33">rese</tspan><tspan x="43.75" y="35.33" letter-spacing="0em">r</tspan><tspan x="55.29" y="35.33" letter-spacing="-0.02em">v</tspan><tspan x="66.86" y="35.33">as en </tspan><tspan x="0" y="70.66">cualquier </tspan><tspan x="0" y="105.99">res</tspan><tspan x="33.15" y="105.99" letter-spacing="-0.04em">t</tspan><tspan x="42.63" y="105.99">aurante</tspan></text><polyline points="307.47 640.62 566.79 640.62 566.79 860.18 307.47 860.18 307.47 831.54" fill="none" stroke="#d33527" stroke-miterlimit="10"/><text transform="translate(729.56 711.21) scale(0.94 1)" font-size="153.13" fill="#f2f2f2" font-family="BebasNeueRegular, Bebas Neue">02</text><path d="M813.49,800.22l-4.17-3a4.21,4.21,0,0,1-1-5.87l28-39.5,11,7.85-28.06,39.5A4.21,4.21,0,0,1,813.49,800.22Z" fill="#d33527"/><polygon points="835.35 776.79 847.41 759.73 836.39 751.88 824.08 769.29 835.35 776.79" fill="#d33527"/><path d="M868.93,667a54,54,0,1,0,54,54A54,54,0,0,0,868.93,667Zm0,95.11a41.15,41.15,0,1,1,41.15-41.15A41.15,41.15,0,0,1,868.93,762.07Z" fill="#d33527"/><circle cx="868.76" cy="706.35" r="9.11" fill="#d33527"/><path d="M859.18,719.11h19.6a3,3,0,0,1,3,3v20.4a.81.81,0,0,1-.81.81H856.95a.81.81,0,0,1-.81-.81v-20.4A3,3,0,0,1,859.18,719.11Z" fill="#d33527"/><polyline points="888.21 640.62 1147.53 640.62 1147.53 860.17 888.21 860.17 888.21 831.54" fill="none" stroke="#d33527" stroke-miterlimit="10"/><text transform="translate(1306.89 711.21) scale(0.94 1)" font-size="153.13" fill="#f2f2f2" font-family="BebasNeueRegular, Bebas Neue">03</text><rect x="1360.14" y="692.98" width="137.14" height="104.04" rx="3.78" fill="#d33527"/><path d="M1360.14,777.68v32.49a3,3,0,0,0,5,2.13l20.44-19.57Z" fill="#d33527"/><rect x="1383.56" y="715.17" width="14" height="14" fill="none" stroke="#fff" stroke-linejoin="round" stroke-width="0.75"/><polyline points="1387.39 721.7 1390.19 724.13 1393.46 720.3" fill="none" stroke="#fff" stroke-linejoin="round" stroke-width="0.75"/><rect x="1383.56" y="739.54" width="14" height="14" fill="none" stroke="#fff" stroke-linejoin="round" stroke-width="0.75"/><polyline points="1387.39 746.07 1390.19 748.5 1393.46 744.67" fill="none" stroke="#fff" stroke-linejoin="round" stroke-width="0.75"/><rect x="1383.56" y="763.9" width="14" height="14" fill="none" stroke="#fff" stroke-linejoin="round" stroke-width="0.75"/><polyline points="1387.39 770.44 1390.19 772.87 1393.46 769.04" fill="none" stroke="#fff" stroke-linejoin="round" stroke-width="0.75"/><line x1="1412.52" y1="717.93" x2="1449.46" y2="717.93" fill="none" stroke="#fff" stroke-linejoin="round" stroke-width="0.75"/><line x1="1412.52" y1="725.54" x2="1466.94" y2="725.54" fill="none" stroke="#fff" stroke-linejoin="round" stroke-width="0.75"/><line x1="1412.52" y1="741.89" x2="1449.46" y2="741.89" fill="none" stroke="#fff" stroke-linejoin="round" stroke-width="0.75"/><line x1="1412.52" y1="749.51" x2="1466.94" y2="749.51" fill="none" stroke="#fff" stroke-linejoin="round" stroke-width="0.75"/><line x1="1412.52" y1="765.86" x2="1449.46" y2="765.86" fill="none" stroke="#fff" stroke-linejoin="round" stroke-width="0.75"/><line x1="1412.52" y1="773.47" x2="1466.94" y2="773.47" fill="none" stroke="#fff" stroke-linejoin="round" stroke-width="0.75"/><polyline points="1465.54 640.62 1724.87 640.62 1724.87 860.18 1465.54 860.18 1465.54 831.54" fill="none" stroke="#d33527" stroke-miterlimit="10"/><text transform="translate(944.02 714.16)" font-size="29.44" fill="#444" font-family="BebasNeueRegular, Bebas Neue">puede <tspan x="59.73" y="0" letter-spacing="0em">a</tspan><tspan x="72.13" y="0">cceder</tspan><tspan x="0" y="35.33">a sus rese</tspan><tspan x="98.6" y="35.33" letter-spacing="0em">r</tspan><tspan x="110.14" y="35.33" letter-spacing="-0.02em">v</tspan><tspan x="121.71" y="35.33">as</tspan><tspan x="0" y="70.66">cancelar y h</tspan><tspan x="124.47" y="70.66" letter-spacing="0em">a</tspan><tspan x="136.87" y="70.66">cer</tspan><tspan x="0" y="105.99">nue</tspan><tspan x="34.03" y="105.99" letter-spacing="-0.02em">v</tspan><tspan x="45.6" y="105.99">as rese</tspan><tspan x="117.29" y="105.99" letter-spacing="0em">r</tspan><tspan x="128.83" y="105.99" letter-spacing="-0.02em">v</tspan><tspan x="140.4" y="105.99">as</tspan></text><text transform="translate(1533.27 709.83)" font-size="29.44" fill="#444" font-family="BebasNeueRegular, Bebas Neue"><tspan letter-spacing="0em">a<tspan x="12.39" y="0" letter-spacing="0em">cceso a la </tspan></tspan><tspan x="0" y="35.33">inform</tspan><tspan x="65.15" y="35.33" letter-spacing="0em">a</tspan><tspan x="77.55" y="35.33">cion</tspan><tspan x="0" y="70.66">general de los</tspan><tspan x="0" y="105.99">res</tspan><tspan x="33.15" y="105.99" letter-spacing="-0.04em">t</tspan><tspan x="42.63" y="105.99">aurantes</tspan></text></g></g></svg>