<svg id="Layer_1" data-name="Layer 1" xmlns="http://www.w3.org/2000/svg" xmlns:xlink="http://www.w3.org/1999/xlink" viewBox="0 0 1920 1080"><defs><clipPath id="clip-path"><path d="M-655.25,669.56c-.67,5.64-29.67,3.16-29.67,3.16s.82,5.43-10.93,5.43-27.82-3.62-27.82-3.62-3,5.07-15.45,5.77c-16.07.9-37.71-5.31-37.71-5.31s-11.13,6.21-37.5,6.21-37.5-6.21-37.5-6.21-21.64,6.21-37.72,5.31c-12.5-.7-15.45-5.77-15.45-5.77s-16.07,3.62-27.82,3.62-10.92-5.43-10.92-5.43-29,2.48-29.67-3.16c-.73-6,4.67-55.7,4.67-55.7v-1.21c0-2.49,7.38-4.52,16.48-4.52H-676.4c9.1,0,16.48,2,16.48,4.52v1.21s5.39,49.65,4.67,55.7M-658,654.71c-.59,4.08-15,4-23.26,3.56-2.78-17.13-7.59-44.73-9.65-44.73-1.76,0,1.19,30.64,2.91,47.22-1.26,1.37-3.91,2.72-9.54,2.72A119.91,119.91,0,0,1-718,661.13c-3.31-17.94-9.1-47.59-11.25-47.59-1.8,0,1.43,30.47,3.38,47.61-1.74,1.59-5.68,4.05-13.82,4.53-9.56.56-21.11-1.59-28.69-3.36-3.56-18.29-9.73-48.78-11.28-48.78-2.28,0,.31,30,2,47.29-3.32,1.54-14.27,5.78-35.32,5.78s-32-4.24-35.33-5.78c1.69-17.33,4.27-47.29,2-47.29-1.54,0-7.7,30.49-11.27,48.78-7.57,1.77-19.13,3.92-28.69,3.36-8.14-.48-12.07-2.94-13.82-4.53,2-17.14,5.19-47.61,3.38-47.61-2.15,0-7.94,29.65-11.25,47.59a119.79,119.79,0,0,1-20.48,2.35c-5.63,0-8.28-1.35-9.53-2.72,1.72-16.58,4.66-47.22,2.9-47.22-2.06,0-6.87,27.6-9.65,44.73-8.23.4-22.67.52-23.26-3.56a39.06,39.06,0,0,0,0,4.89c.45,4,14.09,4,22.48,3.66-.8,5-1.3,8.3-1.3,8.3l7.73-.44s.27-2.34.66-6c1,1.55,3.48,3.34,10,3.34a116.7,116.7,0,0,0,19.54-2.16c-.9,5-1.47,8.25-1.47,8.25l8.94-2s.33-2.69.82-6.9c1.43,1.52,5.34,4.49,14.34,5s20.12-1.41,27.69-3.13c-1,5-1.58,8.29-1.58,8.29l10.64-3s.31-2.83.76-7.27c2.74,1.35,13.79,6,35.8,6s33.05-4.65,35.79-6c.45,4.44.76,7.27.76,7.27l10.64,3s-.61-3.27-1.58-8.29c7.57,1.72,18.54,3.67,27.69,3.13,9-.53,12.91-3.5,14.34-5,.49,4.21.82,6.9.82,6.9l8.94,2s-.57-3.26-1.47-8.25a116.7,116.7,0,0,0,19.54,2.16c6.51,0,9-1.79,10-3.34.4,3.7.65,6,.65,6l7.74.44s-.5-3.3-1.3-8.3c8.39.37,22,.35,22.49-3.66a37.7,37.7,0,0,0,0-4.89" fill="#fff" clip-rule="evenodd"/></clipPath><clipPath id="clip-path-2"><rect x="-24.12" y="172.5" width="1915.12" height="640.51" fill="none"/></clipPath><linearGradient id="Degradado_sin_nombre_12" x1="48.68" y1="780.64" x2="1858.52" y2="780.64" gradientUnits="userSpaceOnUse"><stop offset="0" stop-color="#0095b8" stop-opacity="0"/><stop offset="0.49" stop-color="#2c2c2c" stop-opacity="0.8"/><stop offset="1" stop-color="#00a6bf" stop-opacity="0"/></linearGradient><clipPath id="clip-path-3"><path d="M-1099-1889.72h4.52c4.54,0,7.64.9,9.28,2.69s2.46,4.91,2.46,9.34q0,6.89-2.86,9.5t-9.55,2.62H-1099Zm-10.24-7.32V-1824H-1099v-34.29h7.93l9.66,34.29h9.92l-10.5-36.67q9.07-3,9.08-17.06,0-10.27-5.2-14.81t-16.37-4.54Z" fill="none"/></clipPath><clipPath id="clip-path-4"><polygon points="-1062.18 -1897.04 -1062.18 -1823.96 -1033.51 -1823.96 -1033.51 -1831.28 -1051.94 -1831.28 -1051.94 -1858.08 -1037.14 -1858.08 -1037.14 -1865.35 -1051.94 -1865.35 -1051.94 -1889.5 -1033.73 -1889.5 -1033.73 -1897.04 -1062.18 -1897.04" fill="none"/></clipPath><clipPath id="clip-path-5"><path d="M-1010-1897.74q-8,.09-12.64,4.51t-4.63,12.37a21.9,21.9,0,0,0,1.7,9.1,22,22,0,0,0,5.43,7.07l12.32,10.89c1.38,1.29,2.46,2.33,3.21,3.11a25.93,25.93,0,0,1,2.39,2.93,12,12,0,0,1,1.82,3.7,15.52,15.52,0,0,1,.55,4.28c0,2.82-.68,5-2.06,6.41a7.87,7.87,0,0,1-6,2.18q-9.43,0-10.41-15.69l-9.13,2.47q.57,9.87,5.43,15.56t14.11,5.68q7.85,0,12.71-4.69t4.88-12.72a21.87,21.87,0,0,0-2.86-11.19,38.23,38.23,0,0,0-7.69-9.26l-12.4-10.88a16.71,16.71,0,0,1-3.72-4.54,11.71,11.71,0,0,1-1.11-5.38q0-7.45,8.1-8a8.78,8.78,0,0,1,3.9.55,6.8,6.8,0,0,1,2.7,1.85,9.87,9.87,0,0,1,1.74,3,19.34,19.34,0,0,1,1,3.73c.21,1.23.37,2.64.49,4.23l8.64-2.38q-.88-9.75-5.27-14.4c-2.84-3-7.09-4.52-12.72-4.52h-.49" fill="none"/></clipPath><clipPath id="clip-path-6"><polygon points="-982.3 -1897.04 -982.3 -1823.96 -953.64 -1823.96 -953.64 -1831.28 -972.07 -1831.28 -972.07 -1858.08 -957.27 -1858.08 -957.27 -1865.35 -972.07 -1865.35 -972.07 -1889.5 -953.86 -1889.5 -953.86 -1897.04 -982.3 -1897.04" fill="none"/></clipPath><clipPath id="clip-path-7"><polygon points="-869.65 -1897.04 -880.72 -1843.22 -892.33 -1897.04 -901.89 -1897.04 -885.5 -1823.96 -876.55 -1823.96 -860.3 -1897.04 -869.65 -1897.04" fill="none"/></clipPath><clipPath id="clip-path-8"><path d="M-838.37-1882.67l6.16,33h-12.27Zm-5-14.37L-859-1824h9.7l3.5-18.43h14.93l3.36,18.43h9.75L-833.45-1897Z" fill="none"/></clipPath><clipPath id="clip-path-9"><path d="M-855.54-1740.91c-2.07-19.95-5.62-56.83-3.5-56.83,2.48,0,8.27,33.22,11.61,53.84,9.92.48,27.28.62,28-4.29a45.63,45.63,0,0,1,0,5.89c-.54,4.82-17,4.85-27.06,4.4,1,6,1.56,10,1.56,10l-9.31-.53s-.31-2.81-.78-7.27c-1.19,1.87-4.2,4-12,4s-16.84-1.38-23.52-2.61c1.09,6,1.77,9.94,1.77,9.94l-10.76-2.41s-.4-3.24-1-8.31c-1.72,1.83-6.42,5.4-17.25,6-11,.65-24.22-1.69-33.33-3.76,1.16,6,1.9,10,1.9,10l-12.81-3.56s-.37-3.41-.91-8.75c-3.3,1.62-16.6,7.22-43.08,7.22s-39.79-5.6-43.09-7.22c-.54,5.34-.91,8.75-.91,8.75l-12.81,3.56s.74-3.93,1.91-10c-9.11,2.07-22.32,4.41-33.33,3.76-10.83-.64-15.53-4.21-17.26-6-.59,5.07-1,8.31-1,8.31l-10.75,2.41s.68-3.93,1.76-9.94c-6.68,1.23-15.84,2.61-23.51,2.61-7.84,0-10.85-2.16-12-4-.47,4.46-.79,7.27-.79,7.27l-9.3.53s.59-4,1.55-10c-10.09.45-26.51.42-27-4.4a47.6,47.6,0,0,1,0-5.89c.71,4.91,18.08,4.77,28,4.29,3.35-20.62,9.14-53.84,11.61-53.84,2.12,0-1.42,36.88-3.49,56.83,1.51,1.65,4.7,3.27,11.48,3.27,8.11,0,17.9-1.54,24.65-2.82,4-21.6,10.95-57.28,13.53-57.28,2.18,0-1.71,36.68-4.07,57.3,2.11,1.91,6.84,4.87,16.64,5.45,11.51.68,25.41-1.91,34.53-4,4.29-22,11.72-58.72,13.57-58.72,2.75,0-.36,36.06-2.39,56.91,4,1.86,17.18,7,42.52,7s38.51-5.1,42.52-7c-2-20.85-5.15-56.91-2.4-56.91,1.86,0,9.29,36.69,13.58,58.72,9.11,2.12,23,4.71,34.53,4,9.8-.58,14.53-3.54,16.63-5.45-2.35-20.62-6.24-57.3-4.07-57.3,2.58,0,9.56,35.68,13.54,57.28,6.75,1.28,16.54,2.82,24.65,2.82,6.78,0,10-1.62,11.48-3.27m-318.09-63.34c-11,0-19.84,2.44-19.84,5.44v1.45s-6.49,59.76-5.62,67c.81,6.79,35.72,3.81,35.72,3.81s-1,6.54,13.14,6.54,33.48-4.36,33.48-4.36,3.55,6.09,18.6,6.94c19.35,1.09,45.39-6.4,45.39-6.4s13.39,7.49,45.14,7.49,45.14-7.49,45.14-7.49,26,7.49,45.38,6.4c15.05-.85,18.6-6.94,18.6-6.94S-879.15-1720-865-1720s13.15-6.54,13.15-6.54,34.9,3,35.72-3.81c.86-7.28-5.63-67-5.63-67v-1.45c0-3-8.88-5.44-19.84-5.44Z" fill="none"/></clipPath></defs><title>slide</title><path d="M-655.25,669.56c-.67,5.64-29.67,3.16-29.67,3.16s.82,5.43-10.93,5.43-27.82-3.62-27.82-3.62-3,5.07-15.45,5.77c-16.07.9-37.71-5.31-37.71-5.31s-11.13,6.21-37.5,6.21-37.5-6.21-37.5-6.21-21.64,6.21-37.72,5.31c-12.5-.7-15.45-5.77-15.45-5.77s-16.07,3.62-27.82,3.62-10.92-5.43-10.92-5.43-29,2.48-29.67-3.16c-.73-6,4.67-55.7,4.67-55.7v-1.21c0-2.49,7.38-4.52,16.48-4.52H-676.4c9.1,0,16.48,2,16.48,4.52v1.21s5.39,49.65,4.67,55.7M-658,654.71c-.59,4.08-15,4-23.26,3.56-2.78-17.13-7.59-44.73-9.65-44.73-1.76,0,1.19,30.64,2.91,47.22-1.26,1.37-3.91,2.72-9.54,2.72A119.91,119.91,0,0,1-718,661.13c-3.31-17.94-9.1-47.59-11.25-47.59-1.8,0,1.43,30.47,3.38,47.61-1.74,1.59-5.68,4.05-13.82,4.53-9.56.56-21.11-1.59-28.69-3.36-3.56-18.29-9.73-48.78-11.28-48.78-2.28,0,.31,30,2,47.29-3.32,1.54-14.27,5.78-35.32,5.78s-32-4.24-35.33-5.78c1.69-17.33,4.27-47.29,2-47.29-1.54,0-7.7,30.49-11.27,48.78-7.57,1.77-19.13,3.92-28.69,3.36-8.14-.48-12.07-2.94-13.82-4.53,2-17.14,5.19-47.61,3.38-47.61-2.15,0-7.94,29.65-11.25,47.59a119.79,119.79,0,0,1-20.48,2.35c-5.63,0-8.28-1.35-9.53-2.72,1.72-16.58,4.66-47.22,2.9-47.22-2.06,0-6.87,27.6-9.65,44.73-8.23.4-22.67.52-23.26-3.56a39.06,39.06,0,0,0,0,4.89c.45,4,14.09,4,22.48,3.66-.8,5-1.3,8.3-1.3,8.3l7.73-.44s.27-2.34.66-6c1,1.55,3.48,3.34,10,3.34a116.7,116.7,0,0,0,19.54-2.16c-.9,5-1.47,8.25-1.47,8.25l8.94-2s.33-2.69.82-6.9c1.43,1.52,5.34,4.49,14.34,5s20.12-1.41,27.69-3.13c-1,5-1.58,8.29-1.58,8.29l10.64-3s.31-2.83.76-7.27c2.74,1.35,13.79,6,35.8,6s33.05-4.65,35.79-6c.45,4.44.76,7.27.76,7.27l10.64,3s-.61-3.27-1.58-8.29c7.57,1.72,18.54,3.67,27.69,3.13,9-.53,12.91-3.5,14.34-5,.49,4.21.82,6.9.82,6.9l8.94,2s-.57-3.26-1.47-8.25a116.7,116.7,0,0,0,19.54,2.16c6.51,0,9-1.79,10-3.34.4,3.7.65,6,.65,6l7.74.44s-.5-3.3-1.3-8.3c8.39.37,22,.35,22.49-3.66a37.7,37.7,0,0,0,0-4.89" fill="#fff" fill-rule="evenodd"/><g clip-path="url(#clip-path)"><rect x="-1111.89" y="459.81" width="4152.23" height="2952.7" fill="#fff"/></g><g clip-path="url(#clip-path-2)"><image width="6000" height="4500" transform="translate(16.22 -333.73) scale(0.31)" xlink:href="../Assets2/wooden-board-empty-table-top-on-of-blurred-background.jpg"/></g><polygon points="1021.68 713.35 964 814.34 906.32 713.35 -1 713.35 -1 1120 1919 1120 1919 713.35 1021.68 713.35" fill="#f2f2f3"/><polyline points="48.68 722.89 894.54 722.89 965.31 837.01 1034.21 722.89 1858.52 722.89" fill="none" stroke-miterlimit="10" stroke-width="3" stroke="url(#Degradado_sin_nombre_12)"/><text transform="translate(836.61 109.51)" font-size="40" fill="#d33527" font-family="Bebas"><tspan letter-spacing="0.01em">P</tspan><tspan x="21.16" y="0">R</tspan><tspan x="42.87" y="0" letter-spacing="0.03em">O</tspan><tspan x="64.6" y="0" letter-spacing="0.02em">B</tspan><tspan x="87.36" y="0">LE</tspan><tspan x="124.66" y="0" letter-spacing="0.02em">M</tspan><tspan x="154.06" y="0" letter-spacing="-0.02em">A</tspan><tspan x="176.36" y="0" letter-spacing="0em">S</tspan></text><line x1="101.06" y1="97.31" x2="815.18" y2="97.31" fill="none" stroke="#d33527" stroke-miterlimit="10"/><line x1="1052.06" y1="97.31" x2="1766.18" y2="97.31" fill="none" stroke="#d33527" stroke-miterlimit="10"/><text transform="translate(615.45 948.68)" font-size="33" fill="#606060" font-family="Montserrat-Regular, Montserrat">Gestionar las <tspan x="221.36" y="0" letter-spacing="-0.01em">r</tspan><tspan x="234.17" y="0">ese</tspan><tspan x="290.17" y="0" letter-spacing="0.02em">r</tspan><tspan x="303.89" y="0" letter-spacing="-0.02em">v</tspan><tspan x="321.25" y="0">as de los </tspan><tspan x="470.81" y="0" letter-spacing="-0.01em">r</tspan><tspan x="483.61" y="0">estau</tspan><tspan x="574.75" y="0" letter-spacing="-0.01em">r</tspan><tspan x="587.69" y="0">an</tspan><tspan x="629.5" y="0" letter-spacing="-0.02em">t</tspan><tspan x="642.27" y="0">es</tspan></text></svg>