<svg id="Layer_1" data-name="Layer 1" xmlns="http://www.w3.org/2000/svg" xmlns:xlink="http://www.w3.org/1999/xlink" viewBox="0 0 1920 1080"><defs><clipPath id="clip-path"><circle cx="954.69" cy="277.51" r="141.65" fill="#dbdbdb" stroke="#d33527" stroke-miterlimit="10" stroke-width="4"/></clipPath><linearGradient id="linear-gradient" x1="907.97" y1="357.92" x2="1002.29" y2="357.92" gradientUnits="userSpaceOnUse"><stop offset="0" stop-color="#a1a1a1"/><stop offset="0.06" stop-color="#b2b2b2"/><stop offset="0.19" stop-color="#d4d4d4"/><stop offset="0.31" stop-color="#ececec"/><stop offset="0.43" stop-color="#fafafa"/><stop offset="0.52" stop-color="#fff"/><stop offset="0.64" stop-color="#fcfcfb"/><stop offset="0.75" stop-color="#f1f1f1"/><stop offset="0.86" stop-color="#dfdfde"/><stop offset="0.96" stop-color="#c6c6c5"/><stop offset="1" stop-color="#babab9"/></linearGradient><linearGradient id="linear-gradient-2" x1="955.76" y1="436.68" x2="955.76" y2="306.03" gradientUnits="userSpaceOnUse"><stop offset="0" stop-color="#fff"/><stop offset="0.24" stop-color="#fbfbfb"/><stop offset="0.48" stop-color="#f0f0ef"/><stop offset="0.71" stop-color="#dcdcdc"/><stop offset="0.95" stop-color="#c1c1c0"/><stop offset="1" stop-color="#babab9"/></linearGradient></defs><title>slide</title><text transform="translate(871.15 522.8)" font-size="45.4" fill="#606060" font-family="BebasNeueBook, Bebas Neue">PROPIE<tspan x="89.72" y="0" letter-spacing="-0.04em">T</tspan><tspan x="104.74" y="0">ARIO</tspan></text><text transform="translate(898.05 480)" font-size="45.4" fill="#606060" font-family="BebasNeueBook, Bebas Neue">USUARIO</text><circle cx="954.69" cy="277.51" r="141.65" fill="#dbdbdb"/><g clip-path="url(#clip-path)"><path d="M1002.29,375.65c-31.23-11.08-62.82-10.7-94.32,0V346.08c31.7-8.11,63.13-7.58,94.32,0Z" fill="url(#linear-gradient)"/><path d="M988.35,320.9c-2.36,0,1.89,30,4.08,37.15,5,16.39,65.84,30.27,66.29,41.14.12,2.84,0,29.92,0,29.92h-206l19.18-45.52,14.59-3.79,7.76-3.66a24.36,24.36,0,0,0,4.23-2.57l16-12.1A25.16,25.16,0,0,0,919,345.75c-.41-9.46-.41-24.85-.41-24.85Z" fill="url(#linear-gradient-2)"/><path d="M905.49,274.72s-10.92-20.34-12.84-23.5,1.44-14,0-16.27-1.92-35.24,9.6-45.18,18.23-12.65,18.23-12.65c2.85-2.46,21.82-9.39,29.79-8.14,24,3.78,20,2.54,24.42,2.26,10.18,1.64,18,4.39,16.75,11.06,3.84-2,6.89-2,10.12.24-.9,1.88-1,3.13,0,4.07,0,0,12.47.45,12.47,31.62,0,30-2.33,40.76-5.76,42.48s-9.74,7.82-9.74,7.82,1.59-54.35-13.76-53.91-26.61,8.16-63.81,0C912.8,212.83,901.17,263.88,905.49,274.72Z" fill="#a8a8a8"/><path d="M904.23,293.83s6.61,32.41,23.23,42.47c25.95,15.71,43.77,2.39,43.77,2.39s20.71-18.56,24.11-29.5a158.66,158.66,0,0,0,4.1-15.36,6.32,6.32,0,0,0,4.55-2.26c1.82-2.26,2.28-16.72,3.65-20.78s2.27-10.85-2.28-10.4-6.83,8.14-6.83,8.14,4.13-13.67,1.4-21.8-.95-25.19-11.88-32-24.86-4.52-31.56-2.26-20.83.9-29.48-2.26-18.33,11.22-19.7,18-3.54,34.87-3.08,40.29l.46,5.42s-3.19-14.46-5.93-15.36-7.74-.91-6.83,9.94,2,2.45,5.92,22.59C900.13,302.87,904.23,293.83,904.23,293.83Z" fill="#f4f4f4"/><path d="M907.24,346.3s-4,23.36-6.51,24,28.22,15.8,39.53,17.26c0,0,6.8-11.76,14.41-15.32C954.67,372.26,908.81,356.7,907.24,346.3Z" fill="#fff"/><path d="M1001.7,346.08s4.18,23.32,6.7,23.95-27.74,16.11-38.9,17.69c0,0-6.85-11.69-14.41-15.16C955.09,372.56,1000.26,356.5,1001.7,346.08Z" fill="#fff"/></g><circle cx="954.69" cy="277.51" r="141.65" fill="none" stroke="#d33527" stroke-miterlimit="10" stroke-width="4"/><text transform="translate(152.34 711.21) scale(0.94 1)" font-size="153.13" fill="#f2f2f2" font-family="BebasNeueRegular, Bebas Neue">01</text><ellipse cx="254.72" cy="743.98" rx="57.7" ry="61.5" fill="#d33527"/><ellipse cx="254.72" cy="743.98" rx="45.7" ry="48.71" fill="#fff"/><ellipse cx="254.72" cy="743.98" rx="34.52" ry="36.8" fill="#d33527"/><ellipse cx="254.72" cy="743.98" rx="22.03" ry="23.48" fill="#fff"/><ellipse cx="254.72" cy="743.98" rx="10.19" ry="10.86" fill="#d33527"/><line x1="254.72" y1="743.98" x2="299" y2="718.56" fill="none" stroke="#443c83" stroke-miterlimit="10"/><polygon points="312.47 716.94 295.35 727.33 288.03 724.74 289.87 717.06 306.98 706.67 305.74 714.23 312.47 716.94" fill="#443c83"/><text transform="translate(340.94 765.84)" font-size="29.44" fill="#444" font-family="BebasNeueRegular, Bebas Neue">Crear res<tspan x="95.12" y="0" letter-spacing="-0.04em">t</tspan><tspan x="104.6" y="0" letter-spacing="0em">aurantes</tspan></text><polyline points="307.47 640.62 566.79 640.62 566.79 860.18 307.47 860.18 307.47 831.54" fill="none" stroke="#d33527" stroke-miterlimit="10"/><text transform="translate(729.56 711.21) scale(0.94 1)" font-size="153.13" fill="#f2f2f2" font-family="BebasNeueRegular, Bebas Neue">02</text><path d="M813.49,800.22l-4.17-3a4.21,4.21,0,0,1-1-5.87l28-39.5,11,7.85-28.06,39.5A4.21,4.21,0,0,1,813.49,800.22Z" fill="#d33527"/><polygon points="835.35 776.79 847.41 759.73 836.39 751.88 824.08 769.29 835.35 776.79" fill="#d33527"/><path d="M868.93,667a54,54,0,1,0,54,54A54,54,0,0,0,868.93,667Zm0,95.11a41.15,41.15,0,1,1,41.15-41.15A41.15,41.15,0,0,1,868.93,762.07Z" fill="#d33527"/><circle cx="868.76" cy="706.35" r="9.11" fill="#d33527"/><path d="M859.18,719.11h19.6a3,3,0,0,1,3,3v20.4a.81.81,0,0,1-.81.81H856.95a.81.81,0,0,1-.81-.81v-20.4A3,3,0,0,1,859.18,719.11Z" fill="#d33527"/><polyline points="888.21 640.62 1147.53 640.62 1147.53 860.17 888.21 860.17 888.21 831.54" fill="none" stroke="#d33527" stroke-miterlimit="10"/><text transform="translate(1306.89 711.21) scale(0.94 1)" font-size="153.13" fill="#f2f2f2" font-family="BebasNeueRegular, Bebas Neue">03</text><rect x="1360.14" y="692.98" width="137.14" height="104.04" rx="3.78" fill="#d33527"/><path d="M1360.14,777.68v32.49a3,3,0,0,0,5,2.13l20.44-19.57Z" fill="#d33527"/><rect x="1383.56" y="715.17" width="14" height="14" fill="none" stroke="#fff" stroke-linejoin="round" stroke-width="0.75"/><polyline points="1387.39 721.7 1390.19 724.13 1393.46 720.3" fill="none" stroke="#fff" stroke-linejoin="round" stroke-width="0.75"/><rect x="1383.56" y="739.54" width="14" height="14" fill="none" stroke="#fff" stroke-linejoin="round" stroke-width="0.75"/><polyline points="1387.39 746.07 1390.19 748.5 1393.46 744.67" fill="none" stroke="#fff" stroke-linejoin="round" stroke-width="0.75"/><rect x="1383.56" y="763.9" width="14" height="14" fill="none" stroke="#fff" stroke-linejoin="round" stroke-width="0.75"/><polyline points="1387.39 770.44 1390.19 772.87 1393.46 769.04" fill="none" stroke="#fff" stroke-linejoin="round" stroke-width="0.75"/><line x1="1412.52" y1="717.93" x2="1449.46" y2="717.93" fill="none" stroke="#fff" stroke-linejoin="round" stroke-width="0.75"/><line x1="1412.52" y1="725.54" x2="1466.94" y2="725.54" fill="none" stroke="#fff" stroke-linejoin="round" stroke-width="0.75"/><line x1="1412.52" y1="741.89" x2="1449.46" y2="741.89" fill="none" stroke="#fff" stroke-linejoin="round" stroke-width="0.75"/><line x1="1412.52" y1="749.51" x2="1466.94" y2="749.51" fill="none" stroke="#fff" stroke-linejoin="round" stroke-width="0.75"/><line x1="1412.52" y1="765.86" x2="1449.46" y2="765.86" fill="none" stroke="#fff" stroke-linejoin="round" stroke-width="0.75"/><line x1="1412.52" y1="773.47" x2="1466.94" y2="773.47" fill="none" stroke="#fff" stroke-linejoin="round" stroke-width="0.75"/><polyline points="1465.54 640.62 1724.87 640.62 1724.87 860.18 1465.54 860.18 1465.54 831.54" fill="none" stroke="#d33527" stroke-miterlimit="10"/><text transform="translate(948.72 728.01)" font-size="29.44" fill="#444" font-family="BebasNeueRegular, Bebas Neue">tiene <tspan x="53.05" y="0" letter-spacing="0em">a</tspan><tspan x="65.45" y="0">cceso a</tspan><tspan x="0" y="35.33">todos sus</tspan><tspan x="0" y="70.66" xml:space="preserve"> res</tspan><tspan x="37.71" y="70.66" letter-spacing="-0.04em">t</tspan><tspan x="47.19" y="70.66">aurantes</tspan></text><text transform="translate(1542.27 749.4)" font-size="29.44" fill="#444" font-family="BebasNeueRegular, Bebas Neue">edi<tspan x="26.91" y="0" letter-spacing="-0.04em">t</tspan><tspan x="36.39" y="0">ar</tspan><tspan x="0" y="35.33">res</tspan><tspan x="33.15" y="35.33" letter-spacing="-0.04em">t</tspan><tspan x="42.63" y="35.33">aurantes</tspan></text></svg>