<?xml version="1.0" encoding="UTF-8"?>
<svg width="44px" height="45px" viewBox="0 0 44 45" version="1.1" xmlns="http://www.w3.org/2000/svg" xmlns:xlink="http://www.w3.org/1999/xlink">
    <!-- Generator: Sketch 63.1 (92452) - https://sketch.com -->
    <title>Group</title>
    <desc>Created with Sketch.</desc>
    <defs>
        <polygon id="path-1" points="0.00040754717 0.387638889 43.6161057 0.387638889 43.6161057 44.2352917 0.00040754717 44.2352917"></polygon>
    </defs>
    <g id="Page-1" stroke="none" stroke-width="1" fill="none" fill-rule="evenodd">
        <g id="Login-User" transform="translate(-671.000000, -936.000000)">
            <g id="socialmedia" transform="translate(671.000000, 936.000000)">
                <g id="Group">
                    <g id="Group-17">
                        <mask id="mask-2" fill="white">
                            <use xlink:href="#path-1"></use>
                        </mask>
                        <g id="Clip-16"></g>
                        <path d="M21.8082566,44.2352917 C9.76523774,44.2352917 0.00040754717,34.4224444 0.00040754717,22.3110556 C0.00040754717,10.2037639 9.76523774,0.386819444 21.8082566,0.386819444 C33.8512755,0.386819444 43.6161057,10.2037639 43.6161057,22.3110556 C43.6161057,34.4224444 33.8512755,44.2352917 21.8082566,44.2352917 Z" id="Fill-15" fill="#D5341F" mask="url(#mask-2)"></path>
                    </g>
                    <path d="M12.0024979,7 C13.6611157,7 15,8.345 15,10 C15,11.655 13.6611157,13 12.0024979,13 C10.3388843,13 9,11.655 9,10 C9,8.345 10.3388843,7 12.0024979,7 L12.0024979,7 Z M10,33 L15,33 L15,16 L10,16 L10,33 Z" id="Fill-18" fill="#FFFFFF"></path>
                    <path d="M18,14.4377381 L22.9185002,14.4377381 L22.9185002,16.8426604 L22.9879145,16.8426604 C23.6770995,15.4556109 25.3480012,14 27.8469166,14 C33.0430741,14 34,17.6390272 34,22.3644887 L34,32 L28.8732569,32 L28.8732569,23.4614708 C28.8732569,21.4204512 28.8335916,18.8045708 26.2057639,18.8045708 C23.5333127,18.8045708 23.1267431,21.0249048 23.1267431,23.3138002 L23.1267431,32 L18,32 L18,14.4377381 Z" id="Fill-20" fill="#FFFFFF"></path>
                </g>
            </g>
        </g>
    </g>
</svg>