<?xml version="1.0" encoding="UTF-8"?>
<svg width="111px" height="53px" viewBox="0 0 111 53" version="1.1" xmlns="http://www.w3.org/2000/svg" xmlns:xlink="http://www.w3.org/1999/xlink">
    <!-- Generator: Sketch 63.1 (92452) - https://sketch.com -->
    <title>Group 48</title>
    <desc>Created with Sketch.</desc>
    <g id="Page-1" stroke="none" stroke-width="1" fill="none" fill-rule="evenodd">
        <g id="anadirRestau-Copy-7" transform="translate(-48.000000, -24.000000)">
            <g id="Logo" transform="translate(-50.000000, -3.000000)">
                <g id="Group-48" transform="translate(98.000000, 0.000000)">
                    <polygon id="Fill-1" fill="#121212" points="12.631124 28.1578947 8.87493045 44.9089241 5.14306954 28.1578947 2.26669356 28.1578947 1.87096774 48.8070175 4.27797961 48.8070175 4.50721883 33.7989821 8.05914616 48.8070175 9.71504738 48.8070175 13.292588 33.7989821 13.5218273 48.8070175 15.9032258 48.8070175 15.5087807 28.1578947"></polygon>
                    <polygon id="Fill-2" fill="#121212" points="19.6451613 48.8070175 21.516129 48.8070175 21.516129 28.1578947 19.6451613 28.1578947"></polygon>
                    <g id="Group-47">
                        <path d="M28.8547011,36.770359 L29.9646022,36.770359 C31.2497508,36.770359 32.1670722,36.5180864 32.7159244,36.0141799 C33.2647766,35.5109121 33.5395236,34.5988988 33.5395236,33.2775015 C33.5395236,31.9995333 33.3032925,31.1015707 32.8308303,30.5848909 C32.358368,30.0688498 31.4667239,29.8108292 30.1565399,29.8108292 L28.8547011,29.8108292 L28.8547011,36.770359 Z M25.9056637,48.758735 L25.9056637,27.7025969 L30.1565399,27.7025969 C32.301236,27.7025969 33.8726865,28.1381662 34.8734591,29.0105823 C35.8735898,29.8829983 36.3730132,31.3046661 36.3730132,33.2775015 C36.3730132,35.9867173 35.501269,37.6255311 33.7564968,38.1926654 L36.7819241,48.758735 L33.9227573,48.758735 L31.1399804,38.8785913 L28.8547011,38.8785913 L28.8547011,48.758735 L25.9056637,48.758735 Z" id="Fill-3" fill="#D5341F"></path>
                        <polygon id="Fill-5" fill="#D5341F" points="39.4747663 48.7590544 39.4747663 27.7022775 47.6703171 27.7022775 47.6703171 29.8743763 42.4238037 29.8743763 42.4238037 36.8339061 46.6868767 36.8339061 46.6868767 38.9287265 42.4238037 38.9287265 42.4238037 46.650822 47.7338684 46.650822 47.7338684 48.7590544"></polygon>
                        <path d="M55.0986945,48.9879518 C53.3198999,48.9879518 51.9647806,48.4418934 51.0333367,47.3497767 C50.1018928,46.25766 49.5800018,44.7631845 49.4695894,42.8663502 L52.0989444,42.1555163 C52.2863887,45.1693753 53.2865194,46.6766241 55.0986945,46.6766241 C55.8568166,46.6766241 56.43263,46.467142 56.8287023,46.0475393 C57.2247746,45.6285752 57.4218478,45.0122637 57.4218478,44.1998822 C57.4218478,43.7515395 57.3692094,43.3402394 57.2626486,42.9678979 C57.1560878,42.5955563 56.9821241,42.2398201 56.7394737,41.9006891 C56.4968232,41.5621968 56.2670114,41.2811843 56.0493964,41.0563743 C55.8330652,40.8322029 55.5242957,40.5339465 55.1243718,40.161605 L51.5757696,37.0244837 C50.8606569,36.3813483 50.3394078,35.7011703 50.0120223,34.9858658 C49.6839948,34.2705613 49.520944,33.3962292 49.520944,32.3635083 C49.520944,30.8396543 49.9651612,29.6523765 50.8548795,28.8010364 C51.7433139,27.9503349 52.9584919,27.5166816 54.4984877,27.4994376 C56.1925473,27.473891 57.4610057,27.9075444 58.302579,28.8010364 C59.1454363,29.6945284 59.6519209,31.0765989 59.822033,32.9478866 L57.3326192,33.6331739 C57.2992387,33.1758899 57.2517357,32.7696991 57.1926779,32.4146015 C57.1329782,32.0582266 57.0354045,31.701213 56.8993148,31.3410061 C56.7625832,30.9814378 56.5969647,30.689568 56.4005334,30.464758 C56.2053859,30.2405867 55.9454033,30.0623992 55.6218694,29.931473 C55.2989774,29.799908 54.9247308,29.7468989 54.4984877,29.7724455 C52.9418017,29.8829345 52.1631377,30.6531641 52.1631377,32.0837732 C52.1631377,32.7020007 52.2696985,33.2186804 52.4821781,33.6331739 C52.6946577,34.048306 53.052214,34.484514 53.5548471,34.9417979 L57.1284847,38.0782805 C58.056077,38.9085447 58.7942993,39.7969274 59.3431514,40.7453445 C59.8926456,41.6937617 60.1667507,42.7692731 60.1667507,43.9712402 C60.1667507,45.5123382 59.698782,46.7334652 58.7628446,47.6352599 C57.8262652,48.5370545 56.6053098,48.9879518 55.0986945,48.9879518" id="Fill-7" fill="#D5341F"></path>
                        <polygon id="Fill-9" fill="#D5341F" points="62.4902892 48.7590544 62.4902892 27.7022775 70.68584 27.7022775 70.68584 29.8743763 65.4393266 29.8743763 65.4393266 36.8339061 69.7023996 36.8339061 69.7023996 38.9287265 65.4393266 38.9287265 65.4393266 46.650822 70.7493913 46.650822 70.7493913 48.7590544"></polygon>
                        <path d="M76.0850049,36.770359 L77.194906,36.770359 C78.4800547,36.770359 79.397376,36.5180864 79.9462282,36.0141799 C80.4950804,35.5109121 80.7698275,34.5988988 80.7698275,33.2775015 C80.7698275,31.9995333 80.5335964,31.1015707 80.0611341,30.5848909 C79.5886719,30.0688498 78.6970278,29.8108292 77.3868438,29.8108292 L76.0850049,29.8108292 L76.0850049,36.770359 Z M73.1359675,48.758735 L73.1359675,27.7025969 L77.3868438,27.7025969 C79.5315399,27.7025969 81.1029904,28.1381662 82.103763,29.0105823 C83.1038936,29.8829983 83.603317,31.3046661 83.603317,33.2775015 C83.603317,35.9867173 82.7315729,37.6255311 80.9868006,38.1926654 L84.012228,48.758735 L81.1530611,48.758735 L78.3702842,38.8785913 L76.0850049,38.8785913 L76.0850049,48.758735 L73.1359675,48.758735 Z" id="Fill-11" fill="#D5341F"></path>
                        <polygon id="Fill-13" fill="#D5341F" points="90.3817379 48.7590544 85.6583994 27.7022775 88.415499 27.7022775 91.7599667 43.2096963 94.9510126 27.7022775 97.6445609 27.7022775 92.9603803 48.7590544"></polygon>
                        <path d="M102.202345,41.3551416 L105.738109,41.3551416 L103.963808,31.8422302 L102.202345,41.3551416 Z M98.0156621,48.7591821 L102.534224,27.7024053 L105.380552,27.7024053 L109.899114,48.7591821 L107.09066,48.7591821 L106.1207,43.449962 L101.819111,43.449962 L100.810636,48.7591821 L98.0156621,48.7591821 Z" id="Fill-15" fill="#D5341F"></path>
                        <path d="M109.420643,70.5917244 C109.213579,72.0063533 104.209514,71.9661976 101.353239,71.8273735 C100.388967,65.8877677 98.7222988,56.3157895 98.0056924,56.3157895 C97.3966785,56.3157895 98.4177918,66.9409951 99.0146254,72.6890007 C98.5781655,73.1639856 97.6605845,73.6320866 95.7076799,73.6320866 C93.3710965,73.6320866 90.549332,73.1869317 88.6045475,72.8197936 C87.4575713,66.5956558 85.4478254,56.3157895 84.7027983,56.3157895 C84.0775441,56.3157895 85.1981297,66.8824824 85.8761652,72.8243829 C85.2712113,73.3762373 83.9070202,74.228686 81.0832256,74.3961928 C77.7661298,74.5923822 73.7608483,73.8454856 71.1339682,73.232824 C69.89767,66.8870717 67.7580011,56.3157895 67.2220688,56.3157895 C66.4303507,56.3157895 67.3276312,66.7046499 67.9122846,72.7130941 C66.7592182,73.2500336 62.9610014,74.7185859 55.6609546,74.7185859 C48.3588777,74.7185859 44.5606609,73.2500336 43.4096246,72.7130941 C43.994278,66.7046499 44.8915585,56.3157895 44.0978103,56.3157895 C43.5639081,56.3157895 41.4242392,66.8870717 40.187941,73.232824 C37.5610609,73.8454856 33.5537493,74.5923822 30.2386836,74.3961928 C27.414889,74.228686 26.0506979,73.3762373 25.443714,72.8243829 C26.1237795,66.8824824 27.2443651,56.3157895 26.6170808,56.3157895 C25.8720538,56.3157895 23.8643379,66.5956558 22.7173617,72.8197936 C20.7725772,73.1869317 17.9508127,73.6320866 15.6142293,73.6320866 C13.6613247,73.6320866 12.7417137,73.1639856 12.3072838,72.6890007 C12.9041174,66.9409951 13.9232007,56.3157895 13.3141868,56.3157895 C12.5996104,56.3157895 10.9329423,65.8877677 9.96664026,71.8273735 C7.11239503,71.9661976 2.10630062,72.0063533 1.90126593,70.5917244 C1.86675514,71.3925443 1.85863496,71.9937329 1.89314575,72.289738 C2.04945932,73.6779789 6.78149747,73.68601 9.68852391,73.5575117 C9.4124376,75.2910918 9.23988365,76.4349564 9.23988365,76.4349564 L11.9215749,76.283512 C11.9215749,76.283512 12.012927,75.4723663 12.1489401,74.187383 C12.4899879,74.726617 13.3547877,75.3484572 15.6142293,75.3484572 C17.8249499,75.3484572 20.4640102,74.9503418 22.3905242,74.5969714 C22.0778971,76.3282569 21.8809826,77.4606485 21.8809826,77.4606485 L24.9808634,76.766528 C24.9808634,76.766528 25.094546,75.8337678 25.2650699,74.3732466 C25.7624313,74.898713 27.1164722,75.927847 30.2386836,76.1125633 C33.4116461,76.3007216 37.215953,75.624958 39.840803,75.029506 C39.5058454,76.7688226 39.2926905,77.9035088 39.2926905,77.9035088 L42.9833149,76.8778168 C42.9833149,76.8778168 43.0909073,75.8934278 43.2451908,74.3548897 C44.1972826,74.8218435 48.0279801,76.4349564 55.6609546,76.4349564 C63.291899,76.4349564 67.1246266,74.8218435 68.0746883,74.3548897 C68.2289718,75.8934278 68.3365643,76.8778168 68.3365643,76.8778168 L72.0271886,77.9035088 C72.0271886,77.9035088 71.8160638,76.7688226 71.4811062,75.029506 C74.1059562,75.624958 77.9102631,76.3007216 81.0832256,76.1125633 C84.205437,75.927847 85.5594779,74.898713 86.0548092,74.3732466 C86.2253331,75.8337678 86.3410458,76.766528 86.3410458,76.766528 L89.4388966,77.4606485 C89.4388966,77.4606485 89.2440121,76.3282569 88.9293549,74.5969714 C90.855869,74.9503418 93.4949293,75.3484572 95.7076799,75.3484572 C97.9650914,75.3484572 98.8298912,74.726617 99.1729691,74.187383 C99.3089822,75.4723663 99.3983042,76.283512 99.3983042,76.283512 L102.082026,76.4349564 C102.082026,76.4349564 101.907442,75.2910918 101.631355,73.5575117 C104.540412,73.68601 109.27245,73.6779789 109.428763,72.289738 C109.463274,71.9937329 109.457184,71.3925443 109.420643,70.5917244 M110.364345,75.7414823 C110.130019,77.6979268 100.072323,76.8393272 100.072323,76.8393272 C100.072323,76.8393272 100.35759,78.7219858 96.2843865,78.7219858 C92.2111828,78.7219858 86.6362526,77.4665074 86.6362526,77.4665074 C86.6362526,77.4665074 85.613367,79.2228356 81.2773102,79.4665527 C75.70238,79.7807018 68.1998607,77.6241409 68.1998607,77.6241409 C68.1998607,77.6241409 64.3406071,79.7807018 55.1937279,79.7807018 C46.0468486,79.7807018 42.187595,77.6241409 42.187595,77.6241409 C42.187595,77.6241409 34.6830381,79.7807018 29.1081079,79.4665527 C24.7720511,79.2228356 23.7491655,77.4665074 23.7491655,77.4665074 C23.7491655,77.4665074 18.1762729,78.7219858 14.1030692,78.7219858 C10.0298654,78.7219858 10.3151323,76.8393272 10.3151323,76.8393272 C10.3151323,76.8393272 0.257436624,77.6979268 0.0231102452,75.7414823 C-0.227517099,73.6441738 1.64301869,56.4241082 1.64301869,56.4241082 L1.64301869,56.005988 C1.64301869,55.1406806 4.20227027,54.4385965 7.36058232,54.4385965 L103.026873,54.4385965 C106.183148,54.4385965 108.742399,55.1406806 108.742399,56.005988 L108.742399,56.4241082 C108.742399,56.4241082 110.612935,73.6441738 110.364345,75.7414823" id="Fill-25" fill="#121212"></path>
                    </g>
                </g>
            </g>
        </g>
    </g>
</svg>