<?xml version="1.0" encoding="utf-8"?>
<!-- Generator: Adobe Illustrator 24.0.0, SVG Export Plug-In . SVG Version: 6.00 Build 0)  -->
<svg version="1.1" id="Layer_1" xmlns="http://www.w3.org/2000/svg" xmlns:xlink="http://www.w3.org/1999/xlink" x="0px" y="0px"
	 viewBox="0 0 293 350" style="enable-background:new 0 0 293 350;" xml:space="preserve">
<style type="text/css">
	.st0{enable-background:new    ;}
	.st1{fill:#1C1B1B;}
	.st2{fill:#D40000;}
	.st3{filter:url(#Adobe_OpacityMaskFilter);}
	.st4{fill-rule:evenodd;clip-rule:evenodd;fill:#FFFFFF;}
	.st5{mask:url(#mask-2_1_);fill-rule:evenodd;clip-rule:evenodd;fill:#99A4B0;}
	.st6{fill-rule:evenodd;clip-rule:evenodd;fill:#BDC6D1;}
	.st7{fill-rule:evenodd;clip-rule:evenodd;fill:#B02727;}
	.st8{fill-rule:evenodd;clip-rule:evenodd;fill:#D94141;}
	.st9{fill-rule:evenodd;clip-rule:evenodd;fill:#B1BAC4;}
	.st10{fill-rule:evenodd;clip-rule:evenodd;fill:#A2AEBA;}
	.st11{fill-rule:evenodd;clip-rule:evenodd;fill:#E65353;}
	.st12{fill-rule:evenodd;clip-rule:evenodd;fill:#BABAD6;}
	.st13{fill-rule:evenodd;clip-rule:evenodd;fill:#E0E0FC;}
	.st14{filter:url(#Adobe_OpacityMaskFilter_1_);}
	.st15{mask:url(#mask-4_1_);fill-rule:evenodd;clip-rule:evenodd;fill:#EBEBFF;}
	.st16{fill-rule:evenodd;clip-rule:evenodd;fill:#2F4047;}
	.st17{fill-rule:evenodd;clip-rule:evenodd;fill:#D6D6D6;}
	.st18{fill-rule:evenodd;clip-rule:evenodd;fill:#CACAE0;}
	.st19{filter:url(#Adobe_OpacityMaskFilter_2_);}
	.st20{mask:url(#mask-6_1_);fill-rule:evenodd;clip-rule:evenodd;fill:#D8D8E6;}
	.st21{filter:url(#Adobe_OpacityMaskFilter_3_);}
	.st22{mask:url(#mask-8_1_);fill-rule:evenodd;clip-rule:evenodd;fill:#BABAD6;}
	.st23{fill-rule:evenodd;clip-rule:evenodd;fill:#E8E8FC;}
	.st24{fill-rule:evenodd;clip-rule:evenodd;fill:#4F4F6B;}
	.st25{fill-rule:evenodd;clip-rule:evenodd;fill:#353547;}
	.st26{fill-rule:evenodd;clip-rule:evenodd;fill:#D1D1D1;}
	.st27{fill-rule:evenodd;clip-rule:evenodd;fill:#818194;}
	.st28{filter:url(#Adobe_OpacityMaskFilter_4_);}
	.st29{mask:url(#mask-10_1_);fill-rule:evenodd;clip-rule:evenodd;fill:#99A4B0;}
	.st30{filter:url(#Adobe_OpacityMaskFilter_5_);}
	.st31{mask:url(#mask-12_1_);fill-rule:evenodd;clip-rule:evenodd;fill:#BDC6D1;}
	.st32{fill-rule:evenodd;clip-rule:evenodd;fill:#911B1B;}
	.st33{fill-rule:evenodd;clip-rule:evenodd;fill:#D65151;}
	.st34{fill-rule:evenodd;clip-rule:evenodd;fill:#FFEBEB;}
	.st35{fill-rule:evenodd;clip-rule:evenodd;fill:#614E0F;}
	.st36{fill-rule:evenodd;clip-rule:evenodd;fill:#E3B622;}
	.st37{fill-rule:evenodd;clip-rule:evenodd;fill:#83E322;}
	.st38{fill-rule:evenodd;clip-rule:evenodd;fill:#84E3D8;}
	.st39{fill-rule:evenodd;clip-rule:evenodd;fill:#DB89FC;}
	.st40{fill-rule:evenodd;clip-rule:evenodd;fill:#FFA74F;}
	.st41{fill-rule:evenodd;clip-rule:evenodd;fill:#AFBFE3;}
	.st42{fill-rule:evenodd;clip-rule:evenodd;fill:#FC89C3;}
</style>
<title>Group 2</title>
<desc>Created with Sketch.</desc>
<g id="Page-1">
	<g id="anadirRestau-Copy-10" transform="translate(-552.000000, -616.000000)">
		<g id="Group-2" transform="translate(552.000000, 616.000000)">
			<g class="st0">
				<path class="st1" d="M87.7,56.4V69h-1.5l-7.6-9.4V69h-1.8V56.4h1.5l7.6,9.4v-9.4H87.7z"/>
				<path class="st1" d="M90.5,62.7c0-3.7,2.8-6.4,6.7-6.4c3.8,0,6.7,2.7,6.7,6.4s-2.8,6.4-6.7,6.4C93.3,69.1,90.5,66.4,90.5,62.7z
					 M102.1,62.7c0-2.8-2.1-4.8-4.9-4.8c-2.8,0-4.9,2.1-4.9,4.8s2.1,4.8,4.9,4.8C100,67.5,102.1,65.5,102.1,62.7z"/>
				<path class="st1" d="M114,58h-4.3v-1.6h10.4V58h-4.3v11H114V58z"/>
				<path class="st1" d="M122,56.4h1.8V69H122V56.4z"/>
				<path class="st1" d="M136.8,67.4V69h-9.1V56.4h8.9V58h-7.1v3.9h6.3v1.5h-6.3v4.1H136.8z"/>
				<path class="st1" d="M150.5,56.4V69H149l-7.6-9.4V69h-1.8V56.4h1.5l7.6,9.4v-9.4H150.5z"/>
				<path class="st1" d="M163.4,67.4V69h-9.1V56.4h8.9V58h-7.1v3.9h6.3v1.5h-6.3v4.1H163.4z"/>
				<path class="st1" d="M165.2,67.6l0.7-1.4c0.9,0.8,2.5,1.5,4.2,1.5c2.2,0,3.1-0.8,3.1-1.9c0-3.1-7.6-1.1-7.6-5.8
					c0-1.9,1.5-3.6,4.8-3.6c1.5,0,3,0.4,4.1,1.1l-0.6,1.4c-1.1-0.7-2.3-1-3.5-1c-2.1,0-3.1,0.9-3.1,2c0,3.1,7.6,1.2,7.6,5.8
					c0,1.9-1.5,3.6-4.9,3.6C168.1,69.1,166.2,68.5,165.2,67.6z"/>
			</g>
			<g class="st0">
				<path class="st2" d="M193.4,69l0-7.6l-3.7,6.2h-1.3l-3.7-6.1V69H182V56.4h2.4l4.7,7.8l4.6-7.8h2.4l0,12.6H193.4z"/>
				<path class="st2" d="M208.9,66.7V69h-9.8V56.4h9.5v2.3h-6.6v2.7h5.9v2.3h-5.9v2.9H208.9z"/>
				<path class="st2" d="M210.3,67.8l1-2.2c1.1,0.8,2.6,1.3,4.2,1.3c1.7,0,2.4-0.6,2.4-1.3c0-2.4-7.3-0.7-7.3-5.4
					c0-2.1,1.7-3.9,5.3-3.9c1.6,0,3.2,0.4,4.4,1.1l-0.9,2.2c-1.2-0.7-2.4-1-3.5-1c-1.7,0-2.4,0.6-2.4,1.4c0,2.3,7.3,0.7,7.3,5.3
					c0,2.1-1.7,3.9-5.3,3.9C213.4,69.2,211.4,68.6,210.3,67.8z"/>
				<path class="st2" d="M231,66.3h-5.9l-1.1,2.7h-3l5.6-12.6h2.9l5.6,12.6h-3.1L231,66.3z M230.1,64.1l-2-4.8l-2,4.8H230.1z"/>
				<path class="st2" d="M235.5,67.8l1-2.2c1.1,0.8,2.6,1.3,4.2,1.3c1.7,0,2.4-0.6,2.4-1.3c0-2.4-7.3-0.7-7.3-5.4
					c0-2.1,1.7-3.9,5.3-3.9c1.6,0,3.2,0.4,4.4,1.1l-0.9,2.2c-1.2-0.7-2.4-1-3.5-1c-1.7,0-2.4,0.6-2.4,1.4c0,2.3,7.3,0.7,7.3,5.3
					c0,2.1-1.7,3.9-5.3,3.9C238.7,69.2,236.6,68.6,235.5,67.8z"/>
			</g>
			<g id="Group-233">
				<g id="Group-42">
					<g id="Group-3">
						<g id="Clip-2">
						</g>
						<defs>
							<filter id="Adobe_OpacityMaskFilter" filterUnits="userSpaceOnUse" x="0" y="0.9" width="60.2" height="140.2">
								<feColorMatrix  type="matrix" values="1 0 0 0 0  0 1 0 0 0  0 0 1 0 0  0 0 0 1 0"/>
							</filter>
						</defs>
						<mask maskUnits="userSpaceOnUse" x="0" y="0.9" width="60.2" height="140.2" id="mask-2_1_">
							<g class="st3">
								<polygon id="path-1_1_" class="st4" points="0,0.9 60.2,0.9 60.2,141.1 0,141.1 								"/>
							</g>
						</mask>
						<path id="Fill-1" class="st5" d="M16.9,135.8L5.6,68.3c-1.1-10.4,1.1-22.8,6.1-34.1c5-11.3,12.1-20.3,19.7-24.6
							c5.3-3.1,10.4-3.6,14.7-1.8c0.9,0.6,1.7,1.4,2.5,2.3c5,5.6,7.2,15.5,6.1,27.1l-11.7,83.7L16.9,135.8z M0.3,69.1L0.3,69.1
							l13.1,70.6l0,0l0,0l0,0l0,0l0,0l0,0l0,0l0,0l0,0l0,0l0,0l0,0l0,0l0,0l0,0l0,0l0,0l0,0l0,0l0,0l0,0l0,0l0,0l0,0l0,0l0,0l0,0
							l0,0l0,0l0,0l0,0l0,0l0,0l0,0l0,0l0,0l0,0l0,0l0,0l0,0l0,0l0,0l0,0l0,0l0,0l0,0l0,0l0,0l0,0l0,0l0,0l0,0l0,0l0,0l0,0l0,0l0,0
							l0,0l0,0l0,0l0,0l0,0l0,0l0,0l0,0l0,0l0,0l0,0l0,0l0,0l0,0l0,0l0,0l0,0l0,0l0,0l0,0l0,0l0,0l0,0l0,0l0,0l0,0l0,0l0,0l0,0l0,0
							l0,0l0,0l0,0l0,0l0,0l0,0l0,0l0,0l0,0l0,0l0,0l0,0l0,0l0,0l0,0l0,0l0,0l0,0l0,0l0,0l0,0l0,0l0,0l0,0l0,0l0,0l0,0l0,0l0,0l0,0
							l0,0l0,0l0,0l0,0l0,0l0,0l0,0l0,0l0,0l0,0l0,0l0,0l0,0l0,0l0,0l0,0l0,0l0,0l0,0l0,0l0,0l0,0l0,0l0,0l0,0l0,0l0,0l0,0l0,0l0,0
							l0,0l0,0l0,0l0,0l0,0l0,0l0,0l0,0l0,0l0,0l0,0l0,0l0,0l0,0l0,0l0,0l0,0l0,0l0,0l0,0l0,0l0,0l0,0l0,0l0,0l0,0l0,0l0,0l0,0l0,0
							l0,0l0,0l0,0l0,0l0,0l0,0l0,0l0,0l0,0l0,0l0,0l0,0l0,0l0,0l0,0l0,0l0,0l0,0l0,0l0,0l0,0l0,0l0,0l0,0l0,0l30.9-17.8l13.1-85.7
							c1.2-12.9-1.2-23.8-6.7-30c-1.2-1.4-2.5-2.5-4-3.3c0,0,0,0,0,0c0,0,0,0,0,0c0,0,0,0,0,0c0,0,0,0,0,0c0,0,0,0,0,0c0,0,0,0,0,0
							c0,0,0,0,0,0c0,0,0,0,0,0c0,0,0,0,0,0c0,0,0,0,0,0c0,0,0,0,0,0c0,0,0,0,0,0c0,0,0,0,0,0c0,0,0,0,0,0c0,0,0,0,0,0c0,0,0,0,0,0
							c0,0,0,0,0,0c0,0,0,0,0,0c0,0,0,0,0,0c0,0,0,0,0,0c0,0,0,0,0,0c0,0,0,0,0,0c0,0,0,0,0,0c0,0,0,0,0,0c0,0,0,0,0,0c0,0,0,0,0,0
							c0,0,0,0,0,0c0,0,0,0,0,0c0,0,0,0,0,0c0,0,0,0,0,0c0,0,0,0,0,0c0,0,0,0,0,0c0,0,0,0,0,0c0,0,0,0,0,0c0,0,0,0,0,0c0,0,0,0,0,0
							c0,0,0,0,0,0c0,0,0,0,0,0c0,0,0,0,0,0c0,0,0,0,0,0c0,0,0,0,0,0c0,0,0,0,0,0c0,0,0,0,0,0c0,0,0,0,0,0c0,0,0,0,0,0c0,0,0,0,0,0
							c0,0,0,0,0,0c0,0,0,0,0,0c0,0,0,0,0,0c0,0,0,0,0,0c0,0,0,0,0,0c0,0,0,0,0,0c0,0,0,0,0,0c0,0,0,0,0,0c0,0,0,0,0,0c0,0,0,0,0,0
							c0,0,0,0,0,0c0,0,0,0,0,0c0,0,0,0,0,0c0,0,0,0,0,0c0,0,0,0,0,0c0,0,0,0,0,0c0,0,0,0,0,0c0,0,0,0,0,0c0,0,0,0,0,0c0,0,0,0,0,0
							c0,0,0,0,0,0c0,0,0,0,0,0c0,0,0,0,0,0c0,0,0,0,0,0c0,0,0,0,0,0c0,0,0,0,0,0c0,0,0,0,0,0c0,0,0,0,0,0c0,0,0,0,0,0c0,0,0,0,0,0
							c0,0,0,0,0,0c0,0,0,0,0,0c0,0,0,0,0,0c0,0,0,0,0,0c0,0,0,0,0,0c0,0,0,0,0,0c0,0,0,0,0,0c0,0,0,0,0,0c0,0,0,0,0,0c0,0,0,0,0,0
							c0,0,0,0,0,0c0,0,0,0,0,0c0,0,0,0,0,0c0,0,0,0,0,0c0,0,0,0,0,0c0,0,0,0,0,0c0,0,0,0,0,0c0,0,0,0,0,0c0,0,0,0,0,0c0,0,0,0,0,0
							c0,0,0,0,0,0c0,0,0,0,0,0c0,0,0,0,0,0c0,0,0,0,0,0c-5.1-3-11.3-2.6-17.9,1.2C20.4,8.9,12.5,18.8,7,31.3
							C1.5,43.8-0.9,57.6,0.3,69.1L0.3,69.1z"/>
					</g>
					<path id="Fill-4" class="st6" d="M57.1,38.6C58.2,26.9,56,17,51.1,11.5c-5-5.6-12.1-6.3-19.7-1.9c-7.6,4.4-14.8,13.4-19.7,24.6
						C6.7,45.5,4.5,57.9,5.6,68.3l11.7,70.2l28.1-16.2L57.1,38.6z M2.8,70.5L2.8,70.5C1.6,59,4.1,45.3,9.5,32.8
						C15,20.3,23,10.3,31.4,5.5c8.4-4.8,16.3-4.1,21.8,2.1c5.5,6.2,7.9,17.1,6.7,30l-13.1,85.7l-30.9,17.8L2.8,70.5z"/>
					<path id="Fill-6" class="st7" d="M25.7,17l0.9-0.5c3.7-2.1,7.1-2.3,9.8-0.8c0,0,0,0,0.1,0c0,0,0,0,0.1,0c0,0,0,0,0.1,0
						c0,0,0,0,0.1,0c0,0,0,0,0.1,0c0,0,0,0,0.1,0s0,0,0.1,0c0,0,0,0,0.1,0c0,0,0,0,0.1,0c0,0,0,0,0.1,0c0,0,0,0,0.1,0s0,0,0.1,0
						l0.1,0c0,0,0,0,0.1,0c0,0,0,0,0.1,0c0,0,0,0,0.1,0c0,0,0,0,0.1,0c0,0,0,0,0.1,0c0,0,0,0,0.1,0c0,0,0,0,0.1,0c0,0,0,0,0.1,0
						c0,0,0,0,0.1,0c0,0,0,0,0.1,0c0,0,0,0,0.1,0c0,0,0,0,0.1,0c0,0,0,0,0.1,0c0,0,0,0,0.1,0c0,0,0,0,0.1,0c0,0,0,0,0.1,0
						c0,0,0,0,0.1,0c0,0,0,0,0.1,0c0,0,0,0,0.1,0c0,0,0,0,0.1,0c0,0,0,0,0.1,0c0,0,0,0,0.1,0c0,0,0,0,0.1,0c0,0,0,0,0.1,0
						c0,0,0,0,0.1,0c0,0,0,0,0.1,0c0,0,0,0,0.1,0c0,0,0,0,0.1,0c0,0,0,0,0.1,0c0,0,0,0,0.1,0l0.1,0c0,0,0,0,0.1,0c0,0,0,0,0.1,0
						c0,0,0,0,0.1,0c0,0,0,0,0.1,0c0,0,0,0,0.1,0c0,0,0,0,0.1,0c0,0,0,0,0.1,0c0,0,0,0,0.1,0c0,0,0,0,0.1,0c0,0,0,0,0.1,0
						c0,0,0,0,0.1,0s0,0,0.1,0c0,0,0,0,0.1,0c0,0,0,0,0.1,0c0,0,0,0,0.1,0c0,0,0,0,0.1,0l0.1,0c0,0,0,0,0.1,0c0,0,0,0,0.1,0
						c0,0,0,0,0.1,0c0,0,0,0,0.1,0c0,0,0,0,0.1,0c0,0,0,0,0.1,0c0,0,0,0,0.1,0c0,0,0,0,0.1,0c0,0,0,0,0.1,0c0,0,0,0,0.1,0
						c0,0,0,0,0.1,0c0,0,0,0,0.1,0c0,0,0,0,0.1,0c0,0,0,0,0.1,0c0,0,0,0,0.1,0s0,0,0.1,0c0,0,0,0,0.1,0c0,0,0,0,0.1,0c0,0,0,0,0.1,0
						c0,0,0,0,0.1,0c0,0,0,0,0.1,0c0,0,0,0,0.1,0c0,0,0,0,0.1,0c0,0,0,0,0.1,0c0,0,0,0,0.1,0c0,0,0,0,0.1,0s0,0,0.1,0c0,0,0,0,0.1,0
						c0,0,0,0,0.1,0c0,0,0,0,0.1,0c0,0,0,0,0.1,0c0,0,0,0,0.1,0c0,0,0,0,0.1,0c0,0,0,0,0.1,0c0,0,0,0,0.1,0c0,0,0,0,0.1,0
						c0,0,0,0,0.1,0c0,0,0,0,0.1,0c0,0,0,0,0.1,0c4.5,2.4,7.1,9.2,6.2,18.7l-9.4,90.1L25,137l0-0.1l-0.1,0l0-0.1l-0.1,0l0-0.1
						l-0.1,0l0-0.1l-0.1,0l0-0.1l-0.1,0l0-0.1l-0.1,0l0-0.1l-0.1,0l0-0.1l-0.1,0l0-0.1l-0.1,0l0-0.1l-0.1,0l0-0.1l-0.1,0l0-0.1
						l-0.1,0l0-0.1l-0.1,0l0-0.1l-0.1,0l0-0.1l-0.1,0l0-0.1l-0.1,0l0-0.1l-0.1,0l0-0.1l-0.1,0l0-0.1l-0.1,0l0-0.1l-0.1,0l0-0.1
						l-0.1,0l0-0.1l-0.1,0l0-0.1l-0.1,0l0-0.1l-0.1,0l0-0.1l-0.1,0l0-0.1l-0.1,0l0-0.1l-0.1,0l0-0.1l-0.1,0l0-0.1l-0.1,0l0-0.1
						l-0.1,0l0-0.1l-0.1,0l0-0.1l-0.1,0l0-0.1l-0.1,0l0-0.1l-0.1,0l0-0.1l-0.1,0l0-0.1l-0.1,0l0-0.1l-0.1,0l0-0.1l-0.1,0l0-0.1
						l-0.1,0l0-0.1l-0.1,0l0-0.1l-0.1,0l0-0.1l-0.1,0l0-0.1l-0.1,0l0-0.1l-0.1,0l0-0.1l-0.1,0l0-0.1l-0.1,0l0-0.1l-0.1,0l0-0.1
						l-0.1,0l0-0.1l-0.1,0l0-0.1l-0.1,0l0-0.1l-0.1,0l0-0.1l-0.1,0l0-0.1l-0.1,0l0-0.1l-0.1,0l0-0.1l-0.1,0l0-0.1l-0.1,0l0-0.1
						l-0.1,0l0-0.1l-0.1,0l0-0.1l-0.1,0l0-0.1l-0.1,0l0-0.1l-0.1,0l0-0.1l-0.1,0l0-0.1l-0.1,0l0-0.1l-0.1,0l0-0.1l-0.1,0l0-0.1
						l-0.1,0l0-0.1l-0.1,0l0-0.1l-0.1,0l0-0.1l-0.1,0l0-0.1l-0.1,0l0-0.1l-0.1,0l0-0.1l-0.1,0l0-0.1l-0.1,0l0-0.1l-0.1,0l0-0.1
						l-0.1,0l0-0.1l-0.1,0l0-0.1l-0.1,0l0-0.1l-0.1,0l0-0.1l-0.1,0l0-0.1l-0.1,0l0-0.1l-0.1,0l0-0.1l-0.1,0l0-0.1l-0.1,0l0-0.1
						l-0.1,0l0-0.1l-0.1,0l0-0.1l-0.1,0l0-0.1l-0.1,0l0-0.1l-0.1,0l0-0.1l-0.1,0l0-0.1l-0.1,0l0-0.1l-0.1,0l0-0.1l-0.1,0l0-0.1
						l-0.1,0l0-0.1l-0.1,0l0-0.1l-0.1,0l0-0.1l-0.1,0l0-0.1l-0.1,0l0-0.1l-0.1,0l0-0.1l-0.1,0l0-0.1l-0.1,0l0-0.1l-0.1,0L8.8,55.4
						C7.3,41.1,15.3,23,25.7,17"/>
					<path id="Fill-8" class="st8" d="M25,137l15.1-8.7l9.4-90.1c1.4-15.1-6.1-23.5-15.9-17.9l-0.9,0.5c-10.4,6-18.4,24.1-16.9,38.4
						L25,137z"/>
					<path id="Fill-10" class="st9" d="M29.2,156.5L29.2,156.5c-6.5,3.8-10.2,8.7-10.2,13.9s3.6,10.1,10.2,13.9
						c7.1,4.1,16.4,6.1,25.7,6.1c9.3,0,18.6-2,25.7-6.1c6.6-3.8,10.2-8.7,10.2-13.9s-3.6-10.1-10.2-13.9c-7.1-4.1-16.4-6.1-25.7-6.1
						C45.5,150.3,36.2,152.4,29.2,156.5 M27.5,187c-7.6-4.4-11.8-10.3-11.8-16.7c0-6.4,4.2-12.3,11.8-16.7c7.3-4.2,17-6.5,27.3-6.5
						c10.3,0,20,2.3,27.3,6.5c7.6,4.4,11.8,10.3,11.8,16.7c0,6.4-4.2,12.3-11.8,16.7c-7.3,4.2-17,6.5-27.3,6.5
						C44.5,193.6,34.8,191.3,27.5,187"/>
					<path id="Fill-12" class="st9" d="M54.8,255.3c1.2,0,2.2-1,2.2-2.2l0.3-91.2c0-1.2-1-2.2-2.2-2.3h0c-1.2,0-2.2,1-2.2,2.2
						l-0.3,91.2C52.6,254.3,53.6,255.3,54.8,255.3L54.8,255.3z"/>
					<path id="Fill-14" class="st9" d="M101.2,228.6c0.4,0,0.8-0.1,1.1-0.3c1.1-0.6,1.4-2,0.8-3.1c-2.6-4.4-5.9-16.1-7.5-47.5
						c-0.9-19-0.7-36.2-0.7-36.4c0-1.2-1-2.3-2.2-2.3h0c-1.2,0-2.2,1-2.2,2.2c0,0.2-0.2,17.6,0.7,36.7c1.3,25.9,4,42.6,8.1,49.6
						C99.6,228.2,100.4,228.6,101.2,228.6"/>
					<path id="Fill-16" class="st9" d="M9.6,228.6c0.8,0,1.5-0.4,1.9-1.1c4.1-7,6.8-23.7,8.1-49.6c0.9-19.1,0.7-36.5,0.7-36.7
						c0-1.2-1-2.2-2.2-2.2h0c-1.2,0-2.2,1-2.2,2.3c0,0.2,0.2,17.4-0.7,36.4c-1.5,31.4-4.9,43.2-7.5,47.5c-0.6,1.1-0.3,2.4,0.8,3.1
						C8.9,228.5,9.2,228.6,9.6,228.6"/>
					<path id="Fill-18" class="st10" d="M24.5,123.4c-16.8,9.7-16.8,25.4,0,35c16.8,9.7,44,9.7,60.7,0c16.8-9.7,16.8-25.4,0-35
						C68.4,113.7,41.2,113.7,24.5,123.4"/>
					<path id="Fill-20" class="st7" d="M11.9,127.3c0-6.4,4.2-12.7,12.6-17.6c16.8-9.7,44-9.7,60.7,0c8.4,4.8,12.6,11.2,12.6,17.6
						v0.1v0.1v0.1v0.1v0.1v0.1v0.1v0.1v0.1v0.1v0.1v0.1v0.1v0.1v0.1v0.1v0.1v0.1v0.1v0.1v0.1v0.1v0.1v0.1v0.1v0.1v0.1v0.1v0.1v0.1
						v0.1v0.1v0.1v0.1v0.1v0.1v0.1v0.1v0.1v0.1v0.1v0.1v0.1v0.1v0.1v0.1v0.1v0.1v0.1v0.1v0.1v0.1v0.1v0.1v0.1v0.1v0.1v0.1v0.1v0.1
						v0.1v0.1v0.1v0.1v0.1v0.1v0.1v0.1v0.1v0.1v0.1v0.1v0.1v0.1v0.1v0.1v0.1v0.1v0.1v0.1v0.1v0.1v0.1v0.1v0.1v0.1v0.1v0.1v0.1v0.1
						v0.1v0.1v0.1v0.1v0.1v0.1v0.1v0.1v0.1v0.1c0,6.4-4.2,12.7-12.6,17.6c-16.8,9.7-44,9.7-60.7,0c-8.4-4.8-12.6-11.2-12.6-17.6
						v-0.1V136v-0.1v-0.1v-0.1v-0.1v-0.1v-0.1v-0.1v-0.1v-0.1v-0.1v-0.1V135v-0.1v-0.1v-0.1v-0.1v-0.1v-0.1v-0.1v-0.1v-0.1v-0.1V134
						v-0.1v-0.1v-0.1v-0.1v-0.1v-0.1v-0.1v-0.1v-0.1v-0.1V133v-0.1v-0.1v-0.1v-0.1v-0.1v-0.1v-0.1v-0.1v-0.1v-0.1V132v-0.1v-0.1
						v-0.1v-0.1v-0.1v-0.1v-0.1v-0.1v-0.1v-0.1v-0.1V131v-0.1v-0.1v-0.1v-0.1v-0.1v-0.1v-0.1v-0.1v-0.1v-0.1V130v-0.1v-0.1v-0.1
						v-0.1v-0.1v-0.1v-0.1v-0.1v-0.1v-0.1V129v-0.1v-0.1v-0.1v-0.1v-0.1v-0.1v-0.1v-0.1v-0.1v-0.1V128v-0.1v-0.1v-0.1v-0.1v-0.1
						v-0.1V127.3L11.9,127.3z"/>
					<path id="Fill-22" class="st11" d="M24.5,109.8c-16.8,9.7-16.8,25.4,0,35c16.8,9.7,44,9.7,60.7,0c16.8-9.7,16.8-25.4,0-35
						C68.4,100.1,41.2,100.1,24.5,109.8"/>
					<path id="Fill-24" class="st9" d="M206.9,250.9L206.9,250.9c-6.6,3.8-10.2,8.7-10.2,13.9s3.6,10.1,10.2,13.9
						c7.1,4.1,16.4,6.1,25.7,6.1c9.3,0,18.6-2,25.7-6.1c6.6-3.8,10.2-8.7,10.2-13.9s-3.6-10.1-10.2-13.9c-7.1-4.1-16.4-6.1-25.7-6.1
						C223.4,244.8,214,246.8,206.9,250.9 M205.3,281.6c-7.6-4.4-11.8-10.3-11.8-16.7c0-6.4,4.2-12.3,11.8-16.7
						c7.3-4.2,17.1-6.6,27.4-6.6c10.3,0,20,2.3,27.4,6.6c7.6,4.4,11.8,10.3,11.8,16.7c0,6.4-4.2,12.3-11.8,16.7
						c-7.3,4.2-17.1,6.6-27.4,6.6C222.4,288.1,212.6,285.8,205.3,281.6"/>
					<path id="Fill-26" class="st9" d="M232.7,350c1.2,0,2.2-1,2.3-2.2l0.3-91.4c0-1.2-1-2.3-2.2-2.3h0c-1.2,0-2.2,1-2.3,2.2
						l-0.3,91.4C230.4,349,231.4,350,232.7,350L232.7,350z"/>
					<path id="Fill-28" class="st9" d="M279.1,323.2c0.4,0,0.8-0.1,1.1-0.3c1.1-0.6,1.4-2,0.8-3.1c-2.6-4.4-5.9-16.2-7.5-47.6
						c-0.9-19-0.7-36.3-0.7-36.5c0-1.2-1-2.3-2.2-2.3h0c-1.2,0-2.2,1-2.3,2.2c0,0.2-0.2,17.6,0.7,36.8c1.3,26,4,42.7,8.1,49.7
						C277.6,322.8,278.3,323.2,279.1,323.2"/>
					<path id="Fill-30" class="st9" d="M187.4,323.2c0.8,0,1.5-0.4,1.9-1.1c4.1-7,6.8-23.7,8.1-49.7c0.9-19.2,0.7-36.6,0.7-36.8
						c0-1.2-1-2.2-2.3-2.2h0c-1.2,0-2.2,1-2.2,2.3c0,0.2,0.2,17.5-0.7,36.5c-1.5,31.5-4.9,43.3-7.5,47.6c-0.6,1.1-0.3,2.5,0.8,3.1
						C186.6,323.1,187,323.2,187.4,323.2"/>
					<path id="Fill-32" class="st10" d="M202.2,217.8c-16.8,9.7-16.8,25.4,0,35.1c16.8,9.7,44.1,9.7,60.9,0
						c16.8-9.7,16.8-25.4,0-35.1C246.3,208.1,219.1,208.1,202.2,217.8"/>
					<path id="Fill-34" class="st7" d="M189.6,221.7c0-6.4,4.2-12.7,12.6-17.6c16.8-9.7,44.1-9.7,60.9,0
						c8.4,4.9,12.6,11.2,12.6,17.6v0.1v0.1v0.1v0.1v0.1v0.1v0.1v0.1v0.1v0.1v0.1v0.1v0.1v0.1v0.1v0.1v0.1v0.1v0.1v0.1v0.1v0.1v0.1
						v0.1v0.1v0.1v0.1v0.1v0.1v0.1v0.1v0.1v0.1v0.1v0.1v0.1v0.1v0.1v0.1v0.1v0.1v0.1v0.1v0.1v0.1v0.1v0.1v0.1v0.1v0.1v0.1v0.1v0.1
						v0.1v0.1v0.1v0.1v0.1v0.1v0.1v0.1v0.1v0.1v0.1v0.1v0.1v0.1v0.1v0.1v0.1v0.1v0.1v0.1v0.1v0.1v0.1v0.1v0.1v0.1v0.1v0.1v0.1v0.1
						v0.1v0.1v0.1v0.1v0.1v0.1v0.1v0.1v0.1v0.1v0.1v0.1v0.1v0.1v0.1v0.1v0.1c0,6.4-4.2,12.7-12.6,17.6c-16.8,9.7-44.1,9.7-60.9,0
						c-8.4-4.9-12.6-11.2-12.6-17.6v-0.1v-0.1v-0.1v-0.1v-0.1v-0.1V230v-0.1v-0.1v-0.1v-0.1v-0.1v-0.1v-0.1v-0.1v-0.1v-0.1V229v-0.1
						v-0.1v-0.1v-0.1v-0.1v-0.1v-0.1v-0.1v-0.1v-0.1V228v-0.1v-0.1v-0.1v-0.1v-0.1v-0.1v-0.1v-0.1v-0.1v-0.1v-0.1V227v-0.1v-0.1
						v-0.1v-0.1v-0.1v-0.1v-0.1v-0.1v-0.1v-0.1V226v-0.1v-0.1v-0.1v-0.1v-0.1v-0.1v-0.1v-0.1v-0.1v-0.1V225v-0.1v-0.1v-0.1v-0.1
						v-0.1v-0.1v-0.1v-0.1v-0.1v-0.1V224v-0.1v-0.1v-0.1v-0.1v-0.1v-0.1v-0.1v-0.1v-0.1v-0.1V223V223v-0.1v-0.1v-0.1v-0.1v-0.1v-0.1
						v-0.1v-0.1v-0.1v-0.1V222v-0.1V221.7L189.6,221.7z"/>
					<path id="Fill-36" class="st11" d="M202.2,204.1c-16.8,9.7-16.8,25.4,0,35.1c16.8,9.7,44.1,9.7,60.9,0
						c16.8-9.7,16.8-25.4,0-35.1S219.1,194.4,202.2,204.1"/>
					<path id="Fill-38" class="st12" d="M167.7,290.6c-2.6,0-4.9-1.1-6.7-2.8c-0.8-0.7-1.3-1.5-1.8-2.4c-0.7,0-1.4,0-2.1-0.2
						c-1,0-1.9-0.3-2.7-0.7c-0.2,0-0.3-0.1-0.5-0.1c-1.7-0.1-3.3-0.1-5-0.1c-2.3,0-4.5-0.1-6.8-0.1c-0.6,0-1.2,0-1.8-0.1
						c-0.5,1.4-1.3,2.6-2.2,3.6c-1.7,1.7-4.3,2.8-6.7,2.8c-0.8,0-1.7-0.1-2.4-0.3v0.1v0.2v0.2v0.2v0.2v0.2v0.2v0.2v0.2v0.2v0.2v0.2
						v0.2v0.2c0,3.2,2.1,6.5,6.4,9c8.5,4.9,22.3,4.9,30.8,0c4.3-2.5,6.4-5.7,6.4-9c0-0.1,0-0.1,0-0.2c0-0.1,0-0.1,0-0.2
						c0-0.1,0-0.1,0-0.2c0-0.1,0-0.1,0-0.2c0-0.1,0-0.1,0-0.2c0-0.1,0-0.1,0-0.2c0-0.1,0-0.1,0-0.2c0-0.1,0-0.1,0-0.2
						c0-0.1,0-0.1,0-0.2c0-0.1,0-0.1,0-0.2c0-0.1,0-0.1,0-0.2c0-0.1,0-0.1,0-0.2c0-0.1,0-0.1,0-0.2c0-0.1,0-0.1,0-0.2
						c0-0.1,0-0.1,0-0.2c0-0.1,0-0.1,0-0.2c0-0.1,0-0.1,0-0.2c0-0.1,0-0.1,0-0.2v0C171,290.1,169.3,290.6,167.7,290.6"/>
					<path id="Fill-40" class="st13" d="M166,280.6c8.5,4.9,8.5,12.9,0,17.8c-8.5,4.9-22.3,4.9-30.8,0c-8.5-4.9-8.5-12.9,0-17.8
						C143.7,275.7,157.5,275.7,166,280.6"/>
				</g>
				<g id="Group-45" transform="translate(129.000000, 277.000000)">
					<g id="Clip-44">
					</g>
					<defs>
						<filter id="Adobe_OpacityMaskFilter_1_" filterUnits="userSpaceOnUse" x="0.4" y="7.3" width="21.2" height="22.6">
							<feColorMatrix  type="matrix" values="1 0 0 0 0  0 1 0 0 0  0 0 1 0 0  0 0 0 1 0"/>
						</filter>
					</defs>
					<mask maskUnits="userSpaceOnUse" x="0.4" y="7.3" width="21.2" height="22.6" id="mask-4_1_">
						<g class="st14">
							<path id="path-3_1_" class="st4" d="M6.4,4c-8.4,5-8.4,13.1,0,18.1l0,0c8.4,5,22.1,5,30.5,0l0,0c8.4-5,8.4-13.1,0-18.1l0,0
								c-4.2-2.5-9.7-3.7-15.2-3.7l0,0C16.1,0.2,10.6,1.5,6.4,4L6.4,4z"/>
						</g>
					</mask>
					<polygon id="Fill-43" class="st15" points="18.5,7.3 0.4,22.1 19.4,29.9 21.7,9.3 					"/>
				</g>
				<g id="Group-52" transform="translate(129.000000, 166.000000)">
					<path id="Fill-46" class="st16" d="M37.1,133.2c0,0-0.1,0.1-0.4,0.2c-0.3,0.2-0.7,0.4-1.2,0.7c-0.3,0.1-0.6,0.3-0.9,0.4
						c-0.3,0.1-0.7,0.3-1.1,0.5c-0.8,0.3-1.6,0.6-2.6,0.9c-1,0.3-2,0.5-3.2,0.7c-1.1,0.2-2.4,0.4-3.6,0.5c-1.3,0.1-2.6,0.1-3.9,0.1
						c-1.3,0-2.7-0.2-4-0.4c-1.3-0.2-2.7-0.5-4-0.8c-1.3-0.4-2.5-0.8-3.7-1.3c-0.6-0.3-1.1-0.5-1.7-0.8c-0.3-0.2-0.5-0.3-0.8-0.5
						c-0.3-0.2-0.5-0.3-0.7-0.5c-1-0.7-1.8-1.4-2.5-2.1c-0.7-0.7-1.3-1.5-1.7-2.2c-0.4-0.7-0.7-1.4-0.8-2c0-0.1-0.1-0.3-0.1-0.4
						c0-0.1-0.1-0.3-0.1-0.4c0-0.2-0.1-0.4-0.1-0.6c0-0.3,0-0.5,0-0.5l0.1,0c0,0,0,0.2,0.1,0.5c0,0.2,0.1,0.3,0.1,0.6
						c0,0.1,0.1,0.2,0.1,0.4c0,0.1,0.1,0.3,0.1,0.4c0.2,0.5,0.5,1.2,0.9,1.9c0.4,0.7,1,1.4,1.7,2.1c0.7,0.7,1.6,1.3,2.5,1.9
						c0.2,0.2,0.5,0.3,0.7,0.4c0.2,0.1,0.5,0.3,0.8,0.4c0.5,0.3,1.1,0.5,1.6,0.8c1.1,0.5,2.4,0.9,3.6,1.3c1.3,0.3,2.6,0.6,3.9,0.8
						c1.3,0.2,2.6,0.3,3.9,0.4c1.3,0.1,2.6,0.1,3.8,0c2.5-0.1,4.8-0.5,6.7-1c1-0.2,1.8-0.5,2.6-0.8c0.4-0.1,0.7-0.3,1.1-0.4
						c0.3-0.1,0.6-0.3,0.9-0.4c0.3-0.1,0.5-0.2,0.7-0.3c0.2-0.1,0.4-0.2,0.5-0.3C36.9,133.2,37.1,133.1,37.1,133.2L37.1,133.2z"/>
					<path id="Fill-48" class="st17" d="M24.5,116.2c1.9,1.1,1.9,2.9,0,4c-1.9,1.1-5,1.1-6.9,0c-1.9-1.1-1.9-2.9,0-4
						C19.5,115.1,22.6,115.1,24.5,116.2"/>
					<path id="Fill-50" class="st18" d="M23.9,1.6c-2.2,1.4-5,1.5-7.4,1c-0.1,0-0.3-0.1-0.4-0.1v115.9h9.8V0
						C25.3,0.6,24.6,1.2,23.9,1.6"/>
				</g>
				<g id="Group-59" transform="translate(144.000000, 118.000000)">
					<g id="Group-55">
						<g id="Clip-54">
						</g>
						<defs>
							<filter id="Adobe_OpacityMaskFilter_2_" filterUnits="userSpaceOnUse" x="2.3" y="50.6" width="3.5" height="129.6">
								<feColorMatrix  type="matrix" values="1 0 0 0 0  0 1 0 0 0  0 0 1 0 0  0 0 0 1 0"/>
							</filter>
						</defs>
						<mask maskUnits="userSpaceOnUse" x="2.3" y="50.6" width="3.5" height="129.6" id="mask-6_1_">
							<g class="st19">
								<path id="path-5_1_" class="st4" d="M0.7,0v165.9h0c0.1,0.7,0.5,1.3,1.4,1.8l0,0c1.9,1.1,4.9,1.1,6.7,0l0,0
									c0.8-0.5,1.3-1.1,1.4-1.8l0,0h0v-0.1c0-0.1,0-0.2,0-0.2l0,0V0"/>
							</g>
						</mask>
						<path id="Fill-53" class="st20" d="M2.3,50.7v129.5h3.5V50.6C4.7,50.8,3.5,50.9,2.3,50.7"/>
					</g>
					<g id="Group-58">
						<g id="Clip-57">
						</g>
						<defs>
							<filter id="Adobe_OpacityMaskFilter_3_" filterUnits="userSpaceOnUse" x="7.6" y="47" width="3.5" height="133.3">
								<feColorMatrix  type="matrix" values="1 0 0 0 0  0 1 0 0 0  0 0 1 0 0  0 0 0 1 0"/>
							</filter>
						</defs>
						<mask maskUnits="userSpaceOnUse" x="7.6" y="47" width="3.5" height="133.3" id="mask-8_1_">
							<g class="st21">
								<path id="path-7_1_" class="st4" d="M0.7,0v165.9h0c0.1,0.7,0.5,1.3,1.4,1.8l0,0c1.9,1.1,4.9,1.1,6.7,0l0,0
									c0.8-0.5,1.3-1.1,1.4-1.8l0,0h0v-0.1c0-0.1,0-0.2,0-0.2l0,0V0"/>
							</g>
						</mask>
						<path id="Fill-56" class="st22" d="M8.3,49.5c-0.2,0.2-0.5,0.3-0.8,0.4v130.3h3.5V47C10.3,48,9.3,48.9,8.3,49.5"/>
					</g>
				</g>
				<g id="Group-232" transform="translate(52.000000, 96.000000)">
					<path id="Fill-60" class="st12" d="M167,23.1c38.2,22.1,38.2,57.9,0,80c-38.2,22.1-100.1,22.1-138.2,0
						c-38.2-22.1-38.2-57.9,0-80C66.9,1.1,128.8,1.1,167,23.1"/>
					<path id="Fill-62" class="st23" d="M167,17.1c38.2,22.1,38.2,57.9,0,80c-38.2,22.1-100.1,22.1-138.2,0
						c-38.2-22.1-38.2-57.9,0-80C66.9-5,128.8-5,167,17.1"/>
					<polygon id="Fill-64" class="st24" points="180.4,60 150.7,43 166.5,25.5 					"/>
					<polygon id="Fill-66" class="st25" points="152.7,76 166.4,26.7 180.4,60 181.2,59.5 166.4,24.4 151.9,76.5 					"/>
					<polygon id="Fill-68" class="st26" points="122.9,58.8 136.7,9.5 150.7,42.7 151.4,42.3 136.7,7.2 122.2,59.2 					"/>
					<polygon id="Fill-70" class="st27" points="136.7,7.2 166.4,24.4 151.9,76.5 122.2,59.2 					"/>
					<path id="Fill-72" class="st4" d="M134.7,18.8l-0.2,0.8c-0.1,0.4,0.1,0.9,0.4,1.1l17.4,9.9c0.5,0.3,1.2,0,1.4-0.6l0.1-0.4
						c0.1-0.4-0.1-0.9-0.4-1.1l-17.3-10.3C135.6,17.9,134.9,18.2,134.7,18.8"/>
					<path id="Fill-74" class="st4" d="M136.3,25.1l-0.1,0.6c-0.1,0.3,0.1,0.6,0.3,0.8l12.7,7.2c0.4,0.2,0.9,0,1-0.4l0.1-0.3
						c0.1-0.3,0-0.6-0.3-0.8l-12.6-7.5C136.9,24.4,136.4,24.6,136.3,25.1"/>
					<path id="Fill-76" class="st4" d="M131,36.1l-0.1,0.6c-0.1,0.3,0.1,0.6,0.3,0.8l12.7,7.2c0.4,0.2,0.9,0,1-0.4L145,44
						c0.1-0.3,0-0.6-0.3-0.8L132,35.7C131.6,35.5,131.1,35.7,131,36.1"/>
					<g id="Group-80" transform="translate(179.239583, 21.480620)">
						<g id="Clip-79">
						</g>
						<defs>
							<filter id="Adobe_OpacityMaskFilter_4_" filterUnits="userSpaceOnUse" x="1" y="0.5" width="60.1" height="140.5">
								<feColorMatrix  type="matrix" values="1 0 0 0 0  0 1 0 0 0  0 0 1 0 0  0 0 0 1 0"/>
							</filter>
						</defs>
						<mask maskUnits="userSpaceOnUse" x="1" y="0.5" width="60.1" height="140.5" id="mask-10_1_">
							<g class="st28">
								<polygon id="path-9_1_" class="st4" points="1,0.5 61.1,0.5 61.1,141 1,141 								"/>
							</g>
						</mask>
						<path id="Fill-78" class="st29" d="M17.8,135.8L6.5,68.1c-1.1-10.4,1.1-22.9,6.1-34.2c4.9-11.3,12.1-20.3,19.7-24.7
							C37.6,6.1,42.7,5.6,47,7.4c0.9,0.6,1.7,1.4,2.5,2.3c4.9,5.6,7.2,15.5,6.1,27.2l-11.7,83.9L17.8,135.8z M1.3,68.8L1.3,68.8
							l13.1,70.7l0,0l0,0l0,0l0,0l0,0l0,0l0,0l0,0l0,0l0,0l0,0l0,0l0,0l0,0l0,0l0,0l0,0l0,0l0,0l0,0l0,0l0,0l0,0l0,0l0,0l0,0l0,0
							l0,0l0,0l0,0l0,0l0,0l0,0l0,0l0,0l0,0l0,0l0,0l0,0l0,0l0,0l0,0l0,0l0,0l0,0l0,0l0,0l0,0l0,0l0,0l0,0l0,0l0,0l0,0l0,0l0,0l0,0
							l0,0l0,0l0,0l0,0l0,0l0,0l0,0l0,0l0,0l0,0l0,0l0,0l0,0l0,0l0,0l0,0l0,0l0,0l0,0l0,0l0,0l0,0l0,0l0,0l0,0l0,0l0,0l0,0l0,0l0,0
							l0,0l0,0l0,0l0,0l0,0l0,0l0,0l0,0l0,0l0,0l0,0l0,0l0,0l0,0l0,0l0,0l0,0l0,0l0,0l0,0l0,0l0,0l0,0l0,0l0,0l0,0l0,0l0,0l0,0l0,0
							l0,0l0,0l0,0l0,0l0,0l0,0l0,0l0,0l0,0l0,0l0,0l0,0l0,0l0,0l0,0l0,0l0,0l0,0l0,0l0,0l0,0l0,0l0,0l0,0l0,0l0,0l0,0l0,0l0,0l0,0
							l0,0l0,0l0,0l0,0l0,0l0,0l0,0l0,0l0,0l0,0l0,0l0,0l0,0l0,0l0,0l0,0l0,0l0,0l0,0l0,0l0,0l0,0l0,0l0,0l0,0l0,0l0,0l0,0l0,0l0,0
							l0,0l0,0l0,0l0,0l0,0l0,0l0,0l0,0l0,0l0,0l0,0l0,0l0,0l0,0l0,0l0,0l0,0l0,0l0,0l0,0l0,0l0,0l0,0l0,0l0,0l30.9-17.9l13.1-85.9
							c1.2-12.9-1.2-23.9-6.7-30.1c-1.2-1.4-2.5-2.5-3.9-3.3c0,0,0,0,0,0c0,0,0,0,0,0c0,0,0,0,0,0c0,0,0,0,0,0c0,0,0,0,0,0
							c0,0,0,0,0,0c0,0,0,0,0,0c0,0,0,0,0,0c0,0,0,0,0,0s0,0,0,0c0,0,0,0,0,0c0,0,0,0,0,0c0,0,0,0,0,0s0,0,0,0c0,0,0,0,0,0
							c0,0,0,0,0,0c0,0,0,0,0,0s0,0,0,0c0,0,0,0,0,0c0,0,0,0,0,0c0,0,0,0,0,0c0,0,0,0,0,0c0,0,0,0,0,0c0,0,0,0,0,0s0,0,0,0
							c0,0,0,0,0,0c0,0,0,0,0,0c0,0,0,0,0,0s0,0,0,0c0,0,0,0,0,0c0,0,0,0,0,0c0,0,0,0,0,0c0,0,0,0,0,0c0,0,0,0,0,0c0,0,0,0,0,0
							c0,0,0,0,0,0c0,0,0,0,0,0c0,0,0,0,0,0c0,0,0,0,0,0l0,0c0,0,0,0,0,0c0,0,0,0,0,0s0,0,0,0c0,0,0,0,0,0c0,0,0,0,0,0c0,0,0,0,0,0
							c0,0,0,0,0,0c0,0,0,0,0,0c0,0,0,0,0,0s0,0,0,0c0,0,0,0,0,0c0,0,0,0,0,0c0,0,0,0,0,0c0,0,0,0,0,0c0,0,0,0,0,0c0,0,0,0,0,0
							c0,0,0,0,0,0c0,0,0,0,0,0c0,0,0,0,0,0c0,0,0,0,0,0c0,0,0,0,0,0c0,0,0,0,0,0c0,0,0,0,0,0c0,0,0,0,0,0c0,0,0,0,0,0c0,0,0,0,0,0
							c0,0,0,0,0,0c0,0,0,0,0,0c0,0,0,0,0,0c0,0,0,0,0,0c0,0,0,0,0,0c0,0,0,0,0,0c0,0,0,0,0,0c0,0,0,0,0,0s0,0,0,0c0,0,0,0,0,0
							c0,0,0,0,0,0c0,0,0,0,0,0c0,0,0,0,0,0c0,0,0,0,0,0c0,0,0,0,0,0c0,0,0,0,0,0s0,0,0,0c0,0,0,0,0,0l0,0c0,0,0,0,0,0c0,0,0,0,0,0
							c0,0,0,0,0,0l0,0c0,0,0,0,0,0c0,0,0,0,0,0s0,0,0,0c0,0,0,0,0,0c0,0,0,0,0,0c0,0,0,0,0,0c0,0,0,0,0,0c0,0,0,0,0,0c0,0,0,0,0,0
							c0,0,0,0,0,0s0,0,0,0c-5-3-11.3-2.6-17.9,1.2C21.4,8.5,13.4,18.5,8,31C2.5,43.5,0,57.3,1.3,68.8L1.3,68.8z"/>
					</g>
					<g id="Group-83" transform="translate(181.760417, 22.744186)">
						<g id="Clip-82">
						</g>
						<defs>
							<filter id="Adobe_OpacityMaskFilter_5_" filterUnits="userSpaceOnUse" x="1" y="0.7" width="57.6" height="139.1">
								<feColorMatrix  type="matrix" values="1 0 0 0 0  0 1 0 0 0  0 0 1 0 0  0 0 0 1 0"/>
							</filter>
						</defs>
						<mask maskUnits="userSpaceOnUse" x="1" y="0.7" width="57.6" height="139.1" id="mask-12_1_">
							<g class="st30">
								<polygon id="path-11_1_" class="st4" points="1,0.7 58.6,0.7 58.6,139.8 1,139.8 								"/>
							</g>
						</mask>
						<path id="Fill-81" class="st31" d="M55.5,37c1.1-11.7-1.1-21.6-6.1-27.2c-4.9-5.6-12.1-6.3-19.7-1.9
							C22.2,12.3,15,21.3,10.1,32.6C5.1,43.9,2.9,56.4,4,66.8l11.7,70.3l28-16.2L55.5,37z M1.3,69L1.3,69C0,57.5,2.5,43.7,8,31.2
							C13.4,18.6,21.4,8.7,29.8,3.8C38.1-1,46.1-0.2,51.6,5.9c5.5,6.2,7.9,17.2,6.7,30.1l-13.1,85.9l-30.9,17.9L1.3,69z"/>
					</g>
					<path id="Fill-84" class="st7" d="M205.9,38.1l0.9-0.5c3.7-2.1,7.1-2.3,9.8-0.8c0,0,0,0,0.1,0c0,0,0,0,0.1,0c0,0,0,0,0.1,0
						c0,0,0,0,0.1,0c0,0,0,0,0.1,0c0,0,0,0,0.1,0c0,0,0,0,0.1,0c0,0,0,0,0.1,0c0,0,0,0,0.1,0c0,0,0,0,0.1,0c0,0,0,0,0.1,0
						c0,0,0,0,0.1,0c0,0,0,0,0.1,0c0,0,0,0,0.1,0c0,0,0,0,0.1,0c0,0,0,0,0.1,0c0,0,0,0,0.1,0c0,0,0,0,0.1,0c0,0,0,0,0.1,0
						c0,0,0,0,0.1,0c0,0,0,0,0.1,0c0,0,0,0,0.1,0c0,0,0,0,0.1,0c0,0,0,0,0.1,0c0,0,0,0,0.1,0c0,0,0,0,0.1,0c0,0,0,0,0.1,0
						c0,0,0,0,0.1,0c0,0,0,0,0.1,0s0,0,0.1,0s0,0,0.1,0c0,0,0,0,0.1,0c0,0,0,0,0.1,0c0,0,0,0,0.1,0c0,0,0,0,0.1,0s0,0,0.1,0
						c0,0,0,0,0.1,0c0,0,0,0,0.1,0c0,0,0,0,0.1,0c0,0,0,0,0.1,0c0,0,0,0,0.1,0c0,0,0,0,0.1,0c0,0,0,0,0.1,0c0,0,0,0,0.1,0l0.1,0
						c0,0,0,0,0.1,0c0,0,0,0,0.1,0c0,0,0,0,0.1,0c0,0,0,0,0.1,0c0,0,0,0,0.1,0c0,0,0,0,0.1,0c0,0,0,0,0.1,0c0,0,0,0,0.1,0
						c0,0,0,0,0.1,0c0,0,0,0,0.1,0c0,0,0,0,0.1,0c0,0,0,0,0.1,0c0,0,0,0,0.1,0c0,0,0,0,0.1,0c0,0,0,0,0.1,0c0,0,0,0,0.1,0s0,0,0.1,0
						c0,0,0,0,0.1,0c0,0,0,0,0.1,0c0,0,0,0,0.1,0c0,0,0,0,0.1,0c0,0,0,0,0.1,0c0,0,0,0,0.1,0c0,0,0,0,0.1,0c0,0,0,0,0.1,0
						c0,0,0,0,0.1,0c0,0,0,0,0.1,0c0,0,0,0,0.1,0c0,0,0,0,0.1,0c0,0,0,0,0.1,0c0,0,0,0,0.1,0c0,0,0,0,0.1,0c0,0,0,0,0.1,0
						c0,0,0,0,0.1,0c0,0,0,0,0.1,0c0,0,0,0,0.1,0s0,0,0.1,0c0,0,0,0,0.1,0c0,0,0,0,0.1,0c0,0,0,0,0.1,0c0,0,0,0,0.1,0c0,0,0,0,0.1,0
						c0,0,0,0,0.1,0c0,0,0,0,0.1,0c0,0,0,0,0.1,0c0,0,0,0,0.1,0c0,0,0,0,0.1,0c0,0,0,0,0.1,0c0,0,0,0,0.1,0c0,0,0,0,0.1,0
						c0,0,0,0,0.1,0c0,0,0,0,0.1,0c0,0,0,0,0.1,0c0,0,0,0,0.1,0c0,0,0,0,0.1,0c4.5,2.4,7.1,9.3,6.2,18.7l-9.4,90.3l-15.1,8.8l0-0.1
						l-0.1,0l0-0.1l-0.1,0l0-0.1l-0.1,0l0-0.1l-0.1,0l0-0.1l-0.1,0l0-0.1l-0.1,0l0-0.1l-0.1,0l0-0.1l-0.1,0l0-0.1l-0.1,0l0-0.1
						l-0.1,0l0-0.1l-0.1,0l0-0.1l-0.1,0l0-0.1l-0.1,0l0-0.1l-0.1,0l0-0.1l-0.1,0l0-0.1l-0.1,0l0-0.1l-0.1,0l0-0.1l-0.1,0l0-0.1
						l-0.1,0l0-0.1l-0.1,0l0-0.1l-0.1,0l0-0.1l-0.1,0l0-0.1l-0.1,0l0-0.1l-0.1,0l0-0.1l-0.1,0l0-0.1l-0.1,0l0-0.1l-0.1,0l0-0.1
						l-0.1,0l0-0.1l-0.1,0l0-0.1l-0.1,0l0-0.1l-0.1,0l0-0.1l-0.1,0l0-0.1l-0.1,0l0-0.1l-0.1,0l0-0.1l-0.1,0l0-0.1l-0.1,0l0-0.1
						l-0.1,0l0-0.1l-0.1,0l0-0.1l-0.1,0l0-0.1l-0.1,0l0-0.1l-0.1,0l0-0.1l-0.1,0l0-0.1l-0.1,0l0-0.1l-0.1,0l0-0.1l-0.1,0l0-0.1
						l-0.1,0l0-0.1l-0.1,0l0-0.1l-0.1,0l0-0.1l-0.1,0l0-0.1l-0.1,0l0-0.1l-0.1,0l0-0.1l-0.1,0l0-0.1l-0.1,0l0-0.1l-0.1,0l0-0.1
						l-0.1,0l0-0.1l-0.1,0l0-0.1l-0.1,0l0-0.1l-0.1,0l0-0.1l-0.1,0l0-0.1l-0.1,0l0-0.1l-0.1,0l0-0.1l-0.1,0l0-0.1l-0.1,0l0-0.1
						l-0.1,0l0-0.1l-0.1,0l0-0.1l-0.1,0l0-0.1l-0.1,0l0-0.1l-0.1,0l0-0.1l-0.1,0l0-0.1l-0.1,0l0-0.1l-0.1,0l0-0.1l-0.1,0l0-0.1
						l-0.1,0l0-0.1l-0.1,0l0-0.1l-0.1,0l0-0.1l-0.1,0l0-0.1l-0.1,0l0-0.1l-0.1,0l0-0.1l-0.1,0l0-0.1l-0.1,0l0-0.1l-0.1,0l0-0.1
						l-0.1,0l0-0.1l-0.1,0l0-0.1l-0.1,0l0-0.1l-0.1,0l0-0.1l-0.1,0l0-0.1l-0.1,0l0-0.1l-0.1,0l0-0.1l-0.1,0l0-0.1l-0.1,0l0-0.1
						l-0.1,0l0-0.1l-0.1,0l0-0.1l-0.1,0l0-0.1l-0.1,0l0-0.1l-0.1,0l0-0.1l-0.1,0l0-0.1l-0.1,0l0-0.1l-0.1,0l0-0.1l-0.1,0l0-0.1
						l-0.1,0l0-0.1l-0.1,0L189,76.6C187.5,62.3,195.5,44.1,205.9,38.1"/>
					<path id="Fill-86" class="st8" d="M205.2,158.4l15.1-8.8l9.4-90.3c1.4-15.1-6.1-23.6-15.9-17.9l-0.9,0.5
						c-10.4,6-18.4,24.2-16.9,38.5L205.2,158.4z"/>
					<polygon id="Fill-88" class="st32" points="16.2,39.8 16.2,40.8 18.1,40.3 17.1,39.8 					"/>
					<polygon id="Fill-90" class="st32" points="115.8,29.5 115.7,30.5 86.4,44.2 					"/>
					<polygon id="Fill-92" class="st32" points="86.4,47.5 115.7,30.5 74.8,6.8 45.5,23.8 					"/>
					<polygon id="Fill-94" class="st32" points="86.5,47.5 57.1,64.4 16.2,40.8 45.6,23.8 					"/>
					<polygon id="Fill-96" class="st33" points="86.5,46.5 115.8,29.5 74.9,5.9 45.6,22.8 					"/>
					<polygon id="Fill-98" class="st34" points="84.6,45.3 112.5,29.2 74.7,7.2 46.7,23.4 					"/>
					<path id="Fill-100" class="st35" d="M59.7,18.7l5.2-3c0.2-0.1,0.2-0.3,0-0.4c-0.2-0.1-0.5-0.1-0.7,0l-5.2,3
						c-0.2,0.1-0.2,0.3,0,0.4C59.2,18.8,59.5,18.8,59.7,18.7"/>
					<path id="Fill-102" class="st35" d="M70.2,22.9l4.1-2.3c0.2-0.1,0.2-0.3,0-0.4c-0.2-0.1-0.5-0.1-0.7,0l-4.1,2.3
						c-0.2,0.1-0.2,0.3,0,0.4C69.7,23,70,23,70.2,22.9"/>
					<path id="Fill-104" class="st35" d="M81.2,26.9l2.6-1.5c0.2-0.1,0.2-0.3,0-0.4c-0.2-0.1-0.5-0.1-0.7,0l-2.6,1.5
						c-0.2,0.1-0.2,0.3,0,0.4C80.7,27,81,27,81.2,26.9"/>
					<path id="Fill-106" class="st35" d="M74.2,31l5.8-3.4c0.2-0.1,0.2-0.3,0-0.4c-0.2-0.1-0.5-0.1-0.7,0l-5.8,3.3
						c-0.2,0.1-0.2,0.3,0,0.4C73.7,31.1,74,31.1,74.2,31"/>
					<path id="Fill-108" class="st35" d="M80.8,29l4.5-2.6c0.2-0.1,0.2-0.3,0-0.4c-0.2-0.1-0.5-0.1-0.7,0l-4.5,2.6
						c-0.2,0.1-0.2,0.3,0,0.4C80.3,29.1,80.6,29.1,80.8,29"/>
					<path id="Fill-110" class="st35" d="M78,30.5l1.4-0.8c0.2-0.1,0.2-0.3,0-0.4c-0.2-0.1-0.5-0.1-0.7,0l-1.4,0.8
						c-0.2,0.1-0.2,0.3,0,0.4C77.5,30.6,77.8,30.6,78,30.5"/>
					<path id="Fill-112" class="st35" d="M73.4,33.2l3.2-1.8c0.2-0.1,0.2-0.3,0-0.4c-0.2-0.1-0.5-0.1-0.7,0l-3.2,1.8
						c-0.2,0.1-0.2,0.3,0,0.4C72.9,33.3,73.2,33.3,73.4,33.2"/>
					<path id="Fill-114" class="st35" d="M84.5,28.8l2.4-1.4c0.2-0.1,0.2-0.3,0-0.4c-0.2-0.1-0.5-0.1-0.7,0l-2.4,1.4
						c-0.2,0.1-0.2,0.3,0,0.4C84,28.9,84.3,28.9,84.5,28.8"/>
					<path id="Fill-116" class="st35" d="M80.3,31.2l2.9-1.7c0.2-0.1,0.2-0.3,0-0.4c-0.2-0.1-0.5-0.1-0.7,0l-2.9,1.7
						c-0.2,0.1-0.2,0.3,0,0.4C79.8,31.3,80.1,31.3,80.3,31.2"/>
					<path id="Fill-118" class="st35" d="M76,33.6l1.9-1.1c0.2-0.1,0.2-0.3,0-0.4c-0.2-0.1-0.5-0.1-0.7,0l-1.9,1.1
						c-0.2,0.1-0.2,0.3,0,0.4C75.5,33.7,75.8,33.7,76,33.6"/>
					<path id="Fill-120" class="st35" d="M87,29.2l1.4-0.8c0.2-0.1,0.2-0.3,0-0.4c-0.2-0.1-0.5-0.1-0.7,0l-1.4,0.8
						c-0.2,0.1-0.2,0.3,0,0.4C86.5,29.3,86.8,29.3,87,29.2"/>
					<path id="Fill-122" class="st35" d="M69,25.2l6.6-3.8c0.2-0.1,0.2-0.3,0-0.4c-0.2-0.1-0.5-0.1-0.7,0l-6.6,3.8
						c-0.2,0.1-0.2,0.3,0,0.4C68.6,25.3,68.9,25.3,69,25.2"/>
					<path id="Fill-124" class="st35" d="M73.6,26.1l5.1-2.9c0.2-0.1,0.2-0.3,0-0.4c-0.2-0.1-0.5-0.1-0.7,0l-5.1,2.9
						c-0.2,0.1-0.2,0.3,0,0.4S73.4,26.2,73.6,26.1"/>
					<path id="Fill-126" class="st35" d="M71.3,27.5l1-0.6c0.2-0.1,0.2-0.3,0-0.4c-0.2-0.1-0.5-0.1-0.7,0l-1,0.6
						c-0.2,0.1-0.2,0.3,0,0.4C70.9,27.6,71.2,27.6,71.3,27.5"/>
					<path id="Fill-128" class="st35" d="M68.1,29.3l1.9-1.1c0.2-0.1,0.2-0.3,0-0.4c-0.2-0.1-0.5-0.1-0.7,0l-1.9,1.1
						c-0.2,0.1-0.2,0.3,0,0.4C67.6,29.4,67.9,29.4,68.1,29.3"/>
					<path id="Fill-130" class="st35" d="M65.7,27.1l2.4-1.4c0.2-0.1,0.2-0.3,0-0.4c-0.2-0.1-0.5-0.1-0.7,0L65,26.7
						c-0.2,0.1-0.2,0.3,0,0.4S65.5,27.2,65.7,27.1"/>
					<path id="Fill-132" class="st35" d="M74.7,23.7l2.4-1.4c0.2-0.1,0.2-0.3,0-0.4c-0.2-0.1-0.5-0.1-0.7,0L74,23.3
						c-0.2,0.1-0.2,0.3,0,0.4C74.2,23.8,74.5,23.8,74.7,23.7"/>
					<path id="Fill-134" class="st35" d="M68.7,27.3l4.8-2.8c0.2-0.1,0.2-0.3,0-0.4c-0.2-0.1-0.5-0.1-0.7,0L68,26.9
						c-0.2,0.1-0.2,0.3,0,0.4C68.2,27.4,68.5,27.4,68.7,27.3"/>
					<path id="Fill-136" class="st35" d="M64.7,29.6l2.8-1.6c0.2-0.1,0.2-0.3,0-0.4c-0.2-0.1-0.5-0.1-0.7,0L64,29.2
						c-0.2,0.1-0.2,0.3,0,0.4C64.2,29.7,64.5,29.7,64.7,29.6"/>
					<path id="Fill-138" class="st35" d="M60.9,19.5l5.2-3c0.2-0.1,0.2-0.3,0-0.4c-0.2-0.1-0.5-0.1-0.7,0l-5.2,3
						c-0.2,0.1-0.2,0.3,0,0.4C60.4,19.6,60.7,19.6,60.9,19.5"/>
					<path id="Fill-140" class="st35" d="M64.9,19.1l2.9-1.7c0.2-0.1,0.2-0.3,0-0.4c-0.2-0.1-0.5-0.1-0.7,0l-2.9,1.7
						c-0.2,0.1-0.2,0.3,0,0.4C64.4,19.2,64.7,19.2,64.9,19.1"/>
					<path id="Fill-142" class="st35" d="M57.1,23.6l6.2-3.6c0.2-0.1,0.2-0.3,0-0.4c-0.2-0.1-0.5-0.1-0.7,0l-6.2,3.6
						c-0.2,0.1-0.2,0.3,0,0.4C56.6,23.7,56.9,23.7,57.1,23.6"/>
					<path id="Fill-144" class="st35" d="M56.8,21.9l2.9-1.7c0.2-0.1,0.2-0.3,0-0.4c-0.2-0.1-0.5-0.1-0.7,0l-2.9,1.7
						c-0.2,0.1-0.2,0.3,0,0.4C56.3,22,56.6,22,56.8,21.9"/>
					<path id="Fill-146" class="st35" d="M88.3,34.3l5.2-3c0.2-0.1,0.2-0.3,0-0.4c-0.2-0.1-0.5-0.1-0.7,0l-5.2,3
						c-0.2,0.1-0.2,0.3,0,0.4C87.8,34.4,88.1,34.4,88.3,34.3"/>
					<path id="Fill-148" class="st35" d="M89.5,35.1l5.2-3c0.2-0.1,0.2-0.3,0-0.4c-0.2-0.1-0.5-0.1-0.7,0l-5.2,3
						c-0.2,0.1-0.2,0.3,0,0.4C89,35.2,89.3,35.2,89.5,35.1"/>
					<path id="Fill-150" class="st35" d="M93.4,34.7l2.9-1.7c0.2-0.1,0.2-0.3,0-0.4c-0.2-0.1-0.5-0.1-0.7,0l-2.9,1.7
						c-0.2,0.1-0.2,0.3,0,0.4C93,34.8,93.3,34.8,93.4,34.7"/>
					<path id="Fill-152" class="st35" d="M85.7,39.2l6.2-3.6c0.2-0.1,0.2-0.3,0-0.4c-0.2-0.1-0.5-0.1-0.7,0L85,38.8
						c-0.2,0.1-0.2,0.3,0,0.4C85.2,39.3,85.5,39.3,85.7,39.2"/>
					<path id="Fill-154" class="st35" d="M85.4,37.5l2.9-1.7c0.2-0.1,0.2-0.3,0-0.4c-0.2-0.1-0.5-0.1-0.7,0l-2.9,1.7
						c-0.2,0.1-0.2,0.3,0,0.4C84.9,37.6,85.2,37.6,85.4,37.5"/>
					<path id="Fill-156" class="st35" d="M54.6,23.2l1-0.6c0.2-0.1,0.2-0.3,0-0.4c-0.2-0.1-0.5-0.1-0.7,0l-1,0.6
						c-0.2,0.1-0.2,0.3,0,0.4C54.1,23.3,54.4,23.3,54.6,23.2"/>
					<polygon id="Fill-158" class="st36" points="73.8,18.5 82.3,13.5 74.4,9 65.9,13.9 					"/>
					<polygon id="Fill-160" class="st37" points="82.8,23.7 91.3,18.8 83.5,14.2 75,19.1 					"/>
					<polygon id="Fill-162" class="st38" points="91.8,28.9 100.3,24 92.5,19.4 84,24.3 					"/>
					<polygon id="Fill-164" class="st39" points="100.8,34.1 109.3,29.2 101.5,24.6 93,29.6 					"/>
					<polygon id="Fill-166" class="st33" points="86.5,46.5 57.1,63.5 16.2,39.8 45.6,22.8 					"/>
					<polygon id="Fill-168" class="st34" points="84.4,45.4 56.5,61.6 18.6,39.7 46.5,23.5 					"/>
					<polygon id="Fill-170" class="st38" points="53.7,30.1 45.2,35 37.4,30.4 45.9,25.5 					"/>
					<polygon id="Fill-172" class="st40" points="62.7,35.3 54.2,40.2 46.4,35.7 54.9,30.7 					"/>
					<polygon id="Fill-174" class="st41" points="71.7,40.5 63.3,45.4 55.4,40.9 63.9,36 					"/>
					<polygon id="Fill-176" class="st42" points="80.8,45.7 72.3,50.6 64.4,46.1 72.9,41.2 					"/>
					<path id="Fill-178" class="st35" d="M33.8,34.1l3.1-1.8c0.2-0.1,0.2-0.3,0-0.4c-0.2-0.1-0.5-0.1-0.7,0l-3.1,1.8
						c-0.2,0.1-0.2,0.3,0,0.4C33.3,34.2,33.6,34.2,33.8,34.1"/>
					<path id="Fill-180" class="st35" d="M44,38.8l2.6-1.5c0.2-0.1,0.2-0.3,0-0.4c-0.2-0.1-0.5-0.1-0.7,0l-2.6,1.5
						c-0.2,0.1-0.2,0.3,0,0.4C43.5,38.9,43.8,38.9,44,38.8"/>
					<path id="Fill-182" class="st35" d="M36.9,42.9l5.8-3.4c0.2-0.1,0.2-0.3,0-0.4c-0.2-0.1-0.5-0.1-0.7,0l-5.8,3.3
						c-0.2,0.1-0.2,0.3,0,0.4C36.4,43,36.8,43,36.9,42.9"/>
					<path id="Fill-184" class="st35" d="M43.5,40.9l4.5-2.6c0.2-0.1,0.2-0.3,0-0.4c-0.2-0.1-0.5-0.1-0.7,0l-4.5,2.6
						c-0.2,0.1-0.2,0.3,0,0.4C43,41,43.3,41,43.5,40.9"/>
					<path id="Fill-186" class="st35" d="M40.8,42.4l1.4-0.8c0.2-0.1,0.2-0.3,0-0.4c-0.2-0.1-0.5-0.1-0.7,0L40.1,42
						c-0.2,0.1-0.2,0.3,0,0.4S40.6,42.5,40.8,42.4"/>
					<path id="Fill-188" class="st35" d="M36.2,45.1l3.2-1.8c0.2-0.1,0.2-0.3,0-0.4c-0.2-0.1-0.5-0.1-0.7,0l-3.2,1.8
						c-0.2,0.1-0.2,0.3,0,0.4C35.7,45.2,36,45.2,36.2,45.1"/>
					<path id="Fill-190" class="st35" d="M53,44l2.4-1.4c0.2-0.1,0.2-0.3,0-0.4c-0.2-0.1-0.5-0.1-0.7,0l-2.4,1.4
						c-0.2,0.1-0.2,0.3,0,0.4C52.5,44.1,52.8,44.1,53,44"/>
					<path id="Fill-192" class="st35" d="M48.8,46.4l2.9-1.7c0.2-0.1,0.2-0.3,0-0.4c-0.2-0.1-0.5-0.1-0.7,0L48.1,46
						c-0.2,0.1-0.2,0.3,0,0.4C48.3,46.5,48.6,46.5,48.8,46.4"/>
					<path id="Fill-194" class="st35" d="M61.8,48.7l2.4-1.4c0.2-0.1,0.2-0.3,0-0.4c-0.2-0.1-0.5-0.1-0.7,0l-2.4,1.4
						c-0.2,0.1-0.2,0.3,0,0.4S61.6,48.8,61.8,48.7"/>
					<path id="Fill-196" class="st35" d="M57.6,51.1l2.9-1.7c0.2-0.1,0.2-0.3,0-0.4c-0.2-0.1-0.5-0.1-0.7,0l-2.9,1.7
						c-0.2,0.1-0.2,0.3,0,0.4C57.1,51.2,57.4,51.2,57.6,51.1"/>
					<path id="Fill-198" class="st35" d="M44.5,48.9l1.9-1.1c0.2-0.1,0.2-0.3,0-0.4c-0.2-0.1-0.5-0.1-0.7,0l-1.9,1.1
						c-0.2,0.1-0.2,0.3,0,0.4C44,49,44.3,49,44.5,48.9"/>
					<path id="Fill-200" class="st35" d="M33.2,36.1l5-2.9c0.2-0.1,0.2-0.3,0-0.4c-0.2-0.1-0.5-0.1-0.7,0l-5,2.9
						c-0.2,0.1-0.2,0.3,0,0.4C32.7,36.2,33,36.2,33.2,36.1"/>
					<path id="Fill-202" class="st35" d="M37.5,37.3l3.9-2.2c0.2-0.1,0.2-0.3,0-0.4c-0.2-0.1-0.5-0.1-0.7,0l-3.9,2.2
						c-0.2,0.1-0.2,0.3,0,0.4C37,37.4,37.3,37.4,37.5,37.3"/>
					<path id="Fill-204" class="st35" d="M35.7,38.3l0.6-0.4c0.2-0.1,0.2-0.3,0-0.4c-0.2-0.1-0.5-0.1-0.7,0L35,37.9
						c-0.2,0.1-0.2,0.3,0,0.4C35.2,38.4,35.5,38.4,35.7,38.3"/>
					<path id="Fill-206" class="st35" d="M33.2,39.7l1.3-0.8c0.2-0.1,0.2-0.3,0-0.4c-0.2-0.1-0.5-0.1-0.7,0l-1.3,0.8
						c-0.2,0.1-0.2,0.3,0,0.4C32.7,39.9,33,39.9,33.2,39.7"/>
					<path id="Fill-208" class="st35" d="M30.6,37.7l1.8-1c0.2-0.1,0.2-0.3,0-0.4s-0.5-0.1-0.7,0l-1.8,1c-0.2,0.1-0.2,0.3,0,0.4
						C30.1,37.8,30.4,37.8,30.6,37.7"/>
					<path id="Fill-210" class="st35" d="M38,35.2l1.8-1c0.2-0.1,0.2-0.3,0-0.4c-0.2-0.1-0.5-0.1-0.7,0l-1.8,1
						c-0.2,0.1-0.2,0.3,0,0.4C37.6,35.3,37.9,35.3,38,35.2"/>
					<path id="Fill-212" class="st35" d="M33.3,38l3.7-2.1c0.2-0.1,0.2-0.3,0-0.4c-0.2-0.1-0.5-0.1-0.7,0l-3.7,2.1
						c-0.2,0.1-0.2,0.3,0,0.4C32.8,38.1,33.1,38.1,33.3,38"/>
					<path id="Fill-214" class="st35" d="M44.2,42.3l5.2-3c0.2-0.1,0.2-0.3,0-0.4c-0.2-0.1-0.5-0.1-0.7,0l-5.2,3
						c-0.2,0.1-0.2,0.3,0,0.4S44,42.4,44.2,42.3"/>
					<path id="Fill-216" class="st35" d="M48.2,41.9l2.9-1.7c0.2-0.1,0.2-0.3,0-0.4s-0.5-0.1-0.7,0l-2.9,1.7c-0.2,0.1-0.2,0.3,0,0.4
						C47.7,42,48,42,48.2,41.9"/>
					<path id="Fill-218" class="st35" d="M40.4,46.4l6.2-3.6c0.2-0.1,0.2-0.3,0-0.4c-0.2-0.1-0.5-0.1-0.7,0L39.7,46
						c-0.2,0.1-0.2,0.3,0,0.4C39.9,46.5,40.2,46.5,40.4,46.4"/>
					<path id="Fill-220" class="st35" d="M40.1,44.7L43,43c0.2-0.1,0.2-0.3,0-0.4c-0.2-0.1-0.5-0.1-0.7,0l-2.9,1.7
						c-0.2,0.1-0.2,0.3,0,0.4C39.6,44.8,39.9,44.8,40.1,44.7"/>
					<path id="Fill-222" class="st35" d="M52.1,46.9l5.2-3c0.2-0.1,0.2-0.3,0-0.4c-0.2-0.1-0.5-0.1-0.7,0l-5.2,3
						c-0.2,0.1-0.2,0.3,0,0.4S51.9,47,52.1,46.9"/>
					<path id="Fill-224" class="st35" d="M60.6,51.3l5.2-3c0.2-0.1,0.2-0.3,0-0.4c-0.2-0.1-0.5-0.1-0.7,0l-5.2,3
						c-0.2,0.1-0.2,0.3,0,0.4C60.1,51.4,60.4,51.4,60.6,51.3"/>
					<path id="Fill-226" class="st35" d="M56.6,53.7l2.7-1.6c0.2-0.1,0.2-0.3,0-0.4c-0.2-0.1-0.5-0.1-0.7,0l-2.7,1.6
						c-0.2,0.1-0.2,0.3,0,0.4C56.1,53.8,56.4,53.8,56.6,53.7"/>
					<path id="Fill-228" class="st35" d="M53.3,47.7l5.2-3c0.2-0.1,0.2-0.3,0-0.4c-0.2-0.1-0.5-0.1-0.7,0l-5.2,3
						c-0.2,0.1-0.2,0.3,0,0.4C52.8,47.8,53.1,47.8,53.3,47.7"/>
					<path id="Fill-230" class="st35" d="M49.2,50.1l2.9-1.7c0.2-0.1,0.2-0.3,0-0.4s-0.5-0.1-0.7,0l-2.9,1.7c-0.2,0.1-0.2,0.3,0,0.4
						C48.7,50.2,49,50.2,49.2,50.1"/>
				</g>
			</g>
		</g>
	</g>
</g>
</svg>
