<?xml version="1.0" encoding="UTF-8"?>
<svg width="172px" height="173px" viewBox="0 0 172 173" version="1.1" xmlns="http://www.w3.org/2000/svg" xmlns:xlink="http://www.w3.org/1999/xlink">
    <!-- Generator: Sketch 63.1 (92452) - https://sketch.com -->
    <title>Group 8</title>
    <desc>Created with Sketch.</desc>
    <defs>
        <polygon id="path-1" points="2.51183166e-05 0.0367272962 171.96471 0.0367272962 171.96471 173 2.51183166e-05 173"></polygon>
    </defs>
    <g id="Page-1" stroke="none" stroke-width="1" fill="none" fill-rule="evenodd">
        <g id="tus-restaurantes-copy-7" transform="translate(-617.000000, -387.000000)">
            <g id="Group-8" transform="translate(617.000000, 387.000000)">
                <path d="M86,36 C57.8317516,36 35,58.8333151 35,86.999793 C35,115.166685 57.8317516,138 86,138 C114.165557,138 137,115.166685 137,86.999793 C137,58.8333151 114.165557,36 86,36" id="Fill-1" fill="#D5341F"></path>
                <path d="M74.7674516,63 L81.7765386,73.743736 C83.6049155,76.5330073 85.1286659,79.1156039 86.7538213,81.9048753 L87.0586536,81.9048753 C88.683809,78.9091385 90.3093758,76.3263326 91.9345312,73.6403986 L98.8420073,63 L108.492152,63 L91.7315153,87.1736151 L109,113 L98.8420073,113 L91.6296989,101.739577 C89.6999168,98.8471779 88.07435,96.0579066 86.3475838,93.0619606 L86.144568,93.0619606 C84.5192069,96.0579066 82.7924407,98.7438406 80.963858,101.739577 L73.853366,113 L64,113 L81.4719119,87.4834179 L64.8126805,63 L74.7674516,63 Z" id="Fill-3" fill="#FFFFFF"></path>
                <g id="Group-7">
                    <mask id="mask-2" fill="white">
                        <use xlink:href="#path-1"></use>
                    </mask>
                    <g id="Clip-6"></g>
                    <path d="M28.5545986,28.7550062 C54.2857161,2.87470408 94.3478983,-2.61711247 126.005591,15.419071 C126.930968,15.9301885 127.923577,16.5219978 129.040958,17.2281034 C133.829117,20.2605818 138.279874,23.8021034 142.328268,27.7269631 L134.071236,27.7269631 L134.071236,32.5568576 L150.572718,32.5568576 L150.572718,15.960059 L145.770949,15.960059 L145.770949,24.356782 C141.457131,20.1589391 136.708982,16.3770014 131.596829,13.1393707 C130.397778,12.3816141 129.325769,11.7425098 128.343884,11.2008995 C94.8434811,-7.88386307 52.4116585,-2.06824197 25.1595578,25.3406417 C-2.0853247,52.7439247 -7.87289784,95.4280446 11.0860806,129.13919 L15.2656393,126.761995 C-2.63473477,94.93124 2.82987434,54.63033 28.5545986,28.7550062 M160.878282,43.8945806 L156.698723,46.2734343 C174.599304,78.1017005 169.134694,118.404063 143.410795,144.279179 C117.685246,170.151184 77.6172892,175.650675 45.9824882,157.652245 C44.9595626,157.062717 43.9372556,156.446223 42.9396969,155.822054 C38.1581381,152.79248 33.7117113,149.255107 29.663318,145.332529 L37.8935386,145.332529 L37.8935386,140.502635 L21.3916441,140.502635 L21.3916441,157.10047 L26.1936201,157.10047 L26.1936201,148.676988 C30.5148624,152.882921 35.2689918,156.670874 40.3924882,159.916388 C41.4502676,160.578102 42.5226897,161.225919 43.6072796,161.84988 C56.7914715,169.350903 71.3524882,173.000083 85.8297736,173.000083 C108.15657,173.000083 130.277543,164.316894 146.80563,147.694166 C174.050512,120.289223 179.837467,77.6057257 160.878282,43.8945806" id="Fill-5" fill="#D5341F" mask="url(#mask-2)"></path>
                </g>
            </g>
        </g>
    </g>
</svg>