<?xml version="1.0" encoding="UTF-8"?>
<svg width="102px" height="102px" viewBox="0 0 102 102" version="1.1" xmlns="http://www.w3.org/2000/svg" xmlns:xlink="http://www.w3.org/1999/xlink">
    <!-- Generator: Sketch 63.1 (92452) - https://sketch.com -->
    <title>Group 8</title>
    <desc>Created with Sketch.</desc>
    <g id="Page-1" stroke="none" stroke-width="1" fill="none" fill-rule="evenodd">
        <g id="tus-restaurantes-copy-7" transform="translate(-971.000000, -432.000000)">
            <g id="Group-8" transform="translate(971.000000, 432.000000)">
                <path d="M51,0 C22.8317516,0 0,22.8333151 0,50.999793 C0,79.1666849 22.8317516,102 51,102 C79.1655572,102 102,79.1666849 102,50.999793 C102,22.8333151 79.1655572,0 51,0" id="Fill-1" fill="#D5341F"></path>
                <path d="M39.7674516,27 L46.7765386,37.743736 C48.6049155,40.5330073 50.1286659,43.1156039 51.7538213,45.9048753 L52.0586536,45.9048753 C53.683809,42.9091385 55.3093758,40.3263326 56.9345312,37.6403986 L63.8420073,27 L73.4921518,27 L56.7315153,51.1736151 L74,77 L63.8420073,77 L56.6296989,65.7395774 C54.6999168,62.8471779 53.07435,60.0579066 51.3475838,57.0619606 L51.144568,57.0619606 C49.5192069,60.0579066 47.7924407,62.7438406 45.963858,65.7395774 L38.853366,77 L29,77 L46.4719119,51.4834179 L29.8126805,27 L39.7674516,27 Z" id="Fill-3" fill="#FFFFFF"></path>
            </g>
        </g>
    </g>
</svg>