<?xml version="1.0" encoding="utf-8"?>
<!-- Generator: Adobe Illustrator 24.0.0, SVG Export Plug-In . SVG Version: 6.00 Build 0)  -->
<svg version="1.1" id="Layer_1" xmlns="http://www.w3.org/2000/svg" xmlns:xlink="http://www.w3.org/1999/xlink" x="0px" y="0px"
	 viewBox="0 0 1920 1080" style="enable-background:new 0 0 1920 1080;" xml:space="preserve">
<style type="text/css">
	.st0{fill:none;stroke:#D33527;stroke-miterlimit:10;}
	.st1{fill:#DBDBDB;}
	.st2{fill:url(#SVGID_1_);}
	.st3{fill:url(#SVGID_2_);}
	.st4{fill:#A8A8A8;}
	.st5{fill:#F4F4F4;}
	.st6{fill:#FFFFFF;}
	.st7{fill:url(#SVGID_3_);}
	.st8{fill:url(#SVGID_4_);}
	.st9{fill:url(#SVGID_5_);}
	.st10{fill:url(#SVGID_6_);}
	.st11{fill:url(#SVGID_7_);}
	.st12{fill:#EAEAEA;}
	.st13{fill:#F9F7F7;}
	.st14{fill:#606060;}
	.st15{fill:#D33527;}
</style>
<line class="st0" x1="90.17" y1="192.71" x2="804.29" y2="192.71"/>
<line class="st0" x1="1041.17" y1="192.71" x2="1755.29" y2="192.71"/>
<g>
	<rect x="320.25" y="339.35" class="st1" width="400.61" height="400.45"/>
	<linearGradient id="SVGID_1_" gradientUnits="userSpaceOnUse" x1="454.6705" y1="674.8053" x2="593.9937" y2="674.8053">
		<stop  offset="0" style="stop-color:#A1A1A1"/>
		<stop  offset="0.0578" style="stop-color:#B2B2B2"/>
		<stop  offset="0.1872" style="stop-color:#D4D4D4"/>
		<stop  offset="0.3108" style="stop-color:#ECECEC"/>
		<stop  offset="0.4253" style="stop-color:#FAFAFA"/>
		<stop  offset="0.5215" style="stop-color:#FFFFFF"/>
		<stop  offset="0.6449" style="stop-color:#FCFCFB"/>
		<stop  offset="0.7549" style="stop-color:#F1F1F1"/>
		<stop  offset="0.8598" style="stop-color:#DFDFDE"/>
		<stop  offset="0.9609" style="stop-color:#C6C6C5"/>
		<stop  offset="1" style="stop-color:#BABAB9"/>
	</linearGradient>
	<path class="st2" d="M593.99,700.99c-46.14-16.36-92.81-15.8-139.32,0v-43.68c46.83-11.98,93.24-11.2,139.32,0V700.99z"/>
	<linearGradient id="SVGID_2_" gradientUnits="userSpaceOnUse" x1="525.2562" y1="748.3464" x2="525.2562" y2="603.6562">
		<stop  offset="0" style="stop-color:#FFFFFF"/>
		<stop  offset="0.243" style="stop-color:#FBFBFB"/>
		<stop  offset="0.4799" style="stop-color:#F0F0EF"/>
		<stop  offset="0.7145" style="stop-color:#DCDCDC"/>
		<stop  offset="0.9463" style="stop-color:#C1C1C0"/>
		<stop  offset="1" style="stop-color:#BABAB9"/>
	</linearGradient>
	<path class="st3" d="M573.4,620.12c-3.48-0.02,2.79,44.25,6.02,54.87c7.35,24.21,97.26,44.71,97.93,60.78c0.17,4.19,0,4.19,0,4.19
		H373.09l28.33-27.24l21.56-5.59l11.46-5.42c2.21-1.04,4.3-2.31,6.24-3.79l23.56-17.88c0,0,7.39-9.24,6.77-23.21
		c-0.62-13.97-0.62-36.71-0.62-36.71H573.4z"/>
	<path class="st4" d="M451,551.91c0,0-16.12-30.05-18.96-34.72c-2.83-4.67,2.13-20.69,0-24.03c-2.13-3.34-2.83-52.06,14.17-66.74
		c17.01-14.68,26.93-18.69,26.93-18.69c4.21-3.63,32.23-13.87,44.01-12.01c35.42,5.58,29.53,3.75,36.07,3.34
		c15.04,2.42,26.52,6.47,24.75,16.33c5.66-2.91,10.17-2.95,14.94,0.36c-1.32,2.79-1.48,4.62,0,6.01c0,0,18.43,0.67,18.43,46.72
		c0,44.34-3.44,60.2-8.5,62.74c-5.06,2.54-14.4,11.55-14.4,11.55s2.35-80.27-20.33-79.63c-22.68,0.64-39.3,12.06-94.25,0
		C461.8,460.49,444.62,535.89,451,551.91z"/>
	<path class="st5" d="M449.14,580.13c0,0,9.77,47.88,34.32,62.74c38.34,23.21,64.66,3.52,64.66,3.52s30.59-27.41,35.6-43.57
		c4.48-14.44,6.06-22.69,6.06-22.69s4.04,0,6.73-3.34s3.36-24.69,5.38-30.7c2.02-6.01,3.36-16.02-3.36-15.35
		c-6.73,0.67-10.09,12.01-10.09,12.01s6.11-20.19,2.07-32.2c-4.04-12.01-1.4-37.21-17.55-47.22c-16.15-10.01-36.71-6.67-46.62-3.34
		c-9.91,3.34-30.76,1.33-43.55-3.34c-12.78-4.67-27.07,16.57-29.09,26.58c-2.02,10.01-5.23,51.5-4.56,59.51
		c0.67,8.01,0.67,8.01,0.67,8.01s-4.71-21.36-8.75-22.69c-4.04-1.33-11.44-1.33-10.09,14.68c1.35,16.02,2.98,3.62,8.75,33.37
		C443.08,593.48,449.14,580.13,449.14,580.13z"/>
	<path class="st6" d="M453.59,657.63c0,0-5.87,34.51-9.62,35.48c-3.76,0.97,41.69,23.35,58.39,25.5c0,0,10.04-17.37,21.28-22.63
		C523.64,695.99,455.91,673.01,453.59,657.63z"/>
	<path class="st6" d="M593.12,657.31c0,0,6.17,34.44,9.89,35.38c3.72,0.93-40.97,23.8-57.47,26.13c0,0-10.11-17.26-21.28-22.4
		C524.26,696.42,590.99,672.71,593.12,657.31z"/>
</g>
<g>
	<g>
		<rect x="761.24" y="339.73" class="st1" width="400.02" height="399.69"/>
		<ellipse class="st4" cx="965.54" cy="523.24" rx="107.17" ry="101.67"/>
		<linearGradient id="SVGID_3_" gradientUnits="userSpaceOnUse" x1="959.0025" y1="747.3376" x2="959.0025" y2="579.6693">
			<stop  offset="4.975120e-03" style="stop-color:#F2F2F2"/>
			<stop  offset="0.2723" style="stop-color:#EEEEEE"/>
			<stop  offset="0.5331" style="stop-color:#E3E3E2"/>
			<stop  offset="0.7903" style="stop-color:#CFCFCF"/>
			<stop  offset="1" style="stop-color:#BABAB9"/>
		</linearGradient>
		<path class="st7" d="M1007.93,598.75c0,0-18.45,65.36,5.92,87.42c5.07,4.59,22.75,10.59,22.75,10.59l1.33,5.02
			c0,0-0.15-7.46,4.55-2.58c4.7,4.88,18.81,7.32,18.81,7.32l26.45,14.64c0,0,16.46,9.15,16.46,12.81s0,3.66,0,3.66H813.81
			l27.04-23.78l20.57-4.88c0,0,7.05-8.54,10.58-7.32c3.53,1.22,3.53,1.22,3.53,1.22l6.33-5.97c0,0,26.98-12.41,33.29-22.46
			c11.89-18.94,5.93-67.13,5.93-67.13L1007.93,598.75z"/>
		<path class="st5" d="M902.21,586.34c0,0-9.22,15.82,29.98,52.19c3.51,3.25,11.39,13.17,15.17,14.61
			c13.76,5.28,21.25,1.72,28.95-0.56c6.16-1.83,14.47-11.49,14.47-11.49s32.62-25.05,33.21-37.82c0.59-12.77,4.61-16.93,4.61-16.93
			s0.89-1.69,4.17-0.12c5.73,2.74,9.09-8.27,10.15-20.39c0.81-9.27-4.33-21.13-10.2-20.57s-3.5,1.5-3.5,1.5
			c-0.07-0.66,0.47-11.66-1.73-20.24c-3.34-13.02,1.89-44.76-12.21-53.09c-14.11-8.33-4.52-11.9-24.93-17.87
			c-8.72-2.55-41.46,4.39-52.63,0.5c-11.17-3.89-29.45,37.05-33.21,44.69c-4.62,9.37-2.86,47.84-2.27,54.5s0.59,6.66,0.59,6.66
			s-4.11-17.77-7.64-18.88c-3.53-1.11-9.99-1.11-8.82,12.22c1.18,13.33-2.26,4.62,7.64,27.76
			C899.78,596.56,902.21,586.34,902.21,586.34z"/>
	</g>
	<g>
		<path class="st4" d="M913.25,673.67c-5.97-5.94-11.39-11.8-16.33-17.56C906.19,667.33,913.25,673.67,913.25,673.67z"/>
		<path class="st4" d="M910.28,660.93c2.47,1.68,4.18,2.35,4.18,2.35C913.01,662.55,911.62,661.77,910.28,660.93z"/>
		<path class="st4" d="M1086.76,523.17l-0.09,0.16c-0.23-7.31-1.42-15.14-3.81-23.52c-31.8-111.5-74.21-107.51-80.4-108.32
			c-6.19-0.81-22.17,9.95-22.17,9.95s-53.28-38.25-105.44,44.8c-16.96,27-25.98,49.81-29.79,69.05c-1.46,3.56-3,7.44-4.61,11.68
			c-3.81,10.01-1.69,14.99,2.63,17.25c0.38,5.08,1.16,9.81,2.25,14.22c0.02,2.51,0.13,5.1,0.35,7.77
			c-2.64,5.63-4.82,12.93-0.34,17.21c-1,10.73,3.44,17.57,10.93,20.62c6.54,13.33,16.61,27.25,31.67,41
			c2.79,3.64,5.78,7.33,8.97,11.05c-2.45-2.97-5.06-6.29-7.74-9.93c7.64,6.84,16.52,13.64,26.84,20.29
			c-0.62-0.41-15.65-10.31-31.36-27.41c-2.6-3.89-5.91-11.18-6.87-23.8c4.3,12.82,13.88,34.12,32.47,45.68
			c-4.24-2.88-10.71-8.73-14.62-19.27c2.06,0.53,4.44,0.7,7.2,0.43c0.95-0.09,9.2-3.6,19.6-11.99c0,0-17.38,11.76-28.13,7.43
			c-1.84-6.72-2.64-15.04-1.49-25.3c0.64-0.34,1.24-0.7,1.8-1.06c20.58,2.65,33.69-18.56,58.22-96.51
			c25.17-79.97,39.89-56.08,39.89-56.08c8.93,17.69,19,34.86,33.72,47.22c0,0-12.23-12.44-21.11-26.56
			c11.59,14.21,16.61,5.49,36.11,48.17c25.29,55.35-21.34,82.79-21.34,82.79s8.54-3.04,19.51-9.73c-1.26,5.34-3.66,11.79-6.45,16.5
			c-3.61-2.07-6.48-4.73-7.29-5.72c0.71,1.01,3.06,4.15,6.66,6.74c-0.29,0.46-0.59,0.9-0.89,1.32c-5.2,7.19-11.2-2-11.2-2
			c1.6,4.4,5.6,5.6,5.6,5.6c2.4,1.67,5.16-0.24,7.93-3.96c2.46,1.51,5.23,2.56,8.12,2.76c-0.32,0.86-0.66,1.68-1.02,2.44
			c0.44-0.72,0.89-1.52,1.34-2.42c12.28,0.52,15.61-22.45,16.5-34.47c0.86-1.23,1.68-2.43,2.49-3.62
			c6.24-6.15,12.09-13.46,16.58-22.03c-3,8.92-6.16,15.85-6.16,15.85c4.49-8.97,6.35-14.5,10.21-24.95
			c-3.15,10.38-7.19,19.24-7.19,19.24C1090.06,541.38,1086.76,523.17,1086.76,523.17z M842.93,541.67
			c-4.5-1.56-2.44-11.61,1.48-22.76C843.02,527.15,842.6,534.73,842.93,541.67z M872.24,609.96c-2.01-0.62-3.87-1.42-5.53-2.32
			c-0.29-0.65-0.56-1.31-0.84-1.97c1.69-0.04,3.45-0.24,5.28-0.59C871.46,606.61,871.82,608.25,872.24,609.96z M845.91,579.22
			c-0.69-2.08-0.4-4.86,0.35-7.71C847.09,577.61,847,573.11,845.91,579.22z M848.16,585.26c2.27,0.98-0.34-1.36,4.82,11.41
			c0.13,0.67,0.3,1.33,0.52,1.99C849.18,596.29,848,590.91,848.16,585.26z M853.53,588.05c-0.18-0.56-0.36-1.13-0.54-1.7
			c0.37,0.03,0.75,0.04,1.14,0.05C853.91,586.95,853.7,587.5,853.53,588.05z M852.01,582.94c-0.83-3.08-1.53-6.23-2.07-9.44
			c0.54-2.14-0.57-1.18,4.9,7.89c0.18,0.66,0.38,1.33,0.57,1.99C854.06,583.35,852.91,583.2,852.01,582.94z M858.86,600.86
			c-0.15-0.25-0.29-0.49-0.41-0.73c-0.14-0.13-0.26-0.26-0.39-0.39c-0.92-2.03-1.78-4.1-2.59-6.2c-0.02-1.87,0.48-3.83,1.31-5.77
			c0.54,1.66,1.13,3.35,1.75,5.06c0.2,1.11,0.58,2.11,1.13,3c0.74,1.9,1.51,3.82,2.35,5.76
			C860.86,601.42,859.8,601.17,858.86,600.86z M861.12,590.48c1.74,2.23,3.49,4.27,5.19,6.15
			C862.44,596.29,861.11,593.78,861.12,590.48z M869.85,600.39c0.6,0.61,0.46,0.36,0.6,1.14c-2.17,0.33-4.26,0.42-6.17,0.3
			c-0.37-0.94-0.73-1.89-1.09-2.84C864.97,599.88,867.21,600.36,869.85,600.39z M863.96,605.94c-0.57-0.4-0.5-0.3-0.13-0.29
			C863.87,605.75,863.92,605.85,863.96,605.94z M863.31,610.07c1.08,0.63,2.25,1.2,3.49,1.73c3.41,6.71,7.46,13.67,12.25,20.83
			C873.47,625.95,868.02,618.39,863.31,610.07z M883.64,637.92c-3.44-3.81-11.37-18.39-14.64-25.27c1.33,0.46,2.75,0.86,4.23,1.2
			C875.47,622.08,878.81,631.21,883.64,637.92z M1049.11,594.11c0.97-0.72,1.95-1.46,2.93-2.23c0.2,1.13,0.59,0.22-3.36,6.53
			C1048.84,597.03,1048.99,595.6,1049.11,594.11z M1034.78,617.83c3.64-5.35,7.24-13.58,9.98-20.66c0.95-0.64,1.91-1.3,2.88-1.99
			c-0.2,1.69-0.48,3.84-0.85,6.24c-1.73,2.75-1.93,2.96-0.05,0.32c-0.85,5.58-2.14,12.42-3.93,17.92
			C1040.16,619.93,1037.35,619.09,1034.78,617.83z M1051.66,610.92c-1.89,5.67-4.9,8.09-8.22,8.65c2.02-4.61,4.01-11.21,5.15-20.45
			c1.31-1.86,2.55-3.68,3.74-5.43C1053.17,599.24,1053.42,605.66,1051.66,610.92z M1058.99,586.48c0.05-0.71-0.11-0.4,0.76-1.23
			C1059.49,585.67,1059.23,586.08,1058.99,586.48z"/>
		<path class="st4" d="M1025.89,611.26c-0.15-0.21-0.23-0.33-0.23-0.33C1025.68,610.99,1025.76,611.1,1025.89,611.26z"/>
		<path class="st4" d="M1036.86,629.31c1.6-0.64,3-2.53,4.23-5.16C1038.76,627.99,1036.86,629.31,1036.86,629.31z"/>
	</g>
</g>
<g>
	<rect x="1198.61" y="340.22" class="st1" width="396.49" height="396.71"/>
	<g>
		<g>
			<linearGradient id="SVGID_4_" gradientUnits="userSpaceOnUse" x1="1321.9141" y1="669.5511" x2="1466.0892" y2="669.5511">
				<stop  offset="0" style="stop-color:#A1A1A1"/>
				<stop  offset="0.0578" style="stop-color:#B2B2B2"/>
				<stop  offset="0.1872" style="stop-color:#D4D4D4"/>
				<stop  offset="0.3108" style="stop-color:#ECECEC"/>
				<stop  offset="0.4253" style="stop-color:#FAFAFA"/>
				<stop  offset="0.5215" style="stop-color:#FFFFFF"/>
				<stop  offset="0.6449" style="stop-color:#FCFCFB"/>
				<stop  offset="0.7549" style="stop-color:#F1F1F1"/>
				<stop  offset="0.8598" style="stop-color:#DFDFDE"/>
				<stop  offset="0.9609" style="stop-color:#C6C6C5"/>
				<stop  offset="1" style="stop-color:#BABAB9"/>
			</linearGradient>
			<path class="st8" d="M1466.09,696.63c-47.75-16.92-96.04-16.34-144.18,0v-45.17c48.46-12.39,96.49-11.58,144.18,0V696.63z"/>
			<linearGradient id="SVGID_5_" gradientUnits="userSpaceOnUse" x1="1396.8572" y1="745.6003" x2="1396.8572" y2="595.9754">
				<stop  offset="4.975120e-03" style="stop-color:#F2F2F2"/>
				<stop  offset="0.315" style="stop-color:#EFEFEF"/>
				<stop  offset="0.5527" style="stop-color:#E5E5E5"/>
				<stop  offset="0.7663" style="stop-color:#D5D5D5"/>
				<stop  offset="0.9648" style="stop-color:#BFBFBE"/>
				<stop  offset="1" style="stop-color:#BABAB9"/>
			</linearGradient>
			<path class="st9" d="M1445.81,613c-3.6-0.02,2.89,45.76,6.22,56.75c4.45,14.65,32.2,26.01,60.72,34.65
				c13.08,3.97,37.27,21.42,40.62,28.2c1.92,3.89,1.81,4.33,1.81,4.33h-316.65l19.94-19.16c6.15-5.91,13.71-10.13,21.96-12.27
				l9.72-2.52l11.86-5.6c2.28-1.08,4.45-2.39,6.46-3.92l24.38-18.49c0,0,7.65-9.55,7.01-24c-0.64-14.45-0.64-37.96-0.64-37.96
				H1445.81z"/>
			<polygon class="st4" points="1375.84,736.53 1412.52,736.53 1401.81,723.05 1386.95,723.05 			"/>
			<path class="st4" d="M1390.71,691.11l-20.22,20.23c0,0,4.03,16.77,13.08,15.07c0.86-0.16-0.07,0.78,4.05,2.62
				c4.36,1.95,9.84-0.06,13.97-0.64c5.24-0.73,9.85-3.83,12.51-8.4l4.95-8.46l-19.23-19.64L1390.71,691.11z"/>
			
				<radialGradient id="SVGID_6_" cx="2300.1968" cy="1370.4475" r="77.5016" gradientTransform="matrix(0.4897 0 0 0.49 235.4721 20.3999)" gradientUnits="userSpaceOnUse">
				<stop  offset="0" style="stop-color:#8A8A8A"/>
				<stop  offset="0.0928" style="stop-color:#A0A0A0"/>
				<stop  offset="0.2404" style="stop-color:#BEBEBE"/>
				<stop  offset="0.3971" style="stop-color:#D5D5D5"/>
				<stop  offset="0.5649" style="stop-color:#E5E5E5"/>
				<stop  offset="0.7517" style="stop-color:#EFEFEF"/>
				<stop  offset="0.995" style="stop-color:#F2F2F2"/>
			</radialGradient>
			<path class="st10" d="M1312.41,690.91c0,0,33.3,27.37,56.7,30.15c1.88,0.22,6.74,0.4,7.53-0.79l18.33-28.36l-68.28-22.41
				L1312.41,690.91z"/>
			
				<radialGradient id="SVGID_7_" cx="2425.8723" cy="1365.1559" r="80.7411" gradientTransform="matrix(0.4897 0 0 0.49 235.4721 20.3999)" gradientUnits="userSpaceOnUse">
				<stop  offset="0" style="stop-color:#8A8A8A"/>
				<stop  offset="0.0928" style="stop-color:#A0A0A0"/>
				<stop  offset="0.2404" style="stop-color:#BEBEBE"/>
				<stop  offset="0.3971" style="stop-color:#D5D5D5"/>
				<stop  offset="0.5649" style="stop-color:#E5E5E5"/>
				<stop  offset="0.7517" style="stop-color:#EFEFEF"/>
				<stop  offset="0.995" style="stop-color:#F2F2F2"/>
			</radialGradient>
			<path class="st11" d="M1477.8,691.31c0,0-33.3,27.37-56.7,30.15c-1.88,0.22-6.74,0.4-7.53-0.79l-18.33-28.36l68.28-22.41
				L1477.8,691.31z"/>
			<path class="st12" d="M1319.48,570.92c0,0,10.11,49.51,35.51,64.88c39.67,24,66.91,3.64,66.91,3.64s31.65-28.34,36.84-45.05
				c4.64-14.93,6.27-23.47,6.27-23.47s4.18,0,6.96-3.45c2.79-3.45,3.48-25.54,5.57-31.75c2.09-6.21,3.48-16.56-3.48-15.87
				c-6.96,0.69-10.44,12.42-10.44,12.42s13.15-45.14,8.97-57.56c-4.18-12.42-8.27-14.22-24.99-24.57s-25.03-18.55-35.28-15.1
				c-10.25,3.45-58.14,5.62-71.37,0.79c-13.23-4.83-25.67,35.67-27.75,46.02c-2.09,10.35,5.58,42.14,6.28,50.42
				c0.7,8.28,0.7,8.28,0.7,8.28s-4.87-22.09-9.05-23.47c-4.18-1.38-11.84-1.38-10.44,15.18c1.39,16.56,3.08,3.74,9.05,34.51
				C1313.21,584.72,1319.48,570.92,1319.48,570.92z"/>
			<path class="st13" d="M1321.83,651.8c0,0-6.07,35.68-9.96,36.69c-3.89,1.01,43.14,24.14,60.43,26.37c0,0,10.39-17.96,22.02-23.4
				C1394.32,691.46,1324.23,667.69,1321.83,651.8z"/>
			<path class="st13" d="M1466.22,651.46c0,0,6.38,35.62,10.24,36.58c3.85,0.97-42.4,24.61-59.47,27.02c0,0-10.46-17.85-22.03-23.16
				C1394.96,691.91,1464.02,667.38,1466.22,651.46z"/>
			<path class="st4" d="M1319.93,529.76c0,0-5.79-18.2-4.5-27.3c1.29-9.1-5.15-46.15,16.73-52.65c21.88-6.5,39.89,0.65,45.68-0.65
				c5.79-1.3,28.45-11.84,36.67-9.75c9.31,2.36,41.18,27.95,48.9,27.95c0,0,3.28,19.17,5.21,22.42c1.93,3.25-1.99,29.58-1.99,33.48
				s0,5.85,1.29,9.75c0,0,1.93-7.15,2.57-11.7c0.64-4.55,8.36-16.25,8.36-16.25s6.43-39,5.15-41.6c-1.29-2.6,6.43-5.85-5.15-27.3
				c-11.58-21.45-63.06-52.65-84.29-55.25c-21.23-2.6-50.83,0-63.06,33.8c0,0-32.17,7.15-36.67,40.95
				c-4.5,33.8,20.59,57.85,20.59,68.25s3.22,16.25,3.22,16.25L1319.93,529.76z"/>
		</g>
		<g>
			<path class="st4" d="M1465.81,530.91c0.58,1.59-5.35-0.96-5.35-0.96s-7.22,21.26-11.09,22.31c-3.88,1.06-41.78,1.32-44.38-1.94
				c-1.9-2.39-4.67-11.26-6.02-15.85c-5.73-3.47-10.9-1.52-14.54,1.15c-1.44,4.78-3.93,12.49-5.68,14.7
				c-2.6,3.26-40.51,3-44.38,1.94c-3.88-1.06-11.09-22.31-11.09-22.31s-5.93,2.55-5.35,0.96c0.96-2.63-1.4-7.63-3.27-10.81
				c3.2,2.9,7.73,2.31,7.73,2.31s1.82-3.5,7.74-3.69c15.2-0.48,42.29-2.57,57.63,4.02c4.9,0.69,5.73,0.49,8.24,0
				c15.34-6.6,42.43-4.51,57.63-4.02c5.92,0.19,7.74,3.69,7.74,3.69s4.53,0.59,7.73-2.31
				C1467.22,523.28,1464.86,528.28,1465.81,530.91z"/>
			<path class="st12" d="M1377.83,523.5c0,0-18.63-5.16-45.2-0.79c-12.53,2.06,2.38,25.79,2.78,26.18s21.81,3.57,40.05-0.4
				C1381.21,547.24,1383.38,523.1,1377.83,523.5z"/>
			<path class="st12" d="M1406.18,523.5c0,0,18.63-5.16,45.2-0.79c12.53,2.06-2.38,25.79-2.78,26.18s-21.81,3.57-40.05-0.4
				C1402.8,547.24,1400.63,523.1,1406.18,523.5z"/>
		</g>
	</g>
	<path class="st4" d="M1468.49,517.79c-0.5,0.95-1.11,1.71-1.78,2.32C1468.1,517.75,1469.21,516.4,1468.49,517.79z"/>
	<path class="st4" d="M1312.27,520.11c-0.67-0.61-1.28-1.37-1.78-2.32C1309.76,516.4,1310.88,517.75,1312.27,520.11z"/>
</g>
<g>
	<path class="st14" d="M432.55,755.39c6,0,8.34,3.78,8.34,9.45v4.22c0,6.17-2.83,9.22-9,9.22h-4.83v16h-2.56v-38.9H432.55z
		 M431.88,775.95c4.5,0,6.45-2,6.45-6.72v-4.56c0-4.22-1.45-6.95-5.78-6.95h-5.5v18.23H431.88z"/>
	<path class="st14" d="M452.94,755.39c5.95,0,8.33,3.28,8.33,8.78v3.39c0,4.56-1.78,7.17-5.61,8.06c4,0.89,5.61,3.72,5.61,7.95v6.06
		c0,1.61,0.11,3.39,0.95,4.67h-2.67c-0.67-1.17-0.83-2.56-0.83-4.67v-6.11c0-5.17-2.83-6.61-7.28-6.61h-4.06v17.39h-2.56v-38.9
		H452.94z M451.5,774.56c4.56,0,7.22-1.28,7.22-6.5v-3.67c0-4.17-1.61-6.67-5.83-6.67h-5.5v16.84H451.5z"/>
	<path class="st14" d="M466.11,764.89c0-5.67,2.61-9.84,8.5-9.84c6,0,8.61,4.17,8.61,9.84v19.89c0,5.67-2.61,9.84-8.61,9.84
		c-5.89,0-8.5-4.17-8.5-9.84V764.89z M468.67,784.95c0,4.22,1.67,7.33,5.95,7.33c4.33,0,6.06-3.11,6.06-7.33v-20.23
		c0-4.22-1.72-7.34-6.06-7.34c-4.28,0-5.95,3.11-5.95,7.34V784.95z"/>
	<path class="st14" d="M495.51,755.39c6,0,8.34,3.78,8.34,9.45v4.22c0,6.17-2.83,9.22-9,9.22h-4.83v16h-2.56v-38.9H495.51z
		 M494.84,775.95c4.5,0,6.45-2,6.45-6.72v-4.56c0-4.22-1.45-6.95-5.78-6.95h-5.5v18.23H494.84z"/>
	<path class="st14" d="M510.24,755.39v38.9h-2.56v-38.9H510.24z"/>
	<path class="st14" d="M527.85,773.39v2.33h-10.61v16.23h12.78v2.33h-15.34v-38.9h15.34v2.33h-12.78v15.67H527.85z"/>
	<path class="st14" d="M540.74,794.29v-36.57h-7.89v-2.33h18.39v2.33h-7.95v36.57H540.74z"/>
	<path class="st14" d="M556.03,785.67l-1.95,8.61h-2.33l8.5-38.96h3.72l8.67,38.96h-2.56l-1.94-8.61H556.03z M556.42,783.45h11.34
		l-5.72-25.17L556.42,783.45z"/>
	<path class="st14" d="M584.65,755.39c5.95,0,8.33,3.28,8.33,8.78v3.39c0,4.56-1.78,7.17-5.61,8.06c4,0.89,5.61,3.72,5.61,7.95v6.06
		c0,1.61,0.11,3.39,0.95,4.67h-2.67c-0.67-1.17-0.83-2.56-0.83-4.67v-6.11c0-5.17-2.83-6.61-7.28-6.61h-4.06v17.39h-2.56v-38.9
		H584.65z M583.2,774.56c4.56,0,7.22-1.28,7.22-6.5v-3.67c0-4.17-1.61-6.67-5.83-6.67h-5.5v16.84H583.2z"/>
	<path class="st14" d="M600.54,755.39v38.9h-2.56v-38.9H600.54z"/>
	<path class="st14" d="M604.82,764.89c0-5.67,2.61-9.84,8.5-9.84c6,0,8.61,4.17,8.61,9.84v19.89c0,5.67-2.61,9.84-8.61,9.84
		c-5.89,0-8.5-4.17-8.5-9.84V764.89z M607.37,784.95c0,4.22,1.67,7.33,5.95,7.33c4.33,0,6.06-3.11,6.06-7.33v-20.23
		c0-4.22-1.72-7.34-6.06-7.34c-4.28,0-5.95,3.11-5.95,7.34V784.95z"/>
</g>
<g>
	<path class="st14" d="M855.26,756.98c5.6,0,7.85,3.09,7.85,8.27v3.19c0,4.29-1.67,6.75-5.28,7.59c3.77,0.84,5.28,3.5,5.28,7.48v5.7
		c0,1.52,0.1,3.19,0.89,4.4h-2.51c-0.63-1.1-0.78-2.41-0.78-4.4v-5.75c0-4.87-2.67-6.23-6.85-6.23h-3.82v16.38h-2.41v-36.63H855.26z
		 M853.9,775.04c4.29,0,6.8-1.2,6.8-6.12v-3.45c0-3.92-1.52-6.28-5.49-6.28h-5.18v15.85H853.9z"/>
	<path class="st14" d="M880.22,773.94v2.2h-9.99v15.28h12.03v2.2h-14.44v-36.63h14.44v2.2h-12.03v14.75H880.22z"/>
	<path class="st14" d="M901.61,765.83v0.79h-2.3v-0.94c0-3.87-1.46-6.8-5.44-6.8s-5.44,2.88-5.44,6.75
		c0,8.89,13.24,9.05,13.24,19.15c0,5.29-2.3,9.16-7.9,9.16s-7.9-3.87-7.9-9.16v-1.88h2.3v2.04c0,3.92,1.52,6.75,5.55,6.75
		c4.03,0,5.55-2.83,5.55-6.75c0-8.79-13.24-8.95-13.24-19.15c0-5.49,2.41-9.05,7.8-9.1C899.36,756.67,901.61,760.54,901.61,765.83z"
		/>
	<path class="st14" d="M911.87,793.61v-34.43h-7.48v-2.2h17.32v2.2h-7.43v34.43H911.87z"/>
	<path class="st14" d="M926.36,785.5l-1.83,8.11h-2.2l8.01-36.68h3.51l8.16,36.68h-2.41l-1.83-8.11H926.36z M926.72,783.41h10.67
		l-5.39-23.7L926.72,783.41z"/>
	<path class="st14" d="M947.96,784.77c0,3.92,1.46,6.96,5.49,6.96c4.03,0,5.49-3.03,5.49-6.96v-27.78h2.25v27.68
		c0,5.23-2.2,9.26-7.8,9.26s-7.85-4.03-7.85-9.26v-27.68h2.41V784.77z"/>
	<path class="st14" d="M972.97,756.98c5.6,0,7.85,3.09,7.85,8.27v3.19c0,4.29-1.67,6.75-5.28,7.59c3.77,0.84,5.28,3.5,5.28,7.48v5.7
		c0,1.52,0.1,3.19,0.89,4.4h-2.51c-0.63-1.1-0.78-2.41-0.78-4.4v-5.75c0-4.87-2.67-6.23-6.85-6.23h-3.82v16.38h-2.41v-36.63H972.97z
		 M971.61,775.04c4.29,0,6.8-1.2,6.8-6.12v-3.45c0-3.92-1.52-6.28-5.49-6.28h-5.18v15.85H971.61z"/>
	<path class="st14" d="M989.03,785.5l-1.83,8.11H985l8.01-36.68h3.51l8.16,36.68h-2.41l-1.83-8.11H989.03z M989.4,783.41h10.67
		l-5.39-23.7L989.4,783.41z"/>
	<path class="st14" d="M1010.53,793.61h-2.2v-36.63h3.14l10.99,30.92v-30.92h2.2v36.63h-2.67l-11.46-32.65V793.61z"/>
	<path class="st14" d="M1035.12,793.61v-34.43h-7.48v-2.2h17.32v2.2h-7.43v34.43H1035.12z"/>
	<path class="st14" d="M1060.49,773.94v2.2h-9.99v15.28h12.03v2.2h-14.44v-36.63h14.44v2.2h-12.03v14.75H1060.49z"/>
	<path class="st14" d="M1081.89,765.83v0.79h-2.3v-0.94c0-3.87-1.46-6.8-5.44-6.8s-5.44,2.88-5.44,6.75
		c0,8.89,13.24,9.05,13.24,19.15c0,5.29-2.3,9.16-7.9,9.16s-7.9-3.87-7.9-9.16v-1.88h2.3v2.04c0,3.92,1.52,6.75,5.55,6.75
		c4.03,0,5.55-2.83,5.55-6.75c0-8.79-13.24-8.95-13.24-19.15c0-5.49,2.41-9.05,7.8-9.1
		C1079.64,756.67,1081.89,760.54,1081.89,765.83z"/>
</g>
<g>
	<path class="st14" d="M1325.34,765.93v3.04h-2.3v-3.19c0-3.92-1.52-6.91-5.55-6.91c-4.03,0-5.55,2.98-5.55,6.91v19.05
		c0,3.92,1.52,6.85,5.55,6.85c4.03,0,5.55-2.93,5.55-6.85v-4.34h2.3v4.19c0,5.29-2.3,9.26-7.9,9.26s-7.9-3.98-7.9-9.26v-18.73
		c0-5.29,2.3-9.26,7.9-9.26S1325.34,760.65,1325.34,765.93z"/>
	<path class="st14" d="M1329.11,765.93c0-5.34,2.46-9.26,8.01-9.26c5.65,0,8.11,3.92,8.11,9.26v18.73c0,5.34-2.46,9.26-8.11,9.26
		c-5.55,0-8.01-3.92-8.01-9.26V765.93z M1331.51,784.82c0,3.98,1.57,6.91,5.6,6.91c4.08,0,5.7-2.93,5.7-6.91v-19.05
		c0-3.97-1.62-6.91-5.7-6.91c-4.03,0-5.6,2.93-5.6,6.91V784.82z"/>
	<path class="st14" d="M1361.49,793.56h-2.41l-7.74-32.39v32.44h-2.15v-36.62h3.45l7.69,32.39l7.64-32.39h3.45v36.62h-2.3v-32.54
		L1361.49,793.56z"/>
	<path class="st14" d="M1388.01,773.94v2.2h-9.99v15.28h12.03v2.2h-14.44v-36.62h14.44v2.2h-12.03v14.76H1388.01z"/>
	<path class="st14" d="M1396.17,793.61h-2.2v-36.62h3.14l10.99,30.92v-30.92h2.2v36.62h-2.67l-11.46-32.65V793.61z"/>
	<path class="st14" d="M1429.87,765.83v0.79h-2.3v-0.94c0-3.87-1.46-6.8-5.44-6.8s-5.44,2.88-5.44,6.75
		c0,8.89,13.24,9.05,13.24,19.15c0,5.29-2.3,9.16-7.9,9.16s-7.9-3.87-7.9-9.16v-1.88h2.3v2.04c0,3.92,1.52,6.75,5.55,6.75
		c4.03,0,5.55-2.83,5.55-6.75c0-8.79-13.24-8.95-13.24-19.15c0-5.49,2.41-9.05,7.8-9.1
		C1427.62,756.67,1429.87,760.54,1429.87,765.83z"/>
	<path class="st14" d="M1437.29,785.5l-1.83,8.11h-2.2l8.01-36.68h3.51l8.16,36.68h-2.41l-1.83-8.11H1437.29z M1437.66,783.41h10.67
		l-5.39-23.7L1437.66,783.41z"/>
	<path class="st14" d="M1456.6,793.61v-36.62h2.41v34.43h11.51v2.2H1456.6z"/>
</g>
<g>
	<g>
		<path class="st15" d="M852.57,210.42c-2.37,0-4.38-0.82-6.02-2.47c-1.65-1.65-2.47-3.65-2.47-5.99v-27.53h5.26v27.47
			c0,0.85,0.3,1.58,0.91,2.17c0.61,0.6,1.33,0.9,2.19,0.9c0.85,0,1.58-0.3,2.17-0.9c0.6-0.6,0.89-1.32,0.89-2.17v-27.47h5.6v27.53
			c0,2.39-0.83,4.39-2.5,6.02C856.93,209.61,854.92,210.42,852.57,210.42z"/>
		<path class="st15" d="M883.28,201.16c0.04,2.48-0.61,4.6-1.93,6.36c-0.87,1.19-2.1,2.04-3.69,2.53c-0.85,0.26-1.85,0.4-2.98,0.4
			c-2.1,0-3.84-0.52-5.23-1.56c-1.16-0.85-2.07-2.01-2.74-3.48s-1.07-3.15-1.18-5.04l5.11-0.37c0.23,2.08,0.78,3.58,1.65,4.51
			c0.64,0.7,1.38,1.04,2.22,1c1.17-0.04,2.11-0.62,2.81-1.74c0.36-0.55,0.54-1.34,0.54-2.36c0-1.48-0.67-2.95-2.02-4.41
			c-1.06-1-2.65-2.51-4.77-4.52c-1.78-1.72-3.04-3.27-3.78-4.63c-0.8-1.54-1.19-3.2-1.19-5c0-3.24,1.09-5.7,3.27-7.36
			c1.34-1,3.01-1.51,5-1.51c1.91,0,3.55,0.43,4.92,1.28c1.06,0.66,1.92,1.59,2.57,2.78c0.65,1.19,1.05,2.57,1.18,4.12l-5.14,0.94
			c-0.15-1.46-0.57-2.59-1.25-3.41c-0.49-0.59-1.2-0.88-2.13-0.88c-0.99,0-1.73,0.44-2.25,1.31c-0.42,0.7-0.62,1.57-0.62,2.61
			c0,1.63,0.7,3.29,2.1,4.97c0.53,0.64,1.33,1.4,2.39,2.27c1.25,1.04,2.07,1.77,2.47,2.19c1.33,1.33,2.35,2.63,3.07,3.92
			c0.34,0.61,0.62,1.17,0.82,1.68C883,199.02,883.27,200.16,883.28,201.16z"/>
		<path class="st15" d="M896.21,210.42c-2.37,0-4.38-0.82-6.02-2.47c-1.65-1.65-2.47-3.65-2.47-5.99v-27.53h5.26v27.47
			c0,0.85,0.3,1.58,0.91,2.17c0.61,0.6,1.33,0.9,2.19,0.9c0.85,0,1.58-0.3,2.17-0.9c0.6-0.6,0.89-1.32,0.89-2.17v-27.47h5.6v27.53
			c0,2.39-0.83,4.39-2.5,6.02C900.57,209.61,898.56,210.42,896.21,210.42z"/>
		<path class="st15" d="M915.32,201.84l-1.3,8.18h-5.59l6.05-35.6h7.39l5.97,35.6h-5.65l-1.26-8.18H915.32z M918.14,182.58
			l-1.99,14.03h3.98L918.14,182.58z"/>
		<path class="st15" d="M940.81,174.43c2.99,0,5.19,0.82,6.59,2.47c1.23,1.44,1.85,3.45,1.85,6.02v5.17c0,2.52-0.96,4.65-2.87,6.39
			l3.98,15.54h-5.81l-3.25-13.41c-0.15,0-0.31,0-0.48,0h-3.1v13.41h-5.37v-35.6H940.81z M944.02,183.01c0-2.06-1.02-3.1-3.07-3.1
			h-3.24v11.39h3.24c0.85,0,1.58-0.3,2.17-0.91c0.6-0.61,0.89-1.33,0.89-2.19V183.01z"/>
		<path class="st15" d="M960.33,210.03h-5.37v-35.6h5.37V210.03z"/>
		<path class="st15" d="M973.57,173.98c2.37,0,4.38,0.83,6.04,2.5c1.66,1.67,2.49,3.67,2.49,6.02v19.43c0,2.37-0.83,4.38-2.5,6.04
			s-3.67,2.49-6.02,2.49c-2.37,0-4.38-0.83-6.02-2.5c-1.65-1.67-2.47-3.67-2.47-6.02V182.5c0-2.37,0.83-4.38,2.5-6.04
			S971.24,173.98,973.57,173.98z M976.49,182.38c0-0.85-0.3-1.58-0.89-2.17c-0.6-0.6-1.32-0.89-2.17-0.89
			c-0.85,0-1.58,0.3-2.19,0.89c-0.61,0.6-0.91,1.32-0.91,2.17v19.49c0,0.85,0.3,1.58,0.91,2.17c0.61,0.6,1.33,0.9,2.19,0.9
			c0.85,0,1.58-0.3,2.17-0.9c0.6-0.6,0.89-1.32,0.89-2.17V182.38z"/>
		<path class="st15" d="M1004.25,201.16c0.04,2.48-0.61,4.6-1.93,6.36c-0.87,1.19-2.1,2.04-3.69,2.53c-0.85,0.26-1.85,0.4-2.98,0.4
			c-2.1,0-3.85-0.52-5.23-1.56c-1.15-0.85-2.07-2.01-2.74-3.48s-1.07-3.15-1.18-5.04l5.11-0.37c0.23,2.08,0.78,3.58,1.65,4.51
			c0.64,0.7,1.38,1.04,2.22,1c1.17-0.04,2.11-0.62,2.81-1.74c0.36-0.55,0.54-1.34,0.54-2.36c0-1.48-0.67-2.95-2.02-4.41
			c-1.06-1-2.65-2.51-4.77-4.52c-1.78-1.72-3.04-3.27-3.78-4.63c-0.79-1.54-1.19-3.2-1.19-5c0-3.24,1.09-5.7,3.27-7.36
			c1.34-1,3.01-1.51,5-1.51c1.91,0,3.55,0.43,4.91,1.28c1.06,0.66,1.92,1.59,2.57,2.78c0.65,1.19,1.04,2.57,1.18,4.12l-5.14,0.94
			c-0.15-1.46-0.57-2.59-1.25-3.41c-0.49-0.59-1.2-0.88-2.13-0.88c-0.99,0-1.73,0.44-2.25,1.31c-0.42,0.7-0.62,1.57-0.62,2.61
			c0,1.63,0.7,3.29,2.1,4.97c0.53,0.64,1.32,1.4,2.39,2.27c1.25,1.04,2.07,1.77,2.47,2.19c1.33,1.33,2.35,2.63,3.07,3.92
			c0.34,0.61,0.62,1.17,0.82,1.68C1003.96,199.02,1004.23,200.16,1004.25,201.16z"/>
	</g>
</g>
<rect x="90.17" y="192.21" class="st15" width="714.12" height="1"/>
<rect x="1041.17" y="192.21" class="st15" width="714.12" height="1"/>
</svg>
