<?xml version="1.0" encoding="utf-8"?>
<!-- Generator: Adobe Illustrator 24.0.0, SVG Export Plug-In . SVG Version: 6.00 Build 0)  -->
<svg version="1.1" id="Layer_1" xmlns="http://www.w3.org/2000/svg" xmlns:xlink="http://www.w3.org/1999/xlink" x="0px" y="0px"
	 viewBox="0 0 1920 1080" style="enable-background:new 0 0 1920 1080;" xml:space="preserve">
<style type="text/css">
	.st0{fill:#FFFFFF;}
	.st1{fill:#D33527;}
	.st2{fill:#FCFCFC;stroke:#FFFFFF;stroke-miterlimit:10;}
	.st3{fill-rule:evenodd;clip-rule:evenodd;fill:#FFFFFF;}
	.st4{clip-path:url(#SVGID_2_);}
	.st5{clip-path:url(#SVGID_4_);fill:#FFFFFF;}
	.st6{clip-path:url(#SVGID_6_);}
	.st7{clip-path:url(#SVGID_8_);fill:#FFFFFF;}
	.st8{clip-path:url(#SVGID_10_);}
	.st9{clip-path:url(#SVGID_12_);fill:#FFFFFF;}
	.st10{clip-path:url(#SVGID_14_);}
	.st11{clip-path:url(#SVGID_16_);fill:#FFFFFF;}
	.st12{clip-path:url(#SVGID_20_);}
	.st13{clip-path:url(#SVGID_22_);fill:#FFFFFF;}
	.st14{clip-path:url(#SVGID_24_);}
	.st15{clip-path:url(#SVGID_26_);fill:#FFFFFF;}
	.st16{clip-path:url(#SVGID_28_);}
	.st17{clip-path:url(#SVGID_30_);fill:#FFFFFF;}
	.st18{fill:none;stroke:#D33527;stroke-miterlimit:10;}
</style>
<rect class="st0" width="1920" height="1080"/>
<rect y="0.74" class="st1" width="1920" height="1080"/>
<path class="st0" d="M975.11,897.85c-93.07,0-180.57-36.24-246.39-102.06c-65.81-65.81-102.06-153.31-102.06-246.39
	c0-93.07,36.24-180.57,102.06-246.39c65.81-65.81,153.31-102.06,246.39-102.06v2c-92.54,0-179.54,36.04-244.97,101.47
	c-65.43,65.44-101.47,152.43-101.47,244.97c0,92.54,36.04,179.54,101.47,244.97s152.43,101.47,244.97,101.47V897.85z"/>
<circle class="st2" cx="1001.33" cy="201.27" r="18.22"/>
<circle class="st2" cx="999.11" cy="896.85" r="18.22"/>
<g>
	<polygon class="st3" points="848.37,459.29 835.05,517.73 821.82,459.29 811.62,459.29 810.21,531.32 818.75,531.32 819.56,478.97 
		832.16,531.32 838.03,531.32 850.71,478.97 851.53,531.32 859.97,531.32 858.57,459.29 	"/>
	<polygon class="st0" points="848.37,459.29 835.05,517.73 821.82,459.29 811.62,459.29 810.21,531.32 818.75,531.32 819.56,478.97 
		832.16,531.32 838.03,531.32 850.71,478.97 851.52,531.32 859.97,531.32 858.57,459.29 	"/>
	<polygon class="st0" points="848.37,459.29 835.05,517.73 821.82,459.29 811.62,459.29 810.21,531.32 818.75,531.32 819.56,478.97 
		832.16,531.32 838.03,531.32 850.71,478.97 851.53,531.32 859.97,531.32 858.57,459.29 	"/>
	<rect x="873.24" y="459.29" class="st3" width="6.63" height="72.04"/>
	<rect x="873.24" y="459.29" class="st0" width="6.63" height="72.04"/>
	<rect x="873.24" y="459.29" class="st0" width="6.63" height="72.04"/>
</g>
<g>
	<defs>
		<path id="SVGID_1_" d="M900.52,465.32h4.52c4.55,0,7.64,0.9,9.28,2.69c1.64,1.79,2.46,4.91,2.46,9.35c0,4.58-0.95,7.75-2.86,9.5
			c-1.91,1.75-5.09,2.63-9.55,2.63h-3.85V465.32z M890.29,458.01v73.08h10.23V496.8h7.93l9.66,34.29h9.92l-10.5-36.67
			c6.06-1.97,9.08-7.66,9.08-17.06c0-6.85-1.73-11.78-5.2-14.81c-3.47-3.03-8.93-4.54-16.37-4.54H890.29z"/>
	</defs>
	<clipPath id="SVGID_2_">
		<use xlink:href="#SVGID_1_"  style="overflow:visible;"/>
	</clipPath>
	<g class="st4">
		<defs>
			<rect id="SVGID_3_" x="633.8" y="372.28" width="4997.5" height="3553.77"/>
		</defs>
		<clipPath id="SVGID_4_">
			<use xlink:href="#SVGID_3_"  style="overflow:visible;"/>
		</clipPath>
		<rect x="872.93" y="440.66" class="st5" width="72.45" height="107.78"/>
	</g>
</g>
<g>
	<defs>
		<polygon id="SVGID_5_" points="937.38,458.01 937.38,531.09 966.04,531.09 966.04,523.77 947.61,523.77 947.61,496.97 
			962.41,496.97 962.41,489.7 947.61,489.7 947.61,465.55 965.82,465.55 965.82,458.01 		"/>
	</defs>
	<clipPath id="SVGID_6_">
		<use xlink:href="#SVGID_5_"  style="overflow:visible;"/>
	</clipPath>
	<g class="st6">
		<defs>
			<rect id="SVGID_7_" x="633.8" y="372.28" width="4997.5" height="3553.77"/>
		</defs>
		<clipPath id="SVGID_8_">
			<use xlink:href="#SVGID_7_"  style="overflow:visible;"/>
		</clipPath>
		<rect x="920.03" y="440.66" class="st7" width="63.37" height="107.78"/>
	</g>
</g>
<g>
	<defs>
		<path id="SVGID_9_" d="M989.52,457.3c-5.34,0.06-9.56,1.57-12.65,4.52c-3.09,2.96-4.63,7.08-4.63,12.36c0,3.58,0.57,6.62,1.7,9.1
			c1.14,2.48,2.95,4.84,5.43,7.07l12.31,10.89c1.39,1.29,2.46,2.33,3.21,3.11c0.76,0.78,1.55,1.76,2.4,2.93
			c0.84,1.18,1.45,2.41,1.82,3.7c0.37,1.29,0.55,2.72,0.55,4.28c0,2.82-0.68,4.96-2.06,6.41c-1.37,1.46-3.37,2.18-6,2.18
			c-6.29,0-9.76-5.23-10.41-15.69l-9.12,2.47c0.38,6.58,2.19,11.77,5.43,15.56c3.23,3.79,7.94,5.69,14.11,5.69
			c5.23,0,9.47-1.57,12.72-4.69c3.25-3.13,4.87-7.37,4.87-12.72c0-4.17-0.95-7.9-2.86-11.2c-1.91-3.29-4.47-6.37-7.69-9.26
			l-12.4-10.88c-1.74-1.59-2.98-3.1-3.72-4.54c-0.74-1.44-1.11-3.23-1.11-5.38c0-4.97,2.7-7.64,8.1-8.02
			c1.48-0.09,2.78,0.09,3.9,0.55c1.12,0.45,2.03,1.07,2.7,1.85c0.68,0.78,1.26,1.79,1.73,3.04c0.47,1.25,0.81,2.49,1.02,3.73
			c0.21,1.23,0.37,2.64,0.49,4.23l8.64-2.38c-0.59-6.49-2.35-11.29-5.27-14.39c-2.84-3.01-7.08-4.52-12.72-4.52
			C989.84,457.3,989.68,457.3,989.52,457.3"/>
	</defs>
	<clipPath id="SVGID_10_">
		<use xlink:href="#SVGID_9_"  style="overflow:visible;"/>
	</clipPath>
	<g class="st8">
		<defs>
			<rect id="SVGID_11_" x="633.8" y="372.28" width="4997.5" height="3553.77"/>
		</defs>
		<clipPath id="SVGID_12_">
			<use xlink:href="#SVGID_11_"  style="overflow:visible;"/>
		</clipPath>
		<rect x="954.71" y="439.95" class="st9" width="71.83" height="109.28"/>
	</g>
</g>
<g>
	<defs>
		<polygon id="SVGID_13_" points="1017.25,458.01 1017.25,531.09 1045.92,531.09 1045.92,523.77 1027.49,523.77 1027.49,496.97 
			1042.28,496.97 1042.28,489.7 1027.49,489.7 1027.49,465.55 1045.7,465.55 1045.7,458.01 		"/>
	</defs>
	<clipPath id="SVGID_14_">
		<use xlink:href="#SVGID_13_"  style="overflow:visible;"/>
	</clipPath>
	<g class="st10">
		<defs>
			<rect id="SVGID_15_" x="633.8" y="372.28" width="4997.5" height="3553.77"/>
		</defs>
		<clipPath id="SVGID_16_">
			<use xlink:href="#SVGID_15_"  style="overflow:visible;"/>
		</clipPath>
		<rect x="999.9" y="440.66" class="st11" width="63.37" height="107.78"/>
	</g>
</g>
<g>
	<defs>
		<path id="SVGID_17_" d="M1064.43,465.32h4.52c4.55,0,7.64,0.9,9.28,2.69c1.64,1.79,2.46,4.91,2.46,9.35c0,4.58-0.95,7.75-2.86,9.5
			c-1.91,1.75-5.09,2.63-9.55,2.63h-3.85V465.32z M1054.2,458.01v73.08h10.24V496.8h7.93l9.66,34.29h9.92l-10.5-36.67
			c6.06-1.97,9.08-7.66,9.08-17.06c0-6.85-1.73-11.78-5.2-14.81c-3.47-3.03-8.93-4.54-16.37-4.54H1054.2z"/>
	</defs>
	<use xlink:href="#SVGID_17_"  style="overflow:visible;fill:#FFFFFF;"/>
	<clipPath id="SVGID_18_">
		<use xlink:href="#SVGID_17_"  style="overflow:visible;"/>
	</clipPath>
</g>
<g>
	<defs>
		<polygon id="SVGID_19_" points="1129.91,458.01 1118.83,511.83 1107.23,458.01 1097.66,458.01 1114.05,531.09 1123,531.09 
			1139.25,458.01 		"/>
	</defs>
	<clipPath id="SVGID_20_">
		<use xlink:href="#SVGID_19_"  style="overflow:visible;"/>
	</clipPath>
	<g class="st12">
		<defs>
			<rect id="SVGID_21_" x="633.8" y="372.28" width="4997.5" height="3553.77"/>
		</defs>
		<clipPath id="SVGID_22_">
			<use xlink:href="#SVGID_21_"  style="overflow:visible;"/>
		</clipPath>
		<rect x="1080.31" y="440.66" class="st13" width="76.3" height="107.78"/>
	</g>
</g>
<g>
	<defs>
		<path id="SVGID_23_" d="M1161.19,472.38l6.16,33.01h-12.27L1161.19,472.38z M1156.23,458.01l-15.68,73.08h9.7l3.5-18.43h14.93
			l3.37,18.43h9.75l-15.68-73.08H1156.23z"/>
	</defs>
	<clipPath id="SVGID_24_">
		<use xlink:href="#SVGID_23_"  style="overflow:visible;"/>
	</clipPath>
	<g class="st14">
		<defs>
			<rect id="SVGID_25_" x="633.8" y="372.28" width="4997.5" height="3553.77"/>
		</defs>
		<clipPath id="SVGID_26_">
			<use xlink:href="#SVGID_25_"  style="overflow:visible;"/>
		</clipPath>
		<rect x="1123.19" y="440.66" class="st15" width="75.95" height="107.78"/>
	</g>
</g>
<g>
	<defs>
		<path id="SVGID_27_" d="M1144.01,614.13c-2.07-19.95-5.61-56.82-3.5-56.82c2.49,0,8.27,33.22,11.62,53.83
			c9.91,0.48,27.28,0.62,28-4.29c0.13,2.78,0.15,4.87,0.03,5.89c-0.54,4.82-16.96,4.85-27.06,4.4c0.96,6.02,1.56,9.99,1.56,9.99
			l-9.31-0.53c0,0-0.31-2.81-0.78-7.27c-1.19,1.87-4.19,4.03-12.03,4.03c-7.68,0-16.84-1.38-23.52-2.61
			c1.09,6.01,1.77,9.94,1.77,9.94l-10.75-2.41c0,0-0.4-3.24-0.99-8.31c-1.72,1.82-6.42,5.4-17.25,6.04
			c-11.01,0.65-24.21-1.69-33.32-3.76c1.16,6.04,1.9,9.97,1.9,9.97l-12.81-3.56c0,0-0.37-3.42-0.91-8.76
			c-3.3,1.62-16.6,7.22-43.08,7.22c-26.49,0-39.78-5.6-43.09-7.22c-0.54,5.34-0.91,8.76-0.91,8.76l-12.81,3.56
			c0,0,0.74-3.94,1.9-9.97c-9.11,2.07-22.31,4.41-33.33,3.76c-10.83-0.64-15.53-4.21-17.26-6.04c-0.59,5.07-0.99,8.31-0.99,8.31
			l-10.76,2.41c0,0,0.68-3.93,1.77-9.94c-6.69,1.23-15.85,2.61-23.52,2.61c-7.84,0-10.84-2.16-12.03-4.03
			c-0.47,4.46-0.79,7.27-0.79,7.27l-9.31,0.53c0,0,0.6-3.97,1.56-9.99c-10.09,0.45-26.51,0.42-27.05-4.4
			c-0.12-1.03-0.09-3.11,0.03-5.89c0.71,4.91,18.09,4.77,27.99,4.29c3.35-20.61,9.14-53.83,11.62-53.83
			c2.11,0-1.42,36.87-3.49,56.82c1.51,1.65,4.7,3.27,11.48,3.27c8.11,0,17.9-1.55,24.65-2.82c3.98-21.6,10.95-57.28,13.53-57.28
			c2.18,0-1.71,36.67-4.07,57.29c2.11,1.91,6.84,4.87,16.64,5.45c11.51,0.68,25.41-1.91,34.53-4.04
			c4.29-22.02,11.72-58.71,13.57-58.71c2.76,0-0.36,36.05-2.39,56.91c3.99,1.86,17.18,6.96,42.52,6.96c25.33,0,38.52-5.1,42.52-6.96
			c-2.03-20.85-5.14-56.91-2.4-56.91c1.86,0,9.29,36.69,13.58,58.71c9.12,2.13,23.02,4.72,34.53,4.04
			c9.8-0.58,14.53-3.54,16.64-5.45c-2.35-20.62-6.24-57.29-4.07-57.29c2.58,0,9.56,35.68,13.54,57.28
			c6.75,1.27,16.54,2.82,24.65,2.82C1139.31,617.41,1142.5,615.78,1144.01,614.13 M825.93,550.8c-10.96,0-19.84,2.44-19.84,5.44
			v1.45c0,0-6.49,59.76-5.62,67.04c0.81,6.79,35.72,3.81,35.72,3.81s-0.99,6.53,13.15,6.53c14.14,0,33.48-4.36,33.48-4.36
			s3.55,6.09,18.6,6.94c19.35,1.09,45.39-6.4,45.39-6.4s13.39,7.49,45.14,7.49c31.74,0,45.14-7.49,45.14-7.49s26.04,7.49,45.38,6.4
			c15.05-0.85,18.6-6.94,18.6-6.94s19.35,4.36,33.48,4.36c14.14,0,13.14-6.53,13.14-6.53s34.91,2.98,35.72-3.81
			c0.86-7.28-5.63-67.04-5.63-67.04v-1.45c0-3-8.88-5.44-19.84-5.44H825.93z"/>
	</defs>
	<clipPath id="SVGID_28_">
		<use xlink:href="#SVGID_27_"  style="overflow:visible;"/>
	</clipPath>
	<g class="st16">
		<defs>
			<rect id="SVGID_29_" x="633.8" y="372.28" width="4997.5" height="3553.77"/>
		</defs>
		<clipPath id="SVGID_30_">
			<use xlink:href="#SVGID_29_"  style="overflow:visible;"/>
		</clipPath>
		<rect x="783.03" y="533.44" class="st17" width="417.8" height="122.65"/>
	</g>
</g>
<line class="st18" x1="90.17" y1="192.71" x2="804.29" y2="192.71"/>
<line class="st18" x1="1041.17" y1="192.71" x2="1755.29" y2="192.71"/>
</svg>
