<?xml version="1.0" encoding="utf-8"?>
<!-- Generator: Adobe Illustrator 24.0.0, SVG Export Plug-In . SVG Version: 6.00 Build 0)  -->
<svg version="1.1" id="Layer_1" xmlns="http://www.w3.org/2000/svg" xmlns:xlink="http://www.w3.org/1999/xlink" x="0px" y="0px"
	 viewBox="0 0 1920 1080" style="enable-background:new 0 0 1920 1080;" xml:space="preserve">
<style type="text/css">
	.st0{fill:#D33527;}
	.st1{fill:url(#SVGID_1_);}
	.st2{fill:#FFFFFF;}
	.st3{fill:url(#SVGID_2_);}
	.st4{fill:url(#SVGID_3_);}
	.st5{fill:#A7AEB0;}
	.st6{fill:url(#SVGID_4_);}
	.st7{fill:url(#SVGID_5_);}
	.st8{fill:#606060;}
</style>
<g>
	<g>
		<path class="st0" d="M857.34,108.98c0,2.35-0.82,4.36-2.47,6.02c-1.65,1.67-3.64,2.5-5.97,2.5h-8.44V81.88h8.44
			c2.35,0,4.34,0.83,5.98,2.5c1.64,1.67,2.46,3.67,2.46,5.99V108.98z M845.83,112.19h3.24c0.85,0,1.57-0.31,2.16-0.92
			s0.88-1.34,0.88-2.17V90.46c0-0.85-0.3-1.58-0.89-2.19c-0.6-0.61-1.31-0.91-2.15-0.91h-3.24V112.19z"/>
		<path class="st0" d="M862.05,117.5V81.88h15.28v5.4h-9.92v9.72h7.24v5.4h-7.24v9.72h9.92v5.4H862.05z"/>
		<path class="st0" d="M898.78,108.64c0.04,2.48-0.61,4.6-1.93,6.36c-0.87,1.19-2.1,2.04-3.69,2.53c-0.85,0.26-1.85,0.4-2.98,0.4
			c-2.1,0-3.84-0.52-5.23-1.56c-1.16-0.85-2.07-2.01-2.74-3.48s-1.07-3.15-1.18-5.04l5.11-0.37c0.23,2.08,0.78,3.58,1.65,4.51
			c0.64,0.7,1.38,1.04,2.22,1c1.17-0.04,2.11-0.62,2.81-1.74c0.36-0.55,0.54-1.34,0.54-2.36c0-1.48-0.67-2.95-2.02-4.41
			c-1.06-1-2.65-2.51-4.77-4.52c-1.78-1.72-3.04-3.27-3.78-4.63c-0.8-1.54-1.19-3.2-1.19-5c0-3.24,1.09-5.7,3.27-7.36
			c1.34-1,3.01-1.51,5-1.51c1.91,0,3.55,0.43,4.92,1.28c1.06,0.66,1.92,1.59,2.57,2.78c0.65,1.19,1.05,2.57,1.18,4.12l-5.14,0.94
			c-0.15-1.46-0.57-2.59-1.25-3.41c-0.49-0.59-1.2-0.88-2.13-0.88c-0.99,0-1.73,0.44-2.25,1.31c-0.42,0.7-0.62,1.57-0.62,2.61
			c0,1.63,0.7,3.29,2.1,4.97c0.53,0.64,1.33,1.4,2.39,2.27c1.25,1.04,2.07,1.77,2.47,2.19c1.33,1.33,2.35,2.63,3.07,3.92
			c0.34,0.61,0.62,1.17,0.82,1.68C898.5,106.5,898.76,107.63,898.78,108.64z"/>
		<path class="st0" d="M908.77,109.32l-1.3,8.18h-5.59l6.05-35.6h7.39l5.97,35.6h-5.65l-1.26-8.18H908.77z M911.6,90.06l-1.99,14.03
			h3.98L911.6,90.06z"/>
		<path class="st0" d="M934.27,81.9c2.99,0,5.19,0.82,6.59,2.47c1.23,1.44,1.85,3.45,1.85,6.02v5.17c0,2.52-0.96,4.65-2.87,6.39
			l3.98,15.54H938l-3.25-13.41c-0.15,0-0.31,0-0.48,0h-3.1v13.41h-5.37V81.9H934.27z M937.48,90.48c0-2.06-1.02-3.1-3.07-3.1h-3.24
			v11.39h3.24c0.85,0,1.58-0.3,2.17-0.91c0.6-0.61,0.89-1.33,0.89-2.19V90.48z"/>
		<path class="st0" d="M956.88,81.9c2.99,0,5.19,0.82,6.59,2.47c1.23,1.44,1.85,3.45,1.85,6.02v5.17c0,2.52-0.96,4.65-2.87,6.39
			l3.98,15.54h-5.81l-3.25-13.41c-0.15,0-0.31,0-0.48,0h-3.1v13.41h-5.37V81.9H956.88z M960.09,90.48c0-2.06-1.02-3.1-3.07-3.1
			h-3.24v11.39h3.24c0.85,0,1.58-0.3,2.17-0.91c0.6-0.61,0.89-1.33,0.89-2.19V90.48z"/>
		<path class="st0" d="M978.61,81.45c2.37,0,4.38,0.83,6.04,2.5c1.66,1.67,2.49,3.67,2.49,6.02v19.43c0,2.37-0.83,4.38-2.5,6.04
			c-1.67,1.66-3.67,2.49-6.02,2.49c-2.37,0-4.38-0.83-6.02-2.5c-1.65-1.67-2.47-3.67-2.47-6.02V89.97c0-2.37,0.83-4.38,2.5-6.04
			C974.28,82.28,976.28,81.45,978.61,81.45z M981.54,89.86c0-0.85-0.3-1.58-0.89-2.17s-1.32-0.89-2.17-0.89
			c-0.85,0-1.58,0.3-2.19,0.89c-0.61,0.6-0.91,1.32-0.91,2.17v19.49c0,0.85,0.3,1.58,0.91,2.17c0.61,0.6,1.33,0.9,2.19,0.9
			c0.85,0,1.58-0.3,2.17-0.9s0.89-1.32,0.89-2.17V89.86z"/>
		<path class="st0" d="M1006.51,117.5h-14.63V81.9h5.37v30.26h9.26V117.5z"/>
		<path class="st0" d="M1024.83,117.5h-14.63V81.9h5.37v30.26h9.26V117.5z"/>
		<path class="st0" d="M1037.02,81.45c2.37,0,4.38,0.83,6.04,2.5c1.66,1.67,2.49,3.67,2.49,6.02v19.43c0,2.37-0.83,4.38-2.5,6.04
			c-1.67,1.66-3.67,2.49-6.02,2.49c-2.37,0-4.38-0.83-6.02-2.5c-1.65-1.67-2.47-3.67-2.47-6.02V89.97c0-2.37,0.83-4.38,2.5-6.04
			C1032.69,82.28,1034.69,81.45,1037.02,81.45z M1039.94,89.86c0-0.85-0.3-1.58-0.89-2.17s-1.32-0.89-2.17-0.89
			c-0.85,0-1.58,0.3-2.19,0.89c-0.61,0.6-0.91,1.32-0.91,2.17v19.49c0,0.85,0.3,1.58,0.91,2.17c0.61,0.6,1.33,0.9,2.19,0.9
			c0.85,0,1.58-0.3,2.17-0.9s0.89-1.32,0.89-2.17V89.86z"/>
	</g>
</g>
<rect x="108.55" y="104.8" class="st0" width="714.12" height="1"/>
<rect x="1059.55" y="104.8" class="st0" width="714.12" height="1"/>
<g>
	<g>
		<g>
			<radialGradient id="SVGID_1_" cx="291.5993" cy="569.1382" r="126.7226" gradientUnits="userSpaceOnUse">
				<stop  offset="0.6836" style="stop-color:#ACC2D4"/>
				<stop  offset="0.7246" style="stop-color:#BBCDDC"/>
				<stop  offset="0.8435" style="stop-color:#E0E8EF"/>
				<stop  offset="0.9395" style="stop-color:#F7F9FB"/>
				<stop  offset="1" style="stop-color:#FFFFFF"/>
			</radialGradient>
			<circle class="st1" cx="291.6" cy="569.14" r="126.72"/>
			<circle class="st2" cx="293.14" cy="550.01" r="110.8"/>
			
				<ellipse transform="matrix(0.7071 -0.7071 0.7071 0.7071 -303.054 368.3761)" class="st0" cx="293.14" cy="550.01" rx="99.85" ry="99.85"/>
		</g>
		<g>
			<radialGradient id="SVGID_2_" cx="1640.6211" cy="568.7444" r="126.7226" gradientUnits="userSpaceOnUse">
				<stop  offset="0.6836" style="stop-color:#ACC2D4"/>
				<stop  offset="0.7246" style="stop-color:#BBCDDC"/>
				<stop  offset="0.8435" style="stop-color:#E0E8EF"/>
				<stop  offset="0.9395" style="stop-color:#F7F9FB"/>
				<stop  offset="1" style="stop-color:#FFFFFF"/>
			</radialGradient>
			<circle class="st3" cx="1640.62" cy="568.74" r="126.72"/>
			<circle class="st2" cx="1642.16" cy="549.61" r="110.8"/>
			
				<ellipse transform="matrix(0.7071 -0.7071 0.7071 0.7071 92.3438 1322.1632)" class="st0" cx="1642.16" cy="549.61" rx="99.85" ry="99.85"/>
		</g>
		<g>
			<radialGradient id="SVGID_3_" cx="610.8862" cy="569.1382" r="126.7226" gradientUnits="userSpaceOnUse">
				<stop  offset="0.6836" style="stop-color:#ACC2D4"/>
				<stop  offset="0.7246" style="stop-color:#BBCDDC"/>
				<stop  offset="0.8435" style="stop-color:#E0E8EF"/>
				<stop  offset="0.9395" style="stop-color:#F7F9FB"/>
				<stop  offset="1" style="stop-color:#FFFFFF"/>
			</radialGradient>
			<circle class="st4" cx="610.89" cy="569.14" r="126.72"/>
			<circle class="st2" cx="612.43" cy="550.01" r="110.8"/>
			
				<ellipse transform="matrix(0.233 -0.9725 0.9725 0.233 -65.1135 1017.4598)" class="st5" cx="612.43" cy="550.01" rx="99.85" ry="99.85"/>
		</g>
		<g>
			<radialGradient id="SVGID_4_" cx="930.1733" cy="569.1382" r="126.7226" gradientUnits="userSpaceOnUse">
				<stop  offset="0.6836" style="stop-color:#ACC2D4"/>
				<stop  offset="0.7246" style="stop-color:#BBCDDC"/>
				<stop  offset="0.8435" style="stop-color:#E0E8EF"/>
				<stop  offset="0.9395" style="stop-color:#F7F9FB"/>
				<stop  offset="1" style="stop-color:#FFFFFF"/>
			</radialGradient>
			<circle class="st6" cx="930.17" cy="569.14" r="126.72"/>
			<circle class="st2" cx="931.72" cy="550.01" r="110.8"/>
			
				<ellipse transform="matrix(0.7071 -0.7071 0.7071 0.7071 -116.02 819.9161)" class="st0" cx="931.72" cy="550.01" rx="99.85" ry="99.85"/>
		</g>
		<g>
			<radialGradient id="SVGID_5_" cx="1249.4602" cy="569.1382" r="126.7226" gradientUnits="userSpaceOnUse">
				<stop  offset="0.6836" style="stop-color:#ACC2D4"/>
				<stop  offset="0.7246" style="stop-color:#BBCDDC"/>
				<stop  offset="0.8435" style="stop-color:#E0E8EF"/>
				<stop  offset="0.9395" style="stop-color:#F7F9FB"/>
				<stop  offset="1" style="stop-color:#FFFFFF"/>
			</radialGradient>
			<circle class="st7" cx="1249.46" cy="569.14" r="126.72"/>
			<circle class="st2" cx="1251" cy="550.01" r="110.8"/>
			
				<ellipse transform="matrix(0.2299 -0.9732 0.9732 0.2299 428.0972 1641.0344)" class="st5" cx="1251" cy="550.01" rx="99.85" ry="99.85"/>
			<g>
				<g>
					<path class="st5" d="M1251,688.72c-75.71,0-137.44-60.97-138.69-136.38h-44.21c-1.29,0-2.33-1.04-2.33-2.33
						c0-73.92-60.14-134.05-134.05-134.05c-73.92,0-134.06,60.14-134.06,134.05c0,1.29-1.04,2.33-2.33,2.33h-44.21
						c-1.25,75.41-62.99,136.38-138.69,136.38s-137.44-60.97-138.69-136.38h-44.21c-1.29,0-2.33-1.04-2.33-2.33
						c0-73.92-60.14-134.05-134.05-134.05s-134.05,60.14-134.05,134.05c0,1.29-1.04,2.33-2.33,2.33H78.13
						c-1.29,0-2.33-1.04-2.33-2.33c0-1.29,1.04-2.33,2.33-2.33h76.31c1.25-75.41,62.99-136.38,138.69-136.38
						s137.44,60.97,138.69,136.38h44.21c1.29,0,2.33,1.04,2.33,2.33c0,73.92,60.14,134.05,134.05,134.05s134.05-60.14,134.05-134.05
						c0-1.29,1.04-2.33,2.33-2.33h44.21c1.25-75.41,62.99-136.38,138.7-136.38c75.71,0,137.44,60.97,138.69,136.38h44.21
						c1.29,0,2.33,1.04,2.33,2.33c0,73.92,60.14,134.05,134.05,134.05c73.92,0,134.05-60.14,134.05-134.05
						c0-1.29,1.04-2.33,2.33-2.33h76.2c1.29,0,2.33,1.04,2.33,2.33c0,1.29-1.04,2.33-2.33,2.33h-73.89
						C1388.45,627.75,1326.71,688.72,1251,688.72z"/>
				</g>
				<g>
					<path class="st5" d="M1459.03,552.34h44.21c1.29,0,2.33-1.04,2.33-2.33c0-73.92,60.14-134.05,134.06-134.05
						c73.92,0,134.05,60.14,134.05,134.05c0,1.29,1.04,2.33,2.33,2.33h44.21c0,0,4.58,0.12,4.64-2.33c0.03-1.29-1.04-2.33-2.33-2.33
						h-44.21c-1.25-75.41-62.99-136.38-138.69-136.38c-75.71,0-137.45,60.97-138.7,136.38h-44.21c-1.29,0-2.33,1.04-2.33,2.33"/>
					<path class="st5" d="M2173.82,550.01"/>
				</g>
				<g>
					<path class="st5" d="M1826.15,541.25c4.84,0,8.76,3.92,8.76,8.76c0,4.84-3.92,8.76-8.76,8.76c-4.84,0-8.76-3.92-8.76-8.76
						C1817.39,545.17,1821.31,541.25,1826.15,541.25z"/>
				</g>
				<g>
					<path class="st5" d="M78.57,541.25c-4.84,0-8.76,3.92-8.76,8.76c0,4.84,3.92,8.76,8.76,8.76c4.84,0,8.76-3.92,8.76-8.76
						C87.33,545.17,83.41,541.25,78.57,541.25z"/>
				</g>
			</g>
		</g>
	</g>
</g>
<g>
	<path class="st8" d="M262.71,710.73c4.32,0,6,2.72,6,6.8v3.04c0,4.44-2.04,6.64-6.48,6.64h-3.48v11.52h-1.84v-28H262.71z
		 M262.23,725.53c3.24,0,4.64-1.44,4.64-4.84v-3.28c0-3.04-1.04-5-4.16-5h-3.96v13.12H262.23z"/>
	<path class="st8" d="M273.63,732.53l-1.4,6.2h-1.68l6.12-28.04h2.68l6.24,28.04h-1.84l-1.4-6.2H273.63z M273.91,730.93h8.16
		l-4.12-18.12L273.91,730.93z"/>
	<path class="st8" d="M300.19,717.49v0.6h-1.76v-0.72c0-2.96-1.12-5.2-4.16-5.2c-3.04,0-4.16,2.2-4.16,5.16
		c0,6.8,10.12,6.92,10.12,14.64c0,4.04-1.76,7-6.04,7s-6.04-2.96-6.04-7v-1.44h1.76v1.56c0,3,1.16,5.16,4.24,5.16
		c3.08,0,4.24-2.16,4.24-5.16c0-6.72-10.12-6.84-10.12-14.64c0-4.2,1.84-6.92,5.96-6.96C298.47,710.49,300.19,713.45,300.19,717.49z
		"/>
	<path class="st8" d="M303.07,717.57c0-4.08,1.88-7.08,6.12-7.08c4.32,0,6.2,3,6.2,7.08v14.32c0,4.08-1.88,7.08-6.2,7.08
		c-4.24,0-6.12-3-6.12-7.08V717.57z M304.91,732.01c0,3.04,1.2,5.28,4.28,5.28c3.12,0,4.36-2.24,4.36-5.28v-14.56
		c0-3.04-1.24-5.28-4.36-5.28c-3.08,0-4.28,2.24-4.28,5.28V732.01z"/>
	<path class="st8" d="M329.95,713.85c-1,1.32-2.48,2.2-4.36,2.36v-1.6c2.76-0.2,4.04-1.84,4.76-3.92h1.44v28.04h-1.84V713.85z"/>
</g>
<g>
	<path class="st8" d="M583.92,379.13c4.32,0,6,2.72,6,6.8v3.04c0,4.44-2.04,6.64-6.48,6.64h-3.48v11.52h-1.84v-28H583.92z
		 M583.44,393.93c3.24,0,4.64-1.44,4.64-4.84v-3.28c0-3.04-1.04-5-4.16-5h-3.96v13.12H583.44z"/>
	<path class="st8" d="M594.84,400.93l-1.4,6.2h-1.68l6.12-28.04h2.68l6.24,28.04h-1.84l-1.4-6.2H594.84z M595.12,399.33h8.16
		l-4.12-18.12L595.12,399.33z"/>
	<path class="st8" d="M621.4,385.89v0.6h-1.76v-0.72c0-2.96-1.12-5.2-4.16-5.2c-3.04,0-4.16,2.2-4.16,5.16
		c0,6.8,10.12,6.92,10.12,14.64c0,4.04-1.76,7-6.04,7s-6.04-2.96-6.04-7v-1.44h1.76v1.56c0,3,1.16,5.16,4.24,5.16
		c3.08,0,4.24-2.16,4.24-5.16c0-6.72-10.12-6.84-10.12-14.64c0-4.2,1.84-6.92,5.96-6.96C619.68,378.89,621.4,381.85,621.4,385.89z"
		/>
	<path class="st8" d="M624.28,385.97c0-4.08,1.88-7.08,6.12-7.08c4.32,0,6.2,3,6.2,7.08v14.32c0,4.08-1.88,7.08-6.2,7.08
		c-4.24,0-6.12-3-6.12-7.08V385.97z M626.12,400.41c0,3.04,1.2,5.28,4.28,5.28c3.12,0,4.36-2.24,4.36-5.28v-14.56
		c0-3.04-1.24-5.28-4.36-5.28c-3.08,0-4.28,2.24-4.28,5.28V400.41z"/>
	<path class="st8" d="M657.91,386.01c0,8.08-10.12,10.88-10.24,19.12v0.32h10v1.68h-11.84v-1.36c0-9.88,10.24-12,10.24-19.68
		c0-3.24-1.08-5.52-4.28-5.52c-3.08,0-4.2,2.4-4.2,5.4v1.92h-1.76v-1.8c0-4.04,1.72-7.2,6.04-7.2
		C656.23,378.89,657.91,381.93,657.91,386.01z"/>
</g>
<g>
	<path class="st8" d="M896.15,710.73c4.32,0,6,2.72,6,6.8v3.04c0,4.44-2.04,6.64-6.48,6.64h-3.48v11.52h-1.84v-28H896.15z
		 M895.67,725.53c3.24,0,4.64-1.44,4.64-4.84v-3.28c0-3.04-1.04-5-4.16-5h-3.96v13.12H895.67z"/>
	<path class="st8" d="M907.07,732.53l-1.4,6.2h-1.68l6.12-28.04h2.68l6.24,28.04h-1.84l-1.4-6.2H907.07z M907.35,730.93h8.16
		l-4.12-18.12L907.35,730.93z"/>
	<path class="st8" d="M933.63,717.49v0.6h-1.76v-0.72c0-2.96-1.12-5.2-4.16-5.2c-3.04,0-4.16,2.2-4.16,5.16
		c0,6.8,10.12,6.92,10.12,14.64c0,4.04-1.76,7-6.04,7s-6.04-2.96-6.04-7v-1.44h1.76v1.56c0,3,1.16,5.16,4.24,5.16
		c3.08,0,4.24-2.16,4.24-5.16c0-6.72-10.12-6.84-10.12-14.64c0-4.2,1.84-6.92,5.96-6.96C931.91,710.49,933.63,713.45,933.63,717.49z
		"/>
	<path class="st8" d="M936.51,717.57c0-4.08,1.88-7.08,6.12-7.08c4.32,0,6.2,3,6.2,7.08v14.32c0,4.08-1.88,7.08-6.2,7.08
		c-4.24,0-6.12-3-6.12-7.08V717.57z M938.35,732.01c0,3.04,1.2,5.28,4.28,5.28c3.12,0,4.36-2.24,4.36-5.28v-14.56
		c0-3.04-1.24-5.28-4.36-5.28c-3.08,0-4.28,2.24-4.28,5.28V732.01z"/>
	<path class="st8" d="M970.07,717.57v0.68c0,2.76-1.32,4.96-3.72,5.8c2.52,0.76,3.72,2.92,3.72,5.68v2.16
		c0,4.08-1.76,7.08-6.04,7.08c-4.28,0-6.04-3-6.04-7.08v-1.6h1.76v1.68c0,3.04,1.16,5.32,4.24,5.32c3.08,0,4.24-2.24,4.24-5.44
		v-2.16c0-2.92-1.44-4.6-4.16-4.72h-1.88v-1.68h1.96c2.52-0.16,4.08-2,4.08-4.68v-1c0-3.2-1.16-5.44-4.24-5.44
		c-3.08,0-4.24,2.24-4.24,5.28v1.12h-1.76v-1c0-4.08,1.76-7.08,6.04-7.08C968.31,710.49,970.07,713.49,970.07,717.57z"/>
</g>
<g>
	<path class="st8" d="M1214.94,379.13c4.32,0,6,2.72,6,6.8v3.04c0,4.44-2.04,6.64-6.48,6.64h-3.48v11.52h-1.84v-28H1214.94z
		 M1214.46,393.93c3.24,0,4.64-1.44,4.64-4.84v-3.28c0-3.04-1.04-5-4.16-5h-3.96v13.12H1214.46z"/>
	<path class="st8" d="M1225.86,400.93l-1.4,6.2h-1.68l6.12-28.04h2.68l6.24,28.04h-1.84l-1.4-6.2H1225.86z M1226.14,399.33h8.16
		l-4.12-18.12L1226.14,399.33z"/>
	<path class="st8" d="M1252.42,385.89v0.6h-1.76v-0.72c0-2.96-1.12-5.2-4.16-5.2s-4.16,2.2-4.16,5.16c0,6.8,10.12,6.92,10.12,14.64
		c0,4.04-1.76,7-6.04,7s-6.04-2.96-6.04-7v-1.44h1.76v1.56c0,3,1.16,5.16,4.24,5.16c3.08,0,4.24-2.16,4.24-5.16
		c0-6.72-10.12-6.84-10.12-14.64c0-4.2,1.84-6.92,5.96-6.96C1250.7,378.89,1252.42,381.85,1252.42,385.89z"/>
	<path class="st8" d="M1255.3,385.97c0-4.08,1.88-7.08,6.12-7.08c4.32,0,6.2,3,6.2,7.08v14.32c0,4.08-1.88,7.08-6.2,7.08
		c-4.24,0-6.12-3-6.12-7.08V385.97z M1257.14,400.41c0,3.04,1.2,5.28,4.28,5.28c3.12,0,4.36-2.24,4.36-5.28v-14.56
		c0-3.04-1.24-5.28-4.36-5.28c-3.08,0-4.28,2.24-4.28,5.28V400.41z"/>
	<path class="st8" d="M1287.86,400.93v6.2h-1.8v-6.2h-9.56v-1.72l9.28-20.12h2.08v20.16h2.36v1.68H1287.86z M1278.18,399.25h7.88
		v-16.72L1278.18,399.25z"/>
</g>
<g>
	<path class="st8" d="M1618.07,710.73c4.32,0,6,2.72,6,6.8v3.04c0,4.44-2.04,6.64-6.48,6.64h-3.48v11.52h-1.84v-28H1618.07z
		 M1617.59,725.53c3.24,0,4.64-1.44,4.64-4.84v-3.28c0-3.04-1.04-5-4.16-5h-3.96v13.12H1617.59z"/>
	<path class="st8" d="M1629,732.53l-1.4,6.2h-1.68l6.12-28.04h2.68l6.24,28.04h-1.84l-1.4-6.2H1629z M1629.28,730.93h8.16
		l-4.12-18.12L1629.28,730.93z"/>
	<path class="st8" d="M1655.55,717.49v0.6h-1.76v-0.72c0-2.96-1.12-5.2-4.16-5.2s-4.16,2.2-4.16,5.16c0,6.8,10.12,6.92,10.12,14.64
		c0,4.04-1.76,7-6.04,7s-6.04-2.96-6.04-7v-1.44h1.76v1.56c0,3,1.16,5.16,4.24,5.16c3.08,0,4.24-2.16,4.24-5.16
		c0-6.72-10.12-6.84-10.12-14.64c0-4.2,1.84-6.92,5.96-6.96C1653.83,710.49,1655.55,713.45,1655.55,717.49z"/>
	<path class="st8" d="M1658.44,717.57c0-4.08,1.88-7.08,6.12-7.08c4.32,0,6.2,3,6.2,7.08v14.32c0,4.08-1.88,7.08-6.2,7.08
		c-4.24,0-6.12-3-6.12-7.08V717.57z M1660.28,732.01c0,3.04,1.2,5.28,4.28,5.28c3.12,0,4.36-2.24,4.36-5.28v-14.56
		c0-3.04-1.24-5.28-4.36-5.28c-3.08,0-4.28,2.24-4.28,5.28V732.01z"/>
	<path class="st8" d="M1682.07,722.41c0.96-1.52,2.44-2.16,4.52-2.16c3.88,0,5.44,2.96,5.44,6.84v4.8c0,4.04-1.8,7.08-6.08,7.08
		c-4.24,0-6.04-3.04-6.04-7.08v-1.52h1.76v1.6c0,3,1.2,5.28,4.24,5.28c3.08,0,4.28-2.28,4.28-5.28v-4.72c0-3-1.2-5.28-4.28-5.28
		c-2.04,0-3.44,1.12-4,3.2v0.48h-1.72l0.72-14.96h10.52v1.72h-8.84L1682.07,722.41z"/>
</g>
<g>
	<path class="st2" d="M240.65,544.14c1.63,0,2.94,0.51,3.91,1.54c0.9,0.98,1.35,2.24,1.35,3.76v3.23c0,1.47-0.51,2.72-1.54,3.76
		c-1.02,1.04-2.26,1.56-3.72,1.56h-1.94v8.38h-3.36v-22.25H240.65z M242.66,549.5c0-0.58-0.17-1.05-0.52-1.4
		c-0.35-0.36-0.81-0.53-1.39-0.53h-2.02v7.12h2.02c0.53,0,0.99-0.19,1.36-0.57c0.37-0.38,0.56-0.83,0.56-1.37V549.5z"/>
	<path class="st2" d="M253.88,544.14c1.87,0,3.24,0.51,4.12,1.54c0.77,0.9,1.15,2.15,1.15,3.76v3.23c0,1.57-0.6,2.91-1.79,4
		l2.49,9.71h-3.63l-2.04-8.38c-0.09,0-0.2,0-0.3,0h-1.94v8.38h-3.36v-22.25H253.88z M255.88,549.5c0-1.29-0.64-1.94-1.92-1.94h-2.02
		v7.12h2.02c0.53,0,0.99-0.19,1.36-0.57c0.37-0.38,0.56-0.83,0.56-1.37V549.5z"/>
	<path class="st2" d="M267.46,543.86c1.48,0,2.74,0.52,3.77,1.56c1.04,1.04,1.55,2.3,1.55,3.76v12.14c0,1.48-0.52,2.74-1.56,3.77
		c-1.04,1.04-2.3,1.55-3.76,1.55c-1.48,0-2.73-0.52-3.76-1.56c-1.03-1.04-1.54-2.3-1.54-3.76v-12.14c0-1.48,0.52-2.74,1.56-3.77
		C264.75,544.38,266,543.86,267.46,543.86z M269.29,549.11c0-0.53-0.19-0.99-0.56-1.36s-0.83-0.56-1.36-0.56
		c-0.53,0-0.99,0.19-1.37,0.56s-0.57,0.83-0.57,1.36v12.18c0,0.53,0.19,0.99,0.57,1.36s0.83,0.56,1.37,0.56
		c0.53,0,0.99-0.19,1.36-0.56s0.56-0.83,0.56-1.36V549.11z"/>
	<path class="st2" d="M278.66,547.51h-3.57v-3.37h10.48v3.37h-3.55v18.87h-3.36V547.51z"/>
	<path class="st2" d="M293.19,543.86c1.48,0,2.74,0.52,3.77,1.56c1.04,1.04,1.55,2.3,1.55,3.76v12.14c0,1.48-0.52,2.74-1.56,3.77
		c-1.04,1.04-2.3,1.55-3.76,1.55c-1.48,0-2.73-0.52-3.76-1.56c-1.03-1.04-1.54-2.3-1.54-3.76v-12.14c0-1.48,0.52-2.74,1.56-3.77
		C290.48,544.38,291.73,543.86,293.19,543.86z M295.01,549.11c0-0.53-0.19-0.99-0.56-1.36s-0.83-0.56-1.36-0.56
		c-0.53,0-0.99,0.19-1.37,0.56s-0.57,0.83-0.57,1.36v12.18c0,0.53,0.19,0.99,0.57,1.36s0.83,0.56,1.37,0.56
		c0.53,0,0.99-0.19,1.36-0.56s0.56-0.83,0.56-1.36V549.11z"/>
	<path class="st2" d="M304.39,547.51h-3.57v-3.37h10.48v3.37h-3.55v18.87h-3.36V547.51z"/>
	<path class="st2" d="M317.35,566.39H314v-22.25h3.36V566.39z"/>
	<path class="st2" d="M325.64,544.14c1.63,0,2.94,0.51,3.91,1.54c0.9,0.98,1.35,2.24,1.35,3.76v3.23c0,1.47-0.51,2.72-1.54,3.76
		c-1.02,1.04-2.26,1.56-3.72,1.56h-1.94v8.38h-3.36v-22.25H325.64z M327.65,549.5c0-0.58-0.17-1.05-0.52-1.4
		c-0.35-0.36-0.81-0.53-1.39-0.53h-2.02v7.12h2.02c0.53,0,0.99-0.19,1.36-0.57c0.37-0.38,0.56-0.83,0.56-1.37V549.5z"/>
	<path class="st2" d="M338.52,543.86c1.48,0,2.74,0.52,3.77,1.56c1.04,1.04,1.55,2.3,1.55,3.76v12.14c0,1.48-0.52,2.74-1.56,3.77
		c-1.04,1.04-2.3,1.55-3.76,1.55c-1.48,0-2.73-0.52-3.76-1.56c-1.03-1.04-1.54-2.3-1.54-3.76v-12.14c0-1.48,0.52-2.74,1.56-3.77
		C335.81,544.38,337.06,543.86,338.52,543.86z M340.34,549.11c0-0.53-0.19-0.99-0.56-1.36s-0.83-0.56-1.36-0.56
		c-0.53,0-0.99,0.19-1.37,0.56s-0.57,0.83-0.57,1.36v12.18c0,0.53,0.19,0.99,0.57,1.36s0.83,0.56,1.37,0.56
		c0.53,0,0.99-0.19,1.36-0.56s0.56-0.83,0.56-1.36V549.11z"/>
</g>
<g>
	<path class="st2" d="M1202.97,565.76V543.5h5.02c1.33,0,2.52,0.35,3.59,1.05c0.91,0.59,1.56,1.51,1.95,2.75
		c0.21,0.66,0.32,1.45,0.32,2.36c0,1.49-0.4,2.69-1.19,3.59c-0.33,0.38-0.72,0.67-1.17,0.87c0.75,0.28,1.38,0.85,1.9,1.69
		c0.34,0.57,0.6,1.3,0.76,2.2c0.08,0.46,0.12,0.98,0.12,1.54c0,1.41-0.27,2.6-0.8,3.59c-0.41,0.77-1,1.38-1.76,1.85
		c-0.85,0.52-1.7,0.78-2.54,0.78H1202.97z M1206.59,552.59h1.4c1.04,0,1.74-0.51,2.1-1.53c0.13-0.38,0.2-0.85,0.2-1.4
		c0-0.92-0.23-1.62-0.67-2.09c-0.42-0.44-0.95-0.66-1.62-0.66h-1.4V552.59z M1206.59,562.44h1.4c1.14,0,1.92-0.59,2.36-1.76
		c0.15-0.4,0.23-0.86,0.23-1.38c0-1.24-0.24-2.15-0.71-2.72c-0.43-0.52-1.05-0.78-1.88-0.78h-1.4V562.44z"/>
	<path class="st2" d="M1220.9,560.65l-0.82,5.11h-3.49l3.78-22.25h4.62l3.73,22.25h-3.53l-0.79-5.11H1220.9z M1222.66,548.61
		l-1.24,8.77h2.49L1222.66,548.61z"/>
	<path class="st2" d="M1236.35,566.05c-1.48,0-2.74-0.52-3.77-1.55c-1.04-1.04-1.55-2.29-1.55-3.75v-12.15
		c0-1.48,0.52-2.74,1.56-3.77c1.04-1.04,2.3-1.55,3.76-1.55c1.48,0,2.73,0.52,3.76,1.56c1.03,1.04,1.54,2.3,1.54,3.76v2.54h-3.48
		v-2.61c0-0.53-0.19-0.99-0.57-1.37c-0.38-0.38-0.83-0.57-1.37-0.57c-0.53,0-0.99,0.19-1.36,0.57c-0.37,0.38-0.56,0.83-0.56,1.37
		v12.18c0,0.53,0.19,0.99,0.56,1.36c0.37,0.37,0.83,0.56,1.36,0.56c0.53,0,0.99-0.19,1.37-0.56s0.57-0.83,0.57-1.36v-3.07h3.48v3.11
		c0,1.48-0.52,2.73-1.56,3.76C1239.05,565.53,1237.8,566.05,1236.35,566.05z"/>
	<path class="st2" d="M1247.76,558.71v7.06h-3.36V543.5h3.36v7.94l4.1-7.94h3.58l-4.59,9.08l5.39,13.18h-3.94l-3.52-9.04
		L1247.76,558.71z"/>
	<path class="st2" d="M1258.97,565.76V543.5h9.55v3.37h-6.2v6.07h4.53v3.37h-4.53v6.07h6.2v3.37H1258.97z"/>
	<path class="st2" d="M1274.6,543.5l4.45,14.96V543.5h3.36v22.27h-3.6l-4.62-14.26v14.26h-3.36V543.5H1274.6z"/>
	<path class="st2" d="M1295.95,560.44c0,1.47-0.51,2.72-1.54,3.76c-1.03,1.04-2.27,1.56-3.73,1.56h-5.27V543.5h5.27
		c1.47,0,2.71,0.52,3.74,1.56c1.02,1.04,1.54,2.29,1.54,3.75V560.44z M1288.76,562.44h2.02c0.53,0,0.98-0.19,1.35-0.58
		c0.37-0.38,0.55-0.84,0.55-1.36v-11.65c0-0.53-0.19-0.99-0.56-1.37c-0.37-0.38-0.82-0.57-1.34-0.57h-2.02V562.44z"/>
</g>
<g>
	<path class="st2" d="M902.65,566.39h-3.36v-22.27h9.55v3.37h-6.2v6.07h4.53v3.37h-4.53V566.39z"/>
	<path class="st2" d="M916.44,544.14c1.87,0,3.24,0.51,4.12,1.54c0.77,0.9,1.15,2.15,1.15,3.76v3.23c0,1.57-0.6,2.91-1.79,4
		l2.49,9.71h-3.63l-2.04-8.38c-0.09,0-0.2,0-0.3,0h-1.94v8.38h-3.36v-22.25H916.44z M918.45,549.5c0-1.29-0.64-1.94-1.92-1.94h-2.02
		v7.12h2.02c0.53,0,0.99-0.19,1.36-0.57c0.37-0.38,0.56-0.83,0.56-1.37V549.5z"/>
	<path class="st2" d="M930.03,543.86c1.48,0,2.74,0.52,3.77,1.56c1.04,1.04,1.55,2.3,1.55,3.76v12.14c0,1.48-0.52,2.74-1.56,3.77
		c-1.04,1.04-2.3,1.55-3.76,1.55c-1.48,0-2.73-0.52-3.76-1.56c-1.03-1.04-1.54-2.3-1.54-3.76v-12.14c0-1.48,0.52-2.74,1.56-3.77
		C927.32,544.38,928.57,543.86,930.03,543.86z M931.86,549.11c0-0.53-0.19-0.99-0.56-1.36s-0.83-0.56-1.36-0.56
		c-0.53,0-0.99,0.19-1.37,0.56s-0.57,0.83-0.57,1.36v12.18c0,0.53,0.19,0.99,0.57,1.36s0.83,0.56,1.37,0.56
		c0.53,0,0.99-0.19,1.36-0.56s0.56-0.83,0.56-1.36V549.11z"/>
	<path class="st2" d="M942.07,544.12l4.45,14.96v-14.96h3.36v22.27h-3.6l-4.62-14.26v14.26h-3.36v-22.27H942.07z"/>
	<path class="st2" d="M956.15,547.51h-3.57v-3.37h10.48v3.37h-3.55v18.87h-3.36V547.51z"/>
</g>
<g>
	<path class="st2" d="M543.63,566.39h-3.36v-22.27h4.82l3.13,15.99l3-15.99h4.63v22.27h-3.36V552.4l-2.91,13.99h-2.7l-3.25-13.96
		V566.39z"/>
	<path class="st2" d="M562.96,561.28l-0.82,5.11h-3.49l3.78-22.25h4.62l3.73,22.25h-3.53l-0.79-5.11H562.96z M564.72,549.24
		l-1.24,8.77h2.49L564.72,549.24z"/>
	<path class="st2" d="M583.72,561.33c0,0.96-0.24,1.85-0.71,2.66c0.3,0.34,0.72,0.52,1.28,0.52v3.12c-1.68,0-2.83-0.53-3.45-1.58
		c-0.75,0.4-1.56,0.6-2.43,0.6c-1.48,0-2.74-0.52-3.77-1.56c-1.04-1.04-1.55-2.3-1.55-3.76v-12.14c0-1.48,0.52-2.74,1.56-3.77
		c1.04-1.04,2.3-1.55,3.76-1.55c1.48,0,2.73,0.52,3.76,1.57c1.03,1.05,1.54,2.3,1.54,3.76V561.33z M580.24,549.11
		c0-0.53-0.19-0.99-0.57-1.36s-0.83-0.56-1.37-0.56c-0.53,0-0.99,0.19-1.36,0.56c-0.37,0.37-0.56,0.83-0.56,1.36v12.18
		c0,0.53,0.19,0.99,0.56,1.36c0.37,0.37,0.83,0.56,1.36,0.56c0.53,0,0.99-0.19,1.37-0.56s0.57-0.83,0.57-1.36V549.11z"/>
	<path class="st2" d="M591.91,566.64c-1.48,0-2.73-0.52-3.76-1.54c-1.03-1.03-1.54-2.28-1.54-3.75v-17.21h3.28v17.17
		c0,0.53,0.19,0.99,0.57,1.36s0.83,0.56,1.37,0.56c0.53,0,0.99-0.19,1.36-0.56s0.56-0.83,0.56-1.36v-17.17h3.5v17.21
		c0,1.49-0.52,2.75-1.56,3.76C594.63,566.13,593.37,566.64,591.91,566.64z"/>
	<path class="st2" d="M600.22,566.39v-22.27h9.55v3.37h-6.2v6.07h4.53v3.37h-4.53v6.07h6.2v3.37H600.22z"/>
	<path class="st2" d="M615.64,547.51h-3.57v-3.37h10.48v3.37H619v18.87h-3.36V547.51z"/>
	<path class="st2" d="M626.51,561.28l-0.82,5.11h-3.49l3.78-22.25h4.62l3.73,22.25h-3.53l-0.79-5.11H626.51z M628.27,549.24
		l-1.24,8.77h2.49L628.27,549.24z"/>
	<path class="st2" d="M641.96,566.67c-1.48,0-2.74-0.52-3.77-1.55c-1.04-1.04-1.55-2.29-1.55-3.75v-12.15
		c0-1.48,0.52-2.74,1.56-3.77c1.04-1.04,2.3-1.55,3.76-1.55c1.48,0,2.73,0.52,3.76,1.56c1.03,1.04,1.54,2.3,1.54,3.76v2.54h-3.48
		v-2.61c0-0.53-0.19-0.99-0.57-1.37c-0.38-0.38-0.83-0.57-1.37-0.57c-0.53,0-0.99,0.19-1.36,0.57c-0.37,0.38-0.56,0.83-0.56,1.37
		v12.18c0,0.53,0.19,0.99,0.56,1.36c0.37,0.37,0.83,0.56,1.36,0.56c0.53,0,0.99-0.19,1.37-0.56s0.57-0.83,0.57-1.36v-3.07h3.48v3.11
		c0,1.48-0.52,2.73-1.56,3.76C644.66,566.16,643.41,566.67,641.96,566.67z"/>
	<path class="st2" d="M653.37,566.39h-3.36v-22.25h3.36V566.39z"/>
	<path class="st2" d="M661.65,543.86c1.48,0,2.74,0.52,3.77,1.56c1.04,1.04,1.55,2.3,1.55,3.76v12.14c0,1.48-0.52,2.74-1.56,3.77
		c-1.04,1.04-2.3,1.55-3.76,1.55c-1.48,0-2.73-0.52-3.76-1.56c-1.03-1.04-1.54-2.3-1.54-3.76v-12.14c0-1.48,0.52-2.74,1.56-3.77
		C658.94,544.38,660.19,543.86,661.65,543.86z M663.48,549.11c0-0.53-0.19-0.99-0.56-1.36s-0.83-0.56-1.36-0.56
		c-0.53,0-0.99,0.19-1.37,0.56s-0.57,0.83-0.57,1.36v12.18c0,0.53,0.19,0.99,0.57,1.36s0.83,0.56,1.37,0.56
		c0.53,0,0.99-0.19,1.36-0.56s0.56-0.83,0.56-1.36V549.11z"/>
	<path class="st2" d="M673.69,544.12l4.45,14.96v-14.96h3.36v22.27h-3.6l-4.62-14.26v14.26h-3.36v-22.27H673.69z"/>
</g>
<g>
	<path class="st2" d="M1604.17,546.89h-3.57v-3.37h10.48v3.37h-3.55v18.87h-3.36V546.89z"/>
	<path class="st2" d="M1613.77,565.76V543.5h9.55v3.37h-6.2v6.07h4.53v3.37h-4.53v6.07h6.2v3.37H1613.77z"/>
	<path class="st2" d="M1636.73,560.22c0.02,1.55-0.38,2.88-1.21,3.98c-0.54,0.75-1.31,1.27-2.31,1.58
		c-0.53,0.17-1.15,0.25-1.86,0.25c-1.31,0-2.4-0.33-3.27-0.98c-0.72-0.53-1.29-1.26-1.71-2.18c-0.42-0.92-0.67-1.97-0.74-3.15
		l3.2-0.23c0.14,1.3,0.48,2.24,1.03,2.82c0.4,0.44,0.86,0.65,1.38,0.62c0.73-0.02,1.32-0.38,1.76-1.08
		c0.22-0.34,0.34-0.83,0.34-1.47c0-0.92-0.42-1.84-1.26-2.75c-0.66-0.63-1.66-1.57-2.98-2.83c-1.11-1.08-1.9-2.04-2.36-2.9
		c-0.5-0.96-0.75-2-0.75-3.13c0-2.03,0.68-3.56,2.04-4.6c0.84-0.63,1.88-0.94,3.12-0.94c1.2,0,2.22,0.27,3.07,0.8
		c0.66,0.42,1.2,1,1.61,1.74c0.41,0.75,0.65,1.6,0.74,2.58l-3.21,0.59c-0.09-0.91-0.36-1.62-0.78-2.13
		c-0.31-0.37-0.75-0.55-1.33-0.55c-0.62,0-1.08,0.27-1.4,0.82c-0.26,0.44-0.39,0.98-0.39,1.63c0,1.02,0.44,2.05,1.31,3.11
		c0.33,0.4,0.83,0.88,1.49,1.42c0.78,0.65,1.3,1.11,1.54,1.37c0.83,0.83,1.47,1.65,1.92,2.45c0.21,0.38,0.38,0.73,0.51,1.05
		C1636.55,558.89,1636.72,559.6,1636.73,560.22z"/>
	<path class="st2" d="M1642.61,546.89h-3.57v-3.37h10.48v3.37h-3.55v18.87h-3.36V546.89z"/>
	<path class="st2" d="M1655.57,565.76h-3.36v-22.25h3.36V565.76z"/>
	<path class="st2" d="M1662.34,543.5l4.45,14.96V543.5h3.36v22.27h-3.6l-4.62-14.26v14.26h-3.36V543.5H1662.34z"/>
	<path class="st2" d="M1678.42,566.05c-1.48,0-2.74-0.52-3.77-1.56c-1.04-1.04-1.55-2.29-1.55-3.75v-12.15
		c0-1.48,0.52-2.74,1.56-3.77c1.04-1.04,2.3-1.55,3.76-1.55c1.48,0,2.73,0.52,3.76,1.56c1.03,1.04,1.54,2.3,1.54,3.76v2.54h-3.48
		v-2.61c0-0.53-0.19-0.99-0.57-1.37c-0.38-0.38-0.83-0.57-1.37-0.57c-0.53,0-0.99,0.19-1.36,0.57c-0.37,0.38-0.56,0.83-0.56,1.37
		v12.18c0,0.53,0.19,0.99,0.56,1.36c0.37,0.37,0.83,0.56,1.36,0.56c0.53,0,0.99-0.19,1.37-0.56c0.38-0.37,0.57-0.82,0.57-1.35v-4.37
		h-1.86v-3.37h5.34v7.78c0,1.48-0.52,2.73-1.56,3.76C1681.12,565.53,1679.88,566.05,1678.42,566.05z"/>
</g>
</svg>
