<?xml version="1.0" encoding="utf-8"?>
<!-- Generator: Adobe Illustrator 24.0.0, SVG Export Plug-In . SVG Version: 6.00 Build 0)  -->
<svg version="1.1" id="Layer_1" xmlns="http://www.w3.org/2000/svg" xmlns:xlink="http://www.w3.org/1999/xlink" x="0px" y="0px"
	 viewBox="0 0 1920 1080" style="enable-background:new 0 0 1920 1080;" xml:space="preserve">
<style type="text/css">
	.st0{fill:#606060;}
	.st1{clip-path:url(#SVGID_2_);}
	.st2{fill:url(#SVGID_3_);}
	.st3{fill:url(#SVGID_4_);}
	.st4{fill:#A8A8A8;}
	.st5{fill:#F4F4F4;}
	.st6{fill:#FFFFFF;}
	.st7{fill:#F2F2F2;}
	.st8{fill:#D33527;}
	.st9{fill:#443C83;}
	.st10{fill:#444444;}
</style>
<g>
	<path class="st0" d="M879.55,491.01c4.9,0,6.81,3.09,6.81,7.72v3.45c0,5.04-2.32,7.54-7.36,7.54h-3.95v13.08h-2.09v-31.79H879.55z
		 M879,507.81c3.68,0,5.27-1.63,5.27-5.49v-3.72c0-3.45-1.18-5.68-4.72-5.68h-4.5v14.89H879z"/>
	<path class="st0" d="M896.21,491.01c4.86,0,6.81,2.68,6.81,7.17v2.77c0,3.72-1.45,5.86-4.59,6.58c3.27,0.73,4.59,3.04,4.59,6.49
		v4.95c0,1.32,0.09,2.77,0.77,3.81h-2.18c-0.54-0.95-0.68-2.09-0.68-3.81v-5c0-4.22-2.32-5.4-5.95-5.4h-3.31v14.21h-2.09v-31.79
		H896.21z M895.03,506.68c3.72,0,5.9-1.04,5.9-5.31v-3c0-3.41-1.32-5.45-4.77-5.45h-4.5v13.76H895.03z"/>
	<path class="st0" d="M906.97,498.77c0-4.63,2.13-8.04,6.95-8.04c4.9,0,7.04,3.41,7.04,8.04v16.26c0,4.63-2.13,8.04-7.04,8.04
		c-4.81,0-6.95-3.41-6.95-8.04V498.77z M909.06,515.17c0,3.45,1.36,5.99,4.86,5.99c3.54,0,4.95-2.54,4.95-5.99v-16.53
		c0-3.45-1.41-5.99-4.95-5.99c-3.5,0-4.86,2.54-4.86,5.99V515.17z"/>
	<path class="st0" d="M930.99,491.01c4.9,0,6.81,3.09,6.81,7.72v3.45c0,5.04-2.32,7.54-7.36,7.54h-3.95v13.08h-2.09v-31.79H930.99z
		 M930.44,507.81c3.68,0,5.27-1.63,5.27-5.49v-3.72c0-3.45-1.18-5.68-4.72-5.68h-4.5v14.89H930.44z"/>
	<path class="st0" d="M943.11,491.01v31.79h-2.09v-31.79H943.11z"/>
	<path class="st0" d="M957.5,505.72v1.91h-8.67v13.26h10.44v1.91h-12.53v-31.79h12.53v1.91h-10.44v12.81H957.5z"/>
	<path class="st0" d="M968.17,522.8v-29.88h-6.49v-1.91h15.03v1.91h-6.45v29.88H968.17z"/>
	<path class="st0" d="M980.75,515.76l-1.59,7.04h-1.91l6.95-31.83h3.04l7.08,31.83h-2.09l-1.59-7.04H980.75z M981.07,513.94h9.26
		l-4.68-20.57L981.07,513.94z"/>
	<path class="st0" d="M1004.13,491.01c4.86,0,6.81,2.68,6.81,7.17v2.77c0,3.72-1.45,5.86-4.59,6.58c3.27,0.73,4.59,3.04,4.59,6.49
		v4.95c0,1.32,0.09,2.77,0.77,3.81h-2.18c-0.54-0.95-0.68-2.09-0.68-3.81v-5c0-4.22-2.32-5.4-5.95-5.4h-3.31v14.21h-2.09v-31.79
		H1004.13z M1002.95,506.68c3.72,0,5.9-1.04,5.9-5.31v-3c0-3.41-1.32-5.45-4.77-5.45h-4.5v13.76H1002.95z"/>
	<path class="st0" d="M1017.12,491.01v31.79h-2.09v-31.79H1017.12z"/>
	<path class="st0" d="M1020.61,498.77c0-4.63,2.13-8.04,6.95-8.04c4.9,0,7.04,3.41,7.04,8.04v16.26c0,4.63-2.13,8.04-7.04,8.04
		c-4.81,0-6.95-3.41-6.95-8.04V498.77z M1022.7,515.17c0,3.45,1.36,5.99,4.86,5.99c3.54,0,4.95-2.54,4.95-5.99v-16.53
		c0-3.45-1.41-5.99-4.95-5.99c-3.5,0-4.86,2.54-4.86,5.99V515.17z"/>
</g>
<g>
	<path class="st0" d="M901.86,472.33c0,3.41,1.27,6.04,4.77,6.04s4.77-2.63,4.77-6.04v-24.11h1.95v24.02c0,4.54-1.91,8.04-6.77,8.04
		s-6.81-3.5-6.81-8.04v-24.02h2.09V472.33z"/>
	<path class="st0" d="M930.33,455.89v0.68h-2v-0.82c0-3.36-1.27-5.9-4.72-5.9s-4.72,2.5-4.72,5.86c0,7.72,11.49,7.86,11.49,16.62
		c0,4.59-2,7.95-6.86,7.95s-6.86-3.36-6.86-7.95v-1.63h2v1.77c0,3.41,1.32,5.86,4.81,5.86s4.81-2.45,4.81-5.86
		c0-7.63-11.49-7.77-11.49-16.62c0-4.77,2.09-7.86,6.77-7.9C928.38,447.94,930.33,451.3,930.33,455.89z"/>
	<path class="st0" d="M935.73,472.33c0,3.41,1.27,6.04,4.77,6.04s4.77-2.63,4.77-6.04v-24.11h1.95v24.02c0,4.54-1.91,8.04-6.77,8.04
		s-6.81-3.5-6.81-8.04v-24.02h2.09V472.33z"/>
	<path class="st0" d="M953.85,472.96l-1.59,7.04h-1.91l6.95-31.83h3.04l7.08,31.83h-2.09l-1.59-7.04H953.85z M954.17,471.15h9.26
		l-4.68-20.57L954.17,471.15z"/>
	<path class="st0" d="M977.23,448.21c4.86,0,6.81,2.68,6.81,7.17v2.77c0,3.72-1.45,5.86-4.59,6.58c3.27,0.73,4.59,3.04,4.59,6.49
		v4.95c0,1.32,0.09,2.77,0.77,3.81h-2.18c-0.54-0.95-0.68-2.09-0.68-3.81v-5c0-4.22-2.32-5.4-5.95-5.4h-3.32V480h-2.09v-31.79
		H977.23z M976.05,463.88c3.72,0,5.9-1.04,5.9-5.31v-3c0-3.41-1.32-5.45-4.77-5.45h-4.5v13.76H976.05z"/>
	<path class="st0" d="M990.21,448.21V480h-2.09v-31.79H990.21z"/>
	<path class="st0" d="M993.71,455.98c0-4.63,2.13-8.04,6.95-8.04c4.9,0,7.04,3.41,7.04,8.04v16.26c0,4.63-2.13,8.04-7.04,8.04
		c-4.81,0-6.95-3.41-6.95-8.04V455.98z M995.8,472.37c0,3.45,1.36,5.99,4.86,5.99c3.54,0,4.95-2.54,4.95-5.99v-16.53
		c0-3.45-1.41-5.99-4.95-5.99c-3.5,0-4.86,2.54-4.86,5.99V472.37z"/>
</g>
<g>
	<defs>
		<circle id="SVGID_1_" cx="954.69" cy="277.51" r="141.65"/>
	</defs>
	<use xlink:href="#SVGID_1_"  style="overflow:visible;fill:#DBDBDB;"/>
	<clipPath id="SVGID_2_">
		<use xlink:href="#SVGID_1_"  style="overflow:visible;"/>
	</clipPath>
	<g class="st1">
		<linearGradient id="SVGID_3_" gradientUnits="userSpaceOnUse" x1="907.9744" y1="357.9207" x2="1002.2947" y2="357.9207">
			<stop  offset="0" style="stop-color:#A1A1A1"/>
			<stop  offset="0.0578" style="stop-color:#B2B2B2"/>
			<stop  offset="0.1872" style="stop-color:#D4D4D4"/>
			<stop  offset="0.3108" style="stop-color:#ECECEC"/>
			<stop  offset="0.4253" style="stop-color:#FAFAFA"/>
			<stop  offset="0.5215" style="stop-color:#FFFFFF"/>
			<stop  offset="0.6449" style="stop-color:#FCFCFB"/>
			<stop  offset="0.7549" style="stop-color:#F1F1F1"/>
			<stop  offset="0.8598" style="stop-color:#DFDFDE"/>
			<stop  offset="0.9609" style="stop-color:#C6C6C5"/>
			<stop  offset="1" style="stop-color:#BABAB9"/>
		</linearGradient>
		<path class="st2" d="M1002.29,375.65c-31.24-11.07-62.83-10.7-94.32,0v-29.57c31.7-8.11,63.12-7.58,94.32,0V375.65z"/>
		<linearGradient id="SVGID_4_" gradientUnits="userSpaceOnUse" x1="955.7601" y1="436.6811" x2="955.7601" y2="306.0331">
			<stop  offset="0" style="stop-color:#FFFFFF"/>
			<stop  offset="0.243" style="stop-color:#FBFBFB"/>
			<stop  offset="0.4799" style="stop-color:#F0F0EF"/>
			<stop  offset="0.7145" style="stop-color:#DCDCDC"/>
			<stop  offset="0.9463" style="stop-color:#C1C1C0"/>
			<stop  offset="1" style="stop-color:#BABAB9"/>
		</linearGradient>
		<path class="st3" d="M988.35,320.9c-2.36-0.01,1.89,29.96,4.07,37.15c4.97,16.39,65.84,30.27,66.29,41.15
			c0.12,2.84,0,29.92,0,29.92H852.75l19.18-45.52l14.59-3.78l7.76-3.67c1.49-0.71,2.91-1.57,4.23-2.56l15.95-12.11
			c0,0,5-6.25,4.59-15.71c-0.42-9.46-0.42-24.85-0.42-24.85H988.35z"/>
		<path class="st4" d="M905.49,274.72c0,0-10.92-20.34-12.84-23.51c-1.92-3.16,1.44-14.01,0-16.27c-1.44-2.26-1.92-35.24,9.6-45.18
			c11.51-9.94,18.23-12.65,18.23-12.65c2.85-2.46,21.82-9.39,29.79-8.13c23.98,3.77,19.99,2.54,24.42,2.26
			c10.18,1.64,17.96,4.38,16.75,11.05c3.83-1.97,6.88-2,10.11,0.24c-0.89,1.89-1,3.13,0,4.07c0,0,12.47,0.45,12.47,31.63
			c0,30.02-2.33,40.75-5.76,42.47c-3.43,1.72-9.75,7.82-9.75,7.82s1.59-54.34-13.76-53.91c-15.35,0.43-26.6,8.17-63.81,0
			C912.8,212.83,901.17,263.88,905.49,274.72z"/>
		<path class="st5" d="M904.23,293.83c0,0,6.61,32.41,23.23,42.47c25.95,15.71,43.77,2.39,43.77,2.39s20.71-18.56,24.1-29.49
			c3.03-9.77,4.1-15.36,4.1-15.36s2.73,0,4.56-2.26c1.82-2.26,2.28-16.72,3.64-20.78c1.37-4.07,2.28-10.84-2.28-10.39
			c-4.56,0.45-6.83,8.13-6.83,8.13s4.14-13.67,1.4-21.8c-2.73-8.13-0.95-25.19-11.88-31.97c-10.93-6.78-24.85-4.52-31.56-2.26
			c-6.71,2.26-20.83,0.9-29.48-2.26c-8.66-3.16-18.33,11.22-19.69,18c-1.37,6.78-3.54,34.87-3.08,40.29
			c0.46,5.42,0.46,5.42,0.46,5.42s-3.19-14.46-5.92-15.36c-2.73-0.9-7.74-0.9-6.83,9.94s2.02,2.45,5.92,22.59
			C900.13,302.87,904.23,293.83,904.23,293.83z"/>
		<path class="st6" d="M907.24,346.3c0,0-3.97,23.36-6.52,24.02c-2.54,0.66,28.22,15.81,39.53,17.26c0,0,6.8-11.76,14.41-15.32
			C954.67,372.26,908.81,356.7,907.24,346.3z"/>
		<path class="st6" d="M1001.7,346.08c0,0,4.18,23.32,6.7,23.95c2.52,0.63-27.74,16.11-38.9,17.69c0,0-6.84-11.69-14.41-15.16
			C955.09,372.56,1000.26,356.5,1001.7,346.08z"/>
	</g>
	<use xlink:href="#SVGID_1_"  style="overflow:visible;fill:none;stroke:#D33527;stroke-width:4;stroke-miterlimit:10;"/>
</g>
<g>
	<g>
		<g>
			<path class="st7" d="M157.22,629.9c0-16.38,7.61-26.95,22.99-26.95c15.52,0,23.13,10.57,23.13,26.95v55.28
				c0,16.38-7.61,27.1-23.13,27.1c-15.37,0-22.99-10.72-22.99-27.1V629.9z M168.28,685.95c0,9.65,3.88,15.46,11.92,15.46
				c8.19,0,11.92-5.82,11.92-15.46v-56.65c0-9.8-3.74-15.62-11.92-15.62c-8.04,0-11.92,5.82-11.92,15.62V685.95z"/>
			<path class="st7" d="M234.51,623.47c-3.74,2.45-8.62,4.29-13.94,4.59v-9.8c10.92-0.46,14.65-6.74,17.24-14.24h7.76v107.19h-11.06
				V623.47z"/>
		</g>
		<g>
			<g>
				<ellipse class="st8" cx="254.72" cy="743.98" rx="57.7" ry="61.5"/>
				<ellipse class="st6" cx="254.72" cy="743.98" rx="45.7" ry="48.71"/>
				<ellipse class="st8" cx="254.72" cy="743.98" rx="34.52" ry="36.8"/>
				<ellipse class="st6" cx="254.72" cy="743.98" rx="22.03" ry="23.48"/>
				<ellipse class="st8" cx="254.72" cy="743.98" rx="10.19" ry="10.86"/>
			</g>
			
				<rect x="251.33" y="730.77" transform="matrix(0.8672 -0.498 0.498 0.8672 -327.4164 235.0282)" class="st9" width="51.06" height="1"/>
			<polygon class="st9" points="312.47,716.94 295.35,727.33 288.03,724.74 289.87,717.06 306.98,706.67 305.74,714.23 			"/>
		</g>
		<g>
			<path class="st10" d="M351.21,750.21v1.85h-2.18v-1.97c0-1.85-0.74-2.97-2.41-2.97c-1.65,0-2.41,1.12-2.41,2.97v10.89
				c0,1.85,0.77,2.97,2.41,2.97c1.68,0,2.41-1.12,2.41-2.97v-2.68h2.18v2.56c0,3.12-1.47,5.18-4.65,5.18
				c-3.15,0-4.62-2.06-4.62-5.18v-10.66c0-3.12,1.47-5.18,4.62-5.18C349.74,745.03,351.21,747.09,351.21,750.21z"/>
			<path class="st10" d="M357.89,745.24c3.24,0,4.59,1.65,4.59,4.71v1.68c0,2.27-0.79,3.68-2.56,4.24c1.88,0.56,2.59,2.09,2.59,4.3
				v3.21c0,0.91,0.03,1.77,0.41,2.47h-2.33c-0.27-0.59-0.38-1.12-0.38-2.5v-3.24c0-2.33-1.09-3.06-3-3.06h-1.62v8.8h-2.3v-20.6
				H357.89z M357.3,754.95c1.83,0,2.91-0.59,2.91-2.83v-1.97c0-1.85-0.68-2.83-2.38-2.83h-2.24v7.62H357.3z"/>
			<path class="st10" d="M372.23,754.36v2.06h-5.03v7.33h6.18v2.09h-8.48v-20.6h8.48v2.09h-6.18v7.03H372.23z"/>
			<path class="st10" d="M377.82,761.69l-0.79,4.15h-2.12l3.94-20.6h3.33l3.94,20.6h-2.3l-0.79-4.15H377.82z M378.12,759.72h4.59
				l-2.33-11.89L378.12,759.72z"/>
			<path class="st10" d="M392.51,745.24c3.24,0,4.59,1.65,4.59,4.71v1.68c0,2.27-0.79,3.68-2.56,4.24c1.88,0.56,2.59,2.09,2.59,4.3
				v3.21c0,0.91,0.03,1.77,0.41,2.47h-2.33c-0.27-0.59-0.38-1.12-0.38-2.5v-3.24c0-2.33-1.09-3.06-3-3.06h-1.62v8.8h-2.3v-20.6
				H392.51z M391.93,754.95c1.82,0,2.91-0.59,2.91-2.83v-1.97c0-1.85-0.68-2.83-2.38-2.83h-2.24v7.62H391.93z"/>
			<path class="st10" d="M408.68,745.24c3.24,0,4.59,1.65,4.59,4.71v1.68c0,2.27-0.79,3.68-2.56,4.24c1.88,0.56,2.59,2.09,2.59,4.3
				v3.21c0,0.91,0.03,1.77,0.41,2.47h-2.33c-0.27-0.59-0.38-1.12-0.38-2.5v-3.24c0-2.33-1.09-3.06-3-3.06h-1.62v8.8h-2.3v-20.6
				H408.68z M408.09,754.95c1.82,0,2.91-0.59,2.91-2.83v-1.97c0-1.85-0.68-2.83-2.38-2.83h-2.24v7.62H408.09z"/>
			<path class="st10" d="M423.01,754.36v2.06h-5.03v7.33h6.18v2.09h-8.48v-20.6h8.48v2.09h-6.18v7.03H423.01z"/>
			<path class="st10" d="M435.2,750.18v0.56h-2.18v-0.68c0-1.85-0.71-2.94-2.35-2.94s-2.35,1.09-2.35,2.91
				c0,4.62,6.92,5.06,6.92,10.86c0,3.12-1.5,5.15-4.65,5.15s-4.62-2.03-4.62-5.15v-1.18h2.15v1.29c0,1.85,0.77,2.94,2.41,2.94
				c1.65,0,2.41-1.09,2.41-2.94c0-4.59-6.89-5.03-6.89-10.83c0-3.18,1.47-5.15,4.56-5.15C433.73,745.03,435.2,747.06,435.2,750.18z"
				/>
			<path class="st10" d="M440.21,765.84v-18.51h-3.8v-2.09h9.86v2.09h-3.8v18.51H440.21z"/>
			<path class="st10" d="M449.04,761.69l-0.79,4.15h-2.12l3.94-20.6h3.33l3.94,20.6h-2.3l-0.79-4.15H449.04z M449.33,759.72h4.59
				l-2.33-11.89L449.33,759.72z"/>
			<path class="st10" d="M461.32,760.99c0,1.85,0.74,2.97,2.41,2.97c1.65,0,2.38-1.12,2.38-2.97v-15.75h2.15v15.63
				c0,3.12-1.44,5.21-4.62,5.21c-3.15,0-4.59-2.09-4.59-5.21v-15.63h2.27V760.99z"/>
			<path class="st10" d="M475.12,745.24c3.24,0,4.59,1.65,4.59,4.71v1.68c0,2.27-0.79,3.68-2.56,4.24c1.88,0.56,2.59,2.09,2.59,4.3
				v3.21c0,0.91,0.03,1.77,0.41,2.47h-2.33c-0.27-0.59-0.38-1.12-0.38-2.5v-3.24c0-2.33-1.09-3.06-3-3.06h-1.62v8.8h-2.3v-20.6
				H475.12z M474.54,754.95c1.82,0,2.91-0.59,2.91-2.83v-1.97c0-1.85-0.68-2.83-2.38-2.83h-2.24v7.62H474.54z"/>
			<path class="st10" d="M484.46,761.69l-0.79,4.15h-2.12l3.94-20.6h3.33l3.94,20.6h-2.3l-0.79-4.15H484.46z M484.75,759.72h4.59
				l-2.33-11.89L484.75,759.72z"/>
			<path class="st10" d="M496.59,765.84h-2.06v-20.6h2.91l4.77,14.89v-14.89h2.03v20.6h-2.38l-5.27-16.66V765.84z"/>
			<path class="st10" d="M509.57,765.84v-18.51h-3.8v-2.09h9.86v2.09h-3.8v18.51H509.57z"/>
			<path class="st10" d="M524.52,754.36v2.06h-5.03v7.33h6.18v2.09h-8.48v-20.6h8.48v2.09h-6.18v7.03H524.52z"/>
			<path class="st10" d="M536.71,750.18v0.56h-2.18v-0.68c0-1.85-0.71-2.94-2.35-2.94s-2.35,1.09-2.35,2.91
				c0,4.62,6.92,5.06,6.92,10.86c0,3.12-1.5,5.15-4.65,5.15s-4.62-2.03-4.62-5.15v-1.18h2.15v1.29c0,1.85,0.77,2.94,2.41,2.94
				c1.65,0,2.41-1.09,2.41-2.94c0-4.59-6.89-5.03-6.89-10.83c0-3.18,1.47-5.15,4.56-5.15C535.24,745.03,536.71,747.06,536.71,750.18
				z"/>
		</g>
	</g>
	<polygon class="st8" points="567.29,860.68 306.97,860.68 306.97,831.54 307.97,831.54 307.97,859.68 566.29,859.68 566.29,641.12 
		307.47,641.12 307.47,640.12 567.29,640.12 	"/>
</g>
<g>
	<g>
		<g>
			<path class="st7" d="M734.44,629.9c0-16.38,7.61-26.95,22.99-26.95c15.52,0,23.13,10.57,23.13,26.95v55.28
				c0,16.38-7.61,27.1-23.13,27.1c-15.37,0-22.99-10.72-22.99-27.1V629.9z M745.5,685.95c0,9.65,3.88,15.46,11.92,15.46
				c8.19,0,11.92-5.82,11.92-15.46v-56.65c0-9.8-3.74-15.62-11.92-15.62c-8.04,0-11.92,5.82-11.92,15.62V685.95z"/>
			<path class="st7" d="M836.44,630.06c0,32.31-34.05,43.95-34.19,68.6v1.68h33.04v10.87h-44.1v-9.19
				c0-34.61,34.05-41.34,34.05-71.51c0-11.03-3.45-16.84-11.78-16.84c-8.19,0-11.78,6.28-11.78,15.77v9.49h-10.49v-8.73
				c0-16.38,7.04-27.26,22.55-27.26C829.4,602.96,836.44,613.67,836.44,630.06z"/>
		</g>
		<g>
			<g>
				<g>
					<path class="st8" d="M813.49,800.22l-4.17-2.97c-1.89-1.35-2.33-3.97-0.98-5.86l28.05-39.5l11.02,7.85l-28.05,39.5
						C818.01,801.12,815.38,801.56,813.49,800.22z"/>
					<polygon class="st8" points="835.35,776.79 847.41,759.73 836.39,751.88 824.08,769.29 					"/>
				</g>
				<path class="st8" d="M868.93,666.96c-29.8,0-53.96,24.16-53.96,53.96c0,29.8,24.16,53.96,53.96,53.96
					c29.8,0,53.96-24.16,53.96-53.96C922.89,691.12,898.73,666.96,868.93,666.96z M868.93,762.07c-22.73,0-41.15-18.42-41.15-41.15
					c0-22.73,18.42-41.15,41.15-41.15c22.73,0,41.15,18.42,41.15,41.15C910.08,743.65,891.66,762.07,868.93,762.07z"/>
			</g>
			<g>
				<circle class="st8" cx="868.76" cy="706.35" r="9.11"/>
				<path class="st8" d="M881.02,743.36h-24.07c-0.45,0-0.81-0.36-0.81-0.81v-20.4c0-1.68,1.36-3.04,3.04-3.04h19.6
					c1.68,0,3.04,1.36,3.04,3.04v20.4C881.83,743,881.47,743.36,881.02,743.36z"/>
			</g>
		</g>
	</g>
	<polygon class="st8" points="1148.03,860.68 887.7,860.68 887.7,831.54 888.7,831.54 888.7,859.68 1147.03,859.68 1147.03,641.12 
		888.2,641.12 888.2,640.12 1148.03,640.12 	"/>
</g>
<g>
	<g>
		<g>
			<path class="st7" d="M1311.78,629.9c0-16.38,7.61-26.95,22.99-26.95c15.52,0,23.13,10.57,23.13,26.95v55.28
				c0,16.38-7.61,27.1-23.13,27.1c-15.37,0-22.99-10.72-22.99-27.1V629.9z M1322.84,685.95c0,9.65,3.88,15.46,11.92,15.46
				c8.19,0,11.92-5.82,11.92-15.46v-56.65c0-9.8-3.74-15.62-11.92-15.62c-8.04,0-11.92,5.82-11.92,15.62V685.95z"/>
			<path class="st7" d="M1413.2,629.9v2.76c0,11.03-4.17,18.83-12.21,22.05c8.48,3.37,12.21,11.48,12.21,22.2v8.27
				c0,16.38-7.18,27.1-22.7,27.1c-15.37,0-22.55-10.72-22.55-27.1v-7.35h10.49v8.12c0,9.65,3.74,15.46,11.78,15.46
				c8.19,0,11.78-5.66,11.78-16.54v-8.27c0-10.57-4.17-15.62-12.64-15.93h-6.03v-10.72h6.61c7.47-0.3,12.07-5.36,12.07-14.7v-4.9
				c0-11.02-3.59-16.69-11.78-16.69c-8.04,0-11.78,5.97-11.78,15.62v5.51h-10.49v-4.9c0-16.38,7.18-26.95,22.55-26.95
				C1406.02,602.96,1413.2,613.52,1413.2,629.9z"/>
		</g>
		<g>
			<path class="st8" d="M1493.5,797.02h-129.58c-2.09,0-3.78-1.69-3.78-3.78v-96.48c0-2.09,1.69-3.78,3.78-3.78h129.58
				c2.09,0,3.78,1.69,3.78,3.78v96.48C1497.28,795.33,1495.59,797.02,1493.5,797.02z"/>
			<path class="st8" d="M1360.14,777.68v32.49c0,2.6,3.12,3.93,5,2.13l20.44-19.57L1360.14,777.68z"/>
			<g>
				<g>
					<g>
						<path class="st6" d="M1397.57,729.55h-14c-0.21,0-0.38-0.17-0.38-0.38v-14c0-0.21,0.17-0.38,0.38-0.38h14
							c0.21,0,0.38,0.17,0.38,0.38v14C1397.94,729.38,1397.77,729.55,1397.57,729.55z M1383.94,728.8h13.25v-13.25h-13.25V728.8z"/>
						<path class="st6" d="M1390.19,724.51c-0.09,0-0.18-0.03-0.25-0.09l-2.8-2.43l0.49-0.57l2.52,2.18l3.02-3.54l0.57,0.49
							l-3.27,3.83c-0.06,0.08-0.16,0.12-0.26,0.13C1390.21,724.51,1390.2,724.51,1390.19,724.51z"/>
					</g>
					<g>
						<path class="st6" d="M1397.57,753.91h-14c-0.21,0-0.38-0.17-0.38-0.38v-14c0-0.21,0.17-0.38,0.38-0.38h14
							c0.21,0,0.38,0.17,0.38,0.38v14C1397.94,753.75,1397.77,753.91,1397.57,753.91z M1383.94,753.16h13.25v-13.25h-13.25V753.16z"
							/>
						<path class="st6" d="M1390.19,748.87c-0.09,0-0.18-0.03-0.25-0.09l-2.8-2.43l0.49-0.57l2.51,2.18l3.02-3.54l0.57,0.49
							l-3.27,3.83c-0.06,0.08-0.16,0.12-0.26,0.13C1390.21,748.87,1390.2,748.87,1390.19,748.87z"/>
					</g>
					<g>
						<path class="st6" d="M1397.57,778.28h-14c-0.21,0-0.38-0.17-0.38-0.38v-14c0-0.21,0.17-0.38,0.38-0.38h14
							c0.21,0,0.38,0.17,0.38,0.38v14C1397.94,778.11,1397.77,778.28,1397.57,778.28z M1383.94,777.53h13.25v-13.25h-13.25V777.53z"
							/>
						<path class="st6" d="M1390.19,773.24c-0.09,0-0.18-0.03-0.25-0.09l-2.8-2.43l0.49-0.57l2.52,2.18l3.02-3.54l0.57,0.49
							l-3.27,3.83c-0.06,0.08-0.16,0.12-0.26,0.13C1390.21,773.24,1390.2,773.24,1390.19,773.24z"/>
					</g>
				</g>
				<g>
					<rect x="1412.53" y="717.55" class="st6" width="36.94" height="0.75"/>
					<rect x="1412.53" y="725.17" class="st6" width="54.42" height="0.75"/>
				</g>
				<g>
					<rect x="1412.53" y="741.52" class="st6" width="36.94" height="0.75"/>
					<rect x="1412.53" y="749.13" class="st6" width="54.42" height="0.75"/>
				</g>
				<g>
					<rect x="1412.53" y="765.49" class="st6" width="36.94" height="0.75"/>
					<rect x="1412.53" y="773.1" class="st6" width="54.42" height="0.75"/>
				</g>
			</g>
		</g>
	</g>
	<polygon class="st8" points="1725.37,860.68 1465.04,860.68 1465.04,831.54 1466.04,831.54 1466.04,859.68 1724.37,859.68 
		1724.37,641.12 1465.54,641.12 1465.54,640.12 1725.37,640.12 	"/>
</g>
<g>
	<path class="st10" d="M952.87,728.01V709.5h-3.8v-2.09h9.86v2.09h-3.8v18.51H952.87z"/>
	<path class="st10" d="M962.79,707.41v20.6h-2.3v-20.6H962.79z"/>
	<path class="st10" d="M972.47,716.54v2.06h-5.03v7.33h6.18v2.09h-8.48v-20.6h8.48v2.09h-6.18v7.04H972.47z"/>
	<path class="st10" d="M977.77,728.01h-2.06v-20.6h2.91l4.77,14.89v-14.89h2.03v20.6h-2.38l-5.27-16.66V728.01z"/>
	<path class="st10" d="M995.11,716.54v2.06h-5.03v7.33h6.18v2.09h-8.48v-20.6h8.48v2.09h-6.18v7.04H995.11z"/>
	<path class="st10" d="M1005.27,723.86l-0.79,4.15h-2.12l3.94-20.6h3.33l3.94,20.6h-2.3l-0.79-4.15H1005.27z M1005.56,721.89h4.59
		l-2.33-11.89L1005.56,721.89z"/>
	<path class="st10" d="M1024.43,712.38v1.85h-2.18v-1.97c0-1.86-0.74-2.97-2.41-2.97c-1.65,0-2.41,1.12-2.41,2.97v10.89
		c0,1.85,0.77,2.97,2.41,2.97c1.68,0,2.41-1.12,2.41-2.97v-2.68h2.18v2.56c0,3.12-1.47,5.18-4.65,5.18c-3.15,0-4.62-2.06-4.62-5.18
		v-10.65c0-3.12,1.47-5.18,4.62-5.18C1022.96,707.21,1024.43,709.26,1024.43,712.38z"/>
	<path class="st10" d="M1035.62,712.38v1.85h-2.18v-1.97c0-1.86-0.74-2.97-2.41-2.97c-1.65,0-2.41,1.12-2.41,2.97v10.89
		c0,1.85,0.77,2.97,2.41,2.97c1.68,0,2.41-1.12,2.41-2.97v-2.68h2.18v2.56c0,3.12-1.47,5.18-4.65,5.18c-3.15,0-4.62-2.06-4.62-5.18
		v-10.65c0-3.12,1.47-5.18,4.62-5.18C1034.15,707.21,1035.62,709.26,1035.62,712.38z"/>
	<path class="st10" d="M1045.04,716.54v2.06h-5.03v7.33h6.18v2.09h-8.48v-20.6h8.48v2.09h-6.18v7.04H1045.04z"/>
	<path class="st10" d="M1057.23,712.36v0.56h-2.18v-0.68c0-1.86-0.71-2.94-2.35-2.94s-2.35,1.09-2.35,2.91
		c0,4.62,6.92,5.06,6.92,10.86c0,3.12-1.5,5.15-4.65,5.15s-4.62-2.03-4.62-5.15v-1.18h2.15v1.29c0,1.85,0.76,2.94,2.41,2.94
		s2.41-1.09,2.41-2.94c0-4.59-6.89-5.03-6.89-10.83c0-3.18,1.47-5.15,4.56-5.15C1055.76,707.21,1057.23,709.23,1057.23,712.36z"/>
	<path class="st10" d="M1059.09,712.38c0-3.15,1.56-5.18,4.71-5.18c3.18,0,4.74,2.03,4.74,5.18v10.65c0,3.12-1.56,5.18-4.74,5.18
		c-3.15,0-4.71-2.06-4.71-5.18V712.38z M1061.35,723.16c0,1.88,0.79,2.97,2.44,2.97c1.68,0,2.44-1.09,2.44-2.97v-10.89
		c0-1.86-0.77-2.97-2.44-2.97c-1.65,0-2.44,1.12-2.44,2.97V723.16z"/>
	<path class="st10" d="M1077.6,723.86l-0.79,4.15h-2.12l3.94-20.6h3.33l3.94,20.6h-2.3l-0.79-4.15H1077.6z M1077.9,721.89h4.59
		l-2.33-11.89L1077.9,721.89z"/>
	<path class="st10" d="M952.87,763.34v-18.51h-3.8v-2.09h9.86v2.09h-3.8v18.51H952.87z"/>
	<path class="st10" d="M960.31,747.71c0-3.15,1.56-5.18,4.71-5.18c3.18,0,4.74,2.03,4.74,5.18v10.66c0,3.12-1.56,5.18-4.74,5.18
		c-3.15,0-4.71-2.06-4.71-5.18V747.71z M962.58,758.49c0,1.88,0.79,2.97,2.44,2.97c1.68,0,2.44-1.09,2.44-2.97V747.6
		c0-1.85-0.76-2.97-2.44-2.97c-1.65,0-2.44,1.12-2.44,2.97V758.49z"/>
	<path class="st10" d="M976.77,742.74c3.21,0,4.68,1.94,4.68,5.12v10.39c0,3.15-1.47,5.09-4.68,5.09h-4.83v-20.6H976.77z
		 M976.74,761.25c1.65,0,2.44-1.03,2.44-2.91v-10.6c0-1.88-0.79-2.91-2.47-2.91h-2.47v16.42H976.74z"/>
	<path class="st10" d="M983.43,747.71c0-3.15,1.56-5.18,4.71-5.18c3.18,0,4.74,2.03,4.74,5.18v10.66c0,3.12-1.56,5.18-4.74,5.18
		c-3.15,0-4.71-2.06-4.71-5.18V747.71z M985.69,758.49c0,1.88,0.79,2.97,2.44,2.97c1.68,0,2.44-1.09,2.44-2.97V747.6
		c0-1.85-0.77-2.97-2.44-2.97c-1.65,0-2.44,1.12-2.44,2.97V758.49z"/>
	<path class="st10" d="M1003.97,747.68v0.56h-2.18v-0.68c0-1.85-0.71-2.94-2.36-2.94s-2.35,1.09-2.35,2.91
		c0,4.62,6.92,5.06,6.92,10.86c0,3.12-1.5,5.15-4.65,5.15s-4.62-2.03-4.62-5.15v-1.18h2.15v1.29c0,1.86,0.77,2.94,2.41,2.94
		s2.41-1.09,2.41-2.94c0-4.59-6.89-5.03-6.89-10.83c0-3.18,1.47-5.15,4.56-5.15C1002.5,742.53,1003.97,744.56,1003.97,747.68z"/>
	<path class="st10" d="M1019.49,747.68v0.56h-2.18v-0.68c0-1.85-0.71-2.94-2.36-2.94s-2.35,1.09-2.35,2.91
		c0,4.62,6.92,5.06,6.92,10.86c0,3.12-1.5,5.15-4.65,5.15s-4.62-2.03-4.62-5.15v-1.18h2.15v1.29c0,1.86,0.77,2.94,2.41,2.94
		s2.41-1.09,2.41-2.94c0-4.59-6.89-5.03-6.89-10.83c0-3.18,1.47-5.15,4.56-5.15C1018.02,742.53,1019.49,744.56,1019.49,747.68z"/>
	<path class="st10" d="M1023.7,758.49c0,1.86,0.74,2.97,2.41,2.97c1.65,0,2.38-1.12,2.38-2.97v-15.75h2.15v15.63
		c0,3.12-1.44,5.21-4.62,5.21c-3.15,0-4.59-2.09-4.59-5.21v-15.63h2.27V758.49z"/>
	<path class="st10" d="M1041.83,747.68v0.56h-2.18v-0.68c0-1.85-0.71-2.94-2.35-2.94s-2.35,1.09-2.35,2.91
		c0,4.62,6.92,5.06,6.92,10.86c0,3.12-1.5,5.15-4.65,5.15s-4.62-2.03-4.62-5.15v-1.18h2.15v1.29c0,1.86,0.76,2.94,2.41,2.94
		s2.41-1.09,2.41-2.94c0-4.59-6.89-5.03-6.89-10.83c0-3.18,1.47-5.15,4.56-5.15C1040.36,742.53,1041.83,744.56,1041.83,747.68z"/>
	<path class="st10" d="M959.05,778.07c3.24,0,4.59,1.65,4.59,4.71v1.68c0,2.27-0.79,3.68-2.56,4.24c1.88,0.56,2.59,2.09,2.59,4.3
		v3.21c0,0.91,0.03,1.77,0.41,2.47h-2.33c-0.26-0.59-0.38-1.12-0.38-2.5v-3.24c0-2.33-1.09-3.06-3-3.06h-1.62v8.8h-2.3v-20.6H959.05
		z M958.46,787.78c1.82,0,2.91-0.59,2.91-2.83v-1.97c0-1.85-0.68-2.82-2.38-2.82h-2.24v7.62H958.46z"/>
	<path class="st10" d="M973.38,787.19v2.06h-5.03v7.33h6.18v2.09h-8.48v-20.6h8.48v2.09h-6.18v7.03H973.38z"/>
	<path class="st10" d="M985.57,783.01v0.56h-2.18v-0.68c0-1.85-0.71-2.94-2.35-2.94s-2.35,1.09-2.35,2.91
		c0,4.62,6.92,5.06,6.92,10.86c0,3.12-1.5,5.15-4.65,5.15s-4.62-2.03-4.62-5.15v-1.18h2.15v1.29c0,1.86,0.76,2.94,2.41,2.94
		s2.41-1.09,2.41-2.94c0-4.59-6.89-5.03-6.89-10.83c0-3.18,1.47-5.15,4.56-5.15C984.1,777.86,985.57,779.89,985.57,783.01z"/>
	<path class="st10" d="M990.58,798.67v-18.51h-3.8v-2.09h9.86v2.09h-3.8v18.51H990.58z"/>
	<path class="st10" d="M999.41,794.52l-0.79,4.15h-2.12l3.94-20.6h3.33l3.94,20.6h-2.3l-0.79-4.15H999.41z M999.71,792.55h4.59
		l-2.33-11.89L999.71,792.55z"/>
	<path class="st10" d="M1011.69,793.81c0,1.86,0.74,2.97,2.41,2.97c1.65,0,2.38-1.12,2.38-2.97v-15.75h2.15v15.63
		c0,3.12-1.44,5.21-4.62,5.21c-3.15,0-4.59-2.09-4.59-5.21v-15.63h2.27V793.81z"/>
	<path class="st10" d="M1025.49,778.07c3.24,0,4.59,1.65,4.59,4.71v1.68c0,2.27-0.79,3.68-2.56,4.24c1.88,0.56,2.59,2.09,2.59,4.3
		v3.21c0,0.91,0.03,1.77,0.41,2.47h-2.33c-0.26-0.59-0.38-1.12-0.38-2.5v-3.24c0-2.33-1.09-3.06-3-3.06h-1.62v8.8h-2.3v-20.6
		H1025.49z M1024.91,787.78c1.82,0,2.91-0.59,2.91-2.83v-1.97c0-1.85-0.68-2.82-2.38-2.82h-2.24v7.62H1024.91z"/>
	<path class="st10" d="M1034.83,794.52l-0.79,4.15h-2.12l3.94-20.6h3.33l3.94,20.6h-2.3l-0.79-4.15H1034.83z M1035.12,792.55h4.59
		l-2.33-11.89L1035.12,792.55z"/>
	<path class="st10" d="M1046.96,798.67h-2.06v-20.6h2.91l4.77,14.89v-14.89h2.03v20.6h-2.38l-5.27-16.66V798.67z"/>
	<path class="st10" d="M1059.94,798.67v-18.51h-3.8v-2.09h9.86v2.09h-3.8v18.51H1059.94z"/>
	<path class="st10" d="M1074.89,787.19v2.06h-5.03v7.33h6.18v2.09h-8.48v-20.6h8.48v2.09h-6.18v7.03H1074.89z"/>
	<path class="st10" d="M1087.08,783.01v0.56h-2.18v-0.68c0-1.85-0.71-2.94-2.36-2.94s-2.35,1.09-2.35,2.91
		c0,4.62,6.92,5.06,6.92,10.86c0,3.12-1.5,5.15-4.65,5.15s-4.62-2.03-4.62-5.15v-1.18h2.15v1.29c0,1.86,0.77,2.94,2.41,2.94
		s2.41-1.09,2.41-2.94c0-4.59-6.89-5.03-6.89-10.83c0-3.18,1.47-5.15,4.56-5.15C1085.61,777.86,1087.08,779.89,1087.08,783.01z"/>
</g>
<g>
	<path class="st10" d="M1550.78,737.92v2.06h-5.03v7.33h6.18v2.09h-8.48v-20.6h8.48v2.09h-6.18v7.03H1550.78z"/>
	<path class="st10" d="M1558.87,728.79c3.21,0,4.68,1.94,4.68,5.12v10.39c0,3.15-1.47,5.09-4.68,5.09h-4.83v-20.6H1558.87z
		 M1558.84,747.31c1.65,0,2.44-1.03,2.44-2.91v-10.6c0-1.88-0.79-2.91-2.47-2.91h-2.47v16.42H1558.84z"/>
	<path class="st10" d="M1568,728.79v20.6h-2.3v-20.6H1568z"/>
	<path class="st10" d="M1573.33,749.4v-18.51h-3.8v-2.09h9.86v2.09h-3.8v18.51H1573.33z"/>
	<path class="st10" d="M1582.16,745.25l-0.79,4.15h-2.12l3.94-20.6h3.33l3.94,20.6h-2.3l-0.79-4.15H1582.16z M1582.46,743.28h4.59
		l-2.32-11.89L1582.46,743.28z"/>
	<path class="st10" d="M1596.85,728.79c3.24,0,4.59,1.65,4.59,4.71v1.68c0,2.27-0.79,3.68-2.56,4.24c1.88,0.56,2.59,2.09,2.59,4.3
		v3.21c0,0.91,0.03,1.77,0.41,2.47h-2.33c-0.26-0.59-0.38-1.12-0.38-2.5v-3.24c0-2.33-1.09-3.06-3-3.06h-1.62v8.8h-2.3v-20.6
		H1596.85z M1596.26,738.51c1.82,0,2.91-0.59,2.91-2.83v-1.97c0-1.85-0.68-2.83-2.38-2.83h-2.24v7.62H1596.26z"/>
	<path class="st10" d="M1548.04,764.12c3.24,0,4.59,1.65,4.59,4.71v1.68c0,2.27-0.79,3.68-2.56,4.24c1.88,0.56,2.59,2.09,2.59,4.3
		v3.21c0,0.91,0.03,1.77,0.41,2.47h-2.33c-0.27-0.59-0.38-1.12-0.38-2.5v-3.24c0-2.33-1.09-3.06-3-3.06h-1.62v8.8h-2.3v-20.6
		H1548.04z M1547.45,773.84c1.83,0,2.91-0.59,2.91-2.83v-1.97c0-1.85-0.68-2.83-2.38-2.83h-2.24v7.62H1547.45z"/>
	<path class="st10" d="M1562.38,773.25v2.06h-5.03v7.33h6.18v2.09h-8.48v-20.6h8.48v2.09h-6.18v7.03H1562.38z"/>
	<path class="st10" d="M1574.56,769.07v0.56h-2.18v-0.68c0-1.85-0.71-2.94-2.36-2.94s-2.35,1.09-2.35,2.91
		c0,4.62,6.92,5.06,6.92,10.86c0,3.12-1.5,5.15-4.65,5.15s-4.62-2.03-4.62-5.15v-1.18h2.15v1.29c0,1.85,0.77,2.94,2.41,2.94
		s2.41-1.09,2.41-2.94c0-4.59-6.89-5.03-6.89-10.83c0-3.18,1.47-5.15,4.56-5.15C1573.09,763.92,1574.56,765.95,1574.56,769.07z"/>
	<path class="st10" d="M1579.57,784.73v-18.51h-3.8v-2.09h9.86v2.09h-3.8v18.51H1579.57z"/>
	<path class="st10" d="M1588.4,780.58l-0.79,4.15h-2.12l3.94-20.6h3.33l3.94,20.6h-2.29l-0.79-4.15H1588.4z M1588.7,778.61h4.59
		l-2.33-11.89L1588.7,778.61z"/>
	<path class="st10" d="M1600.68,779.87c0,1.85,0.74,2.97,2.41,2.97c1.65,0,2.38-1.12,2.38-2.97v-15.75h2.15v15.63
		c0,3.12-1.44,5.21-4.62,5.21c-3.15,0-4.59-2.09-4.59-5.21v-15.63h2.27V779.87z"/>
	<path class="st10" d="M1614.49,764.12c3.24,0,4.59,1.65,4.59,4.71v1.68c0,2.27-0.79,3.68-2.56,4.24c1.88,0.56,2.59,2.09,2.59,4.3
		v3.21c0,0.91,0.03,1.77,0.41,2.47h-2.33c-0.26-0.59-0.38-1.12-0.38-2.5v-3.24c0-2.33-1.09-3.06-3-3.06h-1.62v8.8h-2.3v-20.6
		H1614.49z M1613.9,773.84c1.82,0,2.91-0.59,2.91-2.83v-1.97c0-1.85-0.68-2.83-2.38-2.83h-2.24v7.62H1613.9z"/>
	<path class="st10" d="M1623.82,780.58l-0.79,4.15h-2.12l3.94-20.6h3.33l3.94,20.6h-2.3l-0.79-4.15H1623.82z M1624.11,778.61h4.59
		l-2.32-11.89L1624.11,778.61z"/>
	<path class="st10" d="M1635.95,784.73h-2.06v-20.6h2.91l4.77,14.89v-14.89h2.03v20.6h-2.38l-5.27-16.66V784.73z"/>
	<path class="st10" d="M1648.93,784.73v-18.51h-3.8v-2.09h9.86v2.09h-3.8v18.51H1648.93z"/>
	<path class="st10" d="M1663.89,773.25v2.06h-5.03v7.33h6.18v2.09h-8.48v-20.6h8.48v2.09h-6.18v7.03H1663.89z"/>
	<path class="st10" d="M1676.07,769.07v0.56h-2.18v-0.68c0-1.85-0.71-2.94-2.36-2.94s-2.35,1.09-2.35,2.91
		c0,4.62,6.92,5.06,6.92,10.86c0,3.12-1.5,5.15-4.65,5.15s-4.62-2.03-4.62-5.15v-1.18h2.15v1.29c0,1.85,0.77,2.94,2.41,2.94
		s2.41-1.09,2.41-2.94c0-4.59-6.89-5.03-6.89-10.83c0-3.18,1.47-5.15,4.56-5.15C1674.6,763.92,1676.07,765.95,1676.07,769.07z"/>
</g>
</svg>
