<?xml version="1.0" encoding="UTF-8"?>
<svg width="166px" height="168px" viewBox="0 0 166 168" version="1.1" xmlns="http://www.w3.org/2000/svg" xmlns:xlink="http://www.w3.org/1999/xlink">
    <!-- Generator: Sketch 63.1 (92452) - https://sketch.com -->
    <title>Group 8</title>
    <desc>Created with Sketch.</desc>
    <defs>
        <polygon id="path-1" points="3.10668777e-05 0.035560846 165.965964 0.035560846 165.965964 167.222162 3.10668777e-05 167.222162"></polygon>
    </defs>
    <g id="Page-1" stroke="none" stroke-width="1" fill="none" fill-rule="evenodd">
        <g id="tus-restaurantes-copy-7" transform="translate(-611.000000, -381.000000)">
            <g id="Group-8" transform="translate(611.000000, 381.000000)">
                <path d="M83.0000994,34 C55.9363443,34 34,56.161792 34,83.5001005 C34,110.838409 55.9363443,133 83.0000994,133 C110.060871,133 132,110.838409 132,83.5001005 C132,56.161792 110.060871,34 83.0000994,34" id="Fill-1" fill="#D5341F"></path>
                <polygon id="Fill-3" fill="#FFFFFF" points="53 82.3788832 62.305026 73.0305536 78.500631 89.3037433 103.638083 64 113 73.4028687 78.500631 108"></polygon>
                <g id="Group-7">
                    <mask id="mask-2" fill="white">
                        <use xlink:href="#path-1"></use>
                    </mask>
                    <g id="Clip-6"></g>
                    <path d="M27.5584283,27.7947194 C52.3919487,2.77875613 91.056812,-2.52964715 121.609968,14.9041718 C122.503064,15.3980187 123.461246,15.9702636 124.539649,16.6525864 C129.160579,19.5839879 133.456277,23.0072313 137.363248,26.8010103 L129.394253,26.8010103 L129.394253,31.4693976 L145.320301,31.4693976 L145.320301,15.4268916 L140.685836,15.4268916 L140.685836,23.5431846 C136.522699,19.4857399 131.939985,15.8301097 127.006162,12.700608 C125.849138,11.9681586 124.814524,11.3503988 123.866692,10.826877 C91.5349079,-7.62050113 50.5832652,-1.99910758 24.2818192,24.4943863 C-2.01266043,50.982266 -7.59814245,92.241041 10.6992772,124.826116 L14.7332365,122.528314 C-2.54290504,91.760628 2.73107818,52.8058704 27.5584283,27.7947194 M155.266368,42.4286689 L151.232409,44.7280747 C168.50875,75.4933544 163.234567,114.449716 138.408013,139.460466 C113.579867,164.46861 74.9098288,169.784432 44.3783683,152.387105 C43.3911261,151.817266 42.4044811,151.221361 41.4417209,150.618038 C36.8271597,147.689644 32.5356417,144.270411 28.6284715,140.478837 L36.5717904,140.478837 L36.5717904,135.81025 L20.6455434,135.81025 L20.6455434,151.853758 L25.2798096,151.853758 L25.2798096,143.711399 C29.4503108,147.776864 34.0385986,151.438309 38.9835674,154.57543 C40.0042484,155.215045 41.0392604,155.841226 42.0860158,156.444549 C54.810294,163.695056 68.8635674,167.222162 82.8358312,167.222162 C104.383587,167.222162 125.732898,158.82917 141.684623,142.761401 C167.979102,116.271917 173.563987,75.013944 155.266368,42.4286689" id="Fill-5" fill="#D5341F" mask="url(#mask-2)"></path>
                </g>
            </g>
        </g>
    </g>
</svg>