<?xml version="1.0" encoding="UTF-8"?>
<svg width="205px" height="205px" viewBox="0 0 205 205" version="1.1" xmlns="http://www.w3.org/2000/svg" xmlns:xlink="http://www.w3.org/1999/xlink">
    <!-- Generator: Sketch 63.1 (92452) - https://sketch.com -->
    <title>Group</title>
    <desc>Created with Sketch.</desc>
    <defs>
        <polygon id="path-1" points="0.000130938779 0.675009974 128.317704 0.675009974 128.317704 118.922018 0.000130938779 118.922018"></polygon>
    </defs>
    <g id="Page-1" stroke="none" stroke-width="1" fill="none" fill-rule="evenodd">
        <g id="tus-restaurantes-copy-7" transform="translate(-594.000000, -378.000000)">
            <g id="Group" transform="translate(596.000000, 380.000000)">
                <circle id="Oval" stroke="#D5341F" stroke-width="3" cx="100.5" cy="100.5" r="100.5"></circle>
                <g id="Group-8" transform="translate(38.000000, 30.000000)">
                    <g id="Group-3">
                        <mask id="mask-2" fill="white">
                            <use xlink:href="#path-1"></use>
                        </mask>
                        <g id="Clip-2"></g>
                        <path d="M75.733387,8.94229094 C72.7496338,3.61088462 68.638387,0.674674981 64.1585688,0.674674981 C59.6787506,0.674674981 55.5675039,3.61088462 52.5837506,8.94229094 L2.51667273,98.3852999 C-0.452002597,103.684882 -0.805496104,108.786818 1.5165039,112.74978 C3.85190649,116.729492 8.51433506,118.922018 14.649374,118.922018 L113.669439,118.922018 C119.802803,118.922018 124.466906,116.729492 126.800634,112.748105 C129.124309,108.786818 128.76914,103.684882 125.800465,98.3852999 L75.733387,8.94229094 Z" id="Fill-1" fill="#D5341F" mask="url(#mask-2)"></path>
                    </g>
                    <path d="M64.4983498,91 C60.9092409,91 58,94.1344079 58,97.9991116 C58,101.863815 60.9092409,105 64.4983498,105 C68.0891089,105 71,101.863815 71,97.9991116 C71,94.1344079 68.0891089,91 64.4983498,91" id="Fill-4" fill="#FFFFFF"></path>
                    <path d="M64.5,83 C66.9794676,83 69.1843921,80.0395149 69.4040266,76.4233745 L71.9881638,33.574953 C72.2077983,29.9588125 69.3439703,27 65.6273427,27 L63.3743731,27 C59.6560296,27 56.7922016,29.9588125 57.0118361,33.574953 L59.5976892,76.4233745 C59.8173237,80.0395149 62.0222482,83 64.5,83" id="Fill-6" fill="#FFFFFF"></path>
                </g>
            </g>
        </g>
    </g>
</svg>