<?xml version="1.0" encoding="utf-8"?>
<!-- Generator: Adobe Illustrator 24.0.0, SVG Export Plug-In . SVG Version: 6.00 Build 0)  -->
<svg version="1.1" id="Layer_1" xmlns="http://www.w3.org/2000/svg" xmlns:xlink="http://www.w3.org/1999/xlink" x="0px" y="0px"
	 viewBox="0 0 100 100" style="enable-background:new 0 0 100 100;" xml:space="preserve">
<style type="text/css">
	.st0{fill:#D99C87;}
	.st1{fill:#FEE7C1;}
	.st2{fill:#6E8791;}
	.st3{fill:#D5341F;}
	.st4{fill:#FFFFFF;}
	.st5{fill:#EF4D41;}
	.st6{fill:#497080;}
	.st7{fill:url(#SVGID_1_);}
	.st8{fill:#659AA8;}
</style>
<path class="st0" d="M78.92,95.56H78.1l-0.04-5.23h0.86V95.56z M81.96,86.17l-0.23,2.37h8.08l0.28-2.23l-2.16-0.04l0.21-1.78
	l-0.71-0.01l-0.1,1.78l-2.59-0.04l0.13-1.77h-0.01h-0.7l-0.04,1.76L81.96,86.17z M87.74,79.07l-0.18,3.06h0.84l0.37-3.24
	L87.74,79.07z M84.26,79.71l-0.06,2.42h0.84l0.2-2.59L84.26,79.71z M80.91,80.34l0.06,1.79h0.82l0.04-1.96L80.91,80.34z
	 M68.56,82.13l0.84,13.43h0.81l-0.1-5.23h-0.44l0.21-1.79h0.21L70,84.43l8.02,0.07l0.04,4.04h2.55v-0.06l0.12-2.33l-1.81-0.02v-5.43
	l-0.93,0.17L78,82.13H68.56z"/>
<path class="st1" d="M87.74,79.07L88,74.81c0.42,0.02,0.82,0.06,1.22,0.11l-0.46,3.97L87.74,79.07z M69.87,88.54h0.21h7.97h2.55
	v-0.06l0.14-2.33h-0.01l0.22-4.02h0.02h0.82h2.41h0.84h2.52h0.84h2.23l0.89-6.85c-0.68-0.15-1.47-0.27-2.3-0.36
	c-0.39-0.05-0.8-0.1-1.22-0.12v0.01c-0.76-0.07-1.56-0.12-2.38-0.14l-0.38,4.86l-0.97,0.17l0.12-5.05c-0.84,0-1.65,0.02-2.46,0.06
	l-0.1,5.44l-0.92,0.17l-0.21-5.4v-0.12c-0.62,0.05-1.21,0.11-1.78,0.19v5.69l-0.93,0.17l-0.05-5.73v-5.18
	c4.53-1.67,11.33-1.67,15.86,0l-3.97,25.61h-0.95l0.69-5.34h-8.02l-0.53,5.34h-0.81l0.28-5.23h-1.58h-0.86h-7.96h-0.44L69.87,88.54z
	 M89.8,88.54l0.28-2.23l0.23-1.81l-2.9-0.02l-2.55-0.02h-0.01l-2.73-0.02l-0.17,1.74l-0.23,2.37H89.8z"/>
<g>
	<g>
		<polygon class="st2" points="48.28,17.51 48.95,17.38 49.5,17.27 50.05,17.14 50.59,17.02 50.6,17.02 51.12,16.91 51.13,16.91 
			48,12.99 48.26,17.52 		"/>
		<path class="st3" d="M11.47,41.05c0,0,17.5,3.5,43.58-2.2c25.48-5.56,39.97-17.79,39.97-17.79c-3.5,0.06-6.97,0.21-10.42,0.44
			c-6.88,0.47-13.65,1.26-20.36,2.42c-5.28,0.91-10.52,2.04-15.69,3.36v0.01c-6.17,1.6-12.28,3.5-18.29,5.71
			C23.9,35.34,17.64,38.02,11.47,41.05z"/>
		<g>
			<path class="st4" d="M30.25,33.01c5.73-5.71,11.87-11.01,18.7-15.63l0.55-0.11c-0.45,3.46-0.81,5.6-0.96,10.02v0.01
				C42.37,28.89,36.26,30.8,30.25,33.01z"/>
			<path class="st4" d="M50.6,17.02c12.3,1.17,23.91,2.57,33.99,4.48c-6.88,0.47-13.65,1.26-20.36,2.42
				c-4.81-3.18-8.6-4.74-14.18-6.78l0.54-0.12H50.6z"/>
		</g>
		<g>
			<path class="st5" d="M48.28,17.51l0.66-0.13c-6.83,4.62-12.97,9.92-18.7,15.63c-6.35,2.33-12.61,5.01-18.77,8.04
				C23.8,32.15,36.08,24.13,48.28,17.51z"/>
			<path class="st5" d="M50.05,17.14c5.59,2.04,9.37,3.6,14.18,6.78c-5.28,0.91-10.52,2.04-15.69,3.36
				c0.15-4.42,0.51-6.56,0.96-10.02L50.05,17.14z"/>
			<path class="st5" d="M51.12,16.91h0.01c16.92,0.07,31.88,1.27,43.88,4.15c-3.5,0.06-6.97,0.21-10.42,0.44
				c-10.08-1.92-21.68-3.32-33.99-4.48L51.12,16.91z"/>
		</g>
	</g>
	<polygon class="st6" points="48.86,93.67 61.99,93.67 65.35,95.6 45.49,95.6 	"/>
	<polygon class="st6" points="54.28,87.5 56.56,87.5 57.85,93.67 52.99,93.67 	"/>
	<g>
		<g id="XMLID_1_">
			<g>
				<polygon class="st6" points="51.44,26.57 54.69,41.72 54.83,87.5 56.02,87.5 56.15,41.21 53.88,26 				"/>
			</g>
		</g>
		<g>
			<polygon class="st6" points="92.29,21.13 95.02,21.06 93.55,22.2 58.37,41.42 57.14,41.7 			"/>
			<polygon class="st6" points="13.22,40.2 53.7,42.46 52.67,42.69 13.41,41.36 11.47,41.05 			"/>
			<polygon class="st6" points="41.15,29.36 54.69,42.24 53.7,42.46 39.21,29.96 			"/>
			<polygon class="st6" points="63.11,24.12 65.17,23.77 57.14,41.7 57.14,41.7 58.37,41.42 58.46,43.3 52.74,44.18 52.67,42.69 
				56.24,41.9 			"/>
		</g>
	</g>
	
		<linearGradient id="SVGID_1_" gradientUnits="userSpaceOnUse" x1="-93.7549" y1="76.0867" x2="-54.8033" y2="76.0867" gradientTransform="matrix(-1 0 0 1 -18.8578 0)">
		<stop  offset="0" style="stop-color:#FFF1CC"/>
		<stop  offset="0.042" style="stop-color:#F4D7B7"/>
		<stop  offset="0.0964" style="stop-color:#E8BDA2"/>
		<stop  offset="0.1525" style="stop-color:#E0AB93"/>
		<stop  offset="0.2105" style="stop-color:#DBA08A"/>
		<stop  offset="0.2737" style="stop-color:#D99C87"/>
		<stop  offset="0.3408" style="stop-color:#DFAA92"/>
		<stop  offset="0.5172" style="stop-color:#EDC9AB"/>
		<stop  offset="0.6891" style="stop-color:#F7DFBD"/>
		<stop  offset="0.8529" style="stop-color:#FDECC8"/>
		<stop  offset="1" style="stop-color:#FFF1CC"/>
	</linearGradient>
	<polygon class="st7" points="36.8,77.34 74.05,77.34 74.9,74.84 35.95,74.84 	"/>
	<polygon class="st6" points="37.76,78.16 73.08,78.16 73.29,77.34 37.55,77.34 	"/>
	<polygon class="st8" points="54.73,55 56.11,56.75 56.06,74.85 54.79,74.85 	"/>
	<polygon class="st8" points="54.06,88.58 56.11,89.64 56.89,93.67 52.99,93.67 	"/>
	<polygon class="st8" points="58.58,93.67 57.6,95.21 45.49,95.6 48.86,93.67 	"/>
</g>
</svg>
