<?xml version="1.0" encoding="utf-8"?>
<!-- Generator: Adobe Illustrator 24.0.0, SVG Export Plug-In . SVG Version: 6.00 Build 0)  -->
<svg version="1.1" id="Layer_1" xmlns="http://www.w3.org/2000/svg" xmlns:xlink="http://www.w3.org/1999/xlink" x="0px" y="0px"
	 viewBox="0 0 83.5 100" style="enable-background:new 0 0 83.5 100;" xml:space="preserve">
<style type="text/css">
	.st0{fill:#D99C87;}
	.st1{fill:#FEE7C1;}
	.st2{fill:#6E8791;}
	.st3{fill:#D5341F;}
	.st4{fill:#FFFFFF;}
	.st5{fill:#EF4D41;}
	.st6{fill:#497080;}
	.st7{fill:url(#SVGID_1_);}
	.st8{fill:#659AA8;}
</style>
<path class="st0" d="M67.4,95.6h-0.8l0-5.2h0.9V95.6z M70.5,86.2l-0.2,2.4h8.1l0.3-2.2l-2.2,0l0.2-1.8l-0.7,0l-0.1,1.8l-2.6,0
	l0.1-1.8h0h-0.7l0,1.8L70.5,86.2z M76.3,79.1l-0.2,3.1h0.8l0.4-3.2L76.3,79.1z M72.8,79.7l-0.1,2.4h0.8l0.2-2.6L72.8,79.7z
	 M69.4,80.3l0.1,1.8h0.8l0-2L69.4,80.3z M57.1,82.1l0.8,13.4h0.8l-0.1-5.2h-0.4l0.2-1.8h0.2l-0.1-4.1l8,0.1l0,4h2.6v-0.1l0.1-2.3
	l-1.8,0v-5.4l-0.9,0.2l0,1.3H57.1z"/>
<path class="st1" d="M76.3,79.1l0.3-4.3c0.4,0,0.8,0.1,1.2,0.1l-0.5,4L76.3,79.1z M58.4,88.5h0.2h8h2.6v-0.1l0.1-2.3h0l0.2-4h0h0.8
	h2.4h0.8h2.5h0.8h2.2l0.9-6.8c-0.7-0.2-1.5-0.3-2.3-0.4c-0.4-0.1-0.8-0.1-1.2-0.1v0c-0.8-0.1-1.6-0.1-2.4-0.1l-0.4,4.9l-1,0.2
	l0.1-5.1c-0.8,0-1.6,0-2.5,0.1l-0.1,5.4l-0.9,0.2l-0.2-5.4v-0.1c-0.6,0.1-1.2,0.1-1.8,0.2v5.7l-0.9,0.2l-0.1-5.7v-5.2
	c4.5-1.7,11.3-1.7,15.9,0l-4,25.6h-0.9l0.7-5.3h-8l-0.5,5.3h-0.8l0.3-5.2h-1.6h-0.9h-8h-0.4L58.4,88.5z M78.3,88.5l0.3-2.2l0.2-1.8
	l-2.9,0l-2.6,0h0l-2.7,0l-0.2,1.7l-0.2,2.4L78.3,88.5L78.3,88.5z"/>
<g>
	<g>
		<polygon class="st2" points="36.8,17.5 37.5,17.4 38,17.3 38.6,17.1 39.1,17 39.1,17 39.7,16.9 39.7,16.9 36.5,13 36.8,17.5 		"/>
		<path class="st3" d="M0,41c0,0,17.5,3.5,43.6-2.2c25.5-5.6,40-17.8,40-17.8c-3.5,0.1-7,0.2-10.4,0.4c-6.9,0.5-13.6,1.3-20.4,2.4
			c-5.3,0.9-10.5,2-15.7,3.4v0c-6.2,1.6-12.3,3.5-18.3,5.7C12.4,35.3,6.2,38,0,41z"/>
		<g>
			<path class="st4" d="M18.8,33c5.7-5.7,11.9-11,18.7-15.6l0.5-0.1c-0.5,3.5-0.8,5.6-1,10v0C30.9,28.9,24.8,30.8,18.8,33z"/>
			<path class="st4" d="M39.1,17c12.3,1.2,23.9,2.6,34,4.5c-6.9,0.5-13.6,1.3-20.4,2.4c-4.8-3.2-8.6-4.7-14.2-6.8L39.1,17
				C39.1,17,39.1,17,39.1,17z"/>
		</g>
		<g>
			<path class="st5" d="M36.8,17.5l0.7-0.1c-6.8,4.6-13,9.9-18.7,15.6c-6.4,2.3-12.6,5-18.8,8C12.3,32.2,24.6,24.1,36.8,17.5z"/>
			<path class="st5" d="M38.6,17.1c5.6,2,9.4,3.6,14.2,6.8c-5.3,0.9-10.5,2-15.7,3.4c0.2-4.4,0.5-6.6,1-10L38.6,17.1z"/>
			<path class="st5" d="M39.7,16.9L39.7,16.9c16.9,0.1,31.9,1.3,43.9,4.1c-3.5,0.1-7,0.2-10.4,0.4c-10.1-1.9-21.7-3.3-34-4.5
				L39.7,16.9z"/>
		</g>
	</g>
	<polygon class="st6" points="37.4,93.7 50.5,93.7 53.9,95.6 34,95.6 	"/>
	<polygon class="st6" points="42.8,87.5 45.1,87.5 46.4,93.7 41.5,93.7 	"/>
	<g>
		<g id="XMLID_1_">
			<g>
				<polygon class="st6" points="40,26.6 43.2,41.7 43.4,87.5 44.6,87.5 44.7,41.2 42.4,26 				"/>
			</g>
		</g>
		<g>
			<polygon class="st6" points="80.8,21.1 83.6,21.1 82.1,22.2 46.9,41.4 45.7,41.7 			"/>
			<polygon class="st6" points="1.8,40.2 42.2,42.5 41.2,42.7 1.9,41.4 0,41 			"/>
			<polygon class="st6" points="29.7,29.4 43.2,42.2 42.2,42.5 27.7,30 			"/>
			<polygon class="st6" points="51.6,24.1 53.7,23.8 45.7,41.7 45.7,41.7 46.9,41.4 47,43.3 41.3,44.2 41.2,42.7 44.8,41.9 			"/>
		</g>
	</g>
	
		<linearGradient id="SVGID_1_" gradientUnits="userSpaceOnUse" x1="-1923.2278" y1="25.91" x2="-1884.2778" y2="25.91" gradientTransform="matrix(-1 0 0 -1 -1859.7979 102)">
		<stop  offset="0" style="stop-color:#FFF1CC"/>
		<stop  offset="4.200000e-02" style="stop-color:#F4D7B7"/>
		<stop  offset="9.640000e-02" style="stop-color:#E8BDA2"/>
		<stop  offset="0.1525" style="stop-color:#E0AB93"/>
		<stop  offset="0.2105" style="stop-color:#DBA08A"/>
		<stop  offset="0.2737" style="stop-color:#D99C87"/>
		<stop  offset="0.3408" style="stop-color:#DFAA92"/>
		<stop  offset="0.5172" style="stop-color:#EDC9AB"/>
		<stop  offset="0.6891" style="stop-color:#F7DFBD"/>
		<stop  offset="0.8529" style="stop-color:#FDECC8"/>
		<stop  offset="1" style="stop-color:#FFF1CC"/>
	</linearGradient>
	<polygon class="st7" points="25.3,77.3 62.6,77.3 63.4,74.8 24.5,74.8 	"/>
	<polygon class="st6" points="26.3,78.2 61.6,78.2 61.8,77.3 26.1,77.3 	"/>
	<polygon class="st8" points="43.3,55 44.6,56.8 44.6,74.8 43.3,74.8 	"/>
	<polygon class="st8" points="42.6,88.6 44.6,89.6 45.4,93.7 41.5,93.7 	"/>
	<polygon class="st8" points="47.1,93.7 46.1,95.2 34,95.6 37.4,93.7 	"/>
</g>
</svg>
