<?xml version="1.0" encoding="utf-8"?>
<!-- Generator: Adobe Illustrator 24.0.0, SVG Export Plug-In . SVG Version: 6.00 Build 0)  -->
<svg version="1.1" id="Layer_1" xmlns="http://www.w3.org/2000/svg" xmlns:xlink="http://www.w3.org/1999/xlink" x="0px" y="0px"
	 viewBox="0 0 83.6 100" style="enable-background:new 0 0 83.6 100;" xml:space="preserve">
<style type="text/css">
	.st0{fill:#D99C87;}
	.st1{fill:#FEE7C1;}
	.st2{fill:#6E8791;}
	.st3{fill:#D5341F;}
	.st4{fill:#FFFFFF;}
	.st5{fill:#EF4D41;}
	.st6{fill:#497080;}
	.st7{fill:url(#SVGID_1_);}
	.st8{fill:#659AA8;}
</style>
<path class="st0" d="M67.5,95.6h-0.8l0-5.2h0.9V95.6z M70.5,86.2l-0.2,2.4h8.1l0.3-2.2l-2.2,0l0.2-1.8l-0.7,0l-0.1,1.8l-2.6,0
	l0.1-1.8h0h-0.7l0,1.8L70.5,86.2z M76.3,79.1l-0.2,3.1h0.8l0.4-3.2L76.3,79.1z M72.8,79.7l-0.1,2.4h0.8l0.2-2.6L72.8,79.7z
	 M69.4,80.3l0.1,1.8h0.8l0-2L69.4,80.3z M57.1,82.1l0.8,13.4h0.8l-0.1-5.2h-0.4l0.2-1.8h0.2l-0.1-4.1l8,0.1l0,4h2.6v-0.1l0.1-2.3
	l-1.8,0v-5.4l-0.9,0.2l0,1.3H57.1z"/>
<path class="st1" d="M76.3,79.1l0.3-4.3c0.4,0,0.8,0.1,1.2,0.1l-0.5,4L76.3,79.1z M58.4,88.5h0.2h8h2.6v-0.1l0.1-2.3h0l0.2-4h0h0.8
	h2.4h0.8h2.5h0.8h2.2l0.9-6.8c-0.7-0.2-1.5-0.3-2.3-0.4c-0.4-0.1-0.8-0.1-1.2-0.1v0c-0.8-0.1-1.6-0.1-2.4-0.1l-0.4,4.9l-1,0.2
	l0.1-5.1c-0.8,0-1.7,0-2.5,0.1l-0.1,5.4l-0.9,0.2l-0.2-5.4v-0.1c-0.6,0.1-1.2,0.1-1.8,0.2v5.7l-0.9,0.2l-0.1-5.7v-5.2
	c4.5-1.7,11.3-1.7,15.9,0l-4,25.6h-0.9l0.7-5.3h-8l-0.5,5.3h-0.8l0.3-5.2h-1.6h-0.9h-8h-0.4L58.4,88.5z M78.3,88.5l0.3-2.2l0.2-1.8
	l-2.9,0l-2.6,0h0l-2.7,0l-0.2,1.7l-0.2,2.4L78.3,88.5L78.3,88.5z"/>
<g>
	<g>
		<polygon class="st2" points="46.7,17.5 46.1,17.4 45.5,17.3 45,17.1 44.4,17 44.4,17 43.9,16.9 43.9,16.9 47,13 46.8,17.5 		"/>
		<path class="st3" d="M83.6,41c0,0-17.5,3.5-43.6-2.2C14.5,33.3,0,21.1,0,21.1c3.5,0.1,7,0.2,10.4,0.4c6.9,0.5,13.6,1.3,20.4,2.4
			c5.3,0.9,10.5,2,15.7,3.4v0c6.2,1.6,12.3,3.5,18.3,5.7C71.1,35.3,77.4,38,83.6,41z"/>
		<g>
			<path class="st4" d="M64.8,33c-5.7-5.7-11.9-11-18.7-15.6l-0.5-0.1c0.5,3.5,0.8,5.6,1,10v0C52.7,28.9,58.8,30.8,64.8,33z"/>
			<path class="st4" d="M44.4,17c-12.3,1.2-23.9,2.6-34,4.5c6.9,0.5,13.6,1.3,20.4,2.4c4.8-3.2,8.6-4.7,14.2-6.8L44.4,17
				C44.4,17,44.4,17,44.4,17z"/>
		</g>
		<g>
			<path class="st5" d="M46.7,17.5l-0.7-0.1c6.8,4.6,13,9.9,18.7,15.6c6.3,2.3,12.6,5,18.8,8C71.2,32.2,58.9,24.1,46.7,17.5z"/>
			<path class="st5" d="M45,17.1c-5.6,2-9.4,3.6-14.2,6.8c5.3,0.9,10.5,2,15.7,3.4c-0.2-4.4-0.5-6.6-1-10L45,17.1z"/>
			<path class="st5" d="M43.9,16.9L43.9,16.9C27,17,12,18.2,0,21.1c3.5,0.1,7,0.2,10.4,0.4c10.1-1.9,21.7-3.3,34-4.5L43.9,16.9z"/>
		</g>
	</g>
	<polygon class="st6" points="46.2,93.7 33,93.7 29.7,95.6 49.5,95.6 	"/>
	<polygon class="st6" points="40.7,87.5 38.5,87.5 37.2,93.7 42,93.7 	"/>
	<g>
		<g id="XMLID_1_">
			<g>
				<polygon class="st6" points="43.6,26.6 40.3,41.7 40.2,87.5 39,87.5 38.9,41.2 41.1,26 				"/>
			</g>
		</g>
		<g>
			<polygon class="st6" points="2.7,21.1 0,21.1 1.5,22.2 36.7,41.4 37.9,41.7 			"/>
			<polygon class="st6" points="81.8,40.2 41.3,42.5 42.4,42.7 81.6,41.4 83.6,41 			"/>
			<polygon class="st6" points="53.9,29.4 40.3,42.2 41.3,42.5 55.8,30 			"/>
			<polygon class="st6" points="31.9,24.1 29.9,23.8 37.9,41.7 37.9,41.7 36.7,41.4 36.6,43.3 42.3,44.2 42.4,42.7 38.8,41.9 			"/>
		</g>
	</g>
	
		<linearGradient id="SVGID_1_" gradientUnits="userSpaceOnUse" x1="-105.2215" y1="25.91" x2="-66.2715" y2="25.91" gradientTransform="matrix(1 0 0 -1 125.3515 102)">
		<stop  offset="0" style="stop-color:#FFF1CC"/>
		<stop  offset="4.200000e-02" style="stop-color:#F4D7B7"/>
		<stop  offset="9.640000e-02" style="stop-color:#E8BDA2"/>
		<stop  offset="0.1525" style="stop-color:#E0AB93"/>
		<stop  offset="0.2105" style="stop-color:#DBA08A"/>
		<stop  offset="0.2737" style="stop-color:#D99C87"/>
		<stop  offset="0.3408" style="stop-color:#DFAA92"/>
		<stop  offset="0.5172" style="stop-color:#EDC9AB"/>
		<stop  offset="0.6891" style="stop-color:#F7DFBD"/>
		<stop  offset="0.8529" style="stop-color:#FDECC8"/>
		<stop  offset="1" style="stop-color:#FFF1CC"/>
	</linearGradient>
	<polygon class="st7" points="58.2,77.3 21,77.3 20.1,74.8 59.1,74.8 	"/>
	<polygon class="st6" points="57.3,78.2 21.9,78.2 21.7,77.3 57.5,77.3 	"/>
	<polygon class="st8" points="40.3,55 38.9,56.8 39,74.8 40.2,74.8 	"/>
	<polygon class="st8" points="41,88.6 38.9,89.6 38.1,93.7 42,93.7 	"/>
	<polygon class="st8" points="36.5,93.7 37.4,95.2 49.5,95.6 46.2,93.7 	"/>
</g>
</svg>
