<?xml version="1.0" encoding="utf-8"?>
<!-- Generator: Adobe Illustrator 24.0.0, SVG Export Plug-In . SVG Version: 6.00 Build 0)  -->
<svg version="1.1" id="Layer_1" xmlns="http://www.w3.org/2000/svg" xmlns:xlink="http://www.w3.org/1999/xlink" x="0px" y="0px"
	 viewBox="0 0 300 300" style="enable-background:new 0 0 300 300;" xml:space="preserve">
<style type="text/css">
	.st0{fill:#D5341F;}
	.st1{fill:#FFFFFF;}
	.st2{fill:url(#SVGID_1_);}
	.st3{fill:url(#SVGID_2_);}
	.st4{fill:url(#SVGID_3_);}
	.st5{fill:url(#SVGID_4_);}
	.st6{fill:url(#SVGID_5_);}
</style>
<image style="overflow:visible;enable-background:new    ;" width="838" height="154" xlink:href="E95DE5BA47339F64.png"  transform="matrix(0.2338 0 0 0.2338 46.4119 75.6)">
</image>
<g>
	<g>
		<g>
			
				<image style="overflow:visible;opacity:0.5;enable-background:new    ;" width="417" height="67" xlink:href="E95DE5BA47339F65.png"  transform="matrix(0.2149 0 0 0.2149 163.388 232.8)">
			</image>
			
				<image style="overflow:visible;opacity:0.5;enable-background:new    ;" width="425" height="83" xlink:href="E95DE5BA47339F6A.png"  transform="matrix(0.2255 0 0 0.2255 60.3123 245.76)">
			</image>
		</g>
		<g>
			
				<image style="overflow:visible;enable-background:new    ;" width="417" height="67" xlink:href="E95DE5BA47339F6B.png"  transform="matrix(0.2149 0 0 0.2149 163.388 232.8)">
			</image>
			
				<image style="overflow:visible;enable-background:new    ;" width="425" height="83" xlink:href="E95DE5BA47339F6C.png"  transform="matrix(0.2255 0 0 0.2255 60.3123 245.76)">
			</image>
		</g>
	</g>
</g>
<g>
	<path class="st0" d="M237.8,83.1L50.4,99.4c-12.6,1.1-22,12.3-20.9,24.9L39,233.1c1.1,12.6,12.3,22,24.9,20.9l187.3-16.4
		c12.6-1.1,22-12.3,20.9-24.9L262.7,104C261.6,91.3,250.4,81.9,237.8,83.1z"/>
	<path class="st1" d="M238,86.3L50.7,102.7c-10.8,0.9-18.9,10.5-17.9,21.4l9.5,108.7c1,10.8,10.5,18.9,21.4,17.9L251,234.3
		c10.8-0.9,18.9-10.5,17.9-21.4l-9.5-108.7C258.5,93.4,248.9,85.4,238,86.3z M265,213.3c0.8,8.7-5.7,16.3-14.3,17.1L63.3,246.8
		c-8.7,0.8-16.3-5.7-17.1-14.3l-9.5-108.7c-0.8-8.7,5.7-16.3,14.3-17.1l187.3-16.4c8.7-0.8,16.3,5.7,17.1,14.3L265,213.3z"/>
	<g>
		<path class="st1" d="M71.6,160.7c9-0.8,15.7,5.4,16.5,15.4l0.5,5.9c0.1,1-0.6,1.9-1.5,2l-6,0.5c-0.9,0.1-1.8-0.7-1.9-1.7l-0.5-5.9
			c-0.3-3.8-2.9-6.3-6.3-6c-3.5,0.3-5.7,3.1-5.3,7.1l3,34.1c0.3,3.9,3,6.4,6.4,6c3.4-0.3,5.5-3.1,5.1-7l-0.5-5.9
			c-0.1-1,0.6-1.9,1.5-2l6-0.5c0.9-0.1,1.8,0.7,1.9,1.7l0.5,5.9c0.9,10-4.6,17.3-13.6,18.1c-8.9,0.8-15.7-5.3-16.7-15.3l-3-34.5
			C56.9,168.7,62.5,161.5,71.6,160.7z"/>
		<path class="st1" d="M100.9,161.2l4.3,49.2c0.2,2.7,1.7,4.1,4.2,3.9l7.1-0.6c0.9-0.1,1.8,0.7,1.9,1.7l0.6,6.6c0.1,1-0.6,1.9-1.5,2
			l-18.6,1.6c-0.9,0.1-1.8-0.7-1.9-1.7L91.5,162c-0.1-1,0.6-1.9,1.5-2l6-0.5C99.9,159.4,100.8,160.1,100.9,161.2z"/>
		<path class="st1" d="M131.5,155.5c9.2-0.8,15.9,5.6,16.8,16l2.9,33.6c0.9,10.1-4.7,17.4-13.9,18.2c-9.1,0.6-15.8-5.6-16.6-15.5
			l-2.9-33.6C116.9,163.7,122.3,156.3,131.5,155.5z M136.5,213c3.5-0.3,5.6-3.1,5.3-7.1l-2.9-33.6c-0.4-4.2-3-6.8-6.5-6.5
			c-3.5,0.3-5.5,3.3-5.2,7.5l2.9,33.6C130.5,210.9,133,213.3,136.5,213z"/>
		<path class="st1" d="M172.5,174.3l-0.2-2.7c-0.6-6.7-2.5-10.1-5.7-9.8c-3.1,0.3-4.4,3.9-3.8,10.6c0.3,3,3.1,6.1,8.4,9.3
			c8.5,4.9,13.3,11,13.9,17.7c1.1,12.8-3.5,20-13.4,20.9c-9.8,0.9-15.6-5.4-16.7-18.3l-0.2-2.8c-0.1-1,0.6-1.9,1.5-2l6.9-0.6
			c0.9-0.1,1.8,0.7,1.9,1.7l0.2,2.8c0.6,6.7,2.5,10.1,5.6,9.8c3.1-0.3,4.5-3.9,3.9-10.6c-0.3-3.6-3.2-6.9-8.5-9.4
			c-8.4-4.4-13.2-10.4-13.8-17.5c-1.1-12.8,3.5-20,13.3-20.9c9.9-0.9,15.7,5.4,16.8,18.3l0.2,2.7c0.1,1-0.6,1.9-1.5,2l-6.9,0.6
			C173.4,176.1,172.6,175.4,172.5,174.3z"/>
		<path class="st1" d="M209.2,151.7l0.6,6.6c0.1,1-0.6,1.9-1.5,2l-9.2,0.8c-2,0.2-3,1.5-2.8,3.6l1.2,13.4c0.2,2.1,1.4,3.3,3.4,3.1
			l7.5-0.7c0.9-0.1,1.8,0.7,1.9,1.7l0.6,6.6c0.1,1-0.6,1.9-1.5,2l-7.5,0.7c-2,0.2-3,1.5-2.8,3.6l0.7,7.8c0.2,2.1,1.4,3.3,3.4,3.1
			l9.2-0.8c0.9-0.1,1.8,0.7,1.9,1.7l0.6,6.6c0.1,1-0.6,1.9-1.5,2l-19.9,1.7c-0.9,0.1-1.8-0.7-1.9-1.7l-5.4-61.8
			c-0.1-1,0.6-1.9,1.5-2l19.9-1.7C208.3,149.9,209.1,150.6,209.2,151.7z"/>
		<path class="st1" d="M248,179.4c1.1,12.7-0.5,33.1-15.4,34.4l-10.7,0.9c-0.9,0.1-1.8-0.7-1.9-1.7l-5.4-61.8c-0.1-1,0.6-1.9,1.5-2
			l10.7-0.9C241.3,147,246.9,167.1,248,179.4z M230.1,203.6l1.5-0.1c7.9-0.7,7.5-17.1,7-23.3c-0.5-5.6-3.4-22.4-10.9-21.7
			c-2,0.2-3,1.5-2.8,3.6l3.3,38.2C228.4,201.4,228.7,203.8,230.1,203.6z"/>
	</g>
	<g>
		<path class="st1" d="M74.4,127.6c0.4-0.1,0.7-0.5,1-0.8c1.3-1.9,1.6-2.2,3.3-3.5c2.3-1.9,3.2-3,2.2-6.7c-0.3-1-0.5-1.3-1.6-1.3
			c-2,0.1-3.9,0.3-5.8,0.9c-9.7,2.7-16.5,9.7-17.1,12.6c-0.3,1.5,0,5.3,0.4,7c0.8,3,3.4,3.1,5.7,2.9c2.2-0.2,15.1-1.7,15.8,0.9
			c0.2,0.8-2.7,7.1-18.8,10.9l0-0.1c0.2-0.4,0.3-0.7,0.5-0.9c0.3-0.3,0.6-0.7,0.5-1.1c-0.1-0.3-0.2-0.3-0.5-0.2
			c-0.7,0.2-3,1.9-3.4,2.5c-0.5,0.9-1.3,4-1,5c0.8,2.9,6.2,1.4,8,0.9c6.4-1.8,21.5-7.7,18.7-17.5c-0.7-2.4-3.5-4.4-8.3-4.4
			c-13.3,0.3-12.8-0.2-13-0.9c-0.3-1.1,3.4-7.1,14.7-10.8l0.1,0.1c-1.9,2.5-2.3,4.3-2.3,4.4C73.6,127.5,74,127.7,74.4,127.6z"/>
		<path class="st1" d="M157.2,134c-1-0.7-2.3-0.9-3.4-0.6l-7.8,2.2c1.9-7.6,3.9-16.5,3.9-16.5c0.3-1.2,1-3.6,0.6-4.9
			c-0.2-0.7-1.2-2.5-1.9-2.1c-0.8,0.4-2.7,4.6-6,10.6c-1.3,2.4-2.9,5.2-5.1,6.1c-0.2-1.1-0.3-2.1,0-3.1c1.1-1.7,4.7-8.2,4.2-10.1
			c-0.2-0.7-1.9-1.9-2.6-1.7c-1.1,0.3-5.8,6.9-5.6,12.5c-1.1,1.8-2.9,5.2-4.6,5.7c-0.7,0.2-1.5-0.2-1.8-1c-0.6-2,1-5,1.9-6.6
			c0.8-1.2,1.4-2.2,1-3.7c-0.3-0.9-0.9-1.6-1.8-2.3c-0.6-0.5-2.9,0.8-6.9,2.6c0.1-0.5,0.1-1-0.1-1.5c-0.1-0.4-0.6-0.7-1-0.6
			c-1.1,0.3-4.6,5.1-3.6,8.7c0.3,1,0.7,1.4,1.6,1.2c-0.7,2.2-2.6,6.9-4.8,7.6c-0.7,0.2-1.5-0.2-1.8-1c-0.6-2,0.9-5,1.9-6.6
			c0.8-1.2,1.4-2.2,1-3.7c-0.3-0.9-0.9-1.6-1.8-2.3c-0.6-0.5-2.9,0.8-6.9,2.6c0.1-0.5,0.1-1-0.1-1.5c-0.1-0.4-0.6-0.7-1-0.6
			c-1.1,0.3-4.6,5.1-3.6,8.7c0.3,1,0.7,1.4,1.6,1.2c-0.2,0.5-0.3,1-0.5,1.5c-0.9,1.5-1.7,3.3-3.5,3.4c0.3-2.2,0.7-4.1,0.1-6.3
			c-0.4-1.5-1-2.4-2.4-2.5c0.4-0.4,0.9-0.9,0.7-1.6c-0.4-1.3-2-1.4-2.9-1.1c-2.7,0.9-5.5,3.1-7.3,6c-1.9,2.8-2.8,5.8-1.7,9.4
			c1.4,4.4,4.3,6.4,6.6,5.8c2.8-0.8,4.5-3,5.8-5.6c1.8-0.5,3.1-1.3,4.1-2.4v0c0,0,0,0,0,0c0.8-0.9,1.4-2,1.9-3.4
			c0.7-1.2,1.3-2.5,1.7-4.1l4.3-2.4l0.1,0.1c-1.1,2.9-2.7,6.1-1.8,9.5c0.5,1.9,2.2,3.5,4.1,3c3.1-0.9,7.8-10.9,8.7-14.4l4.3-2.4
			l0.1,0.1c-1.1,2.9-2.7,6.1-1.8,9.5c0.5,1.9,2.2,3.5,4.1,3c2.2-0.6,5.1-5.8,6.6-8.9c1.2,3.3,3.8,4.6,5,4.4c0.6-0.1,3-3.7,5.7-8.1
			l0.1,0.1l-2.7,11.4l-51,14.5c-1.7,0.5-2,1.7-2.1,2.4c0,0.2,0.2,0.4,0.4,0.4l2.3-0.2c41-4.7,51.3-4.5,53.6-16.1l11.9-3.6L157.2,134
			z M91.4,144.1c-1.1,0.3-2.1,0.1-2.5-1.3c-0.4-1.5-0.1-3.7,0.6-5.1c0.9-1.8,2.7-3.6,3.9-5c0.2,0.1-1,3.8-0.3,6.3
			c0.2,0.8,0.6,1.4,1.2,2.1C93.5,142.4,92.8,143.6,91.4,144.1z M104.9,150l36.9-11.2C140,144.5,133.6,146.9,104.9,150z"/>
	</g>
	<g>
		<polygon class="st1" points="171.4,139.3 177.4,119.6 179.5,138.6 182.6,138.4 191.2,112.3 188.4,112.5 181.8,132.5 179.7,113.3 
			176.7,113.6 170.4,134 167.7,114.3 164.7,114.6 168.2,139.6 		"/>
		<path class="st1" d="M203.4,131.4c-1.2,1.1-2.5,1.9-3.8,2.5c-1.3,0.6-2.3,0.9-3.1,1c-1,0.1-1.8-0.2-2.5-0.9s-1.1-1.8-1.2-3.4
			c2.2-0.4,4.1-1.1,5.6-2c1.5-0.9,2.6-2.1,3.3-3.3c0.7-1.2,1-2.6,0.9-4c-0.1-1.2-0.5-2.1-1.2-2.6s-1.7-0.8-2.9-0.7
			c-1.8,0.2-3.3,0.9-4.7,2.3c-1.4,1.4-2.4,3.2-3.1,5.2s-1,4.2-0.8,6.3c0.2,1.9,0.8,3.4,1.8,4.5s2.4,1.5,4.2,1.3
			c2.3-0.2,4.7-1.2,7.2-2.9L203.4,131.4z M193.5,125c0.2-0.6,0.5-1.2,0.9-1.8c0.4-0.7,0.9-1.2,1.4-1.7c0.7-0.6,1.3-0.9,2-0.9
			c0.5-0.1,1,0.1,1.3,0.5c0.4,0.4,0.6,0.8,0.6,1.2c0.1,0.7-0.2,1.5-0.6,2.3c-0.5,0.8-1.2,1.5-2.1,2.1c-0.9,0.6-2.3,1-4.1,1.3
			C193,126.7,193.2,125.7,193.5,125z"/>
		<g>
			<polygon class="st1" points="207.4,110.9 206.7,118.7 209.1,118.5 211.2,110.5 			"/>
		</g>
		<path class="st1" d="M215.5,135.5l0.6-6.6c2-3.7,3.4-6.3,4.4-7.6c1-1.3,2-2,3-2.1c0.3,0,0.7,0,1.2,0.2l0.3-3.7c-0.3,0-0.5,0-0.8,0
			c-1,0.1-1.9,0.5-2.7,1.1c-0.8,0.7-1.7,1.7-2.6,3.1s-1.8,2.9-2.4,4.5l0.7-7.7l-3,0.3l-1.7,18.7L215.5,135.5z"/>
		<path class="st1" d="M231.8,131.8c-1,0.1-1.8-0.2-2.5-0.9s-1.1-1.8-1.2-3.4c2.2-0.4,4.1-1.1,5.6-2c1.5-1,2.6-2.1,3.3-3.3
			c0.7-1.2,1-2.6,0.9-4c-0.1-1.2-0.5-2.1-1.2-2.6s-1.7-0.8-2.9-0.7c-1.8,0.2-3.3,0.9-4.7,2.3c-1.4,1.4-2.4,3.2-3.1,5.2
			s-1,4.2-0.8,6.3c0.2,1.9,0.8,3.4,1.8,4.5s2.4,1.5,4.2,1.3c2.3-0.2,4.7-1.2,7.2-2.9l0.3-3.3c-1.2,1.1-2.5,1.9-3.8,2.5
			C233.6,131.4,232.6,131.7,231.8,131.8z M228.8,121.9c0.2-0.6,0.5-1.2,0.9-1.8c0.4-0.7,0.9-1.2,1.4-1.7c0.7-0.6,1.3-0.9,2-0.9
			c0.5-0.1,1,0.1,1.3,0.5c0.4,0.4,0.6,0.8,0.6,1.2c0.1,0.7-0.2,1.5-0.6,2.3c-0.5,0.8-1.2,1.5-2.1,2.1c-0.9,0.6-2.3,1-4.1,1.3
			C228.3,123.6,228.5,122.6,228.8,121.9z"/>
	</g>
</g>
<g>
	<g>
		
			<linearGradient id="SVGID_1_" gradientUnits="userSpaceOnUse" x1="146.42" y1="185.97" x2="146.42" y2="277.81" gradientTransform="matrix(1 0 0 -1 0 302)">
			<stop  offset="0.2" style="stop-color:#FFFFFF"/>
			<stop  offset="1" style="stop-color:#ABABAB"/>
		</linearGradient>
		<path class="st2" d="M228.6,99.1l-80.3-72.9L64.2,116l-1.7-0.9l85-90.6c0.2-0.2,0.5-0.3,0.8-0.3s0.6,0.1,0.8,0.3l81.1,73.7
			L228.6,99.1z"/>
	</g>
	<g>
		
			<linearGradient id="SVGID_2_" gradientUnits="userSpaceOnUse" x1="98.1508" y1="232.5468" x2="99.5594" y2="231.0727" gradientTransform="matrix(1 0 0 -1 0 302)">
			<stop  offset="0" style="stop-color:#E0E0E0"/>
			<stop  offset="0.1622" style="stop-color:#F6F5F5"/>
			<stop  offset="0.9174" style="stop-color:#6C696A"/>
			<stop  offset="1" style="stop-color:#ABAAAA"/>
		</linearGradient>
		<path class="st3" d="M147.4,22.3l-99.2,94.9l1.9,1l98.3-94.1V22C148,22,147.7,22.1,147.4,22.3z"/>
		
			<linearGradient id="SVGID_3_" gradientUnits="userSpaceOnUse" x1="196.5968" y1="240.9548" x2="195.3283" y2="239.3995" gradientTransform="matrix(1 0 0 -1 0 302)">
			<stop  offset="0" style="stop-color:#E0E0E0"/>
			<stop  offset="0.1622" style="stop-color:#F6F5F5"/>
			<stop  offset="0.9174" style="stop-color:#6C696A"/>
			<stop  offset="1" style="stop-color:#ABAAAA"/>
		</linearGradient>
		<path class="st4" d="M149.3,22.3c-0.2-0.2-0.6-0.3-0.9-0.3v2.1l0,0l94.4,77.2l1.9-1L149.3,22.3z"/>
	</g>
</g>
<g>
	
		<radialGradient id="SVGID_4_" cx="148.38" cy="276.82" r="4.83" gradientTransform="matrix(1 0 0 -1 0 302)" gradientUnits="userSpaceOnUse">
		<stop  offset="0.3412" style="stop-color:#000000"/>
		<stop  offset="1" style="stop-color:#FFFFFF"/>
	</radialGradient>
	<circle class="st5" cx="148.4" cy="25.2" r="4.8"/>
	
		<radialGradient id="SVGID_5_" cx="148.38" cy="277.84" r="3.8056" gradientTransform="matrix(1 0 0 -1 0 302)" gradientUnits="userSpaceOnUse">
		<stop  offset="0.2" style="stop-color:#E8E7E7"/>
		<stop  offset="0.3171" style="stop-color:#DEDDDD"/>
		<stop  offset="0.5143" style="stop-color:#C5C3C3"/>
		<stop  offset="0.7657" style="stop-color:#9B9999"/>
		<stop  offset="1" style="stop-color:#6E6B6B"/>
	</radialGradient>
	<circle class="st6" cx="148.4" cy="24.2" r="3.8"/>
</g>
</svg>
