<?xml version="1.0" encoding="UTF-8"?>
<svg width="27px" height="34px" viewBox="0 0 27 34" version="1.1" xmlns="http://www.w3.org/2000/svg" xmlns:xlink="http://www.w3.org/1999/xlink">
    <!-- Generator: Sketch 63.1 (92452) - https://sketch.com -->
    <title>Group 3</title>
    <desc>Created with Sketch.</desc>
    <defs>
        <polygon id="path-1" points="0 0 27 0 27 34 0 34"></polygon>
    </defs>
    <g id="Page-1" stroke="none" stroke-width="1" fill="none" fill-rule="evenodd">
        <g id="Registro-Restaurante" transform="translate(-826.000000, -614.000000)">
            <g id="inputcontrasena" transform="translate(801.000000, 595.000000)">
                <g id="Group-3" transform="translate(25.000000, 19.000000)">
                    <mask id="mask-2" fill="white">
                        <use xlink:href="#path-1"></use>
                    </mask>
                    <g id="Clip-2"></g>
                    <path d="M20.2600691,13.5938624 L6.73943969,13.5938624 L6.73943969,10.4463467 C6.73943969,6.68952264 9.77147535,3.63308148 13.4995088,3.63308148 C17.2275423,3.63308148 20.2600691,6.68952264 20.2600691,10.4463467 L20.2600691,13.5938624 Z M14.9460251,24.8499803 L14.9460251,28.6558064 C14.9460251,29.460628 14.2981626,30.1129988 13.4995088,30.1129988 C12.7003638,30.1129988 12.0529925,29.460628 12.0529925,28.6558064 L12.0529925,24.8499803 C11.1919593,24.3451107 10.6069674,23.4155566 10.6069674,22.3394913 C10.6069674,20.7293532 11.90171,19.4241167 13.4995088,19.4241167 C15.0973076,19.4241167 16.3925414,20.7293532 16.3925414,22.3394913 C16.3925414,23.4155566 15.8075496,24.3451107 14.9460251,24.8499803 L14.9460251,24.8499803 Z M23.8657995,13.617126 L23.8657995,10.4463467 C23.8657995,4.68588316 19.2158268,0 13.4995088,0 C7.78368201,0 3.1337093,4.68588316 3.1337093,10.4463467 L3.1337093,13.617126 C1.38511916,13.7388886 0,15.1916263 0,16.9844084 L0,30.6094539 C0,32.4819263 1.5059487,34 3.36456249,34 L23.6349463,34 C25.4930689,34 27,32.4819263 27,30.6094539 L27,16.9844084 C27,15.1916263 25.6138985,13.7388886 23.8657995,13.617126 L23.8657995,13.617126 Z" id="Fill-1" fill="#121212" mask="url(#mask-2)"></path>
                </g>
            </g>
        </g>
    </g>
</svg>