<?xml version="1.0" encoding="UTF-8"?>
<svg width="88px" height="107px" viewBox="0 0 88 107" version="1.1" xmlns="http://www.w3.org/2000/svg" xmlns:xlink="http://www.w3.org/1999/xlink">
    <!-- Generator: Sketch 63.1 (92452) - https://sketch.com -->
    <title>Group 2</title>
    <desc>Created with Sketch.</desc>
    <defs>
        <polygon id="path-1" points="0.0789245279 0.0891550161 26.9902138 0.0891550161 26.9902138 27.125 0.0789245279 27.125"></polygon>
        <polygon id="path-3" points="0.123824141 0.0896880734 8.97649417 0.0896880734 8.97649417 12.9125899 0.123824141 12.9125899"></polygon>
    </defs>
    <g id="Page-1" stroke="none" stroke-width="1" fill="none" fill-rule="evenodd">
        <g id="anadirRestau-Copy-5" transform="translate(-1057.000000, -219.000000)">
            <g id="Group-17" transform="translate(1057.000000, 219.000000)">
                <g id="Group-2">
                    <g id="Group-3" transform="translate(54.000000, 79.000000)">
                        <mask id="mask-2" fill="white">
                            <use xlink:href="#path-1"></use>
                        </mask>
                        <g id="Clip-2"></g>
                        <path d="M26.9563101,14.5581935 C26.4333987,22.0050933 20.0003354,27.6161914 12.5878671,27.0909736 C5.17528481,26.5656413 -0.41006962,20.1027953 0.112841772,12.65601 C0.635753165,5.20899573 7.06870253,-0.402102373 14.4812848,0.123229905 C21.8938671,0.648562184 27.4791076,7.11129372 26.9563101,14.5581935" id="Fill-1" fill="#BD5555" mask="url(#mask-2)"></path>
                    </g>
                    <path d="M88,97 L0,90.8509302 C4.05626593,82.972119 6.941301,74.5537606 8.56542942,65.8569633 L14.0357692,36.5645239 C17.7620653,20.153844 33.0318616,8.90174413 49.9698131,10.0852817 L49.969929,10.0852817 C66.9076489,11.2688192 80.4320111,24.532887 81.7958016,41.299248 L83.061111,71.0624855 C83.4367298,79.8988466 85.1002507,88.6351258 88,97 L88,97 Z" id="Fill-4" fill="#FFE540"></path>
                    <g id="Group-10" transform="translate(45.000000, 0.000000)">
                        <mask id="mask-4" fill="white">
                            <use xlink:href="#path-3"></use>
                        </mask>
                        <g id="Clip-9"></g>
                        <path d="M4.37326479,12.9125899 C4.27287042,12.9125899 4.17196901,12.9093697 4.07018028,12.9025716 C1.73157465,12.7472872 -0.0303971831,10.8378376 0.13451831,8.6373789 L0.496926761,3.80281009 C0.662095775,1.60258991 2.69077183,-0.055566055 5.03013803,0.0997183486 C7.36874366,0.255002752 9.13071549,2.16457156 8.9658,4.36491101 L8.60339155,9.19947982 C8.44557465,11.3041679 6.58156056,12.9125899 4.37326479,12.9125899" id="Fill-8" fill="#FFE373" mask="url(#mask-4)"></path>
                    </g>
                    <path d="M88,96 C86.9126519,92.8434562 85.9990942,89.6344786 85.2621074,86.3872727 C85.1394114,85.8459562 85.0213499,85.3037158 84.9083862,84.7604359 C84.2303722,81.5008722 83.7293927,78.2056211 83.4079965,74.8888884 C83.2472984,73.2306375 83.131554,71.5668429 83.0612269,69.899699 L82.4285143,54.9246239 L81.7959175,39.9496642 C81.7752944,39.6954638 81.7516589,39.4423027 81.7257062,39.1897192 C81.7172484,39.1076035 81.7070527,39.0258344 81.6978998,38.9439497 C81.6791304,38.7740593 81.6603611,38.6042843 81.6392745,38.4352023 C81.6268775,38.3368021 81.6128584,38.2387484 81.5996503,38.1403483 C81.5792589,37.9885902 81.5588675,37.8369477 81.5366224,37.6857672 C81.5210971,37.5810148 81.5041815,37.476609 81.4877294,37.3722032 C81.4651366,37.2282987 81.4421963,37.0845097 81.4178656,36.9411827 C81.3995597,36.8337741 81.3800952,36.7268274 81.3608624,36.6198807 C81.3356049,36.480134 81.3101156,36.3406182 81.2832361,36.2013335 C81.2623812,36.0931164 81.2405995,35.9852457 81.2187019,35.8773751 C81.1907796,35.7401692 81.162278,35.6033098 81.1328495,35.4666814 C81.1094458,35.3588108 81.0855786,35.2509402 81.0612479,35.1433006 C81.030545,35.0073651 80.9987993,34.8716606 80.9664743,34.7363026 C80.940985,34.6295869 80.9153799,34.5229867 80.8887321,34.416733 C80.8549009,34.2809131 80.8197952,34.1457861 80.7844579,34.0106591 C80.7568831,33.9057913 80.7295401,33.8009235 80.7010385,33.6965176 C80.6637315,33.5594273 80.6248025,33.4231453 80.5857576,33.2868634 C80.5569084,33.1859223 80.5285227,33.0848658 80.4987466,32.9842713 C80.4568052,32.8425612 80.41301,32.701775 80.3693307,32.5608733 C80.3400181,32.4667464 80.3115165,32.372042 80.2815087,32.2782615 C80.2322681,32.1244246 80.180942,31.9716272 80.129616,31.8188297 C80.1027364,31.7390239 80.0770154,31.6585252 80.0496724,31.5790659 C79.9741316,31.3596289 79.8963894,31.1411158 79.8165617,30.9237577 C79.8053232,30.893152 79.7939689,30.8628928 79.7826146,30.8324026 C79.7048724,30.622667 79.6255082,30.4136243 79.5438268,30.2057366 C79.5115018,30.12339 79.4774389,30.0419673 79.4445346,29.9599672 C79.3866045,29.8159472 79.3287902,29.6718117 79.2691222,29.5288312 C79.229498,29.4342423 79.1883676,29.3403463 79.1480483,29.2461039 C79.0926671,29.1169825 79.0374018,28.9875147 78.9803986,28.8592018 C78.9364875,28.7603396 78.8914179,28.662055 78.8466959,28.5637703 C78.7908513,28.441001 78.7350066,28.3183473 78.6777717,28.1963865 C78.6307324,28.0961384 78.5826505,27.9963523 78.5346843,27.8966817 C78.4774494,27.7778393 78.4198669,27.6592278 78.3614733,27.5410783 C78.3116534,27.4404837 78.2610225,27.3404666 78.2102757,27.2405651 C78.1513029,27.1246099 78.0918666,27.0088858 78.0317352,26.8937391 C77.9794822,26.7933755 77.92665,26.6935894 77.8733543,26.5940343 C77.8122959,26.4800425 77.7505424,26.3665128 77.6883255,26.2534449 C77.6338712,26.1542363 77.5791852,26.0553742 77.5236881,25.9568585 C77.4603126,25.8442527 77.3960102,25.7322243 77.3313602,25.6204269 C77.2750521,25.5229507 77.2187441,25.4255899 77.1615091,25.3286911 C77.0954688,25.2167783 77.028154,25.1057893 76.9608392,24.9948004 C76.9029091,24.899403 76.8454425,24.8038902 76.7867014,24.7091858 C76.7171852,24.5971574 76.6462788,24.4861685 76.5756041,24.3749486 C76.5169788,24.282785 76.4589328,24.1901595 76.3993807,24.0985734 C76.3238398,23.9825028 76.2466769,23.8673561 76.1698616,23.7522094 C76.1130901,23.6673219 76.0574772,23.5819725 76.0001264,23.497547 C75.9019928,23.353296 75.8018896,23.2106619 75.7016705,23.0680279 C75.6224221,22.9553066 75.5425944,22.8432782 75.4619557,22.7315963 C75.3669503,22.5997031 75.271945,22.4675789 75.17497,22.3370716 C75.1097407,22.2494123 75.0431211,22.1630234 74.9770807,22.0759416 C74.8982958,21.9718822 74.8199743,21.8677074 74.7401466,21.7646875 C74.6692402,21.6732169 74.5969434,21.5830167 74.5251101,21.4924701 C74.4482947,21.3953403 74.3715953,21.2979796 74.2937372,21.2017738 C74.2191233,21.1097257 74.1432348,21.0184861 74.067694,20.9270155 C73.9907628,20.834159 73.9139475,20.7410715 73.8360894,20.648908 C73.7581155,20.5567444 73.6793305,20.4653893 73.6006615,20.3740342 C73.5232668,20.2844116 73.4457564,20.1950198 73.367319,20.1060901 C73.2867961,20.014735 73.2055781,19.9239574 73.1240126,19.8334107 C73.0455752,19.7462134 72.9666744,19.6593625 72.8873101,19.5729736 C72.8043542,19.482658 72.720819,19.3926888 72.6368204,19.3034126 C72.5572244,19.2185251 72.4770491,19.1342151 72.3964104,19.0502516 C72.3111373,18.9610908 72.2255166,18.8722766 72.1392008,18.7841553 C72.0585621,18.7016932 71.9772282,18.6200395 71.8957785,18.5385013 C71.8077247,18.45038 71.719671,18.3623743 71.6308062,18.2752924 C71.5493564,18.1954866 71.4669798,18.1167203 71.3847191,18.0376075 C71.2942323,17.9506411 71.2037454,17.8635593 71.1123317,17.7776323 C71.0305344,17.7007139 70.9475785,17.6250659 70.8650861,17.5489559 C70.7713551,17.462567 70.6780877,17.3758316 70.5834299,17.2905977 C70.5027912,17.2180679 70.4211097,17.1468087 70.3398917,17.0750874 C70.2416423,16.9882365 70.1439721,16.9006927 70.044564,16.8149968 C69.9769017,16.7564418 69.9080807,16.6995036 69.8399549,16.641526 C69.6164606,16.4516553 69.3905332,16.2644409 69.1624044,16.0802293 C69.0967117,16.0269869 69.0315982,15.9730516 68.9654421,15.9203867 C68.8580396,15.8350373 68.749131,15.7514202 68.64057,15.6672257 C68.5599313,15.6047439 68.4798719,15.5415691 68.3986539,15.4796648 C68.2917149,15.3981266 68.1835015,15.3183208 68.0756357,15.2381686 C67.9915211,15.1755713 67.9075225,15.1126275 67.8228287,15.0507232 C67.714847,14.9719568 67.6058225,14.8945764 67.4969139,14.8170805 C67.4107139,14.7558691 67.3248615,14.6944267 67.2380822,14.6337928 C67.1283626,14.5573363 67.0179478,14.4820348 66.9073013,14.4066178 C66.8199427,14.3472543 66.7325841,14.2878908 66.6447621,14.2292203 C66.5331887,14.1548427 66.4209201,14.0812735 66.3084199,14.0080508 C66.2203661,13.9507662 66.1319648,13.8937126 66.0432159,13.8372364 C65.9294411,13.7647067 65.815203,13.6927545 65.7005014,13.6216107 C65.6118683,13.566405 65.5226559,13.5118922 65.4334436,13.4576104 C65.3173516,13.3869286 65.201028,13.3167087 65.0840092,13.2474128 C64.9950285,13.1947479 64.9058162,13.143007 64.816488,13.0912661 C64.6976154,13.0222012 64.5787428,12.9534827 64.4589434,12.8859192 C64.3710055,12.8362572 64.2822565,12.7876345 64.1937393,12.7386654 C64.0712751,12.6709864 63.948695,12.6030764 63.825188,12.5368989 C63.7404942,12.4913946 63.6552211,12.4472762 63.5701797,12.4025803 C63.4413431,12.3347858 63.3127383,12.2667603 63.1829749,12.2006983 C63.1083609,12.1625855 63.0329359,12.1258587 62.9578585,12.0883234 C62.8167407,12.0176416 62.675623,11.9466133 62.5332308,11.8777794 C62.4922163,11.8579145 62.4495797,11.840937 62.4140107,11.8124102 C62.1588865,11.6072944 61.8734069,11.4450265 61.5492301,11.3972123 C61.4414801,11.3812742 61.3509932,11.3335755 61.256683,11.292691 C61.1104674,11.2292852 60.9630933,11.1680738 60.8158349,11.106747 C60.7389038,11.0746399 60.662436,11.0418398 60.5852731,11.0101947 C60.4471677,10.9537185 60.3080196,10.8993212 60.1691032,10.844693 C60.0817446,10.810276 59.9946178,10.7752816 59.9069116,10.7415576 C59.7713551,10.6895856 59.6352194,10.6392306 59.4988519,10.5888756 C59.4065113,10.5548051 59.3144025,10.5203882 59.2215984,10.4870106 C59.086853,10.4385035 58.9512966,10.3913823 58.8156243,10.3444921 C58.7206189,10.3115765 58.6257294,10.2787764 58.5303764,10.2469003 C58.3951676,10.201396 58.2593794,10.1571621 58.1233595,10.1133902 C58.0266162,10.0822071 57.9297571,10.0513704 57.8325504,10.0209957 C57.6962988,9.97849421 57.5596996,9.93668568 57.422637,9.8958011 C57.3253144,9.86681232 57.2277601,9.838401 57.1302058,9.81010517 C56.9918687,9.77014453 56.8535316,9.73076136 56.7146152,9.69253313 C56.6176402,9.6659697 56.5204335,9.64009923 56.4232268,9.61422876 C56.2823408,9.57680897 56.1414548,9.53962017 55.9999895,9.50393278 C55.9045207,9.47979471 55.8087043,9.45692706 55.7130037,9.43371294 C55.568526,9.39860301 55.4241642,9.3633776 55.2789914,9.33011557 C55.1876935,9.3092113 55.0958164,9.28969296 55.004171,9.26936616 C54.8536686,9.23621962 54.703282,9.2027266 54.5520844,9.17142795 C54.4385414,9.14798284 54.3239557,9.12754055 54.2108761,9.10317149 C54.09826,9.07880243 53.9856439,9.05362492 53.8717533,9.03606996 L53.8185734,9.02786995 C53.8274947,8.95649517 53.8350256,8.88454292 53.8401234,8.81189772 L54.1713678,4.13026667 C54.3222178,1.99953322 52.711645,0.150372105 50.5742559,0 L44,92.9062845 C44,92.9062845 57.9500327,93.8870525 58.2077058,93.9051849 L88,96 Z" id="Fill-11" fill="#FFC742"></path>
                </g>
            </g>
        </g>
    </g>
</svg>