<?xml version="1.0" encoding="UTF-8"?>
<svg width="45px" height="44px" viewBox="0 0 45 44" version="1.1" xmlns="http://www.w3.org/2000/svg" xmlns:xlink="http://www.w3.org/1999/xlink">
    <!-- Generator: Sketch 63.1 (92452) - https://sketch.com -->
    <title>Group 2</title>
    <desc>Created with Sketch.</desc>
    <defs>
        <polygon id="path-1" points="0.735493056 0.384301887 44.5839653 0.384301887 44.5839653 43.7342792 0.735493056 43.7342792"></polygon>
    </defs>
    <g id="Page-1" stroke="none" stroke-width="1" fill="none" fill-rule="evenodd">
        <g id="Registro-Restaurante" transform="translate(-680.000000, -947.000000)">
            <g id="socialmedia" transform="translate(621.000000, 946.000000)">
                <g id="Group-2" transform="translate(59.000000, 1.000000)">
                    <g id="Group-12">
                        <mask id="mask-2" fill="white">
                            <use xlink:href="#path-1"></use>
                        </mask>
                        <g id="Clip-11"></g>
                        <path d="M44.5839653,22.1913358 C44.5839653,10.148317 34.7670208,0.383486792 22.6597292,0.383486792 C10.5483403,0.383486792 0.735493056,10.148317 0.735493056,22.1913358 C0.735493056,33.0769208 8.74965972,42.1000151 19.2344514,43.7342792 L19.2344514,28.4960906 L13.6663264,28.4960906 L13.6663264,22.1913358 L19.2344514,22.1913358 L19.2344514,17.3863547 C19.2344514,11.9211472 22.5081319,8.90122264 27.5149375,8.90122264 C29.9118125,8.90122264 32.4234097,9.32914717 32.4234097,9.32914717 L32.4234097,14.6965434 L29.6577847,14.6965434 C26.9331319,14.6965434 26.0850069,16.3756377 26.0850069,18.1036377 L26.0850069,22.1913358 L32.1652847,22.1913358 L31.1942431,28.4960906 L26.0850069,28.4960906 L26.0850069,43.7342792 C36.5657014,42.1000151 44.5839653,33.0769208 44.5839653,22.1913358" id="Fill-10" fill="#F73118" mask="url(#mask-2)"></path>
                    </g>
                    <path d="M30.7549148,27.5401765 L31.7385321,21.253019 L25.5795107,21.253019 L25.5795107,17.1767301 C25.5795107,15.4535532 26.4386195,13.7791454 29.1985583,13.7791454 L32,13.7791454 L32,8.42673014 C32,8.42673014 29.4600262,8 27.0279598,8 C21.9563128,8 18.6402359,11.0114956 18.6402359,16.4614491 L18.6402359,21.253019 L13,21.253019 L13,27.5401765 L18.6402359,27.5401765 L18.6402359,42.7358337 C19.7732634,42.9105899 20.9270424,43 22.1098733,43 C23.288554,43 24.4464832,42.9105899 25.5795107,42.7358337 L25.5795107,27.5401765 L30.7549148,27.5401765 Z" id="Fill-13" fill="#FFFFFF"></path>
                </g>
            </g>
        </g>
    </g>
</svg>