<?xml version="1.0" encoding="UTF-8"?>
<svg width="45px" height="45px" viewBox="0 0 45 45" version="1.1" xmlns="http://www.w3.org/2000/svg" xmlns:xlink="http://www.w3.org/1999/xlink">
    <!-- Generator: Sketch 63.1 (92452) - https://sketch.com -->
    <title>Group 4</title>
    <desc>Created with Sketch.</desc>
    <defs>
        <polygon id="path-1" points="0.319298611 0.387638889 44.1673611 0.387638889 44.1673611 44.2352917 0.319298611 44.2352917"></polygon>
    </defs>
    <g id="Page-1" stroke="none" stroke-width="1" fill="none" fill-rule="evenodd">
        <g id="Registro-Restaurante" transform="translate(-739.000000, -946.000000)">
            <g id="socialmedia" transform="translate(621.000000, 946.000000)">
                <g id="Group-4" transform="translate(118.000000, 0.000000)">
                    <g id="Group-3">
                        <mask id="mask-2" fill="white">
                            <use xlink:href="#path-1"></use>
                        </mask>
                        <g id="Clip-2"></g>
                        <path d="M44.1677708,22.3110556 C44.1677708,34.4224444 34.3508264,44.2352917 22.2435347,44.2352917 C10.1321458,44.2352917 0.319298611,34.4224444 0.319298611,22.3110556 C0.319298611,10.2037639 10.1321458,0.386819444 22.2435347,0.386819444 C34.3508264,0.386819444 44.1677708,10.2037639 44.1677708,22.3110556" id="Fill-1" fill="#F73118" mask="url(#mask-2)"></path>
                    </g>
                    <path d="M29,14.53 C28.188,14.53 27.528,15.19 27.528,16.002 C27.528,16.814 28.188,17.47 29,17.47 C29.812,17.47 30.472,16.814 30.472,16.002 C30.472,15.19 29.812,14.53 29,14.53" id="Fill-4" fill="#FFFFFF"></path>
                    <path d="M22.5,26.6615982 C20.2029126,26.6615982 18.3349515,24.7942413 18.3349515,22.4978971 C18.3349515,20.2057587 20.2029126,18.3384018 22.5,18.3384018 C24.7928803,18.3384018 26.6608414,20.2057587 26.6608414,22.4978971 C26.6608414,24.7942413 24.7928803,26.6615982 22.5,26.6615982 M22.5,16 C18.915534,16 16,18.9145907 16,22.4978971 C16,26.0812035 18.915534,29 22.5,29 C26.084466,29 29,26.0812035 29,22.4978971 C29,18.9145907 26.084466,16 22.5,16" id="Fill-6" fill="#FFFFFF"></path>
                    <path d="M16.8116034,12.4450112 C13.8527255,12.4450112 11.4491552,14.8527255 11.4491552,17.8074594 L11.4491552,28.1883966 C11.4491552,31.1472745 13.8527255,33.5549888 16.8116034,33.5549888 L27.1925406,33.5549888 C30.1472745,33.5549888 32.5549888,31.1472745 32.5549888,28.1883966 L32.5549888,17.8074594 C32.5549888,14.8527255 30.1472745,12.4450112 27.1925406,12.4450112 L16.8116034,12.4450112 Z M27.1925406,36 L16.8116034,36 C12.5017533,36 9,32.4982467 9,28.1883966 L9,17.8074594 C9,13.5017533 12.5017533,10 16.8116034,10 L27.1925406,10 C31.4982467,10 35,13.5017533 35,17.8074594 L35,28.1883966 C35,32.4982467 31.4982467,36 27.1925406,36 L27.1925406,36 Z" id="Fill-8" fill="#FFFFFF"></path>
                </g>
            </g>
        </g>
    </g>
</svg>