<?xml version="1.0" encoding="UTF-8"?>
<svg width="244px" height="225px" viewBox="0 0 244 225" version="1.1" xmlns="http://www.w3.org/2000/svg" xmlns:xlink="http://www.w3.org/1999/xlink">
    <!-- Generator: Sketch 63.1 (92452) - https://sketch.com -->
    <title>Group 19</title>
    <desc>Created with Sketch.</desc>
    <defs>
        <polygon id="path-1" points="0.652965945 0.5138 19.9955589 0.5138 19.9955589 41.8849634 0.652965945 41.8849634"></polygon>
        <polygon id="path-3" points="0.553448033 0.648269752 219.976478 0.648269752 219.976478 176 0.553448033 176"></polygon>
    </defs>
    <g id="Page-1" stroke="none" stroke-width="1" fill="none" fill-rule="evenodd">
        <g id="tus-restaurantes-copy-7" transform="translate(-571.000000, -357.000000)">
            <g id="Group-19" transform="translate(571.000000, 357.000000)">
                <g id="Group-3" transform="translate(25.000000, 0.000000)">
                    <mask id="mask-2" fill="white">
                        <use xlink:href="#path-1"></use>
                    </mask>
                    <g id="Clip-2"></g>
                    <path d="M19.0171724,41.37504 C19.9957931,39.89594 19.9730345,37.90234 19.9909655,37.20444 C20.0564828,34.68864 19.4102759,31.92014 18.7461379,29.52824 C18.0013103,26.84654 17.4523448,24.10324 16.7082069,21.42294 C15.3516552,16.53694 13.1116552,11.79934 11.3882069,7.03094 C10.4826897,4.52634 9.64751724,-0.75306 5.93924138,0.79184 C1.53303448,2.62794 -6.89655172e-05,7.16394 0.899931034,11.72374 C1.27924138,13.64524 2.36131034,15.34414 3.17441379,17.09274 C4.562,20.07614 6.07441379,22.90484 7.61027586,25.80704 C8.46131034,27.41494 9.25372414,29.05924 10.1661379,30.63914 C11.9261379,33.68484 13.084069,37.59504 15.4364828,40.20254 C15.8778621,40.69184 18.0385517,42.85484 19.0171724,41.37504" id="Fill-1" fill="#D5341F" mask="url(#mask-2)"></path>
                </g>
                <path d="M27,53.1332657 C26.9972582,51.3426746 25.8443032,49.2870451 24.8281162,47.959041 C22.3594521,44.7342898 18.2782921,40.8044099 13.1529078,37.0270852 C4.64319688,30.7540407 3.37125359,29.9069021 0.812322531,32.0785298 C-0.493128939,33.1864888 -0.769400492,39.3765769 4.21648042,43.563059 C11.3202153,49.5274779 19.2069475,54.7270113 21.8123797,55.7035056 C22.5796487,55.9910407 27.0061482,56.862785 27,53.1332657" id="Fill-4" fill="#D5341F"></path>
                <g id="Group-8" transform="translate(24.000000, 49.000000)">
                    <mask id="mask-4" fill="white">
                        <use xlink:href="#path-3"></use>
                    </mask>
                    <g id="Clip-7"></g>
                    <path d="M197.601994,12.1456762 C197.601994,12.1456762 46.6660818,1.25323175 28.8571509,0.66167619 C11.0482201,0.0694222222 5.91834591,19.2569143 6.48356604,27.1119619 L0.850735849,103.370248 C0.850735849,103.370248 -4.61674843,125.733422 31.3428742,129.391708 L83.7423082,135.923962 C83.7423082,135.923962 90.3741321,156.395137 80.9085975,171.799327 C80.9085975,171.799327 79.4336289,177.547263 86.9634403,175.595898 C94.4925597,173.644533 120.613063,155.082121 123.420484,138.543708 C123.450925,138.367708 167.563692,138.745549 181.250736,139.425105 C194.937088,140.103962 205.587717,137.115454 207.095201,124.171073 L209.307654,108.871644 L219.752811,36.655073 C219.752811,36.655073 223.787528,10.8724698 197.601994,12.1456762" id="Fill-6" fill="#D5341F" mask="url(#mask-4)"></path>
                </g>
                <path d="M66.0618365,58.4668412 C65.5761517,58.4668412 64.9628011,58.4153362 64.3716533,58.3589591 C63.5647226,58.2830937 62.9721872,57.5655042 63.0485091,56.756041 C63.1241371,55.9458818 63.8408692,55.3493986 64.6464121,55.428048 C65.2680887,55.4865131 65.9889838,55.5637706 66.2984344,55.5115696 C66.5329508,55.4544965 66.936763,55.3981195 68.184973,55.3981195 C68.8649318,55.3981195 69.7405522,55.4148238 70.7951821,55.4468404 C71.6048881,55.4712009 72.241829,56.1498136 72.2182386,56.9620609 C72.1932606,57.7750042 71.5133018,58.403504 70.707065,58.3895837 C69.6878207,58.3589591 68.8413414,58.3422548 68.184973,58.3422548 C67.2122157,58.3422548 66.9652103,58.3798395 66.9402322,58.3840156 C66.7202864,58.4383046 66.430957,58.4668412 66.0618365,58.4668412 M52.0741134,58.5503627 C51.4024807,58.5503627 50.7960685,58.08473 50.6434247,57.3991571 C50.4664966,56.6057022 50.9639767,55.8192074 51.7549491,55.641028 C53.6775672,55.2094999 55.7410339,55 58.0633012,55 L58.2867162,55.000696 C59.0971161,55.0041761 59.7514029,55.6667805 59.7472596,56.4797238 C59.7437707,57.2905791 59.0874024,57.9448314 58.2797779,57.9448314 L58.2728395,57.9448314 L58.0633012,57.9441353 C55.9595921,57.9441353 54.1056637,58.1306668 52.3960531,58.5141701 C52.2878147,58.5385305 52.1802702,58.5503627 52.0741134,58.5503627 M83.2863021,58.9811948 C83.2592425,58.9811948 83.2314891,58.9798028 83.2037357,58.9784108 C80.921017,58.8517364 78.8270215,58.7417663 76.9501966,58.6498926 C76.1411844,58.6102199 75.5167325,57.9197749 75.5562811,57.1075276 C75.5958297,56.2959764 76.2868898,55.6660845 77.0931267,55.7092373 C78.9755023,55.8011111 81.0764361,55.9117771 83.3660932,56.0391475 C84.1751053,56.0836924 84.7953942,56.7783134 84.7502949,57.5905607 C84.7072771,58.3742714 84.0592348,58.9811948 83.2863021,58.9811948 M95.7968495,59.7210567 C95.7663207,59.7210567 95.7357919,59.7203607 95.7052632,59.7182727 C93.5328643,59.5839422 91.4458072,59.4572678 89.4551932,59.3389456 C88.6461811,59.2909207 88.0293614,58.5942116 88.077236,57.7826603 C88.1251107,56.9711091 88.8168646,56.3495694 89.6286521,56.3996823 C91.6213476,56.5180045 93.71118,56.6446789 95.8856604,56.7797055 C96.6946726,56.8298184 97.3101046,57.5279195 97.2601485,58.3394708 C97.2122738,59.1203975 96.5656192,59.7210567 95.7968495,59.7210567 M108.295602,60.5165997 C108.263685,60.5165997 108.231769,60.5159037 108.199158,60.5131196 C106.067696,60.374613 103.98272,60.2402825 101.953252,60.1108241 C101.144239,60.0593191 100.530195,59.359826 100.581539,58.5489707 C100.632883,57.7374195 101.32533,57.1214479 102.139199,57.1729528 C104.170056,57.3017153 106.256419,57.4367418 108.389269,57.5759444 C109.198282,57.6281454 109.811632,58.3290306 109.758901,59.1398858 C109.708251,59.9187245 109.062984,60.5165997 108.295602,60.5165997 M120.788109,61.3434632 C120.754805,61.3434632 120.721501,61.3420712 120.688197,61.3399832 L114.443678,60.9237674 C113.635359,60.8701743 113.023397,60.1685932 113.076822,59.3577379 C113.130247,58.5468827 113.82547,57.9323031 114.637952,57.9858961 L120.884552,58.402808 C121.692871,58.457097 122.304834,59.1586782 122.250714,59.9695334 C122.198677,60.747676 121.55341,61.3434632 120.788109,61.3434632 M133.276454,62.1925992 C133.242456,62.1925992 133.209152,62.1912072 133.175154,62.1884231 L126.932022,61.7624631 C126.12301,61.7074781 125.512435,61.0052009 125.567248,60.1936496 C125.622755,59.3827944 126.330467,58.7716949 127.130459,58.8245919 L133.375672,59.2512479 C134.183991,59.306929 134.794566,60.0092062 134.739059,60.8207574 C134.686328,61.597508 134.041754,62.1925992 133.276454,62.1925992 M145.763411,63.0563514 C145.729413,63.0563514 145.694721,63.0549594 145.660723,63.0528714 L139.418286,62.6185592 C138.609273,62.5628782 137.999392,61.8599049 138.054899,61.0483537 C138.110406,60.2374985 138.820199,59.626399 139.620192,59.68208 L145.864017,60.1156962 C146.672335,60.1720732 147.282217,60.8750464 147.226016,61.6859017 C147.171897,62.4626523 146.528018,63.0563514 145.763411,63.0563514 M158.24898,63.9333279 C158.214288,63.9333279 158.18029,63.9326319 158.144905,63.9298479 L151.903161,63.4899676 C151.094149,63.4328945 150.484961,62.7299213 150.541856,61.91837 C150.59875,61.1075148 151.307156,60.4971113 152.107842,60.5527924 L158.350974,60.9926726 C159.159292,61.0504417 159.769174,61.754111 159.711585,62.5649662 C159.657466,63.3403248 159.012893,63.9333279 158.24898,63.9333279 M170.735243,64.8214406 C170.700552,64.8214406 170.66586,64.8200486 170.62978,64.8179606 L164.388036,64.3732082 C163.579718,64.3154391 162.970531,63.6117699 163.028119,62.8009146 C163.08432,61.9900594 163.78093,61.3761759 164.595493,61.436033 L170.838625,61.8807853 C171.646943,61.9385544 172.255437,62.6429197 172.197849,63.4537749 C172.143036,64.2291335 171.498462,64.8214406 170.735243,64.8214406 M41.9489724,65.3009936 C41.672132,65.3009936 41.3925163,65.2230402 41.1441232,65.0594771 C40.4669398,64.6126367 40.2782166,63.7001635 40.7236589,63.0201588 C42.0044792,61.065754 43.6197282,59.4433475 45.5263881,58.1995721 C46.205653,57.7569078 47.1145775,57.9497034 47.5565507,58.6304042 C47.9985239,59.3118011 47.8056376,60.2235782 47.1263727,60.6676345 C45.5624675,61.6886857 44.2330788,63.0243348 43.1763673,64.6376932 C42.8946701,65.0678293 42.4263312,65.3009936 41.9489724,65.3009936 M183.222894,65.7172095 C183.188202,65.7172095 183.152817,65.7165134 183.116737,65.7137294 L176.872218,65.2641049 C176.0639,65.2063359 175.455406,64.5019706 175.513688,63.6911154 C175.570583,62.8795641 176.269275,62.2656806 177.08245,62.3276257 L183.326969,62.7772502 C184.135288,62.8350193 184.743781,63.5400805 184.685499,64.3509358 C184.629992,65.1255983 183.986113,65.7172095 183.222894,65.7172095 M195.715402,66.6227225 C195.680016,66.6227225 195.644631,66.6213305 195.607857,66.6185464 L189.361257,66.1654419 C188.552938,66.1069768 187.945138,65.4019155 188.003421,64.5910603 C188.061703,63.7809011 188.760395,63.1684095 189.572876,63.2289627 L195.820865,63.6820672 C196.629183,63.7412283 197.236983,64.4455936 197.178007,65.2564488 C197.121806,66.0311114 196.477927,66.6227225 195.715402,66.6227225 M208.215542,67.5358916 C208.179462,67.5358916 208.143383,67.5344996 208.107303,67.5317156 L201.855152,67.073739 C201.047527,67.0145778 200.439728,66.3095166 200.498704,65.4986613 C200.55768,64.6878061 201.259147,64.0801867 202.068853,64.1372598 L208.321005,64.5952364 C209.129323,64.6543975 209.736429,65.3601547 209.677453,66.17101 C209.621252,66.9449765 208.977373,67.5358916 208.215542,67.5358916 M220.732334,68.458109 C220.696254,68.458109 220.659481,68.456717 220.623401,68.4539329 L214.362924,67.9917802 C213.554606,67.9326191 212.9475,67.2268618 213.006476,66.4160066 C213.066145,65.6051514 213.759287,64.9912678 214.577319,65.055301 L220.83849,65.5174537 C221.646809,65.5773108 222.253915,66.2830681 222.194245,67.0946193 C222.13735,67.8678899 221.494165,68.458109 220.732334,68.458109 M232.154947,72.8360313 C231.780276,72.8360313 231.405605,72.6919566 231.119051,72.4058952 C229.910389,71.1983125 228.312486,70.2190221 226.368359,69.4972565 C225.607915,69.2146752 225.220755,68.3676273 225.501759,67.605493 C225.783456,66.8426626 226.62716,66.4528953 227.387603,66.7361726 C229.729992,67.606189 231.682445,68.8123796 233.190843,70.32064 C233.764645,70.8948508 233.766033,71.8268123 233.194312,72.4024151 C232.907758,72.6912606 232.531006,72.8360313 232.154947,72.8360313 M38.4034731,80.2332583 C38.3708629,80.2332583 38.3375588,80.2318663 38.3042547,80.2304743 C37.4952425,80.1754892 36.8839734,79.473908 36.9380926,78.6630528 L37.3557816,72.4128553 C37.3585569,72.3676145 37.3641076,72.3223736 37.3710459,72.2771328 C37.5458925,71.1892643 37.771389,70.1355005 38.041291,69.1464659 C38.2556862,68.3627552 39.0633107,67.8992105 39.8445694,68.1163666 C40.6258281,68.3307386 41.0858411,69.1408978 40.8721397,69.9246085 C40.634848,70.7918408 40.4357172,71.7182343 40.2796042,72.6787323 L39.8667721,78.8600245 C39.8140406,79.6374711 39.1694675,80.2332583 38.4034731,80.2332583 M235.290389,84.4587538 C235.209904,84.4587538 235.12942,84.4517936 235.047547,84.4385694 C234.247555,84.3049349 233.707751,83.5462806 233.840967,82.7444735 C233.988754,81.8528808 234.064382,80.9647681 234.065076,80.1051919 C234.065076,79.0528201 233.951287,78.0442972 233.72579,77.1088556 C233.535679,76.3188807 234.019977,75.5233378 234.808174,75.3326302 C235.597065,75.1426186 236.388731,75.6277398 236.578842,76.4184106 C236.858458,77.5793604 237,78.8203518 237,80.1058879 C236.999306,81.1276351 236.910495,82.1779189 236.735649,83.2282026 C236.616309,83.9478801 235.994632,84.4587538 235.290389,84.4587538 M37.5687891,92.7336533 C37.535485,92.7336533 37.5021808,92.7322613 37.4688767,92.7301732 C36.6605584,92.6758842 36.0485955,91.974303 36.1027147,91.1627518 L36.5204037,84.9125543 C36.5752167,84.101699 37.2704398,83.4919916 38.0829211,83.5421045 C38.8919333,83.5963935 39.5032023,84.2986707 39.4490832,85.109526 L39.0313942,91.3597235 C38.9793566,92.1371701 38.3340896,92.7336533 37.5687891,92.7336533 M233.405932,96.8262102 C233.344875,96.8262102 233.283123,96.8227302 233.221372,96.815074 C232.417217,96.7134561 231.84619,95.9777703 231.94749,95.1710911 L232.723892,88.9556943 C232.824498,88.1490151 233.561351,87.5768924 234.362038,87.6778143 C235.166887,87.7794322 235.737219,88.515118 235.635919,89.3217972 L234.859518,95.537194 C234.766544,96.281928 234.13446,96.8262102 233.405932,96.8262102 M36.7334111,105.234048 C36.7008009,105.234048 36.6674968,105.232656 36.6341927,105.230568 C35.8251805,105.176279 35.2139115,104.474698 35.2680306,103.663147 L35.6850258,97.4129493 C35.7391449,96.602094 36.4308989,95.9944746 37.2475432,96.0424995 C38.0558616,96.0967885 38.6678244,96.7990657 38.6137053,97.609921 L38.1960163,103.860118 C38.1446725,104.637565 37.4987117,105.234048 36.7334111,105.234048 M231.852435,109.2577 C231.791377,109.2577 231.729626,109.253524 231.668568,109.245868 C230.863719,109.144946 230.293386,108.408564 230.394686,107.601885 L231.171088,101.386488 C231.271001,100.579809 232.007854,100.006294 232.809234,100.109304 C233.613389,100.210226 234.184416,100.945912 234.083116,101.752591 L233.306714,107.968684 C233.21374,108.712722 232.581656,109.2577 231.852435,109.2577 M35.8980332,117.733747 C35.865423,117.733747 35.8321189,117.732355 35.7981209,117.730267 C34.9898026,117.675978 34.3778397,116.974397 34.4326527,116.163542 L34.8503417,109.913344 C34.9044608,109.101793 35.599684,108.496958 36.4128592,108.542894 C37.2211775,108.597183 37.8324465,109.298765 37.7783274,110.110316 L37.3606384,116.360513 C37.3086008,117.13796 36.6633338,117.733747 35.8980332,117.733747 M230.299631,121.688494 C230.238573,121.688494 230.176822,121.685014 230.115071,121.676661 C229.310915,121.575739 228.740583,120.840054 228.841189,120.033374 L229.618284,113.817282 C229.718891,113.010602 230.454356,112.436392 231.25643,112.540098 C232.060585,112.64102 232.630918,113.377401 232.530312,114.184081 L231.75391,120.399477 C231.660936,121.143515 231.028852,121.688494 230.299631,121.688494 M35.0626553,130.234142 C35.0300451,130.234142 34.996741,130.23275 34.9634369,130.230662 C34.1544247,130.176373 33.5431557,129.474792 33.5972748,128.663241 L34.0149638,122.413043 C34.0690829,121.602188 34.7594492,120.991784 35.5774813,121.042593 C36.3857996,121.096882 36.9977625,121.79916 36.9436433,122.610015 L36.5259543,128.860908 C36.4732228,129.638355 35.8286497,130.234142 35.0626553,130.234142 M228.746133,134.119287 C228.685076,134.119287 228.623324,134.115111 228.560879,134.108151 C227.757418,134.006533 227.187085,133.270847 227.287691,132.463472 L228.064787,126.248075 C228.165393,125.441396 228.896002,124.874145 229.70432,124.970891 C230.507781,125.071813 231.078114,125.808195 230.977508,126.614874 L230.199719,132.830967 C230.107438,133.575005 229.47466,134.119287 228.746133,134.119287 M34.0676953,142.715745 C33.9872104,142.715745 33.9060316,142.708785 33.824159,142.69556 C33.0241667,142.560534 32.4850566,141.80188 32.6189668,141.000073 C32.7258175,140.361829 32.8153222,139.919164 32.8590339,139.719409 L33.1795859,134.913438 C33.233705,134.102583 33.9282343,133.494267 34.7421033,133.542988 C35.5504217,133.597277 36.1623846,134.298859 36.1082654,135.11041 L35.7793874,140.02635 C35.7745305,140.102912 35.7634292,140.180865 35.7460833,140.256035 C35.7405326,140.279003 35.6406203,140.723059 35.5136484,141.486586 C35.392921,142.206263 34.7719383,142.715745 34.0676953,142.715745 M227.192636,146.550777 C227.132272,146.550777 227.070521,146.546601 227.008769,146.538945 C226.204614,146.438023 225.633587,145.702337 225.734887,144.895658 L226.511289,138.679565 C226.611895,137.87219 227.35083,137.304243 228.149435,137.401685 C228.954284,137.503303 229.524617,138.238293 229.423317,139.044972 L228.646915,145.261065 C228.553941,146.005799 227.921857,146.550777 227.192636,146.550777 M33.8213837,155.201524 C33.103264,155.201524 32.4753429,154.672554 32.3698799,153.938956 C32.1242621,152.221196 32.0000656,150.392073 32.0000656,148.502398 C31.9993717,148.143255 32.0042286,147.788984 32.0125546,147.441674 C32.0326758,146.629426 32.7126346,145.964038 33.5154022,146.005799 C34.3258021,146.025983 34.9662122,146.701116 34.9467848,147.513363 C34.9391526,147.836313 34.9349896,148.166223 34.9349896,148.501006 C34.9349896,150.252871 35.0494725,151.941398 35.2756628,153.519956 C35.3901457,154.325243 34.8336896,155.071369 34.030922,155.186907 C33.9608446,155.197347 33.8900734,155.201524 33.8213837,155.201524 M225.639832,158.981571 C225.578774,158.981571 225.517023,158.977395 225.455965,158.969738 C224.651116,158.868816 224.080784,158.133131 224.182084,157.326451 L224.958485,151.110359 C225.058398,150.302983 225.797332,149.733645 226.596631,149.833175 C227.400786,149.934097 227.971119,150.669782 227.870513,151.476462 L227.094111,157.691858 C227.001137,158.437288 226.369053,158.981571 225.639832,158.981571 M38.585258,166.594562 C38.1758951,166.594562 37.7693075,166.423342 37.4792843,166.089952 C36.0596969,164.458498 34.8968287,162.519405 34.0232898,160.326268 C33.722859,159.571094 34.0885103,158.714302 34.8413218,158.412928 C35.5941333,158.11225 36.4475509,158.477657 36.7486755,159.232831 C37.4994055,161.117635 38.4888149,162.77345 39.6898441,164.15434 C40.2227097,164.766831 40.1595707,165.696009 39.5496893,166.231243 C39.2714613,166.474847 38.9273189,166.594562 38.585258,166.594562 M224.087028,171.412364 C224.025971,171.412364 223.964219,171.408884 223.902468,171.401228 C223.098313,171.29961 222.52798,170.56462 222.628586,169.757245 L223.404988,163.541848 C223.505594,162.734473 224.243141,162.167222 225.043827,162.263968 C225.847982,162.36489 226.418315,163.100576 226.317709,163.907255 L225.541307,170.123348 C225.448333,170.868082 224.816249,171.412364 224.087028,171.412364 M49.3875825,172.335278 C49.305016,172.335278 49.2203681,172.328317 49.1357202,172.313005 C46.8113714,171.910014 44.6826841,171.216089 42.8072469,170.251414 C42.085658,169.880439 41.8011854,168.993719 42.1709997,168.270561 C42.540814,167.5481 43.4261481,167.262038 44.1463493,167.632317 C45.7574353,168.460573 47.6044253,169.05984 49.6359756,169.412023 C50.435274,169.551225 50.9702212,170.312664 50.8321479,171.113775 C50.7086452,171.829972 50.0883563,172.335278 49.3875825,172.335278 M61.7767086,173.915227 C61.716345,173.915227 61.6545936,173.911051 61.5935361,173.903395 L55.3968915,173.128037 C54.5927362,173.027811 54.0217096,172.292125 54.1223157,171.485446 C54.2229219,170.678766 54.9549183,170.110124 55.7597674,170.20687 L61.956412,170.982228 C62.7605673,171.08315 63.3309001,171.81814 63.2309878,172.625515 C63.1387077,173.370249 62.5059297,173.915227 61.7767086,173.915227 M74.169304,175.468033 C74.1089403,175.468033 74.0478828,175.463856 73.9854376,175.4562 L67.7894868,174.680146 C66.9853315,174.579224 66.4143049,173.844234 66.5149111,173.036859 C66.6155172,172.229484 67.3482075,171.660145 68.1530566,171.758283 L74.3497012,172.535033 C75.1538565,172.635259 75.7241893,173.370945 75.6235831,174.177624 C75.5306092,174.922358 74.8985251,175.468033 74.169304,175.468033 M86.5618993,177.019446 C86.5015356,177.019446 86.4404781,177.01527 86.3787268,177.007613 L80.182776,176.232255 C79.3779269,176.132029 78.8075941,175.396343 78.9082003,174.589664 C79.0081126,173.782985 79.7373336,173.212254 80.545652,173.311088 L86.7422966,174.086447 C87.5464519,174.187368 88.1167846,174.922358 88.0168723,175.729733 C87.9238984,176.474467 87.2918143,177.019446 86.5618993,177.019446 M98.9551885,178.572251 C98.894131,178.572251 98.8330735,178.568075 98.7713221,178.560419 L92.5746775,177.784364 C91.7705222,177.683442 91.2001895,176.948452 91.3007956,176.141077 C91.4014017,175.333702 92.134092,174.764363 92.9389411,174.862501 L99.1348919,175.639252 C99.9397411,175.739478 100.510074,176.475163 100.409468,177.281843 C100.316494,178.026577 99.6844096,178.572251 98.9551885,178.572251 M148.33754,179.951749 C148.321582,179.951749 148.30493,179.951053 148.288972,179.951053 L142.047922,179.745729 C141.238216,179.718584 140.602663,179.03858 140.629028,178.225636 C140.656088,177.413389 141.350617,176.803682 142.143671,176.802986 L148.384721,177.007613 C149.194427,177.035454 149.829981,177.714763 149.803615,178.527706 C149.777249,179.323945 149.125738,179.951749 148.33754,179.951749 M160.819641,180.363093 C160.803682,180.363093 160.78703,180.362397 160.771072,180.362397 L154.530022,180.157073 C153.720316,180.129928 153.084763,179.449923 153.111129,178.63698 C153.137494,177.841437 153.789006,177.212937 154.577203,177.212937 C154.593855,177.212937 154.609813,177.213633 154.626465,177.213633 L160.867515,177.418957 C161.677221,177.446102 162.312775,178.126106 162.286409,178.93905 C162.259349,179.734593 161.607838,180.363093 160.819641,180.363093 M111.017518,180.633146 C110.524895,180.633146 110.045455,180.383973 109.769308,179.937133 L104.967967,179.336473 C104.163811,179.236247 103.593479,178.500562 103.693391,177.693882 C103.793303,176.887203 104.529463,176.316472 105.331536,176.415306 L110.847528,177.105751 C111.283257,177.16004 111.672499,177.409909 111.907015,177.78158 C111.907015,177.78158 112.049252,178.006392 112.290706,178.432352 C112.692437,179.138806 112.446819,180.037358 111.742576,180.44035 C111.513611,180.5712 111.26383,180.633146 111.017518,180.633146 M173.302435,180.774436 C173.285783,180.774436 173.269824,180.77374 173.253172,180.77374 L167.012122,180.568416 C166.202416,180.541272 165.566863,179.860571 165.593229,179.048324 C165.620288,178.236077 166.305798,177.618017 167.108565,177.624977 L173.349615,177.830301 C174.159321,177.857445 174.794875,178.538146 174.768509,179.350393 C174.742143,180.145936 174.089938,180.774436 173.302435,180.774436 M216.857956,180.830117 C216.273053,180.830117 215.720066,180.477239 215.492488,179.898852 C215.194139,179.142982 215.563953,178.287582 216.318152,177.988992 C218.141552,177.265834 219.600688,176.193974 220.654624,174.802644 C221.144472,174.156744 222.064498,174.029373 222.710458,174.522151 C223.355725,175.014232 223.48131,175.937145 222.990768,176.585134 C221.608648,178.409384 219.726272,179.802802 217.396373,180.726411 C217.219445,180.796709 217.03766,180.830117 216.857956,180.830117 M185.784535,181.185084 C185.767883,181.185084 185.751924,181.184388 185.735272,181.184388 L179.494222,180.979064 C178.683822,180.951224 178.048963,180.271219 178.075329,179.458972 C178.102388,178.646028 178.788592,178.021705 179.590665,178.035625 L185.831716,178.241645 C186.642115,178.268789 187.276975,178.94949 187.250609,179.761737 C187.224243,180.55728 186.572038,181.185084 185.784535,181.185084 M198.266635,181.596428 C198.250677,181.596428 198.234025,181.595732 198.218066,181.595732 L191.977016,181.389712 C191.166616,181.362567 190.531757,180.682563 190.558123,179.870315 C190.585182,179.058068 191.255427,178.4414 192.072766,178.446969 L198.313816,178.652988 C199.124215,178.680133 199.759075,179.360138 199.732709,180.172385 C199.706343,180.968624 199.054832,181.596428 198.266635,181.596428 M210.198523,182.011948 C209.294456,182.011948 208.65474,181.954178 208.445895,181.932602 L204.459116,181.801056 C203.648717,181.773911 203.013857,181.093906 203.040223,180.281659 C203.067282,179.469412 203.738221,178.845088 204.554866,178.858312 L208.597845,178.991251 C208.640169,178.992643 208.683187,178.996123 208.724817,179.001691 C208.72898,179.001691 209.524115,179.092869 210.707799,179.060852 C210.721675,179.060852 210.736246,179.060156 210.749429,179.060156 C211.541095,179.060156 212.1933,179.692136 212.215503,180.490463 C212.2384,181.303406 211.600071,181.980627 210.790365,182.003595 C210.581521,182.009859 210.384471,182.011948 210.198523,182.011948 M137.697574,190.540892 C137.519258,190.540892 137.338861,190.508179 137.162626,190.438578 C136.407733,190.142076 136.036531,189.287372 136.332105,188.530806 C136.971822,186.895175 137.436691,185.265113 137.713532,183.685859 C137.723245,183.62809 137.737122,183.571017 137.753774,183.51464 L138.018819,182.634183 C138.252642,181.856041 139.072755,181.41616 139.84777,181.650717 C140.623478,181.885273 141.062676,182.707265 140.828159,183.485407 L140.588092,184.283038 C140.27656,186.027247 139.764509,187.818785 139.064429,189.606146 C138.837545,190.186621 138.283865,190.540892 137.697574,190.540892 M115.546876,192.279533 C114.883569,192.279533 114.282708,191.825732 114.121044,191.150599 C113.661031,189.226123 113.050456,187.280071 112.307358,185.366731 C112.013866,184.609468 112.387149,183.756156 113.142042,183.461047 C113.896242,183.165241 114.748272,183.541088 115.042458,184.29835 C115.83343,186.335581 116.483554,188.4097 116.97479,190.463634 C117.164207,191.254305 116.678522,192.049152 115.890325,192.238468 C115.775148,192.266308 115.659971,192.279533 115.546876,192.279533 M131.296941,201.251141 C130.975696,201.251141 130.651674,201.146043 130.381079,200.929583 C129.748301,200.42219 129.644919,199.495796 130.150725,198.860336 C131.473869,197.198953 132.649227,195.527826 133.643493,193.892891 C134.06812,193.19827 134.970106,192.980418 135.661166,193.402898 C136.35292,193.82677 136.571479,194.732283 136.149627,195.426208 C135.09014,197.16624 133.843318,198.939682 132.443851,200.698507 C132.153828,201.061826 131.727119,201.251141 131.296941,201.251141 M116.455801,204.714502 C116.402375,204.714502 116.34895,204.711718 116.294137,204.705454 C115.488594,204.61706 114.90716,203.889727 114.995277,203.081656 C115.114617,201.987523 115.17498,200.855806 115.17498,199.719216 C115.17498,198.862424 115.140289,197.981272 115.072293,197.102903 C115.009154,196.292048 115.613484,195.584203 116.421109,195.520865 C117.221101,195.44848 117.935058,196.06306 117.998197,196.873915 C118.071743,197.828845 118.109904,198.785863 118.109904,199.71852 C118.109904,200.962296 118.04399,202.201895 117.912855,203.402518 C117.830289,204.1563 117.194735,204.714502 116.455801,204.714502 M122.645507,210.283303 C122.240307,210.283303 121.837882,210.11626 121.547859,209.789134 C121.009443,209.181514 121.063562,208.250945 121.669974,207.710839 C123.245675,206.305588 124.738115,204.873889 126.107746,203.453327 C126.67114,202.869372 127.599492,202.853363 128.183008,203.418526 C128.765136,203.983689 128.781094,204.91565 128.2177,205.500301 C126.796724,206.973065 125.250165,208.457661 123.619652,209.911632 C123.340036,210.160109 122.991731,210.283303 122.645507,210.283303 M112.785411,218 C112.316378,218 111.855671,217.775188 111.571199,217.356884 C111.286726,216.93858 111.247178,216.42353 111.419943,215.985042 C111.029313,215.519409 110.954379,214.838013 111.282563,214.284682 C112.298338,212.57249 113.126084,210.757984 113.743598,208.889885 C113.998235,208.118702 114.828756,207.699702 115.59822,207.955835 C116.36699,208.211968 116.783985,209.045096 116.528653,209.816974 C116.183123,210.862386 115.778617,211.893181 115.317217,212.901008 C115.857714,212.495929 116.396825,212.082497 116.933853,211.662105 C117.57357,211.163759 118.494983,211.275818 118.993851,211.917542 C119.492025,212.55857 119.378236,213.483571 118.739213,213.983308 C117.037235,215.315478 115.311666,216.580829 113.610381,217.743867 C113.357825,217.917174 113.069884,218 112.785411,218" id="Fill-9" fill="#FFFFFF"></path>
                <path d="M68.0966123,34.9002371 C69.3750353,31.0956912 70.3753963,25.5449777 70.712381,19.1847275 C71.2718152,8.62414276 71.2837321,7.09348307 68.2276986,6.05876818 C66.6685654,5.53104977 61.6078374,8.56059551 60.8736214,15.017548 C59.8282408,24.2180836 59.7984484,33.681097 60.3764201,36.4170821 C60.5472296,37.2224743 62.1560168,41.4538919 65.1153906,39.4811644 C66.5361549,38.5341723 67.5702807,36.4668147 68.0966123,34.9002371 Z" id="Fill-11" fill="#D5341F"></path>
                <path d="M124.589284,147.927503 C127.680614,148.143919 130.247447,149.369582 132.291175,151.603106 C134.334903,153.837324 135.253119,156.42183 135.045825,159.358012 C134.83853,162.294888 133.569722,164.686562 131.238704,166.53026 C128.90699,168.374652 126.154426,169.186211 122.978231,168.964246 C119.971767,168.752686 117.466844,167.5513 115.464158,165.362862 C113.46008,163.174425 112.55995,160.651653 112.760984,157.795933 C112.968278,154.859751 114.238478,152.427152 116.575061,150.500911 C118.91234,148.57467 121.58282,147.716636 124.589284,147.927503 L124.589284,147.927503 Z M135.605798,132.960812 C135.415894,135.652832 134.312643,137.830865 132.298827,139.492135 C130.283619,141.154792 127.859388,141.88589 125.029611,141.687509 C122.369565,141.500226 120.114369,140.442423 118.267501,138.507858 C116.419938,136.576068 115.589369,134.304394 115.773708,131.693529 L116.360115,123.373306 C116.61332,119.785101 117.295722,117.496086 118.406625,116.507648 C119.518224,115.521984 120.494177,114.892851 121.339354,114.623025 C122.182444,114.355973 125.136041,114.009846 130.20084,113.584645 C135.264945,113.161524 137.988292,110.257249 138.3681,104.873901 C138.545483,102.346273 137.698915,100.195986 135.827005,98.4244273 C133.955095,96.6542556 131.42026,95.6567999 128.226675,95.4327538 C125.97913,95.2752973 123.961836,95.5846612 122.171314,96.3601518 C120.3794,97.1377233 118.453232,98.6013058 116.393505,100.750899 L114.432555,102.703499 C112.294919,104.686618 109.888078,105.582109 107.212033,105.394132 C104.620853,105.212398 102.560431,104.249624 101.035634,102.502343 C99.5087514,100.755755 98.841653,98.5361035 99.031557,95.8447766 C99.4224947,90.2984233 102.70025,85.6496415 108.868301,81.9018993 C115.034961,78.1534635 122.048189,76.554621 129.909376,77.1060656 C139.238319,77.760169 146.709264,80.7435189 152.324298,86.0561151 C157.938637,91.3673241 160.473472,97.8986475 159.927411,105.647311 C159.43213,112.664183 157.27293,117.717357 153.453983,120.809609 C149.632949,123.903941 146.718307,125.851685 144.70936,126.652147 C142.699718,127.454689 139.759337,128.210758 135.890306,128.923127 L135.605798,132.960812 Z" id="Fill-13" fill="#FC4E43"></path>
                <path d="M132.589284,147.92719 C135.680614,148.143607 138.247447,149.369277 140.291175,151.602813 C142.334903,153.837042 143.253119,156.422256 143.045825,159.35776 C142.839226,162.294652 141.569722,164.686339 139.238704,166.53074 C136.90699,168.375141 134.154426,169.186706 130.978231,168.964046 C127.971072,168.753178 125.466844,167.551091 123.464158,165.362642 C121.46008,163.174193 120.55995,160.652101 120.761679,157.796366 C120.968278,154.859475 122.238478,152.427556 124.575061,150.501305 C126.91234,148.575054 129.583516,147.716322 132.589284,147.92719 L132.589284,147.92719 Z M143.605798,132.961112 C143.415894,135.652453 142.312643,137.830498 140.298827,139.491777 C138.283619,141.155137 135.860084,141.885545 133.029611,141.687162 C130.369565,141.500572 128.114369,140.44207 126.267501,138.508189 C124.419938,136.576388 123.589369,134.304008 123.773708,131.69313 L124.36081,123.373555 C124.61332,119.784638 125.295722,117.49561 126.406625,116.50786 C127.518224,115.521497 128.494177,114.892362 129.339354,114.622534 C130.182444,114.355481 133.136041,114.009352 138.20084,113.584148 C143.264945,113.161025 145.988292,110.256734 146.3681,104.873358 C146.545483,102.345717 145.698915,100.196112 143.827005,98.4245433 C141.955095,96.6543621 139.42026,95.6562074 136.226675,95.4321601 C133.97913,95.2747028 131.961836,95.584762 130.171314,96.3602567 C128.378704,97.1371388 126.453232,98.600729 124.393505,100.750334 L122.432555,102.702944 C120.295615,104.686074 117.888078,105.581569 115.212033,105.394285 C112.620853,105.211857 110.561126,104.249078 109.035634,102.501787 C107.508751,100.755883 106.841653,98.5355264 107.031557,95.8441851 C107.422495,90.2978022 110.70025,85.6496892 116.868301,81.9012333 C123.034961,78.1534711 130.048885,76.5546201 137.909376,77.1060676 C147.238319,77.7601746 154.70996,80.7428467 160.324298,86.0554713 C165.938637,91.3674023 168.473472,97.8987606 167.927411,105.647465 C167.43213,112.663681 165.27293,117.716883 161.453983,120.809844 C157.632949,123.9035 154.718307,125.851254 152.70936,126.65172 C150.699718,127.454267 147.759337,128.211033 143.890306,128.923406 L143.605798,132.961112 Z" id="Fill-15" fill="#B60F08"></path>
                <path d="M128.589895,147.927883 C131.680522,148.1443 134.247349,149.369277 136.291072,151.603506 C138.33549,153.837042 139.253705,156.422256 139.046411,159.358454 C138.839117,162.295346 137.569616,164.687032 135.238603,166.53074 C132.906895,168.375141 130.154338,169.186706 126.97815,168.964046 C123.971694,168.753178 121.466777,167.551785 119.464791,165.363336 C117.460022,163.174887 116.560589,160.652101 116.761623,157.796366 C116.968221,154.859474 118.238418,152.427556 120.575691,150.501305 C122.912269,148.575054 125.583438,147.716321 128.589895,147.927883 L128.589895,147.927883 Z M139.605687,132.961111 C139.415784,135.653147 138.312535,137.830497 136.299419,139.49247 C134.284216,141.155136 131.859991,141.885544 129.030221,141.687162 C126.370181,141.500571 124.114295,140.442069 122.267432,138.508188 C120.419873,136.576388 119.590002,134.304701 119.77434,131.693823 L120.360745,123.373555 C120.61395,119.784637 121.29635,117.496303 122.407251,116.507859 C123.518151,115.521497 124.494102,114.893054 125.339277,114.623227 C126.182365,114.35548 129.13665,114.010045 134.201438,113.584841 C139.264835,113.161024 141.988175,110.257427 142.367982,104.873357 C142.54606,102.346409 141.698799,100.196111 139.827589,98.4245422 C137.954988,96.6543609 135.420855,95.6562062 132.227277,95.432159 C129.979738,95.2747016 127.961753,95.5847608 126.171235,96.3602556 C124.379325,97.1378313 122.453161,98.6007279 120.393439,100.750333 L118.433191,102.703636 C116.295559,104.686073 113.888724,105.581568 111.212685,105.394284 C108.620816,105.212549 106.561094,104.249077 105.036302,102.501786 C103.509422,100.755882 102.84163,98.536219 103.031533,95.8448776 C103.42247,90.2978009 106.700913,85.6496879 112.86895,81.9019256 C119.035595,78.1534697 126.048806,76.5546186 133.909279,77.1060662 C143.238199,77.7601731 150.709822,80.7435389 156.324843,86.05547 C161.939168,91.3674011 164.473997,97.8987595 163.927242,105.647464 C163.432658,112.66368 161.272767,117.717576 157.454525,120.809844 C153.632805,123.904193 150.718865,125.851947 148.709227,126.652413 C146.69959,127.454266 143.759912,128.211033 139.89089,128.923406 L139.605687,132.961111 Z" id="Fill-17" fill="#E7E7E7"></path>
            </g>
        </g>
    </g>
</svg>