<?xml version="1.0" encoding="UTF-8"?>
<svg width="834px" height="767px" viewBox="0 0 834 767" version="1.1" xmlns="http://www.w3.org/2000/svg" xmlns:xlink="http://www.w3.org/1999/xlink">
    <!-- Generator: Sketch 63.1 (92452) - https://sketch.com -->
    <title>Group 187</title>
    <desc>Created with Sketch.</desc>
    <defs>
        <polygon id="path-1" points="0.3722 0.4498 76.418 0.4498 76.418 29.3278 0.3722 29.3278"></polygon>
        <polygon id="path-3" points="0 766.825 833.418 766.825 833.418 0 0 0"></polygon>
        <polygon id="path-5" points="2.996 0.612 2.996 22.497 62.863 22.497 60.344 25.016 0.477 25.016 0.477 3.132"></polygon>
        <polygon id="path-7" points="64.081 0.974 60.358 6.338 0.368 6.338 3.988 0.974"></polygon>
        <path d="M54.284,0.546 C55.861,0.546 57.138,1.824 57.138,3.399 L57.138,3.399 L57.138,15.366 L46.789,15.366 L54.335,117.442 L51.246,117.442 L47.158,82.928 L9.994,82.928 L5.82,117.442 L2.992,117.442 L10.538,15.366 L0.445,15.366 L0.445,3.399 C0.445,1.824 1.723,0.546 3.3,0.546 L3.3,0.546 L54.284,0.546 Z M42.959,47.474 L14.28,47.474 L10.473,78.955 L46.688,78.955 L42.959,47.474 Z M39.157,15.366 L18.163,15.366 L14.761,43.501 L42.489,43.501 L39.157,15.366 Z" id="path-9"></path>
        <path d="M54.617,0.546 C56.194,0.546 57.472,1.824 57.472,3.399 L57.472,3.399 L57.472,15.366 L47.123,15.366 L54.668,117.442 L51.579,117.442 L47.492,82.928 L10.327,82.928 L6.153,117.442 L3.326,117.442 L10.872,15.366 L0.778,15.366 L0.778,3.399 C0.778,1.824 2.057,0.546 3.634,0.546 L3.634,0.546 L54.617,0.546 Z M43.293,47.474 L14.614,47.474 L10.808,78.955 L47.021,78.955 L43.293,47.474 Z M39.491,15.366 L18.497,15.366 L15.095,43.501 L42.823,43.501 L39.491,15.366 Z" id="path-11"></path>
        <polygon id="path-13" points="236.818 0.383 236.818 521.139 225.875 521.139 225.875 13.456 0.947 13.456 0.947 0.383"></polygon>
    </defs>
    <g id="Page-1" stroke="none" stroke-width="1" fill="none" fill-rule="evenodd">
        <g id="anadirRestau-Copy-11" transform="translate(-353.000000, -163.000000)">
            <g id="Group-187" transform="translate(353.000000, 163.000000)">
                <path d="M791.071,681.3159 L31.477,681.3159 C14.093,681.3159 0,667.2229 0,649.8389 C0,632.4549 14.093,618.3619 31.477,618.3619 L791.071,618.3619 C808.455,618.3619 822.547,632.4549 822.547,649.8389 C822.547,667.2229 808.455,681.3159 791.071,681.3159" id="Fill-1" fill="#B21D12"></path>
                <path d="M707.6227,721.7133 L83.5887,721.7133 C64.6237,721.7133 49.2507,706.3393 49.2507,687.3753 C49.2507,668.4113 64.6247,653.0363 83.5897,653.0363 L707.6227,653.0363 C726.5877,653.0363 741.9607,668.4103 741.9607,687.3753 C741.9607,706.3393 726.5877,721.7133 707.6227,721.7133" id="Fill-3" fill="#D5341F"></path>
                <path d="M107.3742,766.8247 L41.3172,766.8247 C33.3432,766.8247 26.8782,760.3597 26.8782,752.3857 C26.8782,744.4117 33.3432,737.9457 41.3172,737.9457 L107.3742,737.9457 C115.3492,737.9457 121.8132,744.4117 121.8132,752.3857 C121.8132,760.3597 115.3492,766.8247 107.3742,766.8247" id="Fill-5" fill="#B21D12"></path>
                <path d="M486.5046,766.8247 L370.4486,766.8247 C362.4746,766.8247 356.0086,760.3597 356.0086,752.3857 C356.0086,744.4117 362.4746,737.9457 370.4486,737.9457 L486.5046,737.9457 C494.4806,737.9457 500.9446,744.4117 500.9446,752.3857 C500.9446,760.3597 494.4806,766.8247 486.5046,766.8247" id="Fill-7" fill="#D5341F"></path>
                <g id="Group-11" transform="translate(757.000000, 706.825000)">
                    <mask id="mask-2" fill="white">
                        <use xlink:href="#path-1"></use>
                    </mask>
                    <g id="Clip-10"></g>
                    <path d="M61.9792,29.3278 L14.8112,29.3278 C6.8362,29.3278 0.3722,22.8638 0.3722,14.8898 C0.3722,6.9138 6.8362,0.4498 14.8112,0.4498 L61.9792,0.4498 C69.9532,0.4498 76.4182,6.9138 76.4182,14.8898 C76.4182,22.8638 69.9532,29.3278 61.9792,29.3278" id="Fill-9" fill="#B21D12" mask="url(#mask-2)"></path>
                </g>
                <mask id="mask-4" fill="white">
                    <use xlink:href="#path-3"></use>
                </mask>
                <g id="Clip-13"></g>
                <polygon id="Fill-12" fill="#E6EBF0" mask="url(#mask-4)" points="48.358 629.268 742.292 629.268 742.292 0 48.358 0"></polygon>
                <polygon id="Fill-14" fill="#8F8C8C" mask="url(#mask-4)" points="48.358 108.208 742.292 108.208 742.292 0 48.358 0"></polygon>
                <polygon id="Fill-15" fill="#AA160B" mask="url(#mask-4)" points="74.209 89.972 724.054 89.972 724.054 18.238 74.209 18.238"></polygon>
                <polygon id="Fill-16" fill="#D5341F" mask="url(#mask-4)" points="74.21 89.973 709.288 89.973 709.288 28.205 74.21 28.205"></polygon>
                <polygon id="Fill-17" fill="#DCF2E7" mask="url(#mask-4)" points="74.2097 86.5386 74.2097 18.2366 70.5487 18.2366 70.5487 89.9716 74.2097 89.9716 724.0547 89.9716 724.0547 86.5386"></polygon>
                <polygon id="Fill-18" fill="#98663A" mask="url(#mask-4)" points="48.358 629.268 742.292 629.268 742.292 608.598 48.358 608.598"></polygon>
                <polygon id="Fill-19" fill="#C49F6D" mask="url(#mask-4)" points="48.358 611.819 742.292 611.819 742.292 608.598 48.358 608.598"></polygon>
                <polygon id="Fill-20" fill="#D0A475" mask="url(#mask-4)" points="184.493 608.598 403.367 608.598 403.367 265.051 184.493 265.051"></polygon>
                <polygon id="Fill-21" fill="#F59454" mask="url(#mask-4)" points="206.778 485.799 381.081 485.799 381.081 265.05 206.778 265.05"></polygon>
                <polygon id="Fill-22" fill="#387A75" mask="url(#mask-4)" points="214.06 476.833 373.8 476.833 373.8 265.05 214.06 265.05"></polygon>
                <polygon id="Fill-23" fill="#709F9C" mask="url(#mask-4)" points="214.06 476.833 364.801 476.833 364.801 276.141 214.06 276.141"></polygon>
                <polygon id="Fill-24" mask="url(#mask-4)" points="206.778 455.634 381.081 455.634 381.081 433.749 206.778 433.749"></polygon>
                <polygon id="Fill-26" fill="#F7AE7E" mask="url(#mask-4)" points="214.06 476.834 373.8 476.834 373.8 474.023 214.06 474.023"></polygon>
                <polygon id="Fill-27" fill="#F5A44F" mask="url(#mask-4)" points="206.778 446.286 381.081 446.286 381.081 424.401 206.778 424.401"></polygon>
                <polygon id="Fill-28" fill="#D1721E" mask="url(#mask-4)" points="208.5896 446.2856 208.5896 426.9156 206.7786 424.3996 206.7786 446.2856 206.7786 448.8016 208.5896 448.8016 381.0806 448.8016 381.0806 446.2856"></polygon>
                <polygon id="Fill-29" fill="#F9CC9C" mask="url(#mask-4)" points="378.2307 424.3999 206.7787 424.3999 206.7787 426.9159 378.2307 426.9159 378.2307 446.2859 381.0807 448.8009 381.0807 426.9159 381.0807 424.3999"></polygon>
                <polygon id="Fill-30" fill="#AA160B" mask="url(#mask-4)" points="687.1569 60.9985 681.2549 54.4635 679.2469 56.4765 679.2469 63.0115 685.1489 63.0115"></polygon>
                <polygon id="Fill-31" fill="#FFFD75" mask="url(#mask-4)" points="681.257 60.998 687.157 60.998 687.157 54.464 681.257 54.464"></polygon>
                <polygon id="Fill-32" fill="#AA160B" mask="url(#mask-4)" points="116.0959 60.9985 110.1939 54.4635 108.1859 56.4765 108.1859 63.0115 114.0879 63.0115"></polygon>
                <polygon id="Fill-33" fill="#FFFD75" mask="url(#mask-4)" points="110.195 60.998 116.096 60.998 116.096 54.464 110.195 54.464"></polygon>
                <polygon id="Fill-34" fill-opacity="0.55154611" fill="#212121" mask="url(#mask-4)" points="413.2907 348.1069 469.9467 265.0509 154.9567 265.0509 154.9567 628.9639 224.3807 628.9639 388.8987 385.1599 388.8987 608.5979 403.3677 608.5979 403.3677 472.8539 446.4517 472.8539 453.8907 465.4349 413.2907 465.4349"></polygon>
                <polygon id="Fill-35" fill="#D6762A" mask="url(#mask-4)" points="413.291 465.435 459.424 465.435 459.424 348.107 413.291 348.107"></polygon>
                <polygon id="Fill-36" fill="#F5A44F" mask="url(#mask-4)" points="414.591 464.138 459.424 464.138 459.424 348.107 414.591 348.107"></polygon>
                <polygon id="Fill-37" fill="#FACEA0" mask="url(#mask-4)" points="459.424 349.6157 414.591 349.6157 413.291 348.1067 459.424 348.1067"></polygon>
                <polygon id="Fill-38" fill="#FACEA0" mask="url(#mask-4)" points="457.731 465.435 459.424 465.435 459.424 348.107 457.731 348.107"></polygon>
                <polygon id="Fill-39" fill="#2B363C" mask="url(#mask-4)" points="417.144 461.179 455.571 461.179 455.571 352.363 417.144 352.363"></polygon>
                <polygon id="Fill-40" fill="#464F54" mask="url(#mask-4)" points="417.144 461.179 450.329 461.179 450.329 358.331 417.144 358.331"></polygon>
                <polygon id="Fill-41" fill="#FACEA0" mask="url(#mask-4)" points="417.145 461.179 455.572 461.179 455.572 459.61 417.145 459.61"></polygon>
                <polygon id="Fill-42" fill="#8F8C8C" mask="url(#mask-4)" points="136.191 608.898 148.96 608.898 148.96 265.051 136.191 265.051"></polygon>
                <g id="Group-45" mask="url(#mask-4)">
                    <g transform="translate(261.000000, 564.825000)">
                        <mask id="mask-6" fill="white">
                            <use xlink:href="#path-5"></use>
                        </mask>
                        <g id="Clip-44" stroke="none" fill="none"></g>
                        <polygon id="Fill-43" stroke="none" fill="none" mask="url(#mask-6)" points="60.344 25.016 0.477 25.016 0.477 3.132 2.996 0.612 2.996 22.497 62.863 22.497"></polygon>
                    </g>
                </g>
                <polygon id="Fill-46" fill="#D6B087" mask="url(#mask-4)" points="263.996 587.322 323.863 587.322 323.863 565.437 263.996 565.437"></polygon>
                <polygon id="Fill-47" fill="#E8D3BC" mask="url(#mask-4)" points="265.1 586.068 323.863 586.068 323.863 565.437 265.1 565.437"></polygon>
                <polygon id="Fill-48" fill="#F9F4EE" mask="url(#mask-4)" points="323.8635 566.6899 265.1005 566.6899 263.9965 565.4369 323.8635 565.4369"></polygon>
                <polygon id="Fill-49" fill="#464F54" mask="url(#mask-4)" points="267.5 583.371 320.36 583.371 320.36 569.389 267.5 569.389"></polygon>
                <polygon id="Fill-50" fill="#DDBD9B" mask="url(#mask-4)" points="267.5 573.074 320.36 573.074 320.36 571.022 267.5 571.022"></polygon>
                <polygon id="Fill-51" fill="#DDBD9B" mask="url(#mask-4)" points="267.5 577.406 320.36 577.406 320.36 575.354 267.5 575.354"></polygon>
                <polygon id="Fill-52" fill="#DDBD9B" mask="url(#mask-4)" points="267.5 581.737 320.36 581.737 320.36 579.684 267.5 579.684"></polygon>
                <polygon id="Fill-53" fill="#E8D3BC" mask="url(#mask-4)" points="291.933 586.068 295.927 586.068 295.927 566.69 291.933 566.69"></polygon>
                <polygon id="Fill-54" fill="#F9F4EE" mask="url(#mask-4)" points="322.509 565.437 323.863 565.437 323.863 587.322 322.509 586.068"></polygon>
                <g id="Group-57" mask="url(#mask-4)">
                    <g transform="translate(317.000000, 484.825000)">
                        <mask id="mask-8" fill="white">
                            <use xlink:href="#path-7"></use>
                        </mask>
                        <g id="Clip-56" stroke="none" fill="none"></g>
                        <polygon id="Fill-55" stroke="none" fill="none" mask="url(#mask-8)" points="60.358 6.338 0.368 6.338 3.988 0.974 64.081 0.974"></polygon>
                    </g>
                </g>
                <g id="Group-60" mask="url(#mask-4)">
                    <g transform="translate(304.000000, 511.825000)">
                        <mask id="mask-10" fill="white">
                            <use xlink:href="#path-9"></use>
                        </mask>
                        <g id="Clip-59" stroke="none" fill="none"></g>
                        <path d="M42.489,43.501 L14.761,43.501 L18.163,15.366 L39.157,15.366 L42.489,43.501 Z M10.473,78.955 L14.28,47.474 L42.959,47.474 L46.688,78.955 L10.473,78.955 Z M57.138,3.399 C57.138,1.824 55.861,0.546 54.284,0.546 L3.3,0.546 C1.723,0.546 0.445,1.824 0.445,3.399 L0.445,15.366 L10.538,15.366 L2.992,117.442 L5.82,117.442 L9.994,82.928 L47.158,82.928 L51.246,117.442 L54.335,117.442 L46.789,15.366 L57.138,15.366 L57.138,3.399 Z" id="Fill-58" stroke="none" fill="none" mask="url(#mask-10)"></path>
                    </g>
                </g>
                <polygon id="Fill-61" fill="#F5A44F" mask="url(#mask-4)" points="318.911 591.653 359.527 591.653 359.527 587.322 318.911 587.322"></polygon>
                <polygon id="Fill-62" fill="#F5A44F" mask="url(#mask-4)" points="321.238 553.012 357.199 553.012 357.199 548.681 321.238 548.681"></polygon>
                <polygon id="Fill-63" fill="#F59454" mask="url(#mask-4)" points="329.6965 514.8139 329.3225 518.0409 328.8555 522.7139 317.2165 629.2899 314.4585 629.2899 321.5635 522.7139 321.8435 518.0409 322.0775 514.8139"></polygon>
                <polygon id="Fill-64" fill="#F59454" mask="url(#mask-4)" points="364.8015 629.2895 361.7625 629.2895 350.4045 522.7145 349.8895 518.0405 349.5625 514.8135 357.1815 514.8135 357.4155 518.0405 357.6965 522.7145"></polygon>
                <path d="M367.5656,504.7182 L367.5656,518.0402 L311.9396,518.0402 L311.9396,504.7182 C311.9396,503.3152 312.9216,502.1472 314.2766,501.9122 C314.4176,501.8662 314.6036,501.8662 314.7916,501.8662 L364.7126,501.8662 C366.3026,501.8662 367.5656,503.1282 367.5656,504.7182" id="Fill-65" fill="#C40C08" mask="url(#mask-4)"></path>
                <path d="M367.5656,504.7182 L367.5656,515.7022 L314.2296,515.7022 L314.2296,502.4262 C314.2296,502.2392 314.2296,502.0532 314.2766,501.9122 C314.4176,501.8662 314.6036,501.8662 314.7916,501.8662 L364.7126,501.8662 C366.3026,501.8662 367.5656,503.1282 367.5656,504.7182" id="Fill-66" fill="#E03936" mask="url(#mask-4)"></path>
                <path d="M365.9846,510.9165 L363.6456,510.9165 C363.6456,510.5375 363.6786,510.0915 363.7126,509.6065 C363.7926,508.4605 363.9166,506.7315 363.3966,506.1735 C363.3426,506.1155 363.2006,505.9645 362.7226,505.9645 L358.1806,505.9645 L358.1806,503.6255 L362.7226,503.6255 C363.9586,503.6255 364.7006,504.1445 365.1066,504.5815 C366.3196,505.8825 366.1666,508.0395 366.0426,509.7725 C366.0126,510.1945 365.9846,510.5875 365.9846,510.9165" id="Fill-67" fill="#E65F5C" mask="url(#mask-4)"></path>
                <polygon id="Fill-68" fill="#E65F5C" mask="url(#mask-4)" points="353.197 505.964 356.312 505.964 356.312 503.625 353.197 503.625"></polygon>
                <polygon id="Fill-69" fill="#BF5B21" mask="url(#mask-4)" points="357.696 522.7143 321.563 522.7143 321.844 518.0403 357.416 518.0403"></polygon>
                <g id="Group-72" mask="url(#mask-4)">
                    <g transform="translate(206.000000, 511.825000)">
                        <mask id="mask-12" fill="white">
                            <use xlink:href="#path-11"></use>
                        </mask>
                        <g id="Clip-71" stroke="none" fill="none"></g>
                        <path d="M42.823,43.501 L15.095,43.501 L18.497,15.366 L39.491,15.366 L42.823,43.501 Z M10.808,78.955 L14.614,47.474 L43.293,47.474 L47.021,78.955 L10.808,78.955 Z M57.472,3.399 C57.472,1.824 56.194,0.546 54.617,0.546 L3.634,0.546 C2.057,0.546 0.778,1.824 0.778,3.399 L0.778,15.366 L10.872,15.366 L3.326,117.442 L6.153,117.442 L10.327,82.928 L47.492,82.928 L51.579,117.442 L54.668,117.442 L47.123,15.366 L57.472,15.366 L57.472,3.399 Z" id="Fill-70" stroke="none" fill="none" mask="url(#mask-12)"></path>
                    </g>
                </g>
                <polygon id="Fill-73" fill="#F5A44F" mask="url(#mask-4)" points="221.245 591.653 261.861 591.653 261.861 587.322 221.245 587.322"></polygon>
                <polygon id="Fill-74" fill="#F5A44F" mask="url(#mask-4)" points="223.572 553.012 259.534 553.012 259.534 548.681 223.572 548.681"></polygon>
                <polygon id="Fill-75" fill="#F59454" mask="url(#mask-4)" points="232.03 514.8139 231.656 518.0409 231.189 522.7139 219.55 629.2899 216.792 629.2899 223.896 522.7139 224.177 518.0409 224.411 514.8139"></polygon>
                <polygon id="Fill-76" fill="#F59454" mask="url(#mask-4)" points="267.135 629.2895 264.097 629.2895 252.738 522.7145 252.224 518.0405 251.896 514.8135 259.515 514.8135 259.749 518.0405 260.03 522.7145"></polygon>
                <path d="M269.8987,504.7182 L269.8987,518.0402 L214.2727,518.0402 L214.2727,504.7182 C214.2727,503.3152 215.2547,502.1472 216.6107,501.9122 C216.7507,501.8662 216.9377,501.8662 217.1257,501.8662 L267.0467,501.8662 C268.6367,501.8662 269.8987,503.1282 269.8987,504.7182" id="Fill-77" fill="#C40C08" mask="url(#mask-4)"></path>
                <path d="M269.8987,504.7182 L269.8987,515.7022 L216.5637,515.7022 L216.5637,502.4262 C216.5637,502.2392 216.5637,502.0532 216.6107,501.9122 C216.7507,501.8662 216.9377,501.8662 217.1257,501.8662 L267.0467,501.8662 C268.6367,501.8662 269.8987,503.1282 269.8987,504.7182" id="Fill-78" fill="#E03936" mask="url(#mask-4)"></path>
                <path d="M268.3171,510.9165 L265.9781,510.9165 C265.9781,510.5375 266.0111,510.0885 266.0461,509.6045 C266.1251,508.4605 266.2491,506.7315 265.7301,506.1735 C265.6761,506.1155 265.5351,505.9645 265.0581,505.9645 L260.5141,505.9645 L260.5141,503.6255 L265.0581,503.6255 C266.2921,503.6255 267.0361,504.1445 267.4401,504.5815 C268.6521,505.8825 268.4991,508.0395 268.3761,509.7705 C268.3451,510.1945 268.3171,510.5865 268.3171,510.9165" id="Fill-79" fill="#E65F5C" mask="url(#mask-4)"></path>
                <polygon id="Fill-80" fill="#E65F5C" mask="url(#mask-4)" points="255.53 505.964 258.644 505.964 258.644 503.625 255.53 503.625"></polygon>
                <polygon id="Fill-81" fill="#BF5B21" mask="url(#mask-4)" points="260.0295 522.7143 223.8965 522.7143 224.1775 518.0403 259.7495 518.0403"></polygon>
                <polygon id="Fill-82" fill="#F59454" mask="url(#mask-4)" points="469.947 629.268 705.817 629.268 705.817 265.051 469.947 265.051"></polygon>
                <polygon id="Fill-83" fill="#D4682E" mask="url(#mask-4)" points="584.967 629.268 587.437 629.268 587.437 266.506 584.967 266.506"></polygon>
                <polygon id="Fill-84" fill="#387A75" mask="url(#mask-4)" points="488.032 485.799 578.307 485.799 578.307 291.713 488.032 291.713"></polygon>
                <polygon id="Fill-85" fill="#387A75" mask="url(#mask-4)" points="596.85 485.799 687.124 485.799 687.124 291.713 596.85 291.713"></polygon>
                <polygon id="Fill-86" fill="#709F9C" mask="url(#mask-4)" points="596.862 485.786 679.504 485.786 679.504 305.17 596.862 305.17"></polygon>
                <polygon id="Fill-87" fill="#387A75" mask="url(#mask-4)" points="488.041 604.936 578.303 604.936 578.303 501.867 488.041 501.867"></polygon>
                <polygon id="Fill-88" fill="#387A75" mask="url(#mask-4)" points="596.862 604.936 687.123 604.936 687.123 501.867 596.862 501.867"></polygon>
                <polygon id="Fill-89" fill="#709F9C" mask="url(#mask-4)" points="596.862 604.936 679.504 604.936 679.504 511.402 596.862 511.402"></polygon>
                <polygon id="Fill-90" fill="#709F9C" mask="url(#mask-4)" points="488.041 485.786 570.684 485.786 570.684 305.17 488.041 305.17"></polygon>
                <polygon id="Fill-91" fill="#709F9C" mask="url(#mask-4)" points="488.041 604.936 570.684 604.936 570.684 511.402 488.041 511.402"></polygon>
                <polygon id="Fill-92" fill="#2A5355" mask="url(#mask-4)" points="550.9587 604.936 570.6847 569.785 570.6847 604.936"></polygon>
                <polygon id="Fill-93" fill="#F59454" mask="url(#mask-4)" points="469.947 265.051 705.817 265.051 705.817 108.209 469.947 108.209"></polygon>
                <polygon id="Fill-94" fill="#387A75" mask="url(#mask-4)" points="480.89 251.978 694.875 251.978 694.875 121.281 480.89 121.281"></polygon>
                <polygon id="Fill-95" fill="#709F9C" mask="url(#mask-4)" points="480.89 251.975 679.504 251.975 679.504 142.735 480.89 142.735"></polygon>
                <polygon id="Fill-96" fill="#2A5355" mask="url(#mask-4)" points="679.5036 142.7344 679.5036 150.8674 622.7106 251.9744 513.1426 251.9744 574.5186 142.7344"></polygon>
                <polygon id="Fill-97" fill="#D4682E" mask="url(#mask-4)" points="469.947 267.961 705.817 267.961 705.817 265.051 469.947 265.051"></polygon>
                <polygon id="Fill-98" fill="#F8BD86" mask="url(#mask-4)" points="687.1237 488.2397 592.8567 488.2397 596.8497 485.7997 687.1237 485.7997"></polygon>
                <polygon id="Fill-99" fill="#F8BD86" mask="url(#mask-4)" points="578.3073 488.2397 484.0393 488.2397 488.0323 485.7997 578.3073 485.7997"></polygon>
                <polygon id="Fill-100" fill="#F8BD86" mask="url(#mask-4)" points="698.8679 251.978 476.8959 251.978 480.8899 249.537 694.8749 249.537"></polygon>
                <polygon id="Fill-101" fill="#F8BD86" mask="url(#mask-4)" points="596.85 604.952 687.124 604.952 687.124 602.511 596.85 602.511"></polygon>
                <polygon id="Fill-102" fill="#F8BD86" mask="url(#mask-4)" points="578.3073 604.9516 484.0393 604.9516 488.0323 602.5106 578.3073 602.5106"></polygon>
                <polygon id="Fill-103" fill="#2A5355" mask="url(#mask-4)" points="488.0417 305.1694 570.6847 305.1694 570.6847 344.5734 491.3597 485.7854 488.0417 485.7854"></polygon>
                <polygon id="Fill-104" fill="#2A5355" mask="url(#mask-4)" points="679.5036 376.1254 679.5036 485.7854 617.8966 485.7854"></polygon>
                <polygon id="Fill-105" fill="#2A5355" mask="url(#mask-4)" points="679.5036 511.4018 679.5036 527.4828 635.9856 604.9358 592.8686 604.9358 596.8616 523.2278 603.4986 511.4018"></polygon>
                <path d="M612.1003,446.7553 L612.1003,485.7853 L603.6853,485.7853 L603.6853,446.7553 C603.6853,442.5483 602.4233,440.1173 601.7693,439.4633 L596.8623,439.4633 L596.8623,431.0493 L602.1893,431.0493 C607.9393,431.0493 612.1003,437.6873 612.1003,446.7553" id="Fill-106" fill="#387A75" mask="url(#mask-4)"></path>
                <path d="M603.6852,501.8667 L612.1002,501.8667 L612.1002,515.0007 C612.1002,524.1167 607.9392,530.7077 602.1892,530.7077 L596.8622,530.7077 L596.8622,522.2937 L601.7692,522.2937 C602.4232,521.6847 603.6852,519.2097 603.6852,515.0007 L603.6852,501.8667 Z" id="Fill-107" fill="#387A75" mask="url(#mask-4)"></path>
                <polygon id="Fill-108" fill="#D4682E" mask="url(#mask-4)" points="698.8679 251.978 694.8749 249.537 694.8749 121.281 698.8679 121.281"></polygon>
                <polygon id="Fill-109" fill="#D4682E" mask="url(#mask-4)" points="687.1237 488.2397 683.1317 485.7997 683.1317 291.7137 687.1237 291.7137"></polygon>
                <polygon id="Fill-110" fill="#D4682E" mask="url(#mask-4)" points="578.3073 488.2397 574.3153 485.7997 574.3153 291.7137 578.3073 291.7137"></polygon>
                <polygon id="Fill-111" fill="#D4682E" mask="url(#mask-4)" points="687.1237 604.9516 683.1317 602.5106 683.1317 501.8666 687.1237 501.8666"></polygon>
                <polygon id="Fill-112" fill="#D4682E" mask="url(#mask-4)" points="578.3073 604.9516 574.3153 602.5106 574.3153 501.8666 578.3073 501.8666"></polygon>
                <polygon id="Fill-113" fill="#F6A961" mask="url(#mask-4)" points="476.8962 251.978 480.8892 249.537 480.8892 121.281 476.8962 121.281"></polygon>
                <polygon id="Fill-114" fill="#F6A961" mask="url(#mask-4)" points="484.0398 488.227 488.0318 485.786 488.0318 291.713 484.0398 291.713"></polygon>
                <polygon id="Fill-115" fill="#F6A961" mask="url(#mask-4)" points="592.8571 488.227 596.8491 485.786 596.8491 291.713 592.8571 291.713"></polygon>
                <polygon id="Fill-116" fill="#F6A961" mask="url(#mask-4)" points="484.0398 604.9516 488.0318 602.5106 488.0318 501.8666 484.0398 501.8666"></polygon>
                <polygon id="Fill-117" fill="#F6A961" mask="url(#mask-4)" points="592.8571 604.9516 596.8491 602.5106 596.8491 501.8666 592.8571 501.8666"></polygon>
                <g id="Group-120" mask="url(#mask-4)">
                    <g transform="translate(469.000000, 107.825000)">
                        <mask id="mask-14" fill="white">
                            <use xlink:href="#path-13"></use>
                        </mask>
                        <g id="Clip-119" stroke="none" fill="none"></g>
                        <polygon id="Fill-118" stroke="none" fill="none" mask="url(#mask-14)" points="225.875 0.383 0.947 0.383 0.947 13.456 225.875 13.456 225.875 521.139 236.818 521.139 236.818 13.456 236.818 0.383"></polygon>
                    </g>
                </g>
                <polygon id="Fill-121" fill="#D4682E" mask="url(#mask-4)" points="469.947 629.268 471.285 629.268 471.285 121.281 469.947 121.281"></polygon>
                <polygon id="Fill-122" fill="#D4682E" mask="url(#mask-4)" points="553.67 501.867 561.85 501.867 561.85 485.786 553.67 485.786"></polygon>
                <polygon id="Fill-123" fill="#D4682E" mask="url(#mask-4)" points="603.699 501.867 611.88 501.867 611.88 485.786 603.699 485.786"></polygon>
                <path d="M572.7878,431.1899 L572.7878,439.3709 L565.5428,439.3709 C564.0948,439.3709 561.8498,442.3619 561.8498,446.9429 L561.8498,485.7859 L553.6708,485.7859 L553.6708,446.9429 C553.6708,438.1079 558.9048,431.1899 565.5428,431.1899 L572.7878,431.1899 Z" id="Fill-124" fill="#387A75" mask="url(#mask-4)"></path>
                <path d="M565.5427,523.7426 L572.7877,523.7426 L572.7877,531.9226 L565.5427,531.9226 C558.9047,531.9226 553.6707,525.0056 553.6707,516.1696 L553.6707,501.8666 L561.8507,501.8666 L561.8507,516.1696 C561.8507,520.7046 564.0947,523.7426 565.5427,523.7426" id="Fill-125" fill="#387A75" mask="url(#mask-4)"></path>
                <path d="M578.2018,525.6899 L570.9628,525.6899 C564.3748,525.6899 559.2158,519.1649 559.2158,510.8349 L559.2158,446.1709 C559.2158,437.8389 564.3748,431.3139 570.9628,431.3139 L578.2018,431.3139 L578.2018,439.2149 L570.9628,439.2149 C569.1468,439.2149 567.1178,442.1899 567.1178,446.1709 L567.1178,510.8349 C567.1178,514.8129 569.1468,517.7889 570.9628,517.7889 L578.2018,517.7889 L578.2018,525.6899 Z" id="Fill-126" fill="#F7AE7E" mask="url(#mask-4)"></path>
                <path d="M601.0505,525.9419 L592.8685,525.9419 L592.8685,517.5379 L601.0505,517.5379 C603.5495,517.5379 605.6585,514.4679 605.6585,510.8329 L605.6585,446.1719 C605.6585,442.5369 603.5495,439.4669 601.0505,439.4669 L592.8685,439.4669 L592.8685,431.0629 L601.0505,431.0629 C608.2245,431.0629 614.0635,437.8419 614.0635,446.1719 L614.0635,510.8329 C614.0635,519.1639 608.2245,525.9419 601.0505,525.9419" id="Fill-127" fill="#F7AE7E" mask="url(#mask-4)"></path>
                <polygon id="Fill-128" fill="#FFE47F" mask="url(#mask-4)" points="550.423 413.667 567.207 413.667 567.207 402.601 550.423 402.601"></polygon>
                <polygon id="Fill-129" fill="#C7E47F" mask="url(#mask-4)" points="550.423 399.137 567.207 399.137 567.207 388.07 550.423 388.07"></polygon>
                <path d="M562.9186,393.604 C562.9186,395.871 561.0816,397.708 558.8146,397.708 C556.5476,397.708 554.7106,395.871 554.7106,393.604 C554.7106,391.337 556.5476,389.5 558.8146,389.5 C561.0816,389.5 562.9186,391.337 562.9186,393.604" id="Fill-130" fill="#89C274" mask="url(#mask-4)"></path>
                <path d="M562.9186,408.1342 C562.9186,410.4012 561.0816,412.2382 558.8146,412.2382 C556.5476,412.2382 554.7106,410.4012 554.7106,408.1342 C554.7106,405.8672 556.5476,404.0302 558.8146,404.0302 C561.0816,404.0302 562.9186,405.8672 562.9186,408.1342" id="Fill-131" fill="#ECB554" mask="url(#mask-4)"></path>
                <polygon id="Fill-132" fill="#DEAA6A" mask="url(#mask-4)" points="86.429 214.51 469.947 214.51 469.947 211.03 86.429 211.03"></polygon>
                <polygon id="Fill-133" fill="#F9ECC2" mask="url(#mask-4)" points="86.429 211.03 469.947 211.03 469.947 108.208 86.429 108.208"></polygon>
                <polygon id="Fill-134" fill="#EC4D38" mask="url(#mask-4)" points="123.673 211.03 155.931 211.03 155.931 108.208 123.673 108.208"></polygon>
                <polygon id="Fill-135" fill="#B21D12" mask="url(#mask-4)" points="181.878 211.03 214.135 211.03 214.135 108.208 181.878 108.208"></polygon>
                <polygon id="Fill-136" fill="#EC4D38" mask="url(#mask-4)" points="240.082 211.03 272.34 211.03 272.34 108.208 240.082 108.208"></polygon>
                <polygon id="Fill-137" fill="#B21D12" mask="url(#mask-4)" points="298.287 211.03 330.544 211.03 330.544 108.208 298.287 108.208"></polygon>
                <polygon id="Fill-138" fill="#EC4D38" mask="url(#mask-4)" points="356.491 211.03 388.749 211.03 388.749 108.208 356.491 108.208"></polygon>
                <polygon id="Fill-139" fill="#B21D12" mask="url(#mask-4)" points="414.695 211.03 446.953 211.03 446.953 108.208 414.695 108.208"></polygon>
                <polygon id="Fill-140" fill="#DEAA6A" mask="url(#mask-4)" points="86.429 265.051 469.947 265.051 469.947 214.511 86.429 214.511"></polygon>
                <polygon id="Fill-141" fill="#EC4D38" mask="url(#mask-4)" points="123.673 265.051 155.931 265.051 155.931 214.511 123.673 214.511"></polygon>
                <polygon id="Fill-142" fill="#B21D12" mask="url(#mask-4)" points="181.878 265.051 214.135 265.051 214.135 214.511 181.878 214.511"></polygon>
                <polygon id="Fill-143" fill="#EC4D38" mask="url(#mask-4)" points="240.082 265.051 272.34 265.051 272.34 214.511 240.082 214.511"></polygon>
                <polygon id="Fill-144" fill="#B21D12" mask="url(#mask-4)" points="298.287 265.051 330.544 265.051 330.544 214.511 298.287 214.511"></polygon>
                <polygon id="Fill-145" fill="#EC4D38" mask="url(#mask-4)" points="356.491 265.051 388.749 265.051 388.749 214.511 356.491 214.511"></polygon>
                <polygon id="Fill-146" fill="#B21D12" mask="url(#mask-4)" points="414.695 265.051 446.953 265.051 446.953 214.511 414.695 214.511"></polygon>
                <path d="M136.9914,42.293 C137.2294,42.293 137.3704,42.382 137.4634,42.523 C139.9694,45.884 147.9624,58.51 151.3644,63.566 C151.6504,64.087 151.9334,64.607 152.2164,65.083 L152.4054,64.942 C152.4054,64.184 152.3614,63.477 152.3614,62.815 C152.2644,59.269 152.0744,47.684 151.6954,44.323 C151.6504,43.758 151.4124,43.52 150.9404,43.423 L148.3384,43.044 C148.1974,42.999 148.1044,42.62 148.1044,42.434 C148.1044,42.337 148.1044,42.293 148.1974,42.293 L157.3244,42.293 C157.4654,42.293 157.4654,42.337 157.4654,42.434 C157.4654,42.62 157.3724,42.999 157.2314,43.044 L155.4804,43.423 C155.0084,43.52 154.8184,43.758 154.7214,44.561 C154.5804,46.167 154.2044,53.446 154.0594,56.949 C153.9184,59.596 153.6844,69.433 153.6364,71.136 C153.6364,71.322 153.5434,71.418 153.3534,71.515 C152.8334,71.656 151.6954,71.894 151.1304,71.894 C150.7024,71.894 150.2794,71.797 149.8994,71.322 C146.0224,66.645 139.2594,57.565 135.5264,52.554 C135.3374,52.264 135.0064,51.751 134.8164,51.461 L134.5784,51.513 C134.5334,52.175 134.5334,52.695 134.5334,53.075 C134.3444,56.621 133.9164,66.645 133.8724,69.619 C133.8244,70.095 134.0134,70.236 134.3444,70.333 L137.3704,70.853 C137.5124,70.898 137.6044,71.136 137.6044,71.374 C137.6044,71.463 137.6044,71.515 137.4634,71.515 C136.7534,71.463 135.0544,71.418 133.2064,71.418 C131.5524,71.418 130.0874,71.463 129.2844,71.515 C129.1874,71.515 129.1874,71.463 129.1874,71.374 C129.1874,71.18 129.2844,70.853 129.4254,70.853 L131.8384,70.333 C132.1694,70.281 132.3594,70.14 132.3594,69.619 C132.3594,68.251 132.0724,59.878 132.0284,57.231 C131.9794,55.149 131.6934,45.884 131.6004,44.419 C131.5524,43.899 131.4104,43.564 130.8904,43.475 L129.0014,43.096 C128.8564,43.044 128.7634,42.717 128.7634,42.434 C128.7634,42.337 128.7634,42.293 128.9054,42.293 L136.9914,42.293 Z" id="Fill-147" fill="#AA160B" mask="url(#mask-4)"></path>
                <path d="M173.6086,70.8979 C177.9586,70.8979 179.6606,65.1279 179.6606,56.3319 C179.6606,49.4309 177.4856,42.7609 173.2776,42.7609 C169.2586,42.7609 166.7526,48.3899 166.7526,57.6099 C166.7526,64.5179 169.3066,70.8979 173.5636,70.8979 L173.6086,70.8979 Z M172.6646,71.7969 C164.2956,71.7969 159.3286,67.0239 159.3286,58.1309 C159.3286,48.7169 164.8606,41.9139 174.3186,41.9139 C182.6876,41.9139 187.1826,47.5869 187.1826,55.5279 C187.1826,65.5069 182.1666,71.7969 172.7126,71.7969 L172.6646,71.7969 Z" id="Fill-148" fill="#AA160B" mask="url(#mask-4)"></path>
                <path d="M223.989,49.2895 C223.989,49.4755 223.61,49.6685 223.42,49.6685 C223.376,49.6685 223.327,49.6165 223.279,49.5725 L221.2,44.7985 C220.963,44.2785 220.725,43.9955 220.253,43.8465 C218.646,43.3785 215.334,43.1405 214.483,43.0955 C214.341,45.8845 214.152,53.8775 214.059,56.3835 C214.01,59.0305 213.869,67.8715 213.869,69.7605 C213.869,70.2365 214.059,70.3325 214.389,70.3775 L216.754,70.8015 C216.895,70.8015 216.992,71.0835 216.992,71.3735 C216.992,71.4625 216.992,71.5155 216.847,71.5155 C215.81,71.4625 213.207,71.4185 210.464,71.4185 C207.958,71.4185 205.641,71.4625 204.6,71.5155 C204.459,71.5155 204.459,71.4625 204.459,71.4185 C204.459,71.1805 204.556,70.8015 204.697,70.8015 L207.106,70.3325 C207.437,70.2805 207.486,70.1395 207.486,69.6705 C207.534,67.7745 207.344,58.4135 207.296,56.1895 C207.296,54.3015 207.106,45.5045 207.062,43.0955 C206.255,43.1405 202.994,43.3785 201.385,43.8025 C200.912,43.9435 200.63,44.2265 200.347,44.7985 L198.172,49.5275 C198.124,49.6165 198.075,49.6685 197.983,49.6685 C197.842,49.6685 197.414,49.4315 197.414,49.2895 L197.886,42.3375 C197.886,42.1515 197.983,42.0025 198.217,42.0025 C198.596,42.0025 199.496,42.0545 201.433,42.1515 C203.418,42.1965 206.4,42.2925 210.843,42.2925 C215.148,42.2925 218.126,42.2405 220.111,42.1515 C222.096,42.0995 223.089,42.0545 223.42,42.0545 C223.61,42.0545 223.706,42.1515 223.706,42.3815 L223.989,49.2895 Z" id="Fill-149" fill="#AA160B" mask="url(#mask-4)"></path>
                <path d="M238.05,42.293 C238.147,42.293 238.147,42.337 238.147,42.479 C238.147,42.665 238.098,43.096 237.908,43.141 L236.065,43.475 C235.734,43.52 235.592,43.758 235.592,44.137 C235.354,47.163 235.213,54.963 235.165,57.134 C235.12,58.889 234.975,69.195 234.975,69.812 C234.975,70.191 235.165,70.281 235.496,70.377 L237.436,70.801 C237.626,70.853 237.719,71.18 237.719,71.374 C237.719,71.463 237.671,71.515 237.578,71.515 C236.775,71.463 234.22,71.418 231.573,71.418 C229.112,71.418 226.986,71.463 225.896,71.515 C225.803,71.515 225.803,71.463 225.803,71.374 C225.803,71.136 225.896,70.801 226.041,70.756 L228.216,70.333 C228.547,70.281 228.64,70.14 228.64,69.716 C228.688,67.827 228.547,59.834 228.499,56.621 C228.45,53.216 228.358,45.788 228.261,44.419 C228.261,43.899 228.119,43.564 227.74,43.475 L225.945,43.141 C225.803,43.096 225.71,42.814 225.71,42.434 C225.71,42.337 225.71,42.293 225.803,42.293 L238.05,42.293 Z" id="Fill-150" fill="#AA160B" mask="url(#mask-4)"></path>
                <path d="M262.2195,71.4184 C262.1715,71.5594 262.0785,71.6564 261.8405,71.6564 C261.5095,71.6564 260.4245,71.6044 258.0595,71.5154 C255.6945,71.4624 252.0995,71.4184 246.7085,71.4184 C244.8645,71.4184 242.5005,71.4624 240.9425,71.5154 C240.8015,71.5154 240.8015,71.4624 240.8015,71.4184 C240.8015,71.2324 240.8945,70.8974 241.0355,70.8534 L243.2105,70.3774 C243.5415,70.2804 243.7305,70.1394 243.7305,69.6194 C243.7795,68.2064 243.6825,58.6064 243.6825,56.4724 C243.6375,54.6284 243.5415,45.7874 243.4485,44.2264 C243.4485,43.6614 243.2585,43.4754 242.9755,43.3784 L241.0355,42.9994 C240.9425,42.9994 240.8015,42.6644 240.8015,42.3374 C240.8015,42.2934 240.8015,42.2404 240.8945,42.2404 C242.0285,42.2404 243.1175,42.2934 244.1105,42.2934 L246.7575,42.2934 C257.3015,42.2934 260.9445,42.1514 261.5095,42.1514 C261.6985,42.1514 261.7955,42.2404 261.7955,42.4344 L262.1265,48.6274 C262.1265,48.7694 261.6985,49.0074 261.5575,49.0074 C261.5095,49.0074 261.4655,49.0074 261.4165,48.9104 C260.7545,47.4454 260.0935,46.0254 259.3835,44.5164 C259.1445,44.0854 258.7695,43.9434 258.2005,43.8464 C256.1185,43.4224 252.0065,43.0954 251.2965,43.0954 C250.8245,43.1404 250.7765,43.2814 250.7765,43.6164 C250.5415,46.5014 250.2555,54.0194 250.3035,55.5804 C253.5685,55.7214 258.8625,55.8114 260.0935,55.8624 C260.1855,55.8624 260.1855,55.9074 260.1855,55.9524 C260.1855,56.2424 259.9515,56.7624 259.8105,56.7624 C257.9625,56.9484 253.2815,57.1864 250.8245,57.4244 C250.3965,57.4694 250.2555,57.5654 250.2555,57.9444 C250.2115,59.4994 250.0215,68.4884 250.0215,69.8124 C250.0215,70.3324 250.2115,70.4214 250.5415,70.4214 C252.5755,70.4214 256.8775,70.2364 259.1935,69.6194 C259.6655,69.4774 259.9965,69.2394 260.1855,68.9124 C261.1345,67.6334 261.9855,66.3104 262.7885,64.9864 C262.8365,64.8894 262.8815,64.8894 262.9295,64.8894 C263.1195,64.9414 263.4985,65.2694 263.4505,65.4624 L262.2195,71.4184 Z" id="Fill-151" fill="#AA160B" mask="url(#mask-4)"></path>
                <path d="M272.968,42.293 C273.206,42.293 273.347,42.382 273.44,42.523 C275.946,45.884 283.939,58.51 287.341,63.566 C287.627,64.087 287.91,64.607 288.193,65.083 L288.382,64.942 C288.382,64.184 288.338,63.477 288.338,62.815 C288.241,59.269 288.051,47.684 287.672,44.323 C287.627,43.758 287.389,43.52 286.917,43.423 L284.315,43.044 C284.174,42.999 284.081,42.62 284.081,42.434 C284.081,42.337 284.081,42.293 284.174,42.293 L293.301,42.293 C293.442,42.293 293.442,42.337 293.442,42.434 C293.442,42.62 293.349,42.999 293.208,43.044 L291.457,43.423 C290.985,43.52 290.795,43.758 290.698,44.561 C290.557,46.167 290.181,53.446 290.036,56.949 C289.895,59.596 289.661,69.433 289.613,71.136 C289.613,71.322 289.52,71.418 289.33,71.515 C288.81,71.656 287.672,71.894 287.107,71.894 C286.679,71.894 286.256,71.797 285.876,71.322 C281.999,66.645 275.236,57.565 271.503,52.554 C271.314,52.264 270.983,51.751 270.793,51.461 L270.555,51.513 C270.51,52.175 270.51,52.695 270.51,53.075 C270.321,56.621 269.893,66.645 269.849,69.619 C269.801,70.095 269.99,70.236 270.321,70.333 L273.347,70.853 C273.489,70.898 273.581,71.136 273.581,71.374 C273.581,71.463 273.581,71.515 273.44,71.515 C272.73,71.463 271.031,71.418 269.183,71.418 C267.529,71.418 266.064,71.463 265.261,71.515 C265.164,71.515 265.164,71.463 265.164,71.374 C265.164,71.18 265.261,70.853 265.402,70.853 L267.815,70.333 C268.146,70.281 268.336,70.14 268.336,69.619 C268.336,68.251 268.049,59.878 268.005,57.231 C267.956,55.149 267.67,45.884 267.577,44.419 C267.529,43.899 267.387,43.564 266.867,43.475 L264.978,43.096 C264.833,43.044 264.74,42.717 264.74,42.434 C264.74,42.337 264.74,42.293 264.882,42.293 L272.968,42.293 Z" id="Fill-152" fill="#AA160B" mask="url(#mask-4)"></path>
                <path d="M316.3923,71.4184 C316.3443,71.5594 316.2513,71.6564 316.0133,71.6564 C315.6823,71.6564 314.5963,71.6044 312.2323,71.5154 C309.8673,71.4624 306.2723,71.4184 300.8813,71.4184 C299.0373,71.4184 296.6733,71.4624 295.1153,71.5154 C294.9743,71.5154 294.9743,71.4624 294.9743,71.4184 C294.9743,71.2324 295.0663,70.8974 295.2083,70.8534 L297.3833,70.3774 C297.7143,70.2804 297.9033,70.1394 297.9033,69.6194 C297.9523,68.2064 297.8553,58.6064 297.8553,56.4724 C297.8103,54.6284 297.7143,45.7874 297.6213,44.2264 C297.6213,43.6614 297.4313,43.4754 297.1483,43.3784 L295.2083,42.9994 C295.1153,42.9994 294.9743,42.6644 294.9743,42.3374 C294.9743,42.2934 294.9743,42.2404 295.0663,42.2404 C296.2013,42.2404 297.2903,42.2934 298.2833,42.2934 L300.9303,42.2934 C311.4743,42.2934 315.1173,42.1514 315.6823,42.1514 C315.8713,42.1514 315.9683,42.2404 315.9683,42.4344 L316.2993,48.6274 C316.2993,48.7694 315.8713,49.0074 315.7303,49.0074 C315.6823,49.0074 315.6373,49.0074 315.5893,48.9104 C314.9273,47.4454 314.2663,46.0254 313.5553,44.5164 C313.3173,44.0854 312.9423,43.9434 312.3733,43.8464 C310.2913,43.4224 306.1793,43.0954 305.4693,43.0954 C304.9973,43.1404 304.9493,43.2814 304.9493,43.6164 C304.7143,46.5014 304.4283,54.0194 304.4763,55.5804 C307.7413,55.7214 313.0353,55.8114 314.2663,55.8624 C314.3583,55.8624 314.3583,55.9074 314.3583,55.9524 C314.3583,56.2424 314.1243,56.7624 313.9793,56.7624 C312.1353,56.9484 307.4543,57.1864 304.9973,57.4244 C304.5693,57.4694 304.4283,57.5654 304.4283,57.9444 C304.3833,59.4994 304.1943,68.4884 304.1943,69.8124 C304.1943,70.3324 304.3833,70.4214 304.7143,70.4214 C306.7483,70.4214 311.0503,70.2364 313.3663,69.6194 C313.8383,69.4774 314.1693,69.2394 314.3583,68.9124 C315.3073,67.6334 316.1583,66.3104 316.9613,64.9864 C317.0053,64.8894 317.0543,64.8894 317.1023,64.8894 C317.2923,64.9414 317.6713,65.2694 317.6223,65.4624 L316.3923,71.4184 Z" id="Fill-153" fill="#AA160B" mask="url(#mask-4)"></path>
                <path d="M341.1867,62.436 C341.1867,67.916 335.9857,71.797 326.8097,71.797 C324.8727,71.797 322.6497,71.656 321.6087,71.277 C321.3747,71.18 321.2327,71.084 321.1847,70.801 L320.4747,64.369 C320.4257,64.228 320.9467,63.901 321.0877,63.901 C321.1847,63.901 321.2327,63.945 321.2777,64.042 C322.1777,65.648 323.0287,67.351 323.9287,68.868 C324.2597,69.388 324.4937,69.619 325.0617,69.954 C325.8167,70.474 326.9987,70.712 328.2787,70.712 C332.3417,70.712 335.4167,68.727 335.4167,65.648 C335.4167,62.815 333.3827,61.112 328.5127,59.269 C323.5007,57.373 320.9947,55.06 320.9947,51.461 C320.9947,46.501 326.8577,41.914 334.7067,41.914 C336.6467,41.914 338.5397,42.151 339.3907,42.575 C339.6247,42.665 339.7217,42.761 339.7217,42.999 L340.2867,49.148 C340.2867,49.29 339.8627,49.572 339.6737,49.572 C339.5767,49.572 339.5327,49.572 339.4837,49.476 C338.5837,47.773 337.6877,46.07 336.7397,44.419 C336.5507,44.085 336.3647,43.847 335.8437,43.564 C335.2267,43.237 334.4727,42.999 333.2897,42.999 C329.9327,42.999 327.0477,45.178 327.0477,48.152 C327.0477,50.71 328.8437,52.123 332.8627,54.108 C337.3087,56.145 341.1867,58.272 341.1867,62.384 L341.1867,62.436 Z" id="Fill-154" fill="#AA160B" mask="url(#mask-4)"></path>
                <path d="M364.0925,58.3169 C367.5425,58.3169 370.2385,54.8669 370.2385,50.1369 C370.2385,46.0699 368.0145,42.9019 364.7985,42.9019 C363.8545,42.9019 363.4755,43.0439 363.4755,43.6159 C363.2405,47.2079 362.9095,56.7109 362.9095,57.5659 C362.9095,58.1309 363.1445,58.3169 364.0445,58.3169 L364.0925,58.3169 Z M377.4245,49.8549 C377.4245,53.5429 374.3055,56.0039 371.7025,57.2309 C373.8775,60.3099 376.7625,65.6999 378.6555,69.5739 C378.8445,69.9539 379.0345,70.1399 379.3655,70.2359 L381.2575,70.7559 C381.4915,70.8529 381.5885,71.1359 381.5885,71.3739 C381.5885,71.4629 381.5885,71.5149 381.4435,71.5149 C380.2165,71.4629 378.7965,71.4189 376.1495,71.4189 C374.3535,71.4189 372.4125,71.4629 370.2865,71.5149 C370.1445,71.5149 370.1445,71.4629 370.1445,71.3739 C370.1445,71.1359 370.2385,70.8529 370.4275,70.8009 L372.3205,70.4219 C372.7435,70.3329 372.9815,70.1399 372.6985,69.7159 C370.5205,66.4509 367.6835,62.5769 364.9435,59.4539 C364.7985,59.3129 364.6575,59.2159 364.4675,59.2159 C364.2335,59.2159 363.2855,59.1719 362.9095,59.1719 C362.8615,61.1569 362.7205,67.6859 362.7205,69.5739 C362.7205,70.0499 362.8615,70.1919 363.1925,70.2809 L365.2745,70.8009 C365.4155,70.8529 365.5575,71.1359 365.5575,71.3739 C365.5575,71.4629 365.5095,71.5149 365.4155,71.5149 C364.0925,71.4629 362.0105,71.4189 359.6455,71.4189 C357.2335,71.4189 355.0135,71.4629 354.0205,71.5149 C353.8755,71.5149 353.8755,71.4629 353.8755,71.3739 C353.8755,71.0839 353.9725,70.8009 354.1135,70.8009 L356.1955,70.3779 C356.5265,70.2809 356.6675,70.0949 356.6675,69.7159 C356.6675,67.8719 356.5715,59.3579 356.5715,57.0899 C356.5265,55.2009 356.4295,46.2629 356.3375,44.5159 C356.2885,43.9959 356.1955,43.7579 355.9095,43.7059 L354.0205,43.4229 C353.8755,43.3789 353.7345,43.0959 353.7345,42.8139 C353.7345,42.7609 353.7345,42.6649 353.8755,42.6649 C356.2405,42.4789 360.7795,42.0999 365.3675,42.0999 C373.7365,42.0999 377.4245,44.9399 377.4245,49.8099 L377.4245,49.8549 Z" id="Fill-155" fill="#AA160B" mask="url(#mask-4)"></path>
                <path d="M403.6389,71.4184 C403.5909,71.5594 403.4979,71.6564 403.2599,71.6564 C402.9289,71.6564 401.8439,71.6044 399.4789,71.5154 C397.1149,71.4624 393.5189,71.4184 388.1279,71.4184 C386.2849,71.4184 383.9199,71.4624 382.3619,71.5154 C382.2209,71.5154 382.2209,71.4624 382.2209,71.4184 C382.2209,71.2324 382.3139,70.8974 382.4549,70.8534 L384.6299,70.3774 C384.9609,70.2804 385.1499,70.1394 385.1499,69.6194 C385.1989,68.2064 385.1019,58.6064 385.1019,56.4724 C385.0569,54.6284 384.9609,45.7874 384.8679,44.2264 C384.8679,43.6614 384.6779,43.4754 384.3959,43.3784 L382.4549,42.9994 C382.3619,42.9994 382.2209,42.6644 382.2209,42.3374 C382.2209,42.2934 382.2209,42.2404 382.3139,42.2404 C383.4479,42.2404 384.5369,42.2934 385.5299,42.2934 L388.1769,42.2934 C398.7209,42.2934 402.3639,42.1514 402.9289,42.1514 C403.1179,42.1514 403.2149,42.2404 403.2149,42.4344 L403.5459,48.6274 C403.5459,48.7694 403.1179,49.0074 402.9769,49.0074 C402.9289,49.0074 402.8849,49.0074 402.8359,48.9104 C402.1739,47.4454 401.5129,46.0254 400.8029,44.5164 C400.5639,44.0854 400.1889,43.9434 399.6199,43.8464 C397.5379,43.4224 393.4259,43.0954 392.7159,43.0954 C392.2439,43.1404 392.1959,43.2814 392.1959,43.6164 C391.9609,46.5014 391.6749,54.0194 391.7229,55.5804 C394.9879,55.7214 400.2819,55.8114 401.5129,55.8624 C401.6049,55.8624 401.6049,55.9074 401.6049,55.9524 C401.6049,56.2424 401.3709,56.7624 401.2299,56.7624 C399.3819,56.9484 394.7009,57.1864 392.2439,57.4244 C391.8159,57.4694 391.6749,57.5654 391.6749,57.9444 C391.6309,59.4994 391.4409,68.4884 391.4409,69.8124 C391.4409,70.3324 391.6309,70.4214 391.9609,70.4214 C393.9949,70.4214 398.2969,70.2364 400.6129,69.6194 C401.0849,69.4774 401.4159,69.2394 401.6049,68.9124 C402.5539,67.6334 403.4049,66.3104 404.2079,64.9864 C404.2559,64.8894 404.3009,64.8894 404.3489,64.8894 C404.5389,64.9414 404.9179,65.2694 404.8699,65.4624 L403.6389,71.4184 Z" id="Fill-156" fill="#AA160B" mask="url(#mask-4)"></path>
                <path d="M428.4333,62.436 C428.4333,67.916 423.2323,71.797 414.0563,71.797 C412.1193,71.797 409.8963,71.656 408.8553,71.277 C408.6213,71.18 408.4793,71.084 408.4313,70.801 L407.7213,64.369 C407.6733,64.228 408.1933,63.901 408.3343,63.901 C408.4313,63.901 408.4793,63.945 408.5243,64.042 C409.4243,65.648 410.2753,67.351 411.1713,68.868 C411.5063,69.388 411.7403,69.619 412.3093,69.954 C413.0633,70.474 414.2463,70.712 415.5253,70.712 C419.5883,70.712 422.6633,68.727 422.6633,65.648 C422.6633,62.815 420.6293,61.112 415.7593,59.269 C410.7473,57.373 408.2423,55.06 408.2423,51.461 C408.2423,46.501 414.1043,41.914 421.9533,41.914 C423.8933,41.914 425.7863,42.151 426.6373,42.575 C426.8713,42.665 426.9683,42.761 426.9683,42.999 L427.5343,49.148 C427.5343,49.29 427.1093,49.572 426.9203,49.572 C426.8233,49.572 426.7793,49.572 426.7303,49.476 C425.8303,47.773 424.9343,46.07 423.9873,44.419 C423.7973,44.085 423.6113,43.847 423.0913,43.564 C422.4743,43.237 421.7193,42.999 420.5373,42.999 C417.1793,42.999 414.2943,45.178 414.2943,48.152 C414.2943,50.71 416.0903,52.123 420.1093,54.108 C424.5563,56.145 428.4333,58.272 428.4333,62.384 L428.4333,62.436 Z" id="Fill-157" fill="#AA160B" mask="url(#mask-4)"></path>
                <path d="M457.0085,49.2895 C457.0085,49.4755 456.6295,49.6685 456.4405,49.6685 C456.3955,49.6685 456.3465,49.6165 456.2985,49.5725 L454.2205,44.7985 C453.9825,44.2785 453.7445,43.9955 453.2725,43.8465 C451.6665,43.3785 448.3535,43.1405 447.5025,43.0955 C447.3615,45.8845 447.1715,53.8775 447.0785,56.3835 C447.0295,59.0305 446.8885,67.8715 446.8885,69.7605 C446.8885,70.2365 447.0785,70.3325 447.4095,70.3775 L449.7735,70.8015 C449.9155,70.8015 450.0115,71.0835 450.0115,71.3735 C450.0115,71.4625 450.0115,71.5155 449.8665,71.5155 C448.8295,71.4625 446.2265,71.4185 443.4835,71.4185 C440.9775,71.4185 438.6615,71.4625 437.6205,71.5155 C437.4785,71.5155 437.4785,71.4625 437.4785,71.4185 C437.4785,71.1805 437.5755,70.8015 437.7165,70.8015 L440.1265,70.3325 C440.4565,70.2805 440.5055,70.1395 440.5055,69.6705 C440.5535,67.7745 440.3635,58.4135 440.3155,56.1895 C440.3155,54.3015 440.1265,45.5045 440.0815,43.0955 C439.2745,43.1405 436.0135,43.3785 434.4045,43.8025 C433.9315,43.9435 433.6495,44.2265 433.3665,44.7985 L431.1925,49.5275 C431.1435,49.6165 431.0955,49.6685 431.0025,49.6685 C430.8615,49.6685 430.4335,49.4315 430.4335,49.2895 L430.9055,42.3375 C430.9055,42.1515 431.0025,42.0025 431.2365,42.0025 C431.6155,42.0025 432.5155,42.0545 434.4525,42.1515 C436.4375,42.1965 439.4195,42.2925 443.8625,42.2925 C448.1675,42.2925 451.1455,42.2405 453.1315,42.1515 C455.1165,42.0995 456.1095,42.0545 456.4405,42.0545 C456.6295,42.0545 456.7265,42.1515 456.7265,42.3815 L457.0085,49.2895 Z" id="Fill-158" fill="#AA160B" mask="url(#mask-4)"></path>
                <path d="M465.5339,45.9287 C465.2999,46.6427 465.1589,47.1107 465.0619,47.5427 C463.8789,51.4607 462.3659,56.9487 461.4699,60.2127 C461.4219,60.3987 461.5629,60.5397 461.7039,60.5397 C463.8789,60.8227 468.9389,61.0157 470.9729,60.9707 C470.1699,58.6957 467.7089,51.8407 466.4329,47.5867 C466.2919,47.1627 466.1029,46.5907 465.8199,45.9287 L465.5339,45.9287 Z M468.0879,42.1967 C469.7419,42.1967 471.0209,42.2407 472.0619,42.2927 C472.2039,42.2927 472.3929,42.3817 472.4379,42.4787 C473.9509,47.5867 478.8219,63.9007 480.7139,69.7157 C480.8069,69.9977 481.0449,70.2367 481.3269,70.3327 L483.0779,70.8017 C483.2199,70.8527 483.3159,71.0837 483.3159,71.4187 C483.3159,71.4627 483.2679,71.5147 483.1709,71.5147 C482.1789,71.5147 479.9109,71.4187 477.5459,71.4187 C474.8989,71.4187 472.3449,71.4627 471.0659,71.5147 C470.9249,71.5147 470.9249,71.4627 470.9249,71.4187 C470.9249,71.1357 471.0659,70.8017 471.2109,70.7567 L473.7619,70.3327 C474.1399,70.2807 474.1889,69.9537 474.0929,69.5747 C473.5759,68.0127 471.8249,63.4767 471.3039,61.8637 C469.1779,61.9157 463.6899,62.0567 461.2319,62.2427 C461.0909,62.2427 460.9499,62.3837 460.9019,62.6217 C460.6189,63.9977 459.7189,67.8267 459.4369,69.5297 C459.3879,70.0947 459.5779,70.2367 459.9089,70.3327 L462.3659,70.8017 C462.5079,70.8017 462.6489,71.1357 462.6489,71.4187 C462.6489,71.5147 462.6039,71.5147 462.5079,71.5147 C461.3259,71.4627 459.4369,71.4187 457.5439,71.4187 C455.9339,71.4187 454.5179,71.4627 453.5699,71.5147 C453.4769,71.5147 453.4769,71.4627 453.4769,71.3737 C453.4769,71.2327 453.5699,70.8017 453.7149,70.7567 L454.8969,70.3777 C455.2729,70.2807 455.5109,70.0947 455.7479,69.5297 C458.0649,63.8567 462.9829,49.3347 465.1099,43.5647 C465.5339,42.4337 466.1509,42.1967 468.0399,42.1967 L468.0879,42.1967 Z" id="Fill-159" fill="#AA160B" mask="url(#mask-4)"></path>
                <path d="M494.9646,42.293 C495.1056,42.293 495.1056,42.293 495.1056,42.382 C495.1056,42.717 495.0086,43.044 494.8676,43.044 L492.7406,43.378 C492.3616,43.423 492.1726,43.564 492.1236,43.996 C491.6996,48.204 491.6036,52.785 491.6036,58.317 C491.6036,66.786 493.8266,70.898 497.4706,70.898 C501.5336,70.898 503.0026,67.634 503.0026,58.086 C503.0026,53.164 502.9056,47.252 502.5296,44.085 C502.4826,43.616 502.2916,43.475 501.9616,43.378 L499.7856,43.044 C499.5966,43.044 499.5486,42.665 499.5486,42.434 C499.5486,42.337 499.5486,42.293 499.6896,42.293 L510.9916,42.293 C511.0886,42.293 511.1336,42.337 511.1336,42.434 C511.1336,42.761 510.9916,43.044 510.8506,43.096 L509.4306,43.378 C509.0546,43.475 508.9136,43.616 508.9586,44.04 C509.2446,47.587 509.6686,51.84 509.6686,57.945 C509.6196,67.307 504.4676,71.797 496.4296,71.797 C489.4286,71.797 484.3236,69.195 484.3236,58.272 C484.3726,52.175 485.2686,45.743 485.4086,44.182 C485.5056,43.706 485.3166,43.475 484.8446,43.378 L483.2346,43.044 C483.0926,43.044 483.0006,42.717 483.0006,42.434 C483.0006,42.337 483.0006,42.293 483.1416,42.293 L494.9646,42.293 Z" id="Fill-160" fill="#AA160B" mask="url(#mask-4)"></path>
                <path d="M523.9186,58.3169 C527.3686,58.3169 530.0646,54.8669 530.0646,50.1369 C530.0646,46.0699 527.8416,42.9019 524.6256,42.9019 C523.6816,42.9019 523.3016,43.0439 523.3016,43.6159 C523.0666,47.2079 522.7366,56.7109 522.7366,57.5659 C522.7366,58.1309 522.9706,58.3169 523.8706,58.3169 L523.9186,58.3169 Z M537.2506,49.8549 C537.2506,53.5429 534.1316,56.0039 531.5286,57.2309 C533.7036,60.3099 536.5896,65.6999 538.4816,69.5739 C538.6716,69.9539 538.8606,70.1399 539.1916,70.2359 L541.0836,70.7559 C541.3176,70.8529 541.4146,71.1359 541.4146,71.3739 C541.4146,71.4629 541.4146,71.5149 541.2706,71.5149 C540.0426,71.4629 538.6226,71.4189 535.9766,71.4189 C534.1806,71.4189 532.2386,71.4629 530.1126,71.5149 C529.9716,71.5149 529.9716,71.4629 529.9716,71.3739 C529.9716,71.1359 530.0646,70.8529 530.2536,70.8009 L532.1466,70.4219 C532.5696,70.3329 532.8086,70.1399 532.5226,69.7159 C530.3476,66.4509 527.5106,62.5769 524.7706,59.4539 C524.6256,59.3129 524.4836,59.2159 524.2946,59.2159 C524.0606,59.2159 523.1116,59.1719 522.7366,59.1719 C522.6886,61.1569 522.5466,67.6859 522.5466,69.5739 C522.5466,70.0499 522.6886,70.1919 523.0196,70.2809 L525.1016,70.8009 C525.2416,70.8529 525.3836,71.1359 525.3836,71.3739 C525.3836,71.4629 525.3356,71.5149 525.2416,71.5149 C523.9186,71.4629 521.8366,71.4189 519.4726,71.4189 C517.0596,71.4189 514.8396,71.4629 513.8476,71.5149 C513.7016,71.5149 513.7016,71.4629 513.7016,71.3739 C513.7016,71.0839 513.7986,70.8009 513.9396,70.8009 L516.0226,70.3779 C516.3536,70.2809 516.4936,70.0949 516.4936,69.7159 C516.4936,67.8719 516.3976,59.3579 516.3976,57.0899 C516.3536,55.2009 516.2566,46.2629 516.1636,44.5159 C516.1146,43.9959 516.0226,43.7579 515.7356,43.7059 L513.8476,43.4229 C513.7016,43.3789 513.5616,43.0959 513.5616,42.8139 C513.5616,42.7609 513.5616,42.6649 513.7016,42.6649 C516.0666,42.4789 520.6056,42.0999 525.1936,42.0999 C533.5636,42.0999 537.2506,44.9399 537.2506,49.8099 L537.2506,49.8549 Z" id="Fill-161" fill="#AA160B" mask="url(#mask-4)"></path>
                <path d="M553.1081,45.9287 C552.8741,46.6427 552.7321,47.1107 552.6351,47.5427 C551.4531,51.4607 549.9401,56.9487 549.0441,60.2127 C548.9961,60.3987 549.1371,60.5397 549.2781,60.5397 C551.4531,60.8227 556.5131,61.0157 558.5461,60.9707 C557.7441,58.6957 555.2831,51.8407 554.0071,47.5867 C553.8661,47.1627 553.6761,46.5907 553.3941,45.9287 L553.1081,45.9287 Z M555.6621,42.1967 C557.3161,42.1967 558.5951,42.2407 559.6361,42.2927 C559.7771,42.2927 559.9671,42.3817 560.0111,42.4787 C561.5251,47.5867 566.3951,63.9007 568.2881,69.7157 C568.3841,69.9977 568.6191,70.2367 568.9011,70.3327 L570.6521,70.8017 C570.7941,70.8527 570.8901,71.0837 570.8901,71.4187 C570.8901,71.4627 570.8411,71.5147 570.7451,71.5147 C569.7531,71.5147 567.4841,71.4187 565.1201,71.4187 C562.4731,71.4187 559.9191,71.4627 558.6391,71.5147 C558.4991,71.5147 558.4991,71.4627 558.4991,71.4187 C558.4991,71.1357 558.6391,70.8017 558.7851,70.7567 L561.3361,70.3327 C561.7141,70.2807 561.7621,69.9537 561.6661,69.5747 C561.1491,68.0127 559.3981,63.4767 558.8781,61.8637 C556.7511,61.9157 551.2631,62.0567 548.8061,62.2427 C548.6651,62.2427 548.5231,62.3837 548.4751,62.6217 C548.1931,63.9977 547.2931,67.8267 547.0101,69.5297 C546.9621,70.0947 547.1521,70.2367 547.4821,70.3327 L549.9401,70.8017 C550.0821,70.8017 550.2261,71.1357 550.2261,71.4187 C550.2261,71.5147 550.1781,71.5147 550.0821,71.5147 C548.8991,71.4627 547.0101,71.4187 545.1181,71.4187 C543.5081,71.4187 542.0911,71.4627 541.1471,71.5147 C541.0501,71.5147 541.0501,71.4627 541.0501,71.3737 C541.0501,71.2327 541.1471,70.8017 541.2891,70.7567 L542.4701,70.3777 C542.8461,70.2807 543.0851,70.0947 543.3221,69.5297 C545.6381,63.8567 550.5571,49.3347 552.6841,43.5647 C553.1081,42.4337 553.7241,42.1967 555.6131,42.1967 L555.6621,42.1967 Z" id="Fill-162" fill="#AA160B" mask="url(#mask-4)"></path>
                <path d="M579.0397,42.293 C579.2777,42.293 579.4187,42.382 579.5117,42.523 C582.0177,45.884 590.0117,58.51 593.4127,63.566 C593.6987,64.087 593.9817,64.607 594.2647,65.083 L594.4537,64.942 C594.4537,64.184 594.4087,63.477 594.4087,62.815 C594.3117,59.269 594.1227,47.684 593.7477,44.323 C593.6987,43.758 593.4617,43.52 592.9887,43.423 L590.3867,43.044 C590.2447,42.999 590.1517,42.62 590.1517,42.434 C590.1517,42.337 590.1517,42.293 590.2447,42.293 L599.3727,42.293 C599.5137,42.293 599.5137,42.337 599.5137,42.434 C599.5137,42.62 599.4207,42.999 599.2797,43.044 L597.5277,43.423 C597.0567,43.52 596.8667,43.758 596.7737,44.561 C596.6287,46.167 596.2537,53.446 596.1077,56.949 C595.9667,59.596 595.7327,69.433 595.6847,71.136 C595.6847,71.322 595.5917,71.418 595.4017,71.515 C594.8817,71.656 593.7477,71.894 593.1787,71.894 C592.7507,71.894 592.3267,71.797 591.9477,71.322 C588.0697,66.645 581.3077,57.565 577.5747,52.554 C577.3857,52.264 577.0547,51.751 576.8647,51.461 L576.6267,51.513 C576.5817,52.175 576.5817,52.695 576.5817,53.075 C576.3927,56.621 575.9647,66.645 575.9207,69.619 C575.8717,70.095 576.0607,70.236 576.3927,70.333 L579.4187,70.853 C579.5607,70.898 579.6527,71.136 579.6527,71.374 C579.6527,71.463 579.6527,71.515 579.5117,71.515 C578.8017,71.463 577.0997,71.418 575.2547,71.418 C573.6007,71.418 572.1357,71.463 571.3327,71.515 C571.2357,71.515 571.2357,71.463 571.2357,71.374 C571.2357,71.18 571.3327,70.853 571.4737,70.853 L573.8867,70.333 C574.2177,70.281 574.4067,70.14 574.4067,69.619 C574.4067,68.251 574.1207,59.878 574.0727,57.231 C574.0277,55.149 573.7417,45.884 573.6487,44.419 C573.6007,43.899 573.4587,43.564 572.9377,43.475 L571.0467,43.096 C570.9047,43.044 570.8117,42.717 570.8117,42.434 C570.8117,42.337 570.8117,42.293 570.9527,42.293 L579.0397,42.293 Z" id="Fill-163" fill="#AA160B" mask="url(#mask-4)"></path>
                <path d="M627.3825,49.2895 C627.3825,49.4755 627.0035,49.6685 626.8145,49.6685 C626.7695,49.6685 626.7215,49.6165 626.6725,49.5725 L624.5945,44.7985 C624.3565,44.2785 624.1185,43.9955 623.6465,43.8465 C622.0405,43.3785 618.7275,43.1405 617.8765,43.0955 C617.7355,45.8845 617.5455,53.8775 617.4525,56.3835 C617.4035,59.0305 617.2625,67.8715 617.2625,69.7605 C617.2625,70.2365 617.4525,70.3325 617.7825,70.3775 L620.1485,70.8015 C620.2885,70.8015 620.3855,71.0835 620.3855,71.3735 C620.3855,71.4625 620.3855,71.5155 620.2405,71.5155 C619.2035,71.4625 616.6015,71.4185 613.8575,71.4185 C611.3515,71.4185 609.0345,71.4625 607.9935,71.5155 C607.8535,71.5155 607.8535,71.4625 607.8535,71.4185 C607.8535,71.1805 607.9495,70.8015 608.0905,70.8015 L610.4995,70.3325 C610.8305,70.2805 610.8795,70.1395 610.8795,69.6705 C610.9275,67.7745 610.7375,58.4135 610.6905,56.1895 C610.6905,54.3015 610.4995,45.5045 610.4555,43.0955 C609.6495,43.1405 606.3885,43.3785 604.7785,43.8025 C604.3065,43.9435 604.0235,44.2265 603.7405,44.7985 L601.5665,49.5275 C601.5175,49.6165 601.4695,49.6685 601.3765,49.6685 C601.2355,49.6685 600.8075,49.4315 600.8075,49.2895 L601.2795,42.3375 C601.2795,42.1515 601.3765,42.0025 601.6115,42.0025 C601.9895,42.0025 602.8895,42.0545 604.8265,42.1515 C606.8125,42.1965 609.7935,42.2925 614.2365,42.2925 C618.5415,42.2925 621.5205,42.2405 623.5045,42.1515 C625.4895,42.0995 626.4835,42.0545 626.8145,42.0545 C627.0035,42.0545 627.1005,42.1515 627.1005,42.3815 L627.3825,49.2895 Z" id="Fill-164" fill="#AA160B" mask="url(#mask-4)"></path>
                <path d="M650.5192,71.4184 C650.4702,71.5594 650.3772,71.6564 650.1392,71.6564 C649.8092,71.6564 648.7232,71.6044 646.3592,71.5154 C643.9942,71.4624 640.3992,71.4184 635.0082,71.4184 C633.1642,71.4184 630.7992,71.4624 629.2422,71.5154 C629.1002,71.5154 629.1002,71.4624 629.1002,71.4184 C629.1002,71.2324 629.1932,70.8974 629.3342,70.8534 L631.5092,70.3774 C631.8402,70.2804 632.0302,70.1394 632.0302,69.6194 C632.0792,68.2064 631.9822,58.6064 631.9822,56.4724 C631.9372,54.6284 631.8402,45.7874 631.7482,44.2264 C631.7482,43.6614 631.5582,43.4754 631.2752,43.3784 L629.3342,42.9994 C629.2422,42.9994 629.1002,42.6644 629.1002,42.3374 C629.1002,42.2934 629.1002,42.2404 629.1932,42.2404 C630.3272,42.2404 631.4162,42.2934 632.4092,42.2934 L635.0562,42.2934 C645.6002,42.2934 649.2442,42.1514 649.8092,42.1514 C649.9982,42.1514 650.0952,42.2404 650.0952,42.4344 L650.4262,48.6274 C650.4262,48.7694 649.9982,49.0074 649.8572,49.0074 C649.8092,49.0074 649.7642,49.0074 649.7152,48.9104 C649.0542,47.4454 648.3922,46.0254 647.6822,44.5164 C647.4442,44.0854 647.0692,43.9434 646.4992,43.8464 C644.4172,43.4224 640.3062,43.0954 639.5962,43.0954 C639.1232,43.1404 639.0762,43.2814 639.0762,43.6164 C638.8412,46.5014 638.5552,54.0194 638.6032,55.5804 C641.8682,55.7214 647.1622,55.8114 648.3922,55.8624 C648.4852,55.8624 648.4852,55.9074 648.4852,55.9524 C648.4852,56.2424 648.2502,56.7624 648.1102,56.7624 C646.2622,56.9484 641.5812,57.1864 639.1232,57.4244 C638.6962,57.4694 638.5552,57.5654 638.5552,57.9444 C638.5102,59.4994 638.3212,68.4884 638.3212,69.8124 C638.3212,70.3324 638.5102,70.4214 638.8412,70.4214 C640.8742,70.4214 645.1762,70.2364 647.4932,69.6194 C647.9642,69.4774 648.2952,69.2394 648.4852,68.9124 C649.4332,67.6334 650.2852,66.3104 651.0872,64.9864 C651.1362,64.8894 651.1802,64.8894 651.2292,64.8894 C651.4182,64.9414 651.7972,65.2694 651.7492,65.4624 L650.5192,71.4184 Z" id="Fill-165" fill="#AA160B" mask="url(#mask-4)"></path>
                <path d="M675.3132,62.436 C675.3132,67.916 670.1122,71.797 660.9362,71.797 C659.0002,71.797 656.7762,71.656 655.7352,71.277 C655.5012,71.18 655.3602,71.084 655.3112,70.801 L654.6012,64.369 C654.5522,64.228 655.0732,63.901 655.2142,63.901 C655.3112,63.901 655.3602,63.945 655.4042,64.042 C656.3042,65.648 657.1552,67.351 658.0512,68.868 C658.3852,69.388 658.6202,69.619 659.1892,69.954 C659.9442,70.474 661.1252,70.712 662.4052,70.712 C666.4682,70.712 669.5432,68.727 669.5432,65.648 C669.5432,62.815 667.5092,61.112 662.6392,59.269 C657.6272,57.373 655.1222,55.06 655.1222,51.461 C655.1222,46.501 660.9852,41.914 668.8332,41.914 C670.7742,41.914 672.6662,42.151 673.5172,42.575 C673.7512,42.665 673.8482,42.761 673.8482,42.999 L674.4142,49.148 C674.4142,49.29 673.9902,49.572 673.8002,49.572 C673.7042,49.572 673.6592,49.572 673.6102,49.476 C672.7102,47.773 671.8152,46.07 670.8672,44.419 C670.6772,44.085 670.4912,43.847 669.9702,43.564 C669.3532,43.237 668.5992,42.999 667.4172,42.999 C664.0592,42.999 661.1742,45.178 661.1742,48.152 C661.1742,50.71 662.9702,52.123 666.9892,54.108 C671.4352,56.145 675.3132,58.272 675.3132,62.384 L675.3132,62.436 Z" id="Fill-166" fill="#AA160B" mask="url(#mask-4)"></path>
                <path d="M134.4372,40.8799 C134.6752,40.8799 134.8162,40.9689 134.9092,41.1099 C137.4152,44.4709 145.4082,57.0969 148.8102,62.1529 C149.0972,62.6739 149.3792,63.1939 149.6622,63.6709 L149.8512,63.5289 C149.8512,62.7709 149.8072,62.0649 149.8072,61.4019 C149.7102,57.8559 149.5202,46.2709 149.1412,42.9099 C149.0972,42.3449 148.8582,42.1069 148.3862,42.0099 L145.7842,41.6309 C145.6432,41.5869 145.5502,41.2069 145.5502,41.0219 C145.5502,40.9249 145.5502,40.8799 145.6432,40.8799 L154.7702,40.8799 C154.9112,40.8799 154.9112,40.9249 154.9112,41.0219 C154.9112,41.2069 154.8182,41.5869 154.6772,41.6309 L152.9262,42.0099 C152.4542,42.1069 152.2642,42.3449 152.1672,43.1479 C152.0262,44.7539 151.6502,52.0339 151.5062,55.5359 C151.3642,58.1829 151.1302,68.0199 151.0822,69.7229 C151.0822,69.9089 150.9892,70.0049 150.7992,70.1019 C150.2792,70.2439 149.1412,70.4819 148.5762,70.4819 C148.1482,70.4819 147.7252,70.3849 147.3452,69.9089 C143.4682,65.2319 136.7052,56.1529 132.9722,51.1409 C132.7832,50.8509 132.4522,50.3379 132.2622,50.0479 L132.0242,50.0999 C131.9792,50.7619 131.9792,51.2829 131.9792,51.6619 C131.7902,55.2089 131.3622,65.2319 131.3182,68.2059 C131.2702,68.6819 131.4592,68.8229 131.7902,68.9199 L134.8162,69.4409 C134.9582,69.4849 135.0502,69.7229 135.0502,69.9609 C135.0502,70.0499 135.0502,70.1019 134.9092,70.1019 C134.1992,70.0499 132.5002,70.0049 130.6522,70.0049 C128.9982,70.0049 127.5332,70.0499 126.7302,70.1019 C126.6332,70.1019 126.6332,70.0499 126.6332,69.9609 C126.6332,69.7679 126.7302,69.4409 126.8712,69.4409 L129.2842,68.9199 C129.6152,68.8679 129.8052,68.7269 129.8052,68.2059 C129.8052,66.8379 129.5182,58.4649 129.4742,55.8179 C129.4252,53.7359 129.1392,44.4709 129.0462,43.0059 C128.9982,42.4859 128.8562,42.1509 128.3362,42.0619 L126.4472,41.6829 C126.3022,41.6309 126.2092,41.3039 126.2092,41.0219 C126.2092,40.9249 126.2092,40.8799 126.3512,40.8799 L134.4372,40.8799 Z" id="Fill-167" fill="#FFFD75" mask="url(#mask-4)"></path>
                <path d="M171.0544,69.4849 C175.4044,69.4849 177.1074,63.7149 177.1074,54.9189 C177.1074,48.0179 174.9314,41.3489 170.7234,41.3489 C166.7044,41.3489 164.1984,46.9769 164.1984,56.1969 C164.1984,63.1059 166.7524,69.4849 171.0094,69.4849 L171.0544,69.4849 Z M170.1104,70.3849 C161.7414,70.3849 156.7744,65.6109 156.7744,56.7179 C156.7744,47.3039 162.3064,40.5009 171.7644,40.5009 C180.1334,40.5009 184.6284,46.1739 184.6284,54.1159 C184.6284,64.0939 179.6124,70.3849 170.1584,70.3849 L170.1104,70.3849 Z" id="Fill-168" fill="#FFFD75" mask="url(#mask-4)"></path>
                <path d="M221.4348,47.8769 C221.4348,48.0629 221.0558,48.2559 220.8658,48.2559 C220.8218,48.2559 220.7728,48.2039 220.7248,48.1599 L218.6458,43.3859 C218.4088,42.8649 218.1708,42.5829 217.6988,42.4339 C216.0928,41.9659 212.7798,41.7279 211.9288,41.6829 C211.7868,44.4709 211.5978,52.4649 211.5048,54.9709 C211.4558,57.6179 211.3148,66.4589 211.3148,68.3479 C211.3148,68.8229 211.5048,68.9199 211.8348,68.9639 L214.1998,69.3879 C214.3408,69.3879 214.4378,69.6709 214.4378,69.9609 C214.4378,70.0499 214.4378,70.1019 214.2928,70.1019 C213.2558,70.0499 210.6528,70.0049 207.9098,70.0049 C205.4038,70.0049 203.0868,70.0499 202.0458,70.1019 C201.9048,70.1019 201.9048,70.0499 201.9048,70.0049 C201.9048,69.7679 202.0018,69.3879 202.1428,69.3879 L204.5518,68.9199 C204.8828,68.8679 204.9318,68.7269 204.9318,68.2579 C204.9798,66.3619 204.7898,57.0009 204.7418,54.7769 C204.7418,52.8889 204.5518,44.0919 204.5078,41.6829 C203.7008,41.7279 200.4398,41.9659 198.8308,42.3899 C198.3578,42.5309 198.0758,42.8139 197.7928,43.3859 L195.6178,48.1149 C195.5698,48.2039 195.5208,48.2559 195.4288,48.2559 C195.2878,48.2559 194.8598,48.0179 194.8598,47.8769 L195.3318,40.9249 C195.3318,40.7389 195.4288,40.5899 195.6628,40.5899 C196.0418,40.5899 196.9418,40.6419 198.8788,40.7389 C200.8638,40.7829 203.8458,40.8799 208.2888,40.8799 C212.5938,40.8799 215.5718,40.8279 217.5578,40.7389 C219.5418,40.6869 220.5348,40.6419 220.8658,40.6419 C221.0558,40.6419 221.1518,40.7389 221.1518,40.9689 L221.4348,47.8769 Z" id="Fill-169" fill="#FFFD75" mask="url(#mask-4)"></path>
                <path d="M235.4958,40.8799 C235.5928,40.8799 235.5928,40.9249 235.5928,41.0659 C235.5928,41.2519 235.5438,41.6829 235.3538,41.7279 L233.5108,42.0619 C233.1798,42.1069 233.0378,42.3449 233.0378,42.7239 C232.8008,45.7509 232.6588,53.5499 232.6108,55.7219 C232.5658,57.4769 232.4208,67.7819 232.4208,68.3999 C232.4208,68.7789 232.6108,68.8679 232.9418,68.9639 L234.8818,69.3879 C235.0718,69.4409 235.1648,69.7679 235.1648,69.9609 C235.1648,70.0499 235.1168,70.1019 235.0238,70.1019 C234.2208,70.0499 231.6658,70.0049 229.0188,70.0049 C226.5578,70.0049 224.4318,70.0499 223.3418,70.1019 C223.2488,70.1019 223.2488,70.0499 223.2488,69.9609 C223.2488,69.7229 223.3418,69.3879 223.4868,69.3439 L225.6618,68.9199 C225.9928,68.8679 226.0858,68.7269 226.0858,68.3029 C226.1338,66.4139 225.9928,58.4209 225.9448,55.2089 C225.8958,51.8029 225.8038,44.3749 225.7068,43.0059 C225.7068,42.4859 225.5648,42.1509 225.1858,42.0619 L223.3908,41.7279 C223.2488,41.6829 223.1558,41.4009 223.1558,41.0219 C223.1558,40.9249 223.1558,40.8799 223.2488,40.8799 L235.4958,40.8799 Z" id="Fill-170" fill="#FFFD75" mask="url(#mask-4)"></path>
                <path d="M259.6653,70.0054 C259.6173,70.1474 259.5243,70.2434 259.2863,70.2434 C258.9553,70.2434 257.8703,70.1914 255.5053,70.1024 C253.1413,70.0504 249.5453,70.0054 244.1543,70.0054 C242.3103,70.0054 239.9463,70.0504 238.3883,70.1024 C238.2473,70.1024 238.2473,70.0504 238.2473,70.0054 C238.2473,69.8194 238.3403,69.4844 238.4813,69.4404 L240.6563,68.9644 C240.9873,68.8674 241.1763,68.7264 241.1763,68.2064 C241.2253,66.7934 241.1283,57.1934 241.1283,55.0604 C241.0833,53.2154 240.9873,44.3744 240.8943,42.8134 C240.8943,42.2484 240.7043,42.0624 240.4223,41.9654 L238.4813,41.5864 C238.3883,41.5864 238.2473,41.2524 238.2473,40.9244 C238.2473,40.8804 238.2473,40.8284 238.3403,40.8284 C239.4743,40.8284 240.5633,40.8804 241.5563,40.8804 L244.2033,40.8804 C254.7473,40.8804 258.3903,40.7384 258.9553,40.7384 C259.1443,40.7384 259.2413,40.8284 259.2413,41.0214 L259.5723,47.2154 C259.5723,47.3564 259.1443,47.5944 259.0033,47.5944 C258.9553,47.5944 258.9113,47.5944 258.8623,47.4974 C258.2003,46.0324 257.5393,44.6124 256.8293,43.1034 C256.5903,42.6724 256.2153,42.5304 255.6463,42.4344 C253.5643,42.0104 249.4523,41.6834 248.7423,41.6834 C248.2703,41.7274 248.2223,41.8694 248.2223,42.2034 C247.9873,45.0884 247.7013,52.6064 247.7493,54.1674 C251.0143,54.3084 256.3083,54.3984 257.5393,54.4504 C257.6313,54.4504 257.6313,54.4944 257.6313,54.5394 C257.6313,54.8294 257.3973,55.3494 257.2563,55.3494 C255.4083,55.5354 250.7273,55.7734 248.2703,56.0114 C247.8423,56.0564 247.7013,56.1524 247.7013,56.5324 C247.6573,58.0864 247.4673,67.0754 247.4673,68.3994 C247.4673,68.9204 247.6573,69.0094 247.9873,69.0094 C250.0213,69.0094 254.3233,68.8234 256.6393,68.2064 C257.1113,68.0654 257.4423,67.8274 257.6313,67.4994 C258.5803,66.2204 259.4313,64.8974 260.2343,63.5734 C260.2823,63.4774 260.3273,63.4774 260.3753,63.4774 C260.5653,63.5294 260.9443,63.8564 260.8963,64.0494 L259.6653,70.0054 Z" id="Fill-171" fill="#FFFD75" mask="url(#mask-4)"></path>
                <path d="M270.4138,40.8799 C270.6518,40.8799 270.7928,40.9689 270.8858,41.1099 C273.3918,44.4709 281.3848,57.0969 284.7868,62.1529 C285.0728,62.6739 285.3558,63.1939 285.6388,63.6709 L285.8278,63.5289 C285.8278,62.7709 285.7838,62.0649 285.7838,61.4019 C285.6868,57.8559 285.4968,46.2709 285.1178,42.9099 C285.0728,42.3449 284.8348,42.1069 284.3628,42.0099 L281.7608,41.6309 C281.6198,41.5869 281.5268,41.2069 281.5268,41.0219 C281.5268,40.9249 281.5268,40.8799 281.6198,40.8799 L290.7468,40.8799 C290.8878,40.8799 290.8878,40.9249 290.8878,41.0219 C290.8878,41.2069 290.7948,41.5869 290.6538,41.6309 L288.9028,42.0099 C288.4308,42.1069 288.2408,42.3449 288.1438,43.1479 C288.0028,44.7539 287.6268,52.0339 287.4818,55.5359 C287.3408,58.1829 287.1068,68.0199 287.0588,69.7229 C287.0588,69.9089 286.9658,70.0049 286.7758,70.1019 C286.2558,70.2439 285.1178,70.4819 284.5528,70.4819 C284.1248,70.4819 283.7018,70.3849 283.3218,69.9089 C279.4448,65.2319 272.6818,56.1529 268.9488,51.1409 C268.7598,50.8509 268.4288,50.3379 268.2388,50.0479 L268.0008,50.0999 C267.9558,50.7619 267.9558,51.2829 267.9558,51.6619 C267.7668,55.2089 267.3388,65.2319 267.2948,68.2059 C267.2468,68.6819 267.4358,68.8229 267.7668,68.9199 L270.7928,69.4409 C270.9348,69.4849 271.0268,69.7229 271.0268,69.9609 C271.0268,70.0499 271.0268,70.1019 270.8858,70.1019 C270.1758,70.0499 268.4768,70.0049 266.6288,70.0049 C264.9748,70.0049 263.5098,70.0499 262.7068,70.1019 C262.6098,70.1019 262.6098,70.0499 262.6098,69.9609 C262.6098,69.7679 262.7068,69.4409 262.8478,69.4409 L265.2608,68.9199 C265.5918,68.8679 265.7818,68.7269 265.7818,68.2059 C265.7818,66.8379 265.4948,58.4649 265.4508,55.8179 C265.4018,53.7359 265.1158,44.4709 265.0228,43.0059 C264.9748,42.4859 264.8328,42.1509 264.3128,42.0619 L262.4238,41.6829 C262.2788,41.6309 262.1858,41.3039 262.1858,41.0219 C262.1858,40.9249 262.1858,40.8799 262.3278,40.8799 L270.4138,40.8799 Z" id="Fill-172" fill="#FFFD75" mask="url(#mask-4)"></path>
                <path d="M313.8381,70.0054 C313.7901,70.1474 313.6971,70.2434 313.4591,70.2434 C313.1281,70.2434 312.0431,70.1914 309.6781,70.1024 C307.3131,70.0504 303.7181,70.0054 298.3271,70.0054 C296.4831,70.0054 294.1191,70.0504 292.5611,70.1024 C292.4201,70.1024 292.4201,70.0504 292.4201,70.0054 C292.4201,69.8194 292.5121,69.4844 292.6541,69.4404 L294.8291,68.9644 C295.1601,68.8674 295.3491,68.7264 295.3491,68.2064 C295.3981,66.7934 295.3011,57.1934 295.3011,55.0604 C295.2561,53.2154 295.1601,44.3744 295.0671,42.8134 C295.0671,42.2484 294.8771,42.0624 294.5941,41.9654 L292.6541,41.5864 C292.5611,41.5864 292.4201,41.2524 292.4201,40.9244 C292.4201,40.8804 292.4201,40.8284 292.5121,40.8284 C293.6471,40.8284 294.7361,40.8804 295.7291,40.8804 L298.3761,40.8804 C308.9201,40.8804 312.5631,40.7384 313.1281,40.7384 C313.3171,40.7384 313.4141,40.8284 313.4141,41.0214 L313.7451,47.2154 C313.7451,47.3564 313.3171,47.5944 313.1761,47.5944 C313.1281,47.5944 313.0831,47.5944 313.0351,47.4974 C312.3731,46.0324 311.7121,44.6124 311.0021,43.1034 C310.7631,42.6724 310.3881,42.5304 309.8191,42.4344 C307.7371,42.0104 303.6251,41.6834 302.9151,41.6834 C302.4431,41.7274 302.3951,41.8694 302.3951,42.2034 C302.1601,45.0884 301.8741,52.6064 301.9221,54.1674 C305.1871,54.3084 310.4811,54.3984 311.7121,54.4504 C311.8041,54.4504 311.8041,54.4944 311.8041,54.5394 C311.8041,54.8294 311.5701,55.3494 311.4251,55.3494 C309.5811,55.5354 304.9001,55.7734 302.4431,56.0114 C302.0151,56.0564 301.8741,56.1524 301.8741,56.5324 C301.8291,58.0864 301.6401,67.0754 301.6401,68.3994 C301.6401,68.9204 301.8291,69.0094 302.1601,69.0094 C304.1941,69.0094 308.4961,68.8234 310.8121,68.2064 C311.2841,68.0654 311.6151,67.8274 311.8041,67.4994 C312.7531,66.2204 313.6041,64.8974 314.4071,63.5734 C314.4521,63.4774 314.5001,63.4774 314.5481,63.4774 C314.7381,63.5294 315.1171,63.8564 315.0681,64.0494 L313.8381,70.0054 Z" id="Fill-173" fill="#FFFD75" mask="url(#mask-4)"></path>
                <path d="M338.6325,61.0234 C338.6325,66.5034 333.4315,70.3844 324.2555,70.3844 C322.3185,70.3844 320.0955,70.2434 319.0545,69.8644 C318.8205,69.7674 318.6785,69.6704 318.6305,69.3884 L317.9205,62.9564 C317.8725,62.8154 318.3925,62.4884 318.5335,62.4884 C318.6305,62.4884 318.6785,62.5324 318.7235,62.6294 C319.6235,64.2354 320.4745,65.9384 321.3745,67.4554 C321.7055,67.9754 321.9395,68.2064 322.5075,68.5404 C323.2625,69.0614 324.4445,69.2994 325.7245,69.2994 C329.7875,69.2994 332.8625,67.3144 332.8625,64.2354 C332.8625,61.4024 330.8285,59.6994 325.9585,57.8554 C320.9465,55.9594 318.4405,53.6474 318.4405,50.0484 C318.4405,45.0884 324.3035,40.5014 332.1525,40.5014 C334.0925,40.5014 335.9855,40.7384 336.8365,41.1624 C337.0705,41.2524 337.1675,41.3484 337.1675,41.5864 L337.7325,47.7354 C337.7325,47.8774 337.3085,48.1594 337.1195,48.1594 C337.0225,48.1594 336.9785,48.1594 336.9295,48.0634 C336.0295,46.3594 335.1335,44.6574 334.1855,43.0064 C333.9965,42.6714 333.8105,42.4344 333.2895,42.1514 C332.6725,41.8244 331.9185,41.5864 330.7355,41.5864 C327.3785,41.5864 324.4935,43.7654 324.4935,46.7394 C324.4935,49.2974 326.2895,50.7104 330.3085,52.6954 C334.7545,54.7324 338.6325,56.8594 338.6325,60.9714 L338.6325,61.0234 Z" id="Fill-174" fill="#FFFD75" mask="url(#mask-4)"></path>
                <path d="M361.5383,56.9038 C364.9883,56.9038 367.6843,53.4538 367.6843,48.7248 C367.6843,44.6568 365.4603,41.4898 362.2443,41.4898 C361.3003,41.4898 360.9213,41.6308 360.9213,42.2038 C360.6863,45.7948 360.3553,55.2978 360.3553,56.1528 C360.3553,56.7178 360.5903,56.9038 361.4903,56.9038 L361.5383,56.9038 Z M374.8703,48.4418 C374.8703,52.1308 371.7513,54.5908 369.1483,55.8188 C371.3233,58.8968 374.2083,64.2878 376.1013,68.1618 C376.2903,68.5408 376.4803,68.7268 376.8113,68.8228 L378.7033,69.3438 C378.9373,69.4408 379.0343,69.7228 379.0343,69.9608 C379.0343,70.0498 379.0343,70.1018 378.8893,70.1018 C377.6623,70.0498 376.2423,70.0058 373.5953,70.0058 C371.7993,70.0058 369.8583,70.0498 367.7323,70.1018 C367.5913,70.1018 367.5913,70.0498 367.5913,69.9608 C367.5913,69.7228 367.6843,69.4408 367.8733,69.3878 L369.7663,69.0088 C370.1893,68.9198 370.4273,68.7268 370.1443,68.3028 C367.9663,65.0388 365.1293,61.1648 362.3893,58.0418 C362.2443,57.9008 362.1033,57.8038 361.9133,57.8038 C361.6793,57.8038 360.7313,57.7588 360.3553,57.7588 C360.3073,59.7438 360.1663,66.2728 360.1663,68.1618 C360.1663,68.6368 360.3073,68.7788 360.6383,68.8678 L362.7203,69.3878 C362.8613,69.4408 363.0033,69.7228 363.0033,69.9608 C363.0033,70.0498 362.9553,70.1018 362.8613,70.1018 C361.5383,70.0498 359.4563,70.0058 357.0913,70.0058 C354.6793,70.0058 352.4593,70.0498 351.4663,70.1018 C351.3213,70.1018 351.3213,70.0498 351.3213,69.9608 C351.3213,69.6708 351.4183,69.3878 351.5593,69.3878 L353.6413,68.9648 C353.9723,68.8678 354.1133,68.6818 354.1133,68.3028 C354.1133,66.4588 354.0173,57.9448 354.0173,55.6768 C353.9723,53.7888 353.8753,44.8508 353.7833,43.1028 C353.7343,42.5828 353.6413,42.3448 353.3553,42.2928 L351.4663,42.0098 C351.3213,41.9658 351.1803,41.6828 351.1803,41.4008 C351.1803,41.3488 351.1803,41.2518 351.3213,41.2518 C353.6863,41.0658 358.2253,40.6868 362.8133,40.6868 C371.1823,40.6868 374.8703,43.5268 374.8703,48.3978 L374.8703,48.4418 Z" id="Fill-175" fill="#FFFD75" mask="url(#mask-4)"></path>
                <path d="M401.0847,70.0054 C401.0367,70.1474 400.9437,70.2434 400.7057,70.2434 C400.3747,70.2434 399.2897,70.1914 396.9247,70.1024 C394.5607,70.0504 390.9647,70.0054 385.5737,70.0054 C383.7307,70.0054 381.3657,70.0504 379.8077,70.1024 C379.6667,70.1024 379.6667,70.0504 379.6667,70.0054 C379.6667,69.8194 379.7597,69.4844 379.9007,69.4404 L382.0757,68.9644 C382.4067,68.8674 382.5957,68.7264 382.5957,68.2064 C382.6447,66.7934 382.5477,57.1934 382.5477,55.0604 C382.5027,53.2154 382.4067,44.3744 382.3137,42.8134 C382.3137,42.2484 382.1237,42.0624 381.8417,41.9654 L379.9007,41.5864 C379.8077,41.5864 379.6667,41.2524 379.6667,40.9244 C379.6667,40.8804 379.6667,40.8284 379.7597,40.8284 C380.8937,40.8284 381.9827,40.8804 382.9757,40.8804 L385.6227,40.8804 C396.1667,40.8804 399.8097,40.7384 400.3747,40.7384 C400.5637,40.7384 400.6607,40.8284 400.6607,41.0214 L400.9917,47.2154 C400.9917,47.3564 400.5637,47.5944 400.4227,47.5944 C400.3747,47.5944 400.3307,47.5944 400.2817,47.4974 C399.6197,46.0324 398.9587,44.6124 398.2487,43.1034 C398.0107,42.6724 397.6347,42.5304 397.0657,42.4344 C394.9837,42.0104 390.8717,41.6834 390.1617,41.6834 C389.6897,41.7274 389.6417,41.8694 389.6417,42.2034 C389.4067,45.0884 389.1207,52.6064 389.1687,54.1674 C392.4337,54.3084 397.7277,54.3984 398.9587,54.4504 C399.0507,54.4504 399.0507,54.4944 399.0507,54.5394 C399.0507,54.8294 398.8167,55.3494 398.6757,55.3494 C396.8277,55.5354 392.1467,55.7734 389.6897,56.0114 C389.2617,56.0564 389.1207,56.1524 389.1207,56.5324 C389.0767,58.0864 388.8867,67.0754 388.8867,68.3994 C388.8867,68.9204 389.0767,69.0094 389.4067,69.0094 C391.4407,69.0094 395.7427,68.8234 398.0587,68.2064 C398.5307,68.0654 398.8617,67.8274 399.0507,67.4994 C399.9997,66.2204 400.8507,64.8974 401.6537,63.5734 C401.7017,63.4774 401.7467,63.4774 401.7947,63.4774 C401.9847,63.5294 402.3637,63.8564 402.3157,64.0494 L401.0847,70.0054 Z" id="Fill-176" fill="#FFFD75" mask="url(#mask-4)"></path>
                <path d="M425.8791,61.0234 C425.8791,66.5034 420.6781,70.3844 411.5021,70.3844 C409.5651,70.3844 407.3421,70.2434 406.3011,69.8644 C406.0671,69.7674 405.9251,69.6704 405.8771,69.3884 L405.1671,62.9564 C405.1191,62.8154 405.6391,62.4884 405.7801,62.4884 C405.8771,62.4884 405.9251,62.5324 405.9701,62.6294 C406.8701,64.2354 407.7211,65.9384 408.6171,67.4554 C408.9521,67.9754 409.1861,68.2064 409.7551,68.5404 C410.5091,69.0614 411.6921,69.2994 412.9711,69.2994 C417.0341,69.2994 420.1091,67.3144 420.1091,64.2354 C420.1091,61.4024 418.0751,59.6994 413.2051,57.8554 C408.1931,55.9594 405.6881,53.6474 405.6881,50.0484 C405.6881,45.0884 411.5501,40.5014 419.3991,40.5014 C421.3391,40.5014 423.2321,40.7384 424.0841,41.1624 C424.3171,41.2524 424.4141,41.3484 424.4141,41.5864 L424.9801,47.7354 C424.9801,47.8774 424.5561,48.1594 424.3661,48.1594 C424.2691,48.1594 424.2251,48.1594 424.1761,48.0634 C423.2761,46.3594 422.3801,44.6574 421.4331,43.0064 C421.2431,42.6714 421.0571,42.4344 420.5371,42.1514 C419.9201,41.8244 419.1651,41.5864 417.9831,41.5864 C414.6251,41.5864 411.7401,43.7654 411.7401,46.7394 C411.7401,49.2974 413.5361,50.7104 417.5551,52.6954 C422.0021,54.7324 425.8791,56.8594 425.8791,60.9714 L425.8791,61.0234 Z" id="Fill-177" fill="#FFFD75" mask="url(#mask-4)"></path>
                <path d="M454.4548,47.8769 C454.4548,48.0629 454.0758,48.2559 453.8858,48.2559 C453.8408,48.2559 453.7928,48.2039 453.7448,48.1599 L451.6658,43.3859 C451.4288,42.8649 451.1898,42.5829 450.7178,42.4339 C449.1118,41.9659 445.7998,41.7279 444.9478,41.6829 C444.8068,44.4709 444.6178,52.4649 444.5238,54.9709 C444.4758,57.6179 444.3348,66.4589 444.3348,68.3479 C444.3348,68.8229 444.5238,68.9199 444.8548,68.9639 L447.2198,69.3879 C447.3608,69.3879 447.4578,69.6709 447.4578,69.9609 C447.4578,70.0499 447.4578,70.1019 447.3128,70.1019 C446.2748,70.0499 443.6728,70.0049 440.9288,70.0049 C438.4228,70.0049 436.1068,70.0499 435.0658,70.1019 C434.9248,70.1019 434.9248,70.0499 434.9248,70.0049 C434.9248,69.7679 435.0208,69.3879 435.1628,69.3879 L437.5718,68.9199 C437.9028,68.8679 437.9508,68.7269 437.9508,68.2579 C437.9988,66.3619 437.8098,57.0009 437.7618,54.7769 C437.7618,52.8889 437.5718,44.0919 437.5268,41.6829 C436.7208,41.7279 433.4598,41.9659 431.8508,42.3899 C431.3778,42.5309 431.0958,42.8139 430.8128,43.3859 L428.6378,48.1149 C428.5898,48.2039 428.5408,48.2559 428.4488,48.2559 C428.3068,48.2559 427.8798,48.0179 427.8798,47.8769 L428.3518,40.9249 C428.3518,40.7389 428.4488,40.5899 428.6828,40.5899 C429.0618,40.5899 429.9618,40.6419 431.8988,40.7389 C433.8838,40.7829 436.8658,40.8799 441.3088,40.8799 C445.6138,40.8799 448.5918,40.8279 450.5768,40.7389 C452.5618,40.6869 453.5548,40.6419 453.8858,40.6419 C454.0758,40.6419 454.1718,40.7389 454.1718,40.9689 L454.4548,47.8769 Z" id="Fill-178" fill="#FFFD75" mask="url(#mask-4)"></path>
                <path d="M462.9797,44.5161 C462.7457,45.2301 462.6047,45.6981 462.5077,46.1291 C461.3257,50.0481 459.8127,55.5361 458.9167,58.8001 C458.8677,58.9861 459.0087,59.1271 459.1497,59.1271 C461.3257,59.4101 466.3847,59.6031 468.4187,59.5581 C467.6157,57.2831 465.1547,50.4271 463.8787,46.1741 C463.7377,45.7501 463.5487,45.1781 463.2657,44.5161 L462.9797,44.5161 Z M465.5337,40.7831 C467.1877,40.7831 468.4667,40.8281 469.5077,40.8801 C469.6497,40.8801 469.8387,40.9691 469.8837,41.0661 C471.3967,46.1741 476.2677,62.4881 478.1597,68.3031 C478.2527,68.5851 478.4907,68.8231 478.7727,68.9201 L480.5237,69.3881 C480.6657,69.4401 480.7617,69.6711 480.7617,70.0051 C480.7617,70.0501 480.7137,70.1021 480.6167,70.1021 C479.6247,70.1021 477.3567,70.0051 474.9917,70.0051 C472.3447,70.0051 469.7907,70.0501 468.5117,70.1021 C468.3707,70.1021 468.3707,70.0501 468.3707,70.0051 C468.3707,69.7231 468.5117,69.3881 468.6567,69.3441 L471.2077,68.9201 C471.5867,68.8681 471.6347,68.5401 471.5387,68.1621 C471.0217,66.6001 469.2707,62.0641 468.7497,60.4511 C466.6237,60.5031 461.1357,60.6441 458.6777,60.8301 C458.5367,60.8301 458.3957,60.9711 458.3477,61.2091 C458.0647,62.5851 457.1647,66.4141 456.8827,68.1171 C456.8337,68.6821 457.0237,68.8231 457.3547,68.9201 L459.8127,69.3881 C459.9537,69.3881 460.0947,69.7231 460.0947,70.0051 C460.0947,70.1021 460.0497,70.1021 459.9537,70.1021 C458.7717,70.0501 456.8827,70.0051 454.9897,70.0051 C453.3797,70.0051 451.9637,70.0501 451.0157,70.1021 C450.9227,70.1021 450.9227,70.0501 450.9227,69.9611 C450.9227,69.8201 451.0157,69.3881 451.1607,69.3441 L452.3427,68.9641 C452.7187,68.8681 452.9567,68.6821 453.1937,68.1171 C455.5107,62.4431 460.4297,47.9211 462.5557,42.1511 C462.9797,41.0211 463.5967,40.7831 465.4857,40.7831 L465.5337,40.7831 Z" id="Fill-179" fill="#FFFD75" mask="url(#mask-4)"></path>
                <path d="M492.4099,40.8799 C492.5519,40.8799 492.5519,40.8799 492.5519,40.9689 C492.5519,41.3039 492.4549,41.6309 492.3129,41.6309 L490.1869,41.9659 C489.8069,42.0099 489.6179,42.1509 489.5699,42.5829 C489.1459,46.7919 489.0499,51.3719 489.0499,56.9039 C489.0499,65.3729 491.2719,69.4849 494.9159,69.4849 C498.9789,69.4849 500.4479,66.2209 500.4479,56.6729 C500.4479,51.7509 500.3509,45.8389 499.9759,42.6719 C499.9279,42.2039 499.7379,42.0619 499.4069,41.9659 L497.2319,41.6309 C497.0429,41.6309 496.9939,41.2519 496.9939,41.0219 C496.9939,40.9249 496.9939,40.8799 497.1359,40.8799 L508.4379,40.8799 C508.5339,40.8799 508.5789,40.9249 508.5789,41.0219 C508.5789,41.3489 508.4379,41.6309 508.2969,41.6829 L506.8769,41.9659 C506.5009,42.0619 506.3589,42.2039 506.4039,42.6279 C506.6899,46.1739 507.1139,50.4269 507.1139,56.5319 C507.0659,65.8939 501.9129,70.3849 493.8749,70.3849 C486.8739,70.3849 481.7699,67.7819 481.7699,56.8589 C481.8179,50.7619 482.7139,44.3299 482.8549,42.7689 C482.9519,42.2929 482.7629,42.0619 482.2899,41.9659 L480.6809,41.6309 C480.5389,41.6309 480.4459,41.3039 480.4459,41.0219 C480.4459,40.9249 480.4459,40.8799 480.5869,40.8799 L492.4099,40.8799 Z" id="Fill-180" fill="#FFFD75" mask="url(#mask-4)"></path>
                <path d="M521.3649,56.9038 C524.8149,56.9038 527.5109,53.4538 527.5109,48.7248 C527.5109,44.6568 525.2869,41.4898 522.0709,41.4898 C521.1269,41.4898 520.7479,41.6308 520.7479,42.2038 C520.5129,45.7948 520.1819,55.2978 520.1819,56.1528 C520.1819,56.7178 520.4169,56.9038 521.3159,56.9038 L521.3649,56.9038 Z M534.6969,48.4418 C534.6969,52.1308 531.5779,54.5908 528.9749,55.8188 C531.1499,58.8968 534.0349,64.2878 535.9279,68.1618 C536.1169,68.5408 536.3059,68.7268 536.6369,68.8228 L538.5299,69.3438 C538.7639,69.4408 538.8609,69.7228 538.8609,69.9608 C538.8609,70.0498 538.8609,70.1018 538.7159,70.1018 C537.4889,70.0498 536.0689,70.0058 533.4219,70.0058 C531.6259,70.0058 529.6849,70.0498 527.5579,70.1018 C527.4179,70.1018 527.4179,70.0498 527.4179,69.9608 C527.4179,69.7228 527.5109,69.4408 527.6999,69.3878 L529.5929,69.0088 C530.0159,68.9198 530.2539,68.7268 529.9679,68.3028 C527.7929,65.0388 524.9559,61.1648 522.2169,58.0418 C522.0709,57.9008 521.9289,57.8038 521.7399,57.8038 C521.5059,57.8038 520.5579,57.7588 520.1819,57.7588 C520.1349,59.7438 519.9929,66.2728 519.9929,68.1618 C519.9929,68.6368 520.1349,68.7788 520.4649,68.8678 L522.5469,69.3878 C522.6879,69.4408 522.8299,69.7228 522.8299,69.9608 C522.8299,70.0498 522.7809,70.1018 522.6879,70.1018 C521.3649,70.0498 519.2829,70.0058 516.9179,70.0058 C514.5059,70.0058 512.2859,70.0498 511.2929,70.1018 C511.1479,70.1018 511.1479,70.0498 511.1479,69.9608 C511.1479,69.6708 511.2449,69.3878 511.3869,69.3878 L513.4679,68.9648 C513.7989,68.8678 513.9399,68.6818 513.9399,68.3028 C513.9399,66.4588 513.8439,57.9448 513.8439,55.6768 C513.7989,53.7888 513.7019,44.8508 513.6089,43.1028 C513.5609,42.5828 513.4679,42.3448 513.1809,42.2928 L511.2929,42.0098 C511.1479,41.9658 511.0069,41.6828 511.0069,41.4008 C511.0069,41.3488 511.0069,41.2518 511.1479,41.2518 C513.5119,41.0658 518.0519,40.6868 522.6399,40.6868 C531.0089,40.6868 534.6969,43.5268 534.6969,48.3978 L534.6969,48.4418 Z" id="Fill-181" fill="#FFFD75" mask="url(#mask-4)"></path>
                <path d="M550.5534,44.5161 C550.3194,45.2301 550.1784,45.6981 550.0814,46.1291 C548.8994,50.0481 547.3854,55.5361 546.4904,58.8001 C546.4414,58.9861 546.5824,59.1271 546.7244,59.1271 C548.8994,59.4101 553.9584,59.6031 555.9924,59.5581 C555.1894,57.2831 552.7284,50.4271 551.4524,46.1741 C551.3124,45.7501 551.1224,45.1781 550.8394,44.5161 L550.5534,44.5161 Z M553.1084,40.7831 C554.7624,40.7831 556.0404,40.8281 557.0814,40.8801 C557.2234,40.8801 557.4124,40.9691 557.4574,41.0661 C558.9704,46.1741 563.8414,62.4881 565.7334,68.3031 C565.8294,68.5851 566.0644,68.8231 566.3474,68.9201 L568.0984,69.3881 C568.2394,69.4401 568.3354,69.6711 568.3354,70.0051 C568.3354,70.0501 568.2874,70.1021 568.1914,70.1021 C567.1984,70.1021 564.9304,70.0051 562.5664,70.0051 C559.9184,70.0051 557.3654,70.0501 556.0854,70.1021 C555.9444,70.1021 555.9444,70.0501 555.9444,70.0051 C555.9444,69.7231 556.0854,69.3881 556.2304,69.3441 L558.7814,68.9201 C559.1594,68.8681 559.2084,68.5401 559.1124,68.1621 C558.5954,66.6001 556.8444,62.0641 556.3244,60.4511 C554.1974,60.5031 548.7094,60.6441 546.2514,60.8301 C546.1114,60.8301 545.9694,60.9711 545.9204,61.2091 C545.6384,62.5851 544.7394,66.4141 544.4554,68.1171 C544.4074,68.6821 544.5974,68.8231 544.9284,68.9201 L547.3854,69.3881 C547.5274,69.3881 547.6724,69.7231 547.6724,70.0051 C547.6724,70.1021 547.6234,70.1021 547.5274,70.1021 C546.3444,70.0501 544.4554,70.0051 542.5644,70.0051 C540.9534,70.0051 539.5374,70.0501 538.5934,70.1021 C538.4964,70.1021 538.4964,70.0501 538.4964,69.9611 C538.4964,69.8201 538.5934,69.3881 538.7344,69.3441 L539.9164,68.9641 C540.2924,68.8681 540.5304,68.6821 540.7684,68.1171 C543.0844,62.4431 548.0024,47.9211 550.1294,42.1511 C550.5534,41.0211 551.1704,40.7831 553.0594,40.7831 L553.1084,40.7831 Z" id="Fill-182" fill="#FFFD75" mask="url(#mask-4)"></path>
                <path d="M576.485,40.8799 C576.723,40.8799 576.865,40.9689 576.958,41.1099 C579.464,44.4709 587.457,57.0969 590.859,62.1529 C591.145,62.6739 591.427,63.1939 591.71,63.6709 L591.9,63.5289 C591.9,62.7709 591.855,62.0649 591.855,61.4019 C591.758,57.8559 591.569,46.2709 591.193,42.9099 C591.145,42.3449 590.907,42.1069 590.435,42.0099 L587.833,41.6309 C587.691,41.5869 587.598,41.2069 587.598,41.0219 C587.598,40.9249 587.598,40.8799 587.691,40.8799 L596.818,40.8799 C596.96,40.8799 596.96,40.9249 596.96,41.0219 C596.96,41.2069 596.867,41.5869 596.725,41.6309 L594.974,42.0099 C594.502,42.1069 594.312,42.3449 594.219,43.1479 C594.075,44.7539 593.699,52.0339 593.554,55.5359 C593.413,58.1829 593.178,68.0199 593.131,69.7229 C593.131,69.9089 593.038,70.0049 592.847,70.1019 C592.327,70.2439 591.193,70.4819 590.625,70.4819 C590.197,70.4819 589.773,70.3849 589.394,69.9089 C585.516,65.2319 578.754,56.1529 575.02,51.1409 C574.831,50.8509 574.5,50.3379 574.31,50.0479 L574.073,50.0999 C574.028,50.7619 574.028,51.2829 574.028,51.6619 C573.839,55.2089 573.411,65.2319 573.366,68.2059 C573.318,68.6819 573.507,68.8229 573.839,68.9199 L576.865,69.4409 C577.006,69.4849 577.099,69.7229 577.099,69.9609 C577.099,70.0499 577.099,70.1019 576.958,70.1019 C576.248,70.0499 574.545,70.0049 572.701,70.0049 C571.047,70.0049 569.582,70.0499 568.778,70.1019 C568.681,70.1019 568.681,70.0499 568.681,69.9609 C568.681,69.7679 568.778,69.4409 568.92,69.4409 L571.333,68.9199 C571.664,68.8679 571.853,68.7269 571.853,68.2059 C571.853,66.8379 571.567,58.4649 571.518,55.8179 C571.473,53.7359 571.187,44.4709 571.094,43.0059 C571.047,42.4859 570.905,42.1509 570.384,42.0619 L568.492,41.6829 C568.351,41.6309 568.257,41.3039 568.257,41.0219 C568.257,40.9249 568.257,40.8799 568.399,40.8799 L576.485,40.8799 Z" id="Fill-183" fill="#FFFD75" mask="url(#mask-4)"></path>
                <path d="M624.8288,47.8769 C624.8288,48.0629 624.4488,48.2559 624.2598,48.2559 C624.2158,48.2559 624.1668,48.2039 624.1188,48.1599 L622.0408,43.3859 C621.8028,42.8649 621.5638,42.5829 621.0928,42.4339 C619.4858,41.9659 616.1738,41.7279 615.3218,41.6829 C615.1808,44.4709 614.9908,52.4649 614.8978,54.9709 C614.8498,57.6179 614.7088,66.4589 614.7088,68.3479 C614.7088,68.8229 614.8978,68.9199 615.2288,68.9639 L617.5938,69.3879 C617.7348,69.3879 617.8318,69.6709 617.8318,69.9609 C617.8318,70.0499 617.8318,70.1019 617.6858,70.1019 C616.6488,70.0499 614.0468,70.0049 611.3038,70.0049 C608.7978,70.0049 606.4808,70.0499 605.4398,70.1019 C605.2988,70.1019 605.2988,70.0499 605.2988,70.0049 C605.2988,69.7679 605.3948,69.3879 605.5368,69.3879 L607.9458,68.9199 C608.2768,68.8679 608.3248,68.7269 608.3248,68.2579 C608.3738,66.3619 608.1838,57.0009 608.1358,54.7769 C608.1358,52.8889 607.9458,44.0919 607.9008,41.6829 C607.0948,41.7279 603.8338,41.9659 602.2248,42.3899 C601.7518,42.5309 601.4698,42.8139 601.1868,43.3859 L599.0118,48.1149 C598.9638,48.2039 598.9148,48.2559 598.8218,48.2559 C598.6818,48.2559 598.2538,48.0179 598.2538,47.8769 L598.7248,40.9249 C598.7248,40.7389 598.8218,40.5899 599.0568,40.5899 C599.4348,40.5899 600.3358,40.6419 602.2718,40.7389 C604.2578,40.7829 607.2398,40.8799 611.6828,40.8799 C615.9878,40.8799 618.9658,40.8279 620.9508,40.7389 C622.9358,40.6869 623.9288,40.6419 624.2598,40.6419 C624.4488,40.6419 624.5458,40.7389 624.5458,40.9689 L624.8288,47.8769 Z" id="Fill-184" fill="#FFFD75" mask="url(#mask-4)"></path>
                <path d="M647.9645,70.0054 C647.9165,70.1474 647.8235,70.2434 647.5855,70.2434 C647.2545,70.2434 646.1685,70.1914 643.8045,70.1024 C641.4405,70.0504 637.8445,70.0054 632.4535,70.0054 C630.6105,70.0054 628.2455,70.0504 626.6875,70.1024 C626.5465,70.1024 626.5465,70.0504 626.5465,70.0054 C626.5465,69.8194 626.6395,69.4844 626.7805,69.4404 L628.9555,68.9644 C629.2855,68.8674 629.4765,68.7264 629.4765,68.2064 C629.5245,66.7934 629.4275,57.1934 629.4275,55.0604 C629.3825,53.2154 629.2855,44.3744 629.1935,42.8134 C629.1935,42.2484 629.0035,42.0624 628.7215,41.9654 L626.7805,41.5864 C626.6875,41.5864 626.5465,41.2524 626.5465,40.9244 C626.5465,40.8804 626.5465,40.8284 626.6395,40.8284 C627.7735,40.8284 628.8615,40.8804 629.8555,40.8804 L632.5025,40.8804 C643.0455,40.8804 646.6895,40.7384 647.2545,40.7384 C647.4435,40.7384 647.5405,40.8284 647.5405,41.0214 L647.8715,47.2154 C647.8715,47.3564 647.4435,47.5944 647.3035,47.5944 C647.2545,47.5944 647.2095,47.5944 647.1615,47.4974 C646.4995,46.0324 645.8385,44.6124 645.1275,43.1034 C644.8905,42.6724 644.5145,42.5304 643.9455,42.4344 C641.8635,42.0104 637.7515,41.6834 637.0415,41.6834 C636.5695,41.7274 636.5215,41.8694 636.5215,42.2034 C636.2865,45.0884 636.0005,52.6064 636.0495,54.1674 C639.3135,54.3084 644.6075,54.3984 645.8385,54.4504 C645.9315,54.4504 645.9315,54.4944 645.9315,54.5394 C645.9315,54.8294 645.6965,55.3494 645.5555,55.3494 C643.7075,55.5354 639.0265,55.7734 636.5695,56.0114 C636.1425,56.0564 636.0005,56.1524 636.0005,56.5324 C635.9555,58.0864 635.7665,67.0754 635.7665,68.3994 C635.7665,68.9204 635.9555,69.0094 636.2865,69.0094 C638.3205,69.0094 642.6215,68.8234 644.9385,68.2064 C645.4105,68.0654 645.7415,67.8274 645.9315,67.4994 C646.8795,66.2204 647.7305,64.8974 648.5335,63.5734 C648.5815,63.4774 648.6265,63.4774 648.6745,63.4774 C648.8645,63.5294 649.2435,63.8564 649.1945,64.0494 L647.9645,70.0054 Z" id="Fill-185" fill="#FFFD75" mask="url(#mask-4)"></path>
                <path d="M672.7595,61.0234 C672.7595,66.5034 667.5585,70.3844 658.3825,70.3844 C656.4455,70.3844 654.2225,70.2434 653.1815,69.8644 C652.9475,69.7674 652.8055,69.6704 652.7575,69.3884 L652.0465,62.9564 C651.9985,62.8154 652.5195,62.4884 652.6605,62.4884 C652.7575,62.4884 652.8055,62.5324 652.8505,62.6294 C653.7495,64.2354 654.6015,65.9384 655.4965,67.4554 C655.8315,67.9754 656.0665,68.2064 656.6345,68.5404 C657.3895,69.0614 658.5715,69.2994 659.8505,69.2994 C663.9145,69.2994 666.9885,67.3144 666.9885,64.2354 C666.9885,61.4024 664.9555,59.6994 660.0845,57.8554 C655.0725,55.9594 652.5675,53.6474 652.5675,50.0484 C652.5675,45.0884 658.4305,40.5014 666.2795,40.5014 C668.2195,40.5014 670.1125,40.7384 670.9635,41.1624 C671.1975,41.2524 671.2945,41.3484 671.2945,41.5864 L671.8595,47.7354 C671.8595,47.8774 671.4355,48.1594 671.2455,48.1594 C671.1495,48.1594 671.1045,48.1594 671.0565,48.0634 C670.1565,46.3594 669.2605,44.6574 668.3125,43.0064 C668.1225,42.6714 667.9375,42.4344 667.4165,42.1514 C666.7995,41.8244 666.0445,41.5864 664.8625,41.5864 C661.5055,41.5864 658.6195,43.7654 658.6195,46.7394 C658.6195,49.2974 660.4155,50.7104 664.4355,52.6954 C668.8815,54.7324 672.7595,56.8594 672.7595,60.9714 L672.7595,61.0234 Z" id="Fill-186" fill="#FFFD75" mask="url(#mask-4)"></path>
            </g>
        </g>
    </g>
</svg>