<?xml version="1.0" encoding="utf-8"?>
<!-- Generator: Adobe Illustrator 24.0.0, SVG Export Plug-In . SVG Version: 6.00 Build 0)  -->
<svg version="1.1" id="Layer_1" xmlns="http://www.w3.org/2000/svg" xmlns:xlink="http://www.w3.org/1999/xlink" x="0px" y="0px"
	 viewBox="0 0 40 40" style="enable-background:new 0 0 40 40;" xml:space="preserve">
<style type="text/css">
	.st0{fill:#FFFFFF;}
</style>
<path class="st0" d="M28.69,26.65l-4.8-4.8c0.59-0.96,0.92-2.09,0.92-3.31c0-3.52-2.86-6.38-6.38-6.38s-6.38,2.86-6.38,6.38
	s2.86,6.38,6.38,6.38c1.17,0,2.26-0.32,3.2-0.86l4.83,4.83c0.62,0.62,1.62,0.62,2.23,0h0C29.31,28.27,29.31,27.27,28.69,26.65z
	 M14.6,18.54c0-2.11,1.71-3.83,3.83-3.83c2.11,0,3.83,1.71,3.83,3.83s-1.71,3.83-3.83,3.83C16.31,22.37,14.6,20.66,14.6,18.54z"/>
</svg>
